<svg width="74" height="75" viewBox="0 0 74 75" fill="none" xmlns="http://www.w3.org/2000/svg">
<g clip-path="url(#clip0_1720_9723)">
<path d="M24.5592 1.49487H23.4297V25.8615H24.5592V1.49487Z" fill="#E0E0E0"/>
<path d="M23.2416 1.68457H7.06837C7.05974 1.68457 7.05273 1.6916 7.05273 1.70027V25.882C7.05273 25.8907 7.05974 25.8977 7.06837 25.8977H23.2416C23.2502 25.8977 23.2572 25.8907 23.2572 25.882V1.70027C23.2572 1.6916 23.2502 1.68457 23.2416 1.68457Z" fill="#F5F5F5"/>
<path d="M23.4294 26.0831H6.88087C6.87882 26.0831 6.87679 26.0827 6.87489 26.0819C6.87299 26.0811 6.87127 26.0799 6.86981 26.0785C6.86836 26.077 6.86721 26.0753 6.86642 26.0734C6.86564 26.0715 6.86523 26.0694 6.86523 26.0674V1.51057C6.86523 1.50851 6.86564 1.50647 6.86642 1.50456C6.86721 1.50266 6.86836 1.50093 6.86981 1.49947C6.87127 1.49801 6.87299 1.49686 6.87489 1.49607C6.87679 1.49528 6.87882 1.49487 6.88087 1.49487H23.4294C23.4315 1.49487 23.4335 1.49528 23.4354 1.49607C23.4373 1.49686 23.439 1.49801 23.4405 1.49947C23.4419 1.50093 23.4431 1.50266 23.4439 1.50456C23.4446 1.50647 23.445 1.50851 23.445 1.51057V26.0691C23.4446 26.073 23.4428 26.0765 23.4399 26.0791C23.437 26.0817 23.4333 26.0831 23.4294 26.0831ZM7.25623 25.7063H23.0541C23.0582 25.7063 23.0622 25.7046 23.0651 25.7017C23.068 25.6987 23.0697 25.6947 23.0697 25.6906V1.88738C23.0697 1.88321 23.068 1.87922 23.0651 1.87628C23.0622 1.87333 23.0582 1.87168 23.0541 1.87168H7.25623C7.25208 1.87168 7.2481 1.87333 7.24517 1.87628C7.24223 1.87922 7.24059 1.88321 7.24059 1.88738V25.6906C7.24059 25.6947 7.24223 25.6987 7.24517 25.7017C7.2481 25.7046 7.25208 25.7063 7.25623 25.7063Z" fill="#EBEBEB"/>
<path d="M21.6385 3.17651H8.69923C8.6906 3.17651 8.68359 3.18354 8.68359 3.19221V24.37C8.68359 24.3787 8.6906 24.3857 8.69923 24.3857H21.6385C21.6471 24.3857 21.6541 24.3787 21.6541 24.37V3.19221C21.6541 3.18354 21.6471 3.17651 21.6385 3.17651Z" fill="white"/>
<path d="M18.7881 9.19141H11.5261C11.5203 9.19141 11.5156 9.19609 11.5156 9.20187V17.7497C11.5156 17.7555 11.5203 17.7602 11.5261 17.7602H18.7881C18.7938 17.7602 18.7985 17.7555 18.7985 17.7497V9.20187C18.7985 9.19609 18.7938 9.19141 18.7881 9.19141Z" fill="#EBEBEB"/>
<path d="M18.2204 16.7116C18.2308 16.7377 17.8728 16.8965 17.1777 16.8162C16.7574 16.7614 16.3576 16.6012 16.0152 16.3505C15.5497 16.0026 15.2285 15.4945 15.1133 14.9235C15.0463 14.566 15.0754 14.197 15.1976 13.8546C15.3198 13.5121 15.5306 13.2085 15.8084 12.9749C15.9636 12.8433 16.1399 12.7389 16.3297 12.6662C16.5396 12.589 16.7648 12.5632 16.9866 12.5911C17.2291 12.6147 17.4578 12.7148 17.64 12.8772C17.7428 12.9739 17.8202 13.0945 17.8654 13.2284C17.9105 13.3623 17.922 13.5053 17.8989 13.6448C17.8487 13.8953 17.7232 14.1242 17.5392 14.3007C17.3771 14.4626 17.1921 14.5996 16.9901 14.7072C16.5886 14.932 16.1407 15.0604 15.6815 15.0822C15.1975 15.1087 14.7158 14.9981 14.2913 14.763C13.8503 14.5183 13.4925 14.1464 13.2643 13.6954C13.0271 13.2351 12.9617 12.7048 13.0801 12.2004C13.1961 11.7122 13.4729 11.2776 13.8656 10.967C14.0622 10.8152 14.2857 10.7021 14.5242 10.6339C14.7659 10.5688 15.0193 10.561 15.2645 10.6112C15.5248 10.66 15.7618 10.7936 15.9387 10.9915C16.1086 11.1934 16.2016 11.4494 16.2011 11.7137C16.2042 11.9541 16.1443 12.1912 16.0273 12.401C15.9197 12.5914 15.779 12.7609 15.612 12.9017C15.3113 13.1566 14.96 13.3445 14.5815 13.4529C14.2291 13.5555 13.8594 13.584 13.4955 13.5366C13.1577 13.4888 12.8351 13.3647 12.5519 13.1738C12.3082 13.0127 12.1016 12.8013 11.9458 12.5538C11.79 12.3062 11.6886 12.0281 11.6482 11.7381C11.6024 11.3032 11.7223 10.8669 11.9836 10.517C12.14 10.2981 12.3534 10.1266 12.6005 10.0216C12.7743 9.957 12.8681 9.95875 12.8733 9.97445C12.8786 9.99015 12.7951 10.0355 12.6579 10.128C12.4604 10.2641 12.2959 10.4429 12.1765 10.6513C11.988 10.9652 11.9183 11.3367 11.9801 11.698C12.03 11.9294 12.127 12.1479 12.2652 12.3398C12.4034 12.5316 12.5797 12.6927 12.783 12.8127C13.0306 12.9585 13.3069 13.0483 13.5927 13.0757C13.8784 13.1031 14.1667 13.0675 14.4373 12.9714C14.742 12.8732 15.0235 12.7135 15.2645 12.5022C15.3823 12.4089 15.4782 12.2906 15.5451 12.1558C15.6121 12.021 15.6486 11.873 15.652 11.7224C15.6507 11.5849 15.5992 11.4527 15.5073 11.3508C15.4154 11.2489 15.2894 11.1843 15.1533 11.1694C14.9948 11.1413 14.8322 11.149 14.6771 11.1921C14.5144 11.242 14.3624 11.3218 14.2288 11.4276C13.9444 11.658 13.7449 11.9773 13.6623 12.3347C13.5771 12.702 13.6264 13.0878 13.8013 13.4215C13.9761 13.7651 14.2482 14.0491 14.5833 14.2379C14.9127 14.4209 15.2863 14.5085 15.6624 14.4909C16.0331 14.4749 16.3954 14.3754 16.7224 14.1995C16.877 14.1207 17.0193 14.0196 17.1447 13.8995C17.2498 13.8075 17.3248 13.686 17.3602 13.5506C17.3706 13.5 17.3681 13.4475 17.3529 13.3981C17.3377 13.3487 17.3103 13.3039 17.2733 13.268C17.1757 13.1822 17.0546 13.1281 16.9258 13.1127C16.7876 13.0925 16.6467 13.1044 16.5139 13.1476C16.3746 13.1968 16.2442 13.2688 16.1281 13.3605C15.9087 13.5352 15.739 13.7649 15.6362 14.0265C15.5334 14.288 15.5011 14.5721 15.5425 14.8502C15.6208 15.3317 15.8672 15.7695 16.2376 16.0853C16.5277 16.3261 16.8689 16.4967 17.2351 16.5842C17.8468 16.7308 18.2152 16.6592 18.2204 16.7116Z" fill="#E0E0E0"/>
<path d="M74.5482 69.3982C74.5482 69.4063 57.8579 69.4129 37.2749 69.4129C16.6919 69.4129 0 69.4129 0 69.3982C0 69.3835 16.6854 69.3835 37.2749 69.3835C57.8644 69.3835 74.5482 69.3982 74.5482 69.3982Z" fill="#263238"/>
<path d="M56.7118 1.56787H30.3132C29.8307 1.56787 29.4395 1.96058 29.4395 2.44501V26.5472C29.4395 27.0316 29.8307 27.4243 30.3132 27.4243H56.7118C57.1943 27.4243 57.5855 27.0316 57.5855 26.5472V2.44501C57.5855 1.96058 57.1943 1.56787 56.7118 1.56787Z" fill="white"/>
<path d="M56.7104 27.4263C56.8031 27.4235 56.895 27.4079 56.9834 27.3797C57.0905 27.3452 57.1894 27.2893 57.2742 27.2152C57.3891 27.113 57.4749 26.982 57.5227 26.8356C57.5718 26.6437 57.588 26.4449 57.5705 26.2476C57.5705 26.0283 57.5705 25.7885 57.5705 25.5281C57.5705 25.0086 57.5705 24.4083 57.5705 23.734C57.5705 21.0327 57.5636 17.1253 57.5595 12.2983C57.5595 9.8848 57.5595 7.24104 57.5595 4.4013C57.5595 4.0477 57.5595 3.68862 57.5595 3.32817V2.50585C57.5632 2.41698 57.5549 2.32801 57.535 2.24134C57.493 2.06767 57.3975 1.91176 57.2619 1.79592C57.1249 1.67913 56.9539 1.60991 56.7745 1.59856C56.4073 1.59856 56.0305 1.59856 55.655 1.59856H51.0132H30.3254C30.2143 1.59674 30.1039 1.61717 30.0007 1.65866C29.8975 1.70015 29.8035 1.76187 29.7243 1.84021C29.6451 1.91855 29.5823 2.01195 29.5395 2.11494C29.4967 2.21793 29.4747 2.32846 29.4749 2.44007C29.4749 2.89691 29.4749 3.35376 29.4749 3.8106V11.82C29.4749 15.2929 29.4749 18.6439 29.4749 21.8359C29.4749 23.4321 29.4749 24.9853 29.4749 26.4957C29.4658 26.6784 29.5135 26.8594 29.6114 27.0137C29.7133 27.1639 29.8601 27.2776 30.0306 27.3385C30.2056 27.3862 30.3877 27.4029 30.5685 27.3879H33.2758H41.1424L52.5327 27.3988L41.1396 27.4523H33.273H30.2927C30.1968 27.4506 30.1019 27.4335 30.0114 27.4016C29.8284 27.3356 29.6707 27.2133 29.5609 27.0521C29.4547 26.8896 29.4013 26.6981 29.408 26.5039C29.408 24.9908 29.408 23.4375 29.408 21.8441C29.408 18.6521 29.408 15.3011 29.408 11.8282V6.52289C29.4016 5.62838 29.3984 4.72429 29.3984 3.8106V2.44007C29.3988 2.3202 29.4227 2.20158 29.4687 2.09097C29.5147 1.98037 29.582 1.87994 29.6667 1.79544C29.7514 1.71093 29.8518 1.644 29.9623 1.59846C30.0727 1.55293 30.191 1.52967 30.3104 1.53003H50.9981H55.64C56.0168 1.53003 56.3882 1.53003 56.7636 1.53003C56.9552 1.54125 57.1382 1.61386 57.2856 1.73721C57.4331 1.86056 57.5372 2.02813 57.5828 2.2153C57.6034 2.30514 57.6126 2.39725 57.6101 2.48941V4.4013C57.6101 7.24104 57.6101 9.88343 57.6101 12.2983C57.6101 17.1253 57.6005 21.0327 57.5991 23.734C57.5991 24.4083 57.5991 25.0086 57.5991 25.5281C57.5991 25.7885 57.5991 26.0283 57.5991 26.2476C57.6153 26.4465 57.5977 26.6467 57.5473 26.8397C57.4946 26.989 57.4032 27.1215 57.2824 27.2234C57.1424 27.342 56.9682 27.4126 56.7855 27.4249L56.7104 27.4263Z" fill="#263238"/>
<path d="M36.4453 18.0972C35.8442 18.0972 35.2566 18.2761 34.7568 18.6114C34.257 18.9467 33.8674 19.4233 33.6375 19.9808C33.4075 20.5383 33.3474 21.1518 33.4647 21.7437C33.5821 22.3355 33.8717 22.8791 34.2969 23.3057C34.722 23.7323 35.2636 24.0228 35.8533 24.1403C36.4429 24.2579 37.054 24.1973 37.6093 23.9662C38.1645 23.735 38.6391 23.3438 38.9729 22.8419C39.3066 22.34 39.4846 21.7501 39.4844 21.1466C39.4844 20.746 39.4057 20.3494 39.253 19.9793C39.1003 19.6093 38.8764 19.273 38.5942 18.9898C38.3119 18.7067 37.9769 18.4821 37.6082 18.3289C37.2395 18.1757 36.8443 18.097 36.4453 18.0972ZM36.4453 22.8515C36.1094 22.8515 35.781 22.7516 35.5017 22.5642C35.2224 22.3769 35.0048 22.1106 34.8762 21.7991C34.7477 21.4875 34.714 21.1447 34.7796 20.814C34.8451 20.4833 35.0069 20.1795 35.2444 19.941C35.4819 19.7026 35.7845 19.5402 36.114 19.4744C36.4434 19.4086 36.7849 19.4424 37.0953 19.5714C37.4056 19.7005 37.6708 19.919 37.8575 20.1994C38.0441 20.4798 38.1437 20.8094 38.1437 21.1466C38.1446 21.3711 38.1013 21.5935 38.0164 21.8012C37.9314 22.0088 37.8065 22.1976 37.6487 22.3566C37.4909 22.5157 37.3033 22.6419 37.0968 22.728C36.8903 22.8141 36.6689 22.8584 36.4453 22.8584V22.8515Z" fill="#FF725E"/>
<path d="M36.4461 24.2012C37.2428 24.2013 38.0077 23.8872 38.5759 23.3265C39.1441 22.7659 39.4702 22.0036 39.4838 21.2039H38.1363C38.1237 21.6468 37.9397 22.0673 37.6232 22.3762C37.3067 22.685 36.8827 22.8578 36.4413 22.8578C35.9999 22.8578 35.5759 22.685 35.2594 22.3762C34.9429 22.0673 34.7589 21.6468 34.7463 21.2039H33.4043C33.4179 22.0043 33.7445 22.7672 34.3136 23.328C34.8827 23.8888 35.6486 24.2024 36.4461 24.2012Z" fill="#455A64"/>
<path d="M36.4458 18.0972H36.3926V19.4444H36.4458C36.896 19.4444 37.3278 19.6238 37.6463 19.9433C37.9647 20.2627 38.1438 20.696 38.1442 21.148C38.1442 21.1672 38.1442 21.1836 38.1442 21.2014H39.4862C39.4862 21.1836 39.4862 21.1658 39.4862 21.148C39.4864 20.7472 39.4079 20.3503 39.2551 19.98C39.1024 19.6096 38.8784 19.2732 38.596 18.9898C38.3137 18.7065 37.9784 18.4818 37.6094 18.3286C37.2405 18.1755 36.8451 18.0968 36.4458 18.0972Z" fill="#E0E0E0"/>
<path d="M39.5008 21.2156H38.1233V21.1977C38.124 21.19 38.124 21.1822 38.1233 21.1744C38.124 21.1644 38.124 21.1543 38.1233 21.1443C38.1226 20.6971 37.9453 20.2684 37.6303 19.9521C37.3152 19.6359 36.8882 19.4579 36.4427 19.4572H36.373V18.0825H36.4427C37.2529 18.0829 38.03 18.4059 38.6033 18.9806C39.1766 19.5554 39.4994 20.335 39.5008 21.1484C39.5008 21.1594 39.5008 21.1703 39.5008 21.1799V21.2156ZM38.1588 21.1813H39.4667V21.1744C39.4667 21.1648 39.4667 21.1553 39.4667 21.1443C39.4656 20.34 39.1468 19.569 38.5801 19.0004C38.0134 18.4318 37.2452 18.112 36.444 18.1113H36.4085V19.4339H36.4399C36.8945 19.4346 37.3302 19.6162 37.6517 19.9389C37.9731 20.2615 38.154 20.6989 38.1547 21.1553C38.1554 21.1662 38.1554 21.1772 38.1547 21.1881L38.1588 21.1813Z" fill="#E0E0E0"/>
<path d="M38.1423 21.2039C38.135 21.4453 38.0766 21.6823 37.9709 21.8993C37.8652 22.1162 37.7147 22.3081 37.5293 22.462L38.3662 23.5146C38.7087 23.2343 38.9861 22.8822 39.179 22.4831C39.3719 22.084 39.4756 21.6474 39.483 21.2039H38.1423Z" fill="#263238"/>
<path d="M40.927 19.6122C40.927 19.6665 40.9109 19.7195 40.8809 19.7645C40.8509 19.8096 40.8083 19.8447 40.7584 19.8655C40.7085 19.8862 40.6536 19.8917 40.6006 19.8811C40.5477 19.8705 40.499 19.8444 40.4608 19.8061C40.4226 19.7677 40.3966 19.7189 40.3861 19.6657C40.3756 19.6125 40.381 19.5574 40.4016 19.5073C40.4223 19.4573 40.4573 19.4144 40.5022 19.3843C40.5471 19.3542 40.5999 19.3381 40.6539 19.3381C40.7263 19.3381 40.7958 19.367 40.847 19.4184C40.8982 19.4698 40.927 19.5395 40.927 19.6122Z" fill="#FF725E"/>
<path d="M40.927 20.8415C40.927 20.8957 40.9109 20.9487 40.8809 20.9938C40.8509 21.0389 40.8083 21.074 40.7584 21.0947C40.7085 21.1155 40.6536 21.1209 40.6006 21.1103C40.5477 21.0998 40.499 21.0736 40.4608 21.0353C40.4226 20.997 40.3966 20.9481 40.3861 20.895C40.3756 20.8418 40.381 20.7867 40.4016 20.7366C40.4223 20.6865 40.4573 20.6437 40.5022 20.6136C40.5471 20.5835 40.5999 20.5674 40.6539 20.5674C40.7263 20.5674 40.7958 20.5963 40.847 20.6477C40.8982 20.6991 40.927 20.7688 40.927 20.8415Z" fill="#E0E0E0"/>
<path d="M40.927 22.0385C40.927 22.0927 40.9109 22.1457 40.8809 22.1908C40.8509 22.2359 40.8083 22.271 40.7584 22.2918C40.7085 22.3125 40.6536 22.3179 40.6006 22.3073C40.5477 22.2968 40.499 22.2707 40.4608 22.2323C40.4226 22.194 40.3966 22.1452 40.3861 22.092C40.3756 22.0388 40.381 21.9837 40.4016 21.9336C40.4223 21.8835 40.4573 21.8407 40.5022 21.8106C40.5471 21.7805 40.5999 21.7644 40.6539 21.7644C40.7263 21.7644 40.7958 21.7933 40.847 21.8447C40.8982 21.8961 40.927 21.9658 40.927 22.0385Z" fill="#455A64"/>
<path d="M40.927 23.2326C40.927 23.2868 40.9109 23.3398 40.8809 23.3849C40.8509 23.43 40.8083 23.4651 40.7584 23.4858C40.7085 23.5066 40.6536 23.512 40.6006 23.5014C40.5477 23.4909 40.499 23.4648 40.4608 23.4264C40.4226 23.3881 40.3966 23.3393 40.3861 23.2861C40.3756 23.2329 40.381 23.1778 40.4016 23.1277C40.4223 23.0776 40.4573 23.0348 40.5022 23.0047C40.5471 22.9746 40.5999 22.9585 40.6539 22.9585C40.7263 22.9585 40.7958 22.9874 40.847 23.0388C40.8982 23.0902 40.927 23.1599 40.927 23.2326Z" fill="#263238"/>
<path d="M43.0407 19.4812H41.711C41.6484 19.4812 41.5977 19.5321 41.5977 19.595V19.6416C41.5977 19.7044 41.6484 19.7553 41.711 19.7553H43.0407C43.1033 19.7553 43.154 19.7044 43.154 19.6416V19.595C43.154 19.5321 43.1033 19.4812 43.0407 19.4812Z" fill="#E0E0E0"/>
<path d="M43.0407 20.687H41.711C41.6484 20.687 41.5977 20.7379 41.5977 20.8008V20.8474C41.5977 20.9102 41.6484 20.9611 41.711 20.9611H43.0407C43.1033 20.9611 43.154 20.9102 43.154 20.8474V20.8008C43.154 20.7379 43.1033 20.687 43.0407 20.687Z" fill="#E0E0E0"/>
<path d="M43.0407 21.8928H41.711C41.6484 21.8928 41.5977 21.9438 41.5977 22.0066V22.0532C41.5977 22.116 41.6484 22.1669 41.711 22.1669H43.0407C43.1033 22.1669 43.154 22.116 43.154 22.0532V22.0066C43.154 21.9438 43.1033 21.8928 43.0407 21.8928Z" fill="#E0E0E0"/>
<path d="M43.0407 23.0989H41.711C41.6484 23.0989 41.5977 23.1498 41.5977 23.2126V23.2592C41.5977 23.3221 41.6484 23.373 41.711 23.373H43.0407C43.1033 23.373 43.154 23.3221 43.154 23.2592V23.2126C43.154 23.1498 43.1033 23.0989 43.0407 23.0989Z" fill="#E0E0E0"/>
<path d="M54.7257 15.2109H32.752V5.7666H54.7326L54.7257 15.2109ZM32.8011 15.1657H54.6766V5.81183H32.8011V15.1657Z" fill="#EBEBEB"/>
<path d="M54.702 13.6006H32.7773V13.6458H54.702V13.6006Z" fill="#EBEBEB"/>
<path d="M54.702 12.0327H32.7773V12.0779H54.702V12.0327Z" fill="#EBEBEB"/>
<path d="M54.702 10.4675H32.7773V10.5128H54.702V10.4675Z" fill="#EBEBEB"/>
<path d="M54.702 8.89966H32.7773V8.94489H54.702V8.89966Z" fill="#EBEBEB"/>
<path d="M54.702 7.33179H32.7773V7.37701H54.702V7.33179Z" fill="#EBEBEB"/>
<path d="M35.5757 8.80322H34.8535V15.1556H35.5757V8.80322Z" fill="#FF725E"/>
<path d="M36.8909 7.26465H35.998V15.1534H36.8909V7.26465Z" fill="#455A64"/>
<path d="M40.6324 13.3523H39.9102V15.1545H40.6324V13.3523Z" fill="#FF725E"/>
<path d="M41.775 9.64136H41.0527V15.1564H41.775V9.64136Z" fill="#455A64"/>
<path d="M45.3472 6.08789H44.625V15.1553H45.3472V6.08789Z" fill="#FF725E"/>
<path d="M46.6617 12.9961H45.9395V15.1574H46.6617V12.9961Z" fill="#455A64"/>
<path d="M50.064 7.00757H49.3418V15.1568H50.064V7.00757Z" fill="#FF725E"/>
<path d="M51.2066 10.4734H50.4844V15.1579H51.2066V10.4734Z" fill="#455A64"/>
<path d="M53.5992 14.5232H52.877V15.1564H53.5992V14.5232Z" fill="#FF725E"/>
<path d="M36.4601 15.9365H34.9883C34.9257 15.9365 34.875 15.9875 34.875 16.0503V16.1229C34.875 16.1857 34.9257 16.2367 34.9883 16.2367H36.4601C36.5226 16.2367 36.5734 16.1857 36.5734 16.1229V16.0503C36.5734 15.9875 36.5226 15.9365 36.4601 15.9365Z" fill="#E0E0E0"/>
<path d="M41.38 15.9365H39.9082C39.8457 15.9365 39.7949 15.9875 39.7949 16.0503V16.1229C39.7949 16.1857 39.8457 16.2367 39.9082 16.2367H41.38C41.4426 16.2367 41.4933 16.1857 41.4933 16.1229V16.0503C41.4933 15.9875 41.4426 15.9365 41.38 15.9365Z" fill="#E0E0E0"/>
<path d="M45.7218 15.9365H44.25C44.1875 15.9365 44.1367 15.9875 44.1367 16.0503V16.1229C44.1367 16.1857 44.1875 16.2367 44.25 16.2367H45.7218C45.7844 16.2367 45.8351 16.1857 45.8351 16.1229V16.0503C45.8351 15.9875 45.7844 15.9365 45.7218 15.9365Z" fill="#E0E0E0"/>
<path d="M50.1964 15.9365H48.7246C48.6621 15.9365 48.6113 15.9875 48.6113 16.0503V16.1229C48.6113 16.1857 48.6621 16.2367 48.7246 16.2367H50.1964C50.259 16.2367 50.3097 16.1857 50.3097 16.1229V16.0503C50.3097 15.9875 50.259 15.9365 50.1964 15.9365Z" fill="#E0E0E0"/>
<path d="M53.9874 15.9365H52.5157C52.4531 15.9365 52.4023 15.9875 52.4023 16.0503V16.1229C52.4023 16.1857 52.4531 16.2367 52.5157 16.2367H53.9874C54.05 16.2367 54.1007 16.1857 54.1007 16.1229V16.0503C54.1007 15.9875 54.05 15.9365 53.9874 15.9365Z" fill="#E0E0E0"/>
<path d="M46.7506 21.2039H49.791V20.5885H46.7506V21.2039Z" fill="#FF725E"/>
<path d="M49.5943 20.5994C49.5779 20.7978 49.5779 20.9972 49.5943 21.1955C49.6125 20.9972 49.6125 20.7977 49.5943 20.5994Z" fill="#263238"/>
<path d="M49.3144 20.5994C49.2962 20.7977 49.2962 20.9972 49.3144 21.1955C49.3308 20.9972 49.3308 20.7978 49.3144 20.5994Z" fill="#263238"/>
<path d="M49.0351 20.5994C49.0169 20.7977 49.0169 20.9972 49.0351 21.1955C49.0515 20.9972 49.0515 20.7978 49.0351 20.5994Z" fill="#263238"/>
<path d="M48.7578 20.5994C48.7396 20.7977 48.7396 20.9972 48.7578 21.1955C48.7742 20.9972 48.7742 20.7978 48.7578 20.5994Z" fill="#263238"/>
<path d="M48.4824 20.5994C48.4642 20.7977 48.4642 20.9972 48.4824 21.1955C48.5006 20.9972 48.5006 20.7977 48.4824 20.5994Z" fill="#263238"/>
<path d="M48.2051 20.5994C48.1869 20.7977 48.1869 20.9972 48.2051 21.1955C48.2233 20.9972 48.2233 20.7977 48.2051 20.5994Z" fill="#263238"/>
<path d="M47.9277 20.5994C47.9095 20.7977 47.9095 20.9972 47.9277 21.1955C47.9459 20.9972 47.9459 20.7977 47.9277 20.5994Z" fill="#263238"/>
<path d="M47.6504 20.5994C47.6322 20.7977 47.6322 20.9972 47.6504 21.1955C47.6686 20.9972 47.6686 20.7977 47.6504 20.5994Z" fill="#263238"/>
<path d="M47.3736 20.5994C47.3572 20.7978 47.3572 20.9972 47.3736 21.1955C47.3918 20.9972 47.3918 20.7977 47.3736 20.5994Z" fill="#263238"/>
<path d="M47.0963 20.5994C47.0799 20.7978 47.0799 20.9972 47.0963 21.1955C47.1145 20.9972 47.1145 20.7977 47.0963 20.5994Z" fill="#263238"/>
<path d="M46.8189 20.5994C46.8025 20.7978 46.8025 20.9972 46.8189 21.1955C46.8371 20.9972 46.8371 20.7977 46.8189 20.5994Z" fill="#263238"/>
<path d="M46.6822 21.811H49.7227V21.1957H46.6822V21.811Z" fill="#FF725E"/>
<path d="M49.5279 21.2039C49.5115 21.4027 49.5115 21.6026 49.5279 21.8014C49.5461 21.6026 49.5461 21.4026 49.5279 21.2039Z" fill="#263238"/>
<path d="M49.2461 21.2039C49.2279 21.4026 49.2279 21.6026 49.2461 21.8014C49.2625 21.6026 49.2625 21.4027 49.2461 21.2039Z" fill="#263238"/>
<path d="M48.9668 21.2039C48.9486 21.4026 48.9486 21.6026 48.9668 21.8014C48.9832 21.6026 48.9832 21.4027 48.9668 21.2039Z" fill="#263238"/>
<path d="M48.6894 21.2039C48.6712 21.4026 48.6712 21.6026 48.6894 21.8014C48.7058 21.6026 48.7058 21.4027 48.6894 21.2039Z" fill="#263238"/>
<path d="M48.4121 21.2039C48.3939 21.4026 48.3939 21.6026 48.4121 21.8014C48.4303 21.6026 48.4303 21.4026 48.4121 21.2039Z" fill="#263238"/>
<path d="M48.1367 21.2039C48.1185 21.4026 48.1185 21.6026 48.1367 21.8014C48.1549 21.6026 48.1549 21.4026 48.1367 21.2039Z" fill="#263238"/>
<path d="M47.8594 21.2039C47.8412 21.4026 47.8412 21.6026 47.8594 21.8014C47.8776 21.6026 47.8776 21.4026 47.8594 21.2039Z" fill="#263238"/>
<path d="M47.582 21.2039C47.5638 21.4026 47.5638 21.6026 47.582 21.8014C47.6002 21.6026 47.6002 21.4026 47.582 21.2039Z" fill="#263238"/>
<path d="M47.3047 21.2039C47.2865 21.4026 47.2865 21.6026 47.3047 21.8014C47.3229 21.6026 47.3229 21.4026 47.3047 21.2039Z" fill="#263238"/>
<path d="M47.0279 21.2039C47.0115 21.4027 47.0115 21.6026 47.0279 21.8014C47.0461 21.6026 47.0461 21.4026 47.0279 21.2039Z" fill="#263238"/>
<path d="M46.7506 21.2039C46.7342 21.4027 46.7342 21.6026 46.7506 21.8014C46.7688 21.6026 46.7688 21.4026 46.7506 21.2039Z" fill="#263238"/>
<g opacity="0.3">
<path d="M49.6759 21.1921C48.6991 21.3237 47.7092 21.3237 46.7324 21.1921H49.6759Z" fill="black"/>
</g>
<path d="M46.6816 21.1971C46.6816 21.2039 47.3643 21.2108 48.1998 21.2108C49.0353 21.2108 49.7166 21.2108 49.7166 21.1971C49.7166 21.1834 49.034 21.1833 48.1998 21.1833C47.3656 21.1833 46.6816 21.1902 46.6816 21.1971Z" fill="#263238"/>
<path d="M46.9713 22.4038H50.0117V21.7884H46.9713V22.4038Z" fill="#FF725E"/>
<path d="M49.8164 21.7996C49.7982 21.9979 49.7982 22.1974 49.8164 22.3957C49.8328 22.1974 49.8328 21.9979 49.8164 21.7996Z" fill="#263238"/>
<path d="M49.5338 21.7996C49.5174 21.9979 49.5174 22.1974 49.5338 22.3957C49.552 22.1974 49.552 21.9979 49.5338 21.7996Z" fill="#263238"/>
<path d="M49.2558 21.7996C49.2376 21.9979 49.2376 22.1974 49.2558 22.3957C49.274 22.1974 49.274 21.9979 49.2558 21.7996Z" fill="#263238"/>
<path d="M48.9791 21.7996C48.9627 21.9979 48.9627 22.1974 48.9791 22.3957C48.9973 22.1974 48.9973 21.9979 48.9791 21.7996Z" fill="#263238"/>
<path d="M48.7017 21.7996C48.6854 21.9979 48.6854 22.1974 48.7017 22.3957C48.7199 22.1974 48.7199 21.9979 48.7017 21.7996Z" fill="#263238"/>
<path d="M48.4244 21.7996C48.408 21.9979 48.408 22.1974 48.4244 22.3957C48.4426 22.1974 48.4426 21.9979 48.4244 21.7996Z" fill="#263238"/>
<path d="M48.1471 21.7996C48.1307 21.9979 48.1307 22.1974 48.1471 22.3957C48.1653 22.1974 48.1653 21.9979 48.1471 21.7996Z" fill="#263238"/>
<path d="M47.8697 21.7996C47.8533 21.9979 47.8533 22.1974 47.8697 22.3957C47.8879 22.1974 47.8879 21.9979 47.8697 21.7996Z" fill="#263238"/>
<path d="M47.5937 21.7996C47.5755 21.9979 47.5755 22.1974 47.5937 22.3957C47.6101 22.1974 47.6101 21.9979 47.5937 21.7996Z" fill="#263238"/>
<path d="M47.3183 21.7996C47.3001 21.9979 47.3001 22.1974 47.3183 22.3957C47.3347 22.1974 47.3347 21.9979 47.3183 21.7996Z" fill="#263238"/>
<path d="M47.041 21.7996C47.0228 21.9979 47.0228 22.1974 47.041 22.3957C47.0574 22.1974 47.0574 21.9979 47.041 21.7996Z" fill="#263238"/>
<g opacity="0.3">
<path d="M49.9617 21.7908C48.9853 21.9217 47.9959 21.9217 47.0195 21.7908H49.9617Z" fill="black"/>
</g>
<path d="M46.9727 21.7928C46.9727 21.7996 47.6553 21.8051 48.4895 21.8051C49.3236 21.8051 50.0063 21.8051 50.0063 21.7928C50.0063 21.7804 49.3236 21.7791 48.4895 21.7791C47.6553 21.7791 46.9727 21.7845 46.9727 21.7928Z" fill="#263238"/>
<path d="M46.6158 22.9907H49.6562V22.3987H46.6158V22.9907Z" fill="#FF725E"/>
<path d="M49.4668 22.4126C49.4486 22.6036 49.4486 22.7959 49.4668 22.9868C49.4832 22.7958 49.4832 22.6037 49.4668 22.4126Z" fill="#263238"/>
<path d="M49.1783 22.4126C49.1619 22.6037 49.1619 22.7958 49.1783 22.9868C49.1965 22.7959 49.1965 22.6036 49.1783 22.4126Z" fill="#263238"/>
<path d="M48.899 22.4126C48.8826 22.6037 48.8826 22.7958 48.899 22.9868C48.9172 22.7959 48.9172 22.6036 48.899 22.4126Z" fill="#263238"/>
<path d="M48.6217 22.4126C48.6053 22.6037 48.6053 22.7958 48.6217 22.9868C48.6399 22.7959 48.6399 22.6036 48.6217 22.4126Z" fill="#263238"/>
<path d="M48.3443 22.4126C48.3279 22.6037 48.3279 22.7958 48.3443 22.9868C48.3625 22.7959 48.3625 22.6036 48.3443 22.4126Z" fill="#263238"/>
<path d="M48.0683 22.4126C48.0501 22.6036 48.0501 22.7959 48.0683 22.9868C48.0847 22.7958 48.0847 22.6037 48.0683 22.4126Z" fill="#263238"/>
<path d="M47.791 22.4126C47.7728 22.6036 47.7728 22.7959 47.791 22.9868C47.8074 22.7958 47.8074 22.6037 47.791 22.4126Z" fill="#263238"/>
<path d="M47.5156 22.4126C47.4974 22.6036 47.4974 22.7959 47.5156 22.9868C47.532 22.7958 47.532 22.6037 47.5156 22.4126Z" fill="#263238"/>
<path d="M47.2383 22.4126C47.2201 22.6036 47.2201 22.7959 47.2383 22.9868C47.2546 22.7958 47.2546 22.6037 47.2383 22.4126Z" fill="#263238"/>
<path d="M46.9609 22.4126C46.9427 22.6036 46.9427 22.7959 46.9609 22.9868C46.9773 22.7958 46.9773 22.6037 46.9609 22.4126Z" fill="#263238"/>
<path d="M46.6836 22.4126C46.6654 22.6036 46.6654 22.7959 46.6836 22.9868C46.7018 22.7959 46.7018 22.6036 46.6836 22.4126Z" fill="#263238"/>
<g opacity="0.3">
<path d="M49.6042 22.4009C48.6307 22.5688 47.6357 22.5688 46.6621 22.4009H49.6042Z" fill="black"/>
</g>
<path d="M46.6152 22.4015C46.6152 22.4098 47.2979 22.4152 48.132 22.4152C48.9662 22.4152 49.6488 22.4152 49.6488 22.4015C49.6488 22.3878 48.9662 22.3892 48.132 22.3892C47.2979 22.3892 46.6152 22.3947 46.6152 22.4015Z" fill="#263238"/>
<path d="M46.8111 23.5835H49.8516V22.9914H46.8111V23.5835Z" fill="#FF725E"/>
<path d="M49.6562 22.9995C49.638 23.1905 49.638 23.3828 49.6562 23.5738C49.6744 23.3828 49.6744 23.1905 49.6562 22.9995Z" fill="#263238"/>
<path d="M49.375 22.9995C49.3568 23.1905 49.3568 23.3828 49.375 23.5738C49.3914 23.3827 49.3914 23.1906 49.375 22.9995Z" fill="#263238"/>
<path d="M49.0957 23.5753C49.1032 23.5753 49.1093 23.4471 49.1093 23.2889C49.1093 23.1307 49.1032 23.0024 49.0957 23.0024C49.0881 23.0024 49.082 23.1307 49.082 23.2889C49.082 23.4471 49.0881 23.5753 49.0957 23.5753Z" fill="#263238"/>
<path d="M48.8183 22.9995C48.8001 23.1905 48.8001 23.3828 48.8183 23.5738C48.8347 23.3827 48.8347 23.1906 48.8183 22.9995Z" fill="#263238"/>
<path d="M48.541 22.9995C48.5228 23.1905 48.5228 23.3828 48.541 23.5738C48.5574 23.3827 48.5574 23.1906 48.541 22.9995Z" fill="#263238"/>
<path d="M48.2636 22.9995C48.2455 23.1905 48.2455 23.3828 48.2636 23.5738C48.28 23.3827 48.28 23.1906 48.2636 22.9995Z" fill="#263238"/>
<path d="M47.9863 22.9995C47.9681 23.1905 47.9681 23.3828 47.9863 23.5738C48.0027 23.3827 48.0027 23.1906 47.9863 22.9995Z" fill="#263238"/>
<path d="M47.7109 22.9995C47.6927 23.1905 47.6927 23.3828 47.7109 23.5738C47.7273 23.3827 47.7273 23.1906 47.7109 22.9995Z" fill="#263238"/>
<path d="M47.4336 22.9995C47.4154 23.1905 47.4154 23.3828 47.4336 23.5738C47.4518 23.3828 47.4518 23.1905 47.4336 22.9995Z" fill="#263238"/>
<path d="M47.1562 22.9995C47.138 23.1905 47.138 23.3828 47.1562 23.5738C47.1744 23.3828 47.1744 23.1905 47.1562 22.9995Z" fill="#263238"/>
<path d="M46.873 22.9995C46.8548 23.1905 46.8548 23.3828 46.873 23.5738C46.8912 23.3828 46.8912 23.1905 46.873 22.9995Z" fill="#263238"/>
<g opacity="0.3">
<path d="M49.8015 22.9995C48.83 23.19 47.8309 23.19 46.8594 22.9995H49.8015Z" fill="black"/>
</g>
<path d="M46.8105 23.0002C46.8105 23.0084 47.4932 23.0139 48.3273 23.0139C49.1615 23.0139 49.8455 23.0139 49.8455 23.0002C49.8455 22.9865 49.1629 22.9878 48.3273 22.9878C47.4918 22.9878 46.8105 22.9892 46.8105 23.0002Z" fill="#263238"/>
<path d="M46.6373 24.1675H49.6777V23.5754H46.6373V24.1675Z" fill="#FF725E"/>
<path d="M49.4824 23.5864C49.4642 23.7774 49.4642 23.9697 49.4824 24.1607C49.4988 23.9696 49.4988 23.7775 49.4824 23.5864Z" fill="#263238"/>
<path d="M49.1939 23.5864C49.1775 23.7775 49.1775 23.9696 49.1939 24.1607C49.2121 23.9697 49.2121 23.7774 49.1939 23.5864Z" fill="#263238"/>
<path d="M48.9205 23.5864C48.9041 23.7775 48.9041 23.9696 48.9205 24.1607C48.9387 23.9697 48.9387 23.7774 48.9205 23.5864Z" fill="#263238"/>
<path d="M48.649 23.5864C48.6326 23.7775 48.6326 23.9696 48.649 24.1607C48.6672 23.9697 48.6672 23.7774 48.649 23.5864Z" fill="#263238"/>
<path d="M48.3678 23.5864C48.3514 23.7775 48.3514 23.9696 48.3678 24.1607C48.386 23.9697 48.386 23.7774 48.3678 23.5864Z" fill="#263238"/>
<path d="M48.0904 23.5864C48.074 23.7775 48.074 23.9696 48.0904 24.1607C48.1086 23.9697 48.1086 23.7774 48.0904 23.5864Z" fill="#263238"/>
<path d="M47.8144 23.5864C47.7962 23.7774 47.7962 23.9697 47.8144 24.1607C47.8308 23.9696 47.8308 23.7775 47.8144 23.5864Z" fill="#263238"/>
<path d="M47.5371 23.5864C47.5189 23.7774 47.5189 23.9697 47.5371 24.1607C47.5535 23.9696 47.5535 23.7775 47.5371 23.5864Z" fill="#263238"/>
<path d="M47.2597 23.5864C47.2415 23.7774 47.2415 23.9697 47.2597 24.1607C47.2761 23.9696 47.2761 23.7775 47.2597 23.5864Z" fill="#263238"/>
<path d="M46.9824 23.5864C46.9642 23.7774 46.9642 23.9697 46.9824 24.1607C46.9988 23.9696 46.9988 23.7775 46.9824 23.5864Z" fill="#263238"/>
<path d="M46.7051 23.5864C46.6869 23.7774 46.6869 23.9697 46.7051 24.1607C46.7214 23.9696 46.7214 23.7775 46.7051 23.5864Z" fill="#263238"/>
<g opacity="0.3">
<path d="M49.6277 23.5747C48.6541 23.7426 47.6591 23.7426 46.6855 23.5747H49.6277Z" fill="black"/>
</g>
<path d="M46.6367 23.5783C46.6367 23.5865 47.3193 23.592 48.1535 23.592C48.9877 23.592 49.6703 23.592 49.6703 23.5783C49.6703 23.5646 48.9877 23.566 48.1535 23.566C47.3193 23.566 46.6367 23.5714 46.6367 23.5783Z" fill="#263238"/>
<path d="M49.6779 24.1663C49.6774 24.1627 49.6774 24.159 49.6779 24.1553V24.1252C49.6779 24.0978 49.6779 24.0594 49.6779 24.0101C49.6779 23.9086 49.6779 23.7634 49.6779 23.5824V23.5756H49.8526L49.8444 23.5838C49.8444 23.4111 49.8444 23.211 49.8444 22.9918L49.854 23H49.6492V22.9959C49.6492 22.8122 49.6492 22.6149 49.6492 22.4079V22.3983H50.0151L50.0055 22.4079V21.7761L50.0151 21.7857H49.7175V21.7775C49.7175 21.5637 49.7175 21.3663 49.7175 21.2032H49.798H49.7912C49.7912 21.0127 49.7912 20.8606 49.7912 20.7537C49.7912 20.7016 49.7912 20.6605 49.7912 20.6317V20.6002C49.7905 20.597 49.7905 20.5937 49.7912 20.5906C49.7909 20.5938 49.7909 20.597 49.7912 20.6002V20.6317C49.7912 20.6605 49.7912 20.7016 49.7912 20.7537C49.7912 20.8592 49.7912 21.0127 49.798 21.2032V21.2142H49.7175L49.7243 21.2073C49.7243 21.3745 49.7243 21.5678 49.7243 21.7816L49.7161 21.772H50.0137V21.7816C50.0137 21.9789 50.0137 22.1927 50.0137 22.4079V22.4175H49.6465L49.6574 22.4079C49.6574 22.6149 49.6574 22.8191 49.6574 22.9959L49.6479 22.9863H49.8526V22.9959C49.8526 23.2151 49.8526 23.4152 49.8526 23.5879V23.5948H49.6779V23.5879C49.6779 23.7688 49.6779 23.9141 49.6779 24.0155C49.6779 24.0649 49.6779 24.1033 49.6779 24.1307V24.1608C49.6778 24.1626 49.6778 24.1645 49.6779 24.1663Z" fill="#263238"/>
<path d="M51.1806 19.8311H53.3173C53.3369 19.8311 53.356 19.8252 53.3723 19.8143C53.3886 19.8034 53.4013 19.7879 53.4089 19.7698C53.4164 19.7516 53.4185 19.7317 53.4149 19.7123C53.4112 19.693 53.4019 19.6752 53.3883 19.6612L52.3206 18.5647C52.302 18.5476 52.2776 18.5381 52.2524 18.5381C52.2271 18.5381 52.2027 18.5476 52.1841 18.5647L51.1165 19.6612C51.1031 19.6748 51.0939 19.692 51.09 19.7107C51.0861 19.7294 51.0876 19.7489 51.0944 19.7668C51.1011 19.7846 51.1128 19.8002 51.1281 19.8116C51.1434 19.823 51.1616 19.8298 51.1806 19.8311Z" fill="#E0E0E0"/>
<path d="M52.9625 19.6272H51.5918V24.0992H52.9625V19.6272Z" fill="#E0E0E0"/>
<path d="M47.8758 19.075C47.9295 19.1244 47.9718 19.1849 47.9998 19.2524C48.0279 19.3198 48.041 19.3926 48.0383 19.4656C48.0386 19.5689 48.0107 19.6704 47.9577 19.7589C47.8978 19.854 47.8114 19.9293 47.7092 19.9755C47.5783 20.0354 47.4353 20.064 47.2915 20.0591C47.1758 20.0585 47.0604 20.0456 46.9474 20.0207C46.8427 19.998 46.7419 19.9596 46.6484 19.9069L46.8341 19.4862C46.9016 19.5263 46.9741 19.5572 47.0498 19.578C47.1217 19.5988 47.1962 19.6094 47.271 19.6095C47.3245 19.6121 47.3778 19.6003 47.4253 19.5753C47.4437 19.5663 47.4591 19.5523 47.4697 19.5348C47.4804 19.5173 47.4858 19.4971 47.4853 19.4766C47.4859 19.458 47.4811 19.4396 47.4717 19.4236C47.4623 19.4076 47.4486 19.3946 47.4321 19.3861C47.3705 19.3619 47.3043 19.3516 47.2382 19.356H46.7645L46.8464 18.3308H47.9304V18.7598H47.2983L47.2874 18.927H47.3707C47.5515 18.9117 47.7315 18.9645 47.8758 19.075Z" fill="#FF725E"/>
<path d="M48.5128 19.957C48.3977 19.8835 48.3065 19.7777 48.2507 19.6527C48.1883 19.5025 48.1562 19.3413 48.1562 19.1785C48.1562 19.0158 48.1883 18.8546 48.2507 18.7043C48.3065 18.5794 48.3977 18.4736 48.5128 18.4001C48.5983 18.3447 48.6947 18.3085 48.7954 18.2939C48.8961 18.2793 48.9987 18.2867 49.0963 18.3156C49.1939 18.3445 49.2841 18.3942 49.3609 18.4613C49.4376 18.5283 49.499 18.6113 49.5408 18.7043C49.6032 18.8546 49.6353 19.0158 49.6353 19.1785C49.6353 19.3413 49.6032 19.5025 49.5408 19.6527C49.4968 19.7438 49.4342 19.8247 49.3573 19.8901C49.2803 19.9556 49.1905 20.0042 49.0938 20.0328C48.997 20.0614 48.8954 20.0695 48.7953 20.0564C48.6953 20.0434 48.5991 20.0095 48.5128 19.957ZM49.0821 19.1785C49.0821 18.8935 49.0207 18.7523 48.8964 18.7523C48.7722 18.7523 48.7094 18.8894 48.7094 19.1785C48.7094 19.4677 48.7722 19.6062 48.8964 19.6062C49.0207 19.6062 49.0753 19.4636 49.0753 19.1785H49.0821Z" fill="#FF725E"/>
<path d="M36.4857 21.3639H36.3615V21.5325H36.184V21.3639H35.7676V21.2392L36.1321 20.7307H36.3205L35.9819 21.2186H36.1908V21.0679H36.3615V21.2186H36.4871L36.4857 21.3639Z" fill="#263238"/>
<path d="M37.044 21.097C37.0696 21.1194 37.0899 21.1473 37.1034 21.1786C37.1169 21.2099 37.1231 21.2439 37.1218 21.2779C37.1229 21.326 37.1106 21.3735 37.0863 21.415C37.0607 21.4574 37.0232 21.4913 36.9784 21.5123C36.9222 21.5375 36.8611 21.5497 36.7996 21.5479C36.7452 21.5475 36.691 21.5401 36.6385 21.526C36.5895 21.513 36.5432 21.4911 36.502 21.4616L36.5729 21.3245C36.6034 21.3475 36.6376 21.3651 36.674 21.3766C36.7122 21.3899 36.7524 21.3963 36.7928 21.3958C36.8303 21.3983 36.8676 21.3887 36.8992 21.3684C36.9114 21.3595 36.9212 21.3478 36.928 21.3344C36.9348 21.3209 36.9384 21.306 36.9384 21.291C36.9384 21.2759 36.9348 21.261 36.928 21.2475C36.9212 21.2341 36.9114 21.2224 36.8992 21.2135C36.8567 21.1932 36.8097 21.1842 36.7627 21.1875H36.5648L36.6043 20.7366H37.0767V20.886H36.7545L36.7422 21.0381H36.805C36.8891 21.0291 36.9736 21.05 37.044 21.097Z" fill="#263238"/>
<path d="M49.8518 18.6871C49.8288 18.6554 49.8164 18.6173 49.8164 18.5781C49.8164 18.539 49.8288 18.5008 49.8518 18.4692C49.8639 18.4559 49.8787 18.4453 49.8951 18.438C49.9116 18.4308 49.9293 18.427 49.9473 18.427C49.9653 18.427 49.9831 18.4308 49.9995 18.438C50.016 18.4453 50.0307 18.4559 50.0429 18.4692C50.0677 18.5001 50.0804 18.5391 50.0784 18.5788C50.0801 18.6185 50.0675 18.6574 50.0429 18.6885C50.031 18.702 50.0162 18.7127 49.9997 18.7198C49.9832 18.7269 49.9653 18.7303 49.9473 18.7296C49.9292 18.7303 49.9112 18.7268 49.8946 18.7195C49.8781 18.7121 49.8634 18.701 49.8518 18.6871ZM49.9965 18.6487C50.0097 18.6279 50.0159 18.6034 50.0142 18.5788C50.0161 18.5538 50.0099 18.5288 49.9965 18.5076C49.9912 18.4994 49.9838 18.4929 49.9752 18.4886C49.9666 18.4842 49.957 18.4823 49.9473 18.4829C49.9377 18.4827 49.9283 18.4848 49.9197 18.4891C49.9111 18.4934 49.9037 18.4997 49.8982 18.5076C49.8851 18.5289 49.8789 18.5538 49.8804 18.5788C49.8791 18.6034 49.8853 18.6278 49.8982 18.6487C49.9037 18.6567 49.911 18.6633 49.9196 18.6678C49.9281 18.6723 49.9376 18.6747 49.9473 18.6748C49.9571 18.6751 49.9667 18.6729 49.9753 18.6683C49.984 18.6637 49.9912 18.657 49.9965 18.6487ZM50.2763 18.4322H50.3528L49.9787 18.9804H49.9023L50.2763 18.4322ZM50.2122 18.9475C50.1867 18.9168 50.1736 18.8777 50.1753 18.8379C50.1734 18.798 50.1866 18.7588 50.2122 18.7282C50.2238 18.7146 50.2382 18.7039 50.2546 18.6968C50.2709 18.6896 50.2886 18.6863 50.3064 18.6871C50.3243 18.6864 50.3422 18.6898 50.3588 18.6969C50.3753 18.704 50.39 18.7147 50.402 18.7282C50.4272 18.7589 50.4398 18.7981 50.4374 18.8379C50.4396 18.8776 50.4269 18.9166 50.402 18.9475C50.39 18.961 50.3753 18.9717 50.3588 18.9788C50.3422 18.9859 50.3243 18.9893 50.3064 18.9886C50.2886 18.9894 50.2709 18.9861 50.2546 18.9789C50.2382 18.9718 50.2238 18.9611 50.2122 18.9475ZM50.3555 18.9077C50.3688 18.887 50.375 18.8625 50.3733 18.8379C50.3748 18.8128 50.3686 18.7879 50.3555 18.7666C50.3498 18.7589 50.3424 18.7527 50.3339 18.7484C50.3253 18.7441 50.3159 18.7419 50.3064 18.7419C50.2968 18.7419 50.2874 18.7441 50.2789 18.7484C50.2704 18.7527 50.263 18.7589 50.2572 18.7666C50.244 18.7879 50.2378 18.8128 50.2395 18.8379C50.2378 18.8625 50.244 18.887 50.2572 18.9077C50.2628 18.9157 50.2701 18.9221 50.2787 18.9266C50.2872 18.9311 50.2967 18.9334 50.3064 18.9334C50.316 18.9334 50.3255 18.9311 50.3341 18.9266C50.3426 18.9221 50.35 18.9157 50.3555 18.9077Z" fill="#FF725E"/>
<path d="M31.9334 3.38261C31.9334 3.45342 31.9124 3.52263 31.8732 3.58149C31.834 3.64034 31.7783 3.68619 31.7131 3.71322C31.6479 3.74026 31.5762 3.74726 31.507 3.73335C31.4379 3.71943 31.3744 3.68523 31.3246 3.63506C31.2748 3.5849 31.241 3.52103 31.2274 3.45156C31.2138 3.38208 31.221 3.31011 31.2482 3.24477C31.2754 3.17943 31.3213 3.12366 31.3801 3.08452C31.4388 3.04538 31.5079 3.02463 31.5784 3.0249C31.6251 3.0249 31.6714 3.03417 31.7146 3.05216C31.7577 3.07015 31.7969 3.09652 31.8299 3.12976C31.8629 3.16299 31.889 3.20244 31.9067 3.24583C31.9245 3.28922 31.9335 3.3357 31.9334 3.38261Z" fill="#263238"/>
<path d="M32.9275 3.38261C32.9275 3.45336 32.9066 3.52252 32.8675 3.58134C32.8283 3.64017 32.7726 3.68602 32.7075 3.71309C32.6424 3.74017 32.5708 3.74725 32.5017 3.73345C32.4325 3.71964 32.369 3.68558 32.3192 3.63555C32.2694 3.58552 32.2354 3.52179 32.2217 3.4524C32.2079 3.38301 32.215 3.31108 32.242 3.24572C32.2689 3.18036 32.3146 3.12449 32.3732 3.08519C32.4318 3.04588 32.5007 3.0249 32.5712 3.0249C32.6657 3.0249 32.7563 3.06259 32.8231 3.12967C32.89 3.19676 32.9275 3.28774 32.9275 3.38261Z" fill="#263238"/>
<path d="M33.9216 3.38261C33.9216 3.45336 33.9008 3.52252 33.8616 3.58134C33.8224 3.64017 33.7668 3.68602 33.7017 3.71309C33.6366 3.74017 33.5649 3.74725 33.4958 3.73345C33.4267 3.71964 33.3632 3.68558 33.3134 3.63555C33.2635 3.58552 33.2296 3.52179 33.2158 3.4524C33.2021 3.38301 33.2091 3.31108 33.2361 3.24572C33.2631 3.18036 33.3088 3.12449 33.3673 3.08519C33.4259 3.04588 33.4948 3.0249 33.5653 3.0249C33.6598 3.0249 33.7505 3.06259 33.8173 3.12967C33.8841 3.19676 33.9216 3.28774 33.9216 3.38261Z" fill="#263238"/>
<path d="M10.9945 16.5404L10.438 15.563C10.7369 14.6706 10.6924 13.6983 10.3133 12.8371C9.93427 11.9759 9.24801 11.2883 8.38947 10.9093C7.53094 10.5303 6.56224 10.4875 5.67382 10.7892C4.7854 11.0908 4.04154 11.7152 3.58848 12.5396C3.13542 13.3639 3.00593 14.3286 3.22547 15.244C3.44501 16.1593 3.99771 16.9591 4.77489 17.4861C5.55207 18.013 6.49752 18.2291 7.42536 18.0918C8.3532 17.9545 9.19631 17.4737 9.78892 16.744L10.9945 16.5404Z" fill="white"/>
<path d="M10.994 16.5392C10.9702 16.5469 10.9458 16.5523 10.921 16.5555L10.6922 16.5978L9.78842 16.7607C9.78617 16.7612 9.78384 16.7612 9.7816 16.7607C9.77935 16.7602 9.77723 16.7592 9.77539 16.7578C9.77355 16.7564 9.77202 16.7547 9.77091 16.7526C9.7698 16.7506 9.76913 16.7484 9.76895 16.7461C9.76895 16.7461 9.76895 16.7461 9.76895 16.7363L9.79978 16.7558C9.40767 17.2455 8.89941 17.6286 8.32157 17.87C7.94821 18.026 7.55191 18.1195 7.14841 18.1469C6.1791 18.2203 5.21925 17.9131 4.47109 17.2901C3.79692 16.7339 3.336 15.96 3.16702 15.1005C2.99804 14.2411 3.13149 13.3494 3.54457 12.5777C3.83372 12.0291 4.25413 11.5611 4.76803 11.216C5.25731 10.8854 5.81588 10.6725 6.40039 10.5937C7.36795 10.4715 8.34518 10.7288 9.12841 11.312C9.91163 11.8953 10.4404 12.7595 10.6046 13.7245C10.7081 14.341 10.6562 14.9738 10.4537 15.5651V15.5504L10.861 16.2949L10.9616 16.4822L10.994 16.5441C10.994 16.5441 10.9794 16.5213 10.9535 16.4789L10.8431 16.2949C10.7441 16.132 10.6046 15.886 10.4212 15.5749C10.4196 15.5701 10.4196 15.565 10.4212 15.5602C10.6518 14.8571 10.6693 14.1011 10.4714 13.3881C10.2735 12.675 9.86924 12.0369 9.30975 11.5548C8.91413 11.2137 8.4517 10.9596 7.95227 10.809C7.45284 10.6583 6.9275 10.6144 6.41012 10.68C5.83907 10.7581 5.29343 10.9665 4.81508 11.2893C4.31388 11.6273 3.90364 12.0845 3.62083 12.6201C3.30901 13.2062 3.15921 13.8655 3.18697 14.5295C3.21474 15.1934 3.41907 15.8378 3.77873 16.3956C4.1384 16.9535 4.64029 17.4046 5.23228 17.7019C5.82426 17.9993 6.48476 18.1321 7.14517 18.0866C7.54363 18.0594 7.93497 17.967 8.30372 17.813C8.87562 17.579 9.38075 17.2063 9.77382 16.7281C9.77549 16.7264 9.7775 16.725 9.77973 16.724C9.78196 16.723 9.78437 16.7225 9.7868 16.7225C9.78923 16.7225 9.79164 16.723 9.79387 16.724C9.7961 16.725 9.79811 16.7264 9.79978 16.7281C9.80216 16.7315 9.80344 16.7355 9.80344 16.7395C9.80344 16.7436 9.80216 16.7476 9.79978 16.7509L9.78031 16.7249L10.6744 16.5864L10.908 16.5522L10.994 16.5392Z" fill="#263238"/>
<path d="M5.8388 14.3572C5.8388 14.4329 5.8164 14.507 5.77443 14.57C5.73246 14.633 5.67281 14.682 5.60303 14.711C5.53326 14.7399 5.45651 14.7474 5.3825 14.7325C5.30849 14.7176 5.24055 14.6809 5.18728 14.6273C5.13402 14.5736 5.09783 14.5052 5.0833 14.4308C5.06877 14.3565 5.07656 14.2795 5.10567 14.2095C5.13478 14.1396 5.1839 14.08 5.24682 14.0381C5.30974 13.9962 5.38363 13.974 5.45911 13.9744C5.50911 13.9744 5.55862 13.9843 5.60479 14.0035C5.65096 14.0228 5.69289 14.051 5.72817 14.0866C5.76345 14.1222 5.79138 14.1644 5.81037 14.2108C5.82936 14.2572 5.83902 14.307 5.8388 14.3572Z" fill="#263238"/>
<path d="M7.36224 14.3572C7.36224 14.4329 7.33988 14.5069 7.29798 14.5698C7.25608 14.6328 7.19653 14.6818 7.12685 14.7108C7.05717 14.7398 6.9805 14.7474 6.90653 14.7326C6.83257 14.7178 6.76462 14.6814 6.71129 14.6278C6.65797 14.5743 6.62165 14.5061 6.60694 14.4318C6.59222 14.3576 6.59977 14.2806 6.62864 14.2107C6.6575 14.1407 6.70637 14.0809 6.76908 14.0389C6.83178 13.9968 6.90551 13.9744 6.98093 13.9744C7.08206 13.9744 7.17905 14.0147 7.25056 14.0865C7.32207 14.1583 7.36224 14.2556 7.36224 14.3572Z" fill="#263238"/>
<path d="M8.87909 14.1656C8.91699 14.2312 8.93465 14.3066 8.92982 14.3822C8.92499 14.4579 8.8979 14.5304 8.85197 14.5906C8.80605 14.6507 8.74336 14.6959 8.67185 14.7202C8.60035 14.7446 8.52324 14.7471 8.45032 14.7274C8.37739 14.7077 8.31193 14.6668 8.26222 14.6097C8.21252 14.5526 8.18081 14.482 8.17112 14.4069C8.16143 14.3317 8.1742 14.2553 8.20779 14.1874C8.24139 14.1195 8.29432 14.0632 8.35985 14.0255C8.40309 14.0004 8.45084 13.9842 8.50036 13.9776C8.54988 13.9711 8.60019 13.9744 8.64843 13.9874C8.69666 14.0004 8.74186 14.0229 8.78144 14.0535C8.82103 14.084 8.85421 14.1222 8.87909 14.1656Z" fill="#263238"/>
<path d="M19.9417 38.6197C20.1962 39.3352 20.4392 39.8541 19.9683 40.052C19.5506 40.2279 18.4479 40.0908 18.4479 40.0908C18.0918 39.7073 18.6057 38.6707 18.6057 38.6707C19.0468 38.5946 19.4961 38.5775 19.9417 38.6197Z" fill="#FFC0BB"/>
<path d="M17.318 17.8665C17.318 17.8665 21.1641 20.4408 20.6949 38.6821C19.9568 39.1421 18.8499 38.9133 18.8499 38.9133C18.8499 38.9133 18.3209 29.5536 17.4643 25.7831C16.5575 21.7856 17.318 17.8665 17.318 17.8665Z" fill="#E8A33B"/>
<path d="M14.4611 39.6804H23.4723C23.6192 39.6804 23.7383 39.5609 23.7383 39.4134V32.9332C23.7383 32.7858 23.6192 32.6662 23.4723 32.6662H14.4611C14.3142 32.6662 14.1951 32.7858 14.1951 32.9332V39.4134C14.1951 39.5609 14.3142 39.6804 14.4611 39.6804Z" fill="#FF5B7E"/>
<path d="M20.2334 39.6795C20.1893 38.9513 19.2976 38.5447 18.7511 38.6521C18.2046 38.7595 17.7276 39.9672 17.9755 40.1395C18.2234 40.3119 20.2183 40.0436 20.2334 39.6795Z" fill="#FFC0BB"/>
<path d="M23.5389 37.8994H23.9397C24.0399 37.8994 24.1211 37.8179 24.1211 37.7174V34.6308C24.1211 34.5303 24.0399 34.4487 23.9397 34.4487H23.5389C23.4388 34.4487 23.3576 34.5303 23.3576 34.6308V37.7174C23.3576 37.8179 23.4388 37.8994 23.5389 37.8994Z" fill="#A3A3A3"/>
<path d="M15.6953 70.3914V68.7747L17.5373 68.2625L17.9472 68.4433L18.0173 70.3914L17.437 72.0888L15.6953 70.3914Z" fill="#FFC0BB"/>
<path d="M19.7019 37.2362L18.3949 69.2213H15.3516L12.6699 45.0454L16.1859 34.2146L19.7019 37.2362Z" fill="#122F5B"/>
<path d="M3.92578 70.3914V68.7747L5.76779 68.2625L6.17767 68.4433L6.24779 70.3914L5.66744 72.0888L3.92578 70.3914Z" fill="#FFC0BB"/>
<path d="M27.7649 28.7313C27.7526 28.7421 27.7435 28.756 27.7385 28.7716C27.7335 28.7871 27.7327 28.8038 27.7364 28.8197C27.7401 28.8357 27.748 28.8503 27.7593 28.8621C27.7706 28.8739 27.7848 28.8824 27.8006 28.8867C28.338 29.0329 30.0259 29.5039 30.0198 29.6495C30.0126 29.8225 28.494 29.4389 28.4051 29.573C28.3162 29.7072 29.807 30.044 29.7695 30.2279C29.7321 30.4117 28.3833 30.0591 28.341 30.1314C28.2987 30.2036 29.5543 30.6775 29.5972 30.7989C29.6402 30.9203 28.237 30.5756 28.1609 30.6484C28.0847 30.7212 28.9734 31.282 28.9341 31.3645C28.8948 31.4471 28.8827 31.5077 26.5202 30.8183L25.5995 30.5119L24.9883 29.851L25.4471 28.8685C25.4471 28.8685 28.4063 27.7391 28.5127 27.8149C28.6191 27.8908 28.5925 27.994 27.7649 28.7313Z" fill="#FFC0BB"/>
<path d="M18.3946 37.3023L6.47263 69.2195L3.55273 68.9804C3.55273 68.9804 7.18779 39.7183 9.3629 36.9376C11.538 34.1569 16.3048 34.7529 16.3048 34.7529L18.3946 37.3023Z" fill="#224887"/>
<path d="M17.0712 18.3703C17.0712 18.3703 15.5986 19.2466 14.4512 18.3703L14.7214 16.2304L17.0041 15.7583L17.0712 18.3678V18.3703Z" fill="#FFC0BB"/>
<path d="M17.0394 17.1541L17.0037 15.7583L14.6883 16.4817L14.623 17.0048C15.1399 17.1917 16.1132 17.4193 17.0394 17.1541Z" fill="#FC8D84"/>
<path d="M25.9293 27.6634C24.7619 27.9432 22.0162 27.8036 19.936 27.6397C19.919 25.912 19.8531 24.3019 19.702 23.175C19.1658 19.163 17.3177 17.8655 17.3177 17.8655C15.4733 18.0858 14.1923 17.0984 14.1923 17.0984C11.7191 17.1281 10.2894 18.4748 10.2894 18.4748C6.48992 21.7658 9.36569 28.4978 9.36569 28.4978L8.32227 37.3927C10.6763 38.2005 20.3005 37.715 20.3005 37.715C20.3005 37.715 19.8296 34.8821 19.8985 31.9995C22.9483 31.8277 25.9317 31.3404 25.9317 31.3404C26.0484 30.682 25.9293 27.6634 25.9293 27.6634Z" fill="#FEB546"/>
<path d="M13.2258 21.668C13.2198 22.9994 13.8007 24.2824 14.7178 25.1981C15.1795 25.6575 15.707 26.045 16.283 26.3475C16.8592 26.6559 17.4674 26.9001 18.0966 27.0758C18.1745 27.0989 18.2519 27.1262 18.3311 27.1462L18.5693 27.2069C18.7283 27.2451 18.8861 27.2876 19.0463 27.3222L19.5299 27.4132L19.7717 27.4587L20.0135 27.4927C20.3382 27.5394 20.6628 27.5886 20.9911 27.6141L21.4813 27.6602C21.6458 27.6723 21.8096 27.6784 21.974 27.6881C23.2925 27.7479 24.6131 27.74 25.9307 27.6645C24.617 27.8449 23.2913 27.923 21.9656 27.8981C20.6404 27.8617 19.3056 27.7197 18.0204 27.3374C17.3744 27.153 16.7511 26.8965 16.162 26.5727C15.5695 26.2502 15.0315 25.8356 14.5679 25.3444C14.3372 25.0982 14.1303 24.8306 13.9501 24.5451C13.7745 24.2576 13.6256 23.9545 13.5051 23.6397C13.3916 23.3248 13.3087 22.9996 13.2579 22.6687C13.2034 22.338 13.1927 22.0015 13.2258 21.668Z" fill="white"/>
<path d="M25.9292 31.3431C24.4855 31.6632 23.0224 31.8872 21.5493 32.0137C20.0748 32.1505 18.5922 32.1767 17.1139 32.092C15.6376 31.9906 14.1516 31.7697 12.7522 31.2472C12.0494 30.9946 11.3877 30.6389 10.7886 30.1918C10.1992 29.7367 9.68838 29.1674 9.36133 28.5005C9.74232 29.1323 10.2558 29.6732 10.866 30.0856C11.4708 30.4964 12.1296 30.8208 12.8235 31.0493C13.5166 31.2825 14.2275 31.4587 14.949 31.5761C15.6716 31.6976 16.4001 31.78 17.1314 31.8231C18.5982 31.9087 20.0688 31.9026 21.5348 31.8049C22.2687 31.7596 23.0018 31.6989 23.7341 31.6228C24.4692 31.55 25.1995 31.4523 25.9292 31.3431Z" fill="white"/>
<path d="M20.7258 72.4532L15.3648 72.4374C15.2846 72.4374 15.2077 72.4055 15.151 72.3486C15.0943 72.2917 15.0625 72.2145 15.0625 72.134C15.0625 72.0535 15.0943 71.9763 15.151 71.9194C15.2077 71.8625 15.2846 71.8306 15.3648 71.8306L20.7258 71.8463C20.8059 71.8463 20.8828 71.8783 20.9395 71.9352C20.9962 71.9921 21.028 72.0693 21.028 72.1498C21.028 72.2303 20.9962 72.3074 20.9395 72.3643C20.8828 72.4212 20.8059 72.4532 20.7258 72.4532Z" fill="#122F5B"/>
<path d="M15.3446 70.0021L15.142 71.6771C15.1173 71.8834 15.2321 72.0715 15.3839 72.0722L20.6366 72.0873C20.7113 72.0848 20.7836 72.0605 20.8447 72.0174C20.9058 71.9743 20.953 71.9142 20.9806 71.8446C21.0544 71.6801 21.0695 71.4313 20.8355 71.0969C20.3719 70.4348 18.8539 70.2643 18.0916 69.706C18.0761 69.6947 18.0575 69.6885 18.0384 69.6884L15.6202 69.6817C15.4842 69.6787 15.3669 69.8152 15.3446 70.0021Z" fill="#FEB546"/>
<path d="M17.6927 70.6576C17.6734 70.6413 17.6601 70.619 17.6548 70.5943C17.6496 70.5696 17.6527 70.5438 17.6637 70.521C17.7671 70.2916 18.0911 69.7321 18.747 69.8535C18.7845 69.8601 18.8105 69.9105 18.8039 69.9627C18.7978 70.0131 18.7634 70.0458 18.7271 70.0398C18.1395 69.9372 17.8638 70.4294 17.7798 70.6211C17.761 70.6612 17.7242 70.677 17.6927 70.6576Z" fill="white"/>
<path d="M18.2382 70.8736C18.2187 70.8575 18.2052 70.8353 18.1998 70.8105C18.1945 70.7857 18.1976 70.7599 18.2086 70.7371C18.3126 70.5077 18.6366 69.9481 19.2919 70.0695C19.33 70.0762 19.3554 70.1266 19.3488 70.1788C19.3421 70.2291 19.3083 70.2619 19.2714 70.2558C18.6838 70.1533 18.4081 70.6454 18.3241 70.8372C18.3065 70.8785 18.2697 70.8943 18.2382 70.8736Z" fill="white"/>
<path d="M18.7459 71.078C18.7265 71.0618 18.713 71.0396 18.7077 71.0148C18.7023 70.9901 18.7053 70.9642 18.7163 70.9414C18.8203 70.712 19.1443 70.1525 19.7996 70.2739C19.8377 70.2805 19.8631 70.3309 19.8601 70.3831C19.854 70.4335 19.8195 70.4662 19.7827 70.4602C19.1951 70.3576 18.9194 70.8498 18.836 71.0416C18.8142 71.0816 18.7773 71.0974 18.7459 71.078Z" fill="white"/>
<path d="M9.07626 72.4532L3.71526 72.4374C3.63562 72.4366 3.55951 72.4043 3.50348 72.3475C3.44744 72.2907 3.41601 72.214 3.41602 72.134C3.41602 72.0535 3.44786 71.9763 3.50455 71.9194C3.56123 71.8625 3.63812 71.8306 3.71828 71.8306L9.07928 71.8463C9.15892 71.8471 9.23504 71.8795 9.29107 71.9363C9.3471 71.9931 9.37853 72.0698 9.37853 72.1498C9.37853 72.1896 9.37071 72.2291 9.35552 72.2659C9.34033 72.3027 9.31806 72.3362 9.29 72.3643C9.26193 72.3925 9.22861 72.4149 9.19194 72.4301C9.15526 72.4454 9.11596 72.4532 9.07626 72.4532Z" fill="#122F5B"/>
<path d="M3.69418 70.0021L3.49166 71.6771C3.46687 71.8834 3.58173 72.0715 3.73347 72.0722L8.98626 72.0873C9.06084 72.0849 9.13307 72.0606 9.19408 72.0175C9.25509 71.9743 9.30221 71.9142 9.32963 71.8446C9.40399 71.6801 9.4191 71.4313 9.18515 71.0969C8.72147 70.4348 7.20349 70.2643 6.44117 69.706C6.4257 69.6947 6.4071 69.6885 6.38797 69.6884L3.96984 69.6817C3.83503 69.6787 3.71412 69.8152 3.69418 70.0021Z" fill="#FEB546"/>
<path d="M6.04473 70.6576C6.02532 70.6414 6.01186 70.6192 6.00649 70.5944C6.00113 70.5697 6.00416 70.5438 6.01511 70.521C6.11909 70.2916 6.44312 69.7321 7.09903 69.8535C7.13652 69.8601 7.15949 69.9105 7.15586 69.9627C7.14982 70.0131 7.11535 70.0458 7.07848 70.0398C6.49087 69.9372 6.21581 70.4294 6.13178 70.6211C6.11304 70.6612 6.07375 70.677 6.04473 70.6576Z" fill="white"/>
<path d="M6.58784 70.8736C6.56834 70.8575 6.55482 70.8353 6.54945 70.8105C6.54408 70.7857 6.54716 70.7599 6.55822 70.7371C6.6622 70.5077 6.98562 69.9481 7.64154 70.0695C7.67963 70.0762 7.70199 70.1266 7.69837 70.1788C7.69172 70.2291 7.65726 70.2619 7.62099 70.2558C7.03338 70.1533 6.75772 70.6454 6.67369 70.8372C6.65555 70.8785 6.61927 70.8943 6.58784 70.8736Z" fill="white"/>
<path d="M7.09551 71.078C7.0761 71.0618 7.06264 71.0396 7.05728 71.0148C7.05191 70.9901 7.05494 70.9642 7.06589 70.9414C7.16986 70.712 7.49389 70.1525 8.14921 70.2739C8.18729 70.2805 8.20966 70.3309 8.20603 70.3831C8.19938 70.4335 8.16553 70.4662 8.12866 70.4602C7.54105 70.3576 7.26538 70.8498 7.18135 71.0416C7.16382 71.0816 7.12694 71.0974 7.09551 71.078Z" fill="white"/>
<path d="M19.2221 10.7946L19.2185 12.8082L18.1484 10.2933C18.1484 10.2933 19.0014 9.69735 19.0679 9.85453C19.1344 10.0117 19.2221 10.7946 19.2221 10.7946Z" fill="#333333"/>
<path d="M18.632 12.8729C18.5111 13.274 18.6719 13.6776 18.9947 13.7747C19.3175 13.8718 19.6712 13.6254 19.7921 13.2242C19.913 12.8231 19.7522 12.4195 19.4324 12.3224C19.1126 12.2253 18.7529 12.4717 18.632 12.8729Z" fill="#F99893"/>
<path d="M19.1076 13.0779C19.1076 12.9778 19.1143 12.8789 19.1221 12.7794C19.1584 12.3315 19.1016 11.881 18.9551 11.4563C18.8087 11.0317 18.5758 10.6423 18.2714 10.3129C17.967 9.98348 17.5977 9.72121 17.1868 9.54278C16.776 9.36435 16.3327 9.27364 15.8851 9.27643C15.4375 9.27922 14.9954 9.37544 14.5868 9.55897C14.1782 9.74251 13.8122 10.0094 13.5119 10.3426C13.2115 10.6757 12.9835 11.068 12.8423 11.4944C12.7011 11.9208 12.6498 12.372 12.6917 12.8194C12.5932 12.7712 12.4848 12.7469 12.3753 12.7486C12.2657 12.7503 12.1581 12.7779 12.0612 12.8291C11.6985 13.0355 11.6084 13.575 11.8659 14.0338C12.1234 14.4926 12.6282 14.6971 12.9934 14.4901C13.0432 14.4618 13.0888 14.4264 13.1288 14.3852C13.4359 15.9503 14.8384 17.0493 16.3824 16.8788C17.901 16.7107 19.0985 15.5157 19.1076 13.0779Z" fill="#FFC0BB"/>
<path d="M16.6217 12.418C16.6568 12.6 16.6864 12.7821 16.7233 12.9532C16.7601 13.1244 16.8091 13.3034 16.8962 13.4132L16.9131 13.4302C16.9192 13.438 16.9261 13.4451 16.9336 13.4515C16.9557 13.4697 16.9759 13.49 16.9941 13.5122C17.0314 13.5587 17.0567 13.6137 17.0678 13.6724C17.0773 13.729 17.0738 13.7871 17.0578 13.8423C17.0418 13.8974 17.0136 13.9483 16.9753 13.991C16.9083 14.0633 16.8251 14.1186 16.7326 14.1523C16.6402 14.1861 16.541 14.1974 16.4434 14.1852C16.6169 14.1245 16.7783 14.0365 16.8593 13.9042C16.8787 13.8762 16.8919 13.8445 16.8983 13.811C16.9047 13.7776 16.9039 13.7432 16.8962 13.71C16.888 13.6795 16.8726 13.6514 16.8514 13.6281C16.8436 13.6141 16.8272 13.6044 16.8158 13.5917L16.7879 13.565L16.7571 13.5334C16.6934 13.451 16.6483 13.3558 16.6247 13.2542C16.6013 13.1618 16.587 13.0673 16.5818 12.972C16.5685 12.7864 16.5819 12.5998 16.6217 12.418Z" fill="#F99893"/>
<path d="M15.6028 12.828C15.6088 12.8836 15.5982 12.9397 15.5725 12.9892C15.5467 13.0388 15.5069 13.0796 15.4581 13.1064C15.4093 13.1333 15.3536 13.145 15.2982 13.1401C15.2427 13.1353 15.1899 13.114 15.1465 13.079C15.103 13.0441 15.0709 12.997 15.0541 12.9437C15.0373 12.8904 15.0367 12.8333 15.0522 12.7796C15.0677 12.7259 15.0987 12.6781 15.1413 12.6421C15.1839 12.6061 15.2361 12.5836 15.2915 12.5774C15.3659 12.5692 15.4404 12.591 15.4988 12.638C15.5572 12.685 15.5946 12.7533 15.6028 12.828Z" fill="#333333"/>
<path d="M18.0247 12.7228C18.0307 12.7784 18.0201 12.8345 17.9944 12.8841C17.9686 12.9336 17.9288 12.9744 17.88 13.0013C17.8312 13.0281 17.7755 13.0399 17.72 13.035C17.6646 13.0301 17.6118 13.0089 17.5684 12.9739C17.5249 12.9389 17.4928 12.8918 17.476 12.8385C17.4592 12.7852 17.4585 12.7281 17.474 12.6745C17.4896 12.6208 17.5206 12.5729 17.5632 12.5369C17.6058 12.5009 17.658 12.4784 17.7133 12.4722C17.7502 12.4681 17.7875 12.4713 17.8231 12.4817C17.8587 12.492 17.8919 12.5094 17.9208 12.5326C17.9498 12.5559 17.9738 12.5847 17.9917 12.6174C18.0095 12.65 18.0207 12.6858 18.0247 12.7228Z" fill="#333333"/>
<path d="M15.4336 14.7931C15.5988 14.8956 15.7761 14.9771 15.9613 15.0358C16.1445 15.0939 16.3358 15.1214 16.5278 15.1172C16.719 15.1097 16.907 15.0654 17.0815 14.9867C17.2568 14.9029 17.4195 14.795 17.5652 14.6663C17.5004 14.741 17.4297 14.8102 17.3536 14.8732C17.2763 14.9359 17.1933 14.9912 17.1057 15.0383C17.0168 15.0846 16.9232 15.1212 16.8264 15.1475C16.729 15.1721 16.6294 15.1867 16.529 15.1912C16.3287 15.1958 16.1293 15.1614 15.942 15.0899C15.7565 15.0216 15.5845 14.9211 15.4336 14.7931Z" fill="#F99893"/>
<path d="M15.8536 12.1407C15.7135 12.1195 15.5721 12.1084 15.4304 12.1073C15.2993 12.1071 15.1687 12.1249 15.0423 12.1601C14.9165 12.1946 14.7964 12.2478 14.6862 12.3179C14.6258 12.3482 14.5756 12.395 14.5146 12.4326C14.4535 12.4702 14.4051 12.523 14.3398 12.5649C14.3646 12.4934 14.3961 12.4245 14.4342 12.3592C14.4749 12.2938 14.5234 12.2337 14.5786 12.1801C14.6909 12.0676 14.8305 11.9867 14.9837 11.9453C15.1358 11.9024 15.2963 11.8984 15.4504 11.9337C15.6006 11.9659 15.7397 12.0373 15.8536 12.1407Z" fill="#333333"/>
<path d="M17.1016 12.0865C17.2021 11.9702 17.3317 11.8829 17.477 11.8334C17.626 11.7806 17.7857 11.7656 17.9419 11.7898C18.0988 11.8131 18.2469 11.8771 18.3717 11.9755C18.4325 12.0223 18.4875 12.0763 18.5355 12.1363C18.5819 12.1968 18.6224 12.2616 18.6564 12.3299C18.5863 12.2959 18.5295 12.2534 18.4672 12.2188C18.4049 12.1842 18.3463 12.1478 18.2858 12.1253C18.168 12.0688 18.0425 12.03 17.9135 12.01C17.784 11.9899 17.6524 11.9876 17.5223 12.0034C17.3802 12.0207 17.2396 12.0485 17.1016 12.0865Z" fill="#333333"/>
<path d="M18.99 8.92442C18.99 8.92442 19.9312 8.80669 18.8237 8.16705C17.7162 7.52741 14.9329 7.01399 13.3829 8.17736C13.3829 8.17736 12.9319 7.50981 12.4701 7.75862C12.0082 8.00744 12.8932 8.37763 12.8932 8.37763C12.8932 8.37763 12.2663 8.45592 12.1243 8.79334C12.0191 9.04276 12.4024 8.99239 12.6079 8.9493C12.2627 9.06582 11.0361 10.1454 12.1527 12.795C12.3872 12.7028 13.4548 10.4677 13.4548 10.4677C13.4548 10.4677 16.9007 11.733 16.3651 10.3779C16.3651 10.3779 19.9681 11.9145 19.236 10.2899C19.2372 10.2899 20.5218 10.1825 18.99 8.92442Z" fill="#333333"/>
<path d="M12.1523 12.8124C12.1523 12.8124 12.3996 12.6783 12.717 12.8585C13.0344 13.0388 13.1269 13.8332 13.1269 13.8332C13.1269 13.8332 14.6098 14.4916 13.8892 10.8261C13.122 6.92638 12.8155 11.3183 12.8155 11.3183L12.1523 12.8124Z" fill="#333333"/>
<path d="M52.7013 70.4244V69.0468L51.1319 68.6099L50.7825 68.764L50.7227 70.4244L51.2172 71.8712L52.7013 70.4244Z" fill="#FFC0BB"/>
<path d="M47.6155 72.3965L53.0484 72.4481C53.0704 72.4483 53.0922 72.4442 53.1125 72.436C53.1329 72.4277 53.1515 72.4155 53.1671 72.4001C53.1828 72.3846 53.1953 72.3662 53.2039 72.3459C53.2124 72.3256 53.2169 72.3038 53.2171 72.2818V72.0433C53.2174 71.9988 53.2002 71.9559 53.1691 71.9241C53.1381 71.8922 53.0958 71.874 53.0514 71.8734L47.6185 71.8218C47.5965 71.8215 47.5747 71.8257 47.5543 71.8339C47.5339 71.8421 47.5153 71.8543 47.4995 71.8697C47.4838 71.8852 47.4713 71.9036 47.4627 71.9239C47.454 71.9442 47.4495 71.966 47.4492 71.9881V72.2266C47.4489 72.2712 47.4662 72.3142 47.4974 72.346C47.5285 72.3779 47.571 72.396 47.6155 72.3965Z" fill="#333333"/>
<path d="M52.9733 70.1292L53.1492 71.7295C53.171 71.9267 53.058 72.1046 52.9117 72.1033L47.8293 72.0542C47.7572 72.0511 47.6876 72.027 47.6289 71.9847C47.5703 71.9424 47.5252 71.8839 47.4993 71.8163C47.4298 71.6585 47.4177 71.4212 47.6486 71.105C48.1014 70.4842 49.5523 70.3367 50.3019 69.8239C50.3285 69.8053 50.3601 69.7953 50.3926 69.7954L52.7103 69.8179C52.8421 69.8191 52.954 69.9508 52.9733 70.1292Z" fill="#FF5B7E"/>
<path d="M50.6919 70.7251C50.711 70.7103 50.7245 70.6892 50.73 70.6656C50.7355 70.6419 50.7327 70.6171 50.7221 70.5953C50.6248 70.3756 50.3177 69.8391 49.6817 69.9429C49.6454 69.9489 49.6212 69.9969 49.6255 70.0466C49.6309 70.0952 49.6636 70.1267 49.6992 70.1213C50.2687 70.0303 50.5299 70.503 50.606 70.6875C50.626 70.7281 50.6617 70.7439 50.6919 70.7251Z" fill="#333333"/>
<path d="M50.1624 70.9273C50.1813 70.9122 50.1945 70.8912 50.2 70.8676C50.2055 70.844 50.2029 70.8193 50.1926 70.7974C50.0947 70.5771 49.7882 70.0412 49.1522 70.1444C49.1319 70.1518 49.1149 70.1665 49.1046 70.1856C49.0942 70.2047 49.0912 70.227 49.096 70.2482C49.1014 70.2961 49.1347 70.3283 49.1698 70.3228C49.7398 70.2318 50.0004 70.7045 50.0766 70.8884C50.0965 70.9297 50.1316 70.9455 50.1624 70.9273Z" fill="#333333"/>
<path d="M49.6702 71.117C49.6891 71.1018 49.7024 71.0807 49.7079 71.057C49.7134 71.0333 49.7108 71.0085 49.7004 70.9865C49.6025 70.7668 49.2954 70.2309 48.66 70.3341C48.6397 70.3415 48.6227 70.3562 48.6124 70.3753C48.602 70.3944 48.599 70.4167 48.6038 70.4379C48.6093 70.4858 48.6419 70.5174 48.6776 70.5119C49.2476 70.4215 49.5082 70.8936 49.5844 71.0781C49.6043 71.117 49.6394 71.1327 49.6702 71.117Z" fill="#333333"/>
<g style="mix-blend-mode:multiply" opacity="0.3">
<path d="M51.6295 71.8789C51.9923 70.9261 52.5249 70.7149 52.89 70.6979C52.9295 70.6963 52.9682 70.7098 52.9981 70.7357C53.0281 70.7616 53.0471 70.798 53.0514 70.8375L53.1493 71.7302C53.1711 71.9274 53.0581 72.1052 52.9118 72.104L51.7752 72.0931C51.7498 72.0929 51.7249 72.0866 51.7024 72.0746C51.68 72.0626 51.6608 72.0453 51.6465 72.0243C51.6322 72.0032 51.6232 71.979 51.6202 71.9537C51.6173 71.9283 51.6205 71.9027 51.6295 71.8789Z" fill="#E87B50"/>
</g>
<path d="M63.6544 70.4244V69.0468L62.0851 68.6099L61.7356 68.764L61.6758 70.4244L62.1703 71.8712L63.6544 70.4244Z" fill="#FFC0BB"/>
<path d="M58.5666 72.3965L63.9996 72.4481C64.0215 72.4483 64.0433 72.4442 64.0637 72.436C64.0841 72.4277 64.1026 72.4155 64.1183 72.4001C64.134 72.3846 64.1465 72.3662 64.155 72.3459C64.1636 72.3256 64.1681 72.3038 64.1683 72.2818V72.0433C64.1685 72.0212 64.1644 71.9993 64.1562 71.9788C64.148 71.9583 64.1359 71.9397 64.1205 71.9239C64.1051 71.9081 64.0868 71.8955 64.0666 71.8869C64.0463 71.8782 64.0246 71.8736 64.0026 71.8734L58.5697 71.8218C58.5477 71.8215 58.5259 71.8257 58.5054 71.8339C58.485 71.8421 58.4664 71.8543 58.4507 71.8697C58.435 71.8852 58.4225 71.9036 58.4138 71.9239C58.4052 71.9442 58.4006 71.966 58.4004 71.9881V72.2266C58.4002 72.2487 58.4043 72.2707 58.4125 72.2912C58.4207 72.3117 58.4329 72.3304 58.4484 72.3462C58.4638 72.362 58.4822 72.3745 58.5025 72.3832C58.5228 72.3918 58.5446 72.3963 58.5666 72.3965Z" fill="#333333"/>
<path d="M63.9267 70.1292L64.1027 71.7295C64.1238 71.9267 64.0108 72.1046 63.8645 72.1033L58.7822 72.0542C58.7101 72.0511 58.6406 72.0269 58.582 71.9846C58.5235 71.9424 58.4785 71.8839 58.4527 71.8163C58.3826 71.6585 58.3711 71.4212 58.6014 71.105C59.0542 70.4842 60.5057 70.3367 61.2547 69.8239C61.2815 69.8053 61.3134 69.7953 61.346 69.7954L63.6632 69.8179C63.795 69.8191 63.9062 69.9508 63.9267 70.1292Z" fill="#FF5B7E"/>
<path d="M61.6452 70.7251C61.6641 70.7101 61.6774 70.6891 61.6828 70.6654C61.6882 70.6418 61.6854 70.617 61.6748 70.5953C61.5775 70.3756 61.2704 69.8391 60.635 69.9429C60.6147 69.9504 60.5977 69.9651 60.5873 69.9841C60.5769 70.0032 60.5736 70.0254 60.5782 70.0466C60.5836 70.0952 60.6163 70.1267 60.6519 70.1213C61.2214 70.0303 61.4826 70.503 61.5587 70.6875C61.5787 70.7281 61.6143 70.7439 61.6452 70.7251Z" fill="#333333"/>
<path d="M61.1157 70.9273C61.1346 70.9122 61.1478 70.8912 61.1533 70.8676C61.1588 70.844 61.1562 70.8193 61.1459 70.7974C61.048 70.5771 60.7415 70.0412 60.1055 70.1444C60.0687 70.1505 60.0451 70.1984 60.0493 70.2482C60.0554 70.2961 60.088 70.3283 60.1237 70.3228C60.6931 70.2318 60.9537 70.7045 61.0305 70.8884C61.0498 70.9297 61.0855 70.9455 61.1157 70.9273Z" fill="#333333"/>
<path d="M60.6214 71.117C60.6403 71.1018 60.6536 71.0807 60.6591 71.057C60.6646 71.0333 60.6619 71.0085 60.6516 70.9865C60.5537 70.7668 60.2472 70.2309 59.6112 70.3341C59.5908 70.3415 59.5739 70.3562 59.5635 70.3753C59.5532 70.3944 59.5501 70.4167 59.555 70.4379C59.5604 70.4858 59.5937 70.5174 59.6287 70.5119C60.1988 70.4215 60.4594 70.8936 60.5355 71.0781C60.5555 71.117 60.5905 71.1327 60.6214 71.117Z" fill="#333333"/>
<g style="mix-blend-mode:multiply" opacity="0.3">
<path d="M62.5807 71.8789C62.9434 70.9261 63.476 70.7149 63.8412 70.6979C63.8807 70.6963 63.9193 70.7098 63.9493 70.7357C63.9793 70.7616 63.9983 70.798 64.0026 70.8375L64.1011 71.7302C64.1223 71.9274 64.0092 72.1052 63.8629 72.104L62.7264 72.0931C62.701 72.0929 62.676 72.0866 62.6536 72.0746C62.6312 72.0626 62.612 72.0453 62.5977 72.0243C62.5834 72.0032 62.5743 71.979 62.5714 71.9537C62.5684 71.9283 62.5716 71.9027 62.5807 71.8789Z" fill="#E87B50"/>
</g>
<path d="M33.9909 28.754C34.003 28.7666 34.0115 28.7822 34.0154 28.7993C34.0194 28.8163 34.0187 28.834 34.0134 28.8507C34.0082 28.8673 33.9985 28.8823 33.9855 28.8939C33.9725 28.9055 33.9566 28.9134 33.9396 28.9167C33.355 29.0241 31.5178 29.3749 31.5117 29.5308C31.5039 29.7129 33.1531 29.4422 33.2359 29.5915C33.3187 29.7408 31.7034 29.9678 31.7245 30.1662C31.7457 30.3647 33.2135 30.1098 33.2528 30.1905C33.2921 30.2712 31.9138 30.6663 31.8575 30.7913C31.8013 30.9163 33.3241 30.6742 33.3991 30.7585C33.4741 30.8429 32.4784 31.3605 32.5129 31.4516C32.5473 31.5426 32.5552 31.6087 35.1287 31.0874L36.1334 30.8386L36.8443 30.1911L36.4423 29.1054C36.4423 29.1054 33.3967 27.6428 33.2758 27.7145C33.1549 27.7861 33.1748 27.8971 33.9909 28.754Z" fill="#FFC0BB"/>
<path d="M50.6009 18.6519L43.5175 26.5594L35.8291 28.5014C35.8291 28.5014 35.5969 29.5749 36.0207 31.0642C36.028 31.0885 43.6318 30.8609 44.68 30.4415C46.0251 29.9032 51.4937 24.3595 51.4937 24.3595L50.6009 18.6519Z" fill="#F44E7A"/>
<path d="M58.532 12.5841C58.532 12.5841 59.2853 9.4108 57.5388 8.20677C55.7923 7.00274 53.9333 7.12047 52.6638 7.82444C51.3943 8.52841 50.6235 11.0099 51.1833 12.4367L55.3909 11.1112L58.532 12.5841Z" fill="#07085B"/>
<path d="M56.5077 15.4138L56.6534 19.0004L53.5195 18.7128L54.0183 15.5637L56.5077 15.4138Z" fill="#FFC0BB"/>
<path d="M53.7812 17.0615L54.0182 15.5637L56.5077 15.4138L56.5579 16.6561C56.044 17.1276 55.136 17.5998 53.7812 17.0615Z" fill="#F99893"/>
<path d="M52.0367 12.804C52.209 13.2045 52.0893 13.6409 51.7707 13.7793C51.4521 13.9176 51.0537 13.7046 50.8814 13.3041C50.7091 12.9035 50.8294 12.4672 51.148 12.3288C51.4666 12.1905 51.865 12.4035 52.0367 12.804Z" fill="#F99893"/>
<path d="M51.5694 13.0727C51.5573 12.9696 51.5392 12.8676 51.5198 12.7657C51.4302 12.307 51.4366 11.8345 51.5385 11.3784C51.6405 10.9223 51.8358 10.4925 52.1121 10.1162C52.3883 9.73988 52.7395 9.42537 53.1433 9.1926C53.5472 8.95984 53.9948 8.81391 54.4578 8.76408C54.9208 8.71426 55.3891 8.76162 55.8329 8.90316C56.2766 9.04471 56.6863 9.27734 57.0357 9.5863C57.3852 9.89525 57.6668 10.2738 57.8628 10.6978C58.0587 11.1219 58.1647 11.5822 58.1739 12.0496C58.2701 11.9883 58.3792 11.9506 58.4925 11.9395C58.6058 11.9285 58.7202 11.9443 58.8262 11.9858C59.2282 12.1564 59.3818 12.7038 59.1696 13.2087C58.9574 13.7136 58.4587 13.9837 58.0567 13.8156C58.0018 13.7921 57.9505 13.7611 57.9043 13.7233C57.7695 15.3776 56.4474 16.6788 54.8315 16.6842C53.2422 16.6873 51.8638 15.5937 51.5694 13.0727Z" fill="#FFC0BB"/>
<path d="M54.0628 12.0999C54.0477 12.2928 54.038 12.481 54.0205 12.6655C54.0029 12.8499 53.9727 13.0375 53.8947 13.1613L53.8796 13.1813C53.8738 13.1897 53.8675 13.1978 53.8609 13.2056C53.8408 13.2273 53.8227 13.2509 53.8071 13.276C53.7729 13.3284 53.7521 13.3884 53.7466 13.4507C53.7436 13.5105 53.754 13.5701 53.777 13.6252C53.8 13.6804 53.8351 13.7296 53.8796 13.7694C53.9574 13.836 54.0499 13.8832 54.1494 13.9072C54.2489 13.9311 54.3526 13.9311 54.4521 13.9071C54.2659 13.8658 54.0894 13.793 53.9896 13.6644C53.9665 13.6376 53.9492 13.6063 53.9388 13.5724C53.9284 13.5386 53.9251 13.5029 53.9292 13.4677C53.9342 13.4353 53.9468 13.4045 53.966 13.3779C53.9756 13.363 53.9866 13.349 53.9987 13.336L54.0241 13.3057L54.0525 13.2693C54.1085 13.1768 54.1442 13.0733 54.1571 12.9659C54.1699 12.8673 54.1737 12.7678 54.1686 12.6685C54.1604 12.4749 54.1248 12.2834 54.0628 12.0999Z" fill="#F99893"/>
<path d="M55.1641 12.4039C55.1643 12.4622 55.1817 12.519 55.2142 12.5673C55.2466 12.6155 55.2925 12.6531 55.3462 12.6751C55.3998 12.6972 55.4588 12.7028 55.5156 12.6912C55.5725 12.6796 55.6246 12.6513 55.6654 12.61C55.7063 12.5687 55.734 12.5161 55.7451 12.459C55.7561 12.4018 55.7501 12.3427 55.7277 12.289C55.7053 12.2353 55.6675 12.1895 55.6192 12.1573C55.5708 12.1252 55.514 12.1082 55.4561 12.1084C55.4175 12.1085 55.3794 12.1162 55.3438 12.1311C55.3083 12.146 55.276 12.1678 55.2489 12.1953C55.2218 12.2227 55.2003 12.2553 55.1858 12.2911C55.1712 12.3269 55.1638 12.3653 55.1641 12.4039Z" fill="#333333"/>
<path d="M52.6465 12.5763C52.6467 12.6345 52.6642 12.6914 52.6966 12.7396C52.729 12.7879 52.7749 12.8254 52.8286 12.8475C52.8823 12.8695 52.9412 12.8751 52.9981 12.8635C53.0549 12.8519 53.107 12.8237 53.1479 12.7824C53.1887 12.741 53.2164 12.6885 53.2275 12.6313C53.2386 12.5742 53.2325 12.515 53.2101 12.4613C53.1877 12.4076 53.1499 12.3618 53.1016 12.3297C53.0532 12.2976 52.9965 12.2805 52.9385 12.2808C52.9 12.2809 52.8619 12.2887 52.8264 12.3036C52.7909 12.3186 52.7586 12.3404 52.7315 12.3678C52.7044 12.3953 52.6829 12.4278 52.6683 12.4636C52.6537 12.4994 52.6463 12.5377 52.6465 12.5763Z" fill="#333333"/>
<path d="M54.8242 11.7221C54.9662 11.6832 55.1109 11.6548 55.2571 11.6372C55.3927 11.6216 55.5297 11.6246 55.6645 11.6463C55.7985 11.6674 55.9287 11.7083 56.0508 11.7676C56.1179 11.7913 56.1717 11.8344 56.2419 11.8659C56.312 11.8975 56.3628 11.9461 56.4383 11.9819C56.4044 11.911 56.364 11.8436 56.3174 11.7804C56.2674 11.7178 56.2102 11.6614 56.1469 11.6123C56.0177 11.5094 55.8639 11.4423 55.7008 11.4175C55.5385 11.3911 55.3723 11.4059 55.2172 11.4606C55.0653 11.511 54.9296 11.6013 54.8242 11.7221Z" fill="#07085B"/>
<path d="M53.5293 11.811C53.4115 11.7029 53.2674 11.628 53.1116 11.5937C52.952 11.5569 52.7859 11.5602 52.6279 11.6034C52.4681 11.6458 52.3222 11.7295 52.2048 11.8462C52.1475 11.9008 52.0968 11.9619 52.0536 12.0282C52.0142 12.0964 51.9812 12.1681 51.9551 12.2425C52.0228 12.1988 52.076 12.1484 52.1364 12.1053C52.1969 12.0622 52.2525 12.0179 52.3178 11.987C52.431 11.9153 52.554 11.8608 52.6829 11.8249C52.8145 11.7886 52.9504 11.7706 53.0868 11.7715C53.235 11.7739 53.3829 11.7871 53.5293 11.811Z" fill="#07085B"/>
<path d="M58.1238 12.0962C58.3173 11.93 58.4654 11.9427 58.4654 11.9427L58.3838 10.9165L58.0688 10.2963C58.0688 10.2963 56.8301 8.62434 56.7866 8.58307C56.7431 8.5418 55.7946 7.99866 55.7359 7.97074C55.6773 7.94282 54.3455 8.13884 54.3455 8.13884C54.3455 8.13884 52.006 7.64728 52.3953 8.87922C52.7846 10.1112 54.4924 10.7636 54.5807 10.7089C54.3044 10.4322 54.2784 9.64934 54.2784 9.64934C55.4838 10.9711 57.769 11.9482 58.1238 12.0962Z" fill="#07085B"/>
<path d="M53.3223 14.3306C53.3882 14.6995 53.7291 14.9866 54.1475 14.9981C54.5658 15.0097 54.9213 14.7408 55.0053 14.3755L53.3223 14.3306Z" fill="white"/>
<path d="M57.4502 18.153L53.0371 18.1409L52.4785 20.7589L54.8966 27.1165C54.8966 27.1165 57.3148 24.4984 57.3148 24.1246C57.3148 23.7508 58.432 20.9458 58.2458 20.5714C58.0596 20.1969 57.4502 18.153 57.4502 18.153Z" fill="#FFC0BB"/>
<path d="M49.4215 36.2058C51.2889 38.9634 55.0207 42.9421 55.0207 42.9421L53.3002 69.6596C53.3002 69.6596 50.8089 69.9235 49.9523 69.2748C49.9523 69.273 49.2994 43.944 49.4215 36.2058Z" fill="#1E1E1E"/>
<path d="M50.128 37.229C50.1341 36.8382 49.4068 37.9906 49.4201 37.6787C49.706 31.1888 58.7692 36.63 58.7692 36.63L60.6729 36.238L64.1677 69.5479C64.1677 69.5479 61.8928 70.0407 60.5901 69.5479L55.0181 43.2643C55.0181 43.2643 53.0267 42.4256 50.128 37.229Z" fill="#3A2645"/>
<path d="M58.3427 52.8598C71.7361 52.2808 69.2515 54.5644 69.3096 45.1143L56.6113 45.3983C56.8296 51.1593 56.216 52.6953 58.3427 52.8598Z" fill="#4F2305"/>
<path d="M64.67 42.732L64.7069 44.2692C64.7083 44.349 64.6784 44.4262 64.6235 44.4841C64.5686 44.5419 64.4932 44.5757 64.4137 44.578C64.3341 44.5795 64.2572 44.5494 64.1996 44.4943C64.142 44.4392 64.1083 44.3636 64.1059 44.2837L64.0703 42.803C64.0678 42.6998 64.0452 42.5982 64.0036 42.5038C63.962 42.4095 63.9024 42.3243 63.828 42.2531C63.7536 42.1819 63.666 42.1262 63.5701 42.089C63.4742 42.0518 63.372 42.034 63.2693 42.0365L62.0276 42.0668C61.9248 42.0693 61.8236 42.092 61.7297 42.1338C61.6357 42.1755 61.5509 42.2354 61.48 42.3101C61.4092 42.3848 61.3537 42.4728 61.3167 42.569C61.2798 42.6652 61.2621 42.7678 61.2646 42.8709L61.3003 44.3517C61.3018 44.4316 61.2718 44.5088 61.2169 44.5666C61.162 44.6244 61.0866 44.6582 61.0071 44.6606C60.9275 44.6621 60.8506 44.632 60.793 44.5769C60.7354 44.5218 60.7018 44.4461 60.6994 44.3663L60.6625 42.8291C60.6581 42.648 60.6893 42.4678 60.7542 42.2988C60.8192 42.1298 60.9167 41.9753 61.0412 41.8442C61.1656 41.713 61.3146 41.6078 61.4796 41.5345C61.6446 41.4612 61.8224 41.4212 62.0028 41.4169L63.2626 41.3859C63.4431 41.3815 63.6226 41.4128 63.7911 41.478C63.9595 41.5433 64.1134 41.6412 64.2441 41.7662C64.3748 41.8912 64.4797 42.0408 64.5528 42.2065C64.6258 42.3723 64.6657 42.5508 64.67 42.732Z" fill="#4F2305"/>
<path d="M56.8408 46.9567C56.8408 46.9567 67.3724 46.7213 68.955 46.6855C69.8419 46.6357 69.7034 46.4427 69.6654 44.5329C69.7071 42.546 69.8576 43.4775 57.7645 43.5461C56.5337 43.6068 56.0984 43.3034 56.235 44.9419C56.3088 46.1174 56.0531 46.8954 56.8408 46.9567Z" fill="#632D07"/>
<path d="M65.089 46.4586L60.457 46.5625L60.4765 47.438L65.1085 47.3341L65.089 46.4586Z" fill="#FEB546"/>
<path d="M61.8098 42.5199C61.8763 42.4823 61.9482 42.4853 61.9754 42.5575C62.1223 42.9477 62.2614 43.0806 62.3799 43.0873C62.5612 43.097 62.5921 42.9386 62.6876 42.9289C62.8133 42.9162 62.8961 43.0193 63.0346 42.9975C63.2002 42.972 63.1869 42.8439 63.2637 42.7978C63.3405 42.7517 63.4378 42.8634 63.5787 42.8075C63.6579 42.776 63.6669 42.6692 63.7129 42.6413C63.7788 42.6018 63.8489 42.7499 63.9728 42.6734C64.0556 42.6224 64.1711 41.6885 63.8985 40.7478L63.5636 39.7647L62.8587 39.1111L61.8164 39.6081C61.8164 39.6081 61.3262 41.0288 61.3262 41.575C61.3262 42.2838 61.4743 42.7141 61.8098 42.5199Z" fill="#FFC0BB"/>
<path d="M57.0604 18.5642C57.0604 18.5642 54.8587 19.9036 53.1122 18.5642C53.1122 18.5642 52.1196 21.1968 52.2133 21.2915C52.307 21.3862 53.3438 24.2227 53.3438 24.3173C53.3438 24.412 54.5673 25.5463 55.1326 24.6954C55.6978 23.8446 56.0738 23.9387 56.8253 22.1423C57.5767 20.346 58.1437 19.7755 57.9551 19.5892C57.7665 19.4029 57.0604 18.5642 57.0604 18.5642Z" fill="#3C2340"/>
<path d="M57.3214 18.1379C57.3214 18.1379 61.7901 18.5118 62.7217 20.0077C63.6533 21.5036 65.8871 30.106 65.7009 32.7241C65.5147 35.3421 63.8389 40.3913 63.8389 40.3913C63.8389 40.3913 62.3493 40.5782 61.7901 39.643C61.7901 39.643 62.9079 32.5372 62.7217 31.9758C62.5355 31.4145 60.4849 25.6176 60.4849 25.6176L60.8573 37.0268C60.8573 37.0268 56.388 39.8318 49.3108 37.5875C49.3108 37.5875 48.3798 19.0743 50.8003 18.5136L53.0371 18.1398L53.9681 23.5628L57.3214 18.1379Z" fill="#FF5B7E"/>
</g>
<defs>
<clipPath id="clip0_1720_9723">
<rect width="74" height="74.7475" rx="10" fill="white"/>
</clipPath>
</defs>
</svg>
