<svg width="20" height="20" viewBox="0 0 20 20" fill="none" xmlns="http://www.w3.org/2000/svg">
<g id="area 1" clip-path="url(#clip0_1384_77166)">
<g id="Group">
<path id="Vector" d="M0.833333 10.8333C1.05435 10.8333 1.26631 10.7455 1.42259 10.5893C1.57887 10.433 1.66667 10.221 1.66667 10C1.66667 9.77899 1.75446 9.56702 1.91074 9.41074C2.06702 9.25446 2.27899 9.16667 2.5 9.16667H10C10.221 9.16667 10.433 9.25446 10.5893 9.41074C10.7455 9.56702 10.8333 9.77899 10.8333 10V14.1667C10.8333 14.3877 10.9211 14.5996 11.0774 14.7559C11.2337 14.9122 11.4457 15 11.6667 15C11.8877 15 12.0996 14.9122 12.2559 14.7559C12.4122 14.5996 12.5 14.3877 12.5 14.1667V10C12.5 9.33696 12.2366 8.70107 11.7678 8.23223C11.2989 7.76339 10.663 7.5 10 7.5H2.5C1.83696 7.5 1.20107 7.76339 0.732233 8.23223C0.263392 8.70107 0 9.33696 0 10C0 10.221 0.0877974 10.433 0.244078 10.5893C0.400358 10.7455 0.61232 10.8333 0.833333 10.8333Z" fill="#044D3A"/>
<path id="Vector_2" d="M2.5 20H10C10.663 20 11.2989 19.7366 11.7678 19.2678C12.2366 18.7989 12.5 18.163 12.5 17.5V16.6667C12.5 16.4456 12.4122 16.2337 12.2559 16.0774C12.0996 15.9211 11.8877 15.8333 11.6667 15.8333C11.4457 15.8333 11.2337 15.9211 11.0774 16.0774C10.9211 16.2337 10.8333 16.4456 10.8333 16.6667V17.5C10.8333 17.721 10.7455 17.933 10.5893 18.0892C10.433 18.2455 10.221 18.3333 10 18.3333H2.5C2.27899 18.3333 2.06702 18.2455 1.91074 18.0892C1.75446 17.933 1.66667 17.721 1.66667 17.5V12.5C1.66667 12.279 1.57887 12.067 1.42259 11.9107C1.26631 11.7545 1.05435 11.6667 0.833333 11.6667C0.61232 11.6667 0.400358 11.7545 0.244078 11.9107C0.0877974 12.067 0 12.279 0 12.5L0 17.5C0 18.163 0.263392 18.7989 0.732233 19.2678C1.20107 19.7366 1.83696 20 2.5 20Z" fill="#044D3A"/>
<path id="Vector_3" d="M0.0668195 2.81999C0.107212 2.92102 0.167584 3.01286 0.24432 3.08999L1.91099 4.75666C2.06972 4.90816 2.28072 4.99269 2.50015 4.99269C2.71958 4.99269 2.93058 4.90816 3.08932 4.75666C3.24555 4.60039 3.33331 4.38846 3.33331 4.16749C3.33331 3.94652 3.24555 3.7346 3.08932 3.57833L2.84515 3.33333H9.65432L9.41015 3.57749C9.33267 3.65489 9.27121 3.74679 9.22927 3.84796C9.18733 3.94912 9.16575 4.05756 9.16575 4.16708C9.16575 4.27659 9.18733 4.38503 9.22927 4.48619C9.27121 4.58736 9.33267 4.67926 9.41015 4.75666C9.56793 4.91034 9.77948 4.99634 9.99974 4.99634C10.22 4.99634 10.4315 4.91034 10.5893 4.75666L12.256 3.08999C12.4088 2.93091 12.4941 2.71889 12.4941 2.49833C12.4941 2.27776 12.4088 2.06574 12.256 1.90666L10.5943 0.239992C10.4381 0.0835139 10.226 -0.00448218 10.0049 -0.00463846C9.78377 -0.00479474 9.57163 0.0829016 9.41515 0.239158C9.25868 0.395415 9.17068 0.607432 9.17052 0.828569C9.17037 1.04971 9.25806 1.26185 9.41432 1.41833L9.65515 1.66666H2.84515L3.08932 1.42332C3.24569 1.26707 3.33358 1.05509 3.33366 0.834036C3.33373 0.612978 3.24599 0.400942 3.08974 0.244575C2.93348 0.0882077 2.72151 0.000317638 2.50045 0.000239498C2.27939 0.000161358 2.06735 0.0879016 1.91099 0.244158L0.24432 1.91083C0.130155 2.02908 0.0526487 2.17784 0.0211528 2.33917C-0.0103431 2.50049 0.00551704 2.66748 0.0668195 2.81999Z" fill="#044D3A"/>
<path id="Vector_4" d="M18.5776 10.59C18.7341 10.7463 18.9462 10.834 19.1673 10.8338C19.3885 10.8336 19.6005 10.7457 19.7568 10.5892C19.913 10.4327 20.0007 10.2206 20.0006 9.99942C20.0004 9.77828 19.9124 9.56626 19.7559 9.41001L18.0893 7.74334C17.9299 7.59113 17.718 7.5062 17.4976 7.5062C17.2772 7.5062 17.0653 7.59113 16.9059 7.74334L15.2393 9.40501C15.0828 9.56126 14.9948 9.77328 14.9946 9.99442C14.9945 10.2156 15.0822 10.4277 15.2384 10.5842C15.3947 10.7407 15.6067 10.8286 15.8278 10.8288C16.049 10.829 16.2611 10.7413 16.4176 10.585L16.6668 10.345V17.155L16.4234 16.9108C16.3461 16.8334 16.2542 16.772 16.1531 16.7301C16.052 16.6881 15.9436 16.6665 15.8341 16.6665C15.7247 16.6665 15.6163 16.688 15.5151 16.7298C15.414 16.7717 15.3221 16.8331 15.2447 16.9104C15.1673 16.9878 15.1058 17.0797 15.0639 17.1808C15.022 17.2819 15.0004 17.3903 15.0003 17.4997C15.0003 17.6092 15.0218 17.7176 15.0637 17.8187C15.1055 17.9198 15.1669 18.0117 15.2443 18.0892L16.9109 19.7558C17.0692 19.9085 17.2806 19.9939 17.5005 19.9939C17.7204 19.9939 17.9318 19.9085 18.0901 19.7558L19.7568 18.0892C19.9086 17.932 19.9926 17.7215 19.9907 17.503C19.9888 17.2845 19.9011 17.0755 19.7466 16.921C19.5921 16.7665 19.3831 16.6788 19.1646 16.6769C18.9461 16.675 18.7356 16.759 18.5784 16.9108L18.3334 17.155V10.3458L18.5776 10.59Z" fill="#044D3A"/>
</g>
</g>
<defs>
<clipPath id="clip0_1384_77166">
<rect width="20" height="20" fill="white"/>
</clipPath>
</defs>
</svg>
