<svg width="24" height="24" viewBox="0 0 24 24" fill="none" xmlns="http://www.w3.org/2000/svg">
<g clip-path="url(#clip0_4645_8781)">
<path d="M17.7213 3L16.3083 1.168C16.0268 0.805806 15.6666 0.512417 15.255 0.310054C14.8433 0.107691 14.391 0.00166304 13.9323 0L10.0683 0C9.60959 0.00166304 9.15729 0.107691 8.74563 0.310054C8.33397 0.512417 7.97377 0.805806 7.6923 1.168L6.2793 3H17.7213Z" fill="#317BF6"/>
<path d="M12 18C14.2091 18 16 16.2091 16 14C16 11.7909 14.2091 10 12 10C9.79086 10 8 11.7909 8 14C8 16.2091 9.79086 18 12 18Z" fill="#317BF6"/>
<path d="M19 5H5C3.67441 5.00159 2.40356 5.52888 1.46622 6.46622C0.528882 7.40356 0.00158786 8.67441 0 10L0 19C0.00158786 20.3256 0.528882 21.5964 1.46622 22.5338C2.40356 23.4711 3.67441 23.9984 5 24H19C20.3256 23.9984 21.5964 23.4711 22.5338 22.5338C23.4711 21.5964 23.9984 20.3256 24 19V10C23.9984 8.67441 23.4711 7.40356 22.5338 6.46622C21.5964 5.52888 20.3256 5.00159 19 5ZM12 20C10.8133 20 9.65327 19.6481 8.66658 18.9888C7.67988 18.3295 6.91085 17.3925 6.45672 16.2961C6.0026 15.1997 5.88378 13.9933 6.11529 12.8295C6.3468 11.6656 6.91824 10.5965 7.75736 9.75736C8.59647 8.91824 9.66557 8.3468 10.8295 8.11529C11.9933 7.88378 13.1997 8.0026 14.2961 8.45672C15.3925 8.91085 16.3295 9.67988 16.9888 10.6666C17.6481 11.6533 18 12.8133 18 14C17.9984 15.5908 17.3658 17.116 16.2409 18.2409C15.116 19.3658 13.5908 19.9984 12 20Z" fill="#317BF6"/>
</g>
<defs>
<clipPath id="clip0_4645_8781">
<rect width="24" height="24" fill="white"/>
</clipPath>
</defs>
</svg>
