<svg width="18" height="19" viewBox="0 0 18 19" fill="none" xmlns="http://www.w3.org/2000/svg">
<path fill-rule="evenodd" clip-rule="evenodd" d="M10.6648 2.16475C11.1824 1.64706 11.9133 1.4375 12.75 1.4375H14.25C14.5607 1.4375 14.8125 1.68934 14.8125 2C14.8125 2.31066 14.5607 2.5625 14.25 2.5625H12.75C12.0867 2.5625 11.6926 2.72794 11.4602 2.96025C11.228 3.19255 11.0625 3.5867 11.0625 4.25V5.75C11.0625 6.4133 11.228 6.80744 11.4602 7.03976C11.6926 7.27205 12.0867 7.4375 12.75 7.4375H14.25C14.9133 7.4375 15.3074 7.27205 15.5398 7.03976C15.772 6.80744 15.9375 6.4133 15.9375 5.75V4.25C15.9375 3.93935 16.1894 3.6875 16.5 3.6875C16.8107 3.6875 17.0625 3.93935 17.0625 4.25V5.75C17.0625 6.5867 16.853 7.31756 16.3352 7.83524C15.8176 8.35295 15.0867 8.5625 14.25 8.5625H12.75C11.9133 8.5625 11.1824 8.35295 10.6648 7.83524C10.147 7.31756 9.9375 6.5867 9.9375 5.75V4.25C9.9375 3.41329 10.147 2.68245 10.6648 2.16475Z" fill="#484848"/>
<path fill-rule="evenodd" clip-rule="evenodd" d="M1.66475 11.1648C2.18245 10.647 2.91329 10.4375 3.75 10.4375H5.25C6.0867 10.4375 6.81756 10.647 7.33524 11.1648C7.85295 11.6824 8.0625 12.4133 8.0625 13.25V14.75C8.0625 15.5867 7.85295 16.3176 7.33524 16.8352C6.81756 17.353 6.0867 17.5625 5.25 17.5625H3.75C3.43935 17.5625 3.1875 17.3107 3.1875 17C3.1875 16.6894 3.43935 16.4375 3.75 16.4375H5.25C5.9133 16.4375 6.30744 16.272 6.53976 16.0398C6.77205 15.8074 6.9375 15.4133 6.9375 14.75V13.25C6.9375 12.5867 6.77205 12.1926 6.53976 11.9602C6.30744 11.728 5.9133 11.5625 5.25 11.5625H3.75C3.0867 11.5625 2.69255 11.728 2.46025 11.9602C2.22794 12.1926 2.0625 12.5867 2.0625 13.25V14.75C2.0625 15.0607 1.81066 15.3125 1.5 15.3125C1.18934 15.3125 0.9375 15.0607 0.9375 14.75V13.25C0.9375 12.4133 1.14706 11.6824 1.66475 11.1648Z" fill="#484848"/>
<path fill-rule="evenodd" clip-rule="evenodd" d="M4.5 2.5625C3.15381 2.5625 2.0625 3.65381 2.0625 5C2.0625 6.34619 3.15381 7.4375 4.5 7.4375C5.84619 7.4375 6.9375 6.34619 6.9375 5C6.9375 3.65381 5.84619 2.5625 4.5 2.5625ZM0.9375 5C0.9375 3.03249 2.53249 1.4375 4.5 1.4375C6.46752 1.4375 8.0625 3.03249 8.0625 5C8.0625 6.96752 6.46752 8.5625 4.5 8.5625C2.53249 8.5625 0.9375 6.96752 0.9375 5Z" fill="#484848"/>
<path fill-rule="evenodd" clip-rule="evenodd" d="M13.5 11.5625C12.1538 11.5625 11.0625 12.6538 11.0625 14C11.0625 15.3462 12.1538 16.4375 13.5 16.4375C14.8462 16.4375 15.9375 15.3462 15.9375 14C15.9375 12.6538 14.8462 11.5625 13.5 11.5625ZM9.9375 14C9.9375 12.0325 11.5325 10.4375 13.5 10.4375C15.4675 10.4375 17.0625 12.0325 17.0625 14C17.0625 15.9675 15.4675 17.5625 13.5 17.5625C11.5325 17.5625 9.9375 15.9675 9.9375 14Z" fill="#484848"/>
</svg>
