<svg width="20" height="20" viewBox="0 0 20 20" fill="none" xmlns="http://www.w3.org/2000/svg">
<g id="family 1" clip-path="url(#clip0_1384_77179)">
<g id="Page-1">
<g id="shelter_filled">
<path id="family,-mother,-father,-child,-roof,-home" d="M10.0001 11.1765C8.70065 11.1765 7.64721 10.123 7.64721 8.82352C7.64721 7.52402 8.70065 6.47058 10.0001 6.47058C11.2996 6.47058 12.3531 7.52402 12.3531 8.82352C12.3531 10.123 11.2996 11.1765 10.0001 11.1765ZM0.82416 5.83302C0.526525 5.96323 0.179683 5.82752 0.049468 5.52988C-0.0807474 5.23225 0.0549723 4.88541 0.352607 4.75519L9.76437 0.637545C9.91468 0.571787 10.0856 0.571787 10.2359 0.637545L19.6477 4.75519C19.9453 4.88541 20.081 5.23225 19.9508 5.52988C19.8206 5.82752 19.4738 5.96323 19.1761 5.83302L10.0001 1.81853L0.82416 5.83302ZM10.0001 12.0588C11.2996 12.0588 12.3531 13.1123 12.3531 14.4118V18.8235C12.3531 19.1484 12.0897 19.4118 11.7649 19.4118H8.23544C7.91057 19.4118 7.64721 19.1484 7.64721 18.8235V14.4118C7.64721 13.1123 8.70065 12.0588 10.0001 12.0588ZM16.1766 14.1176C15.0396 14.1176 14.1178 13.1959 14.1178 12.0588C14.1178 10.9218 15.0396 9.99999 16.1766 9.99999C17.3137 9.99999 18.2354 10.9218 18.2354 12.0588C18.2354 13.1959 17.3137 14.1176 16.1766 14.1176ZM18.2354 17.0588V18.8235C18.2354 19.1484 17.9721 19.4118 17.6472 19.4118H14.706C14.3812 19.4118 14.1178 19.1484 14.1178 18.8235V17.0588C14.1178 15.9218 15.0396 15 16.1766 15C17.3137 15 18.2354 15.9218 18.2354 17.0588ZM3.82368 13.8235C2.68662 13.8235 1.76485 12.9018 1.76485 11.7647C1.76485 10.6276 2.68662 9.70587 3.82368 9.70587C4.96073 9.70587 5.8825 10.6276 5.8825 11.7647C5.8825 12.9018 4.96073 13.8235 3.82368 13.8235ZM3.82368 14.7059C4.96073 14.7059 5.8825 15.6276 5.8825 16.7647V18.8235C5.8825 19.1484 5.61914 19.4118 5.29427 19.4118H2.35309C2.02822 19.4118 1.76485 19.1484 1.76485 18.8235V16.7647C1.76485 15.6276 2.68662 14.7059 3.82368 14.7059Z" fill="#044D3A"/>
</g>
</g>
</g>
<defs>
<clipPath id="clip0_1384_77179">
<rect width="20" height="20" fill="white"/>
</clipPath>
</defs>
</svg>
