<svg width="20" height="20" viewBox="0 0 20 20" fill="none" xmlns="http://www.w3.org/2000/svg">
<g clip-path="url(#clip0_4943_10781)">
<path d="M17.5013 3.33333H14.918C14.7246 2.39284 14.2128 1.54779 13.469 0.940598C12.7252 0.333408 11.7948 0.0012121 10.8346 0L9.16797 0C8.2078 0.0012121 7.2774 0.333408 6.53359 0.940598C5.78979 1.54779 5.27805 2.39284 5.08464 3.33333H2.5013C2.28029 3.33333 2.06833 3.42113 1.91205 3.57741C1.75577 3.73369 1.66797 3.94565 1.66797 4.16667C1.66797 4.38768 1.75577 4.59964 1.91205 4.75592C2.06833 4.9122 2.28029 5 2.5013 5H3.33464V15.8333C3.33596 16.938 3.77537 17.997 4.55649 18.7782C5.3376 19.5593 6.39664 19.9987 7.5013 20H12.5013C13.606 19.9987 14.665 19.5593 15.4461 18.7782C16.2272 17.997 16.6666 16.938 16.668 15.8333V5H17.5013C17.7223 5 17.9343 4.9122 18.0906 4.75592C18.2468 4.59964 18.3346 4.38768 18.3346 4.16667C18.3346 3.94565 18.2468 3.73369 18.0906 3.57741C17.9343 3.42113 17.7223 3.33333 17.5013 3.33333ZM9.16797 1.66667H10.8346C11.3515 1.6673 11.8556 1.82781 12.2776 2.1262C12.6997 2.42459 13.0192 2.84624 13.1921 3.33333H6.81047C6.98345 2.84624 7.30289 2.42459 7.72496 2.1262C8.14703 1.82781 8.65107 1.6673 9.16797 1.66667ZM15.0013 15.8333C15.0013 16.4964 14.7379 17.1323 14.2691 17.6011C13.8002 18.0699 13.1643 18.3333 12.5013 18.3333H7.5013C6.83826 18.3333 6.20238 18.0699 5.73354 17.6011C5.26469 17.1323 5.0013 16.4964 5.0013 15.8333V5H15.0013V15.8333Z" fill="#044D3A"/>
<path d="M8.33333 14.9987C8.55435 14.9987 8.76631 14.9109 8.92259 14.7546C9.07887 14.5983 9.16667 14.3864 9.16667 14.1654V9.16536C9.16667 8.94435 9.07887 8.73239 8.92259 8.57611C8.76631 8.41983 8.55435 8.33203 8.33333 8.33203C8.11232 8.33203 7.90036 8.41983 7.74408 8.57611C7.5878 8.73239 7.5 8.94435 7.5 9.16536V14.1654C7.5 14.3864 7.5878 14.5983 7.74408 14.7546C7.90036 14.9109 8.11232 14.9987 8.33333 14.9987Z" fill="#044D3A"/>
<path d="M11.6654 14.9987C11.8864 14.9987 12.0983 14.9109 12.2546 14.7546C12.4109 14.5983 12.4987 14.3864 12.4987 14.1654V9.16536C12.4987 8.94435 12.4109 8.73239 12.2546 8.57611C12.0983 8.41983 11.8864 8.33203 11.6654 8.33203C11.4444 8.33203 11.2324 8.41983 11.0761 8.57611C10.9198 8.73239 10.832 8.94435 10.832 9.16536V14.1654C10.832 14.3864 10.9198 14.5983 11.0761 14.7546C11.2324 14.9109 11.4444 14.9987 11.6654 14.9987Z" fill="#044D3A"/>
</g>
<defs>
<clipPath id="clip0_4943_10781">
<rect width="20" height="20" fill="white"/>
</clipPath>
</defs>
</svg>
