<svg width="47" height="22" viewBox="0 0 47 22" fill="none" xmlns="http://www.w3.org/2000/svg">
<rect x="0.5" y="0.5" width="45.3636" height="20.3636" rx="10.1818" stroke="#044D3A"/>
<path d="M17.2347 6.1301C17.095 5.98866 16.9287 5.87636 16.7453 5.79971C16.562 5.72306 16.3652 5.68359 16.1665 5.68359C15.9677 5.68359 15.771 5.72306 15.5876 5.79971C15.4042 5.87636 15.2379 5.98866 15.0983 6.1301L14.1377 7.10572L16.259 9.22705L17.2196 8.26645C17.3621 8.12782 17.4755 7.9623 17.5535 7.77947C17.6314 7.59664 17.6723 7.40015 17.6737 7.20141C17.6751 7.00267 17.637 6.80563 17.5616 6.62172C17.4862 6.43782 17.3751 6.27071 17.2347 6.1301Z" fill="#044D3A"/>
<path d="M13.4279 7.81641L9.23021 12.0141C9.19258 12.0527 9.16058 12.0965 9.13515 12.1441L7.74427 14.9509C7.70392 15.0267 7.68374 15.1115 7.68567 15.1974C7.68761 15.2832 7.71158 15.367 7.7553 15.4409C7.79902 15.5148 7.86101 15.5762 7.93531 15.6192C8.00961 15.6621 8.09372 15.6853 8.17955 15.6864C8.25578 15.6867 8.33108 15.6696 8.39969 15.6363L11.2065 14.2455C11.2541 14.22 11.2979 14.188 11.3365 14.1504L15.5342 9.95275L13.4279 7.81641Z" fill="#044D3A"/>
<path d="M17.1858 15.6862H12.6829C12.5502 15.6862 12.423 15.6335 12.3292 15.5396C12.2353 15.4458 12.1826 15.3186 12.1826 15.1859C12.1826 15.0532 12.2353 14.9259 12.3292 14.8321C12.423 14.7383 12.5502 14.6855 12.6829 14.6855H17.1858C17.3185 14.6855 17.4457 14.7383 17.5396 14.8321C17.6334 14.9259 17.6861 15.0532 17.6861 15.1859C17.6861 15.3186 17.6334 15.4458 17.5396 15.5396C17.4457 15.6335 17.3185 15.6862 17.1858 15.6862Z" fill="#044D3A"/>
<path d="M25.0643 8.75464V10.5906H27.2243V11.4276H25.0643V13.3446H27.4943V14.1816H24.0383V7.91764H27.4943V8.75464H25.0643ZM28.416 11.6796C28.416 11.1816 28.518 10.7406 28.722 10.3566C28.932 9.97264 29.214 9.67564 29.568 9.46564C29.928 9.24964 30.327 9.14164 30.765 9.14164C31.089 9.14164 31.407 9.21364 31.719 9.35764C32.037 9.49564 32.289 9.68164 32.475 9.91564V7.52164H33.51V14.1816H32.475V13.4346C32.307 13.6746 32.073 13.8726 31.773 14.0286C31.479 14.1846 31.14 14.2626 30.756 14.2626C30.324 14.2626 29.928 14.1546 29.568 13.9386C29.214 13.7166 28.932 13.4106 28.722 13.0206C28.518 12.6246 28.416 12.1776 28.416 11.6796ZM32.475 11.6976C32.475 11.3556 32.403 11.0586 32.259 10.8066C32.121 10.5546 31.938 10.3626 31.71 10.2306C31.482 10.0986 31.236 10.0326 30.972 10.0326C30.708 10.0326 30.462 10.0986 30.234 10.2306C30.006 10.3566 29.82 10.5456 29.676 10.7976C29.538 11.0436 29.469 11.3376 29.469 11.6796C29.469 12.0216 29.538 12.3216 29.676 12.5796C29.82 12.8376 30.006 13.0356 30.234 13.1736C30.468 13.3056 30.714 13.3716 30.972 13.3716C31.236 13.3716 31.482 13.3056 31.71 13.1736C31.938 13.0416 32.121 12.8496 32.259 12.5976C32.403 12.3396 32.475 12.0396 32.475 11.6976ZM35.3796 8.56564C35.1936 8.56564 35.0376 8.50264 34.9116 8.37664C34.7856 8.25064 34.7226 8.09464 34.7226 7.90864C34.7226 7.72264 34.7856 7.56664 34.9116 7.44064C35.0376 7.31464 35.1936 7.25164 35.3796 7.25164C35.5596 7.25164 35.7126 7.31464 35.8386 7.44064C35.9646 7.56664 36.0276 7.72264 36.0276 7.90864C36.0276 8.09464 35.9646 8.25064 35.8386 8.37664C35.7126 8.50264 35.5596 8.56564 35.3796 8.56564ZM35.8836 9.22264V14.1816H34.8576V9.22264H35.8836ZM38.4277 10.0596V12.8046C38.4277 12.9906 38.4697 13.1256 38.5537 13.2096C38.6437 13.2876 38.7937 13.3266 39.0037 13.3266H39.6337V14.1816H38.8237C38.3617 14.1816 38.0077 14.0736 37.7617 13.8576C37.5157 13.6416 37.3927 13.2906 37.3927 12.8046V10.0596H36.8077V9.22264H37.3927V7.98964H38.4277V9.22264H39.6337V10.0596H38.4277Z" fill="#044D3A"/>
</svg>
