<svg width="17" height="16" viewBox="0 0 17 16" fill="none" xmlns="http://www.w3.org/2000/svg">
<g id="question (1) 1" clip-path="url(#clip0_1384_77243)">
<path id="Vector" d="M6.62695 6.99585C6.62695 7.25476 6.41699 7.4646 6.1582 7.4646C5.89929 7.4646 5.68945 7.25476 5.68945 6.99585C5.68945 6.73694 5.89929 6.5271 6.1582 6.5271C6.41699 6.5271 6.62695 6.73694 6.62695 6.99585Z" fill="#044D3A"/>
<path id="Vector_2" d="M13.4383 3.51467H12.1499V2.72817C12.1499 1.22146 10.9309 3.05176e-05 9.42173 3.05176e-05H2.89465C1.38794 3.05176e-05 0.166504 1.2189 0.166504 2.72817V11.5147C0.166504 11.9065 0.625976 12.1325 0.935301 11.8748L3.8175 9.47291H4.18322V10.7615C4.18322 12.2682 5.40209 13.4896 6.91136 13.4896H12.5156L15.3977 15.8914C15.4836 15.963 15.5902 16 15.6978 16C15.9555 16 16.1665 15.7909 16.1665 15.5312V6.24269C16.1665 4.73598 14.9476 3.51467 13.4383 3.51467ZM3.6477 8.53541C3.53808 8.53541 3.43188 8.57387 3.34765 8.64406L1.104 10.5138V2.72817C1.104 1.73916 1.90405 0.937529 2.89465 0.937529H9.42173C10.4106 0.937529 11.2124 1.73758 11.2124 2.72817V6.74489C11.2124 7.73219 10.409 8.53541 9.42173 8.53541H3.6477ZM15.229 14.5305L12.9853 12.6608C12.9011 12.5906 12.7949 12.5521 12.6853 12.5521H6.91124C6.43297 12.5521 5.98326 12.3659 5.64513 12.0276C5.30687 11.6895 5.1206 11.2398 5.1206 10.7615V9.47291H9.42161C10.008 9.47291 10.5519 9.28688 10.9972 8.97084H13.1872C13.4461 8.97084 13.656 8.761 13.656 8.50209C13.656 8.2433 13.4461 8.03334 13.1872 8.03334H11.8258C11.9999 7.70985 12.1106 7.34731 12.1411 6.96254H13.1872C13.4461 6.96254 13.656 6.7527 13.656 6.49379C13.656 6.23488 13.4461 6.02504 13.1872 6.02504H12.1498V4.45217H13.4383C13.9167 4.45217 14.3663 4.63833 14.7046 4.97658C15.0427 5.31472 15.229 5.76442 15.229 6.24269V14.5305Z" fill="#044D3A"/>
<path id="Vector_3" d="M5.37158 3.73181C5.37158 3.52185 5.45337 3.32458 5.6018 3.17602C5.75024 3.02759 5.94763 2.9458 6.15808 2.9458C6.59167 2.9458 6.94458 3.2987 6.94458 3.7323C6.94458 4.16601 6.59167 4.51879 6.15808 4.51879C5.89917 4.51879 5.68933 4.72863 5.68933 4.98754V5.48962C5.68933 5.74841 5.89917 5.95837 6.15808 5.95837C6.41687 5.95837 6.62683 5.74841 6.62683 5.48962V5.39147C7.35034 5.18676 7.88195 4.5205 7.88195 3.7323C7.88195 2.78161 7.10864 2.0083 6.15759 2.0083C5.69726 2.0083 5.2644 2.18762 4.93884 2.51306C4.6134 2.83862 4.43408 3.27148 4.43408 3.73169V3.73217C4.43408 3.99109 4.64392 4.20068 4.90283 4.20068C5.16174 4.20068 5.37158 3.99072 5.37158 3.73181Z" fill="#044D3A"/>
<path id="Vector_4" d="M13.1871 10.0416H7.16211C6.9032 10.0416 6.69336 10.2516 6.69336 10.5104C6.69336 10.7693 6.9032 10.9791 7.16211 10.9791H13.1871C13.4459 10.9791 13.6559 10.7693 13.6559 10.5104C13.6559 10.2516 13.4459 10.0416 13.1871 10.0416Z" fill="#044D3A"/>
</g>
<defs>
<clipPath id="clip0_1384_77243">
<rect width="16" height="16" fill="white" transform="translate(0.166504)"/>
</clipPath>
</defs>
</svg>
