<svg width="18" height="19" viewBox="0 0 18 19" fill="none" xmlns="http://www.w3.org/2000/svg">
<g clip-path="url(#clip0_4548_8758)">
<path d="M6.38418 3.72555L7.19549 4.38606L6.87503 5.34962C6.77497 5.66718 6.88735 6.01447 7.15416 6.21458C7.2912 6.31681 7.45433 6.37046 7.62471 6.37046C7.78059 6.37046 7.9314 6.32479 8.0619 6.23778L9.00807 5.60411L9.97236 6.23271C10.2515 6.41397 10.6162 6.39874 10.8801 6.19646C11.144 5.99272 11.2513 5.64326 11.144 5.32134L10.8141 4.38171L11.6218 3.72338C11.8734 3.51167 11.9669 3.1622 11.8538 2.85334C11.7407 2.54448 11.4449 2.33712 11.1157 2.33712H10.1021L9.73745 1.31338C9.62434 1.00669 9.32853 0.800781 9.00154 0.800781C8.67455 0.800781 8.37874 1.00669 8.26346 1.317L7.90022 2.3364H6.88663C6.55819 2.3364 6.26238 2.54303 6.14927 2.84972C6.03544 3.15713 6.12752 3.50804 6.38418 3.72555ZM6.88663 3.06143H8.15543C8.30841 3.06143 8.44544 2.965 8.49692 2.82072L8.94644 1.56061H9.05519L9.50471 2.82072C9.55619 2.965 9.69322 3.06143 9.8462 3.06143H11.115L11.1585 3.16438L10.158 3.98004C10.0398 4.07647 9.99411 4.2367 10.0449 4.38098L10.4589 5.56133L10.3668 5.62513L9.20237 4.86675C9.08057 4.787 8.92396 4.78917 8.80288 4.86893L7.65806 5.63528C7.64501 5.64398 7.63268 5.64543 7.62398 5.64543L7.56453 5.5722L7.96257 4.37663C8.0097 4.2338 7.96402 4.07574 7.84729 3.98149L6.84168 3.16365L6.88663 3.06143ZM17.6541 4.9494C17.5409 4.64054 17.2451 4.43318 16.916 4.43318H15.9024L15.5377 3.40944C15.4246 3.10275 15.1288 2.89684 14.8018 2.89684C14.4748 2.89684 14.179 3.10275 14.0637 3.41306L13.7005 4.43246H12.6869C12.3584 4.43246 12.0619 4.63982 11.9502 4.94578C11.8364 5.25392 11.9278 5.60338 12.1844 5.82089L12.9957 6.48139L12.6753 7.44496C12.5752 7.76252 12.6876 8.10981 12.9537 8.30919C13.09 8.41215 13.2531 8.4658 13.425 8.4658C13.5808 8.4658 13.7316 8.42012 13.8621 8.33312L14.8083 7.69944L15.7726 8.32804C16.051 8.5093 16.4164 8.49408 16.6803 8.29179C16.9442 8.08806 17.0516 7.7386 16.9442 7.41668L16.6144 6.47704L17.422 5.81872C17.6736 5.60701 17.7672 5.25827 17.6541 4.9494ZM15.9589 6.0761C15.8408 6.17253 15.7951 6.33276 15.8458 6.47704L16.2598 7.65739L16.1677 7.72119L15.0033 6.96281C14.8815 6.88378 14.7242 6.88523 14.6039 6.96499L13.459 7.73134C13.446 7.74005 13.4337 7.7415 13.425 7.7415L13.3655 7.66827L13.7635 6.47269C13.8107 6.32986 13.765 6.1718 13.6483 6.07755L12.6426 5.25972L12.6876 5.15821H13.9564C14.1094 5.15821 14.2464 5.06178 14.2979 4.9175L14.7474 3.6574H14.8562L15.3057 4.9175C15.3572 5.06178 15.4942 5.15821 15.6472 5.15821H16.916L16.9595 5.26117L15.9589 6.0761ZM4.17139 8.32877C4.45053 8.51003 4.81522 8.4948 5.07913 8.29252C5.34304 8.08878 5.45034 7.73932 5.34304 7.41741L5.01315 6.47777L5.82083 5.81944C6.07242 5.60773 6.16595 5.25827 6.05284 4.9494C5.93974 4.64054 5.64393 4.43318 5.31476 4.43318H4.30117L3.93648 3.40944C3.82338 3.10275 3.52756 2.89684 3.20057 2.89684C2.87359 2.89684 2.57777 3.10275 2.46249 3.41306L2.09925 4.43246H1.08566C0.757223 4.43246 0.460685 4.63982 0.349031 4.94578C0.235201 5.25392 0.326555 5.60338 0.583216 5.82089L1.39452 6.48139L1.07406 7.44496C0.974007 7.76252 1.08639 8.10981 1.35247 8.30919C1.48878 8.41215 1.65191 8.4658 1.82374 8.4658C1.97962 8.4658 2.13043 8.42012 2.26094 8.33312L3.2071 7.69944L4.17139 8.32804V8.32877ZM3.00264 6.96499L1.85782 7.73134C1.84477 7.74005 1.83244 7.7415 1.82374 7.7415L1.76429 7.66827L2.16233 6.47269C2.20946 6.32986 2.16378 6.1718 2.04705 6.07755L1.04143 5.25972L1.08639 5.15821H2.35519C2.50817 5.15821 2.6452 5.06178 2.69668 4.9175L3.1462 3.6574H3.25495L3.70447 4.9175C3.75595 5.06178 3.89298 5.15821 4.04596 5.15821H5.31476L5.35826 5.26117L4.35772 6.07683C4.23954 6.17325 4.19387 6.33349 4.24462 6.47777L4.65861 7.65812L4.56653 7.72192L3.40213 6.96354C3.28105 6.88451 3.12372 6.88596 3.00264 6.96571V6.96499ZM12.626 10.9512H9.59317L10.0188 8.53685C10.0299 8.29131 10.0299 8.1625 10.0188 8.15041C9.93103 7.8285 9.7273 7.57474 9.44526 7.43626C9.1596 7.29705 8.83043 7.29125 8.5165 7.42176C8.33234 7.49789 8.15253 7.68784 8.0242 7.93798L6.43203 10.9505H5.37639C4.17719 10.9505 3.2013 11.9264 3.2013 13.1256V16.0257C3.2013 17.2249 4.17719 18.2008 5.37639 18.2008H11.4514C12.829 18.2008 14.0253 17.2198 14.2957 15.8691L14.759 13.5519C14.8873 12.9102 14.7228 12.2526 14.308 11.7466C13.8933 11.2405 13.2807 10.9505 12.626 10.9505V10.9512ZM3.92633 16.0264V13.1263C3.92633 12.3266 4.57668 11.6762 5.37639 11.6762H6.10142V17.4765H5.37639C4.57668 17.4765 3.92633 16.8261 3.92633 16.0264ZM14.0478 13.4105L13.5845 15.7277C13.3814 16.7406 12.4846 17.4765 11.4514 17.4765H6.82645V11.5595C6.92868 11.4935 7.01423 11.4014 7.07296 11.2898L8.66803 8.27294C8.73618 8.13954 8.79998 8.09096 8.79636 8.09096C8.91454 8.04166 9.03127 8.04093 9.12625 8.08733C9.19875 8.12286 9.25603 8.18521 9.30533 8.29832L8.88046 10.8243C8.84276 11.036 8.90004 11.2514 9.03852 11.4174C9.177 11.582 9.37928 11.6762 9.59389 11.6762H12.6267C13.0632 11.6762 13.4714 11.8698 13.7476 12.207C14.0246 12.5441 14.1333 12.9827 14.0478 13.4105Z" fill="#484848" stroke="#484848" stroke-width="0.3"/>
</g>
<defs>
<clipPath id="clip0_4548_8758">
<rect width="18" height="18" fill="white" transform="translate(0 0.5)"/>
</clipPath>
</defs>
</svg>
