<svg width="20" height="20" viewBox="0 0 20 20" fill="none" xmlns="http://www.w3.org/2000/svg">
<g id="Frame" clip-path="url(#clip0_1384_44556)">
<path id="Vector" d="M10.0002 14.2098C12.2117 14.2098 14.0044 12.4171 14.0044 10.2056C14.0044 7.9942 12.2117 6.20148 10.0002 6.20148C7.78881 6.20148 5.99609 7.9942 5.99609 10.2056C5.99609 12.4171 7.78881 14.2098 10.0002 14.2098Z" stroke="white" stroke-width="0.960996" stroke-linecap="round" stroke-linejoin="round"/>
<path id="Vector_2" d="M10 1.3965V2.99816" stroke="white" stroke-width="0.960996" stroke-linecap="round" stroke-linejoin="round"/>
<path id="Vector_3" d="M10 17.4132V19.0148" stroke="white" stroke-width="0.960996" stroke-linecap="round" stroke-linejoin="round"/>
<path id="Vector_4" d="M3.76953 3.97519L4.90671 5.11237" stroke="white" stroke-width="0.960996" stroke-linecap="round" stroke-linejoin="round"/>
<path id="Vector_5" d="M15.0938 15.299L16.2309 16.4362" stroke="white" stroke-width="0.960996" stroke-linecap="round" stroke-linejoin="round"/>
<path id="Vector_6" d="M1.19141 10.2057H2.79307" stroke="white" stroke-width="0.960996" stroke-linecap="round" stroke-linejoin="round"/>
<path id="Vector_7" d="M17.207 10.2057H18.8087" stroke="white" stroke-width="0.960996" stroke-linecap="round" stroke-linejoin="round"/>
<path id="Vector_8" d="M3.76953 16.4362L4.90671 15.299" stroke="white" stroke-width="0.960996" stroke-linecap="round" stroke-linejoin="round"/>
<path id="Vector_9" d="M15.0938 5.11237L16.2309 3.97519" stroke="white" stroke-width="0.960996" stroke-linecap="round" stroke-linejoin="round"/>
</g>
<defs>
<clipPath id="clip0_1384_44556">
<rect width="19.2199" height="19.2199" fill="white" transform="translate(0.390625 0.595856)"/>
</clipPath>
</defs>
</svg>
