<svg width="24" height="24" viewBox="0 0 24 24" fill="none" xmlns="http://www.w3.org/2000/svg">
<g clip-path="url(#clip0_4645_8790)">
<path d="M18.7016 0H5.30628C3.90001 0 2.55135 0.558636 1.55697 1.55302C0.56259 2.54739 0.00395377 3.89606 0.00395377 5.30233V18.6977C-0.00131792 18.7159 -0.00131792 18.7353 0.00395377 18.7535C0.0186553 20.1501 0.583775 21.4844 1.57656 22.4668C2.56935 23.4491 3.90963 24.0001 5.30628 24H18.7016C20.0925 23.9972 21.4266 23.448 22.4164 22.4708C23.4062 21.4936 23.9723 20.1666 23.9928 18.7758V5.30233C23.9928 3.89799 23.4357 2.55102 22.4437 1.55696C21.4518 0.562898 20.106 0.00295649 18.7016 0ZM22.3295 16.4651L17.6635 11.1293C17.367 10.8137 17.0091 10.5622 16.6116 10.3902C16.2142 10.2183 15.7858 10.1296 15.3528 10.1296C14.9198 10.1296 14.4914 10.2183 14.0939 10.3902C13.6965 10.5622 13.3386 10.8137 13.0421 11.1293L9.83837 14.7907L8.78907 13.5181C8.49993 13.1713 8.13807 12.8922 7.72912 12.7007C7.32017 12.5092 6.87413 12.41 6.42256 12.41C5.97099 12.41 5.52494 12.5092 5.11599 12.7007C4.70704 12.8922 4.34519 13.1713 4.05605 13.5181L1.67837 16.387V5.30233C1.68132 4.34105 2.06449 3.41999 2.74421 2.74026C3.42394 2.06053 4.345 1.67736 5.30628 1.67442H18.7016C19.6629 1.67736 20.584 2.06053 21.2637 2.74026C21.9434 3.41999 22.3266 4.34105 22.3295 5.30233V16.4651Z" fill="#317BF6"/>
<path d="M6.42201 8.65262C7.65502 8.65262 8.65457 7.65307 8.65457 6.42006C8.65457 5.18705 7.65502 4.1875 6.42201 4.1875C5.189 4.1875 4.18945 5.18705 4.18945 6.42006C4.18945 7.65307 5.189 8.65262 6.42201 8.65262Z" fill="#317BF6"/>
</g>
<defs>
<clipPath id="clip0_4645_8790">
<rect width="24" height="24" fill="white"/>
</clipPath>
</defs>
</svg>
