<svg width="24" height="25" viewBox="0 0 24 25" fill="none" xmlns="http://www.w3.org/2000/svg">
<g id="noun-humidity-151847 1">
<g id="Group">
<path id="Vector" d="M12.0286 16.8548C11.7779 16.6363 11.5727 16.1854 11.5727 15.8527V4.29499C11.5727 3.96245 11.3007 3.69043 10.9681 3.69043H10.1927C9.86013 3.69043 9.58811 3.96244 9.58811 4.29499L9.58798 15.8524C9.58798 16.1852 9.37463 16.6261 9.11401 16.8326C9.11401 16.8326 8 17.7148 8 18.5489C8 19.8366 9.13318 20.8806 10.531 20.8806C11.9285 20.8806 13.0616 19.8365 13.0616 18.5489C13.0616 17.7548 12.0286 16.8546 12.0286 16.8546L12.0286 16.8548Z" fill="#483C32"/>
<path id="Vector_2" d="M11.3217 7.04888C11.3217 7.38143 11.0497 7.65345 10.7171 7.65345H10.4524C10.1198 7.65345 9.84779 7.38144 9.84779 7.04888L9.84766 4.55768C9.84766 4.22514 10.1197 3.95312 10.4522 3.95312H10.717C11.0496 3.95312 11.3216 4.22513 11.3216 4.55768L11.3217 7.04888Z" fill="#483C32"/>
<path id="Vector_3" d="M14.5918 14.2913C14.5918 14.8624 14.1294 15.325 13.5581 15.325C12.9867 15.325 12.5244 14.8625 12.5244 14.2913L13.5441 12.4307L14.5918 14.2913Z" fill="#483C32"/>
<path id="Vector_4" d="M15.7045 15.9829C15.7012 16.3144 15.4304 16.5803 15.0986 16.577C14.7677 16.5741 14.5016 16.3032 14.5049 15.9716L15.1069 14.8975L15.7045 15.9829Z" fill="#483C32"/>
<path id="Vector_5" d="M15.4874 13.3317C15.4857 13.5293 15.324 13.6878 15.1266 13.6858C14.9293 13.684 14.7703 13.5224 14.7725 13.325L15.1317 12.6846L15.4874 13.3317Z" fill="#483C32"/>
<path id="Vector_6" d="M12.0066 19.0277C11.9869 19.0275 12.0041 19.0273 12.0446 19.0273C12.0847 19.0273 11.9975 19.2716 11.8505 19.5699L11.8025 19.667C11.6557 19.9652 11.317 20.2095 11.0501 20.2095H10.5643H10.079C9.81207 20.2095 9.47336 19.9652 9.32631 19.667L9.27836 19.5699C9.13131 19.2716 9.04452 19.0273 9.08524 19.0273C9.12622 19.0273 9.4317 19.0273 9.76427 19.0276L11.4381 19.0279C11.7704 19.0279 12.0265 19.0277 12.0066 19.0277H12.0066Z" fill="#483C32"/>
<path id="Vector_7" d="M10.3444 18.7659C9.9591 18.7437 9.73878 18.6194 9.54163 18.2456C9.34449 17.8714 9.36819 17.7276 9.56708 17.29L9.57927 17.2915C10.0435 17.3745 10.1743 17.4387 10.3692 17.8101C10.567 18.1836 10.5444 18.436 10.3443 18.7656" fill="#483C32"/>
<path id="Vector_8" d="M10.7962 17.7C10.6245 17.6902 10.5264 17.6348 10.4386 17.4683C10.3509 17.302 10.3613 17.2377 10.4501 17.043L10.4552 17.0434C10.662 17.0805 10.7204 17.1093 10.8068 17.2744C10.8947 17.4406 10.8846 17.5532 10.7956 17.7" fill="#483C32"/>
<path id="Vector_9" d="M11.0176 18.7662C10.8423 18.551 10.8013 18.3733 10.9043 18.0868C11.0079 17.8005 11.0957 17.7436 11.4246 17.6367L11.4293 17.6442C11.6109 17.931 11.6397 18.0317 11.5379 18.3153C11.4351 18.6016 11.2896 18.7117 11.0176 18.7654" fill="#483C32"/>
</g>
</g>
</svg>
