<svg width="142" height="32" viewBox="0 0 142 32" fill="none" xmlns="http://www.w3.org/2000/svg">
<path d="M15.5422 0.287061C15.4746 0.30086 15.3173 0.408491 15.2331 0.498184C15.1862 0.54786 15.1117 0.641692 15.0675 0.706547C15.0234 0.772781 14.9461 0.881792 14.8951 0.950787C14.844 1.02116 14.7847 1.10671 14.764 1.14259C14.7033 1.24608 14.6398 1.34819 14.6011 1.40477C14.528 1.51102 14.4645 1.61451 14.4645 1.62693C14.4645 1.63383 14.4452 1.66557 14.4218 1.69731C14.3983 1.73042 14.3666 1.78562 14.3528 1.82012C14.3376 1.85599 14.3141 1.89601 14.3017 1.90981C14.2893 1.92361 14.2631 1.96638 14.2438 2.0064C14.1761 2.13611 14.103 2.27134 14.092 2.28514C14.0851 2.29342 14.0671 2.33205 14.0506 2.37345C14.0354 2.41485 14.0092 2.4659 13.994 2.4866C13.9788 2.5073 13.9581 2.55145 13.9471 2.58319C13.9347 2.61631 13.9084 2.6715 13.8864 2.706C13.8643 2.7405 13.8394 2.79293 13.8298 2.82329C13.8201 2.85365 13.7953 2.90885 13.7746 2.94748C13.7539 2.98474 13.7291 3.04131 13.7194 3.07167C13.7097 3.10203 13.6904 3.14205 13.678 3.16136C13.6642 3.18068 13.6421 3.23312 13.6297 3.27865C13.6159 3.32419 13.5883 3.39181 13.5676 3.43044C13.5469 3.4677 13.5248 3.52427 13.5193 3.55463C13.5152 3.58499 13.4931 3.64156 13.471 3.67882C13.4503 3.71746 13.4255 3.78507 13.4158 3.83061C13.4062 3.87615 13.3841 3.94238 13.3661 3.97964C13.3468 4.01551 13.322 4.09279 13.3109 4.15212C13.2985 4.21008 13.2765 4.28183 13.2627 4.31081C13.2475 4.33841 13.2226 4.42534 13.2075 4.50399C13.1923 4.58127 13.1674 4.67234 13.1523 4.70684C13.1371 4.74133 13.1122 4.84897 13.0971 4.94694C13.0833 5.04491 13.0557 5.17462 13.0364 5.23395C13.017 5.29329 13.0019 5.37194 13.0019 5.40782C13.0019 5.48923 12.9646 5.80799 12.9522 5.82592C12.9315 5.86042 12.9135 6.21229 12.9135 6.57658C12.9135 6.97813 12.9246 7.18925 12.948 7.26653C12.9549 7.2886 12.9729 7.41693 12.9867 7.5494C13.0032 7.69153 13.0253 7.824 13.0433 7.87368C13.0584 7.91921 13.0833 8.02132 13.0971 8.10274C13.1122 8.18277 13.1371 8.2766 13.155 8.30972C13.1716 8.34284 13.1937 8.41045 13.2047 8.45737C13.2144 8.50566 13.242 8.58846 13.264 8.63951C13.2875 8.69195 13.3054 8.743 13.3054 8.75266C13.3054 8.7637 13.3303 8.82166 13.3606 8.88099C13.391 8.94033 13.4158 8.9969 13.4158 9.00656C13.4158 9.01622 13.4545 9.09764 13.5 9.18733C13.5469 9.27702 13.6007 9.38051 13.62 9.41777C13.638 9.45503 13.6711 9.5116 13.6932 9.54058C13.7153 9.57094 13.7332 9.6013 13.7332 9.60957C13.7332 9.62337 13.936 9.92971 13.9912 9.9987C14.0092 10.0208 14.0699 10.1022 14.1251 10.1781C14.2451 10.3437 14.3555 10.4651 14.4535 10.541C14.5791 10.6362 14.8136 10.6638 15.0593 10.6114C15.1214 10.5976 15.1462 10.581 15.2428 10.4886C15.327 10.4071 15.367 10.3547 15.407 10.2774C15.4567 10.1781 15.4581 10.1698 15.4581 10.0304C15.4581 9.88969 15.4567 9.88417 15.4015 9.77102C15.3697 9.70755 15.3035 9.60543 15.2525 9.54334C15.2014 9.48262 15.131 9.39293 15.0965 9.34326C15.0606 9.29358 15.0165 9.23425 14.9972 9.21217C14.9792 9.18871 14.9323 9.11695 14.8951 9.05348C14.8564 8.98862 14.8123 8.91687 14.7971 8.89479C14.7819 8.87133 14.7488 8.81338 14.7226 8.7637C14.6964 8.71403 14.666 8.65469 14.6536 8.63261C14.5998 8.53188 14.5211 8.3525 14.5128 8.30834C14.5073 8.28212 14.4852 8.22831 14.4645 8.19105C14.4425 8.15241 14.419 8.08066 14.4107 8.0296C14.4024 7.97993 14.3804 7.90403 14.361 7.86264C14.339 7.81572 14.3196 7.73293 14.3058 7.63634C14.2962 7.55354 14.2796 7.46799 14.2714 7.44453C14.2617 7.42245 14.2438 7.33276 14.2286 7.24583C14.2065 7.1106 14.2024 7.01125 14.2024 6.58072C14.2024 6.04395 14.2175 5.83972 14.27 5.65896C14.2852 5.60928 14.3031 5.50441 14.3114 5.42438C14.3196 5.34158 14.3417 5.23119 14.361 5.1691C14.3817 5.10838 14.4066 5.01179 14.4162 4.95384C14.4273 4.89588 14.4507 4.81171 14.4701 4.76617C14.4894 4.72064 14.5115 4.6406 14.5197 4.58955C14.528 4.53849 14.5501 4.4695 14.568 4.43914C14.586 4.4074 14.6108 4.33703 14.6232 4.28045C14.6343 4.22526 14.6591 4.15488 14.677 4.12315C14.6964 4.09141 14.7184 4.03345 14.7281 3.9962C14.7364 3.95756 14.7654 3.8858 14.7902 3.83613C14.8164 3.78645 14.8371 3.73678 14.8371 3.72436C14.8371 3.71332 14.855 3.67054 14.8771 3.62915C14.8978 3.58775 14.9213 3.53945 14.9268 3.52013C14.9503 3.43596 15.2594 2.80949 15.3076 2.7474C15.327 2.72118 15.349 2.68392 15.3546 2.66461C15.3601 2.64529 15.3891 2.58871 15.418 2.53904C15.447 2.48936 15.4719 2.44244 15.4719 2.43416C15.4719 2.42589 15.487 2.40105 15.505 2.37897C15.5229 2.35827 15.5546 2.30859 15.5753 2.27134C15.6857 2.07263 15.7699 2.034 15.832 2.15681C15.8472 2.18716 15.8789 2.23822 15.901 2.26858C15.9231 2.29894 15.941 2.32929 15.941 2.33619C15.941 2.34447 15.959 2.37483 15.9797 2.40657C16.0735 2.54318 16.1342 2.64253 16.1342 2.65771C16.1342 2.66599 16.1618 2.71566 16.1963 2.76672C16.2308 2.81915 16.2584 2.86745 16.2584 2.87435C16.2584 2.88263 16.2708 2.90609 16.286 2.92678C16.3163 2.96956 16.5758 3.47874 16.5758 3.4953C16.5758 3.5022 16.5909 3.52979 16.6103 3.55877C16.6282 3.58637 16.6558 3.64432 16.671 3.68572C16.6848 3.72712 16.7124 3.78921 16.7331 3.82371C16.7524 3.85821 16.7689 3.89546 16.7689 3.90788C16.7689 3.91892 16.7938 3.97826 16.8241 4.03759C16.8545 4.09693 16.8793 4.15488 16.8793 4.16592C16.8793 4.17696 16.8973 4.22526 16.9194 4.27217C16.9428 4.32047 16.9704 4.39774 16.9828 4.44604C16.9952 4.49295 17.0173 4.55643 17.0325 4.58541C17.0477 4.61576 17.0711 4.68338 17.0849 4.73857C17.0987 4.79377 17.1222 4.86552 17.1374 4.90002C17.1539 4.93452 17.1774 5.01455 17.1898 5.07941C17.2022 5.14426 17.2284 5.23947 17.2464 5.29329C17.2657 5.34572 17.2919 5.46715 17.3057 5.56237C17.3195 5.65758 17.3444 5.77211 17.3595 5.81765C17.3802 5.87836 17.3913 5.96667 17.4023 6.14882C17.4106 6.28543 17.423 6.41928 17.4313 6.44549C17.4492 6.50621 17.4492 7.10922 17.4313 7.18373C17.4244 7.21409 17.4106 7.3438 17.4023 7.47351C17.3899 7.66807 17.3802 7.72741 17.3485 7.82538C17.3264 7.89023 17.3016 7.98545 17.2933 8.03788C17.285 8.09032 17.2657 8.16207 17.2519 8.19657C17.2367 8.23107 17.216 8.30006 17.2036 8.34836C17.1912 8.39803 17.1677 8.46289 17.1526 8.49325C17.1374 8.5236 17.1125 8.58294 17.0987 8.62433C17.0836 8.66573 17.0573 8.72507 17.0394 8.75542C17.0215 8.78716 16.9994 8.83684 16.9897 8.86719C16.9801 8.89755 16.9511 8.95275 16.9249 8.99C16.9 9.02588 16.8793 9.06452 16.8793 9.07418C16.8793 9.08522 16.8573 9.12109 16.831 9.15559C16.8048 9.19009 16.7745 9.23839 16.762 9.26322C16.751 9.28806 16.7082 9.35568 16.6668 9.41225C16.6241 9.46883 16.5799 9.53092 16.5661 9.55024C16.5302 9.6013 16.4254 9.74066 16.3343 9.85519C16.2901 9.91177 14.2603 11.954 11.8234 14.3936C9.38655 16.8333 7.36088 18.8672 7.32224 18.9128C7.2836 18.9583 7.23531 19.0204 7.21599 19.0508C7.19529 19.0811 7.16769 19.1211 7.15251 19.1404C7.12906 19.1722 7.06144 19.2757 6.95933 19.4357C6.93587 19.473 6.91655 19.5116 6.91655 19.5199C6.91655 19.5296 6.89724 19.5641 6.8724 19.5972C6.84894 19.6303 6.8172 19.6938 6.8034 19.7379C6.7896 19.7835 6.76615 19.8359 6.75235 19.8566C6.73855 19.8759 6.71233 19.9394 6.69577 19.996C6.67921 20.0526 6.653 20.1229 6.6392 20.1505C6.62402 20.1795 6.60332 20.2444 6.59228 20.2968C6.58124 20.3492 6.55916 20.4251 6.54398 20.4665C6.52467 20.5134 6.50397 20.6224 6.48879 20.7618C6.47361 20.8846 6.45567 21.0005 6.44877 21.0226C6.43911 21.0461 6.43359 21.2061 6.43359 21.4393C6.43359 21.7484 6.43911 21.8464 6.45981 21.9789C6.47499 22.0686 6.49293 22.1969 6.50121 22.2659C6.50811 22.3335 6.52743 22.4204 6.54398 22.4591C6.56054 22.4963 6.58538 22.5819 6.59918 22.6481C6.61436 22.7144 6.6392 22.7944 6.65438 22.8261C6.67093 22.8579 6.69439 22.9158 6.70543 22.9545C6.71647 22.9931 6.74131 23.0497 6.75925 23.0814C6.77719 23.1118 6.80064 23.1656 6.81168 23.2001C6.82134 23.2346 6.84618 23.2842 6.8655 23.3091C6.88344 23.3353 6.91241 23.385 6.92759 23.4209C6.94277 23.4567 6.98555 23.5312 7.02281 23.5851C7.05868 23.6403 7.10698 23.7134 7.12768 23.7479C7.16355 23.8045 7.24359 23.908 7.39124 24.086C7.42297 24.1232 8.88565 25.5942 10.6422 27.3549C13.4503 30.1671 14.0092 30.7191 14.2106 30.8695C14.2355 30.8888 14.2934 30.933 14.339 30.9688C14.3845 31.0047 14.448 31.0475 14.4811 31.064C14.5142 31.0806 14.5528 31.1054 14.568 31.1192C14.5832 31.133 14.6191 31.1537 14.6467 31.1648C14.6743 31.1772 14.7198 31.202 14.7474 31.22C14.775 31.2393 14.8192 31.2614 14.8468 31.271C14.8744 31.2793 14.9254 31.3041 14.9585 31.3262C14.9917 31.3469 15.0386 31.369 15.0634 31.3731C15.0869 31.3787 15.1338 31.4007 15.1683 31.4228C15.2028 31.4435 15.2649 31.4684 15.3063 31.478C15.3477 31.4863 15.4098 31.5084 15.4429 31.5277C15.4774 31.5484 15.5519 31.5705 15.6223 31.5829C15.6871 31.5939 15.7878 31.6188 15.8444 31.6381C15.9479 31.6726 16.0749 31.6905 16.3688 31.7098C16.4557 31.7167 16.5454 31.7278 16.5661 31.7374C16.6172 31.7567 16.9745 31.7581 17.027 31.7374C17.0477 31.7292 17.1401 31.7167 17.2312 31.7098C17.561 31.6864 17.6728 31.6712 17.7901 31.6312C17.8549 31.6091 17.9446 31.587 17.9901 31.5801C18.0357 31.5746 18.1074 31.5525 18.1516 31.5304C18.1957 31.5084 18.2634 31.4835 18.3034 31.4753C18.3434 31.4656 18.4083 31.4421 18.4455 31.4214C18.4841 31.4007 18.5393 31.3759 18.5697 31.3662C18.6001 31.3566 18.6594 31.329 18.7008 31.3055C18.8043 31.2462 18.8443 31.2241 18.9519 31.1675C19.0016 31.1399 19.0471 31.1123 19.0527 31.1041C19.0568 31.0958 19.0872 31.0765 19.1175 31.0613C19.1479 31.0461 19.2196 30.9978 19.2762 30.955C19.3342 30.9123 19.3976 30.864 19.4183 30.8488C19.5549 30.7494 20.0034 30.3065 22.759 27.5481L25.832 24.4737L25.8734 24.3633C25.9466 24.1674 25.9535 24.1218 25.9259 24.0225C25.9135 23.9742 25.8859 23.8914 25.8665 23.839L25.8307 23.7424L22.7107 20.6224L19.5908 17.5025L19.4666 17.4597C19.3604 17.4225 19.3217 17.4156 19.2113 17.4156C19.0996 17.4156 19.0623 17.4225 18.9561 17.4597L18.8319 17.5025L17.6383 18.6934C16.9814 19.3474 16.4254 19.898 16.4033 19.9173C16.326 19.9808 16.1687 20.0815 16.1135 20.1022C16.0831 20.1146 16.039 20.1381 16.0155 20.156C15.9921 20.1726 15.9465 20.1933 15.912 20.203C15.8789 20.2112 15.792 20.2375 15.7202 20.2609L15.5891 20.3023L15.3063 20.2968C15.033 20.2913 15.0206 20.2899 14.9461 20.254C14.9047 20.2333 14.8357 20.2112 14.7957 20.203C14.7543 20.1947 14.6977 20.1726 14.6688 20.1547C14.6398 20.1353 14.5832 20.105 14.5446 20.0857C14.4231 20.0277 14.35 19.9684 14.1182 19.7407C13.8905 19.5172 13.8629 19.4771 13.885 19.4054C13.9002 19.353 18.2647 14.9939 18.3917 14.9028C18.4441 14.8656 18.5145 14.8228 18.549 14.8076C18.5835 14.7924 18.6359 14.7662 18.6663 14.7497C18.6966 14.7331 18.7739 14.7055 18.8388 14.6862C18.9036 14.6682 19.0002 14.642 19.0527 14.6268C19.1355 14.6034 19.1824 14.5992 19.3907 14.6034C19.6115 14.6089 19.6419 14.6117 19.7357 14.6462C19.7923 14.6655 19.8682 14.6889 19.904 14.6972C19.9399 14.7041 19.9993 14.729 20.0365 14.751C20.0738 14.7731 20.1193 14.7952 20.1373 14.8007C20.1552 14.8062 20.2049 14.8324 20.2463 14.86C20.2877 14.8876 20.3442 14.9235 20.3732 14.9428C20.4008 14.9608 22.0525 16.6028 24.0437 18.594C27.6576 22.2066 27.6632 22.2121 27.7873 22.2797L27.9115 22.3473L28.0909 22.3487C28.2648 22.3487 28.2717 22.3473 28.3393 22.3073C28.3779 22.2852 28.4318 22.2549 28.4607 22.2397C28.5063 22.2176 28.549 22.1721 28.647 22.0382C28.6801 21.9927 28.7091 21.7912 28.6994 21.6629C28.6898 21.5139 28.6705 21.4573 28.5987 21.3621C28.5366 21.2793 21.295 14.0418 21.2053 13.9714C21.1749 13.9479 21.1349 13.9203 21.1156 13.9107C21.0963 13.901 21.0563 13.872 21.0273 13.8458C20.9969 13.821 20.9652 13.8003 20.9569 13.8003C20.9486 13.8003 20.9196 13.7851 20.8934 13.7658C20.8189 13.7092 20.6285 13.6112 20.5636 13.5933C20.5319 13.585 20.4822 13.5629 20.4546 13.545C20.427 13.5285 20.3553 13.5022 20.2946 13.4898C20.2338 13.476 20.1469 13.4526 20.1 13.4346C19.9592 13.3822 19.6529 13.3546 19.2776 13.3629C18.8898 13.3711 18.7367 13.3877 18.6166 13.4332C18.5669 13.4512 18.4841 13.476 18.4303 13.4871C18.3779 13.4981 18.3034 13.5229 18.2661 13.5423C18.2275 13.5616 18.1682 13.5836 18.135 13.5933C18.1005 13.603 18.0384 13.6306 17.997 13.6568C17.9543 13.683 17.9156 13.7037 17.9087 13.7037C17.9032 13.7037 17.866 13.7244 17.8273 13.7492C17.7569 13.7948 17.739 13.8058 17.5748 13.9162C17.4879 13.9742 12.3671 19.0797 12.3671 19.1073C12.3671 19.1156 12.3464 19.1598 12.323 19.2039C12.2788 19.2812 12.2774 19.2922 12.2774 19.4371C12.2774 19.5875 12.2774 19.5903 12.3354 19.7062C12.3906 19.8207 12.4044 19.8359 12.9011 20.3285C13.1799 20.6059 13.4586 20.8722 13.5193 20.9177C13.58 20.9647 13.649 21.0185 13.6725 21.0378C13.6973 21.0571 13.7373 21.0806 13.7622 21.0916C13.7884 21.1026 13.8325 21.1302 13.8615 21.1523C13.8905 21.1758 13.9319 21.1992 13.9554 21.2034C13.9774 21.2089 14.0313 21.2337 14.074 21.26C14.1168 21.2862 14.1596 21.3069 14.1679 21.3069C14.1775 21.3069 14.2244 21.3276 14.2727 21.3538C14.321 21.3786 14.3997 21.4062 14.4466 21.4159C14.4949 21.4255 14.5666 21.4476 14.608 21.4669C14.7088 21.5125 14.8716 21.529 15.2869 21.5373C15.6719 21.5442 15.9714 21.5208 16.0942 21.4725C16.1356 21.4573 16.2198 21.4324 16.2832 21.4173C16.3453 21.4021 16.4309 21.3717 16.4737 21.3483C16.5164 21.3262 16.562 21.3069 16.5744 21.3069C16.5868 21.3069 16.631 21.2848 16.6724 21.2586C16.7138 21.2324 16.7538 21.2103 16.762 21.2103C16.7703 21.2103 16.82 21.1827 16.8711 21.1482C16.9235 21.1137 16.9718 21.0861 16.9801 21.0861C16.987 21.0861 17.0159 21.0654 17.0449 21.0406C17.0725 21.0171 17.1291 20.9716 17.1705 20.9412C17.2119 20.9108 17.67 20.4624 18.1902 19.9449C18.7104 19.4275 19.152 18.9969 19.1741 18.99C19.1989 18.9804 19.2238 18.9804 19.25 18.99C19.2928 19.0066 24.2948 23.999 24.3252 24.057C24.3376 24.0804 24.3431 24.1122 24.3376 24.1343C24.328 24.1784 23.3165 25.1926 23.2061 25.2685C23.0654 25.3665 22.9315 25.43 22.8129 25.4548C22.5714 25.5059 22.156 25.4769 22.0387 25.3996C22.0111 25.3803 21.9656 25.3555 21.9366 25.3444C21.909 25.332 21.8607 25.303 21.829 25.2796C21.7973 25.2547 21.1128 24.58 20.3084 23.7782C19.5039 22.9765 18.8112 22.2962 18.7698 22.2673C18.7229 22.2342 18.6484 22.1997 18.5697 22.1762C18.4014 22.1238 18.3268 22.1169 18.2551 22.1431C18.2233 22.1541 18.164 22.1734 18.1226 22.1845C18.066 22.201 18.0233 22.2273 17.9529 22.2893C17.8508 22.3804 17.8204 22.4342 17.7556 22.6288C17.7128 22.7599 17.7142 22.7792 17.7928 22.9931L17.837 23.1131L19.6971 24.9732L21.5572 26.8333V26.8899C21.5572 26.9465 21.553 26.9506 21.0093 27.4929C20.7071 27.7937 20.4256 28.0628 20.3843 28.0918C20.2352 28.1966 20.0959 28.2615 19.9717 28.2863C19.7343 28.3319 19.3383 28.3043 19.2417 28.2353C19.2196 28.2201 19.1755 28.198 19.141 28.1842C18.9878 28.1235 18.8802 28.0214 16.9897 26.1296C15.9617 25.1002 15.0813 24.2226 15.033 24.1812C14.8909 24.0542 14.6398 23.9838 14.4783 24.0239C14.3652 24.0528 14.2617 24.0998 14.2093 24.1453C14.0423 24.2929 13.9816 24.4268 13.9816 24.6407C13.9816 24.8145 14.0285 24.9387 14.1513 25.0836C14.201 25.143 15.2483 26.1972 16.4778 27.4253C18.1847 29.1308 18.7146 29.6676 18.7146 29.6924C18.7146 29.7449 18.6801 29.7987 18.6083 29.858C18.538 29.916 18.4165 29.9988 18.3227 30.054C18.2923 30.0719 18.244 30.1009 18.2178 30.1188C18.1916 30.1368 18.1433 30.1602 18.1102 30.1713C18.0771 30.1837 18.0343 30.2058 18.015 30.2209C17.9957 30.2361 17.9363 30.261 17.8839 30.2761C17.8315 30.2927 17.7694 30.3175 17.7445 30.3313C17.7197 30.3451 17.6535 30.3644 17.5969 30.3727C17.5403 30.381 17.4506 30.4031 17.3968 30.421C17.2629 30.4679 17.1112 30.4831 16.7896 30.4831C16.4971 30.4831 16.2777 30.4597 16.1825 30.4196C16.1521 30.4072 16.0776 30.3879 16.0169 30.3782C15.9562 30.3672 15.8775 30.3437 15.8417 30.3244C15.8058 30.3051 15.7465 30.283 15.7106 30.2761C15.6747 30.2679 15.6223 30.2458 15.596 30.2278C15.5698 30.2099 15.5215 30.1851 15.4884 30.174C15.4553 30.1616 15.4084 30.1381 15.3849 30.1216C15.3601 30.1036 15.3132 30.076 15.2787 30.0595C15.1986 30.0195 15.0675 29.9256 14.9199 29.8028C14.7502 29.6621 8.41925 23.3339 8.3268 23.2125C8.28402 23.1559 8.22607 23.0828 8.19985 23.0483C8.13637 22.9683 8.0729 22.8648 8.02184 22.7626C7.99839 22.7171 7.96803 22.6578 7.95285 22.6316C7.89627 22.535 7.82728 22.3583 7.80658 22.2604C7.79554 22.2066 7.77622 22.1431 7.7638 22.1196C7.71827 22.0313 7.70171 21.8961 7.69343 21.5621C7.68377 21.1882 7.70033 20.9978 7.75139 20.8446C7.76932 20.7908 7.79416 20.708 7.8052 20.6583C7.81624 20.6086 7.84384 20.5286 7.8673 20.4789C7.89075 20.4293 7.91007 20.3823 7.91007 20.3741C7.91007 20.3672 7.92939 20.3299 7.95285 20.2927C7.97631 20.254 8.00391 20.2016 8.01494 20.1726C8.0315 20.1243 8.08394 20.0388 8.16949 19.9201C8.19157 19.8897 8.22055 19.8428 8.23435 19.8166C8.24677 19.789 10.2159 17.8075 12.6969 15.3251C15.1379 12.8813 17.1788 10.8294 17.234 10.7645C17.2892 10.6997 17.3651 10.6072 17.4037 10.5576C17.441 10.5079 17.5003 10.4334 17.5334 10.392C17.6742 10.2153 17.9267 9.82484 17.9846 9.69651C17.9984 9.66477 18.0219 9.62199 18.0371 9.60268C18.0522 9.58474 18.0798 9.5323 18.1005 9.48814C18.1199 9.44261 18.1447 9.39707 18.1544 9.38465C18.1654 9.37361 18.1833 9.32946 18.1957 9.28668C18.2068 9.2439 18.2289 9.19423 18.2427 9.17629C18.2578 9.15835 18.2799 9.10591 18.2937 9.06038C18.3061 9.01484 18.3337 8.93757 18.3558 8.88789C18.3765 8.83822 18.3986 8.7706 18.4041 8.73749C18.4096 8.70299 18.4317 8.63813 18.4524 8.5926C18.4745 8.54568 18.4979 8.46151 18.5062 8.40355C18.5145 8.3456 18.538 8.25039 18.56 8.18967C18.589 8.11378 18.6042 8.04064 18.6111 7.94957C18.6166 7.87782 18.6332 7.75639 18.647 7.68049C18.6608 7.6046 18.6732 7.51629 18.6732 7.48455C18.6732 7.45281 18.6801 7.41003 18.6884 7.38796C18.7091 7.33414 18.7091 6.27301 18.6884 6.22057C18.6801 6.19849 18.6732 6.15572 18.6732 6.12536C18.6732 6.09362 18.6608 5.99979 18.647 5.91562C18.6318 5.83144 18.6139 5.6907 18.6056 5.60376C18.5973 5.50165 18.5794 5.40506 18.5559 5.33469C18.5366 5.27397 18.5131 5.17186 18.5062 5.107C18.4993 5.03939 18.4759 4.94418 18.4524 4.88346C18.429 4.82413 18.4055 4.73306 18.3972 4.67924C18.3889 4.62542 18.3669 4.54953 18.3475 4.51089C18.3282 4.47226 18.3061 4.39912 18.2979 4.34945C18.2896 4.29977 18.2661 4.2225 18.244 4.17972C18.222 4.13556 18.1944 4.05829 18.182 4.00723C18.1709 3.95618 18.1488 3.8996 18.135 3.87891C18.1212 3.85959 18.0992 3.80301 18.0867 3.75472C18.0743 3.70504 18.0495 3.64294 18.0315 3.61535C18.0136 3.58775 17.9915 3.53807 17.9832 3.50496C17.975 3.47184 17.9501 3.40698 17.9294 3.36145C17.9074 3.31591 17.8687 3.23174 17.8425 3.17516C17.7542 2.98474 17.6493 2.7681 17.6286 2.7336C17.6176 2.71428 17.5941 2.66461 17.5748 2.62321C17.5569 2.58181 17.5348 2.53628 17.5279 2.52248C17.5196 2.50868 17.4961 2.4659 17.4741 2.42589C17.4534 2.38587 17.4189 2.32929 17.3982 2.30032C17.3789 2.27134 17.3623 2.2396 17.3623 2.22994C17.3623 2.22028 17.3402 2.18027 17.3126 2.14025C17.285 2.10023 17.2574 2.04918 17.2491 2.02434C17.2409 2.00088 17.216 1.95672 17.194 1.92637C17.1719 1.89601 17.125 1.82149 17.0891 1.7594C17.0532 1.69869 17.0063 1.62555 16.9856 1.59795C16.9649 1.57174 16.9428 1.5331 16.9345 1.51378C16.9276 1.49446 16.8862 1.42823 16.8421 1.36613C16.7979 1.30542 16.7469 1.2309 16.7275 1.20193C16.6448 1.0736 16.602 1.0115 16.562 0.960446C16.5385 0.930088 16.4695 0.836256 16.4074 0.753463C16.2184 0.498184 16.1452 0.42367 16.0114 0.350536L15.8927 0.285681L15.734 0.282922C15.6471 0.281542 15.5602 0.282922 15.5422 0.287061Z" fill="#167C0C"/>
<path d="M7.86506 7.28039C7.86092 7.28453 7.74363 7.29419 7.60427 7.30247C7.39314 7.31351 7.32553 7.32317 7.20548 7.35629C7.12545 7.37837 7.01367 7.4032 6.95572 7.4101C6.89776 7.417 6.82049 7.43494 6.78323 7.4515C6.74598 7.46806 6.66456 7.49428 6.60109 7.50945C6.53761 7.52325 6.4631 7.54671 6.4355 7.56189C6.4079 7.57569 6.33753 7.60053 6.28095 7.61847C6.22438 7.63502 6.15263 7.66262 6.12227 7.68056C6.09191 7.6985 6.04499 7.71644 6.01878 7.72196C5.99256 7.72748 5.94288 7.74955 5.90839 7.77163C5.87389 7.79371 5.81869 7.81993 5.78696 7.83097C5.75522 7.84339 5.7083 7.86684 5.68346 7.88616C5.66001 7.9041 5.61585 7.92618 5.58825 7.93308C5.55927 7.94136 5.51788 7.96068 5.49442 7.97724C5.46958 7.99517 5.41577 8.02691 5.37299 8.04899C5.26812 8.10281 5.14255 8.1787 5.04596 8.24631C5.0018 8.27667 4.93971 8.31669 4.90659 8.33601C4.87347 8.35532 4.83069 8.38706 4.81138 8.405C4.79206 8.42294 4.75618 8.45054 4.72996 8.46572C4.68029 8.49607 4.56024 8.58301 4.46364 8.65752C4.43191 8.68098 4.38223 8.71961 4.35325 8.74307C4.32428 8.76515 4.27598 8.80517 4.24424 8.83277C4.21389 8.85898 4.13247 8.92798 4.06624 8.98455C3.99862 9.04113 3.8358 9.19292 3.70471 9.32124C3.38733 9.63448 3.3418 9.71175 3.3418 9.95047C3.3418 10.0967 3.3625 10.174 3.42873 10.2775C3.50048 10.3865 3.55982 10.4472 3.69367 10.5411C3.74748 10.5797 3.8151 10.6294 3.84546 10.6542C3.92135 10.7136 4.0828 10.8198 4.09797 10.8198C4.10487 10.8198 4.13385 10.8405 4.16421 10.8667C4.19319 10.8916 4.2332 10.9178 4.25252 10.9233C4.27184 10.9288 4.31462 10.955 4.34773 10.9799C4.38085 11.0061 4.41535 11.0268 4.42363 11.0268C4.43191 11.0268 4.4664 11.0461 4.5009 11.0696C4.5354 11.0916 4.59059 11.1261 4.62509 11.1455C4.83897 11.2669 4.89003 11.2931 4.97006 11.3317C5.01974 11.3552 5.07493 11.3856 5.09425 11.3994C5.11357 11.4118 5.15083 11.4297 5.17843 11.4394C5.20602 11.4476 5.2557 11.4725 5.2902 11.4946C5.32331 11.5153 5.37575 11.5415 5.40611 11.5511C5.43508 11.5608 5.47924 11.5829 5.50132 11.5994C5.52478 11.616 5.57859 11.6408 5.62413 11.6533C5.66829 11.6671 5.729 11.6919 5.7566 11.7098C5.78558 11.7291 5.83939 11.7512 5.87665 11.7595C5.91253 11.7678 5.97048 11.7926 6.00498 11.8147C6.03947 11.8354 6.09467 11.8575 6.12917 11.863C6.16366 11.8671 6.223 11.8906 6.26164 11.9113C6.30165 11.9334 6.36927 11.9582 6.41342 11.9651C6.45896 11.9734 6.53209 11.9982 6.57763 12.0203C6.62317 12.0424 6.70458 12.0672 6.75702 12.0755C6.81083 12.0838 6.88672 12.1059 6.92674 12.1238C6.96814 12.1431 7.06059 12.168 7.13372 12.179C7.20824 12.1914 7.31173 12.2149 7.36417 12.2342C7.41798 12.2521 7.50077 12.2714 7.55045 12.2756C7.60013 12.2811 7.75881 12.3073 7.90232 12.3349L8.1645 12.386H8.85444C9.58992 12.386 9.54715 12.3887 9.84106 12.317C9.88384 12.3059 9.97215 12.2908 10.0384 12.2825C10.106 12.2742 10.1916 12.2549 10.2316 12.2383C10.2716 12.2231 10.3558 12.1983 10.4192 12.1845C10.4841 12.1693 10.56 12.1459 10.5876 12.1307C10.6166 12.1169 10.6787 12.0948 10.7269 12.0824C10.7752 12.07 10.8415 12.0424 10.876 12.0203C10.9105 11.9996 10.9574 11.9775 10.9808 11.972C11.0057 11.9679 11.054 11.9444 11.0899 11.9223C11.1257 11.9003 11.1837 11.8699 11.2196 11.8561C11.2541 11.8423 11.3079 11.8147 11.3369 11.7954C11.3658 11.7747 11.3976 11.7581 11.4059 11.7581C11.4141 11.7581 11.4472 11.7374 11.479 11.7126C11.5093 11.6891 11.5535 11.6574 11.5756 11.6436C11.6667 11.587 11.7743 11.5125 11.8488 11.4545C11.893 11.4201 11.9606 11.3676 12.0006 11.3373C12.2352 11.1593 12.6367 10.7536 12.7402 10.5921C12.7595 10.5618 12.7857 10.5286 12.7995 10.5176C12.812 10.5066 12.8465 10.4638 12.8727 10.4224C12.9596 10.2913 12.9872 10.1257 12.9541 9.92426C12.9361 9.80696 12.9265 9.78351 12.8672 9.69657C12.7913 9.5848 12.2255 9.00249 12.0075 8.81345C11.8046 8.63682 11.5273 8.42018 11.4197 8.35532C11.3948 8.34015 11.3589 8.31393 11.3424 8.29875C11.3244 8.28357 11.2858 8.25735 11.2541 8.24217C11.2237 8.227 11.1892 8.20354 11.1782 8.18974C11.1685 8.17732 11.1326 8.15524 11.0981 8.14006C11.065 8.12626 11.0209 8.10005 10.9988 8.08073C10.9767 8.06279 10.945 8.04347 10.9284 8.03795C10.9105 8.03243 10.8705 8.01035 10.8387 7.98827C10.8056 7.9662 10.7559 7.93998 10.7269 7.93032C10.6994 7.92066 10.6455 7.89168 10.6069 7.86822C10.5696 7.84477 10.5296 7.82545 10.5186 7.82545C10.5062 7.82545 10.4634 7.80475 10.4206 7.77853C10.3792 7.75369 10.3226 7.72748 10.2964 7.72196C10.2702 7.71644 10.2164 7.69436 10.1791 7.67228C10.1405 7.65158 10.0756 7.62674 10.0342 7.61709C9.99285 7.60881 9.92385 7.58397 9.88108 7.56327C9.83968 7.54119 9.76655 7.51773 9.71963 7.50807C9.67272 7.4998 9.60234 7.47772 9.56232 7.45978C9.52231 7.44184 9.4271 7.417 9.3512 7.40458C9.27531 7.39216 9.1663 7.37009 9.10972 7.35491C9.05315 7.33973 8.93448 7.32179 8.84754 7.31351C8.76061 7.30661 8.62952 7.29419 8.55777 7.28729C8.42116 7.27211 7.87748 7.26797 7.86506 7.28039ZM8.46255 8.52919C8.54121 8.53747 8.6585 8.55541 8.72335 8.57059C8.78821 8.58439 8.89722 8.6037 8.96483 8.61198C9.03659 8.62164 9.12076 8.64234 9.16492 8.66304C9.20631 8.68098 9.28359 8.70582 9.33602 8.71685C9.38846 8.72789 9.45055 8.74859 9.47401 8.76239C9.49747 8.77757 9.56094 8.80103 9.61476 8.81621C9.6672 8.83139 9.74585 8.86174 9.78725 8.8852C9.82864 8.90728 9.8797 8.93074 9.90178 8.93488C9.92385 8.9404 9.96801 8.96247 9.99837 8.98317C10.0301 9.00525 10.0784 9.02871 10.106 9.03837C10.1336 9.04803 10.164 9.06459 10.175 9.07701C10.1847 9.08942 10.2205 9.1115 10.255 9.12668C10.2895 9.14186 10.342 9.17084 10.3723 9.19154C10.4027 9.21223 10.4468 9.24121 10.4703 9.25501C10.6069 9.3378 10.8511 9.51167 10.9781 9.61516C11.1782 9.77937 11.4169 9.99877 11.4335 10.0346C11.4541 10.0788 11.4197 10.1657 11.3645 10.2085C11.3369 10.2306 11.2651 10.2872 11.203 10.3368C11.1423 10.3865 11.0485 10.4583 10.9946 10.4983C10.9408 10.5383 10.8801 10.5825 10.8608 10.5976C10.8401 10.6142 10.7959 10.6377 10.7628 10.6528C10.7297 10.6666 10.6842 10.6929 10.6621 10.7122C10.6386 10.7315 10.6055 10.7522 10.5862 10.7577C10.5669 10.7632 10.5062 10.7922 10.451 10.8212C10.3944 10.8515 10.3364 10.875 10.3226 10.875C10.3075 10.875 10.2536 10.8971 10.204 10.9233C10.1543 10.9495 10.1005 10.9716 10.0867 10.9716C10.0715 10.9716 9.99423 10.9937 9.9142 11.0199C9.82312 11.0516 9.72239 11.0737 9.64236 11.082C9.57336 11.0889 9.48919 11.1041 9.45469 11.1165C9.3788 11.1441 9.06143 11.1717 8.84754 11.1703C8.49843 11.1662 8.30801 11.1482 8.15898 11.1013C8.12448 11.0903 8.05411 11.082 8.00029 11.082C7.90094 11.082 7.72294 11.0461 7.63186 11.0075C7.60427 10.9964 7.53251 10.9812 7.47318 10.973C7.40694 10.9647 7.32691 10.9426 7.27447 10.9192C7.2248 10.8971 7.15304 10.875 7.11579 10.8695C7.07715 10.864 6.99988 10.8391 6.9433 10.8129C6.88672 10.7881 6.81635 10.7632 6.78599 10.7577C6.75702 10.7536 6.7101 10.7342 6.6825 10.7163C6.6549 10.6984 6.59281 10.6722 6.54313 10.6597C6.49346 10.6473 6.4286 10.6225 6.39687 10.6045C6.36651 10.5866 6.31269 10.5631 6.27682 10.5521C6.24232 10.5424 6.1954 10.5204 6.17194 10.5038C6.14849 10.4872 6.09605 10.4624 6.05327 10.4472C6.0105 10.4321 5.95944 10.4086 5.93874 10.3948C5.91804 10.3796 5.87665 10.3603 5.84629 10.3506C5.81593 10.341 5.7566 10.3134 5.7152 10.2885C5.57721 10.2058 5.5165 10.1726 5.44198 10.1381C5.40197 10.1188 5.35229 10.0898 5.33297 10.0747C5.31227 10.0595 5.27088 10.0346 5.23914 10.0208C5.14945 9.98083 5.06665 9.89942 5.06665 9.8525C5.06665 9.80834 5.08183 9.79179 5.19084 9.70899C5.23086 9.67864 5.2833 9.63862 5.30675 9.6193C5.33021 9.59998 5.37437 9.56686 5.40473 9.54755C5.43508 9.52685 5.49442 9.48545 5.53582 9.45509C5.70278 9.33366 5.81455 9.25915 5.86285 9.23983C5.89183 9.22741 5.92632 9.20809 5.94012 9.1943C5.97048 9.1667 6.10985 9.08942 6.23956 9.02733C6.28785 9.00249 6.33753 8.97489 6.34995 8.96523C6.36099 8.95558 6.40376 8.93626 6.44516 8.92384C6.48518 8.91142 6.54037 8.8852 6.56935 8.86726C6.59695 8.84932 6.64111 8.83139 6.66732 8.82587C6.69354 8.82173 6.75564 8.79965 6.80531 8.77757C6.85499 8.75549 6.93916 8.72789 6.9916 8.71685C7.04541 8.70582 7.12269 8.68098 7.16408 8.66166C7.21514 8.6382 7.28413 8.62302 7.37106 8.61336C7.44282 8.60646 7.52975 8.58991 7.56425 8.57749C7.59875 8.56507 7.69396 8.54851 7.77813 8.54161C7.86092 8.53333 7.93268 8.52505 7.93544 8.52091C7.94648 8.50987 8.32319 8.51539 8.46255 8.52919Z" fill="#167C0C"/>
<path d="M22.7494 7.28871C22.6818 7.29561 22.5521 7.30664 22.4638 7.31492C22.3741 7.32182 22.2651 7.34114 22.2223 7.35632C22.1781 7.3715 22.0801 7.3922 22.0029 7.40462C21.9228 7.41566 21.8318 7.43911 21.7876 7.45981C21.7448 7.47913 21.6703 7.50259 21.622 7.50949C21.5737 7.51777 21.5047 7.54261 21.4661 7.5633C21.4288 7.584 21.3626 7.60884 21.3212 7.61712C21.2798 7.6254 21.2191 7.64886 21.1874 7.66817C21.1542 7.68749 21.099 7.71095 21.0659 7.72199C21.0314 7.73165 20.9735 7.75925 20.9376 7.78133C20.9017 7.8034 20.8576 7.82548 20.8382 7.82962C20.8189 7.83514 20.7693 7.85998 20.7279 7.88758C20.6865 7.91379 20.6451 7.93587 20.6368 7.93587C20.6285 7.93587 20.5885 7.95795 20.5499 7.98417C20.5112 8.01039 20.4753 8.03246 20.4684 8.03246C20.4615 8.03246 20.4312 8.0504 20.4008 8.07248C20.3705 8.09456 20.3208 8.12492 20.2904 8.1401C20.2601 8.15527 20.2283 8.17873 20.2173 8.19115C20.2063 8.20357 20.1745 8.22565 20.1442 8.24083C20.1152 8.25601 20.0338 8.3112 19.9648 8.36364C19.8461 8.45195 19.8061 8.48231 19.6405 8.61478C19.3162 8.87144 18.8774 9.31438 18.6415 9.62347C18.5752 9.71041 18.549 9.76146 18.5118 9.87185C18.4855 9.94913 18.4648 10.0374 18.4648 10.0678C18.4648 10.1258 18.498 10.2403 18.5476 10.3562C18.6291 10.5494 19.1368 11.0958 19.4942 11.3787C19.6419 11.4946 19.8199 11.6257 19.864 11.6491C19.8875 11.6629 19.9399 11.6947 19.9813 11.7223C20.0214 11.7499 20.06 11.772 20.0669 11.772C20.0752 11.772 20.1124 11.794 20.1524 11.8203C20.1911 11.8465 20.2283 11.8685 20.2352 11.8685C20.2421 11.8685 20.2725 11.8865 20.3042 11.9086C20.3373 11.9306 20.3912 11.9569 20.4243 11.9665C20.4588 11.9762 20.5181 12.001 20.5554 12.0217C20.594 12.0424 20.652 12.0673 20.6865 12.0755C20.7196 12.0852 20.7762 12.1059 20.8107 12.1238C20.8451 12.1404 20.91 12.1625 20.9555 12.1735C21.0011 12.1832 21.0825 12.208 21.1349 12.2287C21.1887 12.2494 21.2991 12.277 21.3805 12.2894C21.462 12.3018 21.5489 12.3198 21.5737 12.3308C21.5986 12.3405 21.6551 12.3556 21.7007 12.3639C21.7917 12.3805 22.3354 12.4122 22.5217 12.4108C22.7797 12.4108 23.3027 12.3777 23.3814 12.357C23.4904 12.3294 23.7457 12.2825 23.7926 12.2825C23.8133 12.2825 23.8809 12.2673 23.9444 12.248C24.0078 12.2287 24.1196 12.2011 24.1914 12.1873C24.2631 12.1721 24.3625 12.1445 24.4122 12.1252C24.4618 12.1059 24.5432 12.0811 24.5957 12.07C24.6467 12.0576 24.7185 12.0328 24.7544 12.0148C24.7902 11.9969 24.8551 11.9748 24.8979 11.9665C24.9406 11.9596 25.011 11.9334 25.0552 11.9099C25.098 11.8879 25.1476 11.8685 25.1642 11.8685C25.1807 11.8685 25.2304 11.8492 25.2746 11.8258C25.3187 11.8023 25.3864 11.7733 25.425 11.7623C25.4636 11.7513 25.523 11.725 25.5575 11.703C25.592 11.6823 25.6416 11.6602 25.6678 11.6547C25.6941 11.6491 25.7437 11.6271 25.7782 11.605C25.8127 11.5829 25.8666 11.5567 25.8969 11.547C25.9273 11.536 25.9742 11.5112 26.0032 11.4918C26.0321 11.4725 26.0791 11.4491 26.1067 11.4394C26.1343 11.4311 26.1729 11.4118 26.1922 11.3994C26.2115 11.3856 26.2667 11.3552 26.3164 11.3304C26.4709 11.2559 26.5427 11.2145 26.5938 11.1745C26.6214 11.1538 26.6503 11.1372 26.6572 11.1372C26.6655 11.1372 26.7055 11.1151 26.7455 11.0875C26.7869 11.0599 26.8477 11.0227 26.8821 11.0047C26.9484 10.9689 27.0505 10.9026 27.2313 10.7798C27.2602 10.7605 27.3072 10.7288 27.3375 10.7094C27.47 10.6253 27.5831 10.5411 27.7211 10.421C27.7915 10.3617 27.8205 10.3231 27.8729 10.221L27.9364 10.0954V9.95051C27.935 9.80562 27.935 9.80562 27.8729 9.68005C27.8053 9.54896 27.7943 9.53516 27.4755 9.23573C27.3375 9.10464 27.2409 9.01908 26.9994 8.81348C26.8684 8.70171 26.8063 8.65479 26.6007 8.50715C26.5496 8.46989 26.482 8.41883 26.4516 8.394C26.4213 8.37054 26.3909 8.34984 26.384 8.34984C26.3785 8.34984 26.3523 8.3319 26.3274 8.30982C26.3026 8.28912 26.2543 8.25601 26.2198 8.23945C26.1867 8.22289 26.1425 8.19805 26.1232 8.18563C26.1039 8.17183 26.0515 8.13734 26.0059 8.10698C25.9604 8.07524 25.9052 8.04488 25.8817 8.0366C25.8597 8.02833 25.8072 7.99935 25.7658 7.97175C25.7258 7.94415 25.6858 7.92207 25.6761 7.92207C25.6678 7.92207 25.6265 7.9 25.5851 7.87378C25.5437 7.84756 25.5009 7.82548 25.4885 7.82548C25.476 7.82548 25.436 7.80616 25.3974 7.78271C25.3601 7.75787 25.3008 7.73165 25.2663 7.72199C25.2318 7.71233 25.1752 7.68887 25.1421 7.66955C25.109 7.65024 25.0414 7.62402 24.9931 7.6116C24.9434 7.59918 24.8758 7.57434 24.8413 7.5564C24.8068 7.53985 24.7406 7.51777 24.695 7.50811C24.6495 7.49845 24.5777 7.47637 24.535 7.45843C24.4922 7.44049 24.3928 7.41704 24.3142 7.40462C24.2355 7.3922 24.1182 7.36736 24.0534 7.34804C23.9775 7.32734 23.8643 7.3094 23.7291 7.29975C23.4614 7.27905 22.9095 7.27353 22.7494 7.28871ZM23.4311 8.52922C23.4973 8.5375 23.5994 8.55406 23.6601 8.5651C23.7898 8.59132 23.8754 8.60512 23.9982 8.62306C24.0479 8.63134 24.1224 8.65203 24.1638 8.67135C24.2052 8.69067 24.2769 8.71275 24.3225 8.72241C24.368 8.73207 24.4329 8.75415 24.4687 8.7707C24.5032 8.78864 24.5653 8.8121 24.6067 8.82314C24.6467 8.83418 24.7047 8.85902 24.735 8.87834C24.764 8.89903 24.8123 8.92249 24.8413 8.92939C24.8993 8.94457 25.0828 9.03978 25.1504 9.08808C25.1739 9.10464 25.2125 9.12672 25.2373 9.13637C25.2622 9.14603 25.3049 9.17225 25.3325 9.19295C25.3601 9.21503 25.3891 9.23297 25.3974 9.23297C25.4112 9.23297 25.4691 9.26884 25.6113 9.36406C25.6513 9.39027 25.752 9.46341 25.89 9.56414C26.1715 9.76974 26.206 9.8001 26.206 9.8484C26.206 9.91049 26.1439 9.9781 26.0459 10.025C26.0032 10.0457 25.948 10.0761 25.9245 10.094C25.9011 10.112 25.8666 10.1313 25.8472 10.1368C25.8279 10.1423 25.792 10.1616 25.7672 10.1809C25.7424 10.1989 25.6899 10.2292 25.6499 10.2486C25.6113 10.2679 25.5561 10.2955 25.5299 10.3093C25.5036 10.3245 25.454 10.3493 25.4195 10.3645C25.385 10.3797 25.3353 10.4045 25.3091 10.4197C25.2318 10.4611 25.0317 10.5521 24.9613 10.577C24.9269 10.5908 24.8896 10.6087 24.8813 10.6198C24.873 10.6294 24.8344 10.646 24.7944 10.6542C24.7544 10.6639 24.6881 10.6887 24.6454 10.7108C24.6026 10.7315 24.5363 10.7577 24.5005 10.766C24.4632 10.7757 24.4039 10.7978 24.368 10.8157C24.3321 10.8336 24.2576 10.8571 24.2024 10.8681C24.1472 10.8806 24.0686 10.9054 24.0272 10.9247C23.9844 10.944 23.9057 10.9647 23.8505 10.973C23.7953 10.9799 23.7057 11.002 23.6505 11.0213C23.5953 11.0392 23.4904 11.0613 23.4186 11.0696C23.3469 11.0779 23.2075 11.1 23.1082 11.1179C22.9495 11.1455 22.8819 11.1496 22.5355 11.1524C22.2223 11.1538 22.1271 11.151 22.0663 11.1331C21.978 11.1096 21.8456 11.0862 21.7269 11.0751C21.68 11.071 21.5806 11.0461 21.5061 11.0199C21.4316 10.9937 21.3571 10.9716 21.3419 10.9716C21.3267 10.9716 21.2619 10.9468 21.197 10.9164C21.1322 10.8861 21.0728 10.8612 21.0645 10.8612C21.0439 10.8612 20.8258 10.7495 20.7748 10.7136C20.7527 10.6984 20.7044 10.6694 20.6658 10.6487C20.5609 10.5922 20.3898 10.4666 20.2187 10.3189C19.933 10.0733 19.9317 10.0706 20.0766 9.93533C20.3056 9.72007 20.5843 9.48687 20.7458 9.37509C20.7706 9.35854 20.8162 9.32542 20.8479 9.30196C20.921 9.24677 21.1818 9.08808 21.2729 9.04116C21.3115 9.02184 21.3612 8.99287 21.3833 8.97631C21.4068 8.95975 21.4592 8.93629 21.5006 8.92249C21.542 8.90869 21.5986 8.88385 21.6248 8.86592C21.651 8.84936 21.7007 8.82728 21.7352 8.819C21.7697 8.81072 21.8235 8.78864 21.8538 8.7707C21.8856 8.75139 21.9504 8.72793 21.9987 8.71689C22.047 8.70723 22.1243 8.68239 22.1698 8.66307C22.2195 8.64237 22.3023 8.62168 22.3768 8.6134C22.4458 8.6065 22.5286 8.58994 22.5603 8.5789C22.5935 8.56648 22.6901 8.54992 22.7742 8.54302C22.8584 8.53474 22.9302 8.52508 22.9343 8.52232C22.9467 8.50991 23.3138 8.51543 23.4311 8.52922Z" fill="#167C0C"/>
<path d="M52 9.04V11.3H46.18V14.88H50.64V17.1H46.18V23H43.38V9.04H52ZM53.0655 17.42C53.0655 16.3 53.2855 15.3067 53.7255 14.44C54.1788 13.5733 54.7855 12.9067 55.5455 12.44C56.3188 11.9733 57.1788 11.74 58.1255 11.74C58.9521 11.74 59.6721 11.9067 60.2855 12.24C60.9121 12.5733 61.4121 12.9933 61.7855 13.5V11.92H64.6055V23H61.7855V21.38C61.4255 21.9 60.9255 22.3333 60.2855 22.68C59.6588 23.0133 58.9321 23.18 58.1055 23.18C57.1721 23.18 56.3188 22.94 55.5455 22.46C54.7855 21.98 54.1788 21.3067 53.7255 20.44C53.2855 19.56 53.0655 18.5533 53.0655 17.42ZM61.7855 17.46C61.7855 16.78 61.6521 16.2 61.3855 15.72C61.1188 15.2267 60.7588 14.8533 60.3055 14.6C59.8521 14.3333 59.3655 14.2 58.8455 14.2C58.3255 14.2 57.8455 14.3267 57.4055 14.58C56.9655 14.8333 56.6055 15.2067 56.3255 15.7C56.0588 16.18 55.9255 16.7533 55.9255 17.42C55.9255 18.0867 56.0588 18.6733 56.3255 19.18C56.6055 19.6733 56.9655 20.0533 57.4055 20.32C57.8588 20.5867 58.3388 20.72 58.8455 20.72C59.3655 20.72 59.8521 20.5933 60.3055 20.34C60.7588 20.0733 61.1188 19.7 61.3855 19.22C61.6521 18.7267 61.7855 18.14 61.7855 17.46ZM69.9402 13.64C70.3002 13.0533 70.7668 12.5933 71.3402 12.26C71.9268 11.9267 72.5935 11.76 73.3402 11.76V14.7H72.6002C71.7202 14.7 71.0535 14.9067 70.6002 15.32C70.1602 15.7333 69.9402 16.4533 69.9402 17.48V23H67.1402V11.92H69.9402V13.64ZM88.7861 11.76C90.1461 11.76 91.2394 12.18 92.0661 13.02C92.9061 13.8467 93.3261 15.0067 93.3261 16.5V23H90.5261V16.88C90.5261 16.0133 90.3061 15.3533 89.8661 14.9C89.4261 14.4333 88.8261 14.2 88.0661 14.2C87.3061 14.2 86.6994 14.4333 86.2461 14.9C85.8061 15.3533 85.5861 16.0133 85.5861 16.88V23H82.7861V16.88C82.7861 16.0133 82.5661 15.3533 82.1261 14.9C81.6861 14.4333 81.0861 14.2 80.3261 14.2C79.5528 14.2 78.9394 14.4333 78.4861 14.9C78.0461 15.3533 77.8261 16.0133 77.8261 16.88V23H75.0261V11.92H77.8261V13.26C78.1861 12.7933 78.6461 12.4267 79.2061 12.16C79.7794 11.8933 80.4061 11.76 81.0861 11.76C81.9528 11.76 82.7261 11.9467 83.4061 12.32C84.0861 12.68 84.6128 13.2 84.9861 13.88C85.3461 13.24 85.8661 12.7267 86.5461 12.34C87.2394 11.9533 87.9861 11.76 88.7861 11.76Z" fill="#167C0C"/>
<path d="M98.5831 11.3V14.8H103.283V17.02H98.5831V20.72H103.883V23H95.7831V9.02H103.883V11.3H98.5831ZM105.508 17.42C105.508 16.3 105.728 15.3067 106.168 14.44C106.621 13.5733 107.228 12.9067 107.988 12.44C108.761 11.9733 109.621 11.74 110.568 11.74C111.394 11.74 112.114 11.9067 112.728 12.24C113.354 12.5733 113.854 12.9933 114.228 13.5V11.92H117.048V23H114.228V21.38C113.868 21.9 113.368 22.3333 112.728 22.68C112.101 23.0133 111.374 23.18 110.548 23.18C109.614 23.18 108.761 22.94 107.988 22.46C107.228 21.98 106.621 21.3067 106.168 20.44C105.728 19.56 105.508 18.5533 105.508 17.42ZM114.228 17.46C114.228 16.78 114.094 16.2 113.828 15.72C113.561 15.2267 113.201 14.8533 112.748 14.6C112.294 14.3333 111.808 14.2 111.288 14.2C110.768 14.2 110.288 14.3267 109.848 14.58C109.408 14.8333 109.048 15.2067 108.768 15.7C108.501 16.18 108.368 16.7533 108.368 17.42C108.368 18.0867 108.501 18.6733 108.768 19.18C109.048 19.6733 109.408 20.0533 109.848 20.32C110.301 20.5867 110.781 20.72 111.288 20.72C111.808 20.72 112.294 20.5933 112.748 20.34C113.201 20.0733 113.561 19.7 113.828 19.22C114.094 18.7267 114.228 18.14 114.228 17.46ZM123.822 23.18C122.916 23.18 122.102 23.02 121.382 22.7C120.662 22.3667 120.089 21.92 119.662 21.36C119.249 20.8 119.022 20.18 118.982 19.5H121.802C121.856 19.9267 122.062 20.28 122.422 20.56C122.796 20.84 123.256 20.98 123.802 20.98C124.336 20.98 124.749 20.8733 125.042 20.66C125.349 20.4467 125.502 20.1733 125.502 19.84C125.502 19.48 125.316 19.2133 124.942 19.04C124.582 18.8533 124.002 18.6533 123.202 18.44C122.376 18.24 121.696 18.0333 121.162 17.82C120.642 17.6067 120.189 17.28 119.802 16.84C119.429 16.4 119.242 15.8067 119.242 15.06C119.242 14.4467 119.416 13.8867 119.762 13.38C120.122 12.8733 120.629 12.4733 121.282 12.18C121.949 11.8867 122.729 11.74 123.622 11.74C124.942 11.74 125.996 12.0733 126.782 12.74C127.569 13.3933 128.002 14.28 128.082 15.4H125.402C125.362 14.96 125.176 14.6133 124.842 14.36C124.522 14.0933 124.089 13.96 123.542 13.96C123.036 13.96 122.642 14.0533 122.362 14.24C122.096 14.4267 121.962 14.6867 121.962 15.02C121.962 15.3933 122.149 15.68 122.522 15.88C122.896 16.0667 123.476 16.26 124.262 16.46C125.062 16.66 125.722 16.8667 126.242 17.08C126.762 17.2933 127.209 17.6267 127.582 18.08C127.969 18.52 128.169 19.1067 128.182 19.84C128.182 20.48 128.002 21.0533 127.642 21.56C127.296 22.0667 126.789 22.4667 126.122 22.76C125.469 23.04 124.702 23.18 123.822 23.18ZM140.881 11.92L134.021 28.24H131.041L133.441 22.72L129.001 11.92H132.141L135.001 19.66L137.901 11.92H140.881Z" fill="#044D3A"/>
</svg>
