<svg width="322" height="181" viewBox="0 0 322 181" fill="none" xmlns="http://www.w3.org/2000/svg">
<path d="M200.061 175.537C220.898 175.537 237.79 172.349 237.79 168.416C237.79 164.482 220.898 161.294 200.061 161.294C179.224 161.294 162.332 164.482 162.332 168.416C162.332 172.349 179.224 175.537 200.061 175.537Z" fill="#F0E1D3"/>
<path d="M215.88 161.946C211.042 161.511 205.714 161.294 200.06 161.294C195.004 161.294 190.166 161.457 185.762 161.838L183.859 171.08H213.705L215.88 161.946Z" fill="url(#paint0_linear_1720_8791)"/>
<path d="M172.77 167.219C172.77 166.458 172.553 165.751 172.172 165.153C169.726 165.697 167.877 166.295 168.203 169.339C168.638 169.339 170.161 169.339 172.118 169.339C172.498 168.741 172.77 167.98 172.77 167.219Z" fill="#F0E1D3"/>
<path d="M180.925 156.89C181.088 159.88 178.153 163.196 175.761 164.174C174.456 164.664 173.151 164.936 171.955 165.207V169.339C174.999 169.339 179.186 169.339 181.904 169.339C182.665 169.339 184.296 169.339 184.296 169.339L187.34 156.944L180.925 156.89Z" fill="#E69632"/>
<path d="M168.203 171.024H183.86L184.458 168.415H168.203V171.024Z" fill="#32285F"/>
<path d="M222.677 167.165V167.872H231.103C231.103 166.893 230.723 165.861 230.56 165.208C229.799 162.816 228.711 157.271 228.711 157.271C228.385 155.423 228.331 153.52 228.494 151.671C228.603 150.149 228.711 148.627 228.874 147.159H223.112C223.655 151.182 223.384 154.335 223.655 156.184C223.764 157.434 222.459 164.393 222.677 167.165Z" fill="#E69632"/>
<path d="M222.623 168.035V167.22C223.167 165.589 224.852 164.393 226.809 164.393C228.712 164.393 230.343 165.534 230.941 167.111C231.104 168.144 231.05 169.231 230.18 169.666L225.939 170.264L222.623 168.035Z" fill="#F0E1D3"/>
<path d="M222.623 168.035C225.396 168.688 228.277 168.688 231.05 168.035V170.536C228.277 171.134 225.396 171.134 222.623 170.536V168.035Z" fill="#32285F"/>
<path d="M235.996 86.978C234.745 72.4627 203.867 75.0178 199.572 88.9351C197.017 97.1441 190.439 115.465 189.949 124.381C186.742 131.448 181.849 146.126 180.762 152.596L189.079 153.9C194.951 143.191 213.435 107.31 217.566 96.383C219.197 108.017 222.024 124.816 221.916 127.806C221.589 135.96 222.568 149.497 222.84 154.879H230.125C230.614 149.986 232.136 142.375 232.353 131.937C232.462 127.099 232.951 122.26 233.984 117.531C235.833 108.669 236.757 95.785 235.996 86.978Z" fill="#1C9585"/>
<path d="M187.666 158.63L179.838 157.76C179.24 157.706 178.805 157.108 178.968 156.51L180.001 152.106C180.11 151.563 180.708 151.236 181.251 151.345L188.862 153.085C189.406 153.193 189.787 153.737 189.624 154.335L188.808 157.869C188.645 158.304 188.156 158.684 187.666 158.63Z" fill="#177D74"/>
<path d="M230.017 155.314H222.297C221.753 155.314 221.373 154.879 221.427 154.336L221.808 150.802C221.862 150.313 222.297 149.932 222.786 149.987L230.125 150.639C230.615 150.693 230.941 151.074 230.941 151.509V154.39C230.886 154.934 230.506 155.314 230.017 155.314Z" fill="#177D74"/>
<path d="M203.432 122.75C203.432 122.695 203.486 122.641 203.486 122.587C203.486 122.424 203.377 122.206 203.16 122.206L198.213 121.119C201.638 117.259 206.096 110.518 212.021 99.2643L211.315 98.8838C199.3 121.717 193.537 125.196 191.2 125.196H191.145C190.547 125.196 190.112 124.924 189.895 124.707C189.786 124.924 189.678 125.196 189.569 125.468C189.949 125.74 190.439 126.012 191.091 126.012C191.145 126.012 191.145 126.012 191.2 126.012C192.613 126.012 194.679 125.033 197.615 121.826L200.713 122.478L197.995 122.804L198.104 123.565L202.453 123.076C198.376 132.155 193.429 142.701 187.34 153.139L187.992 153.52C194.19 142.81 199.3 131.937 203.432 122.75Z" fill="#177D74"/>
<path d="M226.863 126.392C226.645 126.392 226.482 126.338 226.265 126.283C223.547 125.577 221.644 120.901 220.502 112.475C219.687 106.277 219.578 100.243 219.578 100.189H220.339C220.448 106.821 221.698 124.272 226.482 125.577C226.972 125.685 227.407 125.631 227.842 125.305C232.408 122.043 233.822 99.2643 233.876 99.0469L234.637 99.1012C234.583 100.08 233.115 122.478 228.276 125.957C227.842 126.229 227.352 126.392 226.863 126.392Z" fill="#177D74"/>
<path d="M223.003 150.04L222.242 150.91L223.221 123.13L223.982 123.184L223.003 150.04Z" fill="#177D74"/>
<path d="M209.739 33.7549L208.162 34.4616L211.478 33.7549H209.739Z" fill="#E69632"/>
<path d="M257.034 33.9181C256.979 33.9181 256.925 33.9181 256.762 33.9181C256.055 32.9939 255.403 32.5589 254.859 32.3959C254.207 32.1784 251.217 32.6677 250.564 33.5375C241.377 32.9395 224.035 31.7979 224.035 31.7979C227.025 53.5436 217.728 44.4104 215.771 32.8851L202.887 35.6034C202.289 35.8208 201.636 36.0383 200.93 36.3645C194.515 39.5176 188.589 51.5321 185.925 59.3606C185.925 59.3606 184.784 59.578 184.457 60.8284C184.349 61.1546 184.403 61.4808 184.512 61.807C184.784 62.6224 184.349 63.5466 183.588 63.8728C182.99 64.1446 182.5 64.5795 182.609 65.0688C182.826 66.3736 185.762 69.0374 185.762 69.0374C188.752 73.006 195.113 67.6239 197.07 66.591C198.048 66.1017 199.081 63.003 199.734 62.1331C200.223 61.5351 201.582 58.1645 201.582 58.1645C201.038 63.601 201.636 63.3835 202.561 72.5167C203.104 77.5726 195.221 87.032 197.614 90.2939C199.897 93.3926 215.282 92.1966 224.415 92.1966C228.112 92.1966 231.374 91.9248 233.82 91.4899C236.375 91.055 238.278 88.8804 238.278 88.8804C238.387 80.617 238.387 58.9256 236.484 47.9441C240.616 47.4004 247.031 46.5306 251.706 45.8238C252.413 46.15 253.174 46.4762 253.446 46.5306C253.772 46.6393 254.479 45.3889 254.696 45.3346C255.566 45.7695 256.871 46.4218 257.414 46.5306C257.958 46.6393 258.882 45.2258 259.426 44.3016C261.763 43.3231 263.068 41.6922 263.068 39.3545C263.123 36.3645 260.894 33.9181 257.034 33.9181Z" fill="#59BBF8"/>
<path d="M208.977 50.3363L205.606 41.3662V47.5094L202.453 46.3677C203.16 49.3034 202.671 52.4565 201.094 55.0117L197.887 60.285L208.977 50.3363Z" fill="#2896FF"/>
<path d="M189.623 58.3273C189.623 58.3273 197.234 58.1098 198.484 61.5891L200.55 55.8809C200.55 55.8809 199.028 57.4574 196.527 57.6205C194.027 57.838 191.526 57.3487 189.623 58.3273Z" fill="#2896FF"/>
<path d="M228.276 41.0398C229.635 47.6722 227.678 53.6523 223.872 54.4678C220.067 55.2289 215.935 50.4992 214.576 43.8667C213.217 37.2343 215.174 31.2542 218.979 30.4388C222.731 29.6777 226.917 34.4074 228.276 41.0398Z" fill="#FC8867"/>
<path d="M223.982 25.709H215.719V37.8322H223.982V25.709Z" fill="#FC8867"/>
<path d="M214.087 12.6611L213.217 22.0118C213.217 26.4153 216.75 29.949 220.067 29.949C223.383 29.949 226.917 26.3609 226.917 22.0118L226.047 12.6611H214.087Z" fill="#FC8867"/>
<path d="M214.087 12.6611L213.217 22.0118C213.217 26.4153 216.75 29.949 220.067 29.949C223.383 29.949 226.917 26.3609 226.917 22.0118L226.047 12.6611H214.087Z" fill="#FC8867"/>
<path d="M226.754 19.946C226.754 19.946 228.711 16.9016 229.744 18.8043C230.777 20.7071 227.732 25.2193 226.863 23.3166L226.754 19.946Z" fill="#FC8867"/>
<path d="M213.653 17.4449C213.653 17.4449 212.511 16.0858 211.859 17.4449C211.207 18.804 212.511 22.6095 213.218 22.0658L213.653 17.4449Z" fill="#FC8867"/>
<path d="M227.515 10.5953L229.69 9.01871L229.364 8.52944L227.515 9.83418C228.494 8.42071 229.092 6.62668 229.146 6.51795L228.602 6.35486C228.602 6.40923 227.841 8.5838 226.7 9.9429C226.917 8.52943 227.189 6.78978 227.243 5.15885C227.406 1.46207 214.142 6.73541 211.043 9.39926C207.944 12.0087 213.652 17.3908 213.652 17.3908L214.903 12.6611C217.132 18.6956 224.308 14.2377 225.83 13.2591L226.754 20.0003C226.754 20.0003 230.288 14.8901 230.396 12.7155C230.451 11.4651 228.874 10.8671 227.515 10.5953Z" fill="#32285F"/>
<path d="M198.593 90.0217C198.104 88.9888 199.028 86.8686 200.768 82.8456C202.181 79.6381 203.921 75.6695 204.845 71.8097C206.748 64.1443 202.725 47.0195 202.671 46.8565L203.432 46.6934C203.595 47.4001 207.563 64.1443 205.606 72.0271C204.628 75.9414 202.888 79.9643 201.475 83.1718C200.17 86.1619 198.974 88.9888 199.3 89.6955L198.593 90.0217Z" fill="#2896FF"/>
<path d="M227.733 72.625C226.754 72.4076 218.002 70.4505 216.643 68.0584C216.425 67.6779 216.425 67.2973 216.534 66.9712C216.969 65.7208 219.687 64.7966 224.145 63.3831C228.548 61.9696 233.985 60.23 233.822 58.3272C233.822 58.2185 233.767 58.0554 233.55 57.8923C230.94 55.9352 215.827 58.4903 210.228 59.6863L210.064 58.9252C210.88 58.7621 230.614 54.7392 234.039 57.2943C234.42 57.5661 234.637 57.8923 234.637 58.3272C234.855 60.8824 229.527 62.5676 224.417 64.1986C221.264 65.2315 217.621 66.3731 217.295 67.2973C217.241 67.4061 217.241 67.5148 217.349 67.7866C218.328 69.5263 225.286 71.3747 227.896 71.9727L227.733 72.625Z" fill="#2896FF"/>
<path d="M202.996 86.3797C202.017 86.3797 201.039 86.0535 200.006 85.3468L200.441 84.6944C201.854 85.6186 203.05 85.8361 204.246 85.3468C208.106 83.7159 209.683 74.9089 209.683 74.8545L210.444 74.9632C210.389 75.3438 208.759 84.2051 204.518 86.0535C204.083 86.271 203.54 86.3797 202.996 86.3797Z" fill="#2896FF"/>
<path d="M238.279 84.9119C237.735 84.8575 237.3 84.6401 236.811 84.3139C233.929 82.1393 233.658 74.9089 233.658 74.8545H232.896C232.896 75.1807 233.114 82.4655 236.321 84.9119C236.919 85.3468 237.517 85.5643 238.224 85.673C238.279 85.4555 238.279 85.1837 238.279 84.9119Z" fill="#2896FF"/>
<path d="M197.125 89.2606L197.506 95.4581C197.506 95.4581 206.204 93.0117 213.217 95.7299C223.329 99.6442 232.679 98.72 236.267 94.3165L238.279 88.9887C238.279 88.9887 230.015 93.1748 223.981 91.5982C208.107 87.3578 199.626 86.2705 197.125 89.2606Z" fill="#2896FF"/>
<path d="M277.095 7.93176C276.442 7.82303 275.899 8.25795 275.79 8.91032L275.681 10.1063L274.648 12.3353L275.681 8.52977L275.953 5.92029C276.007 5.64846 275.79 5.32228 275.518 5.32228C274.866 5.21355 274.322 5.64846 274.213 6.30083L273.996 8.14923L273.017 10.7043L273.507 8.36668L273.343 5.53974C273.343 5.26792 273.072 4.99609 272.8 4.99609C272.147 4.99609 271.658 5.53974 271.713 6.19211L271.821 8.09486L271.006 10.65L271.115 7.8774L270.571 5.86592C270.516 5.5941 270.245 5.37664 269.919 5.43101C269.266 5.53973 268.886 6.19211 269.049 6.79011L269.375 7.93176L268.994 10.8674L267.472 10.3782C267.418 10.052 266.82 8.85596 266.82 8.85596C265.787 8.20358 264.971 7.76867 264.536 7.82304C264.319 7.82304 264.482 9.50833 264.536 9.72579L265.352 11.1393C265.841 11.5198 266.439 12.2809 266.928 12.9333C267.418 13.64 267.526 14.5098 267.255 15.3253C267.037 15.9777 266.711 16.6301 266.385 17.065C263.177 21.3598 257.578 28.0466 254.86 33.3199C251.924 35.277 251.326 37.3429 251.652 39.1912C252.522 43.6491 258.013 45.4431 261.383 42.4531C262.416 41.5289 263.34 40.1698 264.102 38.2127C266.494 31.5802 268.451 25.7633 271.876 17.663L275.899 13.4226L277.203 10.5413L277.421 8.52977C277.584 8.25795 277.421 7.93176 277.095 7.93176Z" fill="#FC8867"/>
<path d="M270.68 13.6398C270.952 12.933 271.55 12.4437 272.202 12.7699L273.67 13.5854C273.67 13.5854 272.474 11.139 270.3 11.3565C270.028 11.4108 269.81 11.6283 269.865 11.9545C270.191 13.5854 269.756 15.7056 269.756 15.7056C269.756 15.7056 270.463 14.1834 270.68 13.6398Z" fill="#32285F"/>
<path d="M234.637 54.522L231.702 43.4316C227.896 46.5848 217.132 45.5519 208.162 43.7578L203.052 75.5066L197.941 123.13C217.295 125.467 237.682 128.512 241.759 121.281L238.117 93.0663C235.616 73.93 238.823 67.0258 234.637 54.522Z" fill="#FAC855"/>
<path d="M238.117 93.1207C236.54 81.1061 237.247 73.9301 236.921 67.1345C236.812 67.7325 236.649 68.3305 236.54 68.9829C235.942 73.6582 234.963 78.3336 234.257 83.0089C233.604 87.4668 232.898 91.979 231.702 96.2738C229.581 104.102 225.776 111.822 219.252 116.823C213.109 121.499 205.552 122.423 198.104 121.499L197.941 123.13C217.295 125.467 237.682 128.512 241.759 121.281L238.117 93.1207Z" fill="#E69632"/>
<path d="M211.423 62.1335C210.064 63.4926 207.564 63.1121 207.564 63.1121C207.564 63.1121 207.237 60.6113 208.542 59.2522C209.901 57.8931 212.402 58.2736 212.402 58.2736C212.402 58.2736 212.728 60.7744 211.423 62.1335Z" fill="#1C9585"/>
<path d="M208.216 59.7956C208.216 59.7412 208.216 59.6325 208.216 59.5781C207.237 60.9916 207.509 63.1118 207.509 63.1118C207.509 63.1118 210.01 63.438 211.369 62.1332C211.695 61.8071 211.967 61.3721 212.076 60.9372C212.185 60.611 211.804 60.3392 211.532 60.5023C210.88 60.9372 210.119 61.046 209.466 61.1003C208.76 61.1547 208.162 60.5567 208.216 59.7956Z" fill="#177D74"/>
<path d="M208.271 60.3392C208.271 60.3392 208.216 60.3936 208.162 60.448C208.107 60.5023 208.107 60.5567 208.053 60.6111C207.999 60.7198 207.944 60.8285 207.89 60.9372C207.781 61.1547 207.673 61.4265 207.618 61.6983C207.564 61.9702 207.509 62.242 207.564 62.5138C207.564 62.7856 207.618 63.0574 207.673 63.3293L207.346 63.438C207.183 63.1662 207.075 62.8943 206.966 62.5682C206.857 62.242 206.803 61.9158 206.803 61.5896C206.803 61.2634 206.803 60.9372 206.857 60.6111C206.911 60.448 206.911 60.2849 206.966 60.1218C206.966 60.013 207.02 59.9587 207.02 59.8499C207.075 59.7412 207.075 59.6869 207.129 59.5781L208.271 60.3392Z" fill="#A55A3C"/>
<path d="M211.314 61.862C210.553 61.5359 209.738 61.6446 208.977 62.0795C207.889 62.6775 206.639 62.5688 205.552 61.9708C204.899 61.6446 204.192 61.5359 203.54 61.699C201.855 62.2426 201.094 64.5803 201.8 66.9179C202.507 69.31 204.519 70.7778 206.204 70.2885C206.367 70.2341 206.53 70.1798 206.693 70.0711C207.074 69.8536 207.454 69.8536 207.835 70.0711C207.889 70.1254 207.944 70.1254 207.998 70.1254C209.629 70.7778 211.749 69.4731 212.673 67.1354C213.543 64.9064 212.945 62.5144 211.314 61.862Z" fill="#FC5954"/>
<path d="M212.891 63.9276C212.619 62.6772 210.879 62.5684 210.39 63.7645C209.466 66.0478 207.183 67.6787 204.573 67.6787C204.573 67.6787 204.573 67.6787 204.519 67.6787C203.323 67.6787 202.779 69.2009 203.758 69.9076C204.519 70.3969 205.334 70.6144 206.095 70.3425C206.258 70.2882 206.421 70.2338 206.584 70.1251C206.965 69.9076 207.346 69.9076 207.726 70.1251C207.781 70.1795 207.835 70.1795 207.889 70.1795C209.52 70.8318 211.64 69.5271 212.565 67.1894C213.054 66.1565 213.163 64.9061 212.891 63.9276Z" fill="#DC1428"/>
<path d="M208.269 60.3395C208.16 60.5026 207.834 60.5569 207.508 60.3938C207.182 60.2307 207.019 59.9589 207.127 59.7415C207.236 59.5784 207.562 59.524 207.888 59.6871C208.215 59.9046 208.378 60.1764 208.269 60.3395Z" fill="#783C28"/>
<path d="M211.967 33.3203L209.738 33.8096C211.26 35.4405 210.227 42.8884 209.031 47.6725L211.151 48.2161C211.586 46.259 213.761 37.2345 211.967 33.3203Z" fill="#FAC855"/>
<path d="M221.806 62.3506C220.447 63.7097 217.946 63.3291 217.946 63.3291C217.946 63.3291 217.62 60.8284 218.925 59.4692C220.284 58.1101 222.785 58.4907 222.785 58.4907C222.785 58.4907 223.165 60.9915 221.806 62.3506Z" fill="#1C9585"/>
<path d="M218.599 60.0126C218.599 59.9583 218.599 59.8495 218.599 59.7952C217.62 61.2086 217.892 63.3288 217.892 63.3288C217.892 63.3288 220.393 63.655 221.752 62.3503C222.078 62.0241 222.35 61.5892 222.459 61.1543C222.567 60.8281 222.187 60.5563 221.915 60.7194C221.263 61.1543 220.502 61.263 219.849 61.3174C219.197 61.3717 218.544 60.7737 218.599 60.0126Z" fill="#177D74"/>
<path d="M218.653 60.611C218.653 60.611 218.599 60.6653 218.545 60.7197C218.49 60.7741 218.49 60.8284 218.436 60.8828C218.382 60.9915 218.327 61.1002 218.273 61.209C218.164 61.4264 218.055 61.6982 218.001 61.9701C217.947 62.2419 217.892 62.5137 217.947 62.7855C217.947 63.0574 218.001 63.3292 218.055 63.601L217.729 63.7097C217.566 63.4379 217.457 63.1661 217.349 62.8399C217.24 62.5137 217.186 62.1875 217.186 61.8613C217.186 61.5351 217.186 61.209 217.24 60.8828C217.294 60.7197 217.294 60.5566 217.349 60.3935C217.349 60.2848 217.403 60.2304 217.403 60.1217C217.457 60.0129 217.457 59.9586 217.512 59.8499L218.653 60.611Z" fill="#A55A3C"/>
<path d="M221.697 62.0791C220.936 61.7529 220.12 61.8616 219.359 62.2965C218.272 62.8946 217.022 62.7858 215.934 62.1878C215.282 61.8616 214.575 61.7529 213.923 61.916C212.238 62.4596 211.477 64.7973 212.183 67.135C212.89 69.527 214.901 70.9948 216.587 70.5056C216.75 70.4512 216.913 70.3968 217.076 70.2881C217.457 70.0706 217.837 70.0706 218.218 70.2881C218.272 70.3425 218.326 70.3425 218.381 70.3425C220.012 70.9948 222.132 69.6901 223.056 67.3524C223.926 65.1235 223.328 62.7315 221.697 62.0791Z" fill="#FC5954"/>
<path d="M223.328 64.1446C223.056 62.8942 221.317 62.7855 220.828 63.9815C219.903 66.2648 217.62 67.8957 215.011 67.8957C215.011 67.8957 215.011 67.8957 214.956 67.8957C213.76 67.8957 213.217 69.4179 214.195 70.1247C214.956 70.6139 215.772 70.8314 216.533 70.5596C216.696 70.5052 216.859 70.4509 217.022 70.3421C217.403 70.1247 217.783 70.1247 218.164 70.3421C218.218 70.3965 218.272 70.3965 218.327 70.3965C219.958 71.0489 222.078 69.7441 223.002 67.4065C223.437 66.3735 223.546 65.1232 223.328 64.1446Z" fill="#DC1428"/>
<path d="M218.652 60.6105C218.543 60.7736 218.217 60.8279 217.891 60.6648C217.564 60.5017 217.401 60.2299 217.51 60.0125C217.619 59.8494 217.945 59.795 218.271 59.9581C218.597 60.1212 218.76 60.393 218.652 60.6105Z" fill="#783C28"/>
<path d="M232.843 62.3506C231.484 63.7097 228.984 63.3291 228.984 63.3291C228.984 63.3291 228.657 60.8284 229.962 59.4692C231.321 58.1101 233.822 58.4907 233.822 58.4907C233.822 58.4907 234.202 60.9915 232.843 62.3506Z" fill="#1C9585"/>
<path d="M229.636 60.0126C229.636 59.9583 229.636 59.8495 229.636 59.7952C228.657 61.2086 228.929 63.3288 228.929 63.3288C228.929 63.3288 231.43 63.655 232.789 62.3503C233.115 62.0241 233.387 61.5892 233.496 61.1543C233.605 60.8281 233.224 60.5563 232.952 60.7194C232.3 61.1543 231.539 61.263 230.886 61.3174C230.234 61.3717 229.582 60.7737 229.636 60.0126Z" fill="#177D74"/>
<path d="M229.743 60.611C229.743 60.611 229.689 60.6653 229.634 60.7197C229.58 60.7741 229.58 60.8284 229.526 60.8828C229.471 60.9915 229.417 61.1002 229.363 61.209C229.254 61.4264 229.145 61.6982 229.091 61.9701C229.036 62.2419 228.982 62.5137 229.037 62.7855C229.037 63.0574 229.091 63.3292 229.145 63.601L228.819 63.7097C228.656 63.4379 228.547 63.1661 228.438 62.8399C228.33 62.5137 228.275 62.1875 228.275 61.8613C228.275 61.5351 228.275 61.209 228.33 60.8828C228.384 60.7197 228.384 60.5566 228.438 60.3935C228.438 60.2848 228.493 60.2304 228.493 60.1217C228.547 60.0129 228.547 59.9586 228.602 59.8499L229.743 60.611Z" fill="#A55A3C"/>
<path d="M232.734 62.0791C231.973 61.7529 231.158 61.8616 230.396 62.2965C229.309 62.8946 228.059 62.7858 226.972 62.1878C226.319 61.8616 225.612 61.7529 224.96 61.916C223.275 62.4596 222.514 64.7973 223.22 67.135C223.927 69.527 225.939 70.9948 227.624 70.5056C227.787 70.4512 227.95 70.3968 228.113 70.2881C228.494 70.0706 228.874 70.0706 229.255 70.2881C229.309 70.3425 229.364 70.3425 229.418 70.3425C231.049 70.9948 233.169 69.6901 234.093 67.3524C234.963 65.1235 234.419 62.7315 232.734 62.0791Z" fill="#FC5954"/>
<path d="M234.365 64.1446C234.094 62.8942 232.354 62.7855 231.865 63.9815C230.94 66.2648 228.657 67.8957 226.048 67.8957C226.048 67.8957 226.048 67.8957 225.993 67.8957C224.797 67.8957 224.254 69.4179 225.232 70.1247C225.993 70.6139 226.809 70.8314 227.57 70.5596C227.733 70.5052 227.896 70.4509 228.059 70.3421C228.44 70.1247 228.82 70.1247 229.201 70.3421C229.255 70.3965 229.309 70.3965 229.364 70.3965C230.995 71.0489 233.115 69.7441 234.039 67.4065C234.474 66.3735 234.583 65.1232 234.365 64.1446Z" fill="#DC1428"/>
<path d="M229.744 60.6105C229.635 60.7736 229.309 60.8279 228.982 60.6648C228.656 60.5017 228.493 60.2299 228.602 60.0125C228.711 59.8494 229.037 59.795 229.363 59.9581C229.635 60.1212 229.798 60.393 229.744 60.6105Z" fill="#783C28"/>
<path d="M229.744 54.196C228.385 55.5551 225.884 55.1746 225.884 55.1746C225.884 55.1746 225.558 52.6738 226.862 51.3147C228.222 49.9556 230.722 50.3361 230.722 50.3361C230.722 50.3361 231.103 52.8913 229.744 54.196Z" fill="#1C9585"/>
<path d="M226.536 51.9128C226.536 51.8584 226.536 51.7497 226.536 51.6953C225.558 53.1088 225.83 55.229 225.83 55.229C225.83 55.229 228.33 55.5552 229.689 54.2504C230.016 53.9242 230.287 53.4893 230.396 53.0544C230.505 52.7282 230.124 52.4564 229.853 52.6195C229.2 53.0544 228.439 53.1632 227.787 53.2175C227.134 53.2719 226.482 52.6739 226.536 51.9128Z" fill="#177D74"/>
<path d="M226.644 52.4564C226.644 52.4564 226.589 52.5108 226.535 52.5651C226.481 52.6195 226.481 52.6739 226.426 52.7282C226.372 52.837 226.317 52.9457 226.263 53.0544C226.154 53.2719 226.046 53.5437 225.991 53.8155C225.937 54.0873 225.883 54.3592 225.937 54.631C225.937 54.9028 225.991 55.1746 226.046 55.4465L225.719 55.5552C225.556 55.2834 225.448 55.0115 225.339 54.6853C225.23 54.3592 225.176 54.033 225.176 53.7068C225.176 53.3806 225.176 53.0544 225.23 52.7282C225.285 52.5651 225.285 52.402 225.339 52.239C225.339 52.1302 225.393 52.0759 225.393 51.9671C225.448 51.8584 225.448 51.804 225.502 51.6953L226.644 52.4564Z" fill="#A55A3C"/>
<path d="M229.635 53.9783C228.873 53.6521 228.058 53.7608 227.297 54.1957C226.21 54.7937 224.959 54.685 223.872 54.087C223.22 53.7608 222.513 53.6521 221.86 53.8152C220.175 54.3588 219.414 56.6965 220.121 59.0341C220.828 61.4262 222.839 62.894 224.524 62.4047C224.687 62.3504 224.85 62.296 225.014 62.1873C225.394 61.9698 225.775 61.9698 226.155 62.1873C226.21 62.2416 226.264 62.2416 226.318 62.2416C227.949 62.894 230.069 61.5893 230.994 59.2516C231.863 57.0227 231.32 54.6306 229.635 53.9783Z" fill="#FC5954"/>
<path d="M231.266 55.9901C230.994 54.7397 229.254 54.6309 228.765 55.827C227.841 58.1103 225.558 59.7412 222.948 59.7412C222.948 59.7412 222.948 59.7412 222.894 59.7412C221.698 59.7412 221.154 61.2634 222.133 61.9701C222.894 62.4594 223.709 62.6769 224.47 62.405C224.633 62.3507 224.796 62.2963 224.96 62.1876C225.34 61.9701 225.721 61.9701 226.101 62.1876C226.156 62.2419 226.21 62.242 226.264 62.242C227.895 62.8943 230.015 61.5896 230.94 59.2519C231.375 58.219 231.483 57.023 231.266 55.9901Z" fill="#DC1428"/>
<path d="M226.644 52.4559C226.535 52.619 226.209 52.6734 225.883 52.5103C225.557 52.3472 225.394 52.0754 225.502 51.8579C225.611 51.6948 225.937 51.6405 226.263 51.8036C226.535 52.021 226.698 52.2928 226.644 52.4559Z" fill="#783C28"/>
<path d="M218.218 54.8484C216.859 56.2075 214.359 55.8269 214.359 55.8269C214.359 55.8269 214.032 53.3262 215.337 51.9671C216.642 50.6079 219.197 50.9885 219.197 50.9885C219.197 50.9885 219.523 53.5436 218.218 54.8484Z" fill="#1C9585"/>
<path d="M215.011 52.5651C215.011 52.5108 215.011 52.402 215.011 52.3477C214.032 53.7611 214.304 55.8813 214.304 55.8813C214.304 55.8813 216.805 56.2075 218.164 54.9028C218.49 54.5766 218.762 54.1417 218.871 53.7068C218.98 53.3806 218.599 53.1088 218.327 53.2719C217.675 53.7068 216.914 53.8155 216.261 53.8699C215.609 53.9242 214.957 53.2719 215.011 52.5651Z" fill="#177D74"/>
<path d="M215.065 53.1088C215.065 53.1088 215.011 53.1631 214.957 53.2175C214.902 53.2719 214.902 53.3262 214.848 53.3806C214.794 53.4893 214.739 53.598 214.685 53.7068C214.576 53.9242 214.467 54.196 214.413 54.4679C214.359 54.7397 214.304 55.0115 214.359 55.2833C214.359 55.5552 214.413 55.827 214.467 56.0988L214.141 56.2075C213.978 55.9357 213.869 55.6639 213.761 55.3377C213.652 55.0115 213.598 54.6853 213.598 54.3591C213.598 54.033 213.598 53.7068 213.652 53.3806C213.706 53.2175 213.706 53.0544 213.761 52.8913C213.761 52.7826 213.815 52.7282 213.815 52.6195C213.869 52.5107 213.869 52.4564 213.924 52.3477L215.065 53.1088Z" fill="#A55A3C"/>
<path d="M218.109 54.5769C217.348 54.2507 216.533 54.3594 215.771 54.7943C214.684 55.3924 213.434 55.2836 212.347 54.6856C211.694 54.3594 210.987 54.2507 210.335 54.4138C208.65 54.9574 207.889 57.2951 208.595 59.6328C209.302 62.0248 211.314 63.4926 212.999 63.0034C213.162 62.949 213.325 62.8946 213.488 62.7859C213.869 62.5685 214.249 62.5685 214.63 62.7859C214.684 62.8403 214.739 62.8403 214.793 62.8403C216.424 63.4926 218.544 62.1879 219.468 59.8502C220.338 57.6757 219.74 55.2836 218.109 54.5769Z" fill="#FC5954"/>
<path d="M219.686 56.6424C219.414 55.392 217.674 55.2833 217.185 56.4793C216.261 58.7626 213.977 60.3935 211.368 60.3935C211.368 60.3935 211.368 60.3935 211.314 60.3935C210.118 60.3935 209.574 61.9157 210.552 62.6225C211.314 63.1118 212.129 63.3292 212.89 63.0574C213.053 63.003 213.216 62.9487 213.379 62.8399C213.76 62.6225 214.141 62.6225 214.521 62.8399C214.575 62.8943 214.63 62.8943 214.684 62.8943C216.315 63.5467 218.435 62.2419 219.359 59.9043C219.849 58.8713 219.958 57.6753 219.686 56.6424Z" fill="#DC1428"/>
<path d="M215.066 53.1083C214.957 53.2714 214.631 53.3257 214.305 53.1626C213.979 52.9995 213.815 52.7277 213.924 52.5103C214.033 52.3472 214.359 52.2928 214.685 52.4559C215.011 52.6734 215.175 52.9452 215.066 53.1083Z" fill="#783C28"/>
<path d="M211.694 46.911C210.878 48.5963 208.378 49.0855 208.378 49.0855C208.378 49.0855 207.236 46.8022 208.051 45.117C208.867 43.4317 211.368 42.9424 211.368 42.9424C211.368 42.9424 212.509 45.1713 211.694 46.911Z" fill="#1C9585"/>
<path d="M207.943 45.7151C207.943 45.6607 207.889 45.552 207.889 45.4976C207.4 47.1285 208.378 49.0856 208.378 49.0856C208.378 49.0856 210.879 48.5964 211.694 46.9111C211.912 46.4762 211.966 45.9869 212.021 45.552C212.021 45.2258 211.586 45.0627 211.368 45.3345C210.879 45.9325 210.227 46.3131 209.629 46.5849C208.922 46.8023 208.106 46.4762 207.943 45.7151Z" fill="#177D74"/>
<path d="M208.16 46.2581C208.16 46.2581 208.106 46.3669 208.106 46.4212C208.106 46.4756 208.051 46.53 208.051 46.5843C208.051 46.6931 207.997 46.8562 207.997 46.9649C207.997 47.2367 207.997 47.5085 207.997 47.7804C208.051 48.0522 208.106 48.324 208.215 48.5958C208.323 48.8676 208.432 49.0851 208.595 49.3569L208.323 49.5744C208.106 49.3569 207.888 49.1395 207.671 48.8676C207.508 48.5958 207.345 48.324 207.182 47.9978C207.073 47.6716 206.964 47.3454 206.91 47.0193C206.855 46.8562 206.855 46.6931 206.855 46.53C206.855 46.4212 206.855 46.3669 206.855 46.2581C206.855 46.1494 206.855 46.0951 206.855 45.9863L208.16 46.2581Z" fill="#A55A3C"/>
<path d="M211.531 46.6392C210.715 46.5848 210.009 46.9654 209.411 47.6177C208.595 48.4876 207.345 48.8137 206.149 48.6507C205.442 48.5419 204.735 48.6506 204.137 49.0856C202.724 50.1185 202.724 52.6193 204.192 54.6307C205.66 56.6422 207.997 57.4577 209.411 56.3704C209.574 56.2617 209.683 56.1529 209.791 56.0442C210.063 55.718 210.444 55.6093 210.879 55.6636C210.933 55.6636 210.987 55.6636 211.042 55.6636C212.836 55.7724 214.358 53.8153 214.467 51.3689C214.63 48.8681 213.271 46.7479 211.531 46.6392Z" fill="#FC5954"/>
<path d="M213.705 48.1075C212.998 47.0202 211.367 47.4551 211.258 48.7598C211.15 51.2606 209.519 53.5439 207.018 54.3594C207.018 54.3594 207.018 54.3594 206.964 54.3594C205.822 54.7399 205.822 56.3708 206.964 56.697C207.833 56.9145 208.649 56.8601 209.301 56.3708C209.464 56.2621 209.573 56.1534 209.682 56.0446C209.954 55.7185 210.334 55.6097 210.769 55.6641C210.824 55.6641 210.878 55.6641 210.932 55.6641C212.726 55.7728 214.248 53.8157 214.357 51.3693C214.52 50.1733 214.248 48.9773 213.705 48.1075Z" fill="#DC1428"/>
<path d="M208.16 46.259C208.106 46.4764 207.834 46.5852 207.453 46.5308C207.127 46.4764 206.855 46.259 206.855 46.0415C206.855 45.8241 207.182 45.7153 207.562 45.7697C207.943 45.8241 208.215 46.0415 208.16 46.259Z" fill="#783C28"/>
<path opacity="0.53" d="M237.952 64.5252C237.843 61.4265 237.626 58.4364 237.408 55.6095H237.191V53.3262H233.549V55.6095H210.009V53.3262H206.366V55.6095H201.963V64.5252H206.366V67.0803H201.963V67.6784C202.126 68.9287 202.343 70.5053 202.507 72.5168C202.615 73.4953 202.398 74.6914 201.963 75.9417H238.278C238.224 73.1148 238.17 70.0704 238.061 67.026H237.191V64.4709H237.952V64.5252ZM233.549 67.0803H210.009V64.5252H233.549V67.0803Z" fill="black"/>
<path d="M205.117 52.2932H201.475V73.9302H205.117V52.2932Z" fill="#783C28"/>
<path d="M232.353 52.2932H228.711V73.9302H232.353V52.2932Z" fill="#783C28"/>
<path d="M236.376 65.9934H197.125V74.9092H236.376V65.9934Z" fill="#A55A3C"/>
<path d="M236.376 54.5217H197.125V63.4375H236.376V54.5217Z" fill="#A55A3C"/>
<path d="M206.964 59.8497C206.964 59.8497 211.585 60.6109 211.15 59.2517C210.661 57.8926 204.898 58.2732 204.191 59.2517C203.485 60.2303 211.639 62.4049 217.837 60.8283" stroke="#783C28" stroke-width="0.543643" stroke-miterlimit="10"/>
<path d="M233.767 58.9803C233.767 58.9803 228.711 55.8272 222.242 57.0775C218.382 57.8386 207.02 57.4037 202.453 53.8157" stroke="#783C28" stroke-width="0.543643" stroke-miterlimit="10"/>
<path d="M216.806 71.6467C214.142 71.0487 209.575 68.6567 205.281 66.5365C200.931 64.4163 198.866 62.2417 195.006 60.937C187.666 58.3818 185.546 63.4377 185.546 63.4377C185.546 63.4377 182.828 69.2547 191.853 72.136C198.866 74.3649 210.771 76.5395 216.045 76.159C216.045 76.2133 217.947 76.2133 218.382 76.2133L216.806 71.6467Z" fill="#FC8867"/>
<path d="M275.084 3.90891C273.725 5.26802 271.224 4.88746 271.224 4.88746C271.224 4.88746 270.898 2.38671 272.202 1.0276C273.561 -0.33151 276.062 0.0490382 276.062 0.0490382C276.062 0.0490382 276.388 2.5498 275.084 3.90891Z" fill="#1C9585"/>
<path d="M271.876 1.57097C271.876 1.51661 271.876 1.40788 271.876 1.35352C270.898 2.76699 271.169 4.8872 271.169 4.8872C271.169 4.8872 273.67 5.21338 275.029 3.90864C275.355 3.58246 275.627 3.14754 275.736 2.71262C275.845 2.38644 275.464 2.11462 275.192 2.27771C274.54 2.71263 273.779 2.82135 273.127 2.87572C272.42 2.93008 271.822 2.33207 271.876 1.57097Z" fill="#177D74"/>
<path d="M271.931 2.1693C271.931 2.1693 271.876 2.22367 271.822 2.27804C271.768 2.3324 271.768 2.38676 271.713 2.44113C271.659 2.54985 271.605 2.65858 271.55 2.76731C271.441 2.98477 271.333 3.25659 271.278 3.52841C271.224 3.80023 271.17 4.07206 271.224 4.34388C271.224 4.6157 271.278 4.88752 271.333 5.15934L271.007 5.26807C270.843 4.99625 270.735 4.72443 270.626 4.39824C270.517 4.07205 270.463 3.74587 270.463 3.41969C270.463 3.0935 270.463 2.76731 270.517 2.44113C270.572 2.27803 270.572 2.11494 270.626 1.95185C270.626 1.84312 270.68 1.78875 270.68 1.68002C270.735 1.5713 270.735 1.51693 270.789 1.4082L271.931 2.1693Z" fill="#A55A3C"/>
<path d="M274.974 3.63744C274.213 3.31125 273.398 3.41998 272.637 3.85489C271.549 4.4529 270.299 4.34417 269.212 3.74617C268.559 3.41998 267.853 3.31125 267.2 3.47434C265.515 4.01799 264.754 6.35566 265.461 8.69332C266.167 11.0854 268.179 12.5532 269.864 12.0639C270.027 12.0095 270.19 11.9552 270.353 11.8464C270.734 11.629 271.114 11.629 271.495 11.8464C271.549 11.9008 271.604 11.9008 271.658 11.9008C273.289 12.5532 275.409 11.2484 276.333 8.91078C277.203 6.68184 276.605 4.28981 274.974 3.63744Z" fill="#FC5954"/>
<path d="M276.551 5.70294C276.279 4.45256 274.539 4.34384 274.05 5.53985C273.126 7.82315 270.843 9.45408 268.233 9.45408C268.233 9.45408 268.233 9.45408 268.179 9.45408C266.983 9.45408 266.439 10.9763 267.418 11.683C268.179 12.1723 268.994 12.3898 269.755 12.1179C269.918 12.0636 270.082 12.0092 270.245 11.9005C270.625 11.683 271.006 11.683 271.386 11.9005C271.441 11.9548 271.495 11.9548 271.549 11.9548C273.18 12.6072 275.301 11.3025 276.225 8.96481C276.714 7.93188 276.823 6.6815 276.551 5.70294Z" fill="#DC1428"/>
<path d="M271.929 2.16926C271.82 2.33235 271.494 2.38672 271.168 2.22362C270.842 2.06053 270.679 1.78871 270.787 1.57125C270.896 1.3538 271.222 1.3538 271.549 1.51689C271.875 1.67998 272.038 1.9518 271.929 2.16926Z" fill="#783C28"/>
<path d="M198.539 117.367C202.616 118.019 213.544 119.65 222.514 119.65C225.178 119.65 227.678 119.487 229.799 119.161C234.365 118.4 238.171 117.204 241.052 116.062L240.998 115.519C238.116 116.66 234.311 117.856 229.744 118.672C220.611 120.194 203.812 117.747 198.593 116.878L198.539 117.367Z" fill="#E69632"/>
<path d="M227.026 20.544L227.298 18.8043L228.004 14.3464L225.83 13.2048L225.884 17.2277C225.884 17.2277 226.972 18.7499 226.537 21.0333C225.612 24.0233 222.514 26.5784 218.11 25.0562C217.458 24.8387 216.914 24.6213 216.425 24.3495C214.359 23.3165 213.109 21.0333 213.598 18.75C213.978 17.0103 214.903 17.2821 214.903 17.2821V12.6068V12.335L213.109 14.6726L213.163 18.8043C213.163 19.946 213.054 21.142 212.782 22.2836C211.097 29.1335 216.751 31.145 216.751 31.145C216.588 33.4283 221.426 35.2223 221.426 35.2223C220.991 34.135 222.568 33.3196 222.568 33.3196C227.787 32.9934 226.537 26.959 226.537 26.959C228.602 25.2193 227.57 21.8487 227.026 20.544Z" fill="#32285F"/>
<path d="M222.405 22.7732C220.774 22.447 219.088 22.6101 217.566 23.2625C216.479 23.7518 215.446 24.4585 215.718 25.3827C216.316 27.2311 219.197 23.643 220.284 23.7518C221.372 23.9149 224.307 25.3283 224.307 25.3283C224.307 25.3283 225.83 23.4256 222.405 22.7732Z" fill="#32285F"/>
<path d="M220.121 22.882C220.121 22.882 217.947 22.5558 216.207 23.3169" stroke="#32285F" stroke-width="0.271822" stroke-miterlimit="10"/>
<path d="M220.719 22.7734C220.719 22.7734 223.002 22.6103 224.198 22.9365" stroke="#32285F" stroke-width="0.271822" stroke-miterlimit="10"/>
<path d="M212.945 22.719C212.945 22.719 211.531 25.4916 211.857 26.742C212.184 27.9923 213.38 28.8622 213.38 28.8622" stroke="#32285F" stroke-width="0.271822" stroke-miterlimit="10"/>
<path d="M226.211 27.1221C226.211 27.1221 227.461 29.7316 226.754 31.0363C226.048 32.341 223.547 32.776 223.547 32.776" stroke="#32285F" stroke-width="0.271822" stroke-miterlimit="10"/>
<path d="M235.887 52.6737C235.072 49.6836 233.876 46.8023 232.354 44.1385L234.637 46.1499L237.736 41.3115C237.518 43.3774 239.095 45.2258 241.215 45.3345L251.707 45.8781L236.485 47.9983C236.485 47.9983 237.464 55.3375 237.681 58.9256L235.887 52.6737Z" fill="#2896FF"/>
<path d="M231.701 38.1588L232.897 32.3418L239.965 32.8854C239.965 32.8311 232.788 34.0271 231.701 38.1588Z" fill="#2896FF"/>
<path d="M229.853 46.6393C228.712 41.7465 231.43 32.3959 231.593 31.9609L233.822 32.0153C233.768 32.124 230.995 41.8009 231.974 46.15L229.853 46.6393Z" fill="#FAC855"/>
<path d="M211.695 85.6725C211.695 85.6725 230.995 81.7039 231.43 84.6396C231.864 87.5752 215.718 87.4122 216.806 90.0216C217.838 92.6311 228.331 91.4351 228.331 91.4351" stroke="#E69632" stroke-width="0.543643" stroke-miterlimit="10"/>
<path d="M221.48 72.8975C222.024 72.0277 222.731 71.3209 223.546 70.7229L223.6 70.6686C223.927 70.4511 224.035 70.1249 224.035 69.7444C223.981 68.9833 223.111 68.6027 222.513 68.9833L220.773 70.0706C220.393 70.288 219.958 70.4511 219.523 70.4511C217.077 70.6686 215.718 71.8646 215.718 71.8646C214.63 72.6801 216.587 75.2895 216.587 75.2895C217.348 76.105 219.088 77.5185 221.208 77.1923C224.09 76.703 228.167 74.8003 228.167 74.8003H222.513C221.535 74.8546 220.936 73.7673 221.48 72.8975Z" fill="#FC8867"/>
<path d="M173.641 164.719V166.458" stroke="#32285F" stroke-width="0.543643" stroke-miterlimit="10"/>
<path d="M174.998 164.338L175.542 166.078" stroke="#32285F" stroke-width="0.543643" stroke-miterlimit="10"/>
<path d="M176.357 163.74L177.39 165.154" stroke="#32285F" stroke-width="0.543643" stroke-miterlimit="10"/>
<path d="M177.555 162.815L179.24 163.577" stroke="#32285F" stroke-width="0.543643" stroke-miterlimit="10"/>
<path d="M178.805 161.565H180.762" stroke="#32285F" stroke-width="0.543643" stroke-miterlimit="10"/>
<path d="M179.783 160.043H181.632" stroke="#32285F" stroke-width="0.543643" stroke-miterlimit="10"/>
<path d="M225.068 163.359H228.602" stroke="#32285F" stroke-width="0.543643" stroke-miterlimit="10"/>
<path d="M225.068 161.729H228.058" stroke="#32285F" stroke-width="0.543643" stroke-miterlimit="10"/>
<path d="M224.852 160.098H227.842" stroke="#32285F" stroke-width="0.543643" stroke-miterlimit="10"/>
<path d="M224.852 158.467H227.842" stroke="#32285F" stroke-width="0.543643" stroke-miterlimit="10"/>
<path d="M224.633 156.836H227.623" stroke="#32285F" stroke-width="0.543643" stroke-miterlimit="10"/>
<path d="M160.811 155.259C168.797 155.259 175.271 153.726 175.271 151.834C175.271 149.943 168.797 148.409 160.811 148.409C152.824 148.409 146.35 149.943 146.35 151.834C146.35 153.726 152.824 155.259 160.811 155.259Z" fill="#F0E1D3"/>
<path d="M160.701 149.986H164.126" stroke="#FAC855" stroke-width="0.543643" stroke-miterlimit="10"/>
<path d="M161.57 150.584L162.929 149.986L164.125 146.289" stroke="#FAC855" stroke-width="0.543643" stroke-miterlimit="10"/>
<path d="M167.606 146.018L167.388 150.367L165.975 151.019" stroke="#FAC855" stroke-width="0.543643" stroke-miterlimit="10"/>
<path d="M164.779 150.421H168.313" stroke="#FAC855" stroke-width="0.543643" stroke-miterlimit="10"/>
<path d="M174.022 136.178C173.967 129.11 169.401 126.338 166.574 126.012C163.747 125.631 163.584 123.021 163.584 123.021C162.061 123.728 162.17 127.642 163.203 130.361C163.91 132.155 155.103 141.832 154.559 142.375C151.134 145.963 154.342 148.083 154.342 148.083L155.81 147.757C155.81 147.757 156.788 147.051 159.18 146.67C159.18 146.67 160.811 146.616 162.931 146.181C163.149 146.507 163.529 146.724 163.91 146.724C164.454 146.724 164.943 146.289 165.106 145.637C165.432 145.528 165.758 145.42 166.084 145.311C166.193 146.126 166.682 146.724 167.335 146.724C168.042 146.724 168.64 145.963 168.64 145.039C168.64 144.55 168.857 144.06 169.292 143.843C172.01 142.375 174.076 139.983 174.022 136.178Z" fill="#F0E1D3"/>
<path d="M154.504 144.169C154.993 145.528 154.558 147.104 153.471 148.083C152.873 148.627 153.471 149.823 152.656 149.714C149.883 149.333 152.221 146.724 152.221 146.724C152.221 146.724 150.209 148.681 149.829 147.05C149.285 144.658 152.438 144.332 152.438 144.332C152.438 144.332 150.862 144.006 151.46 143.19C151.894 142.647 153.906 142.483 154.504 144.169Z" fill="#FC5954"/>
<path d="M164.724 144.495C164.234 142.81 160.483 143.789 160.483 143.789C160.483 143.789 165.159 142.538 163.8 140.69C162.44 138.896 159.07 141.234 159.07 141.234C159.07 141.234 162.169 137.917 160.157 137.319C158.961 136.939 157.602 138.461 156.787 139.657C156.297 140.418 155.754 141.125 155.156 141.777C154.884 142.103 154.666 142.321 154.612 142.375C151.187 145.963 154.394 148.083 154.394 148.083L155.862 147.757C155.862 147.757 157.765 146.996 159.831 146.616C162.767 146.779 165.213 146.181 164.724 144.495Z" fill="#E69632"/>
<path d="M155.32 147.648C155.32 147.648 156.027 147.703 156.571 148.246C157.223 148.899 158.31 147.485 157.223 147.105C156.19 146.724 155.32 147.648 155.32 147.648Z" fill="#DC1428"/>
<path d="M165.758 138.787C165.758 138.787 172.499 135.308 167.661 130.524C162.768 125.685 164.507 137.645 164.507 137.645" stroke="#D8C5B6" stroke-width="0.543643" stroke-miterlimit="10"/>
<path d="M155.536 148.138C155.536 148.138 156.189 147.431 157.276 147.214C158.581 146.996 157.765 144.821 156.406 145.637C155.101 146.452 155.536 148.138 155.536 148.138Z" fill="#FC5954"/>
<path d="M155.047 148.03C155.591 147.866 155.863 147.268 155.699 146.725C155.536 146.181 154.938 145.909 154.395 146.072C153.851 146.235 153.579 146.834 153.742 147.377C153.905 147.921 154.503 148.193 155.047 148.03Z" fill="#FC5954"/>
<path d="M154.992 149.388L154.449 148.246L154.014 147.811C154.014 147.811 155.373 147.268 155.862 147.757C155.916 148.192 155.753 148.735 155.373 149.388C155.264 149.551 155.047 149.551 154.992 149.388Z" fill="#FAC855"/>
<path d="M158.963 151.345C158.963 151.617 158.745 151.835 158.474 151.835C158.202 151.835 157.984 151.617 157.984 151.345C157.984 151.073 158.202 150.856 158.474 150.856C158.745 150.802 158.963 151.019 158.963 151.345Z" fill="#E69632"/>
<path d="M151.351 151.4C151.351 151.618 151.188 151.781 150.97 151.781C150.753 151.781 150.59 151.618 150.59 151.4C150.59 151.183 150.753 151.02 150.97 151.02C151.188 151.02 151.351 151.183 151.351 151.4Z" fill="#E69632"/>
<path d="M155.484 151.291C155.484 151.508 155.321 151.671 155.103 151.671C154.886 151.671 154.723 151.508 154.723 151.291C154.723 151.073 154.886 150.91 155.103 150.91C155.321 150.91 155.484 151.073 155.484 151.291Z" fill="#E69632"/>
<path d="M153.69 153.357C153.69 153.737 153.363 154.009 153.037 154.009C152.657 154.009 152.385 153.683 152.385 153.357C152.385 153.031 152.711 152.704 153.037 152.704C153.418 152.65 153.69 152.976 153.69 153.357Z" fill="#E69632"/>
<path d="M126.18 159.608C125.092 159.608 123.951 159.608 122.863 159.663C115.252 159.935 107.587 159.119 100.139 157.597C95.1919 156.564 88.4507 155.966 80.9485 155.966C80.0243 155.966 79.1001 155.966 78.1759 156.02C72.6307 156.129 67.0856 155.694 61.6491 154.661C55.3972 153.465 45.4486 152.704 34.3039 152.704C15.3307 152.704 0 154.933 0 157.651C0 160.369 15.3851 162.598 34.3039 162.598C36.1523 162.598 37.9463 162.598 39.6859 162.544C46.2097 162.381 52.7334 163.251 59.0396 164.99C63.9868 166.35 71.924 167.274 80.8941 167.274C80.9485 167.274 81.0028 167.274 81.0572 167.274C86.548 167.274 91.8757 169.285 95.7356 173.254C99.7585 177.44 111.719 180.593 126.125 180.593C143.685 180.593 157.928 175.918 157.928 170.155C157.983 164.284 143.739 159.608 126.18 159.608Z" fill="#F0E1D3"/>
<path d="M88.9933 136.015C90.8417 136.069 92.527 134.927 93.2337 133.188C93.6143 132.264 93.7774 131.231 93.125 130.469C91.6028 128.621 91.1135 132.263 91.1135 132.263C91.1135 132.263 90.298 128.621 88.3409 129.491C86.3838 130.361 88.3409 133.46 88.3409 133.46C88.3409 133.46 86.0033 132.318 85.8945 133.46C85.8945 134.329 86.71 135.96 88.9933 136.015Z" fill="#FC5954"/>
<path d="M74.8592 144.061C75.7291 144.713 76.6533 144.876 77.6862 144.659C77.6318 144.604 77.5775 144.604 77.5775 144.55C75.5116 142.973 72.5759 141.723 70.5645 141.723C72.0323 142.267 73.6089 143.082 74.8592 144.061Z" fill="#177D74"/>
<path d="M88.6141 163.577H84.8086" stroke="#FAC855" stroke-width="0.543643" stroke-miterlimit="10"/>
<path d="M87.5812 164.284L86.1133 163.578L84.8086 159.555" stroke="#FAC855" stroke-width="0.543643" stroke-miterlimit="10"/>
<path d="M81.0566 159.282L81.2741 164.012L82.7963 164.719" stroke="#FAC855" stroke-width="0.543643" stroke-miterlimit="10"/>
<path d="M84.1548 164.067H80.2949" stroke="#FAC855" stroke-width="0.543643" stroke-miterlimit="10"/>
<path d="M89.1571 137.809C87.4718 137.809 85.8409 138.678 84.9711 140.092C82.6878 143.734 80.2957 145.855 77.795 144.55C74.5331 142.919 69.6403 142.266 68.6074 144.115C68.6074 144.115 71.8693 144.658 71.978 148.247C72.0867 151.237 74.0439 156.51 79.8608 158.304C79.8608 159.282 80.5132 160.098 81.2743 160.098C81.9267 160.098 82.416 159.554 82.6334 158.793C83.014 158.848 83.3945 158.848 83.7751 158.848C83.9925 159.554 84.4818 159.989 85.0798 160.044C85.7322 160.098 86.2215 159.174 86.4933 158.684C93.3432 157.652 97.638 152.378 95.409 146.235C94.811 144.495 94.3761 143.028 94.1043 141.777C93.5606 139.494 91.4948 137.809 89.1571 137.809Z" fill="#1C9585"/>
<path d="M95.301 146.235C94.703 144.495 94.268 143.028 93.9962 141.777C93.5069 139.44 91.4955 137.809 89.1034 137.809C88.6142 137.809 88.1792 137.863 87.7443 138.026C89.484 138.515 90.8975 139.929 91.2236 141.777C91.4955 143.028 91.876 144.495 92.5284 146.235C94.7573 152.433 90.4625 157.706 83.6126 158.684C83.5583 158.739 83.5583 158.793 83.5039 158.848C83.5583 158.848 83.5583 158.848 83.6126 158.848C83.8301 159.554 84.3194 159.989 84.9174 160.044C85.5698 160.098 86.059 159.174 86.3308 158.684C93.2351 157.706 97.5299 152.433 95.301 146.235Z" fill="url(#paint1_linear_1720_8791)"/>
<path d="M93.506 135.579C93.506 135.579 93.8322 136.395 94.7564 136.884C95.7893 137.428 94.539 139.222 93.6691 138.134C92.6906 136.993 93.506 135.579 93.506 135.579Z" fill="#DC1428"/>
<path d="M93.6703 139.004C93.5616 137.101 93.8334 136.177 93.8334 136.177L93.616 134.275C93.616 134.275 89.8648 131.23 86.8748 136.775C85.0264 140.255 80.2424 141.342 81.6558 143.027C82.6344 144.223 85.6244 141.722 86.4399 140.961C85.6244 141.831 83.0149 144.713 83.9935 146.452C85.4613 149.062 88.8863 143.68 88.8863 143.68C88.8863 143.68 86.7661 149.225 89.5387 150.638C92.3112 152.052 92.6918 144.984 92.6918 144.984C92.6918 144.984 92.42 150.638 94.812 150.856C96.8235 151.019 95.6275 145.8 94.6489 143.136C94.1053 141.831 93.7247 140.418 93.6703 139.004Z" fill="#F0E1D3"/>
<path d="M85.0259 150.476C85.0259 150.476 79.8069 158.522 74.4249 151.781C69.0428 145.04 83.7755 148.736 83.7755 148.736" stroke="#177D74" stroke-width="0.543643" stroke-miterlimit="10"/>
<path d="M94.1047 135.689C94.1047 135.689 93.5067 136.776 93.7242 138.135C93.996 139.82 91.0603 139.712 91.4952 137.755C91.9845 135.797 94.1047 135.689 94.1047 135.689Z" fill="#FC5954"/>
<path d="M93.7774 135.145C93.7774 135.852 93.1794 136.45 92.4727 136.45C91.766 136.45 91.168 135.852 91.168 135.145C91.168 134.438 91.766 133.84 92.4727 133.84C93.2338 133.84 93.7774 134.384 93.7774 135.145Z" fill="#FC5954"/>
<path d="M95.4092 134.492L93.8326 134.329L93.1259 134.003C93.1259 134.003 93.0172 135.852 93.8326 136.178C94.3763 136.123 94.9743 135.634 95.6267 134.927C95.7354 134.819 95.6267 134.547 95.4092 134.492Z" fill="#FAC855"/>
<path d="M94.3223 163.197C94.3223 163.523 94.0505 163.849 93.67 163.849C93.3438 163.849 93.0176 163.577 93.0176 163.197C93.0176 162.871 93.2894 162.544 93.67 162.544C94.0505 162.599 94.3223 162.871 94.3223 163.197Z" fill="#E69632"/>
<path d="M99.1054 160.424C99.2685 160.587 99.2685 160.859 99.1054 160.968C98.9423 161.131 98.6705 161.131 98.5618 160.968C98.3987 160.805 98.3987 160.533 98.5618 160.424C98.6705 160.261 98.9423 160.261 99.1054 160.424Z" fill="#E69632"/>
<path d="M102.912 164.936C103.122 164.936 103.292 164.766 103.292 164.556C103.292 164.345 103.122 164.175 102.912 164.175C102.702 164.175 102.531 164.345 102.531 164.556C102.531 164.766 102.702 164.936 102.912 164.936Z" fill="#E69632"/>
<path d="M104.76 160.913C105.12 160.913 105.412 160.621 105.412 160.261C105.412 159.901 105.12 159.609 104.76 159.609C104.4 159.609 104.107 159.901 104.107 160.261C104.107 160.621 104.4 160.913 104.76 160.913Z" fill="#E69632"/>
<path d="M98.4541 165.534C98.7243 165.534 98.9434 165.315 98.9434 165.045C98.9434 164.775 98.7243 164.556 98.4541 164.556C98.1839 164.556 97.9648 164.775 97.9648 165.045C97.9648 165.315 98.1839 165.534 98.4541 165.534Z" fill="#E69632"/>
<path d="M110.522 164.882C110.522 165.209 110.25 165.48 109.924 165.48C109.598 165.48 109.326 165.209 109.326 164.882C109.326 164.556 109.598 164.284 109.924 164.284C110.25 164.284 110.522 164.556 110.522 164.882Z" fill="#E69632"/>
<path d="M139.444 34.4072L140.259 35.4945L139.172 35.2771C139.226 35.2771 139.281 34.5703 139.444 34.4072Z" fill="#177D74"/>
<path d="M133.137 14.3472C136.182 14.9996 139.063 12.7706 139.281 9.67188C139.552 6.08383 139.389 2.11524 137.432 1.5716C133.899 0.593039 127.81 5.86638 124.113 5.3771C123.08 5.26837 122.319 5.70329 121.775 6.41002C120.144 8.69332 121.558 11.9008 124.276 12.4445L133.137 14.3472Z" fill="#E69632"/>
<path d="M148.197 7.06284C147.055 5.92119 144.826 6.08428 142.488 6.73665C137.324 8.15012 131.996 8.42194 126.668 7.93266C126.125 7.8783 125.581 7.87831 125.037 7.87831C116.72 7.87831 109.979 13.5866 109.979 20.5996C109.979 27.6125 116.72 33.3208 125.037 33.3208C129.821 33.3208 134.116 31.418 136.834 28.4824C138.574 26.634 140.368 24.84 142.434 23.3721C143.304 22.7741 144.174 22.013 145.044 21.1976C149.773 16.4135 151.187 10.1072 148.197 7.06284Z" fill="#FAC855"/>
<path d="M130.528 27.1233C136.263 27.1233 140.912 24.0808 140.912 20.3278C140.912 16.5747 136.263 13.5322 130.528 13.5322C124.793 13.5322 120.145 16.5747 120.145 20.3278C120.145 24.0808 124.793 27.1233 130.528 27.1233Z" fill="#E69632"/>
<path d="M141.836 22.3931C141.184 19.8923 139.009 19.1856 138.792 16.4674C138.737 16.0324 138.737 15.6519 138.846 15.4344C139.281 14.1841 139.009 12.7706 138.031 11.792C136.998 10.7591 135.476 10.5416 134.225 11.0309C134.225 10.5416 134.062 10.1611 133.79 9.83491C132.92 8.85635 131.018 9.2369 130.963 9.2369L131.018 9.61745C131.018 9.61745 132.757 9.29126 133.464 10.1067C133.682 10.3242 133.79 10.6504 133.79 11.0309C132.594 10.3242 131.235 9.88927 129.767 9.88927C125.473 9.88927 121.939 13.3686 121.939 17.7177C121.939 17.7177 121.558 18.805 121.123 20.1098C120.417 22.23 119.384 24.1871 118.079 26.0355C117.264 27.1771 116.72 28.4275 116.448 29.7866C116.068 31.635 114.817 33.1572 113.023 33.8096C108.185 35.5492 104.76 40.3333 105.086 45.8241C105.466 51.8585 110.251 56.6426 116.285 57.0231C122.646 57.4037 127.81 52.8914 128.789 47.1288C129.278 44.2475 130.583 41.5837 132.812 39.6809C135.041 37.8325 136.454 35.06 136.454 31.9068V31.8525C136.508 28.9168 143.685 29.1342 141.836 22.3931Z" fill="#32285F"/>
<path d="M146.565 70.125L143.629 60.1763L152.382 57.0232L156.296 68.4941L146.565 70.125Z" fill="#FC8867"/>
<path d="M116.175 69.5813L117.1 60.6112C117.317 58.5454 115.741 56.697 113.62 56.5882C111.663 56.4795 109.978 58.0017 109.815 59.9588L109.217 68.4397L116.175 69.5813Z" fill="#FC8867"/>
<path d="M121.177 34.2988L120.145 34.9512H121.775L121.177 34.2988Z" fill="#177D74"/>
<path d="M118.458 164.393L119.165 159.989C119.491 158.195 119.546 156.347 119.383 154.553C118.187 139.44 116.936 125.685 115.958 114.214C115.632 110.735 118.404 107.745 121.883 107.745C125.308 107.745 128.027 110.681 127.809 114.106C127.374 120.303 126.831 126.664 126.287 132.644C125.2 144.604 123.732 154.933 123.134 158.848C122.971 159.989 122.916 161.077 123.079 162.218L123.732 166.35C123.841 166.948 124.112 168.035 124.275 168.524C124.33 168.688 124.33 168.851 124.33 168.959V169.177C124.33 170.101 123.569 170.916 122.59 170.916H118.404C117.752 170.916 117.099 170.59 116.773 169.992C116.501 169.449 116.501 168.796 116.828 168.307C117.589 167.057 118.241 165.806 118.458 164.393Z" fill="#FC8867"/>
<path d="M127.265 121.88C121.938 121.88 116.447 119.706 116.447 119.706C114.816 101.276 113.674 87.7937 113.892 82.5748C114.001 80.4002 114.435 78.1712 115.251 76.1598C119.6 65.8849 127.755 68.7119 128.57 87.9568C129.005 96.3833 128.298 109.268 127.265 121.88Z" fill="#32285F"/>
<path d="M132.756 121.499L130.473 114.051C129.331 110.3 131.941 106.44 135.855 106.06C139.334 105.734 142.433 108.343 142.651 111.877C142.868 115.03 142.814 117.748 142.922 118.998C143.412 125.033 140.53 152.324 139.661 160.261C139.498 161.566 139.878 162.979 140.802 164.066C142.107 165.317 143.412 167.111 147.38 167.981C147.707 168.035 148.033 168.144 148.305 168.198C149.12 168.47 149.12 169.666 148.25 169.883C148.25 169.883 147.924 170.971 140.041 169.285L135.583 168.198C133.898 167.491 134.224 165.154 134.659 163.414C135.801 160.587 136.236 157.488 135.909 154.444L132.756 121.499Z" fill="#FC8867"/>
<path d="M128.299 106.767L141.509 105.462C141.999 108.017 142.434 110.409 142.705 112.584C142.868 115.411 142.814 117.803 142.923 118.944C142.923 119.053 142.923 119.162 142.923 119.27C142.053 119.868 135.203 121.826 132.811 122.478L132.702 121.445L132.322 120.249L132.485 119.107C132.485 119.107 131.996 118.238 131.234 116.715L128.299 106.767Z" fill="#32285F"/>
<path d="M130.8 72.4079L130.039 72.3535C129.984 72.6797 129.223 80.6169 131.289 82.7371C131.67 83.1176 132.105 83.3351 132.594 83.3351C132.648 83.3351 132.703 83.3351 132.757 83.3351L132.703 82.574C132.376 82.574 132.105 82.4653 131.887 82.2478" fill="#2896FF"/>
<path d="M138.628 87.6299C136.019 88.391 133.518 89.3695 131.126 90.7287C130.528 91.0548 129.984 91.4898 129.44 91.9247C129.169 92.1965 128.951 92.414 128.734 92.7401C128.516 93.0663 128.353 93.3925 128.299 93.8274C128.299 94.2623 128.462 94.6972 128.679 95.0234C128.897 95.3496 129.169 95.5671 129.495 95.7845C130.093 96.2194 130.691 96.5456 131.289 96.8718C132.539 97.4698 133.79 97.9591 134.986 98.5027C135.584 98.7746 136.182 99.0464 136.725 99.3726C137.269 99.6988 137.813 100.134 137.921 100.623C138.03 101.112 137.541 101.602 137.106 102.091C136.671 102.58 136.182 103.015 135.638 103.396C134.605 104.211 133.355 104.809 132.05 105.19C133.409 105.026 134.659 104.428 135.855 103.722C136.399 103.341 136.943 102.906 137.432 102.417C137.704 102.145 137.921 101.928 138.139 101.656C138.356 101.384 138.574 100.949 138.519 100.514C138.465 100.079 138.193 99.7531 137.976 99.4813C137.704 99.2095 137.432 98.992 137.16 98.7746C136.562 98.394 135.964 98.0678 135.366 97.796C134.116 97.198 132.865 96.7087 131.669 96.1107C131.071 95.8389 130.473 95.5127 129.984 95.1322C129.495 94.7516 129.06 94.2623 129.06 93.8274C129.06 93.3381 129.495 92.7945 129.93 92.3596C130.419 91.9247 130.908 91.5441 131.452 91.1636C132.539 90.4025 133.735 89.8045 134.986 89.2065C136.182 88.7172 137.432 88.1735 138.628 87.6299Z" fill="#2896FF"/>
<path d="M131.506 73.3325C131.506 73.713 131.832 74.0392 132.213 74.0392C132.593 74.0392 132.919 73.713 132.919 73.3325C132.919 72.9519 132.593 72.6257 132.213 72.6257C131.832 72.6257 131.506 72.9519 131.506 73.3325Z" fill="#2896FF"/>
<path d="M141.673 56.2624L143.63 65.0694C146.185 65.015 152.111 63.4385 155.481 61.7532C153.687 55.7731 148.958 40.0618 144.228 36.9087C142.651 35.8214 133.736 33.5925 130.419 33.5381C126.56 33.4837 115.469 35.7127 114.763 36.365C104.542 46.3681 104.053 67.0809 104.053 67.0809L116.937 68.0051C116.937 68.0051 117.046 67.6245 117.155 66.9178C117.426 69.2011 117.644 70.6689 117.644 70.6689C117.644 70.7233 117.589 70.7233 117.589 70.7776C107.315 86.7608 109.272 118.238 109.272 118.238C120.851 120.086 139.009 120.521 149.773 118.564C152.002 107.039 145.261 84.858 139.933 65.3956L141.673 56.2624Z" fill="#FC5954"/>
<path d="M138.791 69.418L139.063 69.6898C139.117 69.8529 139.117 69.9616 139.172 70.1247C137.595 71.6469 133.083 73.0604 127.81 73.0604C124.493 73.0604 120.851 72.5167 117.48 71.1033L117.644 70.7771C117.698 70.6683 117.807 70.5596 117.861 70.4509C126.831 74.0389 137.052 71.4838 138.791 69.418Z" fill="#E69632"/>
<path d="M124.221 34.1901C123.841 34.7338 123.623 35.3318 123.623 35.9298C123.623 38.3218 126.504 41.3119 130.092 41.3119C133.68 41.3119 136.562 38.3218 136.562 35.9298C136.562 35.3861 136.399 34.8969 136.127 34.4076C133.844 33.9183 131.615 33.5378 130.31 33.4834C129.005 33.5378 126.667 33.8096 124.221 34.1901Z" fill="#FC8867"/>
<path d="M133.03 31.6355H128.246L127.648 35.6585C127.376 37.3981 128.735 38.9203 130.475 38.9203C132.106 38.9203 133.411 37.5068 133.302 35.8759L133.03 31.6355Z" fill="#FC8867"/>
<path d="M128.299 31.5812C128.462 32.9946 129.658 34.0819 131.126 34.0819C131.941 34.0819 132.702 33.7557 133.192 33.2121L132.865 28.8086H128.679L128.299 31.5812Z" fill="#32285F"/>
<path d="M126.016 21.7957C126.071 22.9373 126.125 24.3508 125.146 24.4051C124.168 24.4595 123.026 22.448 122.917 21.3064C122.863 20.1647 123.461 19.8385 124.494 19.7842C125.473 19.7842 125.962 20.654 126.016 21.7957Z" fill="#FC8867"/>
<path d="M136.183 21.7957C136.129 22.9373 136.074 24.3508 137.053 24.4051C138.032 24.4595 139.173 22.448 139.282 21.3064C139.336 20.1647 138.738 19.8385 137.705 19.7842C136.672 19.7842 136.238 20.654 136.183 21.7957Z" fill="#FC8867"/>
<path d="M137.813 21.7956C137.813 26.8515 135.258 29.5153 133.301 31.1463C132.486 31.853 129.931 31.853 129.061 31.2006C127.104 29.7328 124.494 27.232 124.494 21.85C124.494 15.9243 127.702 13.5322 131.181 13.5322C134.66 13.5322 137.813 15.9243 137.813 21.7956Z" fill="#FC8867"/>
<path d="M138.737 14.2924C138.737 14.1293 138.629 13.9662 138.737 13.8575C138.737 13.8575 138.737 13.8575 138.737 13.8031C139.335 13.042 137.704 10.4326 134.878 11.1393C134.878 11.1393 134.878 11.1393 134.823 11.1393C133.79 11.4111 132.757 11.3024 131.779 10.9218C131.126 10.65 130.148 10.4326 128.897 10.5413C126.614 10.7587 125.744 12.5528 125.744 12.5528C125.473 12.7702 125.201 12.9877 124.929 13.2051C122.591 15.3253 123.026 19.6201 123.026 19.6201C123.896 19.7832 124.548 20.5443 124.548 21.4685V23.3713C124.548 23.5344 124.711 23.6975 124.875 23.6975C125.038 23.6975 125.201 23.5344 125.201 23.3713L125.255 22.1752C125.309 20.8705 126.234 19.7832 127.484 19.457C128.245 19.2396 129.006 18.9134 129.604 18.3154C130.528 17.4456 130.963 16.7932 131.181 16.467C130.42 19.0765 127.701 21.0336 127.701 21.0336C131.67 20.2725 133.627 17.065 134.225 15.869C135.258 16.4126 136.019 17.3368 136.563 18.3154C137.052 19.1852 137.324 20.1638 137.324 21.1423V23.5344C137.324 23.6974 137.487 23.8605 137.65 23.8605C137.813 23.8605 137.976 23.6974 137.976 23.5344V22.3383C137.976 21.9034 138.139 21.5229 138.357 21.1967C139.553 19.6745 138.683 17.7717 138.737 14.2924Z" fill="#32285F"/>
<path d="M117.371 38.2129C117.371 38.2129 120.361 43.9211 119.437 49.6838" stroke="#DC1428" stroke-width="0.543643" stroke-miterlimit="10"/>
<path d="M124.602 53.0002C124.602 53.0002 136.725 50.9343 135.638 53.0002C134.55 55.066 124.384 55.664 126.667 57.6212C128.951 59.5783 132.919 59.5239 132.919 59.5239" stroke="#DC1428" stroke-width="0.543643" stroke-miterlimit="10"/>
<path d="M143.629 38.2129C143.629 38.2129 140.367 44.4648 141.998 54.5766" stroke="#DC1428" stroke-width="0.543643" stroke-miterlimit="10"/>
<path d="M142.814 60.9913C146.076 60.1215 149.121 59.0886 151.73 57.8926" stroke="#E69632" stroke-width="0.543643" stroke-miterlimit="10"/>
<path d="M140.368 52.0759H118.514V72.3538H140.368V52.0759Z" fill="#1C9585"/>
<path d="M123.624 33.9727L121.123 34.2988C121.938 36.419 120.742 45.7153 120.09 53.2176H123.624C123.841 45.7697 124.711 35.5492 123.624 33.9727Z" fill="#1C9585"/>
<path d="M146.129 59.7959H119.6V66.8633H146.129V59.7959Z" fill="#FAC855"/>
<path d="M139.444 34.4076L137.378 34.1357C136.073 36.5278 136.128 45.1717 135.91 53.2176H139.444C139.118 45.7153 138.465 36.9083 139.444 34.4076Z" fill="#1C9585"/>
<path d="M143.468 32.9941C143.468 32.9941 143.848 33.9183 144.827 34.4076C145.968 35.0056 144.609 37.0171 143.576 35.7667C142.598 34.5707 143.468 32.9941 143.468 32.9941Z" fill="#DC1428"/>
<path d="M138.574 33.4835C140.586 33.5378 142.489 32.2331 143.304 30.3847C143.739 29.4062 143.902 28.2645 143.195 27.3403C141.51 25.2745 140.966 29.2974 140.966 29.2974C140.966 29.2974 140.042 25.2745 137.922 26.253C135.747 27.2316 137.922 30.6565 137.922 30.6565C137.922 30.6565 135.313 29.4062 135.204 30.6565C135.095 31.6351 136.019 33.4291 138.574 33.4835Z" fill="#FC5954"/>
<path d="M143.576 31.5806C143.576 31.5806 139.39 28.2101 136.128 34.3532C132.92 40.442 129.658 44.7912 126.07 42.9971C122.482 41.2031 117.1 40.4964 115.904 42.5079C115.904 42.5079 119.492 43.1059 119.601 47.0745C119.71 51.0431 122.863 58.6541 132.648 58.8172C141.89 58.9803 148.197 52.5653 145.478 44.8455C142.706 37.1258 143.793 33.7552 143.793 33.7552L143.576 31.5806Z" fill="white"/>
<path d="M136.508 37.0715C136.508 37.0715 131.616 41.3663 132.92 43.9214C134.225 46.4222 137.596 41.312 137.596 41.312C137.596 41.312 135.584 46.5853 138.194 47.89C140.803 49.1948 141.184 42.508 141.184 42.508C141.184 42.508 140.966 47.89 143.195 48.0531C145.479 48.2162 143.413 41.0401 142.489 39.6267" stroke="#F0E1D3" stroke-width="0.543643" stroke-miterlimit="10"/>
<path d="M134.115 49.4127C134.115 49.4127 128.353 58.2741 122.373 50.8262C116.393 43.3782 132.702 47.4556 132.702 47.4556" stroke="#F0E1D3" stroke-width="0.543643" stroke-miterlimit="10"/>
<path d="M144.228 33.1025C144.228 33.1025 143.575 34.2986 143.793 35.8208C144.065 37.6691 140.803 37.5604 141.346 35.3858C141.836 33.2113 144.228 33.1025 144.228 33.1025Z" fill="#FC5954"/>
<path d="M143.848 32.5045C143.848 33.2656 143.196 33.918 142.435 33.918C141.674 33.918 141.021 33.2656 141.021 32.5045C141.021 31.7434 141.674 31.0911 142.435 31.0911C143.196 31.0367 143.848 31.6891 143.848 32.5045Z" fill="#FC5954"/>
<path d="M145.587 31.7982L143.793 31.5807L143.032 31.2002C143.032 31.2002 142.923 33.266 143.793 33.6466C144.391 33.5379 145.043 33.0486 145.75 32.2875C145.967 32.1244 145.859 31.8526 145.587 31.7982Z" fill="#FAC855"/>
<path d="M121.178 50.9343H117.535V72.5713H121.178V50.9343Z" fill="#A55A3C"/>
<path d="M148.359 50.9343H144.717V72.5713H148.359V50.9343Z" fill="#A55A3C"/>
<path d="M141.346 70.5596H120.959V101.602C120.959 102.471 121.557 103.178 122.372 103.396C129.766 105.19 138.029 105.298 148.141 101.819C148.467 101.71 148.739 101.493 148.957 101.275C147.271 91.8704 144.227 80.9975 141.346 70.5596Z" fill="url(#paint2_linear_1720_8791)"/>
<path d="M137.324 51.3153C134.66 53.0549 131.398 53.2724 128.571 51.8589C124.277 49.7387 118.133 47.4554 115.905 50.3911C112.317 55.0664 118.242 58.3283 121.776 58.1108C125.31 57.8934 137.433 57.2953 137.433 57.2953C137.433 57.2953 149.067 61.6445 150.48 53.5442C151.731 46.4225 147.381 44.7372 137.324 51.3153Z" fill="#FAC855"/>
<path d="M145.641 100.841C135.529 104.32 127.266 104.211 119.872 102.417C119.057 102.2 118.459 101.493 118.459 100.623V69.5811H140.313L146.837 98.666C147.109 99.5902 146.565 100.514 145.641 100.841Z" fill="#1C9585"/>
<path d="M121.178 50.9343H117.535V72.5713H121.178V50.9343Z" fill="#783C28"/>
<path d="M148.359 50.9343H144.717V72.5713H148.359V50.9343Z" fill="#783C28"/>
<path d="M152.382 64.6882H113.131V73.604H152.382V64.6882Z" fill="#A55A3C"/>
<path d="M152.382 53.2175H113.131V62.1333H152.382V53.2175Z" fill="#A55A3C"/>
<path d="M122.97 58.5453C122.97 58.5453 127.591 59.3064 127.156 57.9473C126.721 56.5882 120.904 56.9687 120.197 57.9473C119.491 58.9259 127.645 61.1004 133.843 59.5239" stroke="#783C28" stroke-width="0.543643" stroke-miterlimit="10"/>
<path d="M149.773 57.6751C149.773 57.6751 144.717 54.522 138.248 55.7724C134.388 56.5335 123.026 56.0985 118.459 52.5105" stroke="#783C28" stroke-width="0.543643" stroke-miterlimit="10"/>
<path d="M120.688 18.2619C122.047 15.5437 125.961 13.5866 130.528 13.5866C135.149 13.5866 139.063 15.5437 140.368 18.2619H147.381C150.153 14.0758 150.588 9.50923 148.142 7.06284C147 5.92119 144.771 6.08428 142.433 6.73665C137.269 8.15012 131.941 8.42194 126.613 7.93266C126.07 7.8783 125.526 7.87831 124.982 7.87831C117.643 7.87831 111.5 12.3362 110.195 18.2619H120.688Z" fill="#FAC855"/>
<path d="M109.761 64.4168C112.642 64.6887 130.31 67.8961 130.093 69.7445C129.93 71.5929 110.63 72.8977 107.749 72.6258C104.868 72.354 103.672 69.5814 103.835 67.7331C104.107 65.8847 106.879 64.145 109.761 64.4168Z" fill="#FC8867"/>
<path d="M132.701 70.234L131.886 70.2884L126.341 70.9407L125.199 67.5158L128.515 66.2654L131.505 64.417C131.669 64.3083 133.463 63.9277 133.463 63.9277C133.734 63.9821 133.843 64.3083 133.626 64.4714C133.3 64.7432 132.865 64.9607 132.43 64.9607L131.234 65.6674L134.278 64.7976L135.855 64.6345C136.126 64.5801 136.453 64.6888 136.724 64.8519C136.779 64.9063 136.833 64.9607 136.833 65.015C136.833 65.0694 136.833 65.1781 136.779 65.2325C136.561 65.4499 136.29 65.5587 135.963 65.613L134.496 65.7761L132.267 66.4285C132.212 66.4285 132.212 66.4829 132.212 66.5372C132.212 66.5372 132.212 66.5916 132.267 66.5916H132.321L134.332 66.1023L135.909 65.9392C136.181 65.8848 136.507 65.9936 136.779 66.1567C136.833 66.211 136.888 66.2654 136.888 66.3198C136.888 66.3741 136.888 66.4829 136.833 66.5372C136.616 66.7547 136.344 66.8634 136.018 66.9178L134.55 67.0809L132.212 67.7332C132.158 67.7332 132.103 67.7876 132.103 67.842C132.103 67.8963 132.103 67.9507 132.158 67.9507C132.212 68.0051 132.267 68.0051 132.321 68.0051L133.843 67.5701L135.42 67.2983C135.692 67.244 136.018 67.2983 136.29 67.4614C136.344 67.5158 136.398 67.5701 136.398 67.6245C136.398 67.6789 136.398 67.7876 136.344 67.842C136.126 68.0594 135.855 68.2225 135.583 68.2225L134.115 68.44L132.267 69.0923C132.212 69.0923 132.212 69.1467 132.212 69.1467C132.212 69.2011 132.212 69.2011 132.267 69.2011L132.484 69.2554L134.061 68.9836L135.094 68.4943C135.42 68.3856 135.692 68.44 135.909 68.7118C136.018 68.8205 135.963 68.9836 135.8 69.038L134.441 69.7447L132.701 70.234Z" fill="#FC8867"/>
<path d="M125.036 170.862H116.012V173.363H125.036V170.862Z" fill="#32285F"/>
<path d="M149.011 168.905H133.518V171.406H149.011V168.905Z" fill="#32285F"/>
<path d="M125.036 154.39H117.48L118.295 163.197L116.012 170.862H125.036V154.39Z" fill="#E69632"/>
<path d="M121.938 167.601H119.383V154.499C119.383 153.901 119.872 153.466 120.416 153.466H122.427C123.025 153.466 123.46 153.955 123.46 154.499L121.938 167.601Z" fill="#FAC855"/>
<path d="M118.73 165.263C118.73 165.263 120.416 164.23 122.699 165.263" stroke="white" stroke-width="0.543643" stroke-miterlimit="10"/>
<path d="M120.524 164.936C118.023 164.936 116.012 166.948 116.012 169.449V170.916H125.036V169.449C125.036 166.948 123.025 164.936 120.524 164.936Z" fill="#FAC855"/>
<path d="M119.057 163.631L122.971 162.218" stroke="white" stroke-width="0.543643" stroke-miterlimit="10"/>
<path d="M119.057 160.914L123.188 159.392" stroke="white" stroke-width="0.543643" stroke-miterlimit="10"/>
<path d="M119.057 157.651L123.623 155.966" stroke="white" stroke-width="0.543643" stroke-miterlimit="10"/>
<path d="M122.808 163.631L118.84 162.218" stroke="white" stroke-width="0.543643" stroke-miterlimit="10"/>
<path d="M123.188 160.914L119.057 159.392" stroke="white" stroke-width="0.543643" stroke-miterlimit="10"/>
<path d="M123.406 157.651L118.84 155.966" stroke="white" stroke-width="0.543643" stroke-miterlimit="10"/>
<path d="M148.957 167.22C148.957 164.828 147.054 162.925 144.662 162.925H141.835V152.977H133.463L134.387 162.218L133.463 168.905H141.835H148.957V167.22Z" fill="#E69632"/>
<path d="M145.967 163.142C144.119 163.686 142.76 165.426 142.76 167.437V168.905H149.012V167.22C148.957 165.317 147.707 163.686 145.967 163.142Z" fill="#FAC855"/>
<path d="M138.192 152.813L139.225 160.967C139.443 162.816 140.911 164.284 142.705 164.555L145.858 165.045L146.184 163.196L145.423 162.925C144.988 162.761 144.499 162.707 144.064 162.598C142.868 162.327 141.998 161.239 142.107 159.934L142.759 152.813C142.813 152.269 142.379 151.834 141.835 151.834H139.117C138.519 151.78 138.084 152.269 138.192 152.813Z" fill="#FAC855"/>
<path d="M145.423 162.925C145.423 162.925 144.553 162.707 142.705 164.773" stroke="white" stroke-width="0.543643" stroke-miterlimit="10"/>
<path d="M139.824 162.653L144.663 162.599" stroke="white" stroke-width="0.543643" stroke-miterlimit="10"/>
<path d="M142.597 161.402L141.184 164.175" stroke="white" stroke-width="0.543643" stroke-miterlimit="10"/>
<path d="M138.139 159.065L142.162 160.153" stroke="white" stroke-width="0.543643" stroke-miterlimit="10"/>
<path d="M142.543 158.195L138.629 160.914" stroke="white" stroke-width="0.543643" stroke-miterlimit="10"/>
<path d="M137.867 155.531L142.434 157.325" stroke="white" stroke-width="0.543643" stroke-miterlimit="10"/>
<path d="M142.542 155.26L138.139 157.652" stroke="white" stroke-width="0.543643" stroke-miterlimit="10"/>
<path d="M156.513 69.3093C156.132 67.5152 154.447 65.5038 151.185 66.2105C149.119 66.6454 138.953 71.6469 138.301 71.9731C138.301 72.1362 138.355 72.2449 138.355 72.408V75.5068H138.899C139.008 75.5068 139.171 75.5068 139.279 75.5612C139.334 75.5612 149.174 75.6155 152.544 74.2564C154.447 73.4409 157.111 72.1906 156.513 69.3093Z" fill="#FC8867"/>
<path d="M138.247 71.973C138.247 71.973 134.007 70.179 131.941 71.2119C131.125 71.6468 130.201 71.7555 129.658 71.7555C129.44 71.7555 129.331 72.0273 129.495 72.1904C129.875 72.6797 130.527 72.8428 131.125 72.6797L131.723 72.4623C131.723 72.5166 138.03 74.6368 138.247 71.973Z" fill="#FC8867"/>
<path d="M138.846 71.7012L135.529 72.7341C134.007 73.2234 132.485 73.4408 130.908 73.4952L127.32 73.5496C127.32 73.5496 128.353 74.963 132.05 75.2349C132.757 75.2892 134.061 75.6154 134.714 75.6154C135.312 75.6154 139.498 75.5067 139.498 75.5067L138.846 71.7012Z" fill="#FC8867"/>
<path d="M113.947 118.89C113.947 118.89 110.359 96.1109 116.013 75.6699" stroke="#DC1428" stroke-width="0.543643" stroke-miterlimit="10"/>
<path d="M113.947 47.1836C113.947 47.1836 122.156 48.2165 126.451 52.5113" stroke="#FAC855" stroke-width="0.543643" stroke-miterlimit="10"/>
<path d="M108.238 50.9344C108.238 50.9344 111.989 48.2161 116.012 48.9772" stroke="#FAC855" stroke-width="0.543643" stroke-miterlimit="10"/>
<path d="M121.178 47.1836C121.178 47.1836 123.352 48.7058 126.071 50.9347" stroke="#FAC855" stroke-width="0.543643" stroke-miterlimit="10"/>
<path d="M128.734 49.0859C128.734 49.0859 124.657 50.6625 123.732 52.076" stroke="#FAC855" stroke-width="0.543643" stroke-miterlimit="10"/>
<path d="M129.875 50.554C129.875 50.554 132.811 53.6527 137.812 52.0218" stroke="#FAC855" stroke-width="0.543643" stroke-miterlimit="10"/>
<path d="M140.966 48.0527C140.966 48.0527 137.541 50.5535 136.889 52.2932" stroke="#FAC855" stroke-width="0.543643" stroke-miterlimit="10"/>
<path d="M151.295 47.6185C151.295 47.6185 148.468 44.411 142.76 48.8689" stroke="#FAC855" stroke-width="0.543643" stroke-miterlimit="10"/>
<path d="M152.056 46.3682C152.056 46.3682 153.632 49.5757 150.262 51.5328" stroke="#FAC855" stroke-width="0.543643" stroke-miterlimit="10"/>
<path d="M154.068 50.1729C154.068 50.1729 150.969 51.5863 149.773 52.8367" stroke="#FAC855" stroke-width="0.543643" stroke-miterlimit="10"/>
<path d="M152.927 55.7729C152.927 55.7729 151.404 53.109 149.447 51.6956" stroke="#FAC855" stroke-width="0.543643" stroke-miterlimit="10"/>
<path d="M149.773 54.5767L150.263 50.9343" stroke="#FAC855" stroke-width="0.543643" stroke-miterlimit="10"/>
<path d="M114.762 57.4039L116.012 52.8373C115.36 51.0432 111.445 50.554 111.445 50.554" stroke="#FAC855" stroke-width="0.543643" stroke-miterlimit="10"/>
<path d="M117.534 55.0661L116.773 52.0217C116.773 52.0217 113.294 52.8372 112.152 55.501" stroke="#FAC855" stroke-width="0.543643" stroke-miterlimit="10"/>
<path d="M151.947 62.7861H143.629" stroke="#FAC855" stroke-width="0.543643" stroke-miterlimit="10"/>
<path d="M154.068 61.4268C154.068 61.4268 147.382 62.7315 145.859 64.8517" stroke="#FAC855" stroke-width="0.543643" stroke-miterlimit="10"/>
<path d="M150.697 65.5037C150.697 65.5037 149.61 63.6009 146.783 63.3291" stroke="#FAC855" stroke-width="0.543643" stroke-miterlimit="10"/>
<path d="M113.676 65.0148C113.676 65.0148 119.656 62.8946 121.776 63.3296" stroke="#FAC855" stroke-width="0.543643" stroke-miterlimit="10"/>
<path d="M110.793 62.46C110.793 62.46 118.132 63.058 120.198 65.5044" stroke="#FAC855" stroke-width="0.543643" stroke-miterlimit="10"/>
<path d="M117.753 60.9922L115.959 62.46" stroke="#FAC855" stroke-width="0.543643" stroke-miterlimit="10"/>
<path d="M139.77 63.873C139.77 63.873 143.194 64.5254 143.629 67.7873" stroke="#FAC855" stroke-width="0.543643" stroke-miterlimit="10"/>
<path d="M138.628 64.3623L138.52 66.8631" stroke="#FAC855" stroke-width="0.543643" stroke-miterlimit="10"/>
<path d="M142.598 62.7859C142.598 62.7859 144.99 61.1006 145.262 60.2852" stroke="#FAC855" stroke-width="0.543643" stroke-miterlimit="10"/>
<path d="M118.514 98.0684V98.612C120.199 99.1013 125.092 100.297 131.072 100.297C135.91 100.297 141.455 99.5362 146.511 96.9267L146.403 96.3831C134.932 102.254 121.178 98.8295 118.514 98.0684Z" fill="#177D74"/>
<path d="M126.07 76.7031L126.723 83.4987C126.886 85.0752 128.245 86.2713 129.876 86.2169L135.53 85.8907C137.215 85.782 138.52 84.3141 138.357 82.5745L137.759 76.7031" stroke="#177D74" stroke-width="0.543643" stroke-miterlimit="10"/>
<path d="M38.8159 101.33C39.8488 100.297 40.5556 98.7747 41.0448 97.5787C41.371 96.7632 40.6099 95.9478 39.7945 96.2196C38.979 96.437 37.9461 96.7089 36.6413 96.9263C35.3366 97.1438 34.9017 98.1223 34.8473 99.2096C29.6283 101.221 23.7026 102.417 17.0702 102.635C15.8198 102.689 14.6781 101.819 14.2976 100.623C14.0801 99.9164 13.5909 99.4271 12.6667 99.2096C11.4163 98.9922 10.3834 98.7203 9.56789 98.5029C8.75243 98.2854 7.99133 99.1009 8.26315 99.9163C8.48061 100.569 8.80679 101.275 9.24171 101.982C10.5465 104.32 10.927 107.038 10.5465 109.648C8.96989 120.086 10.4377 131.339 12.123 142.701H40.8274C42.8389 129.001 41.4254 112.42 38.8159 101.33Z" fill="#F0E1D3"/>
<path d="M35.174 100.134C35.174 100.134 22.8333 105.19 16.1465 103.831" stroke="#D8C5B6" stroke-width="0.543643" stroke-miterlimit="10"/>
<path d="M12.6659 106.603C12.6659 106.603 8.0449 124.434 16.1452 142.157" stroke="#D8C5B6" stroke-width="0.543643" stroke-miterlimit="10"/>
<path d="M38.924 101.928C38.4891 104.646 37.8368 107.419 37.0757 110.245C35.5535 115.519 31.1499 119.65 25.7135 120.357C23.5933 120.629 21.3644 120.412 19.1354 119.596L18.9723 120.085C20.712 120.738 22.3429 121.01 23.9195 121.01C24.1369 121.01 24.4088 121.01 24.6262 121.01C28.4317 120.792 30.8238 125.087 28.4317 128.077C26.5833 130.415 24.4088 132.426 21.9624 134.111C19.0811 136.123 15.1125 137.101 11.3613 137.047C11.6331 138.895 11.905 140.798 12.1768 142.647H40.8268C42.8383 129.273 41.4792 113.018 38.924 101.928Z" fill="#D8C5B6"/>
<path d="M57.2461 109.267C58.1159 108.397 58.7139 107.147 59.0401 106.168C59.3119 105.516 58.6596 104.863 58.0072 105.027C57.3548 105.19 56.485 105.407 55.4521 105.625C54.3648 105.842 54.0386 106.603 53.9842 107.473C49.6895 109.158 44.9054 110.082 39.4146 110.246C38.3817 110.3 37.4575 109.593 37.1313 108.615C36.9682 108.071 36.5333 107.636 35.7722 107.473C34.7393 107.256 33.8694 107.092 33.2171 106.875C32.5103 106.658 31.9123 107.364 32.1841 108.017C32.4016 108.56 32.6191 109.158 32.9452 109.702C34.0325 111.605 34.3587 113.834 34.0325 115.954C32.7278 124.489 33.9238 133.731 35.3373 143.027H58.877C60.5623 131.937 59.3663 118.346 57.2461 109.267Z" fill="#F0E1D3"/>
<path d="M54.2552 108.288C54.2552 108.288 44.1978 112.42 38.707 111.333" stroke="#D8C5B6" stroke-width="0.543643" stroke-miterlimit="10"/>
<path d="M35.8263 113.616C35.8263 113.616 32.0751 128.186 38.7076 142.701" stroke="#D8C5B6" stroke-width="0.543643" stroke-miterlimit="10"/>
<path d="M57.3558 109.756C56.9752 111.985 56.486 114.269 55.8336 116.552C54.5832 120.901 50.9952 124.217 46.5373 124.815C44.7976 125.033 42.9492 124.87 41.1552 124.217L40.9921 124.652C42.4056 125.196 43.7647 125.413 45.0151 125.413C45.2325 125.413 45.3956 125.413 45.6131 125.413C48.7119 125.25 50.669 128.784 48.7119 131.176C47.1897 133.079 45.45 134.764 43.4385 136.123C41.0465 137.754 37.839 138.569 34.7402 138.515C34.9577 140.037 35.1751 141.559 35.3926 143.136H58.9324C60.5089 132.154 59.3673 118.835 57.3558 109.756Z" fill="#D8C5B6"/>
<path d="M10.9814 119.868H4.24023V144.386H10.9814V119.868Z" fill="#E69632"/>
<path d="M62.0849 119.868H55.3438V144.386H62.0849V119.868Z" fill="#E69632"/>
<path d="M64.4766 149.986L86.929 95.8389C87.3096 94.8604 88.2881 94.208 89.3754 94.208H98.9435" stroke="#FC5954" stroke-width="2.17457" stroke-miterlimit="10"/>
<path d="M64.8569 121.499H2.01172V127.914H64.8569V121.499Z" fill="#FAC855"/>
<path d="M64.8569 129.708H2.01172V136.123H64.8569V129.708Z" fill="#FAC855"/>
<path d="M58.7132 142.157H6.52344V147.54H58.7132V142.157Z" fill="#E69632"/>
<path d="M64.8569 137.972H2.01172V144.387H64.8569V137.972Z" fill="#FAC855"/>
<path d="M64.9661 152.106H51.7012V147.159H64.9117C66.2708 147.159 67.3581 148.246 67.3581 149.606C67.4125 151.019 66.3252 152.106 64.9661 152.106Z" fill="#2896FF"/>
<path d="M15.2763 158.195C18.6391 158.195 21.3651 155.469 21.3651 152.106C21.3651 148.744 18.6391 146.018 15.2763 146.018C11.9135 146.018 9.1875 148.744 9.1875 152.106C9.1875 155.469 11.9135 158.195 15.2763 158.195Z" fill="#783C28"/>
<path d="M18.4293 152.107C18.4293 153.846 17.0158 155.26 15.2762 155.26C13.5365 155.26 12.123 153.846 12.123 152.107C12.123 150.367 13.5365 148.954 15.2762 148.954C17.0158 148.899 18.4293 150.313 18.4293 152.107Z" fill="#F0E1D3"/>
<path d="M16.1453 152.107C16.1453 152.596 15.7647 153.031 15.2211 153.031C14.7318 153.031 14.2969 152.65 14.2969 152.107C14.2969 151.563 14.6774 151.183 15.2211 151.183C15.7647 151.183 16.1453 151.618 16.1453 152.107Z" fill="#A55A3C"/>
<path d="M51.538 158.195C54.9008 158.195 57.6268 155.469 57.6268 152.106C57.6268 148.744 54.9008 146.018 51.538 146.018C48.1753 146.018 45.4492 148.744 45.4492 152.106C45.4492 155.469 48.1753 158.195 51.538 158.195Z" fill="#783C28"/>
<path d="M54.7457 152.107C54.7457 153.846 53.3322 155.26 51.5926 155.26C49.8529 155.26 48.4395 153.846 48.4395 152.107C48.4395 150.367 49.8529 148.954 51.5926 148.954C53.3322 148.899 54.7457 150.313 54.7457 152.107Z" fill="#F0E1D3"/>
<path d="M51.5375 153.031C52.0479 153.031 52.4617 152.617 52.4617 152.107C52.4617 151.596 52.0479 151.183 51.5375 151.183C51.0271 151.183 50.6133 151.596 50.6133 152.107C50.6133 152.617 51.0271 153.031 51.5375 153.031Z" fill="#A55A3C"/>
<path d="M90.2441 94.208H99.921" stroke="#DC1428" stroke-width="3.26186" stroke-miterlimit="10" stroke-linecap="round"/>
<path d="M61.1062 123.836C61.1062 124.162 60.8343 124.434 60.5082 124.434C60.182 124.434 59.9102 124.162 59.9102 123.836C59.9102 123.51 60.182 123.238 60.5082 123.238C60.8343 123.238 61.1062 123.456 61.1062 123.836Z" fill="#783C28"/>
<path d="M61.1062 125.522C61.1062 125.848 60.8343 126.12 60.5082 126.12C60.182 126.12 59.9102 125.848 59.9102 125.522C59.9102 125.196 60.182 124.924 60.5082 124.924C60.8343 124.924 61.1062 125.196 61.1062 125.522Z" fill="#783C28"/>
<path d="M61.1062 132.045C61.1062 132.371 60.8343 132.643 60.5082 132.643C60.182 132.643 59.9102 132.371 59.9102 132.045C59.9102 131.719 60.182 131.447 60.5082 131.447C60.8343 131.447 61.1062 131.719 61.1062 132.045Z" fill="#783C28"/>
<path d="M61.1062 133.785C61.1062 134.111 60.8343 134.383 60.5082 134.383C60.182 134.383 59.9102 134.111 59.9102 133.785C59.9102 133.458 60.182 133.187 60.5082 133.187C60.8343 133.187 61.1062 133.458 61.1062 133.785Z" fill="#783C28"/>
<path d="M61.1062 140.309C61.1062 140.635 60.8343 140.907 60.5082 140.907C60.182 140.907 59.9102 140.635 59.9102 140.309C59.9102 139.983 60.182 139.711 60.5082 139.711C60.8343 139.711 61.1062 139.983 61.1062 140.309Z" fill="#783C28"/>
<path d="M61.1062 142.048C61.1062 142.374 60.8343 142.646 60.5082 142.646C60.182 142.646 59.9102 142.374 59.9102 142.048C59.9102 141.722 60.182 141.45 60.5082 141.45C60.8343 141.45 61.1062 141.722 61.1062 142.048Z" fill="#783C28"/>
<path d="M6.74094 123.836C6.74094 124.162 6.46911 124.434 6.14293 124.434C5.81674 124.434 5.54492 124.162 5.54492 123.836C5.54492 123.51 5.81674 123.238 6.14293 123.238C6.46911 123.238 6.74094 123.456 6.74094 123.836Z" fill="#783C28"/>
<path d="M6.74094 125.522C6.74094 125.848 6.46911 126.12 6.14293 126.12C5.81674 126.12 5.54492 125.848 5.54492 125.522C5.54492 125.196 5.81674 124.924 6.14293 124.924C6.46911 124.924 6.74094 125.196 6.74094 125.522Z" fill="#783C28"/>
<path d="M6.74094 132.045C6.74094 132.371 6.46911 132.643 6.14293 132.643C5.81674 132.643 5.54492 132.371 5.54492 132.045C5.54492 131.719 5.81674 131.447 6.14293 131.447C6.46911 131.447 6.74094 131.719 6.74094 132.045Z" fill="#783C28"/>
<path d="M6.74094 133.785C6.74094 134.111 6.46911 134.383 6.14293 134.383C5.81674 134.383 5.54492 134.111 5.54492 133.785C5.54492 133.458 5.81674 133.187 6.14293 133.187C6.46911 133.187 6.74094 133.458 6.74094 133.785Z" fill="#783C28"/>
<path d="M6.74094 140.309C6.74094 140.635 6.46911 140.907 6.14293 140.907C5.81674 140.907 5.54492 140.635 5.54492 140.309C5.54492 139.983 5.81674 139.711 6.14293 139.711C6.46911 139.711 6.74094 139.983 6.74094 140.309Z" fill="#783C28"/>
<path d="M6.74094 142.048C6.74094 142.374 6.46911 142.646 6.14293 142.646C5.81674 142.646 5.54492 142.374 5.54492 142.048C5.54492 141.722 5.81674 141.45 6.14293 141.45C6.46911 141.45 6.74094 141.722 6.74094 142.048Z" fill="#783C28"/>
<path d="M268.234 156.075C288.349 91.5986 271.55 55.1201 271.55 55.1201L266.168 156.075H268.234Z" fill="#177D74"/>
<path d="M302.918 55.7724C302.918 55.7724 262.852 107.527 258.285 156.564H259.59C262.091 147.376 267.038 131.991 273.67 127.914C283.238 122.043 299.058 118.726 296.884 107.908C295.742 102.254 298.352 96.4913 303.299 93.5013C306.126 91.816 308.681 89.5327 309.061 86.597C309.442 83.9332 309.225 80.6169 308.844 77.5182C308.246 72.5167 310.638 67.6239 314.987 65.0687C318.575 62.9485 322 59.5236 322 54.2502C322.055 43.323 307.322 49.6836 302.918 55.7724Z" fill="#1C9585"/>
<path d="M302.918 55.7724C302.918 55.7724 262.852 107.527 258.285 156.564H259.59C262.091 147.376 267.038 131.991 273.67 127.914C283.238 122.043 299.058 118.726 296.884 107.908C295.742 102.254 298.352 96.4913 303.299 93.5013C306.126 91.816 308.681 89.5327 309.061 86.597C309.442 83.9332 309.225 80.6169 308.844 77.5182C308.246 72.5167 310.638 67.6239 314.987 65.0687C318.575 62.9485 322 59.5236 322 54.2502C322.055 43.323 307.322 49.6836 302.918 55.7724Z" fill="url(#paint3_linear_1720_8791)"/>
<path d="M250.24 113.997L256.546 158.195C261.004 132.426 250.24 113.997 250.24 113.997Z" fill="#1C9585"/>
<path d="M246.543 155.422C250.675 152.377 257.253 149.17 262.907 154.063C265.951 156.237 269.865 156.727 273.399 155.531C275.356 154.878 277.476 154.498 278.998 155.259C280.412 155.965 282.695 156.727 284.924 157.379C285.848 157.651 285.685 159.064 284.707 159.064H247.848C245.836 159.064 244.966 156.618 246.543 155.422Z" fill="#E69632"/>
<defs>
<linearGradient id="paint0_linear_1720_8791" x1="211.976" y1="166.307" x2="183.58" y2="166.071" gradientUnits="userSpaceOnUse">
<stop stop-color="#CCC1BA" stop-opacity="0"/>
<stop offset="0.9962" stop-color="#CCC1BA"/>
</linearGradient>
<linearGradient id="paint1_linear_1720_8791" x1="84.4684" y1="153.216" x2="90.5283" y2="146.797" gradientUnits="userSpaceOnUse">
<stop stop-color="#177D74" stop-opacity="0"/>
<stop offset="0.9962" stop-color="#177D74"/>
</linearGradient>
<linearGradient id="paint2_linear_1720_8791" x1="152.147" y1="101.526" x2="135.867" y2="89.9146" gradientUnits="userSpaceOnUse">
<stop stop-color="#DC1428" stop-opacity="0"/>
<stop offset="0.9978" stop-color="#DC1428"/>
</linearGradient>
<linearGradient id="paint3_linear_1720_8791" x1="271.626" y1="72.562" x2="307.845" y2="134.464" gradientUnits="userSpaceOnUse">
<stop stop-color="#177D74" stop-opacity="0"/>
<stop offset="0.9962" stop-color="#177D74"/>
</linearGradient>
</defs>
</svg>
