<svg width="74" height="73" viewBox="0 0 74 73" fill="none" xmlns="http://www.w3.org/2000/svg">
<g clip-path="url(#clip0_1720_9181)">
<path d="M103.601 49.3313H-27.5039V73.0844H103.601V49.3313Z" fill="#078783"/>
<path d="M103.601 50.5889H-27.5039V51.1369H103.601V50.5889Z" fill="#00666C"/>
<path d="M103.601 53.9854H-27.5039V54.5334H103.601V53.9854Z" fill="#00666C"/>
<path d="M103.601 57.3818H-27.5039V57.9299H103.601V57.3818Z" fill="#00666C"/>
<path d="M103.601 60.781H-27.5039V61.3291H103.601V60.781Z" fill="#00666C"/>
<path d="M103.601 64.1804H-27.5039V64.7285H103.601V64.1804Z" fill="#00666C"/>
<path d="M103.601 67.5769H-27.5039V68.125H103.601V67.5769Z" fill="#00666C"/>
<path d="M103.601 70.9734H-27.5039V71.5215H103.601V70.9734Z" fill="#00666C"/>
<path d="M24.7861 67.7469C24.7861 67.7469 23.2575 65.9788 23.8001 65.7062C24.3428 65.4336 25.064 67.4335 25.064 67.4335C25.064 67.4335 25.1166 65.8957 25.8232 65.8068C26.5297 65.7179 25.5482 67.7294 25.5482 67.7294L24.7861 67.7469Z" fill="#00666C"/>
<path d="M24.7861 67.7469C24.7861 67.7469 23.2575 65.9788 23.8001 65.7062C24.3428 65.4336 25.064 67.4335 25.064 67.4335C25.064 67.4335 25.1166 65.8957 25.8232 65.8068C26.5297 65.7179 25.5482 67.7294 25.5482 67.7294L24.7861 67.7469Z" fill="#00666C"/>
<path d="M24.7861 67.7469C24.7861 67.7469 23.2575 65.9788 23.8001 65.7062C24.3428 65.4336 25.064 67.4335 25.064 67.4335C25.064 67.4335 25.1166 65.8957 25.8232 65.8068C26.5297 65.7179 25.5482 67.7294 25.5482 67.7294L24.7861 67.7469Z" fill="#00666C"/>
<path d="M6.45011 67.7469C6.45011 67.7469 4.92152 65.9788 5.46421 65.7062C6.00689 65.4336 6.72804 67.4335 6.72804 67.4335C6.72804 67.4335 6.7807 65.8957 7.48722 65.8068C8.19374 65.7179 7.21222 67.7294 7.21222 67.7294L6.45011 67.7469Z" fill="#00666C"/>
<path d="M26.5737 61.0466C26.5737 61.0466 24.5492 58.7057 25.2674 58.3486C25.9857 57.9915 26.9408 60.6356 26.9408 60.6356C26.9408 60.6356 27.0096 58.5949 27.9443 58.4827C28.879 58.3705 27.5815 61.0277 27.5815 61.0277L26.5737 61.0466Z" fill="#00666C"/>
<path d="M26.5737 61.0466C26.5737 61.0466 24.5492 58.7057 25.2674 58.3486C25.9857 57.9915 26.9408 60.6356 26.9408 60.6356C26.9408 60.6356 27.0096 58.5949 27.9443 58.4827C28.879 58.3705 27.5815 61.0277 27.5815 61.0277L26.5737 61.0466Z" fill="#00666C"/>
<path d="M26.5737 61.0466C26.5737 61.0466 24.5492 58.7057 25.2674 58.3486C25.9857 57.9915 26.9408 60.6356 26.9408 60.6356C26.9408 60.6356 27.0096 58.5949 27.9443 58.4827C28.879 58.3705 27.5815 61.0277 27.5815 61.0277L26.5737 61.0466Z" fill="#00666C"/>
<path d="M8.23776 61.0466C8.23776 61.0466 6.21328 58.7057 6.9315 58.3486C7.64972 57.9915 8.60491 60.6356 8.60491 60.6356C8.60491 60.6356 8.67366 58.5949 9.60837 58.4827C10.5431 58.3705 9.2456 61.0277 9.2456 61.0277L8.23776 61.0466Z" fill="#00666C"/>
<path d="M58.5857 54.1608C58.5857 54.1608 56.5232 51.7762 57.2546 51.4118C57.986 51.0474 58.9587 53.744 58.9587 53.744C58.9587 53.744 59.0304 51.6698 59.9827 51.5488C60.9349 51.4278 59.6111 54.1434 59.6111 54.1434L58.5857 54.1608Z" fill="#00666C"/>
<path d="M14.538 50.6516C14.538 50.6516 13.0094 48.8836 13.5521 48.611C14.0948 48.3384 14.8159 50.3382 14.8159 50.3382C14.8159 50.3382 14.8686 48.8005 15.5751 48.7116C16.2816 48.6226 15.3001 50.6341 15.3001 50.6341L14.538 50.6516Z" fill="#00666C"/>
<path d="M14.538 50.6516C14.538 50.6516 13.0094 48.8836 13.5521 48.611C14.0948 48.3384 14.8159 50.3382 14.8159 50.3382C14.8159 50.3382 14.8686 48.8005 15.5751 48.7116C16.2816 48.6226 15.3001 50.6341 15.3001 50.6341L14.538 50.6516Z" fill="#00666C"/>
<path d="M14.538 50.6516C14.538 50.6516 13.0094 48.8836 13.5521 48.611C14.0948 48.3384 14.8159 50.3382 14.8159 50.3382C14.8159 50.3382 14.8686 48.8005 15.5751 48.7116C16.2816 48.6226 15.3001 50.6341 15.3001 50.6341L14.538 50.6516Z" fill="#00666C"/>
<path d="M11.54 54.1609C11.54 54.1609 10.0114 52.3928 10.5541 52.1203C11.0967 51.8477 11.8179 53.8475 11.8179 53.8475C11.8179 53.8475 11.8705 52.3097 12.5771 52.2208C13.2836 52.1319 12.3035 54.1463 12.3035 54.1463L11.54 54.1609Z" fill="#00666C"/>
<path d="M11.54 54.1609C11.54 54.1609 10.0114 52.3928 10.5541 52.1203C11.0967 51.8477 11.8179 53.8475 11.8179 53.8475C11.8179 53.8475 11.8705 52.3097 12.5771 52.2208C13.2836 52.1319 12.3035 54.1463 12.3035 54.1463L11.54 54.1609Z" fill="#00666C"/>
<path d="M11.54 54.1609C11.54 54.1609 10.0114 52.3928 10.5541 52.1203C11.0967 51.8477 11.8179 53.8475 11.8179 53.8475C11.8179 53.8475 11.8705 52.3097 12.5771 52.2208C13.2836 52.1319 12.3035 54.1463 12.3035 54.1463L11.54 54.1609Z" fill="#00666C"/>
<path d="M35.4147 71.2463C35.4147 71.2463 33.181 68.662 33.9724 68.267C34.7638 67.8719 35.8199 70.793 35.8199 70.793C35.8199 70.793 35.8974 68.5439 36.9287 68.4142C37.9599 68.2845 36.5279 71.2259 36.5279 71.2259L35.4147 71.2463Z" fill="#00666C"/>
<path d="M17.0788 71.2463C17.0788 71.2463 14.8451 68.662 15.6365 68.267C16.4278 67.8719 17.484 70.793 17.484 70.793C17.484 70.793 17.5615 68.5439 18.5927 68.4142C19.624 68.2845 18.1919 71.2259 18.1919 71.2259L17.0788 71.2463Z" fill="#00666C"/>
<path d="M-1.25717 71.2463C-1.25717 71.2463 -3.49083 68.662 -2.69947 68.267C-1.90811 67.8719 -0.851987 70.793 -0.851987 70.793C-0.851987 70.793 -0.774459 68.5439 0.256795 68.4142C1.28805 68.2845 -0.144006 71.2259 -0.144006 71.2259L-1.25717 71.2463Z" fill="#00666C"/>
<path d="M63.7939 71.2473C63.7939 71.2473 62.2653 69.4793 62.808 69.2067C63.3506 68.9341 64.0718 70.934 64.0718 70.934C64.0718 70.934 64.1244 69.3947 64.831 69.3073C65.5375 69.2198 64.556 71.2298 64.556 71.2298L63.7939 71.2473Z" fill="#00666C"/>
<path d="M66.704 67.8509C66.704 67.8509 65.1754 66.0828 65.7181 65.8102C66.2608 65.5376 66.9819 67.5375 66.9819 67.5375C66.9819 67.5375 67.0346 65.9997 67.7397 65.9108C68.4447 65.8219 67.4661 67.8334 67.4661 67.8334L66.704 67.8509Z" fill="#00666C"/>
<path d="M49.1971 70.9729C49.1971 70.9729 47.6685 69.2048 48.2097 68.9323C48.751 68.6597 49.4736 70.661 49.4736 70.661C49.4736 70.661 49.5262 69.1217 50.2327 69.0343C50.9393 68.9468 49.9577 70.9569 49.9577 70.9569L49.1971 70.9729Z" fill="#00666C"/>
<path d="M48.3265 57.5054C48.3265 57.5054 46.7964 55.7373 47.3391 55.4647C47.8818 55.1922 48.6029 57.192 48.6029 57.192C48.6029 57.192 48.6556 55.6542 49.3621 55.5653C50.0686 55.4764 49.0871 57.4879 49.0871 57.4879L48.3265 57.5054Z" fill="#00666C"/>
<path d="M43.0702 61.0117C43.0702 61.0117 41.5416 59.2436 42.0828 58.9711C42.624 58.6985 43.3481 60.6998 43.3481 60.6998C43.3481 60.6998 43.3993 59.1606 44.1058 59.0731C44.8123 58.9856 43.8308 60.9957 43.8308 60.9957L43.0702 61.0117Z" fill="#00666C"/>
<path d="M24.9719 35.783H23.0703V49.2265H24.9719V35.783Z" fill="#CD5022"/>
<path d="M39.2121 35.783H37.3105V49.2265H39.2121V35.783Z" fill="#CD5022"/>
<path d="M53.4504 35.783H51.5488V49.2265H53.4504V35.783Z" fill="#CD5022"/>
<path d="M67.6907 35.783H65.7891V49.2265H67.6907V35.783Z" fill="#CD5022"/>
<path d="M103.601 38.373H-27.5039V40.1076H103.601V38.373Z" fill="#CD5022"/>
<path d="M103.601 45.5156H-27.5039V47.2502H103.601V45.5156Z" fill="#CD5022"/>
<path d="M10.718 35.783H8.81641V49.2265H10.718V35.783Z" fill="#CD5022"/>
<path d="M8.81637 38.3757H7.75586V40.1103H8.81637V38.3757Z" fill="#992526"/>
<path d="M11.7793 38.3757H10.7188V40.1103H11.7793V38.3757Z" fill="#992526"/>
<path d="M8.81637 45.5186H7.75586V47.2531H8.81637V45.5186Z" fill="#992526"/>
<path d="M11.7793 45.5186H10.7188V47.2531H11.7793V45.5186Z" fill="#992526"/>
<path d="M23.0703 38.373H22.0098V40.1076H23.0703V38.373Z" fill="#992526"/>
<path d="M23.0703 45.5156H22.0098V47.2502H23.0703V45.5156Z" fill="#992526"/>
<path d="M26.0312 38.373H24.9707V40.1076H26.0312V38.373Z" fill="#992526"/>
<path d="M26.0312 45.5156H24.9707V47.2502H26.0312V45.5156Z" fill="#992526"/>
<path d="M37.3086 38.373H36.248V40.1076H37.3086V38.373Z" fill="#992526"/>
<path d="M37.3105 45.5156H36.25V47.2502H37.3105V45.5156Z" fill="#992526"/>
<path d="M40.2714 38.373H39.2109V40.1076H40.2714V38.373Z" fill="#992526"/>
<path d="M40.2714 45.5156H39.2109V47.2502H40.2714V45.5156Z" fill="#992526"/>
<path d="M51.5488 38.373H50.4883V40.1076H51.5488V38.373Z" fill="#992526"/>
<path d="M51.5488 45.5156H50.4883V47.2502H51.5488V45.5156Z" fill="#992526"/>
<path d="M54.5117 38.373H53.4512V40.1076H54.5117V38.373Z" fill="#992526"/>
<path d="M54.5117 45.5156H53.4512V47.2502H54.5117V45.5156Z" fill="#992526"/>
<path d="M65.789 38.373H64.7285V40.1076H65.789V38.373Z" fill="#992526"/>
<path d="M65.789 45.5156H64.7285V47.2502H65.789V45.5156Z" fill="#992526"/>
<path d="M68.7519 38.373H67.6914V40.1076H68.7519V38.373Z" fill="#992526"/>
<path d="M68.7519 45.5156H67.6914V47.2502H68.7519V45.5156Z" fill="#992526"/>
<path d="M37.9399 65.3132C43.4738 65.3132 47.9599 63.7085 47.9599 61.729C47.9599 59.7495 43.4738 58.1448 37.9399 58.1448C32.406 58.1448 27.9199 59.7495 27.9199 61.729C27.9199 63.7085 32.406 65.3132 37.9399 65.3132Z" fill="#00666C"/>
<path d="M38.5359 15.0862C38.5359 15.0862 38.0361 18.0142 38.206 18.6609C38.3758 19.3076 39.6657 19.8487 39.6657 19.8487C39.6657 19.8487 36.8794 21.8153 35.8257 21.2184C34.772 20.6215 34.4219 20.3244 34.4219 20.3244C34.4219 20.3244 35.247 20.2154 35.3693 19.7474C35.4916 19.2794 35.4151 15.2311 35.4151 15.2311L38.5359 15.0862Z" fill="#E08A68"/>
<path d="M32.9821 14.1218C32.9821 14.1218 33.14 16.0002 33.3102 16.6472C33.4804 17.2943 34.8829 18.3052 35.2344 18.4849C35.586 18.6646 36.1165 18.5521 36.1165 18.5521C36.1165 18.5521 37.7765 17.3956 38.0166 16.9286C38.2567 16.4616 38.6296 14.4711 38.6296 14.4711C38.6296 14.4711 39.0671 11.8941 38.603 11.2446C38.1389 10.5951 36.7983 9.23177 35.2047 9.62703C33.6111 10.0223 33.1079 10.2222 33.0083 11.4821C32.9643 12.0369 32.9821 14.1218 32.9821 14.1218Z" fill="#EF9E78"/>
<path d="M33.3568 13.0912L34.609 13.1034C34.609 13.1034 34.717 13.0338 34.6471 12.8899C34.5772 12.7461 33.7192 12.6312 33.5392 12.7364C33.3593 12.8415 33.2859 13.0191 33.3568 13.0912Z" fill="#330F1D"/>
<path d="M37.6991 13.1843L36.2816 13.1701C36.2816 13.1701 36.1611 13.0882 36.2439 12.9263C36.3267 12.7643 37.2993 12.6543 37.502 12.7772C37.7047 12.9002 37.7809 13.1042 37.6991 13.1843Z" fill="#330F1D"/>
<path d="M35.0843 57.0228C35.0843 57.0228 33.3478 59.6625 32.3473 59.8972C32.3473 59.8972 31.4641 60.6595 31.9352 61.1874C32.4063 61.7153 33.2283 61.7153 33.7598 61.598C34.2914 61.4806 36.0555 59.721 36.0555 59.721L36.1733 59.4277L36.348 59.721L36.9956 59.2519L36.6423 56.8469L35.0843 57.0228Z" fill="#64342F"/>
<path d="M40.1172 58.0796L40.1759 60.0151L40.8235 61.0125L40.9413 61.071C40.9413 61.071 41.1768 63.3586 41.2355 63.4759C41.2942 63.5933 41.2946 63.8865 41.6475 64.1797C42.0005 64.473 42.8836 64.8835 43.4725 64.2971C44.0614 63.7107 44.1197 63.1239 44.1197 63.1239C44.1197 63.1239 42.4716 59.312 42.4129 58.9596C42.3542 58.6072 42.1186 57.7864 42.1186 57.7864L40.1172 58.0796Z" fill="#64342F"/>
<path d="M34.487 13.9327C34.4845 14.1594 34.351 14.3418 34.1885 14.3405C34.026 14.3391 33.896 14.1534 33.8985 13.9267C33.9009 13.7 34.0341 13.5176 34.1969 13.5193C34.3598 13.521 34.4891 13.7042 34.487 13.9327Z" fill="#2B203E"/>
<path d="M37.1336 13.9588C37.1359 13.7321 37.006 13.5469 36.8435 13.5453C36.681 13.5437 36.5474 13.7262 36.5451 13.953C36.5429 14.1797 36.6728 14.3648 36.8353 14.3664C36.9978 14.3681 37.1313 14.1855 37.1336 13.9588Z" fill="#2B203E"/>
<path d="M35.1047 15.6416C34.9491 15.6141 34.7636 15.5667 34.7063 15.4431C34.6615 15.3459 34.7063 15.2244 34.8384 15.0715C35.0711 14.8051 34.8827 13.4473 34.7908 12.9472L34.9072 12.9326C34.9072 12.9375 34.9918 13.3954 35.0379 13.8892C35.1008 14.5617 35.0655 14.9789 34.9331 15.13C34.8261 15.2526 34.7866 15.3463 34.8156 15.4086C34.8447 15.471 34.9429 15.5131 35.1281 15.5479L35.1047 15.6416Z" fill="#F07A6E"/>
<path d="M34.7832 16.2697L36.9213 15.855C36.9213 15.855 37.1603 15.855 36.8615 16.1945C36.5627 16.5341 35.3312 16.6678 35.3312 16.6678C35.3312 16.6678 34.7815 16.5992 34.7832 16.2697Z" fill="white"/>
<path d="M32.7918 32.995C32.7918 32.995 32.2752 34.973 32.2291 37.1429C32.1872 39.1084 34.4252 54.0225 34.847 56.8147C34.8667 56.9429 34.9291 57.0607 35.0242 57.1492C35.1193 57.2376 35.2416 57.2916 35.3712 57.3023L36.0569 57.3604C36.1605 57.3692 36.2649 57.3561 36.3631 57.3219C36.4613 57.2877 36.5511 57.2332 36.6267 57.1619C36.7023 57.0907 36.7619 57.0044 36.8017 56.9086C36.8415 56.8128 36.8605 56.7098 36.8575 56.6062L36.4081 41.1613L40 58.1945C40 58.1945 41.7995 58.9683 42.2957 57.9598C42.5243 57.4952 41.8508 37.113 41.4524 35.2857C41.054 33.4585 39.6051 32.1958 39.6051 32.1958L32.7918 32.995Z" fill="#222A4E"/>
<path d="M34.7415 48.3925C34.3592 48.3915 33.9772 48.3682 33.5977 48.3228C34.1327 52.0737 34.6625 55.6011 34.8467 56.8178C34.8663 56.946 34.9288 57.0638 35.0239 57.1523C35.119 57.2407 35.2412 57.2947 35.3709 57.3054L36.0566 57.3635C36.1602 57.3723 36.2646 57.3592 36.3628 57.325C36.461 57.2907 36.5508 57.2362 36.6264 57.165C36.702 57.0938 36.7616 57.0075 36.8014 56.9117C36.8412 56.8159 36.8602 56.7129 36.8572 56.6092L36.6126 48.2271C35.9987 48.3627 35.3697 48.4183 34.7415 48.3925Z" fill="#161E3A"/>
<path d="M41.3501 45.6645C40.5032 46.5727 39.5006 47.2145 38.3422 47.5899C38.1674 47.6808 37.9927 47.7641 37.8145 47.8389L39.9994 58.196C39.9994 58.196 41.7988 58.9698 42.2951 57.9613C42.4247 57.6977 42.264 51.0132 42.0274 44.9492C41.8177 45.2023 41.5914 45.4412 41.3501 45.6645Z" fill="#161E3A"/>
<path d="M33.8769 20.3037C33.8769 20.3037 31.1692 26.6386 31.1105 27.5771C31.0518 28.5156 30.8749 28.9847 30.9337 29.8058C30.9924 30.627 32.5231 34.2052 32.5231 34.2052L33.2294 33.0908L33.8769 20.3037Z" fill="#CED0D8"/>
<path d="M38.9009 13.9792C38.9009 13.9792 38.2557 13.7383 38.3211 13.0937C38.3865 12.4491 38.1649 11.039 37.9901 10.8614C37.8154 10.6838 34.3385 11.0596 33.224 10.6671L32.9692 12.7183L32.8158 10.3997C32.8158 10.3997 32.2881 10.2182 32.7057 9.63596C33.1234 9.0537 33.664 8.00306 35.2534 8.01873C36.8428 8.0344 38.8404 8.23011 39.5394 8.99973C40.2383 9.76934 41.0033 9.77665 41.0033 9.77665L40.4092 10.416C40.4092 10.416 40.1503 12.7597 39.6708 13.6056L38.9009 13.9792Z" fill="#3D1623"/>
<path d="M39.539 8.99715C38.84 8.22754 36.8407 8.03183 35.2516 8.01581C33.6625 7.99979 33.1219 9.05043 32.7039 9.63304C32.286 10.2157 32.814 10.3967 32.814 10.3967V10.4145C32.9633 10.4844 33.0998 10.5785 33.218 10.6931L33.2233 10.6652C34.3377 11.0577 37.8147 10.6816 37.9894 10.8596C37.9941 10.8644 37.9985 10.8697 38.0023 10.8752C38.2886 10.6172 38.6663 10.4573 39.0529 10.4615C39.3042 10.4633 39.5511 10.5284 39.7705 10.6507C39.9899 10.773 40.1747 10.9486 40.3078 11.1611C40.3746 10.7248 40.4092 10.4135 40.4092 10.4135L41.0033 9.77408C41.0033 9.77408 40.2379 9.76642 39.539 8.99715Z" fill="#330F1D"/>
<path d="M33.1133 33.0715C33.1133 33.0715 33.1133 33.9707 34.1142 34.4993C35.1151 35.028 36.5864 35.3198 37.3517 35.1425C38.1171 34.9653 40.3537 33.8519 40.4715 33.207L40.4516 33.2265L33.1133 33.0715Z" fill="#262728"/>
<path d="M37.987 34.0046L37.6426 34.0833L37.8924 35.1695L38.2368 35.0908L37.987 34.0046Z" fill="#222A4E"/>
<path d="M34.9728 33.8575L34.6504 33.7134L34.1927 34.7301L34.515 34.8742L34.9728 33.8575Z" fill="#222A4E"/>
<path d="M38.9769 33.5961L38.6582 33.748L39.1407 34.7534L39.4594 34.6015L38.9769 33.5961Z" fill="#222A4E"/>
<path d="M33.9738 33.4758L33.7148 33.2363L32.9542 34.0532L33.2131 34.2927L33.9738 33.4758Z" fill="#222A4E"/>
<path d="M39.0211 13.5054C38.7791 13.5039 38.5411 13.4431 38.3281 13.3285C38.4158 13.7952 38.8988 13.9759 38.8988 13.9759L39.6677 13.6023C39.7245 13.4994 39.7736 13.3924 39.8144 13.2822C39.5757 13.4281 39.3012 13.5053 39.0211 13.5054Z" fill="#330F1D"/>
<path d="M38.6399 13.4745C38.6399 13.4745 38.852 12.8605 39.3791 13.159C39.9061 13.4574 39.7792 14.3364 39.4821 14.6265C39.1851 14.9165 38.649 15.4971 38.5319 15.4382C38.4149 15.3794 38.2988 15.2014 38.2988 15.2014L38.6399 13.4745Z" fill="#EF9E78"/>
<path d="M41.1181 34.147L39.882 34.9093C39.882 34.9093 39.3522 35.2025 39.5877 36.1999C39.8233 37.1972 41.2949 38.018 41.2949 38.018L41.6479 35.3787L41.9421 34.8508L41.1181 34.147Z" fill="#EF9E78"/>
<path d="M34.8781 19.7759L36.1484 21.3109L38.9624 19.5203L42.5945 21.2869C42.5945 21.2869 41.0652 27.0203 40.9946 28.1925C40.9513 28.9134 40.9869 30.6323 41.0208 31.8491C41.0326 32.2492 40.9158 32.6427 40.6874 32.972C40.459 33.3013 40.131 33.5493 39.7512 33.6798C38.7727 34.0155 37.4447 34.3829 36.5182 34.3066C35.756 34.2446 34.9316 34.0566 34.2662 33.8724C33.8756 33.7644 33.5278 33.5394 33.2697 33.228C33.0116 32.9166 32.8558 32.5337 32.8232 32.1311C32.645 29.9055 32.3437 25.4961 32.6188 23.9447C32.9934 21.8368 33.9363 20.3038 33.9363 20.3038L34.8781 19.7759Z" fill="#DADEEA"/>
<path d="M40.9956 28.1928C41.0108 28.0113 41.0351 27.8307 41.0686 27.6516C40.2678 28.487 39.271 29.1107 38.168 29.4666C37.0541 30.0501 35.8542 30.3171 34.5684 30.2676C33.9333 30.2666 33.3 30.2025 32.6777 30.0761C32.7277 30.8474 32.7826 31.5606 32.827 32.1307C32.8595 32.5333 33.0154 32.9162 33.2735 33.2276C33.5316 33.539 33.8794 33.7639 34.2699 33.8719C34.9339 34.0561 35.7598 34.2442 36.522 34.3062C37.4502 34.3814 38.775 34.014 39.7549 33.6793C40.1345 33.5489 40.4622 33.3011 40.6905 32.972C40.9189 32.643 41.0358 32.2499 41.0242 31.85C40.9879 30.6326 40.9523 28.9136 40.9956 28.1928Z" fill="#CED0D8"/>
<path d="M36.1152 21.3007L35.1146 20.8901L34.3496 21.3007L35.1146 20.1274L36.1152 21.3007Z" fill="#BABBBF"/>
<path d="M36.3535 21.4606L36.5401 20.465L38.6796 18.4333L39.6071 19.8503L37.6438 21.9426L36.3535 21.4606Z" fill="#DADEEA"/>
<path d="M35.4363 18.8989L34.8771 19.3656C34.6367 19.8914 34.3477 21.3014 34.3477 21.3014L35.0539 20.4214L36.0003 21.251C36.0003 21.251 35.0711 20.0986 35.4363 18.8989Z" fill="#DADEEA"/>
<path d="M42.5893 21.301C42.5893 21.301 45.5912 27.8131 45.7695 29.2782C45.9477 30.7432 41.8243 35.5542 41.8243 35.5542C41.8243 35.5542 40.2348 35.3195 40.1758 34.4983L42.9426 28.9846L41.0589 26.0531C41.0589 26.0531 40.412 22.1222 42.5893 21.301Z" fill="#DADEEA"/>
<path d="M37.7632 21.4185L36.5271 20.48L36.1738 21.3011L36.8214 21.0664L37.7632 21.4185Z" fill="#BABBBF"/>
<path d="M40.0586 23.5295H37.5273V23.8816H40.0586V23.5295Z" fill="#CED0D8"/>
<path d="M36.5797 34.3917L35.3748 34.2612C35.2627 34.2491 35.162 34.3298 35.1498 34.4414L35.0859 35.0283C35.0737 35.1399 35.1547 35.2403 35.2667 35.2524L36.4716 35.3828C36.5837 35.395 36.6844 35.3143 36.6965 35.2026L36.7605 34.6158C36.7727 34.5041 36.6917 34.4038 36.5797 34.3917Z" fill="#CED0D8"/>
<path d="M36.5061 34.4669L35.4308 34.3505C35.3353 34.3402 35.2494 34.409 35.239 34.5042L35.1876 34.9757C35.1772 35.0709 35.2463 35.1565 35.3418 35.1669L36.4171 35.2833C36.5127 35.2936 36.5986 35.2248 36.6089 35.1296L36.6604 34.6581C36.6707 34.5628 36.6017 34.4773 36.5061 34.4669Z" fill="#262728"/>
<path d="M34.9166 57.3153C34.7139 57.4765 34.4549 57.559 34.2274 57.6785C34.0083 57.7931 33.7937 57.9327 33.6333 58.1218C33.547 58.2231 33.4498 58.3482 33.4746 58.4895C33.4785 58.5278 33.4966 58.5633 33.5253 58.589C33.5539 58.6148 33.5912 58.629 33.6298 58.6288C33.6953 58.6203 33.7592 58.6023 33.8196 58.5756C34.0516 58.4951 34.2774 58.3847 34.4588 58.2169C34.557 58.1241 34.6396 58.0162 34.7034 57.8972C34.767 57.7816 34.8247 57.6614 34.9288 57.5758L34.7666 57.4817C34.6722 57.8396 34.7101 58.2193 34.8736 58.5515C34.9131 58.6316 34.9627 58.7364 35.0682 58.7337C35.1602 58.7309 35.2192 58.6445 35.237 58.5623C35.2727 58.3702 35.2818 58.174 35.264 57.9794C35.2488 57.7558 35.2054 57.535 35.1346 57.3222C35.1272 57.2978 35.1107 57.2772 35.0885 57.2646C35.0662 57.2521 35.0399 57.2485 35.0151 57.2547C34.9904 57.2618 34.9695 57.2782 34.9568 57.3004C34.9442 57.3227 34.9408 57.349 34.9473 57.3738C35.0519 57.6852 35.0933 58.0143 35.0689 58.3419C35.0644 58.4028 35.0627 58.492 35.0413 58.54C35.0413 58.5439 35.0378 58.5543 35.0389 58.5467C35.0389 58.5588 35.0193 58.5467 35.0413 58.5467C35.0462 58.5467 35.1025 58.5153 35.0896 58.5467C35.092 58.5411 35.0941 58.5644 35.0896 58.5435C35.0833 58.528 35.0751 58.5134 35.0651 58.5C35.0546 58.4808 35.0445 58.461 35.035 58.4411C34.9733 58.3125 34.9336 58.1744 34.9176 58.0327C34.8981 57.8656 34.9099 57.6964 34.9526 57.5336C34.9791 57.434 34.8621 57.3807 34.7904 57.4396C34.6157 57.5813 34.5601 57.8046 34.4231 57.9735C34.2861 58.1423 34.1009 58.2545 33.9059 58.337C33.8629 58.3555 33.8189 58.3718 33.7748 58.3872C33.749 58.3962 33.7228 58.4049 33.6966 58.4133L33.6574 58.4255L33.6316 58.4331C33.6001 58.4384 33.6123 58.4488 33.6665 58.4648C33.663 58.4742 33.6627 58.4415 33.6627 58.4425C33.6627 58.4347 33.664 58.427 33.6665 58.4196C33.6742 58.3946 33.686 58.371 33.7015 58.3499C33.7303 58.306 33.7628 58.2645 33.7986 58.2259C33.9485 58.0619 34.1376 57.9428 34.3333 57.8408C34.5779 57.714 34.8393 57.6228 35.0557 57.4507C35.0738 57.4325 35.084 57.4079 35.084 57.3823C35.084 57.3567 35.0738 57.3321 35.0557 57.3139C35.0371 57.2963 35.0126 57.2865 34.987 57.2865C34.9614 57.2865 34.9368 57.2963 34.9183 57.3139L34.9166 57.3153Z" fill="#3F1D1B"/>
<path d="M41.5207 58.5355C41.4816 58.8691 41.3222 59.1815 41.2188 59.4981C41.114 59.824 41.0332 60.1702 41.0598 60.5149C41.0713 60.6626 41.0898 60.8353 41.1996 60.9474C41.2576 61.0073 41.3533 61.0519 41.4341 61.0112C41.5071 60.9732 41.541 60.8823 41.5767 60.813C41.7297 60.5153 41.8496 60.1942 41.8709 59.8574C41.8799 59.6728 41.857 59.488 41.8035 59.3111C41.7538 59.1369 41.6913 58.9604 41.7109 58.7748L41.5309 58.8235C41.77 59.2376 42.1484 59.5541 42.5992 59.7168C42.7069 59.7554 42.8589 59.8212 42.9522 59.7213C43.0455 59.6213 42.9749 59.4827 42.9082 59.3943C42.7574 59.193 42.5853 59.0085 42.3948 58.8441C42.178 58.6582 41.9393 58.4993 41.684 58.3708C41.6729 58.3639 41.6606 58.3593 41.6477 58.3572C41.6349 58.3551 41.6217 58.3557 41.6091 58.3588C41.5964 58.3618 41.5845 58.3674 41.5741 58.3752C41.5637 58.383 41.5549 58.3928 41.5483 58.404C41.5418 58.4152 41.5375 58.4276 41.5359 58.4405C41.5342 58.4534 41.5352 58.4664 41.5387 58.4789C41.5422 58.4914 41.5483 58.5031 41.5564 58.5132C41.5645 58.5234 41.5746 58.5318 41.5861 58.538C41.9848 58.7384 42.3393 59.0163 42.6286 59.3553C42.6607 59.3929 42.6921 59.4313 42.7226 59.4705C42.7532 59.5046 42.7781 59.5432 42.7963 59.5851C42.7963 59.5813 42.8044 59.6165 42.8012 59.6039V59.6015C42.8012 59.6137 42.8012 59.6147 42.8012 59.6046C42.8012 59.6046 42.8222 59.5698 42.8225 59.5837C42.8225 59.5816 42.846 59.6011 42.81 59.5809C42.7891 59.573 42.7676 59.5671 42.7457 59.5632C42.7156 59.5541 42.6859 59.5444 42.6562 59.5336C42.4694 59.4666 42.2951 59.3689 42.1407 59.2445C41.9619 59.1011 41.8116 58.9256 41.6976 58.727C41.6866 58.7089 41.67 58.6947 41.6503 58.6867C41.6306 58.6788 41.6088 58.6774 41.5882 58.6828C41.5683 58.6892 41.5509 58.7016 41.5384 58.7182C41.5259 58.7349 41.5189 58.755 41.5183 58.7758C41.4858 59.084 41.6556 59.3636 41.6766 59.6663C41.6969 59.9612 41.6189 60.2551 41.5019 60.524C41.4715 60.5936 41.4383 60.6633 41.403 60.7305C41.3862 60.7629 41.368 60.7956 41.3509 60.8273C41.3201 60.8813 41.3593 60.8068 41.3729 60.836C41.3658 60.8316 41.3585 60.8276 41.3509 60.8242C41.3137 60.7882 41.2892 60.7411 41.281 60.6901C41.2655 60.6222 41.2563 60.5531 41.2534 60.4836C41.2352 60.1702 41.3069 59.8623 41.4026 59.5663C41.5127 59.2247 41.6742 58.8963 41.7172 58.5366C41.717 58.5109 41.7067 58.4864 41.6885 58.4683C41.6703 58.4502 41.6457 58.4399 41.62 58.4397C41.5944 58.4404 41.5701 58.4508 41.552 58.4688C41.5339 58.4868 41.5235 58.5111 41.5228 58.5366L41.5207 58.5355Z" fill="#3F1D1B"/>
<path d="M33.3828 55.8569C33.3828 56.2374 29.764 56.5464 25.301 56.5464C20.8381 56.5464 17.2207 56.2374 17.2207 55.8569C17.2207 55.4765 20.8381 55.1675 25.301 55.1675C29.764 55.1675 33.3828 55.4765 33.3828 55.8569Z" fill="#00666C"/>
<path d="M14.5388 46.0905C14.5388 46.0905 12.504 44.751 13.076 44.1461C13.6479 43.5411 14.5388 46.0905 14.5388 46.0905Z" fill="#078783"/>
<path d="M15.1175 46.9148C15.1046 46.9205 15.0902 46.9215 15.0766 46.9178C15.063 46.9141 15.0511 46.9058 15.0429 46.8944L13.7264 45.0986C13.7202 45.0922 13.7155 45.0845 13.7125 45.076C13.7095 45.0676 13.7084 45.0586 13.7092 45.0497C13.7101 45.0408 13.7128 45.0321 13.7172 45.0244C13.7216 45.0166 13.7277 45.0098 13.735 45.0046C13.7422 44.9993 13.7506 44.9957 13.7594 44.9939C13.7682 44.9922 13.7772 44.9923 13.786 44.9943C13.7947 44.9963 13.8029 45.0001 13.8101 45.0056C13.8172 45.011 13.8231 45.0179 13.8273 45.0258L15.1438 46.8201C15.1486 46.8268 15.1521 46.8344 15.1539 46.8424C15.1558 46.8504 15.1561 46.8587 15.1547 46.8668C15.1533 46.875 15.1504 46.8827 15.146 46.8897C15.1416 46.8967 15.1359 46.9028 15.1292 46.9075L15.1175 46.9148Z" fill="#005454"/>
<path d="M14.5083 45.9695C14.5083 45.9695 13.8047 43.6373 14.637 43.544C15.4693 43.4507 14.5083 45.9695 14.5083 45.9695Z" fill="#078783"/>
<path d="M14.522 46.0833C14.5128 46.0847 14.5034 46.0847 14.4942 46.0833C14.486 46.0827 14.4779 46.0806 14.4705 46.0769C14.463 46.0732 14.4564 46.0681 14.451 46.0619C14.4455 46.0557 14.4414 46.0484 14.4388 46.0406C14.4362 46.0327 14.4351 46.0245 14.4357 46.0162L14.522 44.6884C14.5226 44.6803 14.5247 44.6725 14.5283 44.6652C14.5319 44.658 14.537 44.6516 14.5431 44.6463C14.5492 44.641 14.5563 44.637 14.564 44.6345C14.5717 44.6319 14.5798 44.6309 14.5878 44.6315C14.5961 44.6317 14.6043 44.6335 14.6118 44.637C14.6193 44.6404 14.626 44.6454 14.6315 44.6516C14.637 44.6577 14.6411 44.6649 14.6437 44.6728C14.6463 44.6806 14.6472 44.6889 14.6463 44.6971L14.56 46.025C14.5602 46.0374 14.5567 46.0495 14.5499 46.0599C14.5431 46.0703 14.5334 46.0784 14.522 46.0833Z" fill="#005454"/>
<path d="M17.1209 46.6865C17.3145 47.0026 17.4048 47.3707 17.3794 47.74C17.3539 48.1094 17.214 48.4618 16.9789 48.7484C16.7438 49.0351 16.4251 49.242 16.0669 49.3404C15.7088 49.4388 15.3288 49.4239 14.9794 49.2978C14.6301 49.1717 14.3287 48.9406 14.1169 48.6365C13.9051 48.3323 13.7933 47.9701 13.797 47.5999C13.8007 47.2297 13.9197 46.8697 14.1375 46.5698C14.3554 46.2699 14.6613 46.0448 15.0131 45.9257C15.3987 45.7925 15.8186 45.7954 16.2023 45.9339C16.586 46.0725 16.9104 46.3382 17.1209 46.6865Z" fill="#FF560D"/>
<path d="M17.1201 46.6853C17.2909 46.9649 17.3814 47.2859 17.3816 47.6133C17.3819 47.9407 17.2919 48.2618 17.1214 48.5416C16.951 48.8215 16.7067 49.0493 16.4152 49.2003C16.1237 49.3512 15.7962 49.4195 15.4684 49.3976C15.1406 49.3757 14.8252 49.2645 14.5565 49.0762C14.2878 48.8878 14.0762 48.6296 13.9447 48.3296C13.8133 48.0295 13.7671 47.6993 13.8111 47.3749C13.8552 47.0505 13.9878 46.7444 14.1946 46.49C14.1785 46.5264 13.7484 47.3835 14.7036 47.9942C15.6588 48.605 17.0806 47.5759 17.1201 46.6853Z" fill="#DA3313"/>
<path d="M17.9587 45.8393C17.9587 45.8393 15.924 44.4997 16.4959 43.8948C17.0679 43.2899 17.9587 45.8393 17.9587 45.8393Z" fill="#078783"/>
<path d="M18.5308 46.6657C18.518 46.6709 18.5039 46.6718 18.4907 46.6681C18.4774 46.6644 18.4658 46.6564 18.4576 46.6453L17.1411 44.8495C17.1313 44.8361 17.1271 44.8194 17.1296 44.8031C17.1321 44.7867 17.141 44.7719 17.1543 44.762C17.161 44.7571 17.1685 44.7535 17.1766 44.7515C17.1847 44.7495 17.1931 44.7492 17.2013 44.7506C17.2095 44.752 17.2174 44.755 17.2244 44.7594C17.2314 44.7639 17.2374 44.7698 17.2421 44.7766L18.5586 46.5709C18.5634 46.5776 18.5668 46.5852 18.5687 46.5932C18.5705 46.6013 18.5708 46.6096 18.5694 46.6177C18.5681 46.6258 18.5651 46.6336 18.5607 46.6406C18.5564 46.6476 18.5507 46.6536 18.5439 46.6584C18.5403 46.662 18.5357 46.6645 18.5308 46.6657Z" fill="#005454"/>
<path d="M17.9246 45.7167C17.9246 45.7167 17.221 43.3846 18.0519 43.2927C18.8828 43.2009 17.9246 45.7167 17.9246 45.7167Z" fill="#078783"/>
<path d="M17.9361 45.8301C17.9269 45.8315 17.9175 45.8315 17.9083 45.8301C17.9 45.8295 17.8919 45.8274 17.8845 45.8237C17.8771 45.82 17.8705 45.8149 17.865 45.8087C17.8596 45.8025 17.8555 45.7952 17.8528 45.7874C17.8502 45.7796 17.8492 45.7713 17.8498 45.763L17.9361 44.4352C17.9355 44.4262 17.9368 44.4173 17.94 44.4089C17.9432 44.4006 17.9481 44.393 17.9545 44.3866C17.9609 44.3803 17.9685 44.3755 17.9769 44.3723C17.9853 44.3692 17.9943 44.3679 18.0033 44.3686C18.0122 44.3692 18.0209 44.3717 18.0288 44.376C18.0367 44.3803 18.0436 44.3862 18.049 44.3933C18.0544 44.4004 18.0583 44.4086 18.0602 44.4174C18.0622 44.4261 18.0622 44.4352 18.0604 44.4439L17.9741 45.7718C17.9743 45.7842 17.9707 45.7963 17.964 45.8067C17.9572 45.8171 17.9475 45.8252 17.9361 45.8301Z" fill="#005454"/>
<path d="M20.5364 46.4333C20.6054 46.5457 20.6613 46.6655 20.7031 46.7904C20.8491 47.2223 20.8235 47.6935 20.6316 48.1072C20.4398 48.5209 20.0962 48.8456 19.6715 49.0147C19.2469 49.1838 18.7733 49.1844 18.3482 49.0164C17.9231 48.8484 17.5787 48.5246 17.3857 48.1114C17.1928 47.6982 17.166 47.2271 17.3108 46.7948C17.4556 46.3625 17.7611 46.002 18.1644 45.7871C18.5678 45.5723 19.0383 45.5196 19.4795 45.6398C19.9206 45.7599 20.2988 46.0439 20.5364 46.4333Z" fill="#FF560D"/>
<path d="M20.5355 46.4341C20.6045 46.5464 20.6605 46.6662 20.7023 46.7912C20.8027 47.0856 20.8243 47.4009 20.7649 47.7062C20.7056 48.0114 20.5673 48.2959 20.3639 48.5316C20.1604 48.7673 19.8988 48.946 19.6048 49.0501C19.3108 49.1542 18.9946 49.1801 18.6875 49.1252C18.3804 49.0702 18.093 48.9364 17.8537 48.737C17.6144 48.5375 17.4314 48.2793 17.3229 47.9878C17.2144 47.6963 17.1841 47.3817 17.2349 47.0749C17.2858 46.7682 17.4161 46.48 17.6129 46.2388C17.5968 46.2752 17.1741 47.1323 18.1219 47.743C19.0698 48.3538 20.4931 47.3247 20.5355 46.4341Z" fill="#DA3313"/>
<path d="M21.2907 45.8564C21.2907 45.8564 19.256 44.5168 19.8279 43.9119C20.3999 43.307 21.2907 45.8564 21.2907 45.8564Z" fill="#078783"/>
<path d="M21.8677 46.6829C21.8547 46.688 21.8404 46.6888 21.8269 46.6851C21.8135 46.6814 21.8016 46.6735 21.7931 46.6625L20.4766 44.8667C20.4718 44.86 20.4683 44.8525 20.4665 44.8444C20.4646 44.8364 20.4643 44.8281 20.4657 44.82C20.4671 44.8119 20.47 44.8041 20.4744 44.7971C20.4788 44.7901 20.4845 44.7841 20.4912 44.7793C20.4977 44.7743 20.5052 44.7708 20.5132 44.7688C20.5211 44.7669 20.5294 44.7666 20.5375 44.7679C20.5456 44.7693 20.5533 44.7723 20.5602 44.7768C20.5671 44.7812 20.573 44.787 20.5775 44.7939L21.894 46.5882C21.899 46.5948 21.9026 46.6024 21.9046 46.6104C21.9065 46.6185 21.9069 46.6268 21.9055 46.635C21.9041 46.6432 21.9011 46.651 21.8966 46.658C21.8921 46.665 21.8863 46.671 21.8794 46.6756L21.8677 46.6829Z" fill="#005454"/>
<path d="M21.2602 45.7338C21.2602 45.7338 20.5566 43.4017 21.3889 43.3098C22.2213 43.218 21.2602 45.7338 21.2602 45.7338Z" fill="#078783"/>
<path d="M21.274 45.8476C21.2648 45.849 21.2554 45.849 21.2462 45.8476C21.2379 45.847 21.2298 45.8449 21.2224 45.8412C21.215 45.8375 21.2084 45.8324 21.2029 45.8262C21.1975 45.82 21.1933 45.8127 21.1907 45.8049C21.1881 45.7971 21.1871 45.7888 21.1877 45.7806L21.274 44.4527C21.2751 44.4363 21.2826 44.421 21.2949 44.4101C21.3072 44.3992 21.3233 44.3936 21.3398 44.3944C21.3481 44.3949 21.3561 44.3971 21.3636 44.4008C21.371 44.4044 21.3776 44.4095 21.383 44.4158C21.3885 44.422 21.3926 44.4292 21.3952 44.4371C21.3979 44.4449 21.3989 44.4532 21.3983 44.4614L21.312 45.7893C21.3121 45.8017 21.3086 45.8138 21.3018 45.8242C21.2951 45.8346 21.2854 45.8427 21.274 45.8476Z" fill="#005454"/>
<path d="M23.8733 46.4492C23.9421 46.5618 23.9985 46.6816 24.0415 46.8063C24.1896 47.2395 24.1656 47.7127 23.9744 48.1288C23.7833 48.5449 23.4394 48.8722 23.0136 49.0435C22.5877 49.2148 22.1122 49.2171 21.6847 49.0498C21.2572 48.8826 20.9103 48.5585 20.7151 48.1443C20.52 47.73 20.4915 47.257 20.6355 46.8225C20.7795 46.3879 21.0851 46.0248 21.4894 45.8078C21.8937 45.5908 22.3661 45.5363 22.8095 45.6556C23.2528 45.7749 23.6335 46.0589 23.8733 46.4492Z" fill="#FF560D"/>
<path d="M23.8724 46.4512C23.9413 46.5638 23.9977 46.6835 24.0406 46.8083C24.1414 47.1029 24.1632 47.4186 24.1039 47.7242C24.0447 48.0298 23.9064 48.3147 23.7029 48.5508C23.4993 48.7868 23.2374 48.9658 22.9431 49.0701C22.6488 49.1744 22.3323 49.2004 22.0248 49.1454C21.7174 49.0905 21.4297 48.9565 21.1901 48.7568C20.9505 48.5571 20.7674 48.2985 20.6588 48.0067C20.5502 47.7149 20.52 47.3998 20.571 47.0928C20.622 46.7857 20.7526 46.4972 20.9498 46.2559C20.9337 46.2923 20.511 47.1494 21.4589 47.7601C22.4067 48.3709 23.83 47.3418 23.8724 46.4512Z" fill="#DA3313"/>
<path d="M24.7458 45.7089C24.7458 45.7089 22.7111 44.3694 23.283 43.7645C23.855 43.1596 24.7458 45.7089 24.7458 45.7089Z" fill="#078783"/>
<path d="M25.3227 46.5353C25.3096 46.5406 25.2952 46.5412 25.2816 46.5373C25.2681 46.5333 25.2563 46.5249 25.2481 46.5135L23.9316 44.7192C23.9268 44.7125 23.9234 44.7049 23.9215 44.6969C23.9197 44.6888 23.9194 44.6805 23.9208 44.6724C23.9221 44.6643 23.9251 44.6565 23.9295 44.6495C23.9338 44.6425 23.9396 44.6365 23.9463 44.6317C23.9528 44.6269 23.9602 44.6234 23.9681 44.6214C23.976 44.6195 23.9841 44.6191 23.9922 44.6203C24.0002 44.6215 24.0079 44.6243 24.0148 44.6285C24.0218 44.6327 24.0278 44.6383 24.0326 44.6448L25.3491 46.4406C25.3589 46.4539 25.3631 46.4706 25.3606 46.487C25.3581 46.5034 25.3493 46.5182 25.3359 46.5281L25.3227 46.5353Z" fill="#005454"/>
<path d="M24.7153 45.5864C24.7153 45.5864 24.0117 43.2542 24.844 43.1624C25.6763 43.0705 24.7153 45.5864 24.7153 45.5864Z" fill="#078783"/>
<path d="M24.7292 45.6983C24.7201 45.7012 24.7104 45.7012 24.7014 45.6983C24.6931 45.6981 24.685 45.6962 24.6774 45.6928C24.6699 45.6893 24.6632 45.6844 24.6577 45.6782C24.6522 45.6721 24.6481 45.6648 24.6455 45.657C24.643 45.6492 24.6421 45.6409 24.6429 45.6327L24.7292 44.3048C24.7286 44.2959 24.7299 44.2869 24.7331 44.2785C24.7363 44.2702 24.7412 44.2626 24.7476 44.2563C24.7539 44.25 24.7616 44.2451 24.77 44.242C24.7784 44.2389 24.7874 44.2376 24.7964 44.2382C24.8053 44.2388 24.814 44.2414 24.8219 44.2456C24.8298 44.2499 24.8367 44.2558 24.8421 44.2629C24.8475 44.2701 24.8513 44.2783 24.8533 44.287C24.8553 44.2957 24.8553 44.3048 24.8535 44.3135L24.7672 45.64C24.7675 45.6524 24.7641 45.6646 24.7573 45.675C24.7505 45.6854 24.7407 45.6935 24.7292 45.6983Z" fill="#005454"/>
<path d="M27.3277 46.3024C27.5214 46.6184 27.6118 46.9866 27.5864 47.3561C27.561 47.7255 27.4211 48.078 27.1859 48.3647C26.9508 48.6514 26.6321 48.8583 26.2738 48.9567C25.9155 49.0551 25.5355 49.0402 25.1861 48.914C24.8367 48.7878 24.5353 48.5565 24.3236 48.2522C24.1118 47.9479 24.0001 47.5856 24.004 47.2153C24.0079 46.845 24.1271 46.4851 24.3452 46.1852C24.5632 45.8854 24.8694 45.6605 25.2213 45.5415C25.6069 45.4107 26.0258 45.4148 26.4087 45.5531C26.7917 45.6914 27.1158 45.9557 27.3277 46.3024Z" fill="#FF560D"/>
<path d="M27.3271 46.3037C27.498 46.5833 27.5884 46.9043 27.5887 47.2317C27.5889 47.5591 27.4989 47.8802 27.3285 48.1601C27.158 48.4399 26.9137 48.6678 26.6222 48.8187C26.3307 48.9696 26.0032 49.0379 25.6754 49.016C25.3476 48.9941 25.0322 48.883 24.7635 48.6946C24.4948 48.5063 24.2832 48.248 24.1517 47.948C24.0203 47.6479 23.9741 47.3177 24.0182 46.9933C24.0622 46.6689 24.1949 46.3628 24.4016 46.1084C24.3855 46.1448 23.9628 47.0019 24.9106 47.6112C25.8585 48.2205 27.2847 47.1929 27.3271 46.3037Z" fill="#DA3313"/>
<path d="M27.6882 47.4236V54.0936C27.6882 54.3361 27.6403 54.5761 27.5471 54.8001C27.454 55.0241 27.3174 55.2276 27.1453 55.399C26.9732 55.5703 26.7689 55.7062 26.544 55.7989C26.3192 55.8915 26.0782 55.9391 25.8349 55.9389H15.5955C15.3416 55.9399 15.0903 55.8886 14.8572 55.7883C14.6241 55.6879 14.4143 55.5407 14.241 55.3559C14.137 55.2462 14.0475 55.1238 13.9748 54.9915C13.822 54.7183 13.7419 54.4107 13.7422 54.098V47.4236H27.6882Z" fill="#F2B34D"/>
<path d="M27.6873 48.0508H13.7441V48.4152H27.6873V48.0508Z" fill="#CC8B28"/>
<path d="M27.6873 49.7852H13.7441V50.1496H27.6873V49.7852Z" fill="#CC8B28"/>
<path d="M27.6873 51.5195H13.7441V51.8839H27.6873V51.5195Z" fill="#CC8B28"/>
<path d="M27.6873 53.2539H13.7441V53.6183H27.6873V53.2539Z" fill="#CC8B28"/>
<path d="M27.456 54.9883C27.3827 55.1203 27.2933 55.2427 27.1898 55.3527H14.2428C14.1388 55.243 14.0493 55.1206 13.9766 54.9883H27.456Z" fill="#CC8B28"/>
<path d="M27.6875 49.1206H28.5652V51.3872C28.5652 51.5569 28.4975 51.7197 28.3771 51.8397C28.2567 51.9597 28.0933 52.0271 27.923 52.0271H27.6919V49.1206H27.6875Z" fill="#CC8B28"/>
<path d="M13.7437 52.0283H13.5125C13.3422 52.0283 13.1789 51.9609 13.0585 51.8409C12.938 51.7209 12.8704 51.5581 12.8704 51.3884V49.1218H13.748V52.0283H13.7437Z" fill="#CC8B28"/>
<path d="M-0.17619 60.0068C0.0175161 60.3228 0.107917 60.691 0.0825178 61.0604C0.0571185 61.4298 -0.0828275 61.7823 -0.317974 62.069C-0.55312 62.3558 -0.871851 62.5626 -1.23011 62.661C-1.58836 62.7594 -1.96845 62.7445 -2.31782 62.6183C-2.66719 62.4921 -2.96859 62.2609 -3.18035 61.9566C-3.39211 61.6523 -3.50377 61.2899 -3.4999 60.9197C-3.49603 60.5494 -3.37682 60.1894 -3.15875 59.8896C-2.94068 59.5897 -2.63451 59.3648 -2.28258 59.2459C-1.89699 59.115 -1.47814 59.1191 -1.09519 59.2574C-0.712234 59.3958 -0.388063 59.6601 -0.17619 60.0068Z" fill="#FF560D"/>
<path d="M-0.176778 60.0081C-0.00594709 60.2877 0.0845235 60.6087 0.0847598 60.936C0.0849961 61.2634 -0.00501181 61.5845 -0.175439 61.8644C-0.345866 62.1443 -0.590165 62.3721 -0.881674 62.523C-1.17318 62.674 -1.5007 62.7422 -1.82848 62.7204C-2.15627 62.6985 -2.47172 62.5873 -2.74041 62.3989C-3.00911 62.2106 -3.22072 61.9523 -3.35216 61.6523C-3.4836 61.3523 -3.52981 61.0221 -3.48575 60.6977C-3.44169 60.3733 -3.30906 60.0672 -3.10232 59.8127C-3.11841 59.8492 -3.54115 60.7063 -2.59328 61.3155C-1.6454 61.9248 -0.219199 60.8972 -0.176778 60.0081Z" fill="#DA3313"/>
<path d="M0.184339 61.1279V67.798C0.184339 68.0404 0.136392 68.2805 0.0432358 68.5045C-0.0499207 68.7285 -0.186461 68.9319 -0.358578 69.1033C-0.530694 69.2747 -0.735016 69.4106 -0.959863 69.5032C-1.18471 69.5959 -1.42568 69.6435 -1.66899 69.6433H-11.9084C-12.1623 69.6442 -12.4136 69.5929 -12.6467 69.4926C-12.8798 69.3923 -13.0896 69.2451 -13.2629 69.0602C-13.3669 68.9506 -13.4564 68.8281 -13.5291 68.6958C-13.6819 68.4227 -13.762 68.1151 -13.7617 67.8023V61.1279H0.184339Z" fill="#F2B34D"/>
<path d="M0.183349 61.7551H-13.7598V62.1195H0.183349V61.7551Z" fill="#CC8B28"/>
<path d="M0.183349 63.4895H-13.7598V63.8539H0.183349V63.4895Z" fill="#CC8B28"/>
<path d="M0.183349 65.2239H-13.7598V65.5883H0.183349V65.2239Z" fill="#CC8B28"/>
<path d="M0.183349 66.9583H-13.7598V67.3227H0.183349V66.9583Z" fill="#CC8B28"/>
<path d="M0.183594 62.825H1.06126V65.0915C1.06126 65.2612 0.993601 65.424 0.873174 65.544C0.752746 65.664 0.58941 65.7314 0.4191 65.7314H0.187982V62.825H0.183594Z" fill="#CC8B28"/>
<path d="M77.6289 60.4487C77.6289 60.8292 74.0115 61.1382 69.5486 61.1382C65.0857 61.1382 61.4668 60.8292 61.4668 60.4487C61.4668 60.0683 65.0857 59.7607 69.5486 59.7607C74.0115 59.7607 77.6289 60.0683 77.6289 60.4487Z" fill="#00666C"/>
<path d="M65.3902 52.1378C65.399 52.1801 65.4063 52.2238 65.4136 52.2676C65.6056 53.4578 65.7302 54.6578 65.7866 55.862C65.7866 55.862 65.0728 54.9277 64.3765 53.868C64.3516 53.8316 64.3268 53.7951 64.3034 53.7572C63.8774 53.1312 63.5106 52.467 63.2078 51.7734C63.1902 51.7282 63.1741 51.686 63.1609 51.6437C63.0767 51.4553 63.0517 51.246 63.0893 51.0432C63.2955 50.447 63.9874 50.1132 64.7466 50.4164C64.9996 50.5199 65.2191 51.1977 65.3902 52.1378Z" fill="#FF560D"/>
<path d="M63.4547 50.4498C63.4547 50.4498 61.3747 49.1642 61.8311 48.7269C62.2875 48.2896 63.6332 50.0548 63.6332 50.0548C63.6332 50.0548 63.1944 48.5053 63.8775 48.1963C64.5606 47.8873 64.192 50.3186 64.192 50.3186C63.9492 50.5475 63.702 50.5766 63.4547 50.4498Z" fill="#005454"/>
<path d="M64.3001 51.2527C64.3018 51.2699 64.2969 51.287 64.2862 51.3005C64.2756 51.3141 64.2602 51.3231 64.2431 51.3256C63.8648 51.3813 63.508 51.5357 63.2089 51.7731C63.1914 51.7279 63.1753 51.6856 63.1621 51.6434C63.4738 51.4037 63.8429 51.2495 64.2329 51.1959C64.2492 51.195 64.2653 51.2005 64.2778 51.211C64.2903 51.2216 64.2983 51.2365 64.3001 51.2527Z" fill="#DA3313"/>
<path d="M65.3913 52.1382C65.4001 52.1805 65.4074 52.2242 65.4147 52.2679C65.0522 52.3003 64.7019 52.415 64.3908 52.6032C64.3837 52.6081 64.3757 52.6115 64.3673 52.6133C64.3589 52.6151 64.3502 52.6152 64.3417 52.6135C64.3332 52.6119 64.3252 52.6086 64.318 52.6038C64.3109 52.599 64.3048 52.5929 64.3001 52.5857C64.2905 52.5713 64.287 52.5538 64.2903 52.5369C64.2935 52.52 64.3034 52.505 64.3176 52.4953C64.6427 52.2944 65.0103 52.1721 65.3913 52.1382Z" fill="#DA3313"/>
<path d="M65.1672 53.4435C65.1692 53.4519 65.1694 53.4607 65.168 53.4692C65.1665 53.4777 65.1634 53.4858 65.1588 53.4932C65.1542 53.5005 65.1481 53.5068 65.1411 53.5118C65.134 53.5168 65.126 53.5203 65.1175 53.5222C64.8493 53.586 64.597 53.7035 64.3759 53.8677C64.351 53.8312 64.3261 53.7948 64.3027 53.7569C64.5379 53.5844 64.8055 53.4609 65.0897 53.3939C65.1066 53.3905 65.1241 53.3937 65.1386 53.403C65.1531 53.4122 65.1634 53.4268 65.1672 53.4435Z" fill="#DA3313"/>
<path d="M67.9207 52.423C67.9207 52.4667 67.9207 52.5104 67.9207 52.5556C67.9292 53.7605 67.8697 54.9649 67.7422 56.1632C67.7422 56.1632 67.1805 55.1326 66.6539 53.9768C66.6364 53.936 66.6174 53.8966 66.5998 53.8558C66.2739 53.1712 66.0115 52.4584 65.8158 51.7262C65.807 51.6796 65.7967 51.6344 65.7894 51.5907C65.7355 51.3919 65.7431 51.1815 65.8114 50.9872C66.1039 50.4289 66.8353 50.2059 67.5448 50.6213C67.7817 50.7657 67.8885 51.4682 67.9207 52.423Z" fill="#FF560D"/>
<path d="M66.267 50.4654C66.267 50.4654 64.4093 48.8781 64.9271 48.5137C65.4449 48.1493 66.5039 50.101 66.5039 50.101C66.5039 50.101 66.3167 48.4977 67.032 48.3023C67.7473 48.107 67.0115 50.448 67.0115 50.448C66.7409 50.636 66.4922 50.6316 66.267 50.4654Z" fill="#005454"/>
<path d="M66.9778 51.3845C66.9776 51.3931 66.9757 51.4016 66.9722 51.4095C66.9688 51.4174 66.9637 51.4245 66.9575 51.4304C66.9512 51.4364 66.9439 51.4411 66.9358 51.4442C66.9278 51.4473 66.9192 51.4488 66.9105 51.4486C66.5261 51.4444 66.1476 51.542 65.8134 51.7314C65.8047 51.6848 65.7944 51.6396 65.7871 51.5958C66.1324 51.407 66.5211 51.3111 66.9149 51.3174C66.9321 51.3182 66.9483 51.3256 66.9601 51.3382C66.9718 51.3507 66.9782 51.3673 66.9778 51.3845Z" fill="#DA3313"/>
<path d="M67.9218 52.424C67.9218 52.4677 67.9218 52.5114 67.9218 52.5566C67.5576 52.5327 67.1928 52.5925 66.8555 52.7315C66.8475 52.7367 66.8386 52.74 66.8292 52.7414C66.8199 52.7427 66.8103 52.7421 66.8013 52.7394C66.7922 52.7368 66.7838 52.7322 66.7767 52.7261C66.7695 52.7199 66.7638 52.7123 66.7599 52.7037C66.7559 52.6951 66.7539 52.6858 66.7539 52.6764C66.7539 52.667 66.756 52.6577 66.7599 52.6491C66.7638 52.6406 66.7696 52.633 66.7767 52.6268C66.7839 52.6207 66.7923 52.6161 66.8013 52.6135C67.1546 52.4631 67.5386 52.3982 67.9218 52.424Z" fill="#DA3313"/>
<path d="M67.5002 53.6825C67.5014 53.6996 67.4958 53.7166 67.4846 53.7297C67.4734 53.7428 67.4574 53.7509 67.4402 53.7524C67.1645 53.7742 66.8961 53.852 66.6518 53.9813C66.6342 53.9405 66.6152 53.9011 66.5977 53.8603C66.8559 53.7252 67.1391 53.6438 67.43 53.6212C67.4386 53.6207 67.4473 53.6218 67.4555 53.6245C67.4637 53.6273 67.4713 53.6316 67.4778 53.6373C67.4844 53.643 67.4897 53.6499 67.4935 53.6577C67.4974 53.6654 67.4996 53.6738 67.5002 53.6825Z" fill="#DA3313"/>
<path d="M69.1698 52.7295C69.1889 52.7688 69.2093 52.8082 69.2313 52.8461C69.8065 53.9057 70.4414 54.932 71.1329 55.9202C71.1329 55.9202 71.1329 54.7541 71.0305 53.4845C71.0305 53.4393 71.0305 53.3956 71.0203 53.3519C70.9751 52.5957 70.8605 51.8453 70.678 51.1101C70.6633 51.0649 70.6502 51.0197 70.6355 50.9789C70.5867 50.7785 70.4781 50.5976 70.324 50.46C69.7959 50.113 69.044 50.269 68.6272 50.9716C68.4882 51.2106 68.7296 51.8797 69.1698 52.7295Z" fill="#FF560D"/>
<path d="M69.6726 50.217C69.6726 50.217 70.5312 47.9344 69.9023 47.8644C69.2733 47.7944 69.2879 50.0129 69.2879 50.0129C69.2879 50.0129 68.6808 48.5233 67.9553 48.6894C67.2298 48.8556 69.007 50.5625 69.007 50.5625C69.3391 50.5945 69.5556 50.4706 69.6726 50.217Z" fill="#005454"/>
<path d="M69.4981 51.365C69.507 51.3798 69.5213 51.3905 69.538 51.3949C69.5546 51.3992 69.5724 51.3969 69.5874 51.3884C69.9224 51.2004 70.3015 51.1044 70.6859 51.11C70.6713 51.0648 70.6581 51.0196 70.6435 50.9788C70.25 50.9774 69.8629 51.0778 69.5201 51.2703C69.512 51.2748 69.505 51.2809 69.4995 51.2882C69.494 51.2955 69.4901 51.3039 69.488 51.3128C69.4859 51.3217 69.4858 51.331 69.4875 51.34C69.4893 51.349 69.4929 51.3575 69.4981 51.365Z" fill="#DA3313"/>
<path d="M69.1699 52.7295C69.1889 52.7688 69.2094 52.8082 69.2314 52.8461C69.5403 52.6496 69.8908 52.5274 70.2553 52.489C70.2647 52.4896 70.274 52.4882 70.2828 52.4849C70.2916 52.4816 70.2996 52.4765 70.3062 52.4699C70.3128 52.4632 70.318 52.4553 70.3213 52.4465C70.3246 52.4378 70.3259 52.4284 70.3253 52.4191C70.3247 52.4098 70.3221 52.4007 70.3176 52.3924C70.3132 52.3842 70.307 52.377 70.2995 52.3713C70.2921 52.3657 70.2835 52.3617 70.2743 52.3596C70.2652 52.3575 70.2557 52.3574 70.2465 52.3592C69.8634 52.3965 69.4946 52.5233 69.1699 52.7295Z" fill="#DA3313"/>
<path d="M70.1463 53.629C70.1499 53.6369 70.1551 53.6439 70.1614 53.6498C70.1678 53.6557 70.1753 53.6603 70.1835 53.6633C70.1916 53.6662 70.2003 53.6676 70.209 53.6672C70.2177 53.6668 70.2262 53.6647 70.2341 53.6611C70.486 53.5487 70.7582 53.4887 71.0342 53.4847C71.0342 53.4395 71.0342 53.3958 71.024 53.3521C70.7321 53.3582 70.4445 53.4232 70.1785 53.543C70.1629 53.5503 70.1508 53.5634 70.1448 53.5795C70.1388 53.5955 70.1393 53.6133 70.1463 53.629Z" fill="#DA3313"/>
<path d="M71.8021 52.8691C71.8226 52.907 71.843 52.9463 71.865 52.9842C72.4529 54.038 73.1005 55.0575 73.8046 56.0379C73.8046 56.0379 73.7856 54.8718 73.6744 53.6023C73.6744 53.5585 73.6671 53.5134 73.6627 53.4696C73.6118 52.7143 73.4908 51.9653 73.3014 51.2322C73.2868 51.1865 73.2722 51.1428 73.2575 51.101C73.2067 50.9017 73.0965 50.7223 72.9416 50.5865C72.4077 50.2454 71.6587 50.4101 71.2491 51.1156C71.1073 51.3575 71.353 52.0237 71.8021 52.8691Z" fill="#FF560D"/>
<path d="M72.2779 50.3497C72.2779 50.3497 73.1117 48.0569 72.4827 47.9942C71.8537 47.9315 71.8976 50.1486 71.8976 50.1486C71.8976 50.1486 71.273 48.6662 70.5504 48.8367C69.8278 49.0073 71.6226 50.6966 71.6226 50.6966C71.9488 50.7302 72.1624 50.6048 72.2779 50.3497Z" fill="#005454"/>
<path d="M72.11 51.5012C72.1144 51.5085 72.1201 51.5149 72.127 51.52C72.1339 51.5251 72.1417 51.5287 72.15 51.5308C72.1583 51.5328 72.1669 51.5332 72.1754 51.5319C72.1838 51.5305 72.1919 51.5275 72.1992 51.5231C72.5321 51.3309 72.9102 51.2303 73.2948 51.2315C73.2802 51.1859 73.2656 51.1421 73.251 51.1003C72.8574 51.1054 72.4719 51.2119 72.1319 51.4094C72.1243 51.4138 72.1177 51.4198 72.1125 51.4269C72.1072 51.434 72.1034 51.4421 72.1014 51.4506C72.0994 51.4592 72.0991 51.4681 72.1005 51.4768C72.102 51.4855 72.1052 51.4938 72.11 51.5012Z" fill="#DA3313"/>
<path d="M71.8008 52.8711C71.8213 52.909 71.8417 52.9484 71.8637 52.9863C72.1694 52.7878 72.5166 52.6616 72.8788 52.6175C72.8945 52.6143 72.9085 52.6054 72.9181 52.5927C72.9277 52.5799 72.9323 52.5641 72.931 52.5482C72.9298 52.5323 72.9227 52.5174 72.9113 52.5062C72.8998 52.4951 72.8846 52.4886 72.8686 52.4878C72.4873 52.5299 72.1214 52.6612 71.8008 52.8711Z" fill="#DA3313"/>
<path d="M72.7896 53.7579C72.7931 53.7657 72.7981 53.7727 72.8043 53.7786C72.8106 53.7844 72.818 53.7889 72.8261 53.7917C72.8342 53.7946 72.8428 53.7958 72.8514 53.7952C72.8599 53.7947 72.8683 53.7924 72.8759 53.7885C73.1269 53.6737 73.3986 53.6108 73.6746 53.6033C73.6746 53.5596 73.6673 53.5144 73.6629 53.4707C73.3712 53.48 73.0845 53.5484 72.8203 53.6719C72.8126 53.6754 72.8057 53.6805 72.7999 53.6868C72.7942 53.6931 72.7898 53.7005 72.7869 53.7085C72.7841 53.7165 72.7828 53.7249 72.7833 53.7334C72.7838 53.7419 72.7859 53.7502 72.7896 53.7579Z" fill="#DA3313"/>
<path d="M74.4059 52.8691C74.4264 52.907 74.4468 52.9463 74.4688 52.9842C75.0567 54.038 75.7043 55.0575 76.4084 56.0379C76.4084 56.0379 76.3894 54.8718 76.2782 53.6023C76.2782 53.5585 76.2709 53.5134 76.2665 53.4696C76.2137 52.7141 76.0907 51.9651 75.8994 51.2322C75.8847 51.1865 75.8701 51.1428 75.8555 51.101C75.8046 50.9017 75.6945 50.7223 75.5395 50.5865C75.0056 50.2454 74.2567 50.4101 73.8471 51.1156C73.7081 51.3575 73.9568 52.0237 74.4059 52.8691Z" fill="#FF560D"/>
<path d="M74.8795 50.3497C74.8795 50.3497 75.7133 48.0569 75.0843 47.9942C74.4553 47.9315 74.4992 50.1486 74.4992 50.1486C74.4992 50.1486 73.8746 48.6662 73.152 48.8367C72.4293 49.0073 74.2242 50.6966 74.2242 50.6966C74.5518 50.7302 74.7639 50.6048 74.8795 50.3497Z" fill="#005454"/>
<path d="M76.5183 52.0137V58.6837C76.5184 58.9967 76.4389 59.3046 76.2872 59.5787C76.2134 59.7103 76.1241 59.8327 76.021 59.9431C75.8472 60.1278 75.6372 60.2749 75.4039 60.3752C75.1706 60.4756 74.9191 60.5269 74.665 60.5261H64.4256C64.1715 60.5271 63.9199 60.4758 63.6866 60.3755C63.4533 60.2752 63.2432 60.128 63.0696 59.9431C62.9665 59.8327 62.8772 59.7103 62.8034 59.5787C62.6511 59.3049 62.5715 58.9968 62.5723 58.6837V52.0137H76.5183Z" fill="#F2B34D"/>
<path d="M76.5193 52.6411H62.5762V53.0055H76.5193V52.6411Z" fill="#CC8B28"/>
<path d="M76.5193 54.3755H62.5762V54.7399H76.5193V54.3755Z" fill="#CC8B28"/>
<path d="M76.5193 56.1099H62.5762V56.4743H76.5193V56.1099Z" fill="#CC8B28"/>
<path d="M76.5193 57.8442H62.5762V58.2086H76.5193V57.8442Z" fill="#CC8B28"/>
<path d="M76.2875 59.5786C76.2138 59.7103 76.1244 59.8326 76.0213 59.943H63.0729C62.9698 59.8326 62.8804 59.7103 62.8066 59.5786H76.2875Z" fill="#CC8B28"/>
<path d="M62.5757 56.6187H62.3446C62.1743 56.6187 62.0109 56.5512 61.8905 56.4312C61.7701 56.3112 61.7024 56.1485 61.7024 55.9788V53.7122H62.5801V56.6187H62.5757Z" fill="#CC8B28"/>
</g>
<defs>
<clipPath id="clip0_1720_9181">
<rect width="74" height="72.52" rx="10" fill="white"/>
</clipPath>
</defs>
</svg>
