<svg width="20" height="20" viewBox="0 0 20 20" fill="none" xmlns="http://www.w3.org/2000/svg">
<g id="forest 1" clip-path="url(#clip0_1384_77156)">
<g id="Group">
<path id="Vector" d="M14.1177 8.09524V10.1541H12.9412V8.09524H11.1765C10.7718 8.09524 10.4879 7.69602 10.6209 7.31375L12.9738 0.549064C13.157 0.0224231 13.9018 0.0224231 14.085 0.549064L16.4379 7.31375C16.5709 7.69602 16.2871 8.09524 15.8823 8.09524H14.1177ZM5.88234 7.15406C4.53984 6.88152 3.52941 5.69461 3.52941 4.27172C3.52941 2.64735 4.84621 1.33055 6.47059 1.33055C8.09496 1.33055 9.41176 2.64735 9.41176 4.27172C9.41176 5.69461 8.40133 6.88156 7.05883 7.15406V10.1541H5.88234V7.15406ZM4.62711 11.0364H6.36094L4.23555 18.3571C3.09793 17.6964 2.13441 16.8445 1.4152 15.8564L4.60707 11.0686C4.61414 11.058 4.62082 11.0473 4.62711 11.0364ZM3.21461 11.0364L0.740781 14.7471C0.263477 13.7861 0 12.7323 0 11.6247C0 11.2998 0.263359 11.0364 0.588242 11.0364H3.21461ZM7.58598 11.0364H9.4118V19.8459C7.93551 19.7754 6.54254 19.4411 5.30352 18.8983L7.58598 11.0364ZM15.3729 11.0364C15.3792 11.0473 15.3859 11.058 15.3929 11.0686L18.5848 15.8564C17.8655 16.8445 16.9021 17.6964 15.7644 18.3571L13.639 11.0364H15.3729ZM16.7854 11.0364H19.4118C19.7366 11.0364 20 11.2998 20 11.6247C20 12.7323 19.7365 13.7861 19.2592 14.7472L16.7854 11.0364ZM12.414 11.0364L14.6965 18.8983C13.4575 19.4411 12.0645 19.7754 10.5882 19.8459V11.0364H12.414Z" fill="#044D3A"/>
</g>
</g>
<defs>
<clipPath id="clip0_1384_77156">
<rect width="20" height="20" fill="white"/>
</clipPath>
</defs>
</svg>
