<svg width="100" height="102" viewBox="0 0 100 102" fill="none" xmlns="http://www.w3.org/2000/svg">
<path d="M49.1089 0.556088C48.9779 0.582823 48.6731 0.791358 48.51 0.965138C48.4191 1.06138 48.2748 1.24318 48.1892 1.36884C48.1037 1.49717 47.9539 1.70838 47.855 1.84206C47.7561 1.97841 47.6411 2.14416 47.601 2.21368C47.4834 2.41419 47.3604 2.61203 47.2856 2.72165C47.1439 2.92751 47.0209 3.12802 47.0209 3.15209C47.0209 3.16545 46.9835 3.22694 46.938 3.28844C46.8926 3.3526 46.8311 3.45954 46.8043 3.52638C46.7749 3.59589 46.7295 3.67342 46.7054 3.70016C46.6813 3.72689 46.6305 3.80977 46.5931 3.88731C46.4621 4.13862 46.3204 4.40062 46.299 4.42736C46.2857 4.4434 46.2509 4.51826 46.2188 4.59846C46.1894 4.67867 46.1386 4.77759 46.1092 4.81769C46.0798 4.8578 46.0397 4.94335 46.0183 5.00484C45.9942 5.06901 45.9434 5.17595 45.9007 5.24279C45.8579 5.30962 45.8098 5.41122 45.7911 5.47004C45.7723 5.52885 45.7242 5.63579 45.6841 5.71065C45.644 5.78284 45.5959 5.89245 45.5772 5.95127C45.5585 6.01009 45.521 6.08762 45.497 6.12505C45.4702 6.16248 45.4275 6.26407 45.4034 6.3523C45.3767 6.44053 45.3232 6.57153 45.2831 6.64639C45.243 6.71857 45.2002 6.82819 45.1895 6.88701C45.1815 6.94582 45.1387 7.05544 45.0959 7.12762C45.0558 7.20248 45.0077 7.33349 44.989 7.42171C44.9703 7.50994 44.9275 7.63827 44.8928 7.71045C44.8553 7.77997 44.8072 7.92968 44.7858 8.04464C44.7617 8.15693 44.719 8.29596 44.6922 8.3521C44.6628 8.40557 44.6147 8.574 44.5853 8.72639C44.5559 8.87611 44.5078 9.05257 44.4784 9.1194C44.4489 9.18624 44.4008 9.39478 44.3714 9.5846C44.3447 9.77442 44.2912 10.0257 44.2538 10.1407C44.2163 10.2557 44.1869 10.408 44.1869 10.4776C44.1869 10.6353 44.1148 11.2529 44.0907 11.2876C44.0506 11.3545 44.0158 12.0362 44.0158 12.742C44.0158 13.52 44.0372 13.9291 44.0827 14.0788C44.096 14.1216 44.1308 14.3702 44.1575 14.6269C44.1896 14.9022 44.2324 15.1589 44.2671 15.2552C44.2966 15.3434 44.3447 15.5412 44.3714 15.699C44.4008 15.854 44.4489 16.0358 44.4837 16.1C44.5158 16.1642 44.5586 16.2952 44.5799 16.3861C44.5987 16.4796 44.6521 16.64 44.6949 16.739C44.7404 16.8406 44.7751 16.9395 44.7751 16.9582C44.7751 16.9796 44.8232 17.0919 44.8821 17.2068C44.9409 17.3218 44.989 17.4314 44.989 17.4501C44.989 17.4688 45.0639 17.6266 45.1521 17.8004C45.243 17.9741 45.3473 18.1747 45.3847 18.2468C45.4194 18.319 45.4836 18.4286 45.5264 18.4848C45.5692 18.5436 45.6039 18.6024 45.6039 18.6185C45.6039 18.6452 45.9969 19.2387 46.1039 19.3724C46.1386 19.4152 46.2563 19.5729 46.3632 19.72C46.5958 20.0408 46.8097 20.276 46.9995 20.4231C47.2428 20.6076 47.6973 20.661 48.1732 20.5594C48.2935 20.5327 48.3416 20.5006 48.5288 20.3215C48.6918 20.1638 48.7694 20.0622 48.8469 19.9124C48.9431 19.72 48.9458 19.7039 48.9458 19.4339C48.9458 19.1612 48.9431 19.1505 48.8362 18.9313C48.7747 18.8083 48.6464 18.6104 48.5475 18.4901C48.4485 18.3725 48.3122 18.1987 48.2454 18.1025C48.1758 18.0062 48.0903 17.8913 48.0529 17.8485C48.0181 17.803 47.9272 17.664 47.855 17.541C47.7802 17.4154 47.6946 17.2763 47.6652 17.2336C47.6358 17.1881 47.5716 17.0758 47.5208 16.9796C47.47 16.8833 47.4112 16.7684 47.3872 16.7256C47.2829 16.5304 47.1305 16.1829 47.1145 16.0973C47.1038 16.0465 47.061 15.9423 47.0209 15.8701C46.9781 15.7952 46.9327 15.6562 46.9166 15.5573C46.9006 15.461 46.8578 15.314 46.8204 15.2338C46.7776 15.1429 46.7402 14.9825 46.7134 14.7953C46.6947 14.6349 46.6626 14.4691 46.6466 14.4237C46.6279 14.3809 46.5931 14.2071 46.5637 14.0387C46.5209 13.7767 46.5129 13.5842 46.5129 12.7501C46.5129 11.7101 46.5423 11.3144 46.6439 10.9641C46.6733 10.8679 46.7081 10.6647 46.7241 10.5096C46.7402 10.3492 46.7829 10.1353 46.8204 10.015C46.8605 9.8974 46.9086 9.71025 46.9273 9.59797C46.9487 9.48568 46.9941 9.32259 47.0316 9.23437C47.069 9.14614 47.1118 8.99107 47.1278 8.89215C47.1439 8.79323 47.1866 8.65956 47.2214 8.60074C47.2562 8.53925 47.3043 8.4029 47.3283 8.29328C47.3497 8.18634 47.3978 8.04999 47.4326 7.9885C47.47 7.92701 47.5128 7.81472 47.5315 7.74254C47.5476 7.66768 47.6037 7.52865 47.6518 7.43241C47.7026 7.33616 47.7427 7.23991 47.7427 7.21585C47.7427 7.19446 47.7775 7.11158 47.8203 7.03138C47.8604 6.95117 47.9058 6.8576 47.9165 6.82017C47.962 6.65708 48.5608 5.4433 48.6544 5.32299C48.6918 5.27219 48.7346 5.20001 48.7453 5.16258C48.756 5.12515 48.8121 5.01554 48.8683 4.91929C48.9244 4.82304 48.9726 4.73214 48.9726 4.7161C48.9726 4.70006 49.002 4.65194 49.0367 4.60916C49.0715 4.56906 49.133 4.47281 49.1731 4.40062C49.387 4.01564 49.55 3.94078 49.6703 4.17872C49.6998 4.23754 49.7612 4.33646 49.804 4.39528C49.8468 4.45409 49.8816 4.51291 49.8816 4.52628C49.8816 4.54232 49.9163 4.60114 49.9564 4.66263C50.1382 4.92731 50.2559 5.1198 50.2559 5.14921C50.2559 5.16525 50.3093 5.2615 50.3762 5.36042C50.443 5.46201 50.4965 5.55559 50.4965 5.56896C50.4965 5.585 50.5205 5.63045 50.5499 5.67055C50.6088 5.75343 51.1114 6.73996 51.1114 6.77204C51.1114 6.78541 51.1408 6.83888 51.1782 6.89503C51.213 6.9485 51.2664 7.06079 51.2959 7.14099C51.3226 7.2212 51.3761 7.34151 51.4162 7.40834C51.4536 7.47518 51.4857 7.54737 51.4857 7.57143C51.4857 7.59282 51.5338 7.70778 51.5926 7.82274C51.6514 7.9377 51.6996 8.04999 51.6996 8.07138C51.6996 8.09277 51.7343 8.18634 51.7771 8.27724C51.8225 8.37082 51.876 8.52053 51.9001 8.61411C51.9241 8.70501 51.9669 8.82799 51.9963 8.88413C52.0257 8.94295 52.0712 9.07395 52.0979 9.18089C52.1246 9.28784 52.1701 9.42686 52.1995 9.4937C52.2316 9.56054 52.277 9.7156 52.3011 9.84126C52.3252 9.96691 52.376 10.1514 52.4107 10.2557C52.4481 10.3572 52.4989 10.5925 52.5257 10.777C52.5524 10.9615 52.6005 11.1834 52.6299 11.2716C52.67 11.3892 52.6914 11.5603 52.7128 11.9132C52.7289 12.1779 52.7529 12.4373 52.769 12.4881C52.8037 12.6057 52.8037 13.774 52.769 13.9184C52.7556 13.9772 52.7289 14.2285 52.7128 14.4798C52.6888 14.8568 52.67 14.9718 52.6086 15.1616C52.5658 15.2872 52.5177 15.4717 52.5016 15.5733C52.4856 15.6749 52.4481 15.8139 52.4214 15.8808C52.392 15.9476 52.3519 16.0813 52.3278 16.1748C52.3038 16.2711 52.2583 16.3968 52.2289 16.4556C52.1995 16.5144 52.1514 16.6293 52.1246 16.7096C52.0952 16.7898 52.0444 16.9047 52.0097 16.9635C51.9749 17.025 51.9322 17.1213 51.9134 17.1801C51.8947 17.2389 51.8386 17.3459 51.7878 17.418C51.7397 17.4876 51.6996 17.5624 51.6996 17.5811C51.6996 17.6025 51.6568 17.672 51.606 17.7389C51.5552 17.8057 51.4964 17.8993 51.4723 17.9474C51.4509 17.9955 51.368 18.1265 51.2878 18.2361C51.205 18.3458 51.1194 18.4661 51.0927 18.5035C51.0232 18.6024 50.82 18.8724 50.6435 19.0943C50.558 19.204 46.6252 23.1608 41.9037 27.8876C37.1823 32.6144 33.2575 36.5552 33.1827 36.6434C33.1078 36.7316 33.0143 36.8519 32.9768 36.9107C32.9367 36.9696 32.8833 37.0471 32.8538 37.0845C32.8084 37.146 32.6774 37.3465 32.4796 37.6567C32.4341 37.7288 32.3967 37.8037 32.3967 37.8197C32.3967 37.8385 32.3592 37.9053 32.3111 37.9695C32.2657 38.0336 32.2042 38.1566 32.1774 38.2422C32.1507 38.3304 32.1053 38.432 32.0785 38.4721C32.0518 38.5095 32.001 38.6325 31.9689 38.7421C31.9368 38.8517 31.886 38.9881 31.8593 39.0416C31.8299 39.0977 31.7898 39.2234 31.7684 39.3249C31.747 39.4265 31.7042 39.5736 31.6748 39.6538C31.6374 39.7447 31.5973 39.9559 31.5679 40.2259C31.5385 40.4639 31.5037 40.6884 31.4903 40.7312C31.4716 40.7767 31.4609 41.0868 31.4609 41.5386C31.4609 42.1375 31.4716 42.3273 31.5117 42.584C31.5411 42.7578 31.5759 43.0064 31.5919 43.1401C31.6053 43.2711 31.6427 43.4395 31.6748 43.5144C31.7069 43.5866 31.755 43.7523 31.7818 43.8806C31.8112 44.009 31.8593 44.164 31.8887 44.2255C31.9208 44.287 31.9662 44.3993 31.9876 44.4742C32.009 44.549 32.0571 44.6586 32.0919 44.7201C32.1266 44.7789 32.1721 44.8832 32.1935 44.9501C32.2122 45.0169 32.2603 45.1131 32.2978 45.1613C32.3325 45.2121 32.3887 45.3083 32.4181 45.3778C32.4475 45.4473 32.5303 45.5917 32.6025 45.696C32.672 45.8029 32.7656 45.9446 32.8057 46.0114C32.8752 46.1211 33.0303 46.3216 33.3164 46.6665C33.3779 46.7386 36.2118 49.5886 39.6152 53C45.0558 58.4487 46.1386 59.5181 46.529 59.8095C46.5771 59.847 46.6894 59.9325 46.7776 60.002C46.8658 60.0715 46.9888 60.1544 47.053 60.1865C47.1171 60.2186 47.192 60.2667 47.2214 60.2934C47.2508 60.3202 47.3203 60.3603 47.3738 60.3817C47.4273 60.4057 47.5155 60.4539 47.569 60.4886C47.6224 60.526 47.708 60.5688 47.7614 60.5875C47.8149 60.6036 47.9138 60.6517 47.978 60.6945C48.0422 60.7346 48.1331 60.7773 48.1812 60.7854C48.2266 60.7961 48.3175 60.8388 48.3844 60.8816C48.4512 60.9217 48.5715 60.9698 48.6517 60.9886C48.7319 61.0046 48.8522 61.0474 48.9164 61.0848C48.9833 61.1249 49.1276 61.1677 49.264 61.1917C49.3896 61.2131 49.5848 61.2613 49.6944 61.2987C49.8949 61.3655 50.1409 61.4003 50.7104 61.4377C50.8788 61.4511 51.0526 61.4725 51.0927 61.4912C51.1916 61.5286 51.884 61.5313 51.9856 61.4912C52.0257 61.4751 52.2049 61.4511 52.3813 61.4377C53.0203 61.3923 53.2368 61.3629 53.4641 61.2853C53.5897 61.2425 53.7635 61.1998 53.8517 61.1864C53.94 61.1757 54.079 61.1329 54.1646 61.0902C54.2501 61.0474 54.3811 60.9993 54.4586 60.9832C54.5362 60.9645 54.6618 60.919 54.734 60.8789C54.8089 60.8388 54.9158 60.7907 54.9746 60.772C55.0334 60.7533 55.1484 60.6998 55.2286 60.6544C55.4291 60.5394 55.5067 60.4966 55.7152 60.387C55.8114 60.3335 55.8997 60.2801 55.9104 60.264C55.9184 60.248 55.9772 60.2106 56.036 60.1812C56.0948 60.1517 56.2339 60.0582 56.3435 59.9753C56.4558 59.8924 56.5787 59.7988 56.6189 59.7694C56.8835 59.5769 57.7524 58.7187 63.0915 53.3743L69.0454 47.4177L69.1256 47.2038C69.2673 46.8242 69.2807 46.736 69.2272 46.5435C69.2032 46.4499 69.1497 46.2895 69.1123 46.1879L69.0427 46.0007L62.9979 39.9559L56.953 33.911L56.7124 33.8282C56.5066 33.756 56.4317 33.7426 56.2178 33.7426C56.0013 33.7426 55.9291 33.756 55.7232 33.8282L55.4826 33.911L53.17 36.2183C51.8974 37.4856 50.82 38.5523 50.7772 38.5897C50.6275 38.7127 50.3227 38.9079 50.2157 38.948C50.1569 38.972 50.0714 39.0175 50.0259 39.0522C49.9805 39.0843 49.8923 39.1244 49.8254 39.1431C49.7612 39.1592 49.5928 39.21 49.4538 39.2554L49.1998 39.3356L48.6517 39.3249C48.1224 39.3143 48.0983 39.3116 47.9539 39.2421C47.8737 39.202 47.7401 39.1592 47.6625 39.1431C47.5823 39.1271 47.4727 39.0843 47.4166 39.0496C47.3604 39.0121 47.2508 38.9533 47.1759 38.9159C46.9407 38.8036 46.799 38.6886 46.3498 38.2475C45.9087 37.8144 45.8552 37.7369 45.898 37.5978C45.9274 37.4963 54.3838 29.0506 54.6297 28.8741C54.7313 28.8019 54.8677 28.7191 54.9345 28.6896C55.0014 28.6602 55.103 28.6094 55.1618 28.5774C55.2206 28.5453 55.3703 28.4918 55.496 28.4544C55.6216 28.4196 55.8088 28.3688 55.9104 28.3394C56.0708 28.294 56.1617 28.2859 56.5654 28.294C56.9931 28.3047 57.052 28.31 57.2338 28.3768C57.3434 28.4143 57.4904 28.4597 57.5599 28.4758C57.6294 28.4891 57.7444 28.5373 57.8166 28.58C57.8888 28.6228 57.977 28.6656 58.0118 28.6763C58.0465 28.687 58.1428 28.7378 58.223 28.7912C58.3032 28.8447 58.4128 28.9142 58.4689 28.9517C58.5224 28.9864 61.7226 32.1679 65.5805 36.0258C72.5825 43.0251 72.5932 43.0358 72.8338 43.1668L73.0744 43.2978L73.422 43.3005C73.7589 43.3005 73.7722 43.2978 73.9032 43.2203C73.9781 43.1775 74.0823 43.1187 74.1385 43.0893C74.2267 43.0465 74.3096 42.9583 74.4994 42.6989C74.5636 42.6107 74.6197 42.2204 74.601 41.9717C74.5823 41.683 74.5449 41.5734 74.4058 41.3889C74.2855 41.2285 60.2549 27.2058 60.0811 27.0695C60.0223 27.024 59.9447 26.9706 59.9073 26.9518C59.8699 26.9331 59.7923 26.877 59.7362 26.8262C59.6774 26.7781 59.6159 26.738 59.5998 26.738C59.5838 26.738 59.5277 26.7086 59.4769 26.6711C59.3325 26.5615 58.9635 26.3717 58.8379 26.3369C58.7764 26.3209 58.6801 26.2781 58.6267 26.2434C58.5732 26.2113 58.4342 26.1605 58.3165 26.1364C58.1989 26.1097 58.0305 26.0642 57.9396 26.0295C57.6669 25.9279 57.0734 25.8744 56.3462 25.8905C55.5949 25.9065 55.2981 25.9386 55.0655 26.0268C54.9693 26.0616 54.8089 26.1097 54.7046 26.1311C54.603 26.1525 54.4586 26.2006 54.3865 26.238C54.3116 26.2754 54.1966 26.3182 54.1325 26.3369C54.0656 26.3557 53.9453 26.4091 53.8651 26.4599C53.7822 26.5107 53.7074 26.5508 53.694 26.5508C53.6833 26.5508 53.6111 26.5909 53.5363 26.639C53.3999 26.7273 53.3652 26.7487 53.047 26.9625C52.8786 27.0748 42.9571 36.9669 42.9571 37.0204C42.9571 37.0364 42.917 37.122 42.8716 37.2075C42.786 37.3572 42.7833 37.3786 42.7833 37.6593C42.7833 37.9508 42.7833 37.9561 42.8956 38.1807C43.0026 38.4026 43.0293 38.432 43.9918 39.3864C44.5318 39.9238 45.0719 40.4398 45.1895 40.528C45.3071 40.6189 45.4408 40.7232 45.4863 40.7606C45.5344 40.7981 45.6119 40.8435 45.6601 40.8649C45.7109 40.8863 45.7964 40.9398 45.8525 40.9825C45.9087 41.028 45.9889 41.0734 46.0343 41.0815C46.0771 41.0921 46.1814 41.1403 46.2643 41.1911C46.3472 41.2419 46.43 41.282 46.4461 41.282C46.4648 41.282 46.5557 41.3221 46.6493 41.3729C46.7428 41.421 46.8952 41.4745 46.9861 41.4932C47.0797 41.5119 47.2187 41.5547 47.2989 41.5921C47.4941 41.6803 47.8096 41.7124 48.6143 41.7284C49.3602 41.7418 49.9404 41.6964 50.1783 41.6028C50.2585 41.5734 50.4216 41.5253 50.5446 41.4959C50.6649 41.4664 50.8307 41.4076 50.9135 41.3622C50.9964 41.3194 51.0846 41.282 51.1087 41.282C51.1328 41.282 51.2183 41.2392 51.2985 41.1884C51.3787 41.1376 51.4563 41.0948 51.4723 41.0948C51.4883 41.0948 51.5846 41.0414 51.6835 40.9745C51.7851 40.9077 51.8787 40.8542 51.8947 40.8542C51.9081 40.8542 51.9642 40.8141 52.0204 40.766C52.0739 40.7205 52.1835 40.6323 52.2637 40.5735C52.3439 40.5147 53.2315 39.6458 54.2394 38.6432C55.2473 37.6406 56.1029 36.8065 56.1456 36.7931C56.1938 36.7744 56.2419 36.7744 56.2927 36.7931C56.3756 36.8252 66.0671 46.498 66.1259 46.6103C66.15 46.6558 66.1607 46.7173 66.15 46.76C66.1313 46.8456 64.1716 48.8106 63.9577 48.9577C63.685 49.1475 63.4257 49.2705 63.1957 49.3186C62.7279 49.4175 61.9231 49.3614 61.6959 49.2117C61.6424 49.1742 61.5542 49.1261 61.498 49.1047C61.4446 49.0807 61.351 49.0245 61.2895 48.9791C61.228 48.9309 59.9019 47.6236 58.3433 46.0703C56.7846 44.5169 55.4425 43.1989 55.3623 43.1427C55.2714 43.0786 55.127 43.0117 54.9746 42.9663C54.6485 42.8647 54.5041 42.8513 54.3651 42.9021C54.3036 42.9235 54.1886 42.9609 54.1084 42.9823C53.9988 43.0144 53.9159 43.0652 53.7796 43.1855C53.5817 43.362 53.5229 43.4662 53.3972 43.8432C53.3144 44.0972 53.317 44.1346 53.4694 44.549L53.555 44.7816L57.1589 48.3855L60.7628 51.9895V52.0991C60.7628 52.2087 60.7548 52.2167 59.7014 53.2674C59.1159 53.8502 58.5705 54.3716 58.4903 54.4277C58.2016 54.6309 57.9316 54.7566 57.6909 54.8047C57.2311 54.8929 56.4638 54.8394 56.2766 54.7058C56.2339 54.6764 56.1483 54.6336 56.0815 54.6068C55.7847 54.4892 55.5762 54.2914 51.9134 50.626C49.9217 48.6315 48.2159 46.9311 48.1224 46.8509C47.847 46.605 47.3604 46.4686 47.0476 46.5461C46.8284 46.6023 46.6279 46.6932 46.5263 46.7814C46.2028 47.0675 46.0851 47.3268 46.0851 47.7412C46.0851 48.0781 46.176 48.3187 46.414 48.5994C46.5102 48.7144 48.5394 50.757 50.9216 53.1364C54.2287 56.4409 55.2554 57.4809 55.2554 57.529C55.2554 57.6306 55.1885 57.7349 55.0495 57.8498C54.9131 57.9621 54.6779 58.1225 54.4961 58.2295C54.4373 58.2642 54.3437 58.3204 54.2929 58.3551C54.2421 58.3899 54.1485 58.4353 54.0843 58.4567C54.0202 58.4808 53.9373 58.5236 53.8999 58.553C53.8624 58.5824 53.7475 58.6305 53.6459 58.6599C53.5443 58.692 53.424 58.7401 53.3759 58.7669C53.3277 58.7936 53.1994 58.831 53.0898 58.8471C52.9802 58.8631 52.8064 58.9059 52.7021 58.9406C52.4428 59.0315 52.1487 59.0609 51.5258 59.0609C50.959 59.0609 50.5339 59.0155 50.3494 58.938C50.2906 58.9139 50.1462 58.8765 50.0286 58.8578C49.911 58.8364 49.7586 58.7909 49.6891 58.7535C49.6196 58.7161 49.5046 58.6733 49.4351 58.6599C49.3656 58.6439 49.264 58.6011 49.2132 58.5663C49.1624 58.5316 49.0688 58.4835 49.0046 58.4621C48.9405 58.438 48.8496 58.3926 48.8041 58.3605C48.756 58.3257 48.6651 58.2723 48.5983 58.2402C48.4432 58.1626 48.1892 57.9808 47.9031 57.7429C47.5743 57.4702 35.3081 45.2094 35.129 44.9741C35.0461 44.8645 34.9339 44.7228 34.8831 44.656C34.7601 44.5009 34.6371 44.3004 34.5382 44.1025C34.4927 44.0143 34.4339 43.8994 34.4045 43.8486C34.2949 43.6614 34.1612 43.3192 34.1211 43.1294C34.0997 43.0251 34.0623 42.9021 34.0382 42.8567C33.95 42.6856 33.9179 42.4236 33.9019 41.7766C33.8832 41.052 33.9152 40.6831 34.0142 40.3863C34.0489 40.2821 34.097 40.1217 34.1184 40.0254C34.1398 39.9292 34.1933 39.7741 34.2387 39.6779C34.2842 39.5816 34.3216 39.4907 34.3216 39.4747C34.3216 39.4613 34.359 39.3891 34.4045 39.3169C34.4499 39.2421 34.5034 39.1405 34.5248 39.0843C34.5569 38.9908 34.6585 38.825 34.8242 38.5951C34.867 38.5363 34.9232 38.4454 34.9499 38.3946C34.974 38.3411 38.7891 34.5019 43.5961 29.6922C48.3256 24.9574 52.2797 20.9819 52.3867 20.8562C52.4936 20.7305 52.6406 20.5514 52.7155 20.4552C52.7877 20.3589 52.9026 20.2146 52.9668 20.1343C53.2395 19.7921 53.7288 19.0355 53.8411 18.7869C53.8678 18.7254 53.9132 18.6425 53.9426 18.6051C53.9721 18.5703 54.0255 18.4687 54.0656 18.3832C54.1031 18.295 54.1512 18.2067 54.1699 18.1827C54.1913 18.1613 54.226 18.0757 54.2501 17.9929C54.2715 17.91 54.3143 17.8137 54.341 17.779C54.3704 17.7442 54.4132 17.6426 54.4399 17.5544C54.464 17.4662 54.5175 17.3164 54.5602 17.2202C54.6003 17.124 54.6431 16.9929 54.6538 16.9288C54.6645 16.8619 54.7073 16.7363 54.7474 16.6481C54.7902 16.5572 54.8356 16.3941 54.8516 16.2818C54.8677 16.1695 54.9131 15.985 54.9559 15.8674C55.0121 15.7203 55.0415 15.5787 55.0548 15.4022C55.0655 15.2632 55.0976 15.0279 55.1243 14.8809C55.1511 14.7338 55.1751 14.5627 55.1751 14.5012C55.1751 14.4397 55.1885 14.3568 55.2046 14.3141C55.2447 14.2098 55.2447 12.1539 55.2046 12.0523C55.1885 12.0095 55.1751 11.9266 55.1751 11.8678C55.1751 11.8063 55.1511 11.6245 55.1243 11.4614C55.0949 11.2983 55.0602 11.0256 55.0441 10.8572C55.0281 10.6594 54.9933 10.4722 54.9479 10.3359C54.9105 10.2182 54.865 10.0204 54.8516 9.89473C54.8383 9.76372 54.7928 9.57925 54.7474 9.46162C54.7019 9.34665 54.6565 9.1702 54.6404 9.06593C54.6244 8.96167 54.5816 8.81462 54.5442 8.73976C54.5068 8.6649 54.464 8.52321 54.4479 8.42696C54.4319 8.33071 54.3865 8.18099 54.3437 8.09812C54.3009 8.01256 54.2474 7.86284 54.2234 7.76392C54.202 7.665 54.1592 7.55539 54.1325 7.51529C54.1057 7.47786 54.063 7.36824 54.0389 7.27467C54.0148 7.17842 53.9667 7.05811 53.932 7.00464C53.8972 6.95117 53.8544 6.85492 53.8384 6.79076C53.8223 6.72659 53.7742 6.60094 53.7341 6.51271C53.6913 6.42449 53.6165 6.2614 53.5657 6.15179C53.3946 5.78284 53.1914 5.36309 53.1513 5.29626C53.1299 5.25883 53.0844 5.16258 53.047 5.08237C53.0123 5.00217 52.9695 4.91394 52.9561 4.88721C52.9401 4.86047 52.8946 4.77759 52.8518 4.70006C52.8117 4.62253 52.7449 4.51291 52.7048 4.45677C52.6674 4.40062 52.6353 4.33913 52.6353 4.32042C52.6353 4.3017 52.5925 4.22417 52.539 4.14664C52.4856 4.06911 52.4321 3.97019 52.4161 3.92206C52.4 3.87661 52.3519 3.79106 52.3091 3.73224C52.2663 3.67342 52.1754 3.52905 52.1059 3.40874C52.0364 3.29111 51.9455 3.14941 51.9054 3.09594C51.8653 3.04514 51.8225 2.97029 51.8065 2.93286C51.7931 2.89543 51.7129 2.7671 51.6274 2.64679C51.5418 2.52915 51.4429 2.38478 51.4055 2.32864C51.2451 2.08 51.1622 1.95969 51.0846 1.86077C51.0392 1.80195 50.9055 1.62015 50.7852 1.45974C50.4189 0.965138 50.2772 0.820767 50.0179 0.67907L49.788 0.553414L49.4805 0.548067C49.3121 0.545394 49.1437 0.548067 49.1089 0.556088Z" fill="#167C0C"/>
<path d="M34.2365 14.1055C34.2285 14.1135 34.0012 14.1322 33.7312 14.1482C33.3221 14.1696 33.1911 14.1884 32.9585 14.2525C32.8035 14.2953 32.5869 14.3434 32.4746 14.3568C32.3623 14.3702 32.2126 14.4049 32.1404 14.437C32.0683 14.4691 31.9105 14.5199 31.7875 14.5493C31.6646 14.576 31.5202 14.6215 31.4667 14.6509C31.4132 14.6776 31.2769 14.7257 31.1673 14.7605C31.0577 14.7926 30.9186 14.846 30.8598 14.8808C30.801 14.9156 30.7101 14.9503 30.6593 14.961C30.6085 14.9717 30.5123 15.0145 30.4454 15.0572C30.3786 15.1 30.2716 15.1508 30.2102 15.1722C30.1487 15.1963 30.0578 15.2417 30.0096 15.2792C29.9642 15.3139 29.8786 15.3567 29.8252 15.3701C29.769 15.3861 29.6888 15.4235 29.6434 15.4556C29.5952 15.4904 29.491 15.5519 29.4081 15.5946C29.2049 15.6989 28.9616 15.8459 28.7745 15.9769C28.6889 16.0358 28.5686 16.1133 28.5044 16.1507C28.4403 16.1882 28.3574 16.2496 28.32 16.2844C28.2825 16.3192 28.213 16.3726 28.1622 16.402C28.066 16.4609 27.8334 16.6293 27.6462 16.7737C27.5847 16.8191 27.4885 16.894 27.4324 16.9394C27.3762 16.9822 27.2826 17.0597 27.2211 17.1132C27.1623 17.164 27.0046 17.2977 26.8763 17.4073C26.7453 17.5169 26.4298 17.811 26.1758 18.0596C25.5609 18.6665 25.4727 18.8162 25.4727 19.2788C25.4727 19.5621 25.5128 19.7119 25.6411 19.9124C25.7801 20.1236 25.8951 20.2412 26.1544 20.423C26.2587 20.4979 26.3897 20.5941 26.4485 20.6423C26.5955 20.7572 26.9083 20.9631 26.9378 20.9631C26.9511 20.9631 27.0073 21.0032 27.0661 21.054C27.1222 21.1021 27.1998 21.1529 27.2372 21.1636C27.2746 21.1743 27.3575 21.2251 27.4217 21.2732C27.4858 21.324 27.5527 21.3641 27.5687 21.3641C27.5847 21.3641 27.6516 21.4015 27.7184 21.447C27.7853 21.4898 27.8922 21.5566 27.959 21.594C28.3734 21.8293 28.4724 21.8801 28.6274 21.955C28.7237 22.0004 28.8306 22.0592 28.868 22.086C28.9055 22.11 28.9777 22.1448 29.0311 22.1635C29.0846 22.1795 29.1808 22.2277 29.2477 22.2704C29.3118 22.3105 29.4134 22.3613 29.4723 22.38C29.5284 22.3988 29.614 22.4415 29.6567 22.4736C29.7022 22.5057 29.8064 22.5538 29.8947 22.5779C29.9802 22.6046 30.0979 22.6527 30.1513 22.6875C30.2075 22.7249 30.3117 22.7677 30.3839 22.7837C30.4534 22.7998 30.5657 22.8479 30.6326 22.8907C30.6994 22.9308 30.8063 22.9736 30.8732 22.9843C30.94 22.9923 31.055 23.0377 31.1298 23.0778C31.2074 23.1206 31.3384 23.1687 31.4239 23.1821C31.5122 23.1981 31.6539 23.2463 31.7421 23.289C31.8303 23.3318 31.988 23.3799 32.0896 23.396C32.1939 23.412 32.341 23.4548 32.4185 23.4896C32.4987 23.527 32.6778 23.5751 32.8195 23.5965C32.9639 23.6206 33.1644 23.666 33.266 23.7034C33.3703 23.7382 33.5307 23.7756 33.6269 23.7836C33.7232 23.7943 34.0306 23.8451 34.3087 23.8986L34.8166 23.9975H36.1534C37.5784 23.9975 37.4955 24.0029 38.065 23.8639C38.1479 23.8425 38.319 23.8131 38.4473 23.797C38.5783 23.781 38.7441 23.7435 38.8216 23.7115C38.8991 23.6821 39.0622 23.6339 39.1852 23.6072C39.3108 23.5778 39.4579 23.5323 39.5114 23.5029C39.5675 23.4762 39.6878 23.4334 39.7814 23.4094C39.875 23.3853 40.0033 23.3318 40.0701 23.289C40.137 23.2489 40.2279 23.2062 40.2733 23.1955C40.3214 23.1875 40.415 23.142 40.4845 23.0992C40.554 23.0564 40.6663 22.9976 40.7358 22.9709C40.8027 22.9442 40.9069 22.8907 40.9631 22.8533C41.0192 22.8132 41.0807 22.7811 41.0968 22.7811C41.1128 22.7811 41.177 22.741 41.2385 22.6928C41.2973 22.6474 41.3828 22.5859 41.4256 22.5592C41.6021 22.4496 41.8106 22.3052 41.955 22.1929C42.0405 22.1261 42.1715 22.0245 42.2491 21.9656C42.7036 21.6208 43.4816 20.8347 43.6821 20.5219C43.7195 20.4631 43.7703 20.399 43.797 20.3776C43.8211 20.3562 43.8879 20.2733 43.9387 20.1931C44.1072 19.9391 44.1606 19.6183 44.0965 19.228C44.0617 19.0007 44.043 18.9553 43.928 18.7868C43.781 18.5703 42.6848 17.442 42.2624 17.0758C41.8694 16.7336 41.332 16.3138 41.1235 16.1882C41.0754 16.1587 41.0059 16.1079 40.9738 16.0785C40.939 16.0491 40.8642 15.9983 40.8027 15.9689C40.7439 15.9395 40.677 15.8941 40.6556 15.8673C40.6369 15.8433 40.5674 15.8005 40.5006 15.7711C40.4364 15.7443 40.3508 15.6935 40.3081 15.6561C40.2653 15.6214 40.2038 15.5839 40.1717 15.5732C40.137 15.5625 40.0594 15.5198 39.9979 15.477C39.9338 15.4342 39.8375 15.3834 39.7814 15.3647C39.7279 15.346 39.6236 15.2898 39.5488 15.2444C39.4766 15.1989 39.3991 15.1615 39.3777 15.1615C39.3536 15.1615 39.2707 15.1214 39.1879 15.0706C39.1077 15.0225 38.998 14.9717 38.9472 14.961C38.8964 14.9503 38.7922 14.9075 38.72 14.8648C38.6451 14.8247 38.5195 14.7765 38.4393 14.7578C38.3591 14.7418 38.2254 14.6936 38.1425 14.6535C38.0623 14.6108 37.9206 14.5653 37.8297 14.5466C37.7388 14.5306 37.6025 14.4878 37.5249 14.453C37.4474 14.4183 37.2629 14.3702 37.1159 14.3461C36.9688 14.322 36.7576 14.2793 36.648 14.2498C36.5384 14.2204 36.3085 14.1857 36.14 14.1696C35.9716 14.1563 35.7176 14.1322 35.5786 14.1188C35.3139 14.0894 34.2605 14.0814 34.2365 14.1055ZM35.3941 16.525C35.5465 16.5411 35.7738 16.5758 35.8994 16.6052C36.0251 16.632 36.2363 16.6694 36.3673 16.6854C36.5063 16.7041 36.6694 16.7442 36.755 16.7843C36.8352 16.8191 36.9849 16.8672 37.0865 16.8886C37.1881 16.91 37.3084 16.9501 37.3538 16.9768C37.3993 17.0063 37.5223 17.0517 37.6265 17.0811C37.7281 17.1105 37.8805 17.1693 37.9607 17.2148C38.0409 17.2576 38.1398 17.303 38.1826 17.311C38.2254 17.3217 38.3109 17.3645 38.3698 17.4046C38.4313 17.4474 38.5248 17.4928 38.5783 17.5115C38.6318 17.5303 38.6906 17.5623 38.712 17.5864C38.7307 17.6105 38.8002 17.6532 38.867 17.6827C38.9339 17.7121 39.0355 17.7682 39.0943 17.8083C39.1531 17.8484 39.2387 17.9046 39.2841 17.9313C39.5488 18.0917 40.022 18.4286 40.268 18.6291C40.6556 18.9472 41.1182 19.3723 41.1502 19.4418C41.1903 19.5274 41.1235 19.6958 41.0166 19.7787C40.9631 19.8215 40.8241 19.9311 40.7038 20.0273C40.5861 20.1236 40.4043 20.2626 40.3001 20.3401C40.1958 20.4177 40.0781 20.5032 40.0407 20.5326C40.0006 20.5647 39.9151 20.6102 39.8509 20.6396C39.7867 20.6663 39.6985 20.7171 39.6557 20.7545C39.6103 20.792 39.5461 20.8321 39.5087 20.8428C39.4713 20.8535 39.3536 20.9096 39.2467 20.9657C39.1371 21.0246 39.0248 21.07 38.998 21.07C38.9686 21.07 38.8644 21.1128 38.7681 21.1636C38.6719 21.2144 38.5676 21.2572 38.5409 21.2572C38.5115 21.2572 38.3617 21.2999 38.2067 21.3507C38.0302 21.4122 37.8351 21.455 37.68 21.471C37.5463 21.4844 37.3832 21.5138 37.3164 21.5379C37.1693 21.5914 36.5544 21.6448 36.14 21.6422C35.4636 21.6341 35.0947 21.5994 34.8059 21.5085C34.7391 21.4871 34.6028 21.471 34.4985 21.471C34.306 21.471 33.9611 21.4015 33.7847 21.3267C33.7312 21.3053 33.5922 21.2759 33.4772 21.2598C33.3489 21.2438 33.1938 21.201 33.0922 21.1556C32.996 21.1128 32.8569 21.07 32.7848 21.0593C32.7099 21.0486 32.5602 21.0005 32.4506 20.9497C32.341 20.9016 32.2046 20.8535 32.1458 20.8428C32.0896 20.8347 31.9987 20.7973 31.9453 20.7626C31.8918 20.7278 31.7715 20.677 31.6752 20.6529C31.579 20.6289 31.4533 20.5808 31.3919 20.546C31.333 20.5112 31.2288 20.4658 31.1593 20.4444C31.0924 20.4257 31.0015 20.3829 30.9561 20.3508C30.9106 20.3188 30.809 20.2706 30.7261 20.2412C30.6433 20.2118 30.5443 20.1664 30.5042 20.1396C30.4641 20.1102 30.3839 20.0728 30.3251 20.0541C30.2663 20.0354 30.1513 19.9819 30.0711 19.9338C29.8038 19.7734 29.6861 19.7092 29.5418 19.6424C29.4642 19.6049 29.368 19.5488 29.3306 19.5194C29.2905 19.49 29.2103 19.4418 29.1488 19.4151C28.975 19.3376 28.8146 19.1798 28.8146 19.0889C28.8146 19.0034 28.844 18.9713 29.0552 18.8109C29.1327 18.7521 29.2343 18.6745 29.2798 18.6371C29.3252 18.5997 29.4108 18.5355 29.4696 18.4981C29.5284 18.458 29.6434 18.3778 29.7236 18.319C30.0471 18.0837 30.2636 17.9393 30.3572 17.9019C30.4133 17.8778 30.4802 17.8404 30.5069 17.8137C30.5657 17.7602 30.8358 17.6105 31.0871 17.4902C31.1806 17.442 31.2769 17.3886 31.301 17.3699C31.3223 17.3511 31.4052 17.3137 31.4854 17.2896C31.563 17.2656 31.6699 17.2148 31.726 17.18C31.7795 17.1453 31.8651 17.1105 31.9159 17.0998C31.9667 17.0918 32.087 17.049 32.1832 17.0063C32.2795 16.9635 32.4425 16.91 32.5441 16.8886C32.6484 16.8672 32.7981 16.8191 32.8783 16.7817C32.9773 16.7362 33.1109 16.7068 33.2794 16.6881C33.4184 16.6747 33.5868 16.6427 33.6537 16.6186C33.7205 16.5945 33.905 16.5624 34.0681 16.5491C34.2285 16.533 34.3675 16.517 34.3728 16.509C34.3942 16.4876 35.1241 16.4983 35.3941 16.525Z" fill="#167C0C"/>
<path d="M63.0767 14.1217C62.9457 14.135 62.6944 14.1564 62.5233 14.1725C62.3495 14.1858 62.1383 14.2233 62.0554 14.2527C61.9699 14.2821 61.78 14.3222 61.6303 14.3462C61.4753 14.3676 61.2988 14.4131 61.2133 14.4532C61.1304 14.4906 60.986 14.5361 60.8924 14.5494C60.7989 14.5655 60.6652 14.6136 60.5903 14.6537C60.5181 14.6938 60.3898 14.7419 60.3096 14.758C60.2294 14.774 60.1118 14.8195 60.0503 14.8569C59.9861 14.8943 59.8792 14.9398 59.815 14.9612C59.7482 14.9799 59.6359 15.0333 59.5664 15.0761C59.4968 15.1189 59.4113 15.1617 59.3739 15.1697C59.3364 15.1804 59.2402 15.2285 59.16 15.282C59.0798 15.3328 58.9996 15.3756 58.9835 15.3756C58.9675 15.3756 58.89 15.4183 58.8151 15.4691C58.7402 15.5199 58.6707 15.5627 58.6574 15.5627C58.644 15.5627 58.5852 15.5975 58.5264 15.6402C58.4675 15.683 58.3713 15.7418 58.3125 15.7712C58.2537 15.8006 58.1922 15.8461 58.1708 15.8702C58.1494 15.8942 58.0879 15.937 58.0291 15.9664C57.9729 15.9958 57.8152 16.1028 57.6815 16.2044C57.4516 16.3755 57.3741 16.4343 57.0532 16.6909C56.425 17.1882 55.5748 18.0464 55.1176 18.6453C54.9893 18.8137 54.9385 18.9126 54.8663 19.1265C54.8155 19.2762 54.7754 19.4473 54.7754 19.5062C54.7754 19.6184 54.8396 19.8404 54.9358 20.0649C55.0935 20.4392 56.0774 21.4979 56.7698 22.046C57.0559 22.2706 57.4008 22.5246 57.4864 22.57C57.5318 22.5968 57.6334 22.6583 57.7136 22.7117C57.7911 22.7652 57.866 22.808 57.8794 22.808C57.8954 22.808 57.9676 22.8507 58.0451 22.9015C58.12 22.9523 58.1922 22.9951 58.2055 22.9951C58.2189 22.9951 58.2777 23.0299 58.3392 23.0726C58.4034 23.1154 58.5076 23.1662 58.5718 23.1849C58.6386 23.2037 58.7536 23.2518 58.8258 23.2919C58.9006 23.332 59.0129 23.3801 59.0798 23.3961C59.1439 23.4149 59.2536 23.455 59.3204 23.4897C59.3872 23.5218 59.5129 23.5646 59.6011 23.586C59.6893 23.6047 59.8471 23.6528 59.9487 23.6929C60.0529 23.733 60.2668 23.7865 60.4246 23.8105C60.5823 23.8346 60.7507 23.8694 60.7989 23.8907C60.847 23.9095 60.9566 23.9389 61.0448 23.9549C61.2213 23.987 62.2746 24.0485 62.6356 24.0458C63.1355 24.0458 64.1488 23.9816 64.3012 23.9415C64.5124 23.8881 65.007 23.7972 65.0979 23.7972C65.138 23.7972 65.269 23.7678 65.392 23.7303C65.515 23.6929 65.7315 23.6394 65.8705 23.6127C66.0096 23.5833 66.2021 23.5298 66.2983 23.4924C66.3946 23.455 66.5523 23.4068 66.6539 23.3855C66.7528 23.3614 66.8918 23.3133 66.9613 23.2785C67.0309 23.2438 67.1565 23.201 67.2394 23.1849C67.3223 23.1716 67.4586 23.1208 67.5442 23.0753C67.627 23.0325 67.7233 22.9951 67.7554 22.9951C67.7875 22.9951 67.8837 22.9577 67.9693 22.9122C68.0548 22.8668 68.1858 22.8106 68.2607 22.7893C68.3355 22.7679 68.4505 22.7171 68.5173 22.6743C68.5842 22.6342 68.6804 22.5914 68.7312 22.5807C68.782 22.57 68.8783 22.5272 68.9451 22.4845C69.0119 22.4417 69.1162 22.3909 69.175 22.3722C69.2338 22.3508 69.3247 22.3027 69.3809 22.2652C69.437 22.2278 69.5279 22.1824 69.5814 22.1636C69.6349 22.1476 69.7097 22.1102 69.7472 22.0861C69.7846 22.0594 69.8915 22.0006 69.9878 21.9524C70.2872 21.8081 70.4262 21.7279 70.5252 21.6503C70.5786 21.6102 70.6348 21.5781 70.6481 21.5781C70.6642 21.5781 70.7417 21.5354 70.8192 21.4819C70.8995 21.4284 71.0171 21.3562 71.0839 21.3215C71.2123 21.252 71.4101 21.1236 71.7603 20.8857C71.8165 20.8483 71.9074 20.7868 71.9662 20.7494C72.2228 20.5863 72.4421 20.4232 72.7094 20.1906C72.8458 20.0756 72.9019 20.0008 73.0035 19.8029L73.1265 19.5596V19.2789C73.1238 18.9982 73.1238 18.9982 73.0035 18.7549C72.8725 18.5009 72.8511 18.4742 72.2335 17.894C71.9662 17.64 71.779 17.4743 71.3112 17.0759C71.0572 16.8594 70.9369 16.7685 70.5385 16.4824C70.4396 16.4102 70.3086 16.3113 70.2498 16.2632C70.191 16.2177 70.1321 16.1776 70.1188 16.1776C70.1081 16.1776 70.0573 16.1429 70.0092 16.1001C69.961 16.06 69.8675 15.9958 69.8006 15.9637C69.7365 15.9317 69.6509 15.8835 69.6135 15.8595C69.5761 15.8327 69.4745 15.7659 69.3862 15.7071C69.298 15.6456 69.1911 15.5868 69.1456 15.5707C69.1028 15.5547 69.0012 15.4985 68.921 15.4451C68.8435 15.3916 68.766 15.3488 68.7473 15.3488C68.7312 15.3488 68.651 15.306 68.5708 15.2552C68.4906 15.2045 68.4077 15.1617 68.3837 15.1617C68.3596 15.1617 68.2821 15.1242 68.2072 15.0788C68.135 15.0307 68.0201 14.9799 67.9532 14.9612C67.8864 14.9424 67.7768 14.897 67.7126 14.8596C67.6484 14.8221 67.5174 14.7713 67.4239 14.7473C67.3276 14.7232 67.1966 14.6751 67.1298 14.6403C67.0629 14.6083 66.9346 14.5655 66.8464 14.5468C66.7582 14.528 66.6191 14.4853 66.5362 14.4505C66.4534 14.4158 66.2609 14.3703 66.1085 14.3462C65.9561 14.3222 65.7288 14.2741 65.6032 14.2366C65.4561 14.1965 65.2369 14.1618 64.9749 14.1431C64.4562 14.103 63.3868 14.0923 63.0767 14.1217ZM64.3974 16.5252C64.5258 16.5412 64.7236 16.5733 64.8412 16.5947C65.0925 16.6455 65.2583 16.6722 65.4962 16.707C65.5925 16.723 65.7369 16.7631 65.8171 16.8005C65.8973 16.838 66.0363 16.8808 66.1245 16.8995C66.2128 16.9182 66.3384 16.961 66.4079 16.993C66.4748 17.0278 66.5951 17.0732 66.6753 17.0946C66.7528 17.116 66.8651 17.1641 66.9239 17.2016C66.9801 17.2417 67.0736 17.2871 67.1298 17.3005C67.2421 17.3299 67.5976 17.5144 67.7286 17.608C67.7741 17.64 67.849 17.6828 67.8971 17.7015C67.9452 17.7202 68.0281 17.771 68.0815 17.8111C68.135 17.8539 68.1912 17.8887 68.2072 17.8887C68.2339 17.8887 68.3462 17.9582 68.6216 18.1427C68.6991 18.1935 68.8943 18.3352 69.1617 18.5303C69.7071 18.9287 69.7739 18.9875 69.7739 19.0811C69.7739 19.2014 69.6536 19.3324 69.4638 19.4233C69.3809 19.4634 69.2739 19.5222 69.2285 19.557C69.183 19.5917 69.1162 19.6291 69.0788 19.6398C69.0413 19.6505 68.9718 19.688 68.9237 19.7254C68.8756 19.7601 68.774 19.819 68.6965 19.8564C68.6216 19.8938 68.5147 19.9473 68.4639 19.974C68.4131 20.0034 68.3168 20.0516 68.25 20.081C68.1831 20.1104 68.0869 20.1585 68.0361 20.1879C67.8864 20.2681 67.4987 20.4446 67.3624 20.4927C67.2955 20.5194 67.2233 20.5542 67.2073 20.5756C67.1913 20.5943 67.1164 20.6264 67.0389 20.6424C66.9613 20.6611 66.833 20.7092 66.7501 20.752C66.6673 20.7921 66.5389 20.8429 66.4694 20.859C66.3972 20.8777 66.2823 20.9205 66.2128 20.9552C66.1432 20.99 65.9989 21.0354 65.8919 21.0568C65.785 21.0809 65.6326 21.129 65.5524 21.1664C65.4695 21.2039 65.3171 21.244 65.2102 21.26C65.1032 21.2734 64.9295 21.3161 64.8225 21.3536C64.7156 21.3883 64.5124 21.4311 64.3734 21.4471C64.2343 21.4632 63.9643 21.506 63.7718 21.5407C63.4644 21.5942 63.3334 21.6022 62.6623 21.6076C62.0554 21.6102 61.8709 21.6049 61.7533 21.5701C61.5822 21.5247 61.3255 21.4792 61.0956 21.4578C61.0047 21.4498 60.8122 21.4017 60.6679 21.3509C60.5235 21.3001 60.3791 21.2573 60.3497 21.2573C60.3203 21.2573 60.1946 21.2092 60.069 21.1504C59.9433 21.0916 59.8284 21.0434 59.8123 21.0434C59.7722 21.0434 59.3498 20.8269 59.2509 20.7574C59.2081 20.728 59.1145 20.6718 59.0397 20.6317C58.8365 20.5221 58.505 20.2788 58.1734 19.9927C57.62 19.5169 57.6174 19.5115 57.8981 19.2495C58.3419 18.8324 58.8819 18.3806 59.1947 18.164C59.2429 18.132 59.3311 18.0678 59.3926 18.0224C59.5343 17.9154 60.0396 17.608 60.216 17.5171C60.2909 17.4796 60.3871 17.4235 60.4299 17.3914C60.4754 17.3593 60.577 17.3139 60.6572 17.2871C60.7374 17.2604 60.847 17.2123 60.8978 17.1775C60.9486 17.1454 61.0448 17.1027 61.1117 17.0866C61.1785 17.0706 61.2828 17.0278 61.3416 16.993C61.4031 16.9556 61.5287 16.9102 61.6223 16.8888C61.7159 16.8701 61.8656 16.8219 61.9538 16.7845C62.0501 16.7444 62.2105 16.7043 62.3548 16.6883C62.4885 16.6749 62.6489 16.6428 62.7104 16.6214C62.7746 16.5974 62.9617 16.5653 63.1248 16.5519C63.2879 16.5359 63.4269 16.5172 63.435 16.5118C63.459 16.4877 64.1702 16.4984 64.3974 16.5252Z" fill="#167C0C"/>
<path d="M10 80.04V82.3H4.18V85.88H8.64V88.1H4.18V94H1.38V80.04H10ZM11.0655 88.42C11.0655 87.3 11.2855 86.3067 11.7255 85.44C12.1788 84.5733 12.7855 83.9067 13.5455 83.44C14.3188 82.9733 15.1788 82.74 16.1255 82.74C16.9521 82.74 17.6721 82.9067 18.2855 83.24C18.9121 83.5733 19.4121 83.9933 19.7855 84.5V82.92H22.6055V94H19.7855V92.38C19.4255 92.9 18.9255 93.3333 18.2855 93.68C17.6588 94.0133 16.9321 94.18 16.1055 94.18C15.1721 94.18 14.3188 93.94 13.5455 93.46C12.7855 92.98 12.1788 92.3067 11.7255 91.44C11.2855 90.56 11.0655 89.5533 11.0655 88.42ZM19.7855 88.46C19.7855 87.78 19.6521 87.2 19.3855 86.72C19.1188 86.2267 18.7588 85.8533 18.3055 85.6C17.8521 85.3333 17.3655 85.2 16.8455 85.2C16.3255 85.2 15.8455 85.3267 15.4055 85.58C14.9655 85.8333 14.6055 86.2067 14.3255 86.7C14.0588 87.18 13.9255 87.7533 13.9255 88.42C13.9255 89.0867 14.0588 89.6733 14.3255 90.18C14.6055 90.6733 14.9655 91.0533 15.4055 91.32C15.8588 91.5867 16.3388 91.72 16.8455 91.72C17.3655 91.72 17.8521 91.5933 18.3055 91.34C18.7588 91.0733 19.1188 90.7 19.3855 90.22C19.6521 89.7267 19.7855 89.14 19.7855 88.46ZM27.9402 84.64C28.3002 84.0533 28.7668 83.5933 29.3402 83.26C29.9268 82.9267 30.5935 82.76 31.3402 82.76V85.7H30.6002C29.7202 85.7 29.0535 85.9067 28.6002 86.32C28.1602 86.7333 27.9402 87.4533 27.9402 88.48V94H25.1402V82.92H27.9402V84.64ZM46.7861 82.76C48.1461 82.76 49.2394 83.18 50.0661 84.02C50.9061 84.8467 51.3261 86.0067 51.3261 87.5V94H48.5261V87.88C48.5261 87.0133 48.3061 86.3533 47.8661 85.9C47.4261 85.4333 46.8261 85.2 46.0661 85.2C45.3061 85.2 44.6994 85.4333 44.2461 85.9C43.8061 86.3533 43.5861 87.0133 43.5861 87.88V94H40.7861V87.88C40.7861 87.0133 40.5661 86.3533 40.1261 85.9C39.6861 85.4333 39.0861 85.2 38.3261 85.2C37.5528 85.2 36.9394 85.4333 36.4861 85.9C36.0461 86.3533 35.8261 87.0133 35.8261 87.88V94H33.0261V82.92H35.8261V84.26C36.1861 83.7933 36.6461 83.4267 37.2061 83.16C37.7794 82.8933 38.4061 82.76 39.0861 82.76C39.9528 82.76 40.7261 82.9467 41.4061 83.32C42.0861 83.68 42.6128 84.2 42.9861 84.88C43.3461 84.24 43.8661 83.7267 44.5461 83.34C45.2394 82.9533 45.9861 82.76 46.7861 82.76Z" fill="#167C0C"/>
<path d="M56.5831 82.3V85.8H61.2831V88.02H56.5831V91.72H61.8831V94H53.7831V80.02H61.8831V82.3H56.5831ZM63.5077 88.42C63.5077 87.3 63.7277 86.3067 64.1677 85.44C64.621 84.5733 65.2277 83.9067 65.9877 83.44C66.761 82.9733 67.621 82.74 68.5677 82.74C69.3943 82.74 70.1143 82.9067 70.7277 83.24C71.3543 83.5733 71.8543 83.9933 72.2277 84.5V82.92H75.0477V94H72.2277V92.38C71.8677 92.9 71.3677 93.3333 70.7277 93.68C70.101 94.0133 69.3743 94.18 68.5477 94.18C67.6143 94.18 66.761 93.94 65.9877 93.46C65.2277 92.98 64.621 92.3067 64.1677 91.44C63.7277 90.56 63.5077 89.5533 63.5077 88.42ZM72.2277 88.46C72.2277 87.78 72.0943 87.2 71.8277 86.72C71.561 86.2267 71.201 85.8533 70.7477 85.6C70.2943 85.3333 69.8077 85.2 69.2877 85.2C68.7677 85.2 68.2877 85.3267 67.8477 85.58C67.4077 85.8333 67.0477 86.2067 66.7677 86.7C66.501 87.18 66.3677 87.7533 66.3677 88.42C66.3677 89.0867 66.501 89.6733 66.7677 90.18C67.0477 90.6733 67.4077 91.0533 67.8477 91.32C68.301 91.5867 68.781 91.72 69.2877 91.72C69.8077 91.72 70.2943 91.5933 70.7477 91.34C71.201 91.0733 71.561 90.7 71.8277 90.22C72.0943 89.7267 72.2277 89.14 72.2277 88.46ZM81.8223 94.18C80.9157 94.18 80.1023 94.02 79.3823 93.7C78.6623 93.3667 78.089 92.92 77.6623 92.36C77.249 91.8 77.0223 91.18 76.9823 90.5H79.8023C79.8557 90.9267 80.0623 91.28 80.4223 91.56C80.7957 91.84 81.2557 91.98 81.8023 91.98C82.3357 91.98 82.749 91.8733 83.0423 91.66C83.349 91.4467 83.5023 91.1733 83.5023 90.84C83.5023 90.48 83.3157 90.2133 82.9423 90.04C82.5823 89.8533 82.0023 89.6533 81.2023 89.44C80.3757 89.24 79.6957 89.0333 79.1623 88.82C78.6423 88.6067 78.189 88.28 77.8023 87.84C77.429 87.4 77.2423 86.8067 77.2423 86.06C77.2423 85.4467 77.4157 84.8867 77.7623 84.38C78.1223 83.8733 78.629 83.4733 79.2823 83.18C79.949 82.8867 80.729 82.74 81.6223 82.74C82.9423 82.74 83.9957 83.0733 84.7823 83.74C85.569 84.3933 86.0023 85.28 86.0823 86.4H83.4023C83.3623 85.96 83.1757 85.6133 82.8423 85.36C82.5223 85.0933 82.089 84.96 81.5423 84.96C81.0357 84.96 80.6423 85.0533 80.3623 85.24C80.0957 85.4267 79.9623 85.6867 79.9623 86.02C79.9623 86.3933 80.149 86.68 80.5223 86.88C80.8957 87.0667 81.4757 87.26 82.2623 87.46C83.0623 87.66 83.7223 87.8667 84.2423 88.08C84.7623 88.2933 85.209 88.6267 85.5823 89.08C85.969 89.52 86.169 90.1067 86.1823 90.84C86.1823 91.48 86.0023 92.0533 85.6423 92.56C85.2957 93.0667 84.789 93.4667 84.1223 93.76C83.469 94.04 82.7023 94.18 81.8223 94.18ZM98.8808 82.92L92.0208 99.24H89.0408L91.4408 93.72L87.0008 82.92H90.1408L93.0008 90.66L95.9008 82.92H98.8808Z" fill="#044D3A"/>
</svg>
