<svg width="178" height="180" viewBox="0 0 178 180" fill="none" xmlns="http://www.w3.org/2000/svg">
<path fill-rule="evenodd" clip-rule="evenodd" d="M14.6154 96.6678C22.6651 96.6678 29.2307 90.1026 29.2307 82.0529C29.2307 74.0031 22.6651 67.4375 14.6154 67.4375C6.56564 67.4375 0 74.0031 0 82.0529C0 90.1026 6.56564 96.6678 14.6154 96.6678Z" fill="#D1E6DF"/>
<path fill-rule="evenodd" clip-rule="evenodd" d="M95.2903 179.999C103.341 179.999 109.906 173.435 109.906 165.384C109.906 157.336 103.341 150.77 95.2903 150.77C87.241 150.77 80.6758 157.336 80.6758 165.384C80.6758 173.435 87.241 179.999 95.2903 179.999Z" fill="#D1E6DF"/>
<path fill-rule="evenodd" clip-rule="evenodd" d="M162.685 98.3284C170.736 98.3284 177.301 91.7632 177.301 83.713C177.301 75.6633 170.736 69.0977 162.685 69.0977C154.636 69.0977 148.07 75.6633 148.07 83.713C148.07 91.7632 154.636 98.3284 162.685 98.3284Z" fill="#D1E6DF"/>
<path d="M121.697 18.0656C123.981 12.6567 121.449 6.41985 116.04 4.13521C110.631 1.85057 104.394 4.3833 102.109 9.79222C99.8247 15.2011 102.357 21.438 107.766 23.7226C113.175 26.0073 119.412 23.4746 121.697 18.0656Z" fill="#D1E6DF"/>
<path fill-rule="evenodd" clip-rule="evenodd" d="M149.711 42.5945C156.097 42.5945 161.305 37.386 161.305 31.0004C161.305 24.6148 156.097 19.4062 149.711 19.4062C143.326 19.4062 138.117 24.6148 138.117 31.0004C138.117 37.386 143.326 42.5945 149.711 42.5945Z" fill="#ECBD78"/>
<path fill-rule="evenodd" clip-rule="evenodd" d="M150.89 16.693C150.842 17.3019 150.332 17.7809 149.71 17.7809C149.088 17.7809 148.578 17.3019 148.529 16.693L147.957 12.1533C147.941 12.0561 147.932 11.9571 147.932 11.8556C147.932 10.8739 148.728 10.0781 149.71 10.0781C150.692 10.0781 151.487 10.8739 151.487 11.8556C151.487 11.9571 151.479 12.0565 151.463 12.1533L150.89 16.693Z" fill="#D08174"/>
<path fill-rule="evenodd" clip-rule="evenodd" d="M150.89 45.3032C150.842 44.6934 150.332 44.2148 149.71 44.2148C149.088 44.2148 148.578 44.6934 148.529 45.3032L147.957 49.8425C147.941 49.9389 147.932 50.0387 147.932 50.1397C147.932 51.1219 148.728 51.9176 149.71 51.9176C150.692 51.9176 151.487 51.1219 151.487 50.1397C151.487 50.0387 151.479 49.9389 151.463 49.8425L150.89 45.3032Z" fill="#D08174"/>
<path fill-rule="evenodd" clip-rule="evenodd" d="M157.888 19.2022C157.541 19.7054 156.86 19.8651 156.321 19.5538C155.783 19.243 155.58 18.5733 155.842 18.0213L157.617 13.8039C157.652 13.7117 157.694 13.6213 157.744 13.5334C158.235 12.6833 159.323 12.392 160.173 12.8833C161.023 13.3742 161.314 14.4612 160.824 15.3113C160.772 15.3992 160.716 15.4808 160.653 15.5563L157.888 19.2022Z" fill="#D08174"/>
<path fill-rule="evenodd" clip-rule="evenodd" d="M143.583 43.9808C143.845 43.4284 143.643 42.7587 143.104 42.4479C142.566 42.1371 141.885 42.2971 141.537 42.7999L138.772 46.4454C138.71 46.5214 138.652 46.6029 138.601 46.6908C138.111 47.5413 138.402 48.6284 139.253 49.1193C140.103 49.6097 141.189 49.3188 141.681 48.4683C141.732 48.3804 141.774 48.29 141.808 48.1982L143.583 43.9808Z" fill="#D08174"/>
<path fill-rule="evenodd" clip-rule="evenodd" d="M162.69 24.8713C162.138 25.1333 161.468 24.9312 161.157 24.3927C160.846 23.8539 161.006 23.1732 161.508 22.8258L165.154 20.0607C165.23 19.9982 165.312 19.9413 165.4 19.8908C166.25 19.3999 167.337 19.6912 167.828 20.5413C168.319 21.3914 168.027 22.4789 167.177 22.9694C167.089 23.0203 166.999 23.0624 166.908 23.0968L162.69 24.8713Z" fill="#D08174"/>
<path fill-rule="evenodd" clip-rule="evenodd" d="M137.913 39.1751C138.416 38.8277 138.575 38.1466 138.265 37.6082C137.954 37.0697 137.284 36.8676 136.733 37.1296L132.515 38.9041C132.423 38.9385 132.332 38.981 132.245 39.0315C131.394 39.5224 131.103 40.6099 131.594 41.46C132.085 42.3105 133.172 42.6014 134.023 42.1105C134.11 42.06 134.191 42.0027 134.268 41.9402L137.913 39.1751Z" fill="#D08174"/>
<path fill-rule="evenodd" clip-rule="evenodd" d="M164.015 32.1815C163.406 32.1322 162.928 31.6227 162.928 31.0006C162.928 30.3789 163.406 29.8685 164.015 29.8197L168.555 29.2477C168.652 29.2316 168.751 29.2227 168.853 29.2227C169.835 29.2227 170.63 30.0184 170.63 31.0006C170.63 31.9823 169.834 32.7781 168.853 32.7781C168.751 32.7781 168.652 32.7696 168.555 32.753L164.015 32.1815Z" fill="#D08174"/>
<path fill-rule="evenodd" clip-rule="evenodd" d="M135.405 32.1815C136.014 32.1322 136.493 31.6227 136.493 31.0006C136.493 30.3789 136.014 29.8685 135.405 29.8197L130.865 29.2477C130.769 29.2316 130.669 29.2227 130.568 29.2227C129.586 29.2227 128.791 30.0184 128.791 31.0006C128.791 31.9823 129.586 32.7781 130.568 32.7781C130.669 32.7781 130.769 32.7696 130.865 32.753L135.405 32.1815Z" fill="#D08174"/>
<path fill-rule="evenodd" clip-rule="evenodd" d="M161.509 39.1751C161.006 38.8277 160.846 38.1466 161.157 37.6082C161.468 37.0697 162.138 36.8676 162.69 37.1296L166.908 38.9041C166.999 38.9385 167.09 38.981 167.177 39.0315C168.028 39.5224 168.319 40.6099 167.828 41.46C167.337 42.3105 166.25 42.6014 165.4 42.1105C165.312 42.06 165.23 42.0027 165.154 41.9402L161.509 39.1751Z" fill="#D08174"/>
<path fill-rule="evenodd" clip-rule="evenodd" d="M136.732 24.8714C137.284 25.1334 137.954 24.9313 138.265 24.3928C138.575 23.854 138.416 23.1733 137.913 22.8259L134.267 20.0607C134.191 19.9983 134.11 19.9414 134.023 19.8909C133.172 19.4 132.084 19.6909 131.593 20.5414C131.103 21.3915 131.394 22.479 132.244 22.9695C132.332 23.0204 132.423 23.0625 132.515 23.0969L136.732 24.8714Z" fill="#D08174"/>
<path fill-rule="evenodd" clip-rule="evenodd" d="M155.842 43.9808C155.58 43.4284 155.783 42.7587 156.321 42.4479C156.86 42.1371 157.541 42.2972 157.888 42.7995L160.653 46.4454C160.716 46.5214 160.772 46.6029 160.823 46.6908C161.314 47.5413 161.023 48.6284 160.172 49.1193C159.322 49.6097 158.235 49.3189 157.744 48.4683C157.693 48.3804 157.652 48.29 157.617 48.1983L155.842 43.9808Z" fill="#D08174"/>
<path fill-rule="evenodd" clip-rule="evenodd" d="M141.537 19.2022C141.884 19.7054 142.566 19.8651 143.104 19.5538C143.643 19.243 143.845 18.5733 143.583 18.0213L141.808 13.8039C141.774 13.7117 141.732 13.6213 141.681 13.5334C141.189 12.6833 140.103 12.392 139.253 12.8833C138.402 13.3742 138.111 14.4612 138.601 15.3113C138.653 15.3992 138.71 15.4808 138.772 15.5563L141.537 19.2022Z" fill="#D08174"/>
<path fill-rule="evenodd" clip-rule="evenodd" d="M35.9608 130.059H11.5819C8.79547 130.059 6.51562 132.338 6.51562 135.124V154.705C6.51562 157.491 8.79547 159.771 11.5819 159.771H35.9608C38.7476 159.771 41.0271 157.491 41.0271 154.705V135.124C41.0271 132.338 38.7476 130.059 35.9608 130.059ZM35.9608 131.72C37.83 131.72 39.3659 133.256 39.3659 135.124V143.485V144.5C39.3659 145.541 38.5154 146.392 37.4746 146.392H10.0681C9.02774 146.392 8.17678 145.541 8.17678 144.5V143.485V135.124C8.17678 133.256 9.71224 131.72 11.5819 131.72H35.9608ZM39.1655 155.849C38.6924 157.162 37.4292 158.111 35.9608 158.111H11.5819C10.1131 158.111 8.85067 157.162 8.37678 155.849H39.1655Z" fill="#BE7775"/>
<path fill-rule="evenodd" clip-rule="evenodd" d="M55.8356 148.328H6.51562V151.791V160.047V165.167C6.51562 167.071 8.07317 168.629 9.97721 168.629H55.8352C57.7388 168.629 59.2964 167.071 59.2964 165.167V151.791C59.2968 149.886 57.7393 148.328 55.8356 148.328Z" fill="#D08174"/>
<path fill-rule="evenodd" clip-rule="evenodd" d="M39.3669 147.656H38.8522V168.628H39.3669V147.656ZM8.69239 147.656H8.17773V168.102C8.34122 168.206 8.51319 168.296 8.69239 168.371V147.656Z" fill="#BE7775"/>
<path fill-rule="evenodd" clip-rule="evenodd" d="M59.297 159.701V151.949H55.215C54.0227 151.949 53.0469 152.925 53.0469 154.119V157.532C53.0469 158.725 54.0231 159.701 55.215 159.701H59.297V159.701Z" fill="#AB6A6E"/>
<path fill-rule="evenodd" clip-rule="evenodd" d="M59.2974 162.676H6.51665C5.93279 162.676 5.45508 163.153 5.45508 163.737V169.366C5.45508 169.949 5.93279 170.427 6.51665 170.427H59.2974C59.8813 170.427 60.3586 169.949 60.3586 169.366V163.737C60.3586 163.153 59.8813 162.676 59.2974 162.676Z" fill="#413B73"/>
<path fill-rule="evenodd" clip-rule="evenodd" d="M46.1984 159.159C45.1151 159.387 44.105 159.814 43.2073 160.398L43.0935 160.285C42.8141 160.005 42.3576 160.005 42.0782 160.285L40.4863 161.876C40.2068 162.155 40.2068 162.612 40.4863 162.891L40.5996 163.004C40.0149 163.903 39.5877 164.914 39.3589 165.997H39.2C38.8047 165.997 38.4824 166.32 38.4824 166.715V168.965C38.4824 169.361 38.8051 169.683 39.2 169.683H39.3593C39.5886 170.766 40.0153 171.777 40.5996 172.675L40.4863 172.787C40.2068 173.067 40.2068 173.524 40.4863 173.804L42.0782 175.395C42.3572 175.674 42.8137 175.674 43.0935 175.395L43.2073 175.28C44.105 175.866 45.1151 176.292 46.1984 176.521V176.681C46.1984 177.075 46.5215 177.399 46.916 177.399H49.167C49.5623 177.399 49.885 177.075 49.885 176.681V176.521C50.9678 176.292 51.978 175.866 52.8761 175.28L52.9899 175.395C53.2693 175.674 53.7254 175.674 54.0052 175.395L55.5967 173.804C55.8757 173.524 55.8757 173.067 55.5967 172.788L55.4834 172.675C56.0676 171.777 56.4944 170.766 56.7233 169.683H56.8829C57.2778 169.683 57.601 169.36 57.601 168.965V166.715C57.601 166.319 57.2778 165.997 56.8829 165.997H56.7229C56.494 164.914 56.0677 163.903 55.4829 163.005L55.5967 162.891C55.8757 162.612 55.8757 162.155 55.5967 161.876L54.0052 160.285C53.7258 160.005 53.2698 160.005 52.9899 160.285L52.8761 160.398C51.9785 159.814 50.9678 159.387 49.885 159.159V158.998C49.885 158.604 49.5619 158.281 49.167 158.281H46.916C46.5211 158.281 46.1984 158.604 46.1984 158.998V159.159Z" fill="#30295E"/>
<path fill-rule="evenodd" clip-rule="evenodd" d="M48.0405 174.562C51.742 174.562 54.7611 171.544 54.7611 167.841C54.7611 164.14 51.742 161.121 48.0405 161.121C44.339 161.121 41.3203 164.14 41.3203 167.841C41.3203 171.543 44.3394 174.562 48.0405 174.562Z" fill="white"/>
<path fill-rule="evenodd" clip-rule="evenodd" d="M48.0423 162.52C45.1055 162.52 42.7246 164.9 42.7246 167.837C42.7246 170.775 45.1055 173.156 48.0423 173.156C50.9794 173.156 53.3603 170.775 53.3603 167.837C53.3608 164.9 50.9794 162.52 48.0423 162.52Z" fill="#E9BAA8"/>
<path fill-rule="evenodd" clip-rule="evenodd" d="M48.0406 171.624C50.1251 171.624 51.8253 169.924 51.8253 167.839C51.8253 165.755 50.1251 164.055 48.0406 164.055C45.9561 164.055 44.2559 165.755 44.2559 167.839C44.2559 169.924 45.9561 171.624 48.0406 171.624Z" fill="#30295E"/>
<path fill-rule="evenodd" clip-rule="evenodd" d="M18.6735 151.599C17.1414 151.924 15.7125 152.527 14.4429 153.353L14.2823 153.193C13.887 152.798 13.2412 152.798 12.8467 153.193L10.5953 155.444C10.2004 155.838 10.2004 156.484 10.5953 156.879L10.7562 157.04C9.92903 158.31 9.32563 159.739 9.00207 161.271H8.77701C8.2182 161.271 7.76172 161.728 7.76172 162.286V165.47C7.76172 166.028 8.21777 166.484 8.77701 166.484H9.00207C9.32648 168.016 9.92988 169.445 10.7562 170.716L10.5953 170.876C10.2004 171.271 10.2004 171.917 10.5953 172.312L12.8467 174.562C13.2412 174.957 13.887 174.957 14.2823 174.562L14.4429 174.402C15.7125 175.228 17.141 175.831 18.6735 176.156V176.381C18.6735 176.94 19.1299 177.396 19.6887 177.396H22.8718C23.4302 177.396 23.8871 176.94 23.8871 176.381V176.156C25.4187 175.831 26.8476 175.228 28.1177 174.402L28.2786 174.562C28.6731 174.957 29.3189 174.957 29.7139 174.562L31.9648 172.312C32.3601 171.917 32.3601 171.271 31.9648 170.876L31.8043 170.716C32.6315 169.446 33.2349 168.016 33.5585 166.484H33.7835C34.3419 166.484 34.7988 166.028 34.7988 165.47V162.286C34.7988 161.728 34.3423 161.271 33.7835 161.271H33.5576C33.234 159.739 32.6306 158.311 31.8039 157.04L31.9648 156.879C32.3601 156.484 32.3601 155.838 31.9648 155.444L29.7139 153.193C29.3189 152.798 28.6731 152.798 28.2786 153.193L28.1177 153.353C26.848 152.527 25.4191 151.924 23.8871 151.599V151.375C23.8871 150.816 23.4306 150.359 22.8718 150.359H19.6887C19.1304 150.359 18.6735 150.815 18.6735 151.375V151.599Z" fill="#30295E"/>
<path fill-rule="evenodd" clip-rule="evenodd" d="M21.2795 173.383C26.5143 173.383 30.784 169.114 30.784 163.879C30.784 158.644 26.5143 154.375 21.2795 154.375C16.0451 154.375 11.7754 158.644 11.7754 163.879C11.7754 169.114 16.0451 173.383 21.2795 173.383Z" fill="white"/>
<path fill-rule="evenodd" clip-rule="evenodd" d="M21.2824 156.359C17.129 156.359 13.7617 159.727 13.7617 163.88C13.7617 168.033 17.129 171.401 21.2824 171.401C25.4361 171.401 28.8034 168.033 28.8034 163.88C28.8034 159.727 25.4361 156.359 21.2824 156.359Z" fill="#E9BAA8"/>
<path fill-rule="evenodd" clip-rule="evenodd" d="M21.2817 169.232C24.2299 169.232 26.6342 166.827 26.6342 163.879C26.6342 160.932 24.2299 158.527 21.2817 158.527C18.3339 158.527 15.9297 160.932 15.9297 163.879C15.9297 166.827 18.3335 169.232 21.2817 169.232Z" fill="#30295E"/>
<path fill-rule="evenodd" clip-rule="evenodd" d="M59.2979 152.48C60.0597 152.48 60.6826 153.103 60.6826 153.864V157.786C60.6826 158.546 60.0597 159.17 59.2984 159.17H59.2979C58.537 159.17 57.9141 158.546 57.9141 157.786V153.864C57.9141 153.103 58.537 152.48 59.2979 152.48Z" fill="#30295E"/>
<path fill-rule="evenodd" clip-rule="evenodd" d="M59.4827 153.277C59.8632 153.277 60.1749 153.588 60.1749 153.969V155.929C60.1749 156.309 59.8636 156.62 59.4832 156.62C59.1023 156.62 58.791 156.31 58.791 155.929V153.969C58.791 153.589 59.1019 153.277 59.4827 153.277Z" fill="#413B73"/>
<path fill-rule="evenodd" clip-rule="evenodd" d="M56.2069 153.539C56.7271 153.539 57.1522 153.965 57.1522 154.485V157.162C57.1522 157.682 56.7271 158.107 56.2069 158.107C55.6872 158.107 55.2617 157.682 55.2617 157.162V154.485C55.2617 153.964 55.6872 153.539 56.2069 153.539Z" fill="#30295E"/>
<path fill-rule="evenodd" clip-rule="evenodd" d="M39.3669 144.499C39.3669 145.54 38.5163 146.391 37.4756 146.391H10.069C9.0287 146.391 8.17773 145.54 8.17773 144.499V143.484V135.123C8.17773 133.255 9.7132 131.719 11.5828 131.719H35.9617C37.831 131.719 39.3669 133.255 39.3669 135.123V143.484V144.499Z" fill="#CAD8EE"/>
<path fill-rule="evenodd" clip-rule="evenodd" d="M11.8457 145.395C11.9417 145.428 12.044 145.445 12.1502 145.445H19.1922L31.9736 132.664H24.5757L11.8457 145.395ZM22.0385 145.445L34.8199 132.664H37.7788L24.9974 145.445H22.0385Z" fill="white"/>
<path fill-rule="evenodd" clip-rule="evenodd" d="M146.822 177.392C158.725 177.392 168.432 167.684 168.432 155.782C168.432 143.879 158.725 134.172 146.822 134.172C134.92 134.172 125.213 143.879 125.213 155.782C125.213 167.684 134.92 177.392 146.822 177.392Z" fill="#A0CDBC"/>
<path fill-rule="evenodd" clip-rule="evenodd" d="M146.822 134.176C156.789 134.176 164.868 143.85 164.868 155.785C164.868 167.719 156.789 177.395 146.822 177.395C136.857 177.395 128.777 167.719 128.777 155.785C128.777 143.85 136.857 134.176 146.822 134.176Z" fill="#044D3A"/>
<path fill-rule="evenodd" clip-rule="evenodd" d="M146.822 177.392C154.456 177.392 160.683 167.684 160.683 155.782C160.683 143.879 154.457 134.172 146.822 134.172C139.189 134.172 132.963 143.879 132.963 155.782C132.963 167.684 139.189 177.392 146.822 177.392Z" fill="#A0CDBC"/>
<path fill-rule="evenodd" clip-rule="evenodd" d="M146.823 177.392C151.444 177.392 155.213 167.684 155.213 155.782C155.213 143.879 151.444 134.172 146.823 134.172C142.202 134.172 138.434 143.879 138.434 155.782C138.434 167.684 142.202 177.392 146.823 177.392Z" fill="#044D3A"/>
<path fill-rule="evenodd" clip-rule="evenodd" d="M146.822 134.176C148.854 134.176 150.501 143.85 150.501 155.785C150.501 167.719 148.854 177.395 146.822 177.395C144.79 177.395 143.143 167.719 143.143 155.785C143.143 143.85 144.79 134.176 146.822 134.176Z" fill="#A0CDBC"/>
<path fill-rule="evenodd" clip-rule="evenodd" d="M127.226 162.906C127.226 162.906 126.043 161.845 126.067 160.672C126.091 159.501 126.681 159.145 126.689 158.841C126.698 158.536 126.095 158.03 125.253 158.168C124.41 158.306 124.942 158.997 124.779 160.207C124.617 161.416 124.308 162.458 123.483 163.085C122.656 163.712 127.226 162.906 127.226 162.906Z" fill="#30295E"/>
<path fill-rule="evenodd" clip-rule="evenodd" d="M125.605 163.493C125.475 163.412 125.214 163.27 124.792 163.135C118.707 161.204 115.213 166.045 115.974 170.629C116.669 174.812 120.195 177.642 125.605 176.226C131.015 177.642 134.542 174.812 135.237 170.629C135.998 166.045 132.505 161.204 126.419 163.135C125.997 163.27 125.735 163.412 125.605 163.493Z" fill="#D08174"/>
<path fill-rule="evenodd" clip-rule="evenodd" d="M125.604 163.078C125.708 162.99 125.914 162.839 126.247 162.696C131.052 160.635 133.81 165.802 133.208 170.692C132.66 175.155 129.876 178.174 125.605 176.662C121.334 178.174 118.55 175.154 118.001 170.692C117.401 165.801 120.159 160.634 124.963 162.696C125.296 162.839 125.502 162.99 125.604 163.078Z" fill="#BE7775"/>
<path fill-rule="evenodd" clip-rule="evenodd" d="M122.906 176.1C119.905 172.485 119.658 162.226 125.605 162.281C131.386 162.228 131.315 171.918 128.551 175.783C127.149 177.741 124.483 178.003 122.906 176.1Z" fill="#D08174"/>
<path fill-rule="evenodd" clip-rule="evenodd" d="M139.371 166.631C139.371 166.631 138.492 165.843 138.51 164.972C138.527 164.102 138.966 163.837 138.973 163.611C138.979 163.386 138.531 163.009 137.905 163.111C137.279 163.214 137.674 163.728 137.553 164.626C137.433 165.524 137.203 166.298 136.59 166.764C135.976 167.23 139.371 166.631 139.371 166.631Z" fill="#30295E"/>
<path fill-rule="evenodd" clip-rule="evenodd" d="M138.166 167.066C138.069 167.004 137.875 166.9 137.562 166.801C133.041 165.366 130.447 168.962 131.012 172.366C131.528 175.473 134.147 177.576 138.166 176.522C142.185 177.575 144.804 175.473 145.32 172.366C145.885 168.962 143.291 165.366 138.77 166.801C138.456 166.9 138.262 167.005 138.166 167.066Z" fill="#CA8874"/>
<path fill-rule="evenodd" clip-rule="evenodd" d="M138.166 166.759C138.242 166.692 138.395 166.581 138.643 166.475C142.211 164.943 144.26 168.781 143.813 172.413C143.406 175.729 141.337 177.972 138.166 176.848C134.992 177.972 132.925 175.729 132.518 172.413C132.071 168.78 134.12 164.943 137.688 166.475C137.936 166.581 138.089 166.692 138.166 166.759Z" fill="#DBA376"/>
<path fill-rule="evenodd" clip-rule="evenodd" d="M136.16 176.433C133.931 173.747 133.749 166.127 138.167 166.168C142.46 166.128 142.408 173.327 140.355 176.197C139.313 177.651 137.332 177.845 136.16 176.433Z" fill="#ECBD78"/>
<path d="M125.476 132.635C145.899 112.212 145.899 79.1002 125.476 58.6773C105.053 38.2544 71.941 38.2544 51.518 58.6773C31.0951 79.1002 31.0951 112.212 51.518 132.635C71.941 153.058 105.053 153.058 125.476 132.635Z" fill="#044D3A"/>
<path fill-rule="evenodd" clip-rule="evenodd" d="M79.9004 14.7435L87.0958 14.0429C92.9744 13.4705 98.2529 17.8119 98.8262 23.6913L100.52 41.0838C101.092 46.9628 96.7502 52.2414 90.8707 52.8142L83.6758 53.5144C77.7964 54.0873 72.5178 49.7454 71.9454 43.866L70.2519 26.4735C69.6791 20.5949 74.021 15.3159 79.9004 14.7435Z" fill="#D08174"/>
<path fill-rule="evenodd" clip-rule="evenodd" d="M84.9044 20.5168C68.1697 22.6166 54.5132 29.0298 54.4011 34.8405C54.2894 40.6507 67.7655 43.6588 84.5002 41.5586C101.235 39.4588 114.892 33.0456 115.004 27.2353C115.114 21.4247 101.639 18.4166 84.9044 20.5168Z" fill="#BE7775"/>
<path fill-rule="evenodd" clip-rule="evenodd" d="M65.3945 41.5976C70.5861 42.4223 77.2362 42.4741 84.5004 41.5628C91.3743 40.7 97.7272 39.1097 102.837 37.1322L99.2045 30.7717L94.9293 32.5887L72.2625 30.6523L65.3945 41.5976Z" fill="#875371"/>
<path fill-rule="evenodd" clip-rule="evenodd" d="M79.3326 59.4419C79.3326 59.4419 80.6252 58.979 82.4507 59.1791C84.2758 59.3791 93.5195 59.1791 93.5195 59.1791C93.5195 59.1791 94.8771 59.4185 95.5782 59.9578L95.4975 61.0466C95.4975 61.0466 89.5229 63.0929 89.3586 63.0929C89.1934 63.0929 81.4753 62.5434 81.4753 62.5434C81.4753 62.5434 79.1679 61.2801 79.3326 59.4419Z" fill="#30295E"/>
<path d="M94.5314 56.1289H80.4766V66.1999H94.5314V56.1289Z" fill="#D58881"/>
<path fill-rule="evenodd" clip-rule="evenodd" d="M98.0902 66.2938C98.0902 66.2938 112.163 71.8653 113.356 72.5341C114.55 73.2033 115.089 73.7558 115.089 73.7558C115.089 73.7558 113.073 82.9045 113.806 95.1432C114.301 103.424 113.172 113.887 112.39 119.786H62.1711C62.9991 113.747 63.7839 107.937 63.9987 105.925C64.4879 101.345 60.7206 77.715 59.3418 74.0951L76.6782 65.718C77.7678 65.3061 79.0035 64.5651 79.0179 63.2912C79.0413 61.2831 79.0357 61.7443 79.0587 59.7366C79.0587 59.7366 79.1695 59.4763 79.3343 59.4453C82.6663 62.34 92.0443 62.461 95.5798 59.9612C95.7441 59.9965 95.8486 60.2598 95.8486 60.2598C95.8261 62.2674 95.8312 61.8071 95.8078 63.8143C95.7921 65.0882 97.0104 65.8572 98.0902 66.2938Z" fill="#413B73"/>
<path fill-rule="evenodd" clip-rule="evenodd" d="M113.714 86.1991C113.611 88.8905 113.613 91.9092 113.807 95.1448C114.224 102.12 113.488 110.641 112.779 116.682C101.583 117.505 85.8732 117.441 80.7823 116.139C74.3993 114.51 66.7321 114.464 62.9988 113.7C63.4761 110.156 63.8578 107.236 63.9984 105.927C64.251 103.563 63.3691 96.1228 62.2676 88.9792C64.468 94.479 68.581 94.2909 68.581 94.2909C68.581 94.2909 102.824 92.1605 108.05 91.268C113.278 90.3745 113.461 86 113.461 86L113.714 86.1991Z" fill="#30295E"/>
<path fill-rule="evenodd" clip-rule="evenodd" d="M107.423 92.8562C107.423 92.8562 72.2859 94.5471 70.5339 94.9645C68.7818 95.3815 67.02 96.6715 67.1568 99.993C67.2927 103.314 65.9092 127.578 59.0463 129.077C59.0463 129.077 58.7206 134.577 58.6994 136.411C58.6964 136.67 58.6022 137.4 58.4434 138.46C66.9466 144.441 77.3105 147.955 88.4966 147.955C98.9705 147.955 108.724 144.874 116.904 139.57C115.819 132.132 113.244 118.432 113.244 118.432C113.244 118.432 109.697 100.307 109.289 97.7692C108.881 95.2312 108.909 92.8069 107.423 92.8562Z" fill="#D08174"/>
<path fill-rule="evenodd" clip-rule="evenodd" d="M61.9888 126.708C61.1425 127.978 60.1688 128.833 59.0478 129.078C59.0478 129.078 58.7221 134.578 58.7013 136.412C58.6991 136.585 58.7352 136.786 58.8019 137.009C61.0189 136.872 65.179 136.652 68.2194 135.515C71.2597 134.378 93.746 120.551 93.746 120.551L115.541 131.176C115.106 126.581 113.544 121.196 113.338 119.279L92.49 112.684L61.9888 126.708Z" fill="#BE7775"/>
<path fill-rule="evenodd" clip-rule="evenodd" d="M66.6797 110.87L67.6725 110.848C67.6725 110.848 72.5668 110.419 76.2806 110.464C79.9936 110.51 101.137 106.43 105.469 105.736C109.802 105.044 111.995 105.013 114.293 106.072C116.591 107.131 114.2 113.787 114.2 113.787L109.864 118.54L108.33 117.792C108.33 117.792 101.33 116.259 99.8438 116.329C98.3584 116.399 71.6568 128.933 70.0772 129.527C68.498 130.12 66.6797 110.87 66.6797 110.87Z" fill="#E9BAA8"/>
<path fill-rule="evenodd" clip-rule="evenodd" d="M94.8792 118.301C93.914 118.721 92.8499 119.192 91.7195 119.697L80.2324 112.214L82.2401 111.551L96.8219 116.656L94.8792 118.301Z" fill="#D58881"/>
<path fill-rule="evenodd" clip-rule="evenodd" d="M59.3413 74.0938C59.3413 74.0938 53.4143 76.7545 52.2245 85.2581C51.0347 93.7618 51.281 100.798 50.12 106.789C48.9591 112.781 47.6814 119.429 48.6067 124.462C49.5315 129.496 54.3965 133.701 60.6241 133.445C63.2161 133.362 69.4458 132.351 69.9083 132.051C70.3703 131.75 70.4917 131.43 70.4917 131.43C72.1877 123.332 69.0072 110.899 68.9019 110.556C68.7966 110.21 68.4581 110.207 68.4581 110.207C67.9053 110.235 65.2326 110.467 64.1396 110.562C63.9426 110.572 63.7851 110.586 63.6717 110.603C63.6717 110.603 64.4594 109.322 63.5847 109.285C63.5847 109.285 64.1439 107.536 64.3481 104.043C64.5524 100.55 61.1634 77.2526 59.3413 74.0938Z" fill="#875371"/>
<path fill-rule="evenodd" clip-rule="evenodd" d="M108.253 109.404C108.253 109.404 88.7833 106.624 85.6419 106.282C82.5009 105.94 75.1289 108.464 73.4435 109.029C71.7573 109.594 71.4609 110.593 71.4609 110.593L76.2784 110.467C76.2784 110.467 81.8304 112.81 85.2156 114.683C88.6012 116.557 107.552 124.725 108.248 124.907C108.944 125.09 108.253 109.404 108.253 109.404Z" fill="#E9BAA8"/>
<path fill-rule="evenodd" clip-rule="evenodd" d="M115.09 73.7539C121.405 75.9977 124.66 93.323 127.568 100.074C133.306 113.395 129.374 127.979 115.884 127.572L115.886 127.578C114.64 127.697 108.537 126.595 107.626 126.06C106.715 125.525 104.605 120.672 105.214 115.506C105.823 110.34 108.154 108.662 108.154 108.662L111.907 108.848C111.907 108.848 112.004 107.593 113.202 107.798L113.789 104.906C113.789 104.906 112.249 81.5246 115.09 73.7539Z" fill="#875371"/>
<path fill-rule="evenodd" clip-rule="evenodd" d="M105.282 69.1621C105.282 69.1621 106.009 87.5774 106.319 90.9002C106.319 90.9002 106.445 91.4259 105.832 91.5719C105.219 91.7176 103.602 91.7864 103.602 91.7864C103.602 91.7864 103.143 91.7592 102.995 91.3643C102.847 90.9698 101.033 67.461 101.033 67.461C101.033 67.461 101.341 67.3319 101.472 67.3446C101.603 67.3569 104.93 68.6291 104.93 68.6291C104.93 68.6291 105.191 68.7638 105.282 69.1621Z" fill="#D08174"/>
<path fill-rule="evenodd" clip-rule="evenodd" d="M70.3442 68.7757C70.3964 69.4109 72.1523 89.3881 72.4597 92.668C72.4597 92.668 72.5845 93.1937 71.9718 93.3397C71.3586 93.4858 69.7416 93.5546 69.7416 93.5546C69.7416 93.5546 69.2673 93.485 69.1348 93.1317C69.0028 92.7801 67.3098 78.6564 66.4707 70.6479C66.5476 70.5311 66.5293 70.3642 66.6868 70.2254C67.435 69.5655 69.0907 68.7821 69.9629 68.6734C70.0818 68.6581 70.2542 68.7651 70.3442 68.7757Z" fill="#D08174"/>
<path fill-rule="evenodd" clip-rule="evenodd" d="M70.1331 92.5222L71.3539 92.3893C71.4924 92.3753 71.6253 92.4186 71.7263 92.5002C71.8287 92.5825 71.9 92.7036 71.9153 92.8441L72.1684 95.1664C72.1837 95.3065 72.1399 95.4407 72.0575 95.5431C71.9756 95.645 71.8537 95.7172 71.7132 95.732L70.4873 95.8654C70.3484 95.8785 70.2159 95.8356 70.1149 95.7541C70.0129 95.6721 69.9416 95.5507 69.9259 95.4106C69.8486 94.6352 69.7531 93.859 69.6724 93.0832C69.6588 92.9447 69.7021 92.8127 69.7841 92.7116C69.8656 92.6089 69.9875 92.5375 70.1276 92.5227L70.1331 92.5222ZM71.3773 92.7273L70.1594 92.8607C70.1144 92.8666 70.0745 92.8904 70.0473 92.9244C70.0206 92.9566 70.0062 93.0008 70.0095 93.0462C70.0834 93.8182 70.1726 94.6072 70.2639 95.3783C70.2698 95.4237 70.2932 95.4628 70.3276 95.4904C70.3599 95.5172 70.404 95.532 70.4495 95.5278L71.6775 95.3949C71.7246 95.3898 71.7658 95.3651 71.7938 95.3303C71.8219 95.2955 71.8367 95.2501 71.8316 95.2017L71.5777 92.876C71.5713 92.8305 71.5476 92.7906 71.514 92.763C71.4809 92.7362 71.4372 92.7222 71.3917 92.7256L71.3773 92.7273Z" fill="white"/>
<path fill-rule="evenodd" clip-rule="evenodd" d="M103.967 90.6158L105.188 90.4829C105.326 90.4693 105.459 90.5127 105.56 90.5946C105.662 90.6766 105.733 90.798 105.749 90.9377L106.002 93.2596C106.018 93.3997 105.974 93.5339 105.891 93.6362C105.81 93.739 105.687 93.8103 105.547 93.8252L104.321 93.9585C104.183 93.9726 104.05 93.9288 103.949 93.8473C103.847 93.7653 103.775 93.6439 103.76 93.5038C103.683 92.7284 103.587 91.9526 103.506 91.1772C103.492 91.0388 103.536 90.9063 103.617 90.8052C103.7 90.7029 103.821 90.6316 103.961 90.6163L103.967 90.6158ZM105.211 90.8209L103.994 90.9543C103.948 90.9606 103.908 90.9844 103.881 91.018C103.855 91.0507 103.84 91.0944 103.842 91.1398C103.917 91.9122 104.007 92.7004 104.097 93.4715C104.104 93.5169 104.128 93.5568 104.161 93.5836C104.194 93.6103 104.238 93.6252 104.284 93.6218L105.511 93.4885C105.558 93.4834 105.599 93.4596 105.627 93.4239C105.655 93.3891 105.67 93.3437 105.665 93.2953L105.411 90.97C105.405 90.925 105.382 90.8851 105.348 90.8579C105.315 90.8311 105.271 90.8163 105.226 90.8197L105.211 90.8209Z" fill="white"/>
<path d="M95.9562 64.5703C95.9562 64.5703 90.4784 68.1206 80.2461 65.254" stroke="#30295E" stroke-width="1.4173" stroke-miterlimit="2.6131" stroke-linecap="round" stroke-linejoin="round"/>
<path d="M107.465 109.291C103.79 108.768 88.4041 106.583 85.6419 106.282C82.5009 105.94 75.1289 108.464 73.4435 109.029C71.7573 109.594 71.4609 110.593 71.4609 110.593L76.2784 110.467C76.2784 110.467 81.8304 112.81 85.2156 114.683" stroke="#D58881" stroke-width="1.4173" stroke-miterlimit="2.6131" stroke-linecap="round" stroke-linejoin="round"/>
<path d="M64.1411 100.48C64.1411 100.48 61.916 92.2729 57.7988 89.3086" stroke="#663B55" stroke-width="1.4173" stroke-miterlimit="2.6131" stroke-linecap="round" stroke-linejoin="round"/>
<path d="M49.8398 108.252C49.8398 108.252 52.7864 95.9852 53.1452 94.082" stroke="#663B55" stroke-width="1.4173" stroke-miterlimit="2.6131" stroke-linecap="round" stroke-linejoin="round"/>
<path d="M63.6732 110.605C63.6732 110.605 58.9313 112.828 57.082 117.575" stroke="#663B55" stroke-width="1.4173" stroke-miterlimit="2.6131" stroke-linecap="round" stroke-linejoin="round"/>
<path d="M63.5848 109.286C63.5848 109.286 59.9822 109.192 57.5508 110.848" stroke="#663B55" stroke-width="1.4173" stroke-miterlimit="2.6131" stroke-linecap="round" stroke-linejoin="round"/>
<path d="M111.906 108.848C111.906 108.848 117.93 109.017 119.294 112.342" stroke="#663B55" stroke-width="1.4173" stroke-miterlimit="2.6131" stroke-linecap="round" stroke-linejoin="round"/>
<path d="M113.203 107.799C113.203 107.799 116.265 107.625 117.745 108.119" stroke="#663B55" stroke-width="1.4173" stroke-miterlimit="2.6131" stroke-linecap="round" stroke-linejoin="round"/>
<path d="M113.461 97.4693C113.461 97.4693 113.405 90.285 117.821 86.7461" stroke="#663B55" stroke-width="1.4173" stroke-miterlimit="2.6131" stroke-linecap="round" stroke-linejoin="round"/>
<path d="M125.537 94.2578C125.537 94.2578 127.898 103.299 126.856 106.036" stroke="#663B55" stroke-width="1.4173" stroke-miterlimit="2.6131" stroke-linecap="round" stroke-linejoin="round"/>
<path d="M113.666 102.743C113.666 102.743 114.806 100.286 116.441 99.5195" stroke="#663B55" stroke-width="1.4173" stroke-miterlimit="2.6131" stroke-linecap="round" stroke-linejoin="round"/>
<path d="M96.672 65.4844C96.672 65.4844 93.5692 69.132 86.3301 69.3855" stroke="#30295E" stroke-width="1.4173" stroke-miterlimit="2.6131" stroke-linecap="round" stroke-linejoin="round"/>
<path fill-rule="evenodd" clip-rule="evenodd" d="M71.326 41.1914C71.2279 41.2156 71.1315 41.2427 71.036 41.2733L71.033 41.2746L71.0335 41.2742C69.2755 41.8449 68.0806 43.5697 68.2504 45.489C68.4487 47.7196 70.4177 49.3676 72.6475 49.1693C74.8781 48.9714 76.5265 47.0028 76.3282 44.7723C76.2131 43.4759 75.5006 42.3761 74.4853 41.7217C74.7163 42.9009 74.6861 44.3943 73.1834 44.7056L72.9766 42.3765C72.8929 41.4338 71.9689 41.0958 71.326 41.1914Z" fill="#D58881"/>
<path fill-rule="evenodd" clip-rule="evenodd" d="M100.424 38.0547C100.526 38.0577 100.625 38.0636 100.726 38.0729L100.728 38.0738C102.567 38.2564 104.103 39.6861 104.346 41.5974C104.628 43.8186 103.056 45.8492 100.835 46.1312C98.613 46.414 96.5824 44.842 96.3005 42.6207C96.1361 41.3294 96.5981 40.1031 97.4499 39.2475C97.4758 40.4483 97.824 41.901 99.3591 41.8849L99.0648 39.5651C98.9459 38.6258 99.7761 38.0984 100.424 38.0547Z" fill="#D58881"/>
<path fill-rule="evenodd" clip-rule="evenodd" d="M71.3224 32.6728C71.2914 33.365 71.3122 34.0677 71.3882 34.7769L72.7428 47.3315C73.5623 54.9226 80.4443 60.4632 88.0363 59.6437C95.6262 58.8245 101.167 51.9434 100.348 44.3518L98.9935 31.7976C98.9073 31.0015 98.7544 30.2278 98.5412 29.4817C96.0746 25.4711 91.7217 25.4885 90.28 25.6142C88.3713 25.7802 86.5454 26.029 78.3288 27.0248C73.995 27.5501 72.1237 30.2439 71.3224 32.6728Z" fill="#E9BAA8"/>
<path fill-rule="evenodd" clip-rule="evenodd" d="M83.2617 49.1557C83.4566 51.1302 85.2163 52.5727 87.19 52.3774C89.1649 52.1825 90.607 50.4237 90.4121 48.4495L90.4061 48.4504C90.3722 48.1103 90.0677 47.8597 89.7276 47.8937L83.8244 48.4771C83.4846 48.5103 83.2341 48.8156 83.2677 49.1549L83.2617 49.1557Z" fill="#30295E"/>
<path fill-rule="evenodd" clip-rule="evenodd" d="M84.8691 51.8055C85.5316 52.2395 86.3413 52.459 87.191 52.3754C87.8849 52.3074 88.5129 52.0454 89.0271 51.6492C88.6802 50.9427 87.8233 50.4726 86.853 50.5325C85.9269 50.5885 85.1617 51.1112 84.8691 51.8055Z" fill="#C35A5A"/>
<path fill-rule="evenodd" clip-rule="evenodd" d="M89.8076 47.8906L84.2594 48.4388C84.2318 49.0613 84.577 49.6528 85.0029 49.7475C85.5214 49.8618 89.5265 49.3603 89.7787 49.0159C89.901 48.8503 89.8713 48.3564 89.8076 47.8906Z" fill="white"/>
<path fill-rule="evenodd" clip-rule="evenodd" d="M95.2403 44.6994C94.1214 44.7988 93.2955 45.7869 93.3948 46.9045C93.4942 48.023 94.4815 48.8494 95.5999 48.7504C96.718 48.6511 97.5447 47.6634 97.4454 46.5453C97.3456 45.4268 96.3579 44.6005 95.2403 44.6994Z" fill="#D58881"/>
<path fill-rule="evenodd" clip-rule="evenodd" d="M77.8559 46.5744C76.7374 46.6742 75.911 47.6615 76.01 48.7796C76.1089 49.8985 77.097 50.7244 78.2151 50.6254C79.3336 50.5265 80.1599 49.5392 80.061 48.4203C79.9616 47.3018 78.9743 46.4755 77.8559 46.5744Z" fill="#D58881"/>
<path fill-rule="evenodd" clip-rule="evenodd" d="M77.194 39.3309C76.966 39.4778 76.6603 39.4112 76.5138 39.1827C76.3668 38.9543 76.4331 38.6485 76.6607 38.5024C77.8879 37.6927 79.6157 37.4273 80.9724 38.0545C81.2182 38.1678 81.3269 38.4621 81.2136 38.708C81.1002 38.9543 80.8055 39.063 80.5596 38.9492C79.4615 38.4426 78.1851 38.7186 77.194 39.3309Z" fill="#30295E"/>
<path fill-rule="evenodd" clip-rule="evenodd" d="M94.8167 37.43C93.7169 37.0428 92.4107 37.0449 91.446 37.7753C91.2294 37.9387 90.9186 37.895 90.7551 37.6789C90.5916 37.4627 90.6358 37.1519 90.8515 36.9888C92.0434 36.0865 93.7882 35.9769 95.1585 36.506C95.4133 36.6007 95.5432 36.8848 95.449 37.1392C95.3534 37.3939 95.0698 37.5239 94.8167 37.43Z" fill="#30295E"/>
<path fill-rule="evenodd" clip-rule="evenodd" d="M72.493 45.0125C72.493 45.0125 74.4658 43.9497 74.0845 40.4189C73.7032 36.8885 73.7971 37.7577 73.5983 35.9157C73.3996 34.0732 74.3308 30.7114 78.0659 30.3084C82.5504 29.8243 87.0336 29.3407 91.5173 28.8566C95.2528 28.4532 96.88 31.539 97.0791 33.3815C97.2774 35.2235 97.1836 34.3539 97.5645 37.8847C97.9458 41.4151 100.101 42.0329 100.101 42.0329C99.798 39.2329 100.533 38.0405 100.533 38.0405L100.183 34.7959C99.2121 25.4689 92.1899 25.4481 90.2808 25.6141C88.3721 25.7802 86.5462 26.029 78.3296 27.0247C70.1125 28.0209 70.7457 36.8133 70.7457 36.8133L71.2191 41.204C71.2183 41.204 72.1903 42.2125 72.493 45.0125Z" fill="#30295E"/>
<path fill-rule="evenodd" clip-rule="evenodd" d="M93.3088 39.3855C93.9249 39.3188 94.4842 39.7685 94.5496 40.385L94.7071 41.8462C94.7742 42.4623 94.3249 43.0211 93.7084 43.0874C93.0922 43.1536 92.533 42.7044 92.4667 42.0878L92.3092 40.6267C92.243 40.0101 92.6927 39.4517 93.3088 39.3855Z" fill="#30295E"/>
<path fill-rule="evenodd" clip-rule="evenodd" d="M85.5827 44.1581C85.3534 44.6269 85.0481 45.2885 84.9369 45.7088C84.6129 46.9449 86.967 47.4358 86.959 46.1751C86.9556 45.725 86.7713 45.1186 86.5551 44.5997C85.9759 43.2124 85.9674 43.3772 85.5827 44.1581Z" fill="#F1D3C8"/>
<path fill-rule="evenodd" clip-rule="evenodd" d="M77.7606 43.8105C77.5449 43.9693 77.2523 43.8908 77.1084 43.6356C76.9644 43.3795 77.0226 43.0428 77.2375 42.884C78.3954 42.0076 80.0409 41.7426 81.347 42.4602C81.5836 42.5901 81.6923 42.9175 81.5878 43.1884C81.4838 43.4594 81.2044 43.5744 80.9674 43.4449C79.9105 42.8645 78.6969 43.1494 77.7606 43.8105Z" fill="#30295E"/>
<path fill-rule="evenodd" clip-rule="evenodd" d="M83.0801 21.679C99.8144 19.5792 113.291 22.5873 113.179 28.3971C113.141 30.3636 111.552 32.3988 108.818 34.313C112.66 32.0757 114.959 29.6056 115.005 27.2353C115.116 21.4251 101.64 18.4166 84.9056 20.5168C73.8342 21.9062 64.1098 25.1835 58.7637 28.9249C64.3416 25.6778 73.1714 22.9223 83.0801 21.679Z" fill="#D58C75"/>
<path fill-rule="evenodd" clip-rule="evenodd" d="M4.13075 52.296L12.4548 52.22C15.7359 52.1898 15.524 47.3783 12.4386 47.4064L4.11504 47.4828C0.833065 47.5125 1.04538 52.3244 4.13075 52.296Z" fill="#D58881"/>
<path fill-rule="evenodd" clip-rule="evenodd" d="M22.6114 30.5808C22.6662 30.25 22.7316 29.932 22.8063 29.6258C22.8828 29.3154 22.969 29.0182 23.0641 28.7358C23.4216 27.6785 23.9087 26.8093 24.4921 26.1078C25.124 25.3477 25.8675 24.7838 26.6798 24.388C27.4331 24.0216 28.245 23.7995 29.0798 23.701C29.9762 23.5956 30.9006 23.6317 31.811 23.7816C32.118 23.8322 32.4242 23.8967 32.7287 23.9727C33.0369 24.05 33.341 24.14 33.6408 24.2411C33.6747 24.2521 33.7006 24.2763 33.7159 24.3061C33.7308 24.3354 33.7338 24.3706 33.7227 24.4046L33.7193 24.4135C33.6781 24.529 32.7873 27.016 30.986 29.0224C29.1647 31.0522 26.4165 32.5927 22.6806 30.7201C22.6539 30.7069 22.6335 30.6853 22.6212 30.6602C22.6101 30.6369 22.6067 30.6088 22.6114 30.5808Z" fill="#044D3A"/>
<path fill-rule="evenodd" clip-rule="evenodd" d="M29.9997 40.1448C29.1759 40.1448 28.3908 40.3109 27.6757 40.6111C27.0273 39.8722 26.0761 39.4056 25.0162 39.4056C24.4812 39.4056 23.975 39.5244 23.5211 39.7368C22.5207 37.4455 20.2353 35.8438 17.5754 35.8438C13.9932 35.8438 11.0904 38.7474 11.0904 42.3287C11.0904 42.4561 11.0943 42.5822 11.1015 42.7075C10.9631 42.6909 10.8229 42.682 10.6807 42.682C8.72695 42.682 7.14266 44.2659 7.14266 46.22C7.14266 46.4599 7.16686 46.6948 7.21272 46.9215C7.14945 46.9168 7.08618 46.9143 7.02248 46.9143C5.57449 46.9143 4.40039 48.0884 4.40039 49.5368C4.40039 50.1699 4.6246 50.7504 4.99827 51.2039C7.25603 51.5071 9.4743 51.4162 10.6395 51.5937C12.0085 51.8026 23.3151 46.4948 33.7211 41.4357C32.6978 40.6272 31.4048 40.1448 29.9997 40.1448Z" fill="#875371"/>
<path fill-rule="evenodd" clip-rule="evenodd" d="M17.556 24.9032C17.5802 24.4998 17.5878 24.1088 17.5819 23.7291C17.5747 23.3436 17.5526 22.9716 17.5156 22.6145C17.3776 21.2765 17.0367 20.1253 16.5381 19.1448C15.9984 18.0837 15.2749 17.2225 14.4252 16.541C13.6379 15.9096 12.7436 15.4331 11.7878 15.0943C10.7627 14.7312 9.66676 14.527 8.55763 14.4612C8.18268 14.4386 7.80561 14.4327 7.42811 14.4412C7.04509 14.4501 6.66335 14.4739 6.285 14.5134C6.24212 14.5176 6.20517 14.5389 6.17969 14.5699C6.15464 14.6009 6.14105 14.6412 6.1453 14.6841L6.147 14.6951C6.16441 14.8425 6.54828 18.0021 8.13002 20.8404C9.73003 23.7113 12.5483 26.254 17.4379 25.0493C17.4727 25.0404 17.5016 25.0213 17.5229 24.9945C17.5428 24.9691 17.5543 24.9372 17.556 24.9032Z" fill="#044D3A"/>
<path d="M20.0441 42.2153C20.0441 42.2153 20.0441 33.8976 20.0441 30.6348C20.0441 27.3715 18.5006 25.6436 16.957 24.1719" stroke="#663B55" stroke-width="2.126" stroke-miterlimit="2.6131" stroke-linecap="round" stroke-linejoin="round"/>
<path d="M20.043 42.2122C20.043 42.2122 20.043 36.6597 20.043 34.4818C20.043 32.3034 21.5865 31.1497 23.1296 30.168" stroke="#663B55" stroke-width="2.126" stroke-miterlimit="2.6131" stroke-linecap="round" stroke-linejoin="round"/>
<path d="M7.50977 50.0982C7.50977 47.2464 9.82103 44.9351 12.6729 44.9351C13.3807 44.9351 14.0554 45.0778 14.6699 45.3355C15.227 44.7003 16.0444 44.2999 16.9557 44.2999C17.4151 44.2999 17.8504 44.4018 18.241 44.5844C19.1001 42.6149 21.0648 41.2383 23.3506 41.2383" stroke="#663B55" stroke-width="1.4173" stroke-miterlimit="2.6131" stroke-linecap="round" stroke-linejoin="round"/>
<path fill-rule="evenodd" clip-rule="evenodd" d="M28.9863 46.7944L31.8742 49.3511L40.9639 51.5082C43.4136 52.0862 43.5032 49.7447 43.5057 49.6713V49.6696V43.8683C43.5057 41.5931 41.2042 41.3095 41.132 41.301L41.1299 41.3005L31.0832 40.2109L28.9863 46.7944Z" fill="#E9BAA8"/>
<path fill-rule="evenodd" clip-rule="evenodd" d="M31.875 49.3484L40.9646 51.5055C43.4143 52.0834 43.5039 49.742 43.5065 49.6686V49.6669V48.7764C41.8012 48.3132 39.8627 47.8032 39.1379 47.6715C37.7336 47.4172 36.1799 47.9013 36.1799 47.9013L31.875 49.3484Z" fill="#D58881"/>
<path fill-rule="evenodd" clip-rule="evenodd" d="M3.95697 54.8159L12.281 54.7395C15.5626 54.7094 15.3502 49.8983 12.2645 49.9259L3.94084 50.0023C0.659293 50.0325 0.871608 54.8444 3.95697 54.8159Z" fill="#E9BAA8"/>
<path fill-rule="evenodd" clip-rule="evenodd" d="M10.1179 54.8544L18.4275 54.3661C21.7035 54.1737 21.253 49.3784 18.1727 49.5597L9.86315 50.048C6.58712 50.2404 7.03765 55.0357 10.1179 54.8544Z" fill="#E9BAA8"/>
<path fill-rule="evenodd" clip-rule="evenodd" d="M4.93701 54.8117C4.91832 54.4096 4.87416 53.6261 4.79772 53.2023C4.69327 52.6172 4.0542 52.5391 4.04953 52.5391L3.39092 52.5412C2.67415 52.5437 2.07542 53.0665 1.95312 53.7488C2.38795 54.3934 3.12595 54.8181 3.95696 54.8151L4.93701 54.8117Z" fill="#D58881"/>
<path fill-rule="evenodd" clip-rule="evenodd" d="M19.3351 54.1851L31.8732 49.3481C30.725 47.8458 30.136 46.4738 31.0206 45.2135C31.6189 44.3613 28.6023 44.7332 24.8702 45.4598L17.4324 49.2891C15.0816 50.4993 16.4986 55.2798 19.3351 54.1851Z" fill="#E9BAA8"/>
<path fill-rule="evenodd" clip-rule="evenodd" d="M30.6182 46.204C30.6297 45.7947 30.7316 45.646 30.9923 45.2583L27.4059 45.0078C26.6301 45.1297 25.7724 45.2838 24.8726 45.4596L17.4347 49.2889C17.2526 49.3828 17.0929 49.4979 16.9549 49.6303L11.7417 49.9369C11.6789 49.9314 11.6092 49.9289 11.5324 49.9301L6.73828 49.9739C6.73828 49.9739 6.9731 50.8991 7.8126 51.3654C8.02406 51.5437 8.56929 51.7425 9.52386 51.7221L16.253 51.5773L16.3146 51.5756L16.4768 51.5722L16.6356 51.5688L16.791 51.565L16.9426 51.562L17.0912 51.5586L17.2352 51.5552L17.3749 51.5522L17.5099 51.5492L17.6403 51.5467L17.7659 51.5433L17.8861 51.5412L18.0012 51.5386L18.1107 51.5361L18.2139 51.534L18.3116 51.5318L18.4025 51.5297L18.4874 51.5276L18.5655 51.5259L18.6369 51.5246L18.7006 51.5229L18.757 51.5221L18.8063 51.5208C19.0042 51.5161 19.6139 51.3021 20.4755 50.9569L20.4611 50.9246C23.0093 49.8359 27.7855 47.5157 30.6182 46.204Z" fill="#D58881"/>
<path fill-rule="evenodd" clip-rule="evenodd" d="M20.4052 49.9463L34.7089 44.7998C38.3238 43.4987 33.4834 37.3692 27.9853 40.0431L18.4893 44.6613C15.9445 45.8983 17.3441 51.0478 20.4052 49.9463Z" fill="#E9BAA8"/>
<path fill-rule="evenodd" clip-rule="evenodd" d="M13.1084 50.5555L19.2936 50.0876C20.7195 49.9793 21.7981 48.7245 21.6906 47.2986C21.5828 45.8727 20.3276 44.7941 18.9017 44.902L12.7165 45.3699C11.291 45.4778 10.2124 46.7325 10.3199 48.1585C10.4277 49.5848 11.6825 50.6634 13.1084 50.5555Z" fill="#E9BAA8"/>
<path fill-rule="evenodd" clip-rule="evenodd" d="M12.8402 50.274L14.0567 50.1823C14.4385 50.1534 14.4746 49.7147 14.4746 49.7147C14.4746 49.7147 14.3276 48.3432 14.1684 47.719C14.01 47.0965 13.3153 47.0629 13.3106 47.0625L12.6011 47.1164C11.7327 47.1818 11.0758 47.9466 11.1412 48.815C11.207 49.6833 11.9718 50.3398 12.8402 50.274Z" fill="#D58881"/>
<path d="M31.9883 33.0052C46.7515 19.1181 66.6322 10.6094 88.4999 10.6094C102.803 10.6094 116.255 14.2493 127.982 20.6532M160.476 52.7616C167.175 64.6891 170.995 78.4509 170.995 93.1054C170.995 107.733 167.187 121.473 160.51 133.385M111.458 172.364C104.17 174.472 96.4664 175.601 88.4999 175.601C80.3618 175.601 72.4985 174.422 65.0722 172.227M12.9156 126.213C8.47058 116.079 6.00391 104.88 6.00391 93.1054C6.00391 80.9936 8.61454 69.4912 13.3025 59.1302" stroke="#413B73" stroke-width="2.126" stroke-miterlimit="2.6131" stroke-linecap="round" stroke-linejoin="round" stroke-dasharray="2.13 6.38"/>
</svg>
