<svg width="24" height="25" viewBox="0 0 24 25" fill="none" xmlns="http://www.w3.org/2000/svg">
<g id="noun-rain-2438520 1">
<g id="Group">
<path id="Vector" d="M7.90809 9.70057C8.92449 9.28928 9.46823 8.15973 9.05533 7.13932C8.64362 6.12292 5.87974 4.69043 5.87974 4.69043C5.87974 4.69043 4.88772 7.64356 5.29915 8.65969C5.71219 9.68024 6.88874 10.1132 7.90809 9.70043V9.70057Z" fill="#483C32"/>
<path id="Vector_2" d="M12.1647 15.7199C12.1647 15.7199 11.1444 18.5945 11.5557 19.6106C11.9685 20.6299 13.1422 21.0652 14.1617 20.6525C15.181 20.2398 15.7213 19.1107 15.3087 18.0913C14.8972 17.0749 12.1647 15.7197 12.1647 15.7197V15.7199Z" fill="#483C32"/>
<path id="Vector_3" d="M5.78 14.5703C5.78 14.5703 4.66064 17.6667 5.10379 18.7614C5.54802 19.8588 6.83747 20.3381 7.93502 19.8936C9.02962 19.4504 9.54271 18.2419 9.09833 17.1442C8.65488 16.0497 5.78 14.5704 5.78 14.5704V14.5703Z" fill="#483C32"/>
<path id="Vector_4" d="M12.1402 13.6321C12.7651 13.3791 13.0134 12.6424 12.7916 12.0946C12.5374 11.4666 10.9362 10.6582 10.9362 10.6582C10.9362 10.6582 10.3476 12.3532 10.6018 12.9815C10.8236 13.529 11.5134 13.8859 12.1402 13.6321H12.1402Z" fill="#483C32"/>
<path id="Vector_5" d="M18.275 13.372C18.0208 12.744 16.4196 11.9355 16.4196 11.9355C16.4196 11.9355 15.831 13.6306 16.0852 14.2588C16.307 14.8065 16.997 15.1634 17.6236 14.9097C18.2486 14.6564 18.4971 13.9197 18.275 13.3719L18.275 13.372Z" fill="#483C32"/>
<path id="Vector_6" d="M17.0523 7.32668C16.6409 6.31042 13.8768 4.87793 13.8768 4.87793C13.8768 4.87793 12.8848 7.83105 13.2962 8.84718C13.7094 9.86772 14.886 10.3004 15.9052 9.88781C16.9213 9.47666 17.4653 8.34736 17.0523 7.32657V7.32668Z" fill="#483C32"/>
<path id="Vector_7" d="M19.8014 19.4315C19.5472 18.8035 17.946 17.9951 17.946 17.9951C17.946 17.9951 17.3574 19.6901 17.6116 20.3184C17.8333 20.866 18.5232 21.223 19.15 20.969C19.7748 20.716 20.0232 19.9793 19.8014 19.4315H19.8014Z" fill="#483C32"/>
</g>
</g>
</svg>
