<svg width="204" height="200" viewBox="0 0 204 200" fill="none" xmlns="http://www.w3.org/2000/svg">
<path d="M193.563 79.301H10.007C4.47999 79.301 0 74.821 0 69.294V10.007C0 4.48 4.47999 0 10.007 0H193.563C199.09 0 203.57 4.48 203.57 10.007V69.294C203.57 74.821 199.09 79.301 193.563 79.301Z" fill="#044D3A"/>
<path d="M71.89 0H10.007C4.47999 0 0 4.48 0 10.007V69.294C0 74.821 4.47999 79.301 10.007 79.301H71.89V0Z" fill="#5FCC00"/>
<path d="M38.1965 39.0432C45.7914 37.805 50.9446 30.6444 49.7065 23.0495C48.4684 15.4545 41.3078 10.3013 33.7128 11.5394C26.1179 12.7776 20.9646 19.9382 22.2028 27.5331C23.4409 35.1281 30.6015 40.2813 38.1965 39.0432Z" fill="white"/>
<path d="M40.373 27.1572C40.956 27.4962 41.417 27.9572 41.755 28.5392C42.094 29.1222 42.263 29.7522 42.263 30.4292V31.1622C42.263 31.5382 42.131 31.8582 41.868 32.1212C41.604 32.3842 41.285 32.5162 40.909 32.5162H30.979C30.603 32.5162 30.283 32.3842 30.02 32.1212C29.756 31.8572 29.625 31.5382 29.625 31.1622V30.4292C29.625 29.7522 29.794 29.1222 30.133 28.5392C30.472 27.9562 30.932 27.4952 31.515 27.1572C32.098 26.8182 32.728 26.6492 33.405 26.6492C33.649 26.6492 33.969 26.7152 34.364 26.8472C34.627 26.9222 34.843 26.9792 35.013 27.0162C35.295 27.0722 35.605 27.1012 35.944 27.1012C36.283 27.1012 36.593 27.0732 36.875 27.0162C37.044 26.9792 37.26 26.9222 37.524 26.8472C37.919 26.7162 38.238 26.6492 38.483 26.6492C39.16 26.6492 39.79 26.8192 40.373 27.1572ZM33.913 25.6482C33.292 25.2812 32.799 24.7882 32.432 24.1672C32.065 23.5462 31.882 22.8692 31.882 22.1362C31.882 21.4032 32.065 20.7262 32.432 20.1052C32.799 19.4842 33.292 18.9912 33.913 18.6242C34.534 18.2572 35.211 18.0742 35.944 18.0742C36.677 18.0742 37.355 18.2572 37.975 18.6242C38.596 18.9912 39.089 19.4842 39.456 20.1052C39.823 20.7262 40.006 21.4032 40.006 22.1362C40.006 22.8702 39.823 23.5462 39.456 24.1672C39.089 24.7882 38.596 25.2812 37.975 25.6482C37.354 26.0152 36.677 26.1982 35.944 26.1982C35.211 26.1982 34.534 26.0152 33.913 25.6482Z" fill="#044D3A"/>
<path d="M63.038 45.918H8.85196C7.71496 45.918 6.79297 46.84 6.79297 47.976C6.79297 49.113 7.71496 50.035 8.85196 50.035H63.038C64.175 50.035 65.097 49.113 65.097 47.976C65.097 46.84 64.175 45.918 63.038 45.918Z" fill="white"/>
<path d="M63.038 54.8711H8.85196C7.71496 54.8711 6.79297 55.7931 6.79297 56.9301C6.79297 58.0671 7.71496 58.9891 8.85196 58.9891H63.038C64.175 58.9891 65.097 58.0671 65.097 56.9301C65.097 55.7931 64.175 54.8711 63.038 54.8711Z" fill="white"/>
<path d="M63.038 63.8281H8.85196C7.71496 63.8281 6.79297 64.7501 6.79297 65.8871C6.79297 67.0241 7.71496 67.9461 8.85196 67.9461H63.038C64.175 67.9461 65.097 67.0241 65.097 65.8871C65.097 64.7491 64.175 63.8281 63.038 63.8281Z" fill="white"/>
<path d="M185.489 41.2547H86.4027C85.2657 41.2547 84.3438 40.3327 84.3438 39.1957C84.3438 38.0587 85.2657 37.1367 86.4027 37.1367H185.489C186.626 37.1367 187.548 38.0587 187.548 39.1957C187.547 40.3337 186.626 41.2547 185.489 41.2547Z" fill="white"/>
<path d="M185.489 24.5711H86.4027C85.2657 24.5711 84.3438 23.6491 84.3438 22.5121C84.3438 21.3751 85.2657 20.4531 86.4027 20.4531H185.489C186.626 20.4531 187.548 21.3751 187.548 22.5121C187.547 23.6491 186.626 24.5711 185.489 24.5711Z" fill="white"/>
<path d="M185.489 32.9149H86.4027C85.2657 32.9149 84.3438 31.9929 84.3438 30.8559C84.3438 29.7189 85.2657 28.7969 86.4027 28.7969H185.489C186.626 28.7969 187.548 29.7189 187.548 30.8559C187.547 31.9929 186.626 32.9149 185.489 32.9149Z" fill="white"/>
<path d="M185.489 49.5985H86.4027C85.2657 49.5985 84.3438 48.6765 84.3438 47.5395C84.3438 46.4025 85.2657 45.4805 86.4027 45.4805H185.489C186.626 45.4805 187.548 46.4025 187.548 47.5395C187.547 48.6765 186.626 49.5985 185.489 49.5985Z" fill="white"/>
<path d="M156.566 57.9383H86.4027C85.2657 57.9383 84.3438 57.0163 84.3438 55.8793C84.3438 54.7423 85.2657 53.8203 86.4027 53.8203H156.566C157.703 53.8203 158.625 54.7423 158.625 55.8793C158.625 57.0163 157.703 57.9383 156.566 57.9383Z" fill="white"/>
<path d="M155.057 79.3008L170.443 90.3448C171.87 91.3688 173.858 90.3488 173.858 88.5918V79.3008H155.057Z" fill="#044D3A"/>
<path d="M10.007 188.055H193.563C199.09 188.055 203.57 183.575 203.57 178.048V118.761C203.57 113.234 199.09 108.754 193.563 108.754H10.007C4.47999 108.754 0 113.234 0 118.761V178.048C0 183.574 4.48099 188.055 10.007 188.055Z" fill="#044D3A"/>
<path d="M131.68 108.754H193.563C199.09 108.754 203.57 113.234 203.57 118.761V178.048C203.57 183.575 199.09 188.055 193.563 188.055H131.68V108.754Z" fill="#5FCC00"/>
<path d="M173.006 146.879C180.105 143.909 183.451 135.746 180.481 128.648C177.511 121.549 169.348 118.202 162.25 121.173C155.151 124.143 151.804 132.305 154.775 139.404C157.745 146.503 165.907 149.849 173.006 146.879Z" fill="white"/>
<path d="M165.087 135.4C165.332 135.4 165.651 135.466 166.046 135.597C166.31 135.672 166.526 135.729 166.695 135.766C166.977 135.822 167.287 135.851 167.626 135.851C167.965 135.851 168.275 135.823 168.557 135.766C168.726 135.729 168.943 135.672 169.206 135.597C169.601 135.466 169.921 135.4 170.165 135.4C170.842 135.4 171.472 135.569 172.055 135.908C172.638 136.247 173.099 136.708 173.437 137.29C173.776 137.873 173.945 138.503 173.945 139.18V139.913C173.945 140.289 173.814 140.609 173.55 140.872C173.287 141.135 172.967 141.267 172.591 141.267H162.661C162.285 141.267 161.965 141.135 161.702 140.872C161.439 140.608 161.307 140.289 161.307 139.913V139.18C161.307 138.503 161.476 137.873 161.815 137.29C162.154 136.707 162.614 136.246 163.197 135.908C163.78 135.569 164.41 135.4 165.087 135.4ZM167.626 134.948C166.892 134.948 166.215 134.765 165.595 134.398C164.974 134.031 164.481 133.538 164.114 132.917C163.747 132.296 163.564 131.619 163.564 130.886C163.564 130.153 163.747 129.476 164.114 128.855C164.481 128.234 164.974 127.741 165.595 127.374C166.216 127.007 166.893 126.824 167.626 126.824C168.359 126.824 169.036 127.007 169.657 127.374C170.278 127.741 170.771 128.234 171.138 128.855C171.505 129.476 171.688 130.153 171.688 130.886C171.688 131.62 171.505 132.297 171.138 132.917C170.771 133.538 170.278 134.031 169.657 134.398C169.036 134.765 168.36 134.948 167.626 134.948Z" fill="#044D3A"/>
<path d="M140.532 154.672H194.718C195.855 154.672 196.777 155.594 196.777 156.731C196.777 157.868 195.855 158.79 194.718 158.79H140.532C139.395 158.79 138.473 157.868 138.473 156.731C138.473 155.593 139.395 154.672 140.532 154.672Z" fill="white"/>
<path d="M140.532 163.625H194.718C195.855 163.625 196.777 164.547 196.777 165.683C196.777 166.82 195.855 167.742 194.718 167.742H140.532C139.395 167.742 138.473 166.82 138.473 165.683C138.473 164.546 139.395 163.625 140.532 163.625Z" fill="white"/>
<path d="M140.532 172.578H194.718C195.855 172.578 196.777 173.5 196.777 174.637C196.777 175.774 195.855 176.696 194.718 176.696H140.532C139.395 176.696 138.473 175.774 138.473 174.637C138.473 173.5 139.395 172.578 140.532 172.578Z" fill="white"/>
<path d="M117.167 150.251H18.0825C16.9455 150.251 16.0234 149.329 16.0234 148.192C16.0234 147.055 16.9455 146.133 18.0825 146.133H117.168C118.305 146.133 119.227 147.055 119.227 148.192C119.226 149.329 118.304 150.251 117.167 150.251Z" fill="white"/>
<path d="M117.167 133.567H18.0825C16.9455 133.567 16.0234 132.645 16.0234 131.508C16.0234 130.371 16.9455 129.449 18.0825 129.449H117.168C118.305 129.449 119.227 130.371 119.227 131.508C119.226 132.646 118.304 133.567 117.167 133.567Z" fill="white"/>
<path d="M117.167 141.911H18.0825C16.9455 141.911 16.0234 140.989 16.0234 139.852C16.0234 138.715 16.9455 137.793 18.0825 137.793H117.168C118.305 137.793 119.227 138.715 119.227 139.852C119.226 140.99 118.304 141.911 117.167 141.911Z" fill="white"/>
<path d="M117.167 158.595H18.0825C16.9455 158.595 16.0234 157.673 16.0234 156.536C16.0234 155.399 16.9455 154.477 18.0825 154.477H117.168C118.305 154.477 119.227 155.399 119.227 156.536C119.226 157.673 118.304 158.595 117.167 158.595Z" fill="white"/>
<path d="M88.2455 166.934H18.0825C16.9455 166.934 16.0234 166.012 16.0234 164.875C16.0234 163.738 16.9455 162.816 18.0825 162.816H88.2455C89.3825 162.816 90.3044 163.738 90.3044 164.875C90.3034 166.013 89.3825 166.934 88.2455 166.934Z" fill="white"/>
<path d="M48.5149 188.055L33.1279 199.099C31.7009 200.123 29.7129 199.103 29.7129 197.346V188.055H48.5149Z" fill="#044D3A"/>
</svg>
