<svg width="20" height="20" viewBox="0 0 20 20" fill="none" xmlns="http://www.w3.org/2000/svg">
<path d="M0.404007 6.7425L8.62234 11.6733C9.04734 11.9283 9.52317 12.0558 9.99984 12.0558C10.4765 12.0558 10.9523 11.9283 11.3773 11.6733L19.5948 6.7425C19.8457 6.59167 19.999 6.32083 19.999 6.02833C19.999 5.73583 19.8457 5.46417 19.5948 5.31417L11.3773 0.3825C10.5273 -0.1275 9.47151 -0.1275 8.62151 0.3825L0.404007 5.31333C0.153174 5.46417 -0.000159272 5.735 -0.000159272 6.0275C-0.000159272 6.32 0.153174 6.59167 0.404007 6.74167V6.7425ZM10.5198 10.2442C10.199 10.4367 9.79984 10.4367 9.47901 10.2442L6.87484 8.68167L9.99901 6.8075L13.1223 8.68167L10.519 10.2433L10.5198 10.2442ZM14.7432 7.71L11.6198 5.83583L14.4232 4.15417L17.5465 6.02833L14.7432 7.71ZM9.47984 1.81167C9.80067 1.62 10.199 1.62 10.5198 1.81167L12.8032 3.18167L9.99984 4.86417L7.19651 3.18167L9.47984 1.81167ZM5.57651 4.15417L8.37984 5.83583L5.25651 7.71L2.45317 6.02833L5.57651 4.15417ZM0.119007 9.24417C0.354841 8.84833 0.866507 8.72167 1.26234 8.95833L9.47984 13.8892C9.80067 14.0808 10.1998 14.0808 10.5207 13.8892L18.7382 8.95833C19.1332 8.72167 19.6448 8.84917 19.8815 9.24417C20.1182 9.63917 19.9907 10.1508 19.5957 10.3875L11.3782 15.3183C10.9532 15.5733 10.4765 15.7008 10.0007 15.7008C9.52484 15.7008 9.04817 15.5733 8.62317 15.3183L0.404007 10.3875C0.0090074 10.1508 -0.118493 9.63917 0.118174 9.24417H0.119007ZM19.8815 12.8233C20.1182 13.2183 19.9907 13.73 19.5957 13.9667L11.3782 18.8975C10.9532 19.1533 10.4765 19.28 10.0007 19.28C9.52484 19.28 9.04734 19.1533 8.62234 18.8975L0.404007 13.9667C0.0090074 13.73 -0.118493 13.2183 0.118174 12.8233C0.354007 12.4283 0.865674 12.3 1.26151 12.5375L9.47901 17.4683C9.79984 17.66 10.199 17.66 10.519 17.4683L18.7373 12.5375C19.1323 12.3008 19.6448 12.4283 19.8815 12.8233Z" fill="#757575"/>
</svg>
