<svg width="240" height="240" viewBox="0 0 240 240" fill="none" xmlns="http://www.w3.org/2000/svg">
<path d="M198.343 118.73C198.343 121.232 196.314 123.261 193.812 123.261C191.31 123.261 189.281 121.232 189.281 118.73C189.281 116.228 191.31 114.199 193.812 114.199C196.314 114.199 198.343 116.227 198.343 118.73Z" fill="#EBEBEB"/>
<path d="M183.77 122.139C185.654 120.254 185.654 117.199 183.769 115.314C181.885 113.429 178.829 113.429 176.944 115.314C175.059 117.199 175.059 120.254 176.944 122.139C178.829 124.024 181.885 124.024 183.77 122.139Z" fill="#EBEBEB"/>
<path d="M170.018 115.312C172.847 115.312 175.141 113.019 175.141 110.189C175.141 107.36 172.847 105.066 170.018 105.066C167.188 105.066 164.895 107.36 164.895 110.189C164.895 113.019 167.188 115.312 170.018 115.312Z" fill="#EBEBEB"/>
<path d="M173.194 98.0068C173.717 95.0979 171.782 92.3165 168.873 91.7943C165.964 91.2721 163.183 93.2069 162.66 96.1158C162.138 99.0247 164.073 101.806 166.982 102.328C169.891 102.851 172.672 100.916 173.194 98.0068Z" fill="#EBEBEB"/>
<path d="M174.471 91.0992C177.526 91.0992 180.002 88.6233 180.002 85.5691C180.002 82.515 177.526 80.0391 174.471 80.0391C171.417 80.0391 168.941 82.515 168.941 85.5691C168.941 88.6233 171.417 91.0992 174.471 91.0992Z" fill="#EBEBEB"/>
<path d="M189.396 86.5988C192.468 85.3153 193.917 81.7851 192.633 78.7139C191.35 75.6426 187.82 74.1933 184.749 75.4768C181.677 76.7603 180.228 80.2905 181.511 83.3618C182.795 86.433 186.325 87.8823 189.396 86.5988Z" fill="#EBEBEB"/>
<path d="M208.081 111.083C208.634 108.73 207.175 106.374 204.822 105.821C202.469 105.268 200.114 106.727 199.56 109.08C199.007 111.432 200.466 113.788 202.819 114.342C205.172 114.895 207.527 113.436 208.081 111.083Z" fill="#EBEBEB"/>
<path d="M207.608 100.72C209.703 99.9178 210.751 97.5692 209.949 95.4742C209.147 93.3793 206.798 92.3313 204.703 93.1335C202.608 93.9356 201.56 96.2842 202.363 98.3792C203.165 100.474 205.513 101.522 207.608 100.72Z" fill="#EBEBEB"/>
<path d="M203.055 86.0194C203.382 83.9966 202.008 82.0914 199.985 81.7639C197.962 81.4365 196.057 82.8108 195.73 84.8336C195.402 86.8563 196.776 88.7616 198.799 89.089C200.822 89.4165 202.727 88.0422 203.055 86.0194Z" fill="#EBEBEB"/>
<path fill-rule="evenodd" clip-rule="evenodd" d="M68.2838 63.6165C69.4008 64.8103 70.3382 66.1351 71.0846 67.5482L75.5601 67.5309L77.2233 74.7472L73.1918 76.6917C73.14 78.2887 72.8779 79.8904 72.3955 81.4538L75.5717 84.6055L71.6448 90.8839L67.4213 89.4088C66.2275 90.5272 64.9017 91.4637 63.4886 92.2091L63.5054 96.6856L56.2901 98.3488L54.3451 94.3173C52.7481 94.265 51.1469 94.0024 49.583 93.5195L46.4318 96.6957L40.152 92.7693L41.6275 88.5453C40.5091 87.3515 39.5731 86.0267 38.8272 84.6131L34.3507 84.6299L32.6875 77.4136L36.72 75.4696C36.7723 73.8727 37.0349 72.2714 37.5168 70.708L34.3416 67.5563L38.268 61.2775L42.4915 62.753C43.6853 61.6346 45.011 60.6976 46.4241 59.9522L46.4073 55.4757L53.6227 53.8125L55.5672 57.8445C57.1641 57.8963 58.7654 58.1589 60.3293 58.6413L63.4805 55.4656L69.7589 59.3915L68.2838 63.6165ZM59.4528 69.5239C55.7333 67.1978 50.8315 68.3272 48.5049 72.0477C46.1789 75.7677 47.3093 80.6695 51.0283 82.9951C54.7488 85.3211 59.6496 84.1912 61.9761 80.4717C64.3027 76.7512 63.1733 71.8504 59.4528 69.5239Z" fill="#E0E0E0"/>
<path fill-rule="evenodd" clip-rule="evenodd" d="M72.6458 33.2643C73.2641 33.9252 73.7829 34.6587 74.1962 35.4411L76.674 35.4315L77.5946 39.4265L75.3626 40.5031C75.3338 41.3873 75.1889 42.2743 74.9215 43.1398L76.6797 44.8846L74.5053 48.3607L72.1668 47.5443C71.5058 48.1635 70.7719 48.6819 69.9895 49.0947L69.9991 51.5729L66.0045 52.494L64.9279 50.262C64.0437 50.2332 63.1572 50.0878 62.2917 49.8204L60.5469 51.5791L57.0703 49.4052L57.8873 47.0667C57.2681 46.4057 56.7497 45.6723 56.3369 44.8894L53.8586 44.8985L52.9375 40.903L55.17 39.8268C55.1988 38.9427 55.3447 38.0561 55.6111 37.1907L53.8529 35.4459L56.0268 31.9692L58.3653 32.7862C59.0263 32.167 59.7602 31.6481 60.5426 31.2353L60.533 28.7571L64.5276 27.8359L65.6042 30.0684C66.4884 30.0972 67.3749 30.2427 68.2409 30.5095L69.9857 28.7513L73.4618 30.9247L72.6458 33.2643ZM67.7565 36.535C65.6973 35.2471 62.9834 35.8726 61.6956 37.9323C60.4077 39.9919 61.0337 42.7054 63.0929 43.9932C65.1525 45.2811 67.866 44.6556 69.1538 42.5959C70.4417 40.5363 69.8162 37.8228 67.7565 36.535Z" fill="#E0E0E0"/>
<path d="M37.8846 40.6473C37.8885 40.6405 37.9571 40.6789 38.0843 40.7591C38.213 40.8364 38.3915 40.9713 38.595 41.1729C38.9987 41.566 39.5104 42.2951 39.6198 43.3353C39.6702 43.8479 39.6237 44.4311 39.399 45.0013C39.1739 45.5658 38.8024 46.1332 38.2537 46.5546C37.9864 46.7721 37.6758 46.9492 37.3403 47.0812C37.0062 47.218 36.6429 47.3044 36.2685 47.3293C35.5192 47.3961 34.7262 47.2031 34.047 46.7865C33.3745 46.3583 32.8538 45.7295 32.5859 45.0263C32.4443 44.6783 32.3632 44.3135 32.3397 43.9535C32.3114 43.594 32.3349 43.2369 32.4131 42.9013C32.5518 42.2231 32.8989 41.6409 33.3083 41.1911C33.723 40.7399 34.2266 40.4423 34.7099 40.2633C35.693 39.9066 36.5728 40.0468 37.1027 40.2378C37.373 40.3324 37.5726 40.4341 37.6979 40.5157C37.8242 40.5959 37.889 40.641 37.8846 40.6473C37.8717 40.6708 37.6096 40.4879 37.0744 40.3223C36.5488 40.161 35.6978 40.053 34.7651 40.4135C34.3067 40.5945 33.832 40.8849 33.4451 41.3188C33.063 41.7513 32.7405 42.3052 32.6157 42.9455C32.5442 43.2623 32.5249 43.5988 32.5537 43.9372C32.5777 44.2761 32.656 44.6188 32.7909 44.9452C33.0458 45.6052 33.5349 46.1927 34.1661 46.5954C34.8045 46.9861 35.5466 47.169 36.2512 47.109C36.6035 47.0874 36.9457 47.0077 37.2611 46.881C37.5779 46.7591 37.8717 46.5945 38.1251 46.3914C38.6464 45.9993 39.003 45.4665 39.2243 44.9337C39.4446 44.3961 39.4984 43.8421 39.4605 43.3506C39.3765 42.3541 38.907 41.6361 38.5312 41.2343C38.1482 40.8249 37.8688 40.6689 37.8846 40.6473Z" fill="#E0E0E0"/>
<path d="M41.8468 37.9987C41.8439 37.9992 41.855 37.9589 41.8799 37.8782C41.9092 37.7885 41.9476 37.6689 41.9966 37.5168C42.1079 37.1846 42.2673 36.7085 42.4737 36.0917L42.4886 36.1339C41.7638 35.687 40.8119 35.1 39.6609 34.3905L39.7319 34.3824C39.3052 34.8158 38.8314 35.2977 38.3246 35.8133L38.2967 35.8416L38.2578 35.8301C37.6127 35.6337 36.898 35.5056 36.1391 35.4835L36.0945 35.4821L36.0748 35.4413C35.8012 34.8782 35.505 34.2691 35.1969 33.635L35.2871 33.6782C34.2686 33.9158 33.1871 34.1678 32.0524 34.4328L32.1215 34.3459C32.1254 34.9675 32.1292 35.652 32.1335 36.3537L32.134 36.4104L32.0841 36.4368C31.4956 36.7483 30.8879 37.1678 30.3431 37.6819L30.3004 37.7222L30.2442 37.703C29.6567 37.499 29.0087 37.2734 28.3487 37.0445L28.4673 37.0027C27.9153 37.8883 27.3201 38.843 26.71 39.8217L26.6951 39.6917C27.1391 40.1313 27.6268 40.6147 28.1212 41.1038L28.1673 41.1494L28.1481 41.2113C27.9508 41.8517 27.8202 42.5784 27.7972 43.3195L27.7953 43.3853L27.7358 43.4141C27.1694 43.6877 26.5516 43.9862 25.9276 44.2877L25.9871 44.1633C26.2238 45.1881 26.4777 46.2864 26.735 47.4L26.625 47.3131C27.2591 47.3107 27.9436 47.3078 28.6334 47.3049L28.7015 47.3045L28.7332 47.3649C29.0495 47.9654 29.469 48.5683 29.9711 49.103L29.9716 49.1035L29.9721 49.104C29.9831 49.1553 29.9481 48.9897 29.9966 49.2187L29.9961 49.2206L29.9946 49.2245L29.9922 49.2321L29.987 49.247L29.9764 49.2768L29.9553 49.3363L29.9135 49.4553L29.8305 49.6934L29.6644 50.1686C29.554 50.4849 29.4441 50.7998 29.3342 51.1133L29.2876 50.9808C30.2394 51.5765 31.1783 52.164 32.1042 52.7429L31.9655 52.7592C32.4417 52.2797 32.913 51.8049 33.3796 51.335L33.4271 51.2875L33.491 51.3072C34.1817 51.5208 34.8926 51.6379 35.5977 51.6614L35.6639 51.6638L35.6927 51.7233C35.9874 52.3353 36.2774 52.9377 36.5634 53.5325L36.4425 53.4744C37.5474 53.2209 38.6274 52.9733 39.6801 52.7318L39.5994 52.8336C39.598 52.1525 39.5961 51.4829 39.5946 50.8257V50.7643L39.6489 50.736C40.2959 50.3957 40.882 49.9752 41.3932 49.4981L41.4364 49.4577L41.4921 49.4774C42.1415 49.7054 42.7708 49.9267 43.3857 50.1427L43.2753 50.1816C43.8974 49.1923 44.4844 48.2582 45.0431 47.3693L45.0556 47.4763C44.5559 46.9776 44.087 46.5101 43.6348 46.0589L43.5998 46.0238L43.6142 45.9773C43.8417 45.2462 43.9497 44.5382 43.9746 43.8629L43.9766 43.8177L44.0169 43.7985C44.6754 43.4841 45.2682 43.2009 45.8284 42.9331L45.7919 43.007C45.5092 41.7518 45.2682 40.6824 45.0618 39.7665L45.1113 39.8059C44.3097 39.803 43.6521 39.8011 43.1034 39.7992H43.0814L43.0713 39.78C42.7343 39.1329 42.4079 38.6971 42.1862 38.4149C42.0767 38.2819 41.9927 38.1797 41.9303 38.1033C41.8703 38.0328 41.8439 37.9992 41.8468 37.9987C41.8497 37.9982 41.8833 38.0299 41.9442 38.0909C42.0057 38.1552 42.0983 38.2531 42.215 38.3909C42.4468 38.6664 42.7852 39.0984 43.1351 39.7454L43.103 39.7262C43.6516 39.7205 44.3092 39.7133 45.1108 39.7041L45.1511 39.7037L45.1607 39.7435C45.3762 40.6574 45.6273 41.7249 45.9225 42.9768L45.9345 43.0286L45.886 43.0521C45.3278 43.3238 44.7369 43.6118 44.0807 43.931L44.1225 43.8667C44.1018 44.5545 43.9962 45.2769 43.7682 46.0243L43.7481 45.9427C44.2026 46.3915 44.674 46.8571 45.1766 47.3529L45.2255 47.4014L45.189 47.4605C44.6342 48.3523 44.051 49.2888 43.4337 50.2809L43.3943 50.3443L43.3233 50.3198C42.7079 50.1062 42.0772 49.8873 41.4273 49.6617L41.5262 49.6406C41.0039 50.1317 40.4044 50.5646 39.7425 50.915L39.7962 50.8253C39.7996 51.4829 39.803 52.152 39.8063 52.8331L39.8068 52.9161L39.7257 52.9349C38.6735 53.1787 37.5945 53.4288 36.49 53.6846L36.4065 53.7038L36.369 53.6265C36.0815 53.0323 35.7906 52.4304 35.495 51.8189L35.59 51.8808C34.8657 51.8577 34.1346 51.7382 33.4247 51.5193L33.5361 51.4915C33.0695 51.9619 32.5986 52.4371 32.1234 52.9171L32.0606 52.9805L31.9847 52.9329C31.0588 52.3545 30.1194 51.7675 29.1671 51.1723L29.0908 51.1243L29.1206 51.0393C29.23 50.7259 29.3399 50.411 29.4503 50.0947L29.6164 49.6195L29.6994 49.3814L29.7412 49.2619L29.7618 49.2024L29.7724 49.1726L29.7777 49.1577L29.7801 49.1505L29.7815 49.1467L29.782 49.1448C29.8305 49.3733 29.7954 49.2081 29.806 49.259L29.8055 49.2585L29.8046 49.2576C29.2886 48.708 28.857 48.0878 28.5326 47.4705L28.6324 47.5305C27.9431 47.5329 27.2586 47.5353 26.6241 47.5377L26.5343 47.5382L26.5142 47.4509C26.2578 46.3373 26.0054 45.2385 25.7697 44.2133L25.75 44.1269L25.8297 44.0885C26.4542 43.788 27.0724 43.4904 27.6393 43.2177L27.5774 43.3123C27.6018 42.551 27.7377 41.8051 27.9412 41.1485L27.9681 41.256C27.4751 40.7654 26.9884 40.2816 26.5454 39.8409L26.4858 39.7814L26.5305 39.7104C27.1434 38.7336 27.741 37.7798 28.2954 36.8961L28.3382 36.828L28.414 36.8544C29.0735 37.0857 29.7206 37.3133 30.3076 37.5192L30.2092 37.5403C30.7694 37.0161 31.3929 36.5885 31.9962 36.2726L31.9463 36.3552C31.9454 35.6534 31.9439 34.9689 31.943 34.3473V34.2758L32.0121 34.26C33.1482 34.0013 34.2306 33.7545 35.2506 33.5222L35.3135 33.5078L35.3414 33.5654C35.6457 34.2009 35.938 34.8125 36.2082 35.3769L36.1439 35.3352C36.9167 35.363 37.643 35.4989 38.2972 35.7033L38.2314 35.7206C38.7426 35.2099 39.2212 34.7323 39.6513 34.3022L39.6839 34.2696L39.7223 34.2941C40.8642 35.0184 41.8084 35.6169 42.5274 36.0734L42.5519 36.0893L42.5423 36.1161C42.3225 36.7214 42.1526 37.1885 42.034 37.5149C41.9769 37.667 41.9322 37.7861 41.8986 37.8758C41.8674 37.9565 41.8502 37.9982 41.8468 37.9987Z" fill="#E0E0E0"/>
<path d="M156.747 20.0031L142.635 19.9383C140.743 19.9297 139.201 21.5266 139.193 23.5047L139.182 26.0646C139.174 28.0431 137.632 29.6401 135.74 29.6314L108.231 29.5042C106.339 29.4956 104.811 27.8847 104.82 25.9062L104.831 23.3463C104.839 21.3678 103.311 19.7564 101.419 19.7482L96.4556 19.7252L84.1037 19.6681C77.9693 19.6402 72.974 24.591 72.9481 30.7258L72.1954 208.844C72.1695 214.976 77.1173 219.967 83.2484 219.996L155.893 220.331C162.026 220.359 167.022 215.408 167.048 209.273L167.801 31.155C167.826 25.0234 162.878 20.0319 156.747 20.0031Z" fill="white"/>
<path d="M156.749 20.005C156.749 20.005 156.877 20.0079 157.129 20.0194C157.381 20.0448 157.763 20.0175 158.255 20.113C159.238 20.2339 160.733 20.5603 162.412 21.5707C163.26 22.0536 164.121 22.7477 164.935 23.6338C165.745 24.5213 166.497 25.6296 167.033 26.9559C167.577 28.2778 167.867 29.8195 167.845 31.464C167.839 33.1037 167.834 34.8495 167.828 36.6989C167.775 51.4954 167.698 72.9024 167.603 99.3538C167.499 125.807 167.375 157.304 167.237 192.278C167.219 196.65 167.201 201.076 167.183 205.554C167.179 206.673 167.174 207.796 167.169 208.921C167.152 210.048 167.075 211.205 166.731 212.299C166.407 213.394 165.949 214.461 165.304 215.415C164.661 216.369 163.88 217.23 162.986 217.966C161.18 219.404 158.92 220.316 156.581 220.422C155.995 220.461 155.417 220.453 154.838 220.449L153.097 220.441C151.935 220.436 150.771 220.431 149.604 220.426C144.933 220.404 140.218 220.383 135.461 220.362C125.946 220.319 116.263 220.274 106.436 220.23C101.523 220.207 96.5736 220.185 91.5912 220.162C89.1 220.15 86.6007 220.139 84.0936 220.127C81.5789 220.245 78.9812 219.572 76.8874 218.106C74.785 216.651 73.238 214.457 72.5218 212.026C72.1364 210.813 72.0697 209.523 72.0745 208.276C72.0797 207.026 72.085 205.778 72.0903 204.532C72.1114 199.548 72.1325 194.597 72.1536 189.683C72.1959 179.853 72.2372 170.167 72.2784 160.65C72.3615 141.616 72.4416 123.256 72.518 105.767C72.5957 88.2768 72.6701 71.6573 72.7392 56.1034C72.7748 48.3264 72.8088 40.8159 72.8415 33.5967C72.8458 32.6943 72.8496 31.7962 72.854 30.9029C72.8621 30.4555 72.8957 30.0048 72.9217 29.5584C73.0013 29.1178 73.0373 28.6695 73.1535 28.2384C73.5658 26.5051 74.3751 24.8842 75.5031 23.5522C76.6392 22.2274 78.0615 21.1791 79.6253 20.4965C81.1882 19.7986 82.9013 19.5571 84.5564 19.584C87.8631 19.6008 91.0906 19.6171 94.2365 19.633C95.8095 19.6411 97.3618 19.6488 98.8935 19.657C99.6591 19.6608 100.42 19.6647 101.175 19.6685C101.936 19.6339 102.724 19.8451 103.347 20.2843C103.969 20.7235 104.447 21.3543 104.691 22.0637C104.971 22.7741 104.901 23.5397 104.906 24.2511C104.905 24.6125 104.903 24.973 104.901 25.332C104.901 25.692 104.886 26.0496 104.932 26.3933C105.018 27.0845 105.307 27.7479 105.758 28.2653C106.2 28.7909 106.807 29.1672 107.461 29.3319C107.79 29.4154 108.121 29.4403 108.466 29.4351C108.808 29.437 109.149 29.4384 109.489 29.4403C110.847 29.4475 112.184 29.4543 113.497 29.4615C118.751 29.4893 123.639 29.5157 128.14 29.5397C130.39 29.5522 132.543 29.5637 134.596 29.5747C135.106 29.568 135.623 29.6021 136.11 29.5613C136.6 29.5075 137.069 29.34 137.476 29.0866C138.297 28.5802 138.855 27.7373 139.047 26.8469C139.151 26.4015 139.135 25.9469 139.139 25.4962C139.141 25.0469 139.144 24.6039 139.146 24.168C139.153 23.7346 139.129 23.2987 139.209 22.8749C139.284 22.4535 139.428 22.0517 139.631 21.6903C140.033 20.9631 140.683 20.4149 141.405 20.1346C142.132 19.8211 142.906 19.92 143.607 19.908C146.453 19.9258 148.862 19.9411 150.81 19.9531C152.756 19.9675 154.24 19.9786 155.24 19.9858C156.238 19.9939 156.749 20.005 156.749 20.005C156.749 20.005 156.238 20.0112 155.24 20.0107C154.24 20.0088 152.756 20.0064 150.81 20.0026C148.862 19.9968 146.453 19.9896 143.607 19.9815C142.899 19.9949 142.14 19.9008 141.434 20.208C140.731 20.4835 140.097 21.0197 139.706 21.7311C139.509 22.0843 139.368 22.477 139.297 22.8888C139.219 23.2992 139.244 23.7303 139.237 24.1671C139.236 24.6034 139.235 25.0459 139.233 25.4952C139.229 25.9411 139.247 26.4072 139.141 26.8661C138.947 27.7805 138.375 28.6488 137.53 29.172C137.111 29.4341 136.626 29.6079 136.121 29.6645C135.61 29.7072 135.11 29.6731 134.595 29.6813C132.542 29.6736 130.389 29.6655 128.139 29.6568C123.638 29.6391 118.749 29.6199 113.496 29.5997C112.182 29.5944 110.846 29.5891 109.488 29.5834C109.148 29.5819 108.807 29.5805 108.465 29.5791C108.125 29.5853 107.764 29.5603 107.425 29.473C106.741 29.3016 106.106 28.9085 105.645 28.3613C105.174 27.8218 104.871 27.1311 104.781 26.4111C104.733 26.0477 104.749 25.6867 104.748 25.3301C104.749 24.9711 104.751 24.6111 104.752 24.2491C104.746 23.5258 104.812 22.7914 104.543 22.1146C104.308 21.4349 103.85 20.832 103.255 20.4135C102.655 19.9949 101.922 19.7952 101.173 19.8283C100.418 19.825 99.6576 19.8221 98.892 19.8187C97.3604 19.8125 95.8081 19.8058 94.2351 19.7995C91.0892 19.7866 87.8616 19.7731 84.5549 19.7592C82.9114 19.7347 81.2362 19.9728 79.6964 20.6611C78.1589 21.3341 76.7602 22.3666 75.6437 23.6703C74.5354 24.9816 73.7415 26.5757 73.3373 28.2797C73.2231 28.7031 73.189 29.1442 73.1103 29.5771C73.0858 30.0173 73.0522 30.456 73.0445 30.9019C73.0412 31.7952 73.0378 32.6933 73.034 33.5957C73.0056 40.8154 72.9764 48.3259 72.9461 56.1024C72.8837 71.6563 72.8175 88.2759 72.7479 105.766C72.6764 123.255 72.601 141.615 72.5233 160.649C72.4834 170.166 72.4431 179.852 72.4023 189.682C72.3817 194.596 72.361 199.548 72.3399 204.531C72.3346 205.777 72.3293 207.025 72.324 208.275C72.3197 209.52 72.3841 210.764 72.7613 211.955C73.4617 214.331 74.9741 216.477 77.03 217.9C79.0858 219.333 81.5972 219.99 84.0941 219.876C86.6012 219.887 89.1005 219.899 91.5917 219.91C96.5741 219.933 101.523 219.956 106.437 219.979C116.264 220.025 125.946 220.07 135.461 220.115C140.219 220.138 144.934 220.16 149.604 220.182C150.771 220.188 151.936 220.193 153.098 220.199L154.838 220.207C155.418 220.211 155.998 220.219 156.567 220.181C158.857 220.078 161.067 219.185 162.836 217.778C163.711 217.059 164.475 216.216 165.105 215.282C165.738 214.349 166.186 213.304 166.503 212.233C166.84 211.159 166.915 210.037 166.933 208.92C166.938 207.794 166.943 206.671 166.948 205.552C166.968 201.074 166.987 196.648 167.006 192.277C167.164 157.303 167.306 125.805 167.426 99.3523C167.555 72.901 167.659 51.4939 167.731 36.6979C167.74 34.8485 167.75 33.1027 167.759 31.4631C167.785 29.8263 167.5 28.2984 166.964 26.9832C166.436 25.6647 165.692 24.5607 164.888 23.6755C164.082 22.7919 163.228 22.0978 162.385 21.6139C160.719 20.6011 159.231 20.2671 158.251 20.1384C157.761 20.0391 157.38 20.0626 157.129 20.0328C156.877 20.0165 156.749 20.005 156.749 20.005Z" fill="#263238"/>
<path d="M143.705 76.0906L142.614 74.7955L145.861 73.056L130.785 67.9531L135.888 82.5653L137.743 80.1298C137.743 80.1298 147.498 97.2955 137.743 107.731C128.055 118.094 116.637 115.848 116.637 115.848L118.84 123.039C118.84 123.039 136.815 124.315 146.441 108.079C156.066 91.8432 143.705 76.0906 143.705 76.0906Z" fill="#044D3A"/>
<path d="M98.498 112.105L99.589 113.4L96.3418 115.14L111.418 120.243L106.315 105.63L104.46 108.066C104.46 108.066 94.7046 90.9002 104.46 80.465C114.147 70.1018 125.566 72.3467 125.566 72.3467L123.362 65.1563C123.362 65.1563 105.387 63.8805 95.7615 80.1165C86.1366 96.3525 98.498 112.105 98.498 112.105Z" fill="#044D3A"/>
<path d="M143.705 76.0906L142.614 74.7955L145.861 73.056L130.785 67.9531L135.888 82.5653L137.743 80.1298C137.743 80.1298 147.498 97.2955 137.743 107.731C128.055 118.094 116.637 115.848 116.637 115.848L118.84 123.039C118.84 123.039 136.815 124.315 146.441 108.079C156.066 91.8432 143.705 76.0906 143.705 76.0906Z" fill="#044D3A"/>
<path d="M98.498 112.105L99.589 113.4L96.3418 115.14L111.418 120.243L106.315 105.63L104.46 108.066C104.46 108.066 94.7046 90.9002 104.46 80.465C114.147 70.1018 125.566 72.3467 125.566 72.3467L123.362 65.1563C123.362 65.1563 105.387 63.8805 95.7615 80.1165C86.1366 96.3525 98.498 112.105 98.498 112.105Z" fill="#044D3A"/>
<g opacity="0.8">
<path d="M143.705 76.0906L142.614 74.7955L145.861 73.056L130.785 67.9531L135.888 82.5653L137.743 80.1298C137.743 80.1298 147.498 97.2955 137.743 107.731C128.055 118.094 116.637 115.848 116.637 115.848L118.84 123.039C118.84 123.039 136.815 124.315 146.441 108.079C156.066 91.8432 143.705 76.0906 143.705 76.0906Z" fill="white"/>
</g>
<g opacity="0.8">
<path d="M98.498 112.105L99.589 113.4L96.3418 115.14L111.418 120.243L106.315 105.63L104.46 108.066C104.46 108.066 94.7046 90.9002 104.46 80.465C114.147 70.1018 125.566 72.3467 125.566 72.3467L123.362 65.1563C123.362 65.1563 105.387 63.8805 95.7615 80.1165C86.1366 96.3525 98.498 112.105 98.498 112.105Z" fill="white"/>
</g>
<path fill-rule="evenodd" clip-rule="evenodd" d="M129.697 85.5722C130.42 86.345 131.027 87.2027 131.51 88.1171L134.407 88.1061L135.484 92.777L132.874 94.0355C132.841 95.0694 132.671 96.1062 132.359 97.1181L134.415 99.1581L131.873 103.222L129.138 102.267C128.366 102.991 127.508 103.597 126.593 104.08L126.604 106.977L121.934 108.054L120.675 105.445C119.641 105.411 118.604 105.241 117.593 104.928L115.553 106.984L111.488 104.442L112.444 101.708C111.72 100.936 111.114 100.078 110.631 99.1629L107.733 99.1739L106.656 94.503L109.266 93.2445C109.3 92.2106 109.47 91.1742 109.782 90.1624L107.727 88.1224L110.268 84.0582L113.002 85.0134C113.775 84.2896 114.633 83.6834 115.547 83.2005L115.536 80.3032L120.207 79.2266L121.465 81.8363C122.499 81.8699 123.535 82.0398 124.548 82.3523L126.587 80.2965L130.651 82.8376L129.697 85.5722ZM123.981 89.3963C121.573 87.8906 118.4 88.6216 116.895 91.0298C115.389 93.4374 116.12 96.6102 118.528 98.116C120.936 99.6218 124.109 98.8902 125.614 96.4826C127.12 94.0744 126.389 90.9021 123.981 89.3963Z" fill="#044D3A"/>
<g opacity="0.6">
<path fill-rule="evenodd" clip-rule="evenodd" d="M123.982 89.3963C121.575 87.8906 118.402 88.6216 116.896 91.0298C115.39 93.4374 116.122 96.6102 118.53 98.116C120.938 99.6218 124.11 98.8902 125.616 96.4826C127.122 94.0744 126.391 90.9021 123.982 89.3963Z" fill="white"/>
</g>
<path d="M105.449 141.499V138.422H106.017V141.476C106.017 142.75 106.616 143.333 107.659 143.333C108.71 143.333 109.309 142.75 109.309 141.476V138.422H109.861V141.499C109.861 143.041 109.032 143.84 107.659 143.84C106.286 143.84 105.449 143.042 105.449 141.499Z" fill="#263238"/>
<path d="M115.776 140.264C115.776 141.407 114.947 142.098 113.581 142.098H112.138V143.794H111.57V138.422H113.581C114.947 138.422 115.776 139.113 115.776 140.264ZM115.208 140.264C115.208 139.404 114.64 138.913 113.566 138.913H112.138V141.599H113.566C114.64 141.599 115.208 141.108 115.208 140.264Z" fill="#263238"/>
<path d="M117 138.422H119.187C120.906 138.422 122.065 139.527 122.065 141.108C122.065 142.689 120.907 143.794 119.187 143.794H117V138.422ZM119.157 143.303C120.584 143.303 121.505 142.397 121.505 141.108C121.505 139.819 120.584 138.913 119.157 138.913H117.568V143.303H119.157Z" fill="#263238"/>
<path d="M126.63 142.359H123.637L122.993 143.794H122.402L124.858 138.422H125.418L127.874 143.794H127.275L126.63 142.359ZM126.423 141.899L125.134 139.014L123.845 141.899H126.423Z" fill="#263238"/>
<path d="M129.533 138.913H127.645V138.422H131.988V138.913H130.1V143.794H129.532V138.913H129.533Z" fill="#263238"/>
<path d="M136.693 143.303V143.794H132.895V138.422H136.578V138.913H133.463V140.824H136.241V141.308H133.463V143.303H136.693Z" fill="#263238"/>
<path d="M160.96 37.2851C160.961 37.3355 159.015 37.3931 156.616 37.4127C154.215 37.4324 152.27 37.4079 152.27 37.3571C152.269 37.3067 154.214 37.2491 156.614 37.2294C159.014 37.2097 160.96 37.2347 160.96 37.2851Z" fill="#263238"/>
<path d="M160.98 39.5077C160.98 39.5581 159.035 39.6152 156.635 39.6354C154.235 39.6556 152.289 39.6301 152.289 39.5797C152.289 39.5293 154.234 39.4722 156.634 39.452C159.034 39.4324 160.979 39.4573 160.98 39.5077Z" fill="#263238"/>
<path d="M160.996 41.7345C160.996 41.7849 159.051 41.842 156.651 41.8622C154.251 41.8818 152.305 41.8569 152.305 41.8065C152.304 41.7561 154.249 41.699 156.65 41.6788C159.049 41.6586 160.995 41.6841 160.996 41.7345Z" fill="#263238"/>
<path d="M81.9091 44.2714C81.9124 44.268 81.9744 44.2642 82.0896 44.2594C82.2321 44.2546 82.3972 44.2493 82.5921 44.2426C83.0664 44.2315 83.6865 44.2166 84.4478 44.1984L84.3964 44.2507C84.3897 43.8394 84.3825 43.3901 84.3748 42.9053C84.3772 42.6552 84.3532 42.4195 84.3777 42.1306C84.4276 41.8426 84.6844 41.5882 85.0003 41.5584C85.2993 41.5526 85.5628 41.5392 85.8868 41.5541C86.2214 41.5949 86.5056 41.9165 86.4955 42.2707C86.5027 42.8981 86.5099 43.5538 86.5176 44.2334L86.4316 44.149C87.1833 44.1413 87.9662 44.1336 88.7726 44.125L88.6838 44.2157C88.6756 43.273 88.667 42.2976 88.6579 41.2987C88.656 41.0496 88.6536 40.8019 88.6516 40.5557C88.6507 40.3267 88.5115 40.1736 88.3224 40.0027C87.9758 39.6614 87.6345 39.325 87.299 38.9938C86.964 38.663 86.6347 38.3381 86.3116 38.0194C86.1504 37.86 85.991 37.7026 85.8331 37.5466C85.6684 37.3882 85.5393 37.2245 85.3488 37.1851C85.164 37.1352 84.9604 37.1746 84.8116 37.2878C84.67 37.4078 84.5188 37.5773 84.3758 37.7165C84.0873 38.0074 83.8075 38.2901 83.5358 38.5637C83.0073 39.1123 82.4572 39.6139 82.0569 40.0877C81.8884 40.3493 81.9513 40.6699 81.9393 40.9613C81.9388 41.2512 81.9384 41.5267 81.9374 41.7859C81.9345 42.2918 81.9316 42.7349 81.9292 43.1146C81.9254 43.4539 81.9225 43.7347 81.9196 43.9642C81.9172 44.161 81.9134 44.2666 81.9091 44.2714C81.9048 44.2757 81.8995 44.1792 81.8928 43.9901C81.8865 43.764 81.8788 43.488 81.8692 43.1534C81.8606 42.7704 81.8505 42.324 81.839 41.8138C81.8342 41.5493 81.8289 41.2685 81.8236 40.9728C81.8212 40.823 81.8188 40.6694 81.8164 40.5125C81.815 40.3464 81.8577 40.1746 81.9456 40.0224C82.3785 39.4915 82.8955 39.0221 83.4278 38.4571C83.6971 38.1811 83.9755 37.896 84.2611 37.6032C84.4113 37.4558 84.5342 37.309 84.7128 37.1554C84.9 37.0114 85.1572 36.96 85.3915 37.0219C85.6406 37.0766 85.8028 37.2811 85.9536 37.4242C86.112 37.5792 86.2723 37.7362 86.434 37.8946C86.758 38.2118 87.0883 38.5358 87.4243 38.8656C87.7608 39.1958 88.1025 39.5314 88.4496 39.8722C88.5321 39.959 88.631 40.033 88.7112 40.1554C88.787 40.272 88.8302 40.4102 88.834 40.5499C88.8364 40.7971 88.8384 41.0462 88.8408 41.2963C88.8484 42.2952 88.8556 43.2706 88.8628 44.2133L88.8638 44.303L88.774 44.3035C87.9676 44.3088 87.1848 44.3136 86.4331 44.3184L86.3472 44.3189L86.3467 44.2334C86.3433 43.5538 86.34 42.8981 86.3366 42.2707C86.3467 41.988 86.1264 41.7384 85.8638 41.7024C85.5945 41.688 85.2768 41.6976 85.0147 41.7C84.7632 41.7206 84.5529 41.9227 84.5097 42.155C84.4872 42.3902 84.5044 42.6648 84.4996 42.9029C84.4996 43.3877 84.5001 43.837 84.5001 44.2488V44.3016L84.4488 44.3011C83.6745 44.2958 83.0443 44.291 82.5619 44.2877C82.3708 44.2843 82.2096 44.2814 82.0704 44.279C81.9609 44.2776 81.9057 44.2747 81.9091 44.2714Z" fill="#263238"/>
<path d="M139.437 42.3748C139.437 42.4439 132.123 42.4996 123.102 42.4996C114.078 42.4996 106.766 42.4434 106.766 42.3748C106.766 42.3062 114.078 42.25 123.102 42.25C132.123 42.2495 139.437 42.3057 139.437 42.3748Z" fill="#263238"/>
<path d="M138.59 194.078H104.291C99.9104 194.078 96.3594 190.527 96.3594 186.147C96.3594 181.766 99.9104 178.215 104.291 178.215H138.59C142.97 178.215 146.521 181.766 146.521 186.147C146.522 190.527 142.971 194.078 138.59 194.078Z" fill="#044D3A"/>
<path d="M114.895 187.306L115.181 186.67C115.489 186.895 115.947 187.051 116.384 187.051C116.884 187.051 117.087 186.884 117.087 186.66C117.087 185.978 114.968 186.446 114.968 185.092C114.968 184.473 115.468 183.957 116.504 183.957C116.962 183.957 117.431 184.066 117.769 184.28L117.509 184.92C117.171 184.728 116.822 184.634 116.499 184.634C115.999 184.634 115.807 184.822 115.807 185.05C115.807 185.722 117.926 185.259 117.926 186.597C117.926 187.206 117.421 187.727 116.379 187.727C115.8 187.727 115.218 187.556 114.895 187.306Z" fill="white"/>
<path d="M120.25 187.529C120.083 187.649 119.838 187.706 119.588 187.706C118.927 187.706 118.541 187.367 118.541 186.701V185.55H118.109V184.924H118.541V184.242H119.354V184.924H120.051V185.55H119.354V186.69C119.354 186.93 119.484 187.06 119.702 187.06C119.822 187.06 119.942 187.024 120.031 186.956L120.25 187.529Z" fill="white"/>
<path d="M123.188 186.064V187.663H122.428V187.314C122.277 187.569 121.986 187.705 121.574 187.705C120.918 187.705 120.527 187.34 120.527 186.856C120.527 186.362 120.876 186.018 121.73 186.018H122.376C122.376 185.669 122.168 185.466 121.73 185.466C121.434 185.466 121.126 185.565 120.923 185.727L120.632 185.159C120.939 184.94 121.392 184.82 121.84 184.82C122.694 184.82 123.188 185.216 123.188 186.064ZM122.376 186.778V186.491H121.819C121.439 186.491 121.319 186.632 121.319 186.82C121.319 187.023 121.491 187.158 121.777 187.158C122.048 187.158 122.282 187.033 122.376 186.778Z" fill="white"/>
<path d="M125.657 184.82V185.571C125.589 185.565 125.537 185.56 125.475 185.56C125.027 185.56 124.73 185.805 124.73 186.341V187.664H123.918V184.863H124.694V185.233C124.891 184.961 125.225 184.82 125.657 184.82Z" fill="white"/>
<path d="M128.047 187.529C127.88 187.649 127.635 187.706 127.385 187.706C126.724 187.706 126.338 187.367 126.338 186.701V185.55H125.906V184.924H126.338V184.242H127.15V184.924H127.848V185.55H127.15V186.69C127.15 186.93 127.281 187.06 127.499 187.06C127.619 187.06 127.739 187.024 127.828 186.956L128.047 187.529Z" fill="white"/>
<path d="M154.037 156.445C154.037 156.514 139.291 156.57 121.104 156.57C102.911 156.57 88.168 156.514 88.168 156.445C88.168 156.376 102.911 156.32 121.104 156.32C139.291 156.32 154.037 156.376 154.037 156.445Z" fill="#263238"/>
<path d="M140.914 160.484C140.914 160.553 132.043 160.609 121.103 160.609C110.158 160.609 101.289 160.553 101.289 160.484C101.289 160.415 110.158 160.359 121.103 160.359C132.043 160.359 140.914 160.415 140.914 160.484Z" fill="#263238"/>
<path d="M49.7754 219.957L46.8594 230.739L56.337 231.604L58.3285 221.339L49.7754 219.957Z" fill="#044D3A"/>
<path d="M56.6119 230.725C56.609 230.76 56.0781 230.747 55.2237 230.678C54.3693 230.609 53.1933 230.479 51.8983 230.313C50.6508 230.145 49.5218 229.993 48.5858 229.868C47.7391 229.75 47.2154 229.669 47.2188 229.631C47.2221 229.596 47.7525 229.611 48.6064 229.682C49.4604 229.753 50.6364 229.884 51.9319 230.051C53.1794 230.217 54.3079 230.368 55.2444 230.493C56.0916 230.609 56.6157 230.687 56.6119 230.725Z" fill="#263238"/>
<g opacity="0.6">
<path d="M46.8594 230.74L56.337 231.605L56.4901 230.814L47.133 229.625L46.869 230.633" fill="white"/>
</g>
<path d="M51.5683 230.26C51.5088 230.245 51.912 228.396 52.4693 226.129C53.027 223.861 53.5272 222.036 53.5867 222.051C53.6462 222.066 53.243 223.915 52.6853 226.182C52.1285 228.448 51.6283 230.274 51.5683 230.26Z" fill="#263238"/>
<path d="M56.0884 230.655C56.0303 230.653 56.3908 229.882 56.11 228.651C55.9655 228.051 55.6506 227.353 55.0727 226.775C54.5039 226.193 53.6505 225.787 52.714 225.691C51.7756 225.601 50.8612 225.827 50.1758 226.268C49.4817 226.703 49.0041 227.297 48.6998 227.836C48.0969 228.941 48.1554 229.773 48.1012 229.759C48.0935 229.759 48.0887 229.709 48.0873 229.616C48.0825 229.522 48.0906 229.383 48.1094 229.205C48.1492 228.851 48.2687 228.337 48.5606 227.762C48.8572 227.194 49.3406 226.563 50.0654 226.095C50.7825 225.62 51.7482 225.374 52.7356 225.47C53.7215 225.57 54.623 226.006 55.2182 226.631C55.8206 227.251 56.1326 227.989 56.2631 228.617C56.3879 229.252 56.3442 229.782 56.2665 230.131C56.2257 230.306 56.1873 230.439 56.1498 230.526C56.1167 230.614 56.0956 230.658 56.0884 230.655Z" fill="#263238"/>
<path d="M88.9083 217.061L88.2737 226.64C88.2737 226.64 97.8085 229.804 97.8632 231.586L79.2344 231.721L79.6107 216.754L88.9083 217.061Z" fill="#044D3A"/>
<g opacity="0.6">
<path d="M82.5407 225.659C82.1773 225.747 81.9162 226.145 81.9887 226.511C82.0612 226.878 82.4634 227.147 82.8282 227.066C83.193 226.985 83.5213 226.517 83.408 226.161C83.2948 225.805 82.8057 225.514 82.4711 225.681" fill="white"/>
</g>
<g opacity="0.6">
<path d="M79.2344 231.72L79.2723 230.211L97.2646 230.708C97.2646 230.708 97.8632 230.966 97.9577 231.72H79.2344Z" fill="white"/>
</g>
<path d="M88.5793 226.554C88.5735 226.645 88.1175 226.672 87.6615 226.951C87.1978 227.218 86.9555 227.605 86.8729 227.567C86.7894 227.546 86.9415 227.007 87.4998 226.679C88.0551 226.346 88.6014 226.472 88.5793 226.554Z" fill="#263238"/>
<path d="M90.5057 227.423C90.5239 227.512 90.1255 227.654 89.8049 228.03C89.4737 228.395 89.383 228.809 89.2927 228.802C89.2068 228.813 89.1598 228.279 89.5673 227.82C89.9705 227.358 90.5066 227.336 90.5057 227.423Z" fill="#263238"/>
<path d="M91.5444 229.79C91.4613 229.807 91.3485 229.349 91.5967 228.858C91.8415 228.366 92.2764 228.182 92.3124 228.259C92.3613 228.335 92.0772 228.594 91.8794 229C91.6725 229.401 91.6346 229.784 91.5444 229.79Z" fill="#263238"/>
<path d="M88.4817 224.354C88.4409 224.436 88.0276 224.298 87.5126 224.317C86.9976 224.326 86.5924 224.487 86.5473 224.407C86.4964 224.34 86.8972 224.015 87.504 224.001C88.1107 223.982 88.5283 224.284 88.4817 224.354Z" fill="#263238"/>
<path d="M88.5719 222.419C88.5719 222.457 88.2109 222.502 87.6397 222.386C87.3556 222.328 87.0215 222.224 86.6735 222.056C86.4992 221.972 86.3221 221.873 86.1464 221.756C86.0624 221.698 85.9621 221.639 85.8714 221.528C85.7735 221.43 85.7236 221.188 85.8445 221.044C85.9444 220.903 86.1148 220.847 86.2492 220.848C86.3864 220.847 86.4968 220.878 86.5976 220.907C86.8036 220.963 86.9956 221.038 87.1712 221.123C87.5221 221.296 87.8048 221.509 88.0141 221.714C88.4341 222.127 88.5709 222.471 88.5397 222.487C88.4975 222.516 88.2959 222.225 87.8663 221.882C87.6522 221.711 87.3772 221.532 87.0488 221.388C86.8842 221.316 86.7066 221.254 86.5184 221.206C86.3226 221.149 86.1551 221.142 86.1018 221.228C86.0826 221.261 86.0797 221.274 86.1191 221.333C86.1599 221.388 86.2386 221.442 86.3212 221.5C86.4824 221.612 86.6456 221.711 86.8055 221.797C87.1256 221.968 87.4328 222.087 87.6964 222.17C88.2248 222.334 88.5748 222.37 88.5719 222.419Z" fill="#263238"/>
<path d="M88.4496 222.546C88.4169 222.559 88.2465 222.228 88.2312 221.638C88.2244 221.346 88.2652 220.993 88.3891 220.621C88.452 220.436 88.5355 220.247 88.644 220.062C88.7587 219.882 88.8993 219.639 89.2531 219.609C89.4374 219.608 89.5862 219.756 89.6347 219.881C89.6923 220.009 89.7014 220.117 89.7201 220.226C89.748 220.444 89.7374 220.657 89.7019 220.854C89.6313 221.248 89.459 221.573 89.2747 221.805C88.896 222.276 88.5134 222.374 88.5067 222.343C88.4779 222.296 88.8 222.13 89.0923 221.675C89.2363 221.451 89.3678 221.153 89.4139 220.807C89.4374 220.636 89.4403 220.453 89.4129 220.268C89.3899 220.069 89.3203 219.907 89.2459 219.925C89.1532 219.921 88.9915 220.065 88.9104 220.221C88.8096 220.385 88.7284 220.554 88.6641 220.719C88.5374 221.052 88.4764 221.373 88.4553 221.644C88.4126 222.191 88.4995 222.534 88.4496 222.546Z" fill="#263238"/>
<path d="M88.9089 133.839L60.5246 133.625L46.8086 223.711L58.5888 225.206L73.6862 151.134L78.2044 225.47L78.2164 225.691L90.9561 225.468L88.9089 133.839Z" fill="#263238"/>
<path d="M75.9992 141.137C75.9901 141.129 76.1946 141.116 76.5858 141.099C77.0111 141.084 77.5828 141.063 78.2932 141.036C79.8143 140.993 81.9244 140.934 84.4276 140.863L84.5442 140.859L84.5447 140.977C84.549 142.757 84.5538 144.748 84.5591 146.861V146.918L84.5173 146.957C84.1765 147.27 83.8146 147.603 83.4488 147.939C82.3559 148.941 81.2989 149.91 80.2996 150.826L80.216 150.902L80.132 150.827C78.5711 149.436 77.1469 148.166 75.933 147.084L75.8984 147.054L75.8989 147.009C75.921 145.22 75.9388 143.75 75.9522 142.692C75.9628 142.211 75.9714 141.824 75.9776 141.529C75.9848 141.265 75.992 141.13 75.9992 141.137C76.0064 141.144 76.0136 141.293 76.0213 141.568C76.0276 141.869 76.0362 142.263 76.0468 142.753C76.0597 143.796 76.078 145.245 76.1 147.009L76.066 146.934C77.289 148.005 78.7242 149.262 80.2972 150.64L80.1296 150.641C81.1271 149.723 82.1821 148.752 83.2727 147.748C83.6389 147.412 84.0013 147.079 84.3421 146.766L84.3004 146.861C84.3056 144.748 84.3104 142.758 84.3148 140.977L84.4319 141.092C81.9575 141.115 79.8719 141.135 78.3685 141.149C77.6471 141.15 77.0663 141.151 76.6343 141.152C76.449 141.15 76.2959 141.148 76.1682 141.147C76.0612 141.145 76.0036 141.142 75.9992 141.137Z" fill="#455A64"/>
<path d="M62.6406 140.75C62.633 140.74 62.8149 140.75 63.1643 140.777C63.5478 140.808 64.0586 140.85 64.6917 140.901C66.0592 141.025 67.9533 141.197 70.2117 141.401L70.3259 141.412L70.312 141.528C70.1042 143.269 69.867 145.253 69.6141 147.37L69.6078 147.422L69.5666 147.455C69.1758 147.767 68.7621 148.097 68.343 148.432C67.2986 149.263 66.2862 150.069 65.3243 150.834L65.2254 150.913L65.1477 150.815C63.9285 149.273 62.8096 147.859 61.8477 146.643L61.8203 146.608L61.8261 146.566C62.0646 144.799 62.261 143.343 62.403 142.291C62.4722 141.815 62.5278 141.431 62.5706 141.138C62.6104 140.875 62.6344 140.741 62.6406 140.75C62.6474 140.758 62.6363 140.908 62.6104 141.182C62.5802 141.484 62.5408 141.877 62.4918 142.365C62.3781 143.405 62.2206 144.845 62.0296 146.59L62.008 146.514C62.9805 147.722 64.1114 149.127 65.344 150.658L65.1678 150.638C66.1283 149.87 67.1387 149.062 68.1813 148.229C68.6008 147.895 69.015 147.565 69.4058 147.253L69.3582 147.339C69.6227 145.223 69.8714 143.24 70.0888 141.5L70.1896 141.626C67.9648 141.378 66.099 141.17 64.7517 141.019C64.1104 140.942 63.5939 140.88 63.2056 140.834C62.8451 140.788 62.6483 140.759 62.6406 140.75Z" fill="#455A64"/>
<path d="M80.0041 154.421C79.9854 154.453 79.4987 154.204 78.7172 153.796C77.9358 153.387 76.8568 152.824 75.6544 152.223C74.451 151.623 73.3518 151.101 72.555 150.722C71.7587 150.343 71.2672 150.104 71.2816 150.07C71.295 150.038 71.812 150.217 72.6294 150.554C73.4468 150.89 74.5624 151.389 75.77 151.99C76.9768 152.593 78.0462 153.184 78.8065 153.635C79.5673 154.086 80.0219 154.391 80.0041 154.421Z" fill="#455A64"/>
<path d="M79.6405 156.611C79.63 156.639 79.246 156.534 78.6724 156.247C78.0997 155.961 77.3485 155.471 76.6477 154.782C75.9484 154.091 75.4463 153.348 75.1525 152.78C74.8564 152.21 74.7455 151.828 74.7738 151.817C74.8487 151.776 75.452 153.256 76.8306 154.597C78.1909 155.954 79.6799 156.535 79.6405 156.611Z" fill="#455A64"/>
<path d="M87.6537 182.641C87.6686 182.646 87.6312 182.816 87.5251 183.111C87.42 183.407 87.2313 183.824 86.9333 184.303C86.3491 185.257 85.2278 186.45 83.6208 187.13C82.0118 187.808 80.3745 187.778 79.2835 187.531C78.7325 187.411 78.3019 187.255 78.0168 187.124C77.7307 186.993 77.5833 186.902 77.5901 186.888C77.6093 186.841 78.2313 187.161 79.3181 187.351C80.3923 187.546 81.971 187.543 83.5195 186.891C85.0665 186.236 86.1701 185.108 86.7797 184.202C87.4017 183.291 87.6067 182.622 87.6537 182.641Z" fill="#455A64"/>
<path d="M85.7888 181.873C85.8018 181.9 85.4043 182.126 84.704 182.351C84.0066 182.58 83.0005 182.778 81.8807 182.818C80.7608 182.865 79.7495 182.76 79.028 182.65C78.3061 182.535 77.8693 182.415 77.8751 182.384C77.8875 182.295 79.6659 182.64 81.8701 182.558C82.9698 182.519 83.9557 182.354 84.6531 182.175C85.353 181.999 85.7725 181.834 85.7888 181.873Z" fill="#455A64"/>
<path d="M64.6821 182.408C64.7018 182.43 64.3543 182.805 63.6948 183.303C63.0377 183.8 62.0503 184.395 60.8661 184.838C59.6805 185.277 58.5444 185.473 57.7221 185.527C56.898 185.582 56.3892 185.525 56.3906 185.496C56.3911 185.453 56.898 185.444 57.7044 185.344C58.5103 185.245 59.6153 185.024 60.7759 184.594C61.9351 184.16 62.9148 183.604 63.5892 183.152C64.265 182.702 64.6543 182.376 64.6821 182.408Z" fill="#455A64"/>
<path d="M62.1945 182.3C62.2103 182.363 61.0463 182.634 59.5914 182.513C58.1356 182.402 57.0297 181.95 57.0551 181.89C57.0782 181.815 58.1942 182.146 59.6121 182.254C61.029 182.373 62.1834 182.222 62.1945 182.3Z" fill="#455A64"/>
<path d="M73.516 151.755C73.5284 151.784 73.0523 152.031 72.2396 152.333C71.428 152.635 70.2731 152.972 68.9651 153.183C67.6561 153.391 66.4532 153.431 65.5883 153.398C64.7219 153.365 64.1924 153.278 64.1953 153.247C64.1987 153.207 64.7315 153.228 65.5897 153.214C66.448 153.201 67.6321 153.132 68.9243 152.926C70.215 152.719 71.3617 152.414 72.1811 152.159C73.0004 151.904 73.5001 151.717 73.516 151.755Z" fill="#455A64"/>
<path d="M72.7442 148.848C72.8157 148.847 72.8771 149.07 72.881 149.345C72.8848 149.62 72.8296 149.844 72.7576 149.846C72.6861 149.847 72.6246 149.624 72.6213 149.348C72.6174 149.072 72.6726 148.848 72.7442 148.848Z" fill="#455A64"/>
<path d="M72.7463 146.852C72.8178 146.853 72.8749 147.076 72.873 147.351C72.8716 147.626 72.812 147.849 72.74 147.849C72.6685 147.849 72.6114 147.626 72.6133 147.35C72.6152 147.074 72.6748 146.851 72.7463 146.852Z" fill="#455A64"/>
<path d="M72.7877 144.855C72.8593 144.858 72.9121 145.083 72.9049 145.358C72.8977 145.633 72.8338 145.854 72.7623 145.853C72.6908 145.851 72.638 145.627 72.6452 145.351C72.6524 145.075 72.7162 144.854 72.7877 144.855Z" fill="#455A64"/>
<path d="M72.8688 142.863C72.9404 142.867 72.9884 143.093 72.9764 143.368C72.9639 143.643 72.8957 143.863 72.8242 143.86C72.7527 143.857 72.7047 143.632 72.7167 143.356C72.7287 143.08 72.7968 142.859 72.8688 142.863Z" fill="#455A64"/>
<path d="M72.9856 140.867C73.0571 140.872 73.1008 141.099 73.0835 141.374C73.0657 141.648 72.9932 141.868 72.9217 141.863C72.8502 141.859 72.8065 141.632 72.8243 141.357C72.8416 141.082 72.914 140.862 72.9856 140.867Z" fill="#455A64"/>
<path d="M73.1428 138.879C73.2143 138.885 73.2537 139.113 73.2306 139.387C73.2076 139.661 73.1308 139.879 73.0593 139.873C72.9877 139.867 72.9484 139.64 72.9714 139.365C72.9949 139.09 73.0713 138.873 73.1428 138.879Z" fill="#455A64"/>
<path d="M73.2986 137.25C73.3701 137.258 73.4133 137.406 73.3955 137.581C73.3778 137.757 73.3053 137.893 73.2338 137.886C73.1622 137.88 73.119 137.731 73.1368 137.555C73.155 137.379 73.2275 137.243 73.2986 137.25Z" fill="#455A64"/>
<path d="M57.2502 223.231C57.3207 223.245 57.3337 223.475 57.2799 223.746C57.2257 224.016 57.1249 224.223 57.0548 224.209C56.9847 224.195 56.9713 223.965 57.0255 223.695C57.0793 223.425 57.1801 223.217 57.2502 223.231Z" fill="#455A64"/>
<path d="M57.6415 221.274C57.7116 221.288 57.725 221.518 57.6708 221.789C57.6166 222.059 57.5158 222.266 57.4457 222.252C57.3751 222.238 57.3622 222.008 57.4159 221.738C57.4702 221.468 57.571 221.26 57.6415 221.274Z" fill="#455A64"/>
<path d="M58.0314 219.317C58.102 219.331 58.1149 219.561 58.0612 219.832C58.0069 220.102 57.9061 220.309 57.8361 220.295C57.766 220.281 57.7525 220.051 57.8068 219.781C57.8605 219.511 57.9613 219.303 58.0314 219.317Z" fill="#455A64"/>
<path d="M58.4261 217.36C58.4961 217.374 58.5096 217.604 58.4558 217.875C58.4016 218.145 58.3008 218.353 58.2307 218.338C58.1606 218.324 58.1472 218.094 58.2009 217.824C58.2547 217.554 58.3555 217.346 58.4261 217.36Z" fill="#455A64"/>
<path d="M58.8166 215.403C58.8871 215.417 58.9001 215.648 58.8463 215.918C58.7921 216.188 58.6913 216.395 58.6212 216.381C58.5511 216.367 58.5377 216.137 58.5919 215.867C58.6457 215.596 58.7465 215.389 58.8166 215.403Z" fill="#455A64"/>
<path d="M59.2074 213.45C59.278 213.464 59.291 213.694 59.2372 213.964C59.1835 214.235 59.0822 214.442 59.0121 214.428C58.9415 214.414 58.9286 214.184 58.9823 213.914C59.0361 213.643 59.1369 213.436 59.2074 213.45Z" fill="#455A64"/>
<path d="M59.5978 211.493C59.6684 211.507 59.6814 211.737 59.6276 212.007C59.5734 212.278 59.4726 212.485 59.4025 212.471C59.3324 212.457 59.319 212.227 59.3732 211.957C59.427 211.686 59.5278 211.479 59.5978 211.493Z" fill="#455A64"/>
<path d="M59.9887 209.536C60.0593 209.55 60.0722 209.78 60.0185 210.05C59.9642 210.321 59.8634 210.528 59.7933 210.514C59.7228 210.5 59.7098 210.27 59.7636 210C59.8173 209.729 59.9181 209.521 59.9887 209.536Z" fill="#455A64"/>
<path d="M60.383 207.579C60.4531 207.593 60.4665 207.823 60.4127 208.093C60.3585 208.364 60.2577 208.571 60.1876 208.557C60.1175 208.543 60.1041 208.313 60.1583 208.042C60.2121 207.772 60.3129 207.565 60.383 207.579Z" fill="#455A64"/>
<path d="M60.7738 205.622C60.8443 205.636 60.8573 205.866 60.8035 206.136C60.7493 206.407 60.6485 206.614 60.5784 206.6C60.5078 206.586 60.4949 206.356 60.5491 206.085C60.6024 205.815 60.7032 205.607 60.7738 205.622Z" fill="#455A64"/>
<path d="M61.1642 203.665C61.2348 203.679 61.2478 203.909 61.194 204.179C61.1398 204.45 61.039 204.657 60.9689 204.643C60.8988 204.629 60.8854 204.399 60.9396 204.128C60.9934 203.858 61.0942 203.651 61.1642 203.665Z" fill="#455A64"/>
<path d="M61.5551 201.708C61.6257 201.722 61.6386 201.952 61.5849 202.222C61.5306 202.493 61.4298 202.7 61.3597 202.686C61.2892 202.672 61.2762 202.442 61.33 202.171C61.3837 201.901 61.4845 201.693 61.5551 201.708Z" fill="#455A64"/>
<path d="M61.946 199.751C62.0165 199.765 62.0295 199.995 61.9753 200.265C61.921 200.535 61.8202 200.743 61.7501 200.729C61.68 200.715 61.6666 200.485 61.7209 200.214C61.7751 199.944 61.8759 199.737 61.946 199.751Z" fill="#455A64"/>
<path d="M62.3405 197.794C62.4111 197.808 62.424 198.038 62.3698 198.308C62.3155 198.578 62.2147 198.786 62.1447 198.772C62.0746 198.758 62.0611 198.528 62.1154 198.257C62.1691 197.988 62.2699 197.78 62.3405 197.794Z" fill="#455A64"/>
<path d="M62.7306 195.837C62.8012 195.851 62.8142 196.081 62.7604 196.351C62.7062 196.621 62.6054 196.829 62.5353 196.815C62.4652 196.801 62.4518 196.571 62.506 196.3C62.5598 196.03 62.6606 195.823 62.7306 195.837Z" fill="#455A64"/>
<path d="M63.1213 193.88C63.1918 193.893 63.2048 194.124 63.151 194.394C63.0968 194.664 62.996 194.872 62.9259 194.858C62.8558 194.844 62.8424 194.613 62.8966 194.343C62.9499 194.073 63.0507 193.866 63.1213 193.88Z" fill="#455A64"/>
<path d="M63.512 191.923C63.5821 191.936 63.5955 192.167 63.5418 192.437C63.4875 192.707 63.3867 192.915 63.3166 192.901C63.2466 192.887 63.2331 192.656 63.2869 192.386C63.3411 192.116 63.4419 191.909 63.512 191.923Z" fill="#455A64"/>
<path d="M63.9064 189.966C63.977 189.979 63.9899 190.21 63.9362 190.48C63.8819 190.75 63.7811 190.958 63.7111 190.944C63.641 190.93 63.6275 190.699 63.6818 190.429C63.7351 190.159 63.8359 189.952 63.9064 189.966Z" fill="#455A64"/>
<path d="M64.2975 188.012C64.3676 188.026 64.3811 188.257 64.3268 188.527C64.2726 188.797 64.1718 189.005 64.1017 188.991C64.0316 188.977 64.0182 188.746 64.0724 188.476C64.1262 188.206 64.2275 187.998 64.2975 188.012Z" fill="#455A64"/>
<path d="M64.6877 186.055C64.7582 186.069 64.7712 186.3 64.7174 186.57C64.6632 186.84 64.5624 187.048 64.4923 187.034C64.4222 187.02 64.4088 186.789 64.463 186.519C64.5163 186.249 64.6171 186.041 64.6877 186.055Z" fill="#455A64"/>
<path d="M65.0783 184.098C65.1489 184.112 65.1618 184.343 65.1081 184.613C65.0538 184.883 64.953 185.091 64.8829 185.077C64.8129 185.063 64.7994 184.832 64.8537 184.562C64.9069 184.292 65.0082 184.084 65.0783 184.098Z" fill="#455A64"/>
<path d="M65.469 182.141C65.5396 182.155 65.5525 182.386 65.4988 182.656C65.4445 182.926 65.3437 183.133 65.2737 183.12C65.2036 183.106 65.1901 182.875 65.2439 182.605C65.2977 182.335 65.3985 182.127 65.469 182.141Z" fill="#455A64"/>
<path d="M65.8636 180.184C65.9342 180.198 65.9471 180.429 65.8934 180.699C65.8391 180.969 65.7383 181.176 65.6682 181.162C65.5977 181.149 65.5847 180.918 65.639 180.648C65.6922 180.378 65.7935 180.17 65.8636 180.184Z" fill="#455A64"/>
<path d="M66.2541 178.227C66.3246 178.241 66.3376 178.472 66.2838 178.742C66.2296 179.012 66.1288 179.219 66.0587 179.205C65.9886 179.192 65.9752 178.961 66.0294 178.691C66.0827 178.421 66.1835 178.213 66.2541 178.227Z" fill="#455A64"/>
<path d="M66.6454 176.27C66.716 176.284 66.7289 176.515 66.6747 176.785C66.6205 177.055 66.5197 177.262 66.4496 177.248C66.379 177.235 66.3661 177.004 66.4198 176.734C66.4741 176.464 66.5753 176.256 66.6454 176.27Z" fill="#455A64"/>
<path d="M67.0353 174.313C67.1059 174.327 67.1189 174.557 67.0651 174.828C67.0109 175.098 66.9101 175.305 66.84 175.291C66.7699 175.277 66.7565 175.047 66.8107 174.777C66.864 174.507 66.9648 174.299 67.0353 174.313Z" fill="#455A64"/>
<path d="M67.4267 172.356C67.4968 172.37 67.5102 172.6 67.456 172.871C67.4017 173.141 67.3009 173.348 67.2308 173.334C67.1603 173.32 67.1473 173.09 67.2011 172.82C67.2553 172.55 67.3566 172.342 67.4267 172.356Z" fill="#455A64"/>
<path d="M67.8205 170.399C67.891 170.413 67.904 170.643 67.8503 170.914C67.796 171.184 67.6952 171.391 67.6251 171.377C67.555 171.363 67.5416 171.133 67.5959 170.863C67.6496 170.593 67.7504 170.385 67.8205 170.399Z" fill="#455A64"/>
<path d="M68.2111 168.442C68.2812 168.456 68.2946 168.686 68.2409 168.957C68.1866 169.227 68.0858 169.435 68.0158 169.42C67.9457 169.406 67.9322 169.176 67.9865 168.906C68.0398 168.636 68.141 168.428 68.2111 168.442Z" fill="#455A64"/>
<path d="M68.6022 166.485C68.6728 166.499 68.6857 166.729 68.6315 167C68.5773 167.27 68.4765 167.478 68.4064 167.463C68.3363 167.449 68.3229 167.219 68.3771 166.949C68.4309 166.679 68.5317 166.471 68.6022 166.485Z" fill="#455A64"/>
<path d="M68.9924 164.532C69.0624 164.546 69.0759 164.776 69.0221 165.047C68.9679 165.317 68.8671 165.524 68.797 165.51C68.7269 165.496 68.7135 165.266 68.7677 164.996C68.821 164.725 68.9223 164.518 68.9924 164.532Z" fill="#455A64"/>
<path d="M69.3835 162.575C69.4535 162.589 69.467 162.819 69.4127 163.089C69.3585 163.36 69.2577 163.567 69.1876 163.553C69.1176 163.539 69.1041 163.309 69.1583 163.039C69.2121 162.768 69.3129 162.561 69.3835 162.575Z" fill="#455A64"/>
<path d="M69.7781 160.618C69.8487 160.632 69.8617 160.862 69.8074 161.132C69.7537 161.403 69.6524 161.61 69.5823 161.596C69.5117 161.582 69.4988 161.352 69.553 161.082C69.6068 160.811 69.7081 160.603 69.7781 160.618Z" fill="#455A64"/>
<path d="M70.1681 158.661C70.2382 158.675 70.2517 158.905 70.1979 159.175C70.1437 159.446 70.0429 159.653 69.9728 159.639C69.9027 159.625 69.8893 159.395 69.9435 159.124C69.9968 158.855 70.0976 158.647 70.1681 158.661Z" fill="#455A64"/>
<path d="M70.5589 156.704C70.6295 156.718 70.6424 156.948 70.5887 157.218C70.5344 157.489 70.4336 157.696 70.3636 157.682C70.293 157.668 70.28 157.438 70.3343 157.167C70.3876 156.897 70.4888 156.689 70.5589 156.704Z" fill="#455A64"/>
<path d="M70.9494 154.747C71.0195 154.761 71.0329 154.991 70.9792 155.261C70.9249 155.532 70.8241 155.739 70.754 155.725C70.684 155.711 70.6705 155.481 70.7248 155.21C70.778 154.94 70.8788 154.733 70.9494 154.747Z" fill="#455A64"/>
<path d="M71.3406 152.79C71.4112 152.804 71.4242 153.034 71.3699 153.304C71.3157 153.575 71.2149 153.782 71.1448 153.768C71.0742 153.754 71.0613 153.524 71.1155 153.253C71.1693 152.983 71.2701 152.775 71.3406 152.79Z" fill="#455A64"/>
<path d="M110.469 92.4434C110.469 92.4434 113.79 87.4644 113.878 87.4207C113.878 87.4207 116.876 82.3721 117.873 82.3711C118.875 82.3701 118.51 83.394 117.481 85.2031C116.578 86.7885 116.487 87.7788 116.487 87.7788L118.949 89.2658C118.949 89.2658 120.594 88.6293 120.663 90.1625C120.686 90.6751 120.55 91.3097 120.379 92.2442C120.279 92.79 120.032 93.3722 119.517 93.1668C119.281 93.0727 119.088 92.8908 119.077 92.5505C119.045 91.6433 119.214 91.3106 119.099 91.3101C118.951 91.3097 117.327 96.0679 117.327 96.0679L110.469 92.4434Z" fill="#FFBE9D"/>
<path d="M117.176 88.5334C117.429 88.3596 117.684 88.1849 117.966 88.0625C118.247 87.9401 118.56 87.8724 118.862 87.9233C119.053 87.955 119.241 88.0385 119.362 88.1888C119.527 88.3947 119.538 88.6932 119.456 88.9448C119.374 89.1963 119.212 89.4123 119.053 89.623" fill="#FFBE9D"/>
<path d="M116.051 87.5284C116.291 87.3647 116.533 87.2001 116.8 87.0849C117.066 86.9697 117.363 86.9058 117.649 86.9533C117.829 86.9831 118.007 87.0613 118.122 87.2034C118.279 87.3973 118.289 87.6786 118.211 87.9153C118.133 88.1524 117.597 88.7015 117.446 88.9002" fill="#FFBE9D"/>
<path d="M111.627 89.6328L106.828 99.8967L112.119 105.304L114.876 97.6546C114.876 97.6546 116.353 97.9488 116.956 96.9691C117.628 95.8752 118.511 92.7139 118.511 92.7139L111.627 89.6328Z" fill="#FFBE9D"/>
<path d="M115.058 89.3486C115.006 89.3327 115.126 88.6454 115.626 87.9292C115.88 87.575 116.204 87.3335 116.449 87.2011C116.695 87.0667 116.863 87.022 116.878 87.0518C116.924 87.1281 116.304 87.4353 115.835 88.0833C115.375 88.7361 115.138 89.3827 115.058 89.3486Z" fill="#EB996E"/>
<path d="M120.38 89.394C120.359 89.4281 120.195 89.3388 119.915 89.2904C119.641 89.2409 119.234 89.2481 118.867 89.4507C118.5 89.6542 118.261 89.9892 118.087 90.2235C117.916 90.4635 117.802 90.6147 117.77 90.5964C117.74 90.5796 117.794 90.4006 117.93 90.1275C118.07 89.863 118.301 89.4708 118.741 89.2227C119.184 88.9788 119.665 89.0081 119.96 89.1123C120.265 89.2174 120.399 89.3705 120.38 89.394Z" fill="#EB996E"/>
<path d="M118.594 87.9447C118.608 88.0225 118.002 88.1252 117.467 88.6076C116.93 89.0818 116.667 89.6391 116.593 89.6026C116.535 89.5878 116.698 88.9465 117.295 88.4122C117.592 88.1511 117.93 88.0033 118.179 87.949C118.431 87.8938 118.59 87.913 118.594 87.9447Z" fill="#EB996E"/>
<path d="M119.774 90.1614C119.842 90.135 119.968 90.5334 119.716 90.9313C119.467 91.3316 119.054 91.3912 119.048 91.3192C119.026 91.2486 119.307 91.106 119.496 90.7936C119.695 90.4873 119.701 90.1724 119.774 90.1614Z" fill="#EB996E"/>
<path d="M110.481 92.2454C110.481 92.2454 110.314 89.1825 111.054 88.4889C111.794 87.7953 113.916 88.5158 113.916 88.5158" fill="#FFBE9D"/>
<path d="M114.216 87.0528C114.272 87.0974 113.781 87.8789 113.118 88.7985C112.455 89.7182 111.87 90.4315 111.81 90.3921C111.75 90.3528 112.241 89.5713 112.907 88.6464C113.574 87.7219 114.16 87.0081 114.216 87.0528Z" fill="#EB996E"/>
<path d="M71.7292 63.8325L71.6562 87.7346L81.911 88.2237L82.2076 82.41C82.2076 82.41 85.8499 83.1333 86.7897 79.7503C87.3902 77.5893 87.2399 60.8906 87.2399 60.8906L71.7292 63.8325Z" fill="#FFBE9D"/>
<path d="M88.5893 62.5743C86.9741 63.0366 86.6232 65.6766 86.6232 65.6766L84.0897 71.2724C82.799 70.262 81.0662 70.3201 80.7379 72.5876C80.5008 74.2263 82.5384 74.558 82.5384 74.558C81.3523 76.5764 80.5473 78.2094 78.8203 80.1294C76.9512 82.2073 75.9038 82.4171 73.8768 82.4507H71.6414C71.6414 82.4507 70.547 78.8986 68.5209 70.0158C66.2726 60.1609 77.926 61.4305 80.0865 58.9148C83.6054 54.818 93.6811 61.1166 88.5893 62.5743Z" fill="#263238"/>
<path d="M68.7342 70.9448C66.8454 69.6762 66.675 66.1256 67.7766 63.9968C68.8787 61.868 71.1981 60.4256 73.5947 60.379C73.9153 60.3728 74.2461 60.3882 74.5451 60.2725C74.9886 60.1011 75.2757 59.6811 75.5656 59.3043C77.2537 57.1093 78.9126 54.9526 82.059 54.9531C82.5702 54.9531 83.1357 54.9531 84.0371 55.4437C84.4859 55.688 85.119 56.5165 85.2251 57.0162C85.8165 56.7358 86.4184 56.4522 87.0654 56.3542C87.7125 56.2563 88.4229 56.3696 88.9115 56.8045C89.4001 57.2398 89.5816 58.0405 89.2019 58.5733C90.2622 58.5061 91.2673 59.384 91.4344 60.4333C91.6014 61.4826 90.0976 62.2203 89.9411 62.3019C89.9411 62.3019 90.7667 64.0299 88.7982 65.0658C88.0057 65.4829 86.9752 64.9803 86.8581 64.9198" fill="#263238"/>
<path d="M76.2223 73.2422C76.2885 73.2355 76.3903 74.0645 76.1637 75.0571C75.9429 76.0512 75.4961 76.7568 75.4389 76.7222C75.3703 76.6877 75.6991 75.9557 75.9103 75C76.1287 74.0467 76.1455 73.2441 76.2223 73.2422Z" fill="#455A64"/>
<path d="M77.4611 72.0703C77.5302 72.0732 77.5451 72.8638 77.3655 73.8175C77.1889 74.7723 76.8899 75.5043 76.8241 75.4817C76.7535 75.4591 76.9369 74.706 77.1102 73.77C77.2868 72.8345 77.3871 72.0655 77.4611 72.0703Z" fill="#455A64"/>
<path d="M81.0119 68.1236C81.0364 68.1577 80.746 68.3693 80.3773 68.8018C80.0053 69.2295 79.582 69.8981 79.2724 70.7093C78.9618 71.521 78.7914 72.2982 78.6594 72.8588C78.5308 73.4209 78.442 73.7693 78.4055 73.7626C78.3714 73.7569 78.3959 73.3988 78.4789 72.8247C78.5653 72.2526 78.7093 71.4548 79.03 70.6157C79.3501 69.7762 79.8201 69.0889 80.2425 68.6775C80.6625 68.2594 80.997 68.0986 81.0119 68.1236Z" fill="#455A64"/>
<path d="M82.4492 65.4416C82.4795 65.4334 82.5841 65.673 82.6484 66.0882C82.7132 66.5019 82.7152 67.0942 82.5592 67.7202C82.4012 68.3461 82.12 68.8674 81.8675 69.2015C81.615 69.5379 81.4096 69.6992 81.387 69.6776C81.3227 69.6286 82.0168 68.8568 82.3072 67.6568C82.6172 66.4626 82.3696 65.4546 82.4492 65.4416Z" fill="#455A64"/>
<path d="M70.2087 71.4101C70.1737 71.473 69.8598 71.364 69.5074 71.1672C69.1551 70.9704 68.8978 70.7602 68.9329 70.6973C68.9679 70.6349 69.2818 70.7434 69.6342 70.9407C69.9865 71.137 70.2438 71.3477 70.2087 71.4101Z" fill="#455A64"/>
<path d="M75.1641 68.8559C75.2318 68.866 75.1896 69.3724 74.8713 69.8956C74.556 70.4212 74.1273 70.6938 74.087 70.6386C74.038 70.5815 74.3606 70.2441 74.6486 69.7612C74.9424 69.2817 75.0907 68.8396 75.1641 68.8559Z" fill="#455A64"/>
<path d="M76.6898 68.0397C76.756 68.0546 76.6485 68.6613 76.2333 69.282C75.8224 69.906 75.305 70.2405 75.2656 70.1853C75.2171 70.1272 75.6318 69.7245 76.0168 69.1384C76.407 68.5567 76.6173 68.0176 76.6898 68.0397Z" fill="#455A64"/>
<path d="M84.2592 58.028C84.2414 58.0486 84.0667 57.8816 83.6971 57.6714C83.327 57.4683 82.7366 57.2461 81.9792 57.2274C81.2289 57.2038 80.3078 57.3824 79.4582 57.9046C78.6086 58.4259 77.8569 59.275 77.3112 60.296C76.9137 61.0381 76.6387 61.8109 76.44 62.5371L76.3987 62.6874L76.2609 62.6149C75.4996 62.215 74.6932 62.0394 73.9732 62.0297C73.2504 62.0101 72.6144 62.1425 72.1108 62.311C71.0976 62.6571 70.6166 63.1126 70.5902 63.0718C70.5825 63.0627 70.6963 62.9485 70.9334 62.768C71.172 62.5909 71.5459 62.3605 72.0585 62.1641C72.5697 61.9697 73.224 61.8128 73.9761 61.8171C74.7249 61.8114 75.5721 61.9808 76.3785 62.3955L76.2 62.4733C76.3958 61.7307 76.6733 60.9378 77.0832 60.1726C77.6462 59.1195 78.4339 58.2363 79.3353 57.6992C80.2387 57.1606 81.2054 56.995 81.9878 57.043C82.7779 57.0867 83.3846 57.3474 83.7499 57.584C83.9299 57.7098 84.0652 57.8115 84.144 57.8965C84.2256 57.9771 84.2654 58.0218 84.2592 58.028Z" fill="#455A64"/>
<path d="M89.6517 59.3295C89.6335 59.3247 89.9368 59.2527 90.2402 59.5959C90.3784 59.761 90.5061 60.0221 90.4764 60.3447C90.4452 60.6663 90.2229 60.998 89.8802 61.1962C89.5428 61.4031 89.081 61.4717 88.6346 61.3676C88.1853 61.2697 87.7538 61.0316 87.3492 60.7445C86.9416 60.4594 86.55 60.1282 86.092 59.8829C85.6351 59.6348 85.1205 59.4538 84.5772 59.3506C83.4856 59.1471 82.4013 59.27 81.4855 59.5623C80.5644 59.8575 79.7997 60.301 79.2002 60.7239C78.0031 61.5845 77.4122 62.305 77.3757 62.2676C77.3637 62.257 77.5005 62.0713 77.7813 61.7621C78.0645 61.4569 78.4927 61.0263 79.0917 60.5751C79.6888 60.1253 80.4631 59.6525 81.4111 59.3343C82.3562 59.0185 83.4828 58.8821 84.6252 59.0948C85.194 59.2028 85.7344 59.3948 86.2144 59.6593C86.6992 59.9237 87.0952 60.2674 87.4879 60.5487C87.8776 60.8338 88.2765 61.0594 88.6821 61.1569C89.0858 61.2591 89.4837 61.2077 89.7885 61.0359C90.0948 60.8717 90.2935 60.5919 90.3319 60.326C90.3708 60.0557 90.2738 59.8143 90.1605 59.6578C89.9167 59.3324 89.6383 59.3583 89.6517 59.3295Z" fill="#455A64"/>
<path d="M60.8116 90.2383L51.6532 105.619C50.6284 107.413 49.6799 109.326 48.7751 111.308C48.0451 113.208 48.467 115.687 49.7419 117.263L49.4831 116.891C50.4988 118.147 52.0276 118.877 53.6433 118.877H53.8799C56.0092 118.877 57.9355 117.615 58.7851 115.662L61.7275 111.197L60.8116 90.2383Z" fill="#044D3A"/>
<path d="M88.4443 87.3005C85.9858 86.0448 83.5584 85.7611 80.9098 85.6838C77.8258 85.5941 73.4779 85.1625 70.1544 85.5158C70.1544 85.5158 60.685 86.2166 60.0274 92.7062L61.3205 123.186L59.1523 136.101L89.4999 137.017L89.2824 121.782C89.6573 113.855 88.8571 102.63 88.8571 102.63C89.3242 98.3683 91.656 96.4497 91.9872 93.6787C92.2795 91.2288 90.6418 88.4227 88.4443 87.3005Z" fill="#044D3A"/>
<path d="M79.8903 123.623C79.9003 123.635 79.7477 123.792 79.4439 124.046C79.1405 124.3 78.6759 124.64 78.0605 124.994C76.8408 125.706 74.9415 126.42 72.7555 126.458C70.5691 126.497 68.6453 125.851 67.4011 125.183C66.7738 124.85 66.2971 124.527 65.9851 124.284C65.6722 124.041 65.5143 123.889 65.5239 123.877C65.5541 123.835 66.2256 124.405 67.4837 125.018C68.7298 125.634 70.6167 126.236 72.7507 126.198C74.8839 126.16 76.7482 125.493 77.9717 124.833C79.2072 124.175 79.8591 123.582 79.8903 123.623Z" fill="#263238"/>
<path d="M59.9807 93.0547C59.9898 93.0542 60.0013 93.1564 60.0162 93.3513C60.0296 93.574 60.0464 93.8563 60.0676 94.2028C60.1036 94.9776 60.153 96.0393 60.2135 97.3368C60.3253 100.014 60.478 103.655 60.6464 107.677C60.8288 111.699 60.9935 115.339 61.1149 118.016C61.1812 119.313 61.2349 120.374 61.2743 121.149C61.2892 121.496 61.3012 121.778 61.3108 122.001C61.316 122.196 61.3146 122.299 61.306 122.3C61.2968 122.301 61.281 122.199 61.2589 122.005C61.2368 121.783 61.2085 121.501 61.174 121.156C61.1029 120.418 61.0242 119.349 60.932 118.027C60.752 115.383 60.5581 111.728 60.3877 107.688C60.2168 103.65 60.0988 99.9916 60.0311 97.3435C60.0047 96.0451 59.9836 94.9819 59.9677 94.2067C59.9668 93.8592 59.9658 93.5764 59.9648 93.3532C59.9658 93.1579 59.9716 93.0552 59.9807 93.0547Z" fill="#263238"/>
<path d="M58.0809 94.6682C58.0885 94.6725 58.0525 94.7541 57.9762 94.9053C57.8836 95.0814 57.7703 95.2984 57.6321 95.5614C57.3258 96.1269 56.8703 96.939 56.2861 97.9297C55.1341 99.9208 53.4018 102.587 51.6513 105.619C50.7767 107.133 50.0346 108.632 49.3919 110.002C48.7545 111.37 48.4257 112.712 48.5097 113.848C48.574 114.983 48.9109 115.865 49.2124 116.422C49.5129 116.985 49.7615 117.246 49.7399 117.263C49.7332 117.269 49.6703 117.206 49.5561 117.079C49.4457 116.95 49.2901 116.751 49.1245 116.472C48.79 115.92 48.4165 115.026 48.3263 113.86C48.2149 112.692 48.5394 111.292 49.1735 109.904C49.8095 108.518 50.5458 107.014 51.4261 105.49C53.1839 102.447 54.9383 99.7998 56.1297 97.8352C56.7119 96.879 57.1905 96.0933 57.5452 95.511C57.7002 95.2576 57.8274 95.0493 57.9311 94.8794C58.0218 94.7368 58.0732 94.6638 58.0809 94.6682Z" fill="#263238"/>
<path d="M113.902 103.034L106.88 98.4408L102.448 106.118C102.448 106.118 96.3029 97.5777 93.5117 92.5737C90.9427 87.9681 87.6192 86.7278 86.0155 86.3942C85.5418 86.2953 85.1122 86.6899 85.1645 87.1708L87.5866 103.778C87.8914 104.642 92.9602 111.991 95.7931 115.688C100.521 121.859 107.486 117.91 109.399 113.591C110.917 110.163 113.28 104.954 113.902 103.034Z" fill="#044D3A"/>
<path d="M104.466 113.05C104.429 113.051 104.387 112.631 104.332 111.954C104.273 111.278 104.204 110.342 103.993 109.338C103.782 108.334 103.431 107.468 103.096 106.887C102.766 106.303 102.486 105.986 102.518 105.958C102.538 105.937 102.871 106.214 103.253 106.792C103.639 107.365 104.032 108.254 104.248 109.284C104.464 110.314 104.504 111.264 104.516 111.945C104.524 112.627 104.501 113.048 104.466 113.05Z" fill="#263238"/>
<path d="M106.523 109.618C106.481 109.622 106.448 109.262 106.273 108.719C106.098 108.181 105.751 107.457 105.15 106.836C104.558 106.208 103.839 105.826 103.283 105.815C102.722 105.786 102.411 106.011 102.392 105.972C102.366 105.957 102.661 105.652 103.285 105.631C103.908 105.594 104.718 105.995 105.337 106.657C105.974 107.315 106.314 108.097 106.45 108.67C106.586 109.249 106.552 109.618 106.523 109.618Z" fill="#263238"/>
<path d="M85.5574 88.4459C85.5632 88.4526 85.5046 88.5198 85.3889 88.6408C85.3241 88.707 85.2531 88.78 85.1729 88.8616C85.0913 88.9595 85.0021 89.0675 84.9041 89.1856C84.5144 89.679 84.0022 90.459 83.6883 91.5462C83.3537 92.6214 83.2213 93.9894 83.4219 95.4668C83.5246 96.2046 83.7056 96.9716 84.0253 97.7128C84.3358 98.463 84.7472 99.2065 85.1605 99.9673C86.8798 102.986 88.6496 105.598 89.9293 107.483C90.5633 108.394 91.0846 109.143 91.471 109.699C91.8377 110.22 92.0446 110.506 92.0288 110.519C92.0216 110.524 91.9611 110.46 91.8521 110.331C91.7432 110.203 91.5848 110.012 91.3899 109.759C90.9944 109.258 90.4433 108.516 89.7785 107.588C88.4576 105.726 86.6619 103.129 84.9334 100.094C84.5168 99.3265 84.1054 98.5792 83.7901 97.8107C83.4632 97.0422 83.2827 96.2531 83.1843 95.498C82.9923 93.9841 83.1478 92.5854 83.5126 91.491C83.8573 90.3846 84.4064 89.6008 84.8264 89.1198C84.9325 89.0056 85.0289 88.9014 85.1168 88.8068C85.2041 88.731 85.2819 88.6628 85.3525 88.6014C85.4821 88.4929 85.5517 88.4392 85.5574 88.4459Z" fill="#263238"/>
<path d="M85.5786 132.573C85.5814 132.581 85.5075 132.613 85.3645 132.665C85.1912 132.725 84.9833 132.797 84.7337 132.884C84.4597 132.978 84.1218 133.087 83.7238 133.193C83.3264 133.302 82.8771 133.439 82.3698 133.548C81.3622 133.796 80.1454 134.023 78.7851 134.206C77.4229 134.374 75.9157 134.49 74.3307 134.5C72.7453 134.499 71.2371 134.391 69.8734 134.231C68.5117 134.055 67.2939 133.836 66.2849 133.593C65.7771 133.487 65.3269 133.352 64.929 133.246C64.5301 133.142 64.1921 133.035 63.9171 132.942C63.667 132.857 63.4587 132.787 63.2849 132.728C63.1414 132.676 63.0675 132.645 63.0704 132.636C63.0733 132.627 63.1525 132.642 63.3008 132.678C63.4774 132.724 63.6906 132.779 63.9454 132.845C64.2238 132.924 64.5646 133.016 64.9654 133.105C65.3653 133.198 65.8165 133.32 66.3243 133.414C67.3333 133.632 68.5472 133.832 69.9013 133.993C71.2573 134.139 72.7549 134.238 74.3293 134.24C75.9032 134.23 77.3998 134.122 78.7549 133.968C80.108 133.799 81.3205 133.593 82.3285 133.369C82.8358 133.272 83.2861 133.147 83.6854 133.053C84.0858 132.961 84.4261 132.866 84.704 132.786C84.9589 132.719 85.1715 132.662 85.3481 132.615C85.496 132.579 85.5757 132.564 85.5786 132.573Z" fill="#263238"/>
<g opacity="0.3">
<path d="M59.4336 114.677L60.8045 112.55L60.0893 95.8008L59.4336 114.677Z" fill="black"/>
</g>
<g opacity="0.3">
<path d="M83.1016 94.668C83.1016 94.668 83.1457 100.772 84.5569 103.19C85.9676 105.608 89.2686 110.833 89.2571 110.521C89.246 110.209 89.0689 106.213 89.0689 106.213C89.0689 106.213 83.1304 98.0846 83.1016 94.668Z" fill="black"/>
</g>
<path d="M58.2206 115.185C58.2245 115.195 58.0766 115.271 57.7824 115.312C57.4905 115.355 57.0475 115.335 56.5464 115.153C56.0462 114.972 55.4995 114.627 55.0113 114.124C54.5217 113.618 54.1176 112.964 53.7312 112.274C53.3457 111.583 52.9973 110.918 52.5998 110.375C52.2038 109.831 51.7656 109.403 51.348 109.118C50.5032 108.532 49.8153 108.57 49.8283 108.519C49.8278 108.508 49.991 108.481 50.2838 108.522C50.5757 108.56 50.9942 108.689 51.4449 108.97C51.8947 109.25 52.3646 109.682 52.7846 110.238C53.2065 110.794 53.5656 111.464 53.9491 112.151C54.3321 112.837 54.7219 113.477 55.1779 113.965C55.6339 114.453 56.1441 114.797 56.6097 114.988C57.5611 115.386 58.2221 115.13 58.2206 115.185Z" fill="white"/>
<path d="M60.0771 104.67C60.0344 104.682 59.9302 104.307 59.6369 103.767C59.3475 103.228 58.8305 102.54 58.086 101.975C57.3382 101.412 56.5356 101.103 55.9371 100.972C55.338 100.838 54.9492 100.84 54.9492 100.796C54.9468 100.771 55.3395 100.705 55.9707 100.799C56.5985 100.889 57.4543 101.186 58.2367 101.775C59.0163 102.366 59.5366 103.108 59.7948 103.688C60.0574 104.269 60.1011 104.666 60.0771 104.67Z" fill="white"/>
<path d="M83.2152 95.6799C83.2094 95.7043 82.8859 95.617 82.2893 95.5685C81.6941 95.521 80.82 95.5411 79.7808 95.797C78.7406 96.0442 77.5497 96.5179 76.2998 97.189C75.0422 97.8461 73.7112 98.6813 72.204 99.3706C70.7006 100.074 69.1281 100.43 67.6953 100.518C66.2577 100.599 64.9613 100.431 63.9101 100.166C62.8555 99.9063 62.0443 99.5559 61.5062 99.2818C61.2326 99.1527 61.0339 99.0259 60.8966 98.9458C60.7603 98.8637 60.6912 98.8171 60.6955 98.8095C60.707 98.7883 60.9989 98.9511 61.548 99.1935C62.0947 99.4383 62.9064 99.7599 63.9513 99.9936C64.9934 100.233 66.2702 100.38 67.6809 100.288C69.0893 100.188 70.62 99.8352 72.1013 99.1426C73.5873 98.4634 74.9213 97.6354 76.1937 96.984C77.4595 96.3187 78.6787 95.8527 79.7419 95.6237C80.8051 95.3856 81.6989 95.3923 82.2998 95.4706C82.6008 95.5104 82.8321 95.5565 82.9853 95.6021C83.1384 95.6453 83.2176 95.6717 83.2152 95.6799Z" fill="white"/>
<path d="M89.1127 112.287C89.1151 112.295 89.0201 112.327 88.8357 112.38C88.6505 112.425 88.3821 112.523 88.0231 112.582C87.3122 112.739 86.2567 112.857 84.9535 112.825C83.6493 112.799 82.1071 112.573 80.4314 112.189C78.7548 111.805 76.9476 111.256 75.0516 110.699C73.1565 110.145 71.3229 109.714 69.6305 109.494C67.9389 109.282 66.3914 109.266 65.1175 109.458C63.8431 109.643 62.8409 109.967 62.1847 110.265C61.5252 110.556 61.1777 110.76 61.1642 110.737C61.1599 110.729 61.2434 110.674 61.4081 110.576C61.5765 110.487 61.8084 110.318 62.1444 110.176C62.7943 109.848 63.8023 109.493 65.0911 109.284C66.3804 109.066 67.9485 109.064 69.6588 109.265C71.37 109.474 73.2185 109.903 75.1217 110.459C77.0205 111.017 78.8205 111.571 80.4837 111.965C82.1465 112.358 83.6705 112.6 84.9597 112.649C86.2481 112.703 87.2945 112.612 88.0053 112.486C88.7172 112.365 89.1065 112.263 89.1127 112.287Z" fill="white"/>
<path d="M89.2811 121.78C89.258 121.86 87.8583 120.956 85.2879 120.704C84.0131 120.564 82.4775 120.64 80.7947 120.859C79.1103 121.088 77.2772 121.474 75.3414 121.837C73.4065 122.199 71.5518 122.518 69.8459 122.666C68.1414 122.819 66.5891 122.808 65.3031 122.636C64.0167 122.469 62.9987 122.186 62.3247 121.922C61.9815 121.807 61.7334 121.67 61.5582 121.596C61.3859 121.516 61.2971 121.47 61.3009 121.463C61.3105 121.44 61.6772 121.6 62.3574 121.831C63.0361 122.064 64.0494 122.318 65.3243 122.461C66.5991 122.609 68.1342 122.602 69.8252 122.437C71.5177 122.277 73.3623 121.953 75.2963 121.592C77.2273 121.229 79.0676 120.849 80.7654 120.631C82.4627 120.422 84.0174 120.365 85.3076 120.528C86.5974 120.683 87.6145 120.986 88.2779 121.277C88.6182 121.402 88.8587 121.554 89.031 121.634C89.1985 121.722 89.2849 121.772 89.2811 121.78Z" fill="white"/>
<path d="M73.6807 134.02C73.6701 134.033 73.4997 133.925 73.2016 133.718C72.905 133.508 72.4715 133.212 71.9306 132.854C70.8501 132.138 69.317 131.209 67.54 130.343C65.7611 129.479 64.0835 128.847 62.8528 128.439C62.2379 128.234 61.7368 128.076 61.3888 127.972C61.0418 127.865 60.8512 127.798 60.8555 127.781C60.8599 127.765 61.0581 127.8 61.4138 127.878C61.7704 127.953 62.2807 128.086 62.9056 128.27C64.156 128.636 65.8567 129.248 67.649 130.118C69.4389 130.991 70.9701 131.951 72.0299 132.709C72.5608 133.087 72.9799 133.407 73.2597 133.64C73.541 133.872 73.6912 134.006 73.6807 134.02Z" fill="white"/>
<path d="M88.4544 133.856C88.4673 133.879 88.1044 134.121 87.4459 134.362C86.7902 134.605 85.8264 134.813 84.7521 134.781C83.6774 134.746 82.7284 134.479 82.0891 134.197C81.4468 133.915 81.0993 133.651 81.1137 133.629C81.1348 133.592 81.5107 133.799 82.1539 134.032C82.7952 134.266 83.7187 134.497 84.7598 134.531C85.8004 134.561 86.7364 134.389 87.3912 134.194C88.0478 134.002 88.4356 133.818 88.4544 133.856Z" fill="white"/>
<path d="M98.9597 102.168C98.9712 102.169 98.977 102.325 98.904 102.595C98.8325 102.863 98.6607 103.239 98.3429 103.626C98.0256 104.012 97.5634 104.397 96.9936 104.723C96.4224 105.05 95.7538 105.305 95.0688 105.585C94.3853 105.866 93.745 106.162 93.2439 106.54C92.7432 106.919 92.3765 107.366 92.1586 107.786C91.7069 108.644 91.9056 109.283 91.8514 109.279C91.8413 109.281 91.778 109.138 91.7583 108.859C91.7372 108.581 91.7885 108.165 92.0002 107.708C92.2104 107.253 92.5834 106.768 93.1037 106.358C93.6269 105.947 94.284 105.638 94.9743 105.355C95.6645 105.072 96.3264 104.826 96.8818 104.522C97.4376 104.219 97.8908 103.864 98.2095 103.51C98.8608 102.796 98.9117 102.15 98.9597 102.168Z" fill="white"/>
<path d="M93.0637 91.9807C93.0805 91.985 93.0507 92.1391 92.9825 92.416C92.9509 92.5552 92.9053 92.7237 92.8342 92.9138C92.7651 93.1044 92.6979 93.3266 92.587 93.557C92.3907 94.0293 92.0979 94.566 91.7225 95.1295C91.3361 95.6853 90.8609 96.2628 90.2945 96.8023C89.7209 97.3351 89.1157 97.7743 88.5373 98.1256C87.9517 98.4659 87.3977 98.7251 86.9149 98.8922C86.6782 98.9887 86.4521 99.0424 86.2582 99.0995C86.0643 99.1591 85.8934 99.1941 85.7523 99.2171C85.4715 99.268 85.316 99.2882 85.3126 99.2714C85.3025 99.2248 85.9208 99.1053 86.851 98.7276C87.3176 98.5428 87.8518 98.272 88.4177 97.9288C88.9769 97.5741 89.5635 97.1402 90.1232 96.6204C90.6766 96.0933 91.1451 95.5346 91.5334 94.9984C91.9107 94.4546 92.2131 93.9381 92.4262 93.4835C92.8606 92.5778 93.0181 91.9677 93.0637 91.9807Z" fill="white"/>
<path d="M83.8228 85.6856C83.8291 85.7014 83.5814 85.8123 83.1263 85.999C82.6732 86.1905 82.0027 86.4305 81.1631 86.6926C80.3246 86.959 79.3079 87.2192 78.1675 87.4524C77.0246 87.6732 75.7564 87.859 74.4163 87.9622C73.0751 88.0558 71.7931 88.0572 70.63 88.0059C69.4675 87.9416 68.4239 87.8321 67.5556 87.6915C66.6868 87.5547 65.9884 87.415 65.5123 87.2916C65.0351 87.1736 64.7735 87.1001 64.7774 87.0833C64.7812 87.0665 65.05 87.1078 65.5319 87.1961C66.0124 87.2897 66.7127 87.4025 67.5801 87.5163C68.447 87.6339 69.4852 87.7246 70.6401 87.7755C71.7955 87.8139 73.067 87.8057 74.398 87.7126C75.7276 87.6104 76.9867 87.4328 78.1238 87.2264C79.2585 87.0075 80.2723 86.7665 81.1127 86.5232C81.9537 86.2841 82.6305 86.0705 83.0923 85.9073C83.5564 85.7499 83.8166 85.6697 83.8228 85.6856Z" fill="white"/>
<path d="M102.683 106.578C102.696 106.574 102.768 106.743 102.852 107.064C102.937 107.385 103.028 107.86 103.058 108.454C103.142 109.645 102.914 111.279 102.587 113.043C102.427 113.929 102.233 114.778 101.934 115.511C101.64 116.245 101.237 116.853 100.819 117.282C100.404 117.718 99.9811 117.975 99.6773 118.112C99.3715 118.249 99.1882 118.28 99.1843 118.267C99.157 118.221 99.911 118.037 100.689 117.162C101.075 116.732 101.446 116.142 101.719 115.426C101.998 114.71 102.182 113.879 102.34 112.998C102.668 111.233 102.919 109.63 102.882 108.46C102.864 107.291 102.635 106.59 102.683 106.578Z" fill="white"/>
<path d="M112.308 107.807C112.266 107.827 112.04 107.317 111.537 106.587C111.037 105.856 110.217 104.927 109.109 104.15C107.998 103.378 106.844 102.927 105.985 102.71C105.126 102.489 104.57 102.452 104.574 102.407C104.575 102.389 104.714 102.386 104.966 102.396C105.219 102.401 105.583 102.447 106.026 102.538C106.47 102.624 106.988 102.783 107.544 103.008C108.095 103.244 108.682 103.552 109.252 103.945C109.818 104.346 110.309 104.79 110.72 105.227C111.123 105.671 111.45 106.103 111.684 106.49C111.922 106.874 112.091 107.201 112.182 107.436C112.278 107.669 112.323 107.8 112.308 107.807Z" fill="white"/>
<g opacity="0.3">
<path d="M84.0995 132.952C84.6011 132.726 84.7499 132.041 84.4355 131.645C84.1211 131.25 83.558 131.161 83.0526 131.171C80.5734 131.22 78.4091 132.88 75.9697 133.325C74.114 133.664 72.2017 133.282 70.3964 132.734C68.5912 132.187 66.83 131.472 64.9763 131.122C64.5889 131.049 64.1848 130.992 63.8041 131.095C63.4235 131.198 63.0707 131.498 63.0227 131.89C62.9747 132.281 63.0668 132.571 63.6505 132.771C63.6505 132.771 69.7892 134.477 74.234 134.411C78.9496 134.34 84.0995 132.952 84.0995 132.952Z" fill="black"/>
</g>
<path d="M212.013 203.41H178.527V208.011H212.013V203.41Z" fill="#263238"/>
<path d="M212.068 208.067H178.469V203.352H212.068V208.067ZM178.583 207.953H211.954V203.466H178.583V207.953Z" fill="#263238"/>
<path d="M181.629 206.48L186.449 230.259H204.283L208.942 208.012L181.629 206.48Z" fill="#263238"/>
<path d="M181.629 228.008L184.2 231.542H205.877L208.942 228.008H181.629Z" fill="#455A64"/>
<path d="M194.012 207.175C193.946 207.175 193.862 196.159 193.823 182.573C193.785 168.982 193.808 157.969 193.873 157.969C193.939 157.969 194.024 168.982 194.062 182.573C194.1 196.159 194.078 207.175 194.012 207.175Z" fill="#263238"/>
<path d="M201.471 179.61C201.478 179.613 201.447 179.701 201.381 179.866C201.303 180.053 201.203 180.289 201.082 180.579C201.015 180.736 200.942 180.907 200.864 181.092C200.794 181.286 200.72 181.494 200.64 181.717C200.559 181.942 200.473 182.182 200.382 182.434C200.293 182.689 200.222 182.966 200.134 183.252C199.769 184.394 199.478 185.794 199.198 187.352C198.954 188.918 198.771 190.651 198.68 192.479C198.517 196.137 198.723 199.455 198.944 201.844C199.052 203.04 199.16 204.006 199.24 204.673C199.274 204.986 199.302 205.24 199.324 205.442C199.341 205.618 199.346 205.711 199.338 205.713C199.329 205.714 199.309 205.623 199.277 205.449C199.243 205.249 199.2 204.996 199.148 204.685C199.04 204.021 198.906 203.057 198.776 201.861C198.512 199.471 198.277 196.143 198.441 192.468C198.533 190.632 198.724 188.889 198.981 187.316C199.275 185.75 199.584 184.345 199.973 183.203C200.067 182.916 200.143 182.639 200.239 182.385C200.336 182.133 200.429 181.895 200.516 181.67C200.602 181.449 200.683 181.242 200.758 181.049C200.84 180.861 200.925 180.694 200.997 180.542C201.135 180.258 201.248 180.028 201.337 179.845C201.418 179.687 201.464 179.606 201.471 179.61Z" fill="#263238"/>
<path d="M200.613 170.699C200.62 170.702 200.583 170.827 200.506 171.063C200.419 171.318 200.303 171.658 200.157 172.087C200.08 172.311 199.994 172.557 199.902 172.825C199.819 173.1 199.728 173.397 199.632 173.715C199.436 174.352 199.209 175.076 199.008 175.891C198.901 176.298 198.789 176.723 198.672 177.165C198.571 177.612 198.466 178.077 198.358 178.558C198.124 179.516 197.955 180.558 197.739 181.646C197.37 183.834 197.045 186.253 196.821 188.804C196.609 191.357 196.517 193.797 196.485 196.016C196.478 198.236 196.507 200.236 196.598 201.913C196.628 202.752 196.681 203.51 196.725 204.175C196.763 204.842 196.805 205.415 196.847 205.882C196.882 206.334 196.909 206.693 196.929 206.961C196.946 207.209 196.95 207.339 196.942 207.34C196.934 207.341 196.913 207.212 196.882 206.967C196.85 206.699 196.808 206.341 196.755 205.891C196.699 205.424 196.643 204.852 196.592 204.186C196.536 203.52 196.471 202.762 196.43 201.922C196.317 200.243 196.271 198.24 196.266 196.015C196.286 193.79 196.372 191.344 196.584 188.784C196.809 186.225 197.141 183.8 197.523 181.608C197.745 180.518 197.922 179.474 198.165 178.514C198.279 178.033 198.388 177.568 198.494 177.12C198.616 176.678 198.733 176.253 198.846 175.847C199.058 175.032 199.297 174.309 199.506 173.674C199.609 173.358 199.705 173.062 199.795 172.788C199.895 172.522 199.987 172.278 200.071 172.055C200.235 171.633 200.365 171.296 200.462 171.045C200.553 170.815 200.605 170.696 200.613 170.699Z" fill="#263238"/>
<path d="M191.892 209.122C191.888 209.122 191.882 209.078 191.874 208.993C191.866 208.894 191.855 208.769 191.842 208.614C191.818 208.263 191.785 207.775 191.744 207.155C191.663 205.87 191.549 204.041 191.408 201.789C191.117 197.259 190.697 191.001 189.934 184.119C189.545 180.678 189.094 177.41 188.624 174.448C188.374 172.969 188.147 171.562 187.891 170.253C187.655 168.939 187.401 167.724 187.168 166.613C186.948 165.5 186.702 164.504 186.505 163.624C186.311 162.744 186.123 161.991 185.966 161.376C185.818 160.773 185.702 160.298 185.618 159.957C185.584 159.805 185.556 159.683 185.534 159.586C185.516 159.502 185.509 159.458 185.513 159.457C185.517 159.456 185.532 159.497 185.557 159.579C185.585 159.674 185.621 159.794 185.665 159.944C185.759 160.283 185.89 160.754 186.056 161.353C186.227 161.964 186.428 162.715 186.634 163.593C186.844 164.471 187.102 165.466 187.332 166.578C187.577 167.687 187.841 168.903 188.085 170.216C188.35 171.525 188.584 172.933 188.84 174.412C189.322 177.377 189.781 180.648 190.171 184.093C190.934 190.982 191.328 197.246 191.576 201.78C191.698 204.047 191.784 205.882 191.836 207.15C191.859 207.771 191.877 208.26 191.89 208.611C191.893 208.767 191.895 208.893 191.898 208.992C191.899 209.078 191.897 209.122 191.892 209.122Z" fill="#263238"/>
<path d="M193.74 163.266C193.594 161.706 192.017 160.528 190.45 160.512C188.882 160.496 187.421 161.435 186.463 162.676C185.504 163.916 184.976 165.43 184.543 166.936C183.488 170.613 182.911 174.476 183.362 178.274C183.813 182.073 185.354 185.813 188.08 188.496C188.523 188.933 189.097 189.369 189.705 189.239C190.038 189.168 190.31 188.938 190.562 188.71C195.917 183.873 199.009 176.628 198.797 169.415C198.755 167.971 198.565 166.467 197.765 165.264C196.966 164.061 195.101 162.783 193.74 163.266Z" fill="#044D3A"/>
<path d="M182.035 150.763C181.3 152.095 180.564 153.428 179.828 154.761C179.776 154.854 179.708 154.958 179.602 154.967C179.486 154.977 179.4 154.867 179.336 154.769C177.39 151.784 175.445 148.798 173.5 145.813L174.844 145.051L182.035 150.763Z" fill="#044D3A"/>
<g opacity="0.2">
<path d="M182.035 150.763C181.3 152.095 180.564 153.428 179.828 154.761C179.776 154.854 179.708 154.958 179.602 154.967C179.486 154.977 179.4 154.867 179.336 154.769C177.39 151.784 175.445 148.798 173.5 145.813L174.844 145.051L182.035 150.763Z" fill="black"/>
</g>
<path d="M193.874 157.968C187.238 154.052 180.602 150.137 173.966 146.221C173.763 146.101 173.543 145.959 173.481 145.732C173.402 145.437 173.623 145.153 173.836 144.934C176.574 142.109 180.551 140.472 184.475 140.754C188.399 141.036 192.172 143.303 194.093 146.736C196.014 150.17 196.078 154.71 193.874 157.968Z" fill="#044D3A"/>
<path d="M176.836 142.47C176.835 142.462 176.925 142.451 177.097 142.437C177.268 142.429 177.522 142.398 177.849 142.401C178.503 142.386 179.454 142.428 180.611 142.621C181.767 142.811 183.126 143.183 184.545 143.816C185.964 144.446 187.431 145.358 188.768 146.556C190.094 147.767 191.148 149.137 191.916 150.485C192.687 151.834 193.192 153.149 193.497 154.28C193.803 155.412 193.941 156.355 193.99 157.007C194.026 157.332 194.02 157.587 194.029 157.759C194.033 157.931 194.031 158.022 194.023 158.022C194.002 158.023 193.977 157.662 193.898 157.016C193.821 156.371 193.659 155.441 193.335 154.327C192.705 152.109 191.244 149.12 188.607 146.732C185.969 144.348 182.85 143.192 180.581 142.787C179.44 142.575 178.498 142.507 177.848 142.495C177.198 142.48 176.837 142.491 176.836 142.47Z" fill="#263238"/>
<path d="M191.179 149.86C191.19 149.891 190.807 150.068 190.172 150.318C189.538 150.568 188.652 150.887 187.66 151.203C186.669 151.517 185.76 151.768 185.098 151.93C184.435 152.092 184.02 152.168 184.012 152.137C184.003 152.104 184.403 151.97 185.052 151.767C185.786 151.538 186.642 151.27 187.588 150.975C188.531 150.671 189.384 150.395 190.116 150.159C190.763 149.95 191.167 149.829 191.179 149.86Z" fill="#263238"/>
<path d="M188.047 141.441C188.111 141.436 188.252 142.428 188.282 143.662C188.315 144.897 188.224 145.895 188.159 145.892C188.092 145.89 188.076 144.895 188.044 143.669C188.014 142.443 187.979 141.447 188.047 141.441Z" fill="#263238"/>
<path d="M173.793 146C173.784 145.97 174.335 145.77 175.239 145.491C176.144 145.212 177.404 144.86 178.808 144.521C180.213 144.183 181.495 143.923 182.427 143.759C183.359 143.596 183.94 143.523 183.946 143.554C183.952 143.588 183.382 143.719 182.46 143.925C181.538 144.13 180.264 144.416 178.864 144.752C177.463 145.09 176.2 145.416 175.286 145.653C174.371 145.89 173.803 146.033 173.793 146Z" fill="#263238"/>
<path d="M184.693 159.57C182.981 158.271 181.17 158.015 179.023 158.101C176.876 158.186 174.786 158.84 172.818 159.702C169.461 161.172 166.305 163.34 164.3 166.407C162.294 169.474 161.596 173.534 163.098 176.877C163.248 177.211 163.442 177.559 163.778 177.703C164.131 177.854 164.536 177.736 164.901 177.617C168.719 176.371 172.564 175.114 176.075 173.163C179.586 171.212 182.781 168.501 184.665 164.954C185.117 164.103 185.496 163.191 185.57 162.23C185.643 161.269 185.378 160.248 184.693 159.57Z" fill="#044D3A"/>
<path d="M184.728 159.166C184.731 159.174 184.636 159.212 184.453 159.277C184.247 159.348 183.982 159.44 183.653 159.552C183.477 159.611 183.283 159.676 183.074 159.745C182.864 159.821 182.64 159.915 182.397 160.009C181.914 160.204 181.353 160.4 180.763 160.686C180.464 160.822 180.152 160.965 179.827 161.112C179.502 161.262 179.178 161.446 178.835 161.621C178.143 161.961 177.443 162.395 176.697 162.836C175.234 163.761 173.684 164.875 172.176 166.188C170.681 167.517 169.379 168.912 168.275 170.246C167.743 170.93 167.223 171.569 166.798 172.212C166.581 172.531 166.356 172.829 166.166 173.132C165.978 173.435 165.797 173.727 165.624 174.006C165.264 174.555 165 175.086 164.744 175.54C164.62 175.769 164.498 175.979 164.397 176.178C164.301 176.377 164.212 176.56 164.131 176.728C163.978 177.039 163.853 177.291 163.756 177.487C163.668 177.659 163.618 177.748 163.61 177.745C163.603 177.742 163.638 177.646 163.712 177.467C163.799 177.266 163.909 177.009 164.047 176.689C164.122 176.518 164.205 176.331 164.294 176.128C164.39 175.926 164.507 175.712 164.626 175.479C164.871 175.018 165.127 174.478 165.479 173.92C165.648 173.637 165.826 173.34 166.01 173.032C166.198 172.725 166.419 172.423 166.634 172.1C167.055 171.448 167.572 170.8 168.103 170.109C169.205 168.758 170.512 167.348 172.018 166.01C173.537 164.687 175.101 163.57 176.581 162.649C177.335 162.211 178.043 161.781 178.743 161.446C179.09 161.274 179.419 161.093 179.747 160.946C180.076 160.802 180.392 160.664 180.695 160.532C181.293 160.254 181.861 160.068 182.35 159.884C182.596 159.795 182.823 159.707 183.036 159.638C183.249 159.575 183.444 159.517 183.624 159.464C183.959 159.368 184.229 159.291 184.439 159.231C184.627 159.18 184.727 159.158 184.728 159.166Z" fill="#263238"/>
<path d="M171.35 166.408C171.369 166.471 169.504 167.072 167.185 167.75C164.866 168.428 162.972 168.926 162.953 168.863C162.935 168.8 164.799 168.199 167.118 167.521C169.437 166.843 171.332 166.345 171.35 166.408Z" fill="#263238"/>
<path d="M171.179 175.601C171.147 175.602 171.109 175.106 171.087 174.303C171.065 173.501 171.062 172.392 171.096 171.168C171.13 169.943 171.196 168.836 171.262 168.036C171.329 167.236 171.394 166.744 171.426 166.746C171.46 166.749 171.454 167.245 171.43 168.046C171.403 168.925 171.37 169.993 171.334 171.175C171.304 172.356 171.278 173.424 171.256 174.303C171.234 175.105 171.212 175.601 171.179 175.601Z" fill="#263238"/>
<path d="M179.053 171.591C178.987 171.595 178.778 169.341 178.585 166.558C178.393 163.773 178.29 161.513 178.356 161.508C178.422 161.503 178.631 163.757 178.823 166.541C179.016 169.325 179.119 171.586 179.053 171.591Z" fill="#263238"/>
<path d="M169.254 161.288C169.256 161.255 169.766 161.242 170.589 161.247C171.412 161.253 172.548 161.277 173.802 161.318C175.057 161.36 176.193 161.411 177.015 161.46C177.836 161.509 178.345 161.555 178.344 161.588C178.344 161.621 177.834 161.634 177.011 161.628C176.188 161.622 175.051 161.598 173.795 161.557C172.539 161.515 171.403 161.464 170.581 161.415C169.759 161.367 169.252 161.321 169.254 161.288Z" fill="#263238"/>
<path d="M188.934 189.568C188.926 189.568 188.916 189.474 188.906 189.296C188.897 189.091 188.885 188.832 188.871 188.514C188.841 187.834 188.834 186.85 188.86 185.634C188.881 184.418 188.963 182.971 189.106 181.369C189.261 179.768 189.485 178.013 189.806 176.184C190.137 174.356 190.532 172.631 190.939 171.074C191.358 169.521 191.782 168.135 192.181 166.986C192.577 165.837 192.923 164.915 193.186 164.288C193.309 163.994 193.41 163.755 193.489 163.566C193.56 163.402 193.602 163.317 193.609 163.32C193.617 163.323 193.591 163.414 193.534 163.583C193.465 163.776 193.379 164.021 193.272 164.321C193.037 164.957 192.715 165.886 192.341 167.039C191.963 168.191 191.557 169.578 191.151 171.13C190.757 172.684 190.369 174.404 190.041 176.225C189.72 178.047 189.49 179.795 189.324 181.39C189.169 182.985 189.071 184.426 189.028 185.639C188.981 186.851 188.963 187.833 188.964 188.512C188.96 188.83 188.957 189.089 188.954 189.294C188.949 189.473 188.943 189.567 188.934 189.568Z" fill="#263238"/>
<path d="M189.984 175.986C190.006 176.009 189.705 176.344 189.19 176.857C188.675 177.371 187.944 178.06 187.109 178.792C186.274 179.524 185.495 180.159 184.918 180.602C184.342 181.046 183.97 181.301 183.95 181.275C183.929 181.249 184.263 180.948 184.811 180.472C185.423 179.941 186.149 179.31 186.952 178.613C187.747 177.909 188.467 177.272 189.074 176.735C189.618 176.253 189.96 175.961 189.984 175.986Z" fill="#263238"/>
<path d="M196.283 181.059C196.255 181.078 195.939 180.625 195.438 179.888C194.893 179.094 194.218 178.107 193.471 177.017C192.707 175.937 192.018 174.96 191.462 174.174C190.946 173.448 190.631 172.994 190.658 172.973C190.683 172.954 191.045 173.371 191.597 174.073C192.149 174.774 192.888 175.762 193.666 176.88C194.444 177.998 195.114 179.034 195.58 179.796C196.045 180.557 196.311 181.042 196.283 181.059Z" fill="#263238"/>
<path d="M192.983 165.095C193.019 165.151 190.926 166.56 188.309 168.243C185.691 169.926 183.54 171.245 183.504 171.19C183.469 171.134 185.562 169.725 188.18 168.042C190.797 166.359 192.948 165.04 192.983 165.095Z" fill="#263238"/>
<path d="M198.886 171.469C198.839 171.516 197.422 170.206 195.719 168.543C194.016 166.88 192.674 165.494 192.72 165.447C192.766 165.4 194.183 166.709 195.886 168.373C197.589 170.035 198.932 171.421 198.886 171.469Z" fill="#263238"/>
<path d="M200.371 171.338L202.168 171.189C203.444 171.084 204.682 170.706 205.797 170.079C206.348 169.769 206.902 169.465 207.488 169.229C209.709 168.337 212.188 168.497 214.579 168.377C218.481 168.181 222.343 167.194 225.86 165.492C226.063 165.394 226.243 165.244 226.352 165.046C226.721 164.374 226.035 163.775 225.445 163.412C222.417 161.547 219.336 159.657 215.903 158.732C212.47 157.806 208.573 157.962 205.643 159.978C202.205 162.345 200.952 167.205 200.371 171.338Z" fill="#044D3A"/>
<path d="M226.393 164.826C226.389 164.834 226.284 164.785 226.088 164.684C225.873 164.571 225.589 164.423 225.237 164.238C224.498 163.85 223.435 163.276 222.091 162.632C220.746 161.995 219.117 161.275 217.221 160.755C215.333 160.231 213.155 159.956 210.909 160.244C208.673 160.539 206.614 161.409 205.156 162.715C203.689 164.016 202.793 165.588 202.161 166.923C201.529 168.27 201.14 169.416 200.857 170.199C200.724 170.575 200.618 170.876 200.537 171.106C200.462 171.313 200.419 171.42 200.411 171.417C200.404 171.415 200.432 171.302 200.492 171.091C200.562 170.858 200.654 170.552 200.769 170.17C201.026 169.375 201.391 168.219 202.007 166.852C202.626 165.497 203.517 163.892 205.011 162.55C206.496 161.203 208.603 160.307 210.879 160.008C213.163 159.714 215.376 160.002 217.28 160.544C219.192 161.081 220.824 161.822 222.164 162.481C223.503 163.147 224.555 163.743 225.281 164.157C225.625 164.358 225.901 164.52 226.111 164.642C226.3 164.756 226.397 164.819 226.393 164.826Z" fill="#263238"/>
<path d="M222.076 167.146C222.039 167.201 219.689 165.681 216.827 163.751C213.965 161.821 211.674 160.212 211.711 160.158C211.748 160.103 214.098 161.623 216.961 163.553C219.822 165.483 222.113 167.092 222.076 167.146Z" fill="#263238"/>
<path d="M219.818 159.931C219.831 159.994 219.015 160.206 217.984 160.299C216.952 160.395 216.112 160.336 216.113 160.272C216.113 160.204 216.944 160.157 217.962 160.062C218.98 159.97 219.805 159.864 219.818 159.931Z" fill="#263238"/>
<path d="M209.281 158.044C209.337 158.078 208.992 158.768 208.51 159.586C208.027 160.404 207.59 161.04 207.533 161.007C207.477 160.974 207.822 160.283 208.304 159.465C208.787 158.647 209.224 158.011 209.281 158.044Z" fill="#263238"/>
<path d="M211.388 168.529C211.372 168.556 210.936 168.328 210.257 167.916C209.579 167.505 208.661 166.901 207.681 166.189C206.7 165.477 205.836 164.804 205.215 164.311C204.594 163.818 204.219 163.501 204.239 163.474C204.259 163.448 204.67 163.717 205.316 164.176C206.021 164.688 206.876 165.309 207.821 165.996C208.798 166.705 209.696 167.328 210.349 167.775C211.002 168.222 211.406 168.5 211.388 168.529Z" fill="#263238"/>
<path d="M203.018 178.971C201.303 178.519 199.261 180.186 198.907 181.923C198.554 183.66 199.205 185.437 199.968 187.037C201.657 190.579 203.987 193.865 207.056 196.31C210.125 198.756 213.969 200.32 217.893 200.3C217.168 196.935 218.085 193.419 217.681 190C217.328 187.016 215.937 184.165 213.801 182.051C211.666 179.937 208.801 178.574 205.814 178.251C204.72 178.133 203.454 177.961 203.018 178.971Z" fill="#044D3A"/>
<path d="M217.893 200.301C217.89 200.308 217.806 200.269 217.65 200.188C217.495 200.103 217.272 199.967 217.008 199.757C216.47 199.349 215.854 198.562 215.316 197.494C215.043 196.964 214.737 196.387 214.439 195.75C214.149 195.11 213.841 194.428 213.517 193.712C213.19 192.997 212.83 192.256 212.384 191.533C211.939 190.809 211.41 190.101 210.824 189.412C209.65 188.034 208.391 186.841 207.3 185.702C206.203 184.568 205.281 183.475 204.613 182.479C203.94 181.487 203.532 180.598 203.301 179.971C203.19 179.655 203.11 179.408 203.072 179.236C203.028 179.065 203.01 178.975 203.017 178.973C203.039 178.966 203.137 179.323 203.387 179.937C203.643 180.548 204.069 181.414 204.753 182.383C205.43 183.356 206.357 184.427 207.458 185.549C208.554 186.676 209.82 187.866 211.006 189.258C211.598 189.954 212.133 190.673 212.583 191.411C213.034 192.149 213.393 192.901 213.717 193.621C214.033 194.34 214.335 195.025 214.618 195.668C214.905 196.303 215.203 196.884 215.466 197.418C215.982 198.488 216.558 199.263 217.068 199.687C217.569 200.118 217.907 200.278 217.893 200.301Z" fill="#263238"/>
<path d="M209.028 197.503C208.997 197.496 209.051 197.055 209.186 196.349C209.32 195.643 209.54 194.674 209.837 193.618C210.135 192.562 210.453 191.621 210.707 190.949C210.961 190.277 211.145 189.872 211.175 189.883C211.207 189.895 211.078 190.32 210.866 191.004C210.654 191.688 210.363 192.632 210.066 193.683C209.771 194.734 209.526 195.692 209.35 196.386C209.174 197.08 209.062 197.509 209.028 197.503Z" fill="#263238"/>
<path d="M217.569 189.244C217.558 189.276 217.1 189.159 216.362 188.966C215.623 188.773 214.604 188.509 213.469 188.253C212.334 187.998 211.299 187.799 210.549 187.657C209.8 187.515 209.335 187.425 209.34 187.39C209.344 187.359 209.817 187.391 210.576 187.491C211.335 187.591 212.38 187.764 213.522 188.021C214.662 188.278 215.681 188.569 216.409 188.804C217.137 189.04 217.579 189.213 217.569 189.244Z" fill="#263238"/>
<path d="M202.672 191.643C202.64 191.637 202.706 191.126 202.857 190.308C203.008 189.49 203.248 188.365 203.568 187.136C203.889 185.907 204.23 184.808 204.498 184.021C204.767 183.233 204.959 182.756 204.989 182.766C205.021 182.776 204.886 183.273 204.659 184.071C204.433 184.87 204.119 185.972 203.799 187.197C203.48 188.421 203.215 189.536 203.023 190.343C202.83 191.151 202.705 191.65 202.672 191.643Z" fill="#263238"/>
<path d="M213.638 182.044C213.631 182.109 211.491 181.937 208.859 181.657C206.227 181.378 204.099 181.099 204.105 181.033C204.112 180.968 206.252 181.141 208.884 181.42C211.517 181.699 213.645 181.978 213.638 182.044Z" fill="#263238"/>
<path d="M212.065 207.991C212.065 208.056 204.544 208.11 195.268 208.11C185.989 208.11 178.469 208.057 178.469 207.991C178.469 207.924 185.988 207.871 195.268 207.871C204.544 207.871 212.065 207.924 212.065 207.991Z" fill="#455A64"/>
<path d="M206.835 217.67C206.835 217.736 201.767 217.789 195.518 217.789C189.266 217.789 184.199 217.736 184.199 217.67C184.199 217.604 189.266 217.551 195.518 217.551C201.767 217.551 206.835 217.604 206.835 217.67Z" fill="#455A64"/>
<path d="M207.03 219.057C207.03 219.122 201.963 219.176 195.713 219.176C189.461 219.176 184.395 219.122 184.395 219.057C184.395 218.991 189.461 218.938 195.713 218.938C201.963 218.938 207.03 218.991 207.03 219.057Z" fill="#455A64"/>
<path d="M207.031 216.53C207.031 216.595 201.789 216.649 195.325 216.649C188.858 216.649 183.617 216.596 183.617 216.53C183.617 216.464 188.858 216.41 195.325 216.41C201.789 216.41 207.031 216.464 207.031 216.53Z" fill="#455A64"/>
<path d="M221.391 231.543C221.391 231.612 175.993 231.668 120.005 231.668C63.9972 231.668 18.6094 231.611 18.6094 231.543C18.6094 231.474 63.9977 231.418 120.005 231.418C175.993 231.418 221.391 231.474 221.391 231.543Z" fill="#263238"/>
</svg>
