<svg width="24" height="24" viewBox="0 0 24 24" fill="none" xmlns="http://www.w3.org/2000/svg">
<g id="wide 1" clip-path="url(#clip0_1582_98869)">
<g id="Layer 2">
<path id="Vector" d="M18.96 0.75H5.04C3.90283 0.751983 2.8128 1.2046 2.0087 2.0087C1.2046 2.8128 0.751983 3.90283 0.75 5.04V18.96C0.751983 20.0972 1.2046 21.1872 2.0087 21.9913C2.8128 22.7954 3.90283 23.248 5.04 23.25H18.96C20.0972 23.248 21.1872 22.7954 21.9913 21.9913C22.7954 21.1872 23.248 20.0972 23.25 18.96V5.04C23.248 3.90283 22.7954 2.8128 21.9913 2.0087C21.1872 1.2046 20.0972 0.751983 18.96 0.75ZM21.75 18.96C21.748 19.6993 21.4534 20.4078 20.9306 20.9306C20.4078 21.4534 19.6993 21.748 18.96 21.75H5.04C4.30065 21.748 3.59216 21.4534 3.06936 20.9306C2.54656 20.4078 2.25198 19.6993 2.25 18.96V5.04C2.25198 4.30065 2.54656 3.59216 3.06936 3.06936C3.59216 2.54656 4.30065 2.25198 5.04 2.25H18.96C19.6993 2.25198 20.4078 2.54656 20.9306 3.06936C21.4534 3.59216 21.748 4.30065 21.75 5.04V18.96Z" fill="#333333"/>
<path id="Vector_2" d="M18.75 13.38C18.5511 13.38 18.3603 13.459 18.2197 13.5997C18.079 13.7403 18 13.9311 18 14.13V16.9425L7.0575 6H9.87C10.0689 6 10.2597 5.92098 10.4003 5.78033C10.541 5.63968 10.62 5.44891 10.62 5.25C10.62 5.05109 10.541 4.86032 10.4003 4.71967C10.2597 4.57902 10.0689 4.5 9.87 4.5H5.0175C4.88025 4.5 4.74862 4.55452 4.65157 4.65157C4.55452 4.74862 4.5 4.88025 4.5 5.0175V9.87C4.5 10.0689 4.57902 10.2597 4.71967 10.4003C4.86032 10.541 5.05109 10.62 5.25 10.62C5.44891 10.62 5.63968 10.541 5.78033 10.4003C5.92098 10.2597 6 10.0689 6 9.87V7.0575L16.9425 18H14.13C13.9311 18 13.7403 18.079 13.5997 18.2197C13.459 18.3603 13.38 18.5511 13.38 18.75C13.38 18.9489 13.459 19.1397 13.5997 19.2803C13.7403 19.421 13.9311 19.5 14.13 19.5H18.9825C19.1197 19.5 19.2514 19.4455 19.3484 19.3484C19.4455 19.2514 19.5 19.1197 19.5 18.9825V14.13C19.5 13.9311 19.421 13.7403 19.2803 13.5997C19.1397 13.459 18.9489 13.38 18.75 13.38Z" fill="#333333"/>
</g>
</g>
<defs>
<clipPath id="clip0_1582_98869">
<rect width="24" height="24" fill="white"/>
</clipPath>
</defs>
</svg>
