<svg width="24" height="25" viewBox="0 0 24 25" fill="none" xmlns="http://www.w3.org/2000/svg">
<g id="noun-wind-4507827 1">
<g id="Group">
<path id="Vector" d="M3.93287 11.0663H11.6101C12.5389 11.073 13.4376 10.7364 14.1335 10.1212C14.8294 9.5059 15.2736 8.6553 15.3809 7.73268C15.4843 6.69646 15.1409 5.66522 14.4367 4.89794C13.7376 4.13038 12.748 3.69218 11.7098 3.69043H9.63818C9.30496 3.69043 8.99707 3.86829 8.83044 4.15678C8.66383 4.4454 8.66383 4.80098 8.83044 5.08959C8.99705 5.37808 9.30496 5.55595 9.63818 5.55595H11.7098C12.2348 5.55662 12.7341 5.78363 13.08 6.17858C13.4258 6.57355 13.5849 7.09839 13.5164 7.61899C13.4477 8.06562 13.2192 8.47212 12.8732 8.76286C12.5274 9.05375 12.0878 9.20898 11.636 9.2H3.9327C3.59948 9.2 3.29159 9.37772 3.12496 9.66635C2.95834 9.95499 2.95836 10.3104 3.12496 10.599C3.29157 10.8876 3.59948 11.0654 3.9327 11.0654L3.93287 11.0663Z" fill="#483C32"/>
<path id="Vector_2" d="M20.9833 17.2194C20.876 16.2968 20.4319 15.4463 19.7361 14.8312C19.0402 14.216 18.1418 13.8793 17.213 13.8858H10.7999C10.4667 13.8858 10.1588 14.0636 9.99214 14.3522C9.82554 14.6408 9.82554 14.9964 9.99214 15.2849C10.1588 15.5735 10.4667 15.7512 10.7999 15.7512H17.2384C17.6901 15.7422 18.1298 15.8976 18.4756 16.1884C18.8216 16.4793 19.0501 16.8857 19.1188 17.3322C19.1873 17.8528 19.0284 18.3777 18.6824 18.7726C18.3365 19.1677 17.8372 19.3946 17.3122 19.3954H15.2398C14.9066 19.3954 14.5987 19.5731 14.432 19.8618C14.2654 20.1502 14.2654 20.5058 14.432 20.7944C14.5986 21.083 14.9066 21.2608 15.2398 21.2608H17.3113C18.3499 21.2598 19.3403 20.8219 20.0398 20.0542C20.7437 19.2868 21.0868 18.2556 20.983 17.2195L20.9833 17.2194Z" fill="#483C32"/>
<path id="Vector_3" d="M8.74479 14.8203C8.74466 14.5728 8.64635 14.3356 8.47157 14.1606C8.29666 13.9856 8.05946 13.887 7.81212 13.8867H3.93269C3.59948 13.8867 3.29158 14.0644 3.12496 14.3531C2.95835 14.6417 2.95835 14.9973 3.12496 15.2857C3.29156 15.5744 3.59947 15.7521 3.93269 15.7521H7.81212C8.05922 15.7518 8.29613 15.6535 8.47092 15.4789C8.64571 15.3042 8.74427 15.0675 8.74481 14.8204L8.74479 14.8203Z" fill="#483C32"/>
<path id="Vector_4" d="M15.7052 11.6682C15.7848 11.6682 15.8611 11.6366 15.9173 11.5804L16.5495 10.9482H16.5494C17.4182 11.1204 18.3143 10.8314 18.9188 10.1841C19.5234 9.53685 19.7505 8.6232 19.5194 7.76819C19.4918 7.66426 19.4106 7.5831 19.3067 7.55551C18.4517 7.32448 17.538 7.55162 16.8907 8.15606C16.2435 8.76062 15.9544 9.65675 16.1267 10.5255L15.4931 11.1558C15.4074 11.2416 15.3817 11.3706 15.4281 11.4827C15.4746 11.5948 15.5839 11.6678 15.7052 11.6679L15.7052 11.6682Z" fill="#483C32"/>
<path id="Vector_5" d="M9.2314 17.0152L8.59923 16.383C8.48151 16.2693 8.29441 16.271 8.17868 16.3867C8.06295 16.5025 8.06135 16.6896 8.17506 16.8073L8.80682 17.4395V17.4393C8.64409 18.276 8.90579 19.1387 9.50581 19.744C10.1298 20.3614 11.5245 20.8858 12.1998 20.194H12.1999C12.4307 19.3393 12.2037 18.426 11.5996 17.7789C10.9955 17.1316 10.0999 16.8424 9.23138 17.014L9.2314 17.0152Z" fill="#483C32"/>
</g>
</g>
</svg>
