<svg width="18" height="19" viewBox="0 0 18 19" fill="none" xmlns="http://www.w3.org/2000/svg">
<g id="about 1" clip-path="url(#clip0_1583_111017)">
<g id="Layer 3">
<path id="Vector" d="M9 0.5C7.21997 0.5 5.47991 1.02784 3.99987 2.01677C2.51983 3.00571 1.36628 4.41131 0.685088 6.05585C0.00389957 7.70038 -0.17433 9.50998 0.172937 11.2558C0.520203 13.0016 1.37737 14.6053 2.63604 15.864C3.89471 17.1226 5.49836 17.9798 7.24419 18.3271C8.99002 18.6743 10.7996 18.4961 12.4442 17.8149C14.0887 17.1337 15.4943 15.9802 16.4832 14.5001C17.4722 13.0201 18 11.28 18 9.5C17.9973 7.11388 17.0482 4.82626 15.361 3.13902C13.6737 1.45178 11.3861 0.5027 9 0.5ZM9 17.3C7.45731 17.3 5.94926 16.8425 4.66656 15.9855C3.38385 15.1284 2.38411 13.9102 1.79374 12.4849C1.20338 11.0597 1.04891 9.49135 1.34988 7.97829C1.65084 6.46524 2.39372 5.07542 3.48457 3.98457C4.57542 2.89372 5.96525 2.15084 7.4783 1.84987C8.99135 1.54891 10.5597 1.70338 11.9849 2.29374C13.4102 2.8841 14.6284 3.88385 15.4855 5.16655C16.3425 6.44925 16.8 7.9573 16.8 9.5C16.7976 11.568 15.9751 13.5505 14.5128 15.0128C13.0505 16.4751 11.068 17.2976 9 17.3Z" fill="#484848"/>
<path id="Vector_2" d="M10.2002 13.1016H9.60019V7.70156C9.60019 7.54243 9.53698 7.38982 9.42446 7.2773C9.31194 7.16478 9.15932 7.10156 9.0002 7.10156H7.8002C7.64107 7.10156 7.48845 7.16478 7.37593 7.2773C7.26341 7.38982 7.2002 7.54243 7.2002 7.70156C7.2002 7.86069 7.26341 8.0133 7.37593 8.12583C7.48845 8.23835 7.64107 8.30156 7.8002 8.30156H8.4002V13.1016H7.8002C7.64107 13.1016 7.48845 13.1648 7.37593 13.2773C7.26341 13.3898 7.2002 13.5424 7.2002 13.7016C7.2002 13.8607 7.26341 14.0133 7.37593 14.1258C7.48845 14.2383 7.64107 14.3016 7.8002 14.3016H10.2002C10.3593 14.3016 10.5119 14.2383 10.6245 14.1258C10.737 14.0133 10.8002 13.8607 10.8002 13.7016C10.8002 13.5424 10.737 13.3898 10.6245 13.2773C10.5119 13.1648 10.3593 13.1016 10.2002 13.1016Z" fill="#484848"/>
<path id="Vector_3" d="M9.00039 5.89971C9.33176 5.89971 9.60039 5.63108 9.60039 5.29971C9.60039 4.96834 9.33176 4.69971 9.00039 4.69971C8.66902 4.69971 8.40039 4.96834 8.40039 5.29971C8.40039 5.63108 8.66902 5.89971 9.00039 5.89971Z" fill="#484848"/>
</g>
</g>
<defs>
<clipPath id="clip0_1583_111017">
<rect width="18" height="18" fill="white" transform="translate(0 0.5)"/>
</clipPath>
</defs>
</svg>
