<svg width="18" height="19" viewBox="0 0 18 19" fill="none" xmlns="http://www.w3.org/2000/svg">
<g id="calculator (2) 1" clip-path="url(#clip0_1583_110959)">
<g id="g195">
<g id="g197">
<g id="Clip path group">
<mask id="mask0_1583_110959" style="mask-type:luminance" maskUnits="userSpaceOnUse" x="0" y="0" width="18" height="19">
<g id="clipPath203">
<path id="path201" d="M0 0.500002H18V18.5H0V0.500002Z" fill="white"/>
</g>
</mask>
<g mask="url(#mask0_1583_110959)">
<g id="g199">
<g id="g205">
<path id="path207" d="M7.62891 13.0508C7.62891 10.3325 9.8325 8.12891 12.5508 8.12891C14.2036 8.12891 15.666 8.94365 16.5586 10.1934V2.08203C16.5586 1.49953 16.0864 1.02734 15.5039 1.02734H1.58203C0.999562 1.02734 0.527344 1.49953 0.527344 2.08203V16.0039C0.527344 16.5864 0.999562 17.0586 1.58203 17.0586H9.69335C8.44365 16.166 7.62891 14.7036 7.62891 13.0508Z" stroke="#484848" stroke-width="1.05469" stroke-miterlimit="10" stroke-linecap="round" stroke-linejoin="round"/>
</g>
<g id="g209">
<path id="path211" d="M8.54297 9.04297H0.527344" stroke="#484848" stroke-width="1.05469" stroke-miterlimit="10" stroke-linecap="round" stroke-linejoin="round"/>
</g>
<g id="g213">
<path id="path215" d="M3.30469 5.03516H5.76562" stroke="#484848" stroke-width="1.05469" stroke-miterlimit="10" stroke-linecap="round" stroke-linejoin="round"/>
</g>
<g id="g217">
<path id="path219" d="M4.53516 6.26562V3.80469" stroke="#484848" stroke-width="1.05469" stroke-miterlimit="10" stroke-linecap="round" stroke-linejoin="round"/>
</g>
<g id="g221">
<path id="path223" d="M11.4961 5.03516H13.6055" stroke="#484848" stroke-width="1.05469" stroke-miterlimit="10" stroke-linecap="round" stroke-linejoin="round"/>
</g>
<g id="g225">
<path id="path227" d="M11.3203 13.9297H13.7812" stroke="#484848" stroke-width="1.05469" stroke-miterlimit="10" stroke-linecap="round" stroke-linejoin="round"/>
</g>
<g id="g229">
<path id="path231" d="M11.3203 12.1719H13.7812" stroke="#484848" stroke-width="1.05469" stroke-miterlimit="10" stroke-linecap="round" stroke-linejoin="round"/>
</g>
<g id="g233">
<path id="path235" d="M3.65625 12.1719L5.41406 13.9297" stroke="#484848" stroke-width="1.05469" stroke-miterlimit="10" stroke-linecap="round" stroke-linejoin="round"/>
</g>
<g id="g237">
<path id="path239" d="M3.65625 13.9297L5.41406 12.1719" stroke="#484848" stroke-width="1.05469" stroke-miterlimit="10" stroke-linecap="round" stroke-linejoin="round"/>
</g>
<g id="g241">
<path id="path243" d="M17.4727 13.0508C17.4727 15.7691 15.2691 17.9727 12.5508 17.9727C9.8325 17.9727 7.62891 15.7691 7.62891 13.0508C7.62891 10.3325 9.8325 8.12891 12.5508 8.12891C15.2691 8.12891 17.4727 10.3325 17.4727 13.0508Z" stroke="#484848" stroke-width="1.05469" stroke-miterlimit="10" stroke-linecap="round" stroke-linejoin="round"/>
</g>
<g id="g245">
<path id="path247" d="M8.54297 10.1934V1.02735" stroke="#484848" stroke-width="1.05469" stroke-miterlimit="10" stroke-linecap="round" stroke-linejoin="round"/>
</g>
</g>
</g>
</g>
</g>
</g>
</g>
<defs>
<clipPath id="clip0_1583_110959">
<rect width="18" height="18" fill="white" transform="translate(0 0.5)"/>
</clipPath>
</defs>
</svg>
