<svg width="20" height="20" viewBox="0 0 20 20" fill="none" xmlns="http://www.w3.org/2000/svg">
<g id="chat (7) 1" clip-path="url(#clip0_1688_5126)">
<g id="Group">
<g id="object_6_">
<g id="Group_2">
<path id="Vector" d="M9.99973 19.9995C4.477 19.9995 -3.90613e-05 15.5224 2.55603e-10 9.99969C2.55603e-10 7.3476 1.05353 4.80415 2.92884 2.92884C6.83457 -0.976187 13.1665 -0.975601 17.0714 2.93013C20.4767 6.33602 20.9706 11.6854 18.2464 15.6571C18.3726 16.1774 19.0978 17.6483 19.7654 18.8228C19.9541 19.1547 19.838 19.5767 19.5061 19.7653C19.298 19.8836 19.0435 19.8858 18.8333 19.7711C18.8264 19.7671 18.1267 19.386 17.34 19.0083C16.2375 18.4791 15.7608 18.3369 15.5803 18.2987C13.9321 19.4112 11.9882 20.0037 9.99973 19.9995ZM9.99973 1.38235C5.24808 1.38235 1.38235 5.24808 1.38235 9.99973C1.38235 14.7514 5.24808 18.6171 9.99973 18.6171C11.7665 18.6209 13.4913 18.0781 14.9375 17.0632C15.3245 16.792 15.8419 16.9124 16.3433 17.0829C16.6679 17.1935 17.0734 17.3602 17.5504 17.5797C17.3281 17.1201 17.1578 16.7297 17.0434 16.4175C16.8321 15.8409 16.745 15.3819 17.0067 15.0172C18.058 13.5558 18.6216 11.8 18.6172 9.99977C18.6172 5.24808 14.7514 1.38235 9.99973 1.38235Z" fill="#333333"/>
</g>
</g>
</g>
</g>
<defs>
<clipPath id="clip0_1688_5126">
<rect width="20" height="20" fill="white"/>
</clipPath>
</defs>
</svg>
