<svg width="18" height="19" viewBox="0 0 18 19" fill="none" xmlns="http://www.w3.org/2000/svg">
<g id="customer-service 1">
<path id="Vector" d="M8.99942 13.4725C11.4387 13.4725 13.4233 11.4884 13.4233 9.04964C13.4219 7.87677 12.9554 6.75232 12.1261 5.92298C11.2967 5.09363 10.1723 4.62712 8.99942 4.62579C6.56063 4.62579 4.57656 6.61033 4.57656 9.04964C4.57845 10.1655 5.00043 11.2398 5.75851 12.0586L5.30102 13.7653C5.27401 13.8661 5.27748 13.9726 5.31102 14.0714C5.34455 14.1702 5.40663 14.2568 5.4894 14.3203C5.57217 14.3838 5.67191 14.4213 5.77601 14.4281C5.88011 14.4349 5.98389 14.4107 6.07421 14.3585L7.86349 13.3246C8.2341 13.423 8.61596 13.4728 8.99942 13.4725ZM7.53175 12.2983L6.64965 12.8081L6.85595 12.0385C6.88075 11.946 6.87988 11.8485 6.85345 11.7564C6.82701 11.6644 6.776 11.5813 6.7059 11.516C6.36539 11.202 6.09398 10.8206 5.90896 10.396C5.72394 9.97144 5.62936 9.51297 5.63124 9.04982C5.63149 8.33884 5.85679 7.64619 6.27485 7.07112C6.69291 6.49605 7.28228 6.06806 7.9585 5.8485C8.63473 5.62893 9.3631 5.62906 10.0392 5.84885C10.7154 6.06864 11.3046 6.49683 11.7225 7.07204C12.1404 7.64726 12.3654 8.33999 12.3654 9.05096C12.3654 9.76194 12.1404 10.4547 11.7225 11.0299C11.3047 11.6051 10.7155 12.0333 10.0393 12.2531C9.36319 12.4729 8.63482 12.4731 7.95859 12.2535C7.88828 12.2306 7.81395 12.2228 7.74042 12.2305C7.66689 12.2382 7.59579 12.2613 7.53175 12.2982V12.2983ZM17.7116 9.42627C17.7174 9.21048 17.7233 8.98735 17.713 8.75504C17.6852 8.10598 17.4066 7.49305 16.9359 7.04531C16.4651 6.59757 15.8391 6.34995 15.1894 6.3546C14.1468 3.96921 11.7648 2.29785 8.99942 2.29785C6.23407 2.29785 3.85304 3.96918 2.81038 6.35457C2.16089 6.34995 1.53495 6.59748 1.06429 7.04505C0.59362 7.49263 0.314939 8.10533 0.286895 8.75423C0.276559 8.98738 0.282501 9.21055 0.288231 9.42638C0.294313 9.6544 0.300571 9.89019 0.288864 10.1552C0.260948 10.8195 0.497603 11.4677 0.946936 11.9578C1.39627 12.4478 2.0216 12.7397 2.68582 12.7694C2.72515 12.7712 2.76439 12.7721 2.80356 12.7721C3.13462 12.7723 3.46236 12.7061 3.76736 12.5774C3.8948 12.524 3.99614 12.4226 4.04951 12.2952C4.10287 12.1677 4.10399 12.0244 4.05262 11.8961C4.04624 11.8713 4.03649 11.8473 4.02365 11.8251C3.55119 10.9763 3.30323 10.021 3.30327 9.04964C3.30327 5.90826 5.85856 3.35254 8.99942 3.35254C12.1403 3.35254 14.6966 5.9084 14.6966 9.04964C14.7003 10.3793 14.2372 11.6682 13.3882 12.6915C12.5392 13.7148 11.3579 14.4078 10.0504 14.6496C9.91268 14.3378 9.67036 14.084 9.36534 13.932C9.06031 13.78 8.71176 13.7393 8.37992 13.817C8.04808 13.8947 7.75382 14.0858 7.54799 14.3575C7.34215 14.6291 7.23769 14.9641 7.25266 15.3046C7.26763 15.6451 7.40108 15.9697 7.62996 16.2222C7.85883 16.4747 8.16874 16.6393 8.50611 16.6876C8.84349 16.7359 9.18713 16.6648 9.47764 16.4866C9.76814 16.3083 9.98726 16.0342 10.0971 15.7116C11.0259 15.558 11.9124 15.2121 12.6999 14.6961C13.4873 14.1802 14.1584 13.5055 14.6701 12.7152C14.8427 12.753 15.0189 12.772 15.1957 12.7722C15.2344 12.7722 15.2733 12.7713 15.3122 12.7695C15.6414 12.7553 15.9646 12.6764 16.2634 12.5373C16.5621 12.3982 16.8305 12.2017 17.0532 11.9588C17.276 11.716 17.4487 11.4317 17.5616 11.1221C17.6744 10.8125 17.7252 10.4837 17.7109 10.1545C17.6993 9.89034 17.7056 9.65433 17.7116 9.42627ZM2.73272 11.7158C2.34768 11.6988 1.98509 11.5297 1.72449 11.2458C1.46388 10.9618 1.32652 10.5861 1.34253 10.201C1.35586 9.89944 1.34879 9.63324 1.34253 9.39832C1.33705 9.19178 1.33199 8.99673 1.3406 8.80018C1.35421 8.48701 1.46858 8.1866 1.66669 7.94367C1.8648 7.70074 2.13605 7.52827 2.44007 7.45193C2.10768 8.8186 2.20968 10.2549 2.73187 11.5609L2.73124 11.5611C2.75177 11.6135 2.77297 11.6655 2.79484 11.7173C2.77428 11.7172 2.75358 11.7167 2.73272 11.7158ZM8.71343 15.6477C8.63285 15.6477 8.55408 15.6238 8.48708 15.579C8.42008 15.5343 8.36785 15.4706 8.337 15.3962C8.30616 15.3218 8.29807 15.2399 8.31378 15.1608C8.32948 15.0818 8.36827 15.0092 8.42524 14.9522C8.4822 14.8952 8.55478 14.8564 8.63381 14.8407C8.71283 14.8249 8.79475 14.833 8.8692 14.8638C8.94365 14.8946 9.0073 14.9468 9.05208 15.0138C9.09687 15.0808 9.12079 15.1595 9.12082 15.2401V15.2409C9.12055 15.3488 9.07752 15.4522 9.00116 15.5284C8.9248 15.6047 8.82134 15.6476 8.71343 15.6477ZM16.6573 10.2003C16.6655 10.3912 16.636 10.5819 16.5705 10.7614C16.5049 10.9409 16.4047 11.1058 16.2754 11.2465C16.1462 11.3873 15.9904 11.5012 15.8171 11.5817C15.6438 11.6622 15.4563 11.7078 15.2654 11.7158C15.2451 11.7168 15.2249 11.7173 15.2048 11.7174C15.2057 11.7154 15.2058 11.7132 15.2052 11.7111C15.7809 10.3671 15.9053 8.87268 15.5598 7.45197C15.8639 7.52832 16.1353 7.7009 16.3334 7.94398C16.5315 8.18706 16.6458 8.48764 16.6593 8.80095C16.6679 8.9967 16.6628 9.19175 16.6573 9.39825C16.651 9.63317 16.6439 9.89941 16.6573 10.2003ZM7.76734 8.99796C7.76903 9.01514 7.76985 9.03239 7.7698 9.04964C7.76985 9.06702 7.76903 9.08438 7.76734 9.10168C7.76558 9.11855 7.76277 9.13578 7.7596 9.15265C7.75644 9.16953 7.75187 9.1864 7.74695 9.20293C7.74202 9.21945 7.73605 9.23562 7.72937 9.25144C7.72269 9.26726 7.71531 9.28308 7.70722 9.2982C7.69913 9.31332 7.69034 9.32808 7.68085 9.3425C7.67146 9.3569 7.66124 9.37075 7.65027 9.38398C7.63937 9.39769 7.62741 9.41035 7.61546 9.42265C7.60316 9.4349 7.59026 9.44651 7.57679 9.45746C7.56343 9.46836 7.54937 9.47855 7.53531 9.48839C7.52089 9.49754 7.50613 9.50668 7.49066 9.51476C7.4756 9.52288 7.46011 9.53015 7.44425 9.53656C7.42839 9.54325 7.4122 9.54911 7.39573 9.55414C7.37921 9.55906 7.36234 9.56328 7.34546 9.56679C7.32861 9.57023 7.3116 9.57281 7.29449 9.57453C7.25988 9.57781 7.22503 9.57781 7.19042 9.57453C7.17331 9.57281 7.1563 9.57023 7.13945 9.56679C7.12257 9.56328 7.1057 9.55906 7.08917 9.55414C7.07271 9.54911 7.05652 9.54325 7.04066 9.53656C7.0248 9.53015 7.00931 9.52288 6.99425 9.51476C6.97878 9.50668 6.96402 9.49754 6.9496 9.48839C6.93554 9.47855 6.92148 9.46836 6.90812 9.45746C6.89465 9.44651 6.88174 9.4349 6.86945 9.42265C6.85749 9.41035 6.84554 9.39769 6.83464 9.38398C6.82366 9.37075 6.81345 9.3569 6.80406 9.3425C6.79468 9.32808 6.78589 9.31332 6.77769 9.2982C6.7696 9.28308 6.76222 9.26726 6.75554 9.25144C6.74886 9.23562 6.74324 9.21945 6.73796 9.20293C6.73269 9.1864 6.72882 9.16953 6.72531 9.15265C6.72179 9.13578 6.71933 9.1189 6.71757 9.10168C6.71581 9.08445 6.71511 9.06687 6.71511 9.04964C6.71511 9.03242 6.71616 9.01519 6.71757 8.99796C6.71898 8.98074 6.72214 8.96351 6.72531 8.94664C6.72847 8.92976 6.73304 8.91324 6.73796 8.89672C6.74288 8.88019 6.74886 8.86402 6.75554 8.8482C6.76222 8.83238 6.7696 8.81656 6.77769 8.80144C6.79392 8.771 6.81299 8.74216 6.83464 8.71531C6.84554 8.70195 6.85749 8.68894 6.86945 8.67699C6.88174 8.66474 6.89465 8.65313 6.90812 8.64218C6.92148 8.63129 6.93554 8.62074 6.9496 8.61125C6.96403 8.60171 6.97893 8.59291 6.99425 8.58488C7.00937 8.57679 7.02484 8.56941 7.04066 8.56273C7.05648 8.5564 7.073 8.55043 7.08917 8.5455C7.1057 8.54042 7.12248 8.5362 7.13945 8.53285C7.20742 8.51904 7.27748 8.51904 7.34546 8.53285C7.36243 8.5362 7.37921 8.54042 7.39573 8.5455C7.41191 8.55043 7.42843 8.5564 7.44425 8.56273C7.46007 8.56906 7.47554 8.57679 7.49066 8.58488C7.50597 8.59291 7.52088 8.60171 7.53531 8.61125C7.54937 8.62074 7.56343 8.63129 7.57679 8.64218C7.59026 8.65313 7.60316 8.66474 7.61546 8.67699C7.62741 8.68894 7.63937 8.70195 7.65027 8.71531C7.67192 8.74216 7.69099 8.771 7.70722 8.80144C7.71531 8.81656 7.72269 8.83238 7.72937 8.8482C7.73605 8.86402 7.74167 8.88019 7.74695 8.89672C7.75222 8.91324 7.75609 8.93011 7.7596 8.94664C7.76312 8.96316 7.76558 8.9806 7.76734 8.99782V8.99796ZM8.47257 9.04964C8.47252 8.98042 8.4861 8.91186 8.51255 8.84789C8.539 8.78391 8.5778 8.72578 8.62673 8.67681C8.67566 8.62783 8.73375 8.58898 8.7977 8.56247C8.86165 8.53596 8.9302 8.52231 8.99942 8.5223H9.00041C9.10468 8.5224 9.20659 8.55341 9.29325 8.61141C9.37991 8.66942 9.44742 8.75181 9.48726 8.84818C9.5271 8.94455 9.53747 9.05056 9.51707 9.15283C9.49666 9.25509 9.4464 9.34901 9.37263 9.42271C9.29886 9.49641 9.20489 9.54658 9.10261 9.56689C9.00033 9.5872 8.89433 9.57673 8.798 9.5368C8.70166 9.49687 8.61933 9.42928 8.56141 9.34257C8.50349 9.25586 8.47257 9.15392 8.47257 9.04964ZM10.2325 9.10153C10.2308 9.08424 10.23 9.06688 10.23 9.0495C10.23 9.03225 10.2308 9.015 10.2325 8.99782C10.2343 8.9806 10.2371 8.96337 10.2402 8.9465C10.2434 8.92962 10.248 8.9131 10.2529 8.89657C10.2578 8.88009 10.2637 8.8639 10.2705 8.84806C10.2768 8.83224 10.2845 8.81642 10.2923 8.8013C10.3088 8.77095 10.328 8.74213 10.3496 8.71517C10.3605 8.70181 10.3724 8.6888 10.3844 8.67685C10.3967 8.6646 10.4096 8.65299 10.423 8.64204C10.4363 8.63095 10.4501 8.62062 10.4645 8.61111C10.4789 8.60173 10.4937 8.59294 10.5088 8.58474C10.5239 8.57665 10.5398 8.56927 10.5556 8.56259C10.5714 8.55591 10.5879 8.55029 10.6041 8.54536C10.6206 8.54028 10.6374 8.53605 10.6544 8.53271C10.7052 8.52236 10.7574 8.51976 10.8091 8.52497C10.8263 8.52666 10.8434 8.52925 10.8604 8.53271C10.8772 8.53601 10.8939 8.54024 10.9103 8.54536C10.9268 8.55029 10.9434 8.55626 10.9592 8.56259C10.975 8.56892 10.9905 8.57665 11.0056 8.58474C11.0209 8.59277 11.0358 8.60157 11.0502 8.61111C11.0643 8.6206 11.0784 8.63114 11.0917 8.64204C11.1051 8.6529 11.1179 8.66452 11.13 8.67685C11.1423 8.6888 11.1539 8.70181 11.1652 8.71517C11.1757 8.72853 11.1863 8.74259 11.1958 8.757C11.2053 8.77131 11.2141 8.7861 11.2221 8.8013C11.2302 8.81642 11.2376 8.83224 11.2443 8.84806C11.2509 8.8639 11.2567 8.8801 11.2615 8.89657C11.2668 8.91294 11.271 8.92961 11.2742 8.9465C11.2778 8.96343 11.2804 8.98057 11.2819 8.99782C11.2837 9.01499 11.2847 9.03224 11.2847 9.0495C11.2847 9.06688 11.2837 9.08425 11.2819 9.10153C11.2804 9.11867 11.2778 9.13569 11.2742 9.15251C11.271 9.16951 11.2668 9.1863 11.2615 9.20279C11.2566 9.21924 11.2509 9.23544 11.2443 9.2513C11.2376 9.26712 11.2302 9.28294 11.2221 9.29806C11.2141 9.31318 11.2053 9.32794 11.1958 9.34236C11.1863 9.35677 11.1757 9.37083 11.1652 9.38384C11.1539 9.39755 11.1423 9.41021 11.13 9.42251C11.1179 9.43484 11.1051 9.44646 11.0917 9.45732C11.0784 9.46821 11.0643 9.47841 11.0502 9.4879C11.0358 9.49755 11.0209 9.50647 11.0056 9.51462C10.9905 9.52274 10.975 9.53001 10.9592 9.53642C10.9432 9.54316 10.9269 9.54903 10.9103 9.554C10.8941 9.55892 10.8773 9.56314 10.8604 9.56665C10.8265 9.57355 10.792 9.57696 10.7574 9.57685C10.74 9.57691 10.7226 9.57608 10.7053 9.57439C10.6882 9.57267 10.6712 9.57009 10.6544 9.56665C10.6375 9.56314 10.6206 9.55892 10.6041 9.554C10.5876 9.54897 10.5714 9.54311 10.5556 9.53642C10.5396 9.53001 10.524 9.52274 10.5088 9.51462C10.4937 9.50654 10.4789 9.49739 10.4645 9.4879C10.4501 9.47851 10.4363 9.4683 10.423 9.45732C10.4096 9.44637 10.3967 9.43476 10.3844 9.42251C10.3724 9.41021 10.3605 9.39755 10.3496 9.38384C10.3386 9.37061 10.3284 9.35676 10.319 9.34236C10.3095 9.32794 10.3003 9.31318 10.2923 9.29806C10.2842 9.28294 10.2768 9.26712 10.2705 9.2513C10.2638 9.23544 10.2579 9.21925 10.2529 9.20279C10.248 9.18626 10.2437 9.16939 10.2402 9.15251C10.2367 9.13564 10.2343 9.11841 10.2325 9.10153Z" fill="#484848"/>
</g>
</svg>
