<svg width="18" height="19" viewBox="0 0 18 19" fill="none" xmlns="http://www.w3.org/2000/svg">
<g id="guarantee 1">
<path id="Vector" d="M16.9097 9.20518L15.3647 6.86518L14.7997 4.11518C14.7831 4.01109 14.734 3.91491 14.6595 3.84038C14.585 3.76585 14.4888 3.71678 14.3847 3.70018L11.6347 3.13518L9.29469 1.59018C9.20742 1.53171 9.10474 1.50049 8.99969 1.50049C8.89464 1.50049 8.79196 1.53171 8.70469 1.59018L6.36469 3.13518L3.61469 3.70018C3.5106 3.71678 3.41442 3.76585 3.33989 3.84038C3.26536 3.91491 3.21629 4.01109 3.19969 4.11518L2.63469 6.86518L1.08969 9.20518C1.03122 9.29245 1 9.39513 1 9.50018C1 9.60522 1.03122 9.7079 1.08969 9.79518L2.63469 12.1352L3.19969 14.8852C3.21629 14.9893 3.26536 15.0854 3.33989 15.16C3.41442 15.2345 3.5106 15.2836 3.61469 15.3002L6.36469 15.8652L8.70469 17.4102C8.79196 17.4686 8.89464 17.4999 8.99969 17.4999C9.10474 17.4999 9.20742 17.4686 9.29469 17.4102L11.6347 15.8652L14.3847 15.3002C14.4888 15.2836 14.585 15.2345 14.6595 15.16C14.734 15.0854 14.7831 14.9893 14.7997 14.8852L15.3647 12.1352L16.9097 9.79518C16.9682 9.7079 16.9994 9.60522 16.9994 9.50018C16.9994 9.39513 16.9682 9.29245 16.9097 9.20518ZM14.4097 11.6352C14.3707 11.6908 14.3435 11.7537 14.3297 11.8202L13.8297 14.3202L11.3297 14.8202C11.2632 14.834 11.2003 14.8612 11.1447 14.9002L8.99969 16.3302L6.86469 14.9202C6.80909 14.8812 6.74615 14.854 6.67969 14.8402L4.17969 14.3402L3.67969 11.8402C3.66586 11.7737 3.63864 11.7108 3.59969 11.6552L2.16969 9.50018L3.57969 7.36518C3.61864 7.30958 3.64586 7.24663 3.65969 7.18018L4.15969 4.68018L6.65969 4.18018C6.72615 4.16634 6.78909 4.13912 6.84469 4.10018L8.99969 2.67018L11.1347 4.08018C11.1903 4.11912 11.2532 4.14634 11.3197 4.16018L13.8197 4.66018L14.3197 7.16018C14.3335 7.22663 14.3607 7.28958 14.3997 7.34518L15.8297 9.50018L14.4097 11.6352Z" fill="#484848"/>
<path id="Vector_2" d="M9.0002 4.7002C8.05085 4.7002 7.12282 4.98171 6.33346 5.50914C5.5441 6.03657 4.92888 6.78623 4.56558 7.66331C4.20228 8.5404 4.10722 9.50552 4.29243 10.4366C4.47764 11.3677 4.93479 12.223 5.60608 12.8943C6.27738 13.5656 7.13265 14.0228 8.06376 14.208C8.99487 14.3932 9.95999 14.2981 10.8371 13.9348C11.7142 13.5715 12.4638 12.9563 12.9913 12.1669C13.5187 11.3776 13.8002 10.4495 13.8002 9.5002C13.7976 8.22797 13.291 7.0086 12.3914 6.109C11.4918 5.2094 10.2724 4.70284 9.0002 4.7002ZM9.0002 13.2352C8.26148 13.2352 7.53936 13.0161 6.92514 12.6057C6.31093 12.1953 5.8322 11.612 5.54951 10.9295C5.26681 10.247 5.19285 9.49605 5.33696 8.77153C5.48108 8.04701 5.8368 7.3815 6.35915 6.85915C6.8815 6.3368 7.54702 5.98108 8.27153 5.83696C8.99605 5.69285 9.74704 5.76681 10.4295 6.04951C11.112 6.3322 11.6953 6.81092 12.1057 7.42514C12.5161 8.03936 12.7352 8.76148 12.7352 9.5002C12.7339 10.4904 12.3399 11.4396 11.6398 12.1398C10.9396 12.8399 9.99038 13.2339 9.0002 13.2352Z" fill="#484848"/>
<path id="Vector_3" d="M9.9551 8.42508L8.6651 9.71508L8.0451 9.09008C7.94299 9.00046 7.8106 8.95306 7.67481 8.95748C7.53902 8.96191 7.40999 9.01783 7.31392 9.1139C7.21785 9.20997 7.16193 9.33899 7.15751 9.47478C7.15309 9.61057 7.20049 9.74296 7.2901 9.84508L8.2901 10.8451C8.39037 10.9449 8.52611 11.001 8.6676 11.001C8.8091 11.001 8.94484 10.9449 9.0451 10.8451L10.7101 9.17508C10.76 9.1262 10.7996 9.06785 10.8267 9.00346C10.8537 8.93907 10.8677 8.86992 10.8677 8.80008C10.8677 8.73023 10.8537 8.66109 10.8267 8.5967C10.7996 8.5323 10.76 8.47396 10.7101 8.42508C10.6608 8.37504 10.602 8.3353 10.5372 8.30818C10.4724 8.28106 10.4029 8.26709 10.3326 8.26709C10.2624 8.26709 10.1928 8.28106 10.128 8.30818C10.0632 8.3353 10.0044 8.37504 9.9551 8.42508Z" fill="#484848"/>
</g>
</svg>
