<svg width="18" height="19" viewBox="0 0 18 19" fill="none" xmlns="http://www.w3.org/2000/svg">
<g id="power-off 1">
<g id="layer1">
<path id="path52" d="M8.99194 2.00005C8.89332 2.00102 8.79585 2.0215 8.70513 2.06035C8.6144 2.09919 8.53219 2.15564 8.4632 2.22644C8.39421 2.29724 8.3398 2.38104 8.30308 2.47298C8.26635 2.56492 8.24804 2.6632 8.2492 2.76226V8.79081C8.24925 8.99078 8.32838 9.18257 8.46917 9.32395C8.60997 9.46533 8.80091 9.54472 9 9.54472C9.19909 9.54472 9.39003 9.46533 9.53083 9.32395C9.67163 9.18257 9.75075 8.99078 9.75081 8.79081V2.76226C9.75197 2.66184 9.73314 2.56218 9.69542 2.46918C9.6577 2.37617 9.60184 2.29166 9.53114 2.22064C9.46044 2.14963 9.37632 2.09356 9.28372 2.05568C9.19113 2.01779 9.09192 1.99888 8.99194 2.00005ZM13.3679 3.51123C13.3434 3.51053 13.319 3.51102 13.2946 3.5127C13.1463 3.52535 13.0051 3.58203 12.889 3.67551C12.7728 3.76899 12.687 3.89501 12.6424 4.03763C12.5978 4.18024 12.5964 4.33299 12.6385 4.47639C12.6805 4.61978 12.7641 4.74736 12.8786 4.84292C14.1779 5.95115 14.9998 7.60063 14.9999 9.45293C14.9999 12.7975 12.326 15.4933 9.00366 15.4933C5.68129 15.4933 3.0016 12.7975 3.00161 9.45293C3.00161 7.61135 3.81317 5.97307 5.09947 4.86497C5.17441 4.80073 5.23602 4.72225 5.28077 4.63409C5.32553 4.54593 5.35256 4.44978 5.36031 4.35113C5.36807 4.25247 5.3564 4.15329 5.32598 4.05917C5.29556 3.96504 5.24698 3.87786 5.18301 3.80259C5.11904 3.72732 5.04093 3.66544 4.95316 3.62049C4.86538 3.57554 4.76965 3.54835 4.67142 3.54056C4.5732 3.53277 4.47442 3.54452 4.3807 3.57508C4.28699 3.60564 4.20019 3.65442 4.12526 3.71868C2.51955 5.10193 1.50001 7.16373 1.5 9.45293C1.49999 13.6105 4.86921 17 9.00366 17C13.1381 17 16.5 13.6105 16.5 9.45293C16.5 7.15038 15.4704 5.08009 13.8484 3.69662C13.715 3.57983 13.5448 3.51417 13.3679 3.51123Z" fill="#484848"/>
</g>
</g>
</svg>
