<svg width="18" height="19" viewBox="0 0 18 19" fill="none" xmlns="http://www.w3.org/2000/svg">
<g id="price-up 1">
<path id="Vector" d="M14.3027 4.71875C14.2672 2.70275 12.5988 1.0625 10.5828 1.0625C8.56685 1.0625 6.95528 2.70275 6.99016 4.71875C7.02503 6.73475 8.69397 8.375 10.71 8.375C12.726 8.375 14.3375 6.73475 14.3027 4.71875ZM10.6908 7.25C9.29528 7.25 8.13991 6.11431 8.11516 4.71875C8.09041 3.32319 9.20641 2.1875 10.602 2.1875C11.9975 2.1875 13.1529 3.32319 13.1777 4.71875C13.2024 6.11431 12.0864 7.25 10.6908 7.25ZM4.86447 3.56281C5.0411 3.821 4.97753 4.17087 4.72216 4.343C4.62766 4.40712 4.51966 4.4375 4.41222 4.4375C4.23053 4.4375 4.05053 4.34975 3.93916 4.18719L3.84241 4.04544L3.8981 7.25C3.90372 7.5605 3.65622 7.8125 3.34516 7.8125C3.0341 7.8125 2.77816 7.5605 2.7731 7.25L2.71741 4.04544L2.62516 4.18719C2.45697 4.44537 2.10935 4.51569 1.84778 4.343C1.58622 4.17087 1.51028 3.82156 1.67791 3.56281L2.77366 1.87531C2.97672 1.562 3.49535 1.562 3.70966 1.87531L4.86447 3.56281ZM15.1087 11.2522C15.1835 11.0576 15.2257 10.8466 15.2218 10.6244L15.2122 10.0619C15.1959 9.13156 14.4258 8.37444 13.4955 8.37444H7.84066C6.91028 8.37444 6.1661 9.13156 6.18241 10.0619L6.19197 10.6244C6.20547 11.4024 6.74885 12.0526 7.46941 12.2467C7.3946 12.4413 7.35241 12.6523 7.35635 12.8744L7.36591 13.4369C7.36985 13.6591 7.41878 13.8701 7.50091 14.0647C6.7871 14.2593 6.26678 14.909 6.28028 15.6869L6.28985 16.2494C6.30616 17.1798 7.07622 17.9369 8.0066 17.9369H13.6608C14.5912 17.9369 15.3354 17.1798 15.3191 16.2494L15.3095 15.6869C15.3056 15.4648 15.2567 15.2538 15.1745 15.0592C15.8883 14.8646 16.4087 14.2149 16.3952 13.4369L16.3856 12.8744C16.3721 12.0965 15.8287 11.4462 15.1082 11.2522H15.1087ZM7.30797 10.0619C7.30235 9.752 7.55041 9.49944 7.86091 9.49944H13.5152C13.8251 9.49944 14.0822 9.752 14.0872 10.0619L14.0968 10.6244C14.1024 10.9344 13.8543 11.1869 13.5438 11.1869H7.8896C7.57966 11.1869 7.3226 10.9344 7.31753 10.6244L7.30797 10.0619ZM14.1952 16.2494C14.2008 16.5594 13.9528 16.8119 13.6423 16.8119H7.98803C7.6781 16.8119 7.42103 16.5594 7.41597 16.2494L7.40641 15.6869C7.40078 15.377 7.64885 15.1244 7.95935 15.1244H13.6136C13.9235 15.1244 14.1806 15.377 14.1857 15.6869L14.1952 16.2494ZM15.2713 13.4369C15.2769 13.7469 15.0288 13.9994 14.7183 13.9994H9.0641C8.75416 13.9994 8.4971 13.7469 8.49203 13.4369L8.48247 12.8744C8.47685 12.5645 8.72491 12.3119 9.03541 12.3119H14.6897C14.9996 12.3119 15.2567 12.5645 15.2617 12.8744L15.2713 13.4369Z" fill="#484848"/>
</g>
</svg>
