<svg width="16" height="16" viewBox="0 0 16 16" fill="none" xmlns="http://www.w3.org/2000/svg">
<g id="reply (4) 1">
<path id="Reply" d="M15 14.5C14.814 14.5 14.6386 14.396 14.5527 14.2236C13.627 12.3721 12.7505 10.6196 8 10.5059V14C8 14.1988 7.88237 14.3784 7.70062 14.458C7.51888 14.5376 7.30662 14.5024 7.16062 14.3671L0.660625 8.36713C0.558125 8.273 0.5 8.13963 0.5 8C0.5 7.86038 0.558125 7.72701 0.660625 7.63275L7.16062 1.63275C7.30662 1.4975 7.5195 1.46288 7.70062 1.54188C7.88237 1.62163 8 1.80125 8 2V5.50588C14.9253 5.67775 15.5 9.4565 15.5 14C15.5 14.2319 15.3404 14.4331 15.1147 14.4869C15.0766 14.4956 15.0381 14.5 15 14.5ZM1.73725 8L7 12.8579V10C7 9.72363 7.22363 9.5 7.5 9.5C11.646 9.5 13.4111 10.6573 14.4467 12.0484C14.2129 8.63625 13.0235 6.5 7.5 6.5C7.22363 6.5 7 6.27638 7 6V3.14213L1.73725 8Z" fill="#044D3A"/>
</g>
</svg>
