<svg width="18" height="19" viewBox="0 0 18 19" fill="none" xmlns="http://www.w3.org/2000/svg">
<path d="M12.0385 3.75721L12.1092 3.6865L12.0385 3.61579L9.07071 0.648039L9 0.577329L8.92929 0.648039L5.96154 3.61579L5.89083 3.6865L5.96154 3.75721L8.525 6.32067V7.56829C7.35242 7.79117 6.4625 8.82371 6.4625 10.0607C6.4625 11.2978 7.35242 12.3303 8.525 12.5532V13.8983H6.75H6.65V13.9983V18.4983V18.5983H6.75H11.25H11.35V18.4983V13.9983V13.8983H11.25H9.475V12.5532C10.6476 12.3303 11.5375 11.2978 11.5375 10.0607C11.5375 8.82371 10.6476 7.79117 9.475 7.56829V6.32067L12.0385 3.75721ZM3.16404 13.8552L4.70783 15.399H1.875C1.30998 15.399 0.85 14.939 0.85 14.374V10.624C0.85 10.059 1.30998 9.599 1.875 9.599H5.25H5.35V9.499V8.749V8.649H5.25H1.875C0.786272 8.649 -0.1 9.53527 -0.1 10.624V14.374C-0.1 15.4635 0.786298 16.349 1.875 16.349H4.75733L3.16404 17.9423L3.09333 18.013L3.16404 18.0837L3.69429 18.614L3.765 18.6847L3.83571 18.614L5.81871 16.631C6.22297 16.2267 6.22308 15.5693 5.81864 15.1657L3.8357 13.1835L3.76499 13.1128L3.69429 13.1835L3.16404 13.7138L3.09333 13.7845L3.16404 13.8552ZM13.2922 9.39825L14.836 7.85446L14.9067 7.78375L14.836 7.71304L14.3057 7.18279L14.235 7.11208L14.1643 7.18279L12.1813 9.16579L12.1812 9.16586C11.7778 9.57015 11.7778 10.2266 12.1812 10.6309L12.1813 10.631L14.1643 12.614L14.235 12.6847L14.3057 12.614L14.836 12.0837L14.9067 12.013L14.836 11.9423L13.2427 10.349H16.125C17.2137 10.349 18.1 9.46273 18.1 8.374V4.624C18.1 3.53532 17.2138 2.64825 16.125 2.64825H12.75H12.65V2.74825V3.49825V3.59825H12.75H16.125C16.69 3.59825 17.15 4.05823 17.15 4.62325V8.37325C17.15 8.93827 16.69 9.39825 16.125 9.39825H13.2922ZM7.6 17.649V14.849H10.4V17.649H7.6ZM9 1.92067L10.7658 3.6865L9 5.45233L7.23417 3.6865L9 1.92067ZM10.5875 10.0615C10.5875 10.9363 9.87549 11.649 9 11.649C8.12451 11.649 7.4125 10.9363 7.4125 10.0615C7.4125 9.1867 8.12451 8.474 9 8.474C9.87552 8.474 10.5875 9.18598 10.5875 10.0615Z" fill="#484848" stroke="#484848" stroke-width="0.2"/>
</svg>
