<svg width="18" height="19" viewBox="0 0 18 19" fill="none" xmlns="http://www.w3.org/2000/svg">
<g id="user" clip-path="url(#clip0_1583_110941)">
<path id="Vector" d="M15.364 3.13603C13.6641 1.43617 11.4039 0.5 9 0.5C6.59605 0.5 4.33589 1.43617 2.63603 3.13603C0.936172 4.83589 0 7.09605 0 9.5C0 11.9039 0.936172 14.1641 2.63603 15.864C4.33589 17.5638 6.59605 18.5 9 18.5C11.4039 18.5 13.6641 17.5638 15.364 15.864C17.0638 14.1641 18 11.9039 18 9.5C18 7.09605 17.0638 4.83589 15.364 3.13603ZM3.90605 15.5925C4.20323 13.0354 6.40173 11.0612 9 11.0612C10.3697 11.0612 11.6577 11.5948 12.6266 12.5635C13.4451 13.3822 13.9613 14.451 14.0941 15.5923C12.7139 16.7482 10.9369 17.4453 9 17.4453C7.06311 17.4453 5.28621 16.7484 3.90605 15.5925ZM9 9.97488C7.49281 9.97488 6.26646 8.74854 6.26646 7.24135C6.26646 5.73402 7.49281 4.50781 9 4.50781C10.5072 4.50781 11.7335 5.73402 11.7335 7.24135C11.7335 8.74854 10.5072 9.97488 9 9.97488ZM15.0018 14.7008C14.7331 13.6173 14.1726 12.6182 13.3723 11.8178C12.7241 11.1696 11.9572 10.6834 11.1209 10.3786C12.1263 9.69679 12.7882 8.54488 12.7882 7.24135C12.7882 5.15257 11.0888 3.45312 9 3.45312C6.91122 3.45312 5.21178 5.15257 5.21178 7.24135C5.21178 8.54556 5.87425 9.69789 6.88046 10.3796C6.11101 10.66 5.39896 11.0936 4.78633 11.6643C3.89919 12.4905 3.28313 13.5439 2.99748 14.7C1.78775 13.3054 1.05469 11.4867 1.05469 9.5C1.05469 5.11893 4.61893 1.55469 9 1.55469C13.3811 1.55469 16.9453 5.11893 16.9453 9.5C16.9453 11.4872 16.212 13.3062 15.0018 14.7008Z" fill="#484848"/>
</g>
<defs>
<clipPath id="clip0_1583_110941">
<rect width="18" height="18" fill="white" transform="translate(0 0.5)"/>
</clipPath>
</defs>
</svg>
