<svg width="18" height="19" viewBox="0 0 18 19" fill="none" xmlns="http://www.w3.org/2000/svg">
<path id="Vector" d="M16.8134 7.86682C17.0179 7.26085 17.0888 6.61883 17.0214 5.98366C16.9541 5.34848 16.75 4.73484 16.4228 4.1838C15.9378 3.35032 15.197 2.69042 14.3072 2.29933C13.4175 1.90823 12.4248 1.80617 11.4724 2.00785C11.0428 1.53019 10.5148 1.14856 9.92365 0.888535C9.33249 0.628509 8.69189 0.496071 8.04468 0.500089C7.07097 0.49777 6.12166 0.800614 5.33362 1.36496C4.54557 1.92931 3.95953 2.726 3.65997 3.64017C3.02565 3.76829 2.42638 4.02863 1.90228 4.40377C1.37818 4.77892 0.94135 5.26019 0.621033 5.8154C0.132159 6.6466 -0.0765204 7.60946 0.025089 8.56526C0.126699 9.52102 0.533344 10.4202 1.18638 11.1332C0.981908 11.7392 0.910975 12.3812 0.978333 13.0163C1.04569 13.6515 1.24978 14.2651 1.57695 14.8162C2.062 15.6497 2.80283 16.3095 3.69259 16.7006C4.58233 17.0917 5.57501 17.1938 6.52738 16.9921C6.95695 17.4698 7.48499 17.8514 8.07611 18.1115C8.66727 18.3715 9.30786 18.5039 9.95507 18.4999C10.9293 18.5024 11.8791 18.1994 12.6674 17.6347C13.4558 17.07 14.0419 16.2728 14.3412 15.3581C14.9755 15.2299 15.5748 14.9696 16.0989 14.5945C16.623 14.2193 17.0598 13.738 17.3802 13.1828C17.8684 12.3517 18.0766 11.3891 17.9748 10.4337C17.8729 9.47827 17.4662 8.57948 16.8134 7.86682ZM9.95653 17.3232C9.15681 17.3243 8.38222 17.048 7.76812 16.5425C7.79581 16.5277 7.84438 16.5014 7.87603 16.4822L11.5084 14.412C11.5995 14.3609 11.6752 14.2867 11.7277 14.197C11.7802 14.1074 11.8075 14.0056 11.8069 13.9021V8.84939L13.3422 9.7241C13.3502 9.72806 13.3571 9.73391 13.3624 9.74116C13.3676 9.7484 13.3709 9.75682 13.372 9.76559V13.95C13.3709 14.8438 13.0107 15.7006 12.3706 16.3328C11.7304 16.9651 10.8623 17.3213 9.95653 17.3232ZM2.61127 14.2279C2.2107 13.545 2.06633 12.7448 2.20344 11.9674C2.23041 11.9834 2.27752 12.0118 2.31133 12.031L5.94366 14.1012C6.03419 14.1534 6.13717 14.1809 6.24202 14.1809C6.34682 14.1809 6.4498 14.1534 6.54033 14.1012L10.975 11.5746V13.3241C10.9755 13.333 10.9738 13.3419 10.97 13.35C10.9661 13.3581 10.9603 13.3652 10.9531 13.3705L7.28118 15.4624C6.49578 15.9087 5.56297 16.0294 4.6875 15.7979C3.81201 15.5665 3.06533 15.0018 2.61127 14.2279ZM1.65571 6.40373C2.05454 5.71991 2.68448 5.19638 3.4352 4.92472C3.4352 4.95559 3.4334 5.01026 3.4334 5.0482V9.1886C3.43276 9.29201 3.46005 9.39371 3.51245 9.48331C3.56485 9.57286 3.64047 9.64702 3.73154 9.69818L8.16623 12.2244L6.63096 13.0991C6.62338 13.104 6.61467 13.107 6.60564 13.1078C6.59661 13.1086 6.58749 13.1072 6.57915 13.1037L2.90689 11.0101C2.12286 10.562 1.55086 9.82558 1.31631 8.96207C1.08177 8.09861 1.20382 7.17859 1.65571 6.40373ZM14.2697 9.30002L9.83494 6.7735L11.3703 5.89915C11.3778 5.89424 11.3865 5.89123 11.3956 5.89042C11.4046 5.88961 11.4137 5.89105 11.422 5.89456L15.0943 7.98638C15.6569 8.30705 16.1153 8.77919 16.4158 9.34759C16.7162 9.91598 16.8463 10.5571 16.7909 11.1958C16.7355 11.8345 16.4968 12.4444 16.1028 12.9542C15.7087 13.4639 15.1757 13.8523 14.566 14.0738C14.566 14.0426 14.566 13.988 14.566 13.95V9.8096C14.5669 9.70637 14.5399 9.60476 14.4878 9.51521C14.4357 9.42566 14.3604 9.35141 14.2697 9.30002ZM15.7977 7.03076C15.7708 7.01443 15.7237 6.98639 15.6899 6.96727L12.0575 4.89704C11.967 4.84493 11.864 4.81744 11.7592 4.81744C11.6544 4.81744 11.5514 4.84493 11.4609 4.89704L7.02619 7.42361V5.67419C7.02568 5.66524 7.02742 5.65633 7.03125 5.64823C7.03508 5.64013 7.04087 5.63306 7.04812 5.62771L10.72 3.53761C11.2826 3.21756 11.9258 3.06219 12.5746 3.08967C13.2234 3.11715 13.8507 3.32635 14.3834 3.69279C14.9161 4.05923 15.332 4.56775 15.5824 5.1589C15.8329 5.75002 15.9076 6.39928 15.7977 7.03076ZM6.19149 10.1489L4.6558 9.27415C4.64778 9.27019 4.6408 9.26434 4.6356 9.25709C4.6304 9.24985 4.62707 9.24143 4.62598 9.23261V5.0482C4.62639 4.40733 4.81183 3.77982 5.16054 3.23913C5.50929 2.69845 6.00691 2.26697 6.59515 1.99519C7.18339 1.72341 7.8379 1.62259 8.4821 1.70452C9.12635 1.78644 9.73356 2.04773 10.2327 2.4578C10.205 2.47271 10.1568 2.49897 10.1248 2.51813L6.49249 4.58833C6.40132 4.63945 6.32566 4.7136 6.27317 4.80317C6.22072 4.89272 6.1934 4.99447 6.19399 5.09788L6.19149 10.1489ZM7.02546 8.3746L9.00061 7.24901L10.9757 8.37388V10.6243L9.00061 11.7492L7.02546 10.6243V8.3746Z" fill="#484848"/>
</svg>
