<svg width="16" height="16" viewBox="0 0 16 16" fill="none" xmlns="http://www.w3.org/2000/svg">
<g id="application 3">
<path id="Vector" d="M6 7.5H3C2.60218 7.5 2.22064 7.34196 1.93934 7.06066C1.65804 6.77936 1.5 6.39782 1.5 6V3C1.5 2.60218 1.65804 2.22064 1.93934 1.93934C2.22064 1.65804 2.60218 1.5 3 1.5H6C6.39782 1.5 6.77936 1.65804 7.06066 1.93934C7.34196 2.22064 7.5 2.60218 7.5 3V6C7.5 6.39782 7.34196 6.77936 7.06066 7.06066C6.77936 7.34196 6.39782 7.5 6 7.5ZM3 2.5C2.86739 2.5 2.74021 2.55268 2.64645 2.64645C2.55268 2.74021 2.5 2.86739 2.5 3V6C2.5 6.13261 2.55268 6.25979 2.64645 6.35355C2.74021 6.44732 2.86739 6.5 3 6.5H6C6.13261 6.5 6.25979 6.44732 6.35355 6.35355C6.44732 6.25979 6.5 6.13261 6.5 6V3C6.5 2.86739 6.44732 2.74021 6.35355 2.64645C6.25979 2.55268 6.13261 2.5 6 2.5H3Z" fill="#61646B"/>
<path id="Vector_2" d="M13 7.5H10C9.60218 7.5 9.22064 7.34196 8.93934 7.06066C8.65804 6.77936 8.5 6.39782 8.5 6V3C8.5 2.60218 8.65804 2.22064 8.93934 1.93934C9.22064 1.65804 9.60218 1.5 10 1.5H13C13.3978 1.5 13.7794 1.65804 14.0607 1.93934C14.342 2.22064 14.5 2.60218 14.5 3V6C14.5 6.39782 14.342 6.77936 14.0607 7.06066C13.7794 7.34196 13.3978 7.5 13 7.5ZM10 2.5C9.86739 2.5 9.74021 2.55268 9.64645 2.64645C9.55268 2.74021 9.5 2.86739 9.5 3V6C9.5 6.13261 9.55268 6.25979 9.64645 6.35355C9.74021 6.44732 9.86739 6.5 10 6.5H13C13.1326 6.5 13.2598 6.44732 13.3536 6.35355C13.4473 6.25979 13.5 6.13261 13.5 6V3C13.5 2.86739 13.4473 2.74021 13.3536 2.64645C13.2598 2.55268 13.1326 2.5 13 2.5H10Z" fill="#61646B"/>
<path id="Vector_3" d="M6 14.5H3C2.60218 14.5 2.22064 14.342 1.93934 14.0607C1.65804 13.7794 1.5 13.3978 1.5 13V10C1.5 9.60218 1.65804 9.22064 1.93934 8.93934C2.22064 8.65804 2.60218 8.5 3 8.5H6C6.39782 8.5 6.77936 8.65804 7.06066 8.93934C7.34196 9.22064 7.5 9.60218 7.5 10V13C7.5 13.3978 7.34196 13.7794 7.06066 14.0607C6.77936 14.342 6.39782 14.5 6 14.5ZM3 9.5C2.86739 9.5 2.74021 9.55268 2.64645 9.64645C2.55268 9.74021 2.5 9.86739 2.5 10V13C2.5 13.1326 2.55268 13.2598 2.64645 13.3536C2.74021 13.4473 2.86739 13.5 3 13.5H6C6.13261 13.5 6.25979 13.4473 6.35355 13.3536C6.44732 13.2598 6.5 13.1326 6.5 13V10C6.5 9.86739 6.44732 9.74021 6.35355 9.64645C6.25979 9.55268 6.13261 9.5 6 9.5H3Z" fill="#61646B"/>
<path id="Vector_4" d="M11.5 14.5C10.9067 14.5 10.3266 14.3241 9.83329 13.9944C9.33994 13.6648 8.95543 13.1962 8.72836 12.6481C8.5013 12.0999 8.44189 11.4967 8.55765 10.9147C8.6734 10.3328 8.95912 9.79824 9.37868 9.37868C9.79824 8.95912 10.3328 8.6734 10.9147 8.55765C11.4967 8.44189 12.0999 8.5013 12.6481 8.72836C13.1962 8.95543 13.6648 9.33994 13.9944 9.83329C14.3241 10.3266 14.5 10.9067 14.5 11.5C14.4992 12.2954 14.1829 13.058 13.6204 13.6204C13.058 14.1829 12.2954 14.4992 11.5 14.5ZM11.5 9.5C11.1044 9.5 10.7178 9.6173 10.3889 9.83706C10.06 10.0568 9.80362 10.3692 9.65224 10.7346C9.50087 11.1001 9.46126 11.5022 9.53843 11.8902C9.6156 12.2781 9.80608 12.6345 10.0858 12.9142C10.3655 13.1939 10.7219 13.3844 11.1098 13.4616C11.4978 13.5387 11.8999 13.4991 12.2654 13.3478C12.6308 13.1964 12.9432 12.94 13.1629 12.6111C13.3827 12.2822 13.5 11.8956 13.5 11.5C13.5 10.9696 13.2893 10.4609 12.9142 10.0858C12.5391 9.71072 12.0304 9.5 11.5 9.5Z" fill="#61646B"/>
</g>
</svg>
