<svg width="24" height="24" viewBox="0 0 24 24" fill="none" xmlns="http://www.w3.org/2000/svg">
<g id="images" clip-path="url(#clip0_1384_36626)">
<path id="Vector" d="M18.3975 24H5.6025C4.11723 23.998 2.69337 23.4071 1.64313 22.3569C0.592883 21.3066 0.00198433 19.8828 0 18.3975L0 5.6025C0.00198433 4.11723 0.592883 2.69337 1.64313 1.64313C2.69337 0.592883 4.11723 0.00198433 5.6025 0L18.3975 0C19.8828 0.00198433 21.3066 0.592883 22.3569 1.64313C23.4071 2.69337 23.998 4.11723 24 5.6025V18.3975C23.998 19.8828 23.4071 21.3066 22.3569 22.3569C21.3066 23.4071 19.8828 23.998 18.3975 24ZM5.6025 1.5975C4.54031 1.5975 3.52162 2.01945 2.77054 2.77054C2.01945 3.52162 1.5975 4.54031 1.5975 5.6025V18.3975C1.59948 19.4571 2.02128 20.4727 2.77053 21.222C3.51978 21.9712 4.53541 22.393 5.595 22.395H18.3975C19.4571 22.393 20.4727 21.9712 21.222 21.222C21.9712 20.4727 22.393 19.4571 22.395 18.3975V5.6025C22.393 4.54291 21.9712 3.52728 21.222 2.77803C20.4727 2.02878 19.4571 1.60698 18.3975 1.605L5.6025 1.5975Z" fill="#044D3A"/>
<path id="Vector_2" d="M14.7597 18.3975C14.648 18.3978 14.5375 18.3746 14.4355 18.3294C14.3334 18.2841 14.242 18.2179 14.1672 18.135L10.7022 14.325C10.5369 14.1381 10.3337 13.9886 10.1061 13.8864C9.87845 13.7842 9.63167 13.7318 9.38217 13.7325C9.13156 13.7317 8.88364 13.784 8.65479 13.8862C8.42594 13.9883 8.22139 14.1379 8.05467 14.325L4.58967 18.135C4.52035 18.2184 4.43483 18.287 4.33828 18.3364C4.24172 18.3859 4.13615 18.4152 4.02793 18.4227C3.91971 18.4302 3.81109 18.4157 3.70864 18.3801C3.60619 18.3444 3.51203 18.2884 3.43185 18.2153C3.35168 18.1422 3.28715 18.0536 3.24217 17.9549C3.19718 17.8562 3.17268 17.7494 3.17014 17.641C3.1676 17.5325 3.18707 17.4247 3.22738 17.324C3.26769 17.2232 3.32801 17.1317 3.40467 17.055L6.86967 13.245C7.18746 12.8939 7.57513 12.6132 8.00781 12.4207C8.44049 12.2283 8.90862 12.1284 9.38217 12.1275C9.85334 12.1296 10.3189 12.23 10.749 12.4225C11.179 12.6149 11.5642 12.8951 11.8797 13.245L15.3447 17.0475C15.4468 17.1627 15.5137 17.3048 15.5373 17.457C15.5609 17.6091 15.5403 17.7649 15.4778 17.9056C15.4154 18.0463 15.3137 18.1661 15.1851 18.2507C15.0564 18.3352 14.9061 18.381 14.7522 18.3825L14.7597 18.3975Z" fill="#044D3A"/>
<path id="Vector_3" d="M20.0023 18.345C19.8906 18.3453 19.7801 18.3221 19.678 18.2769C19.576 18.2317 19.4845 18.1654 19.4098 18.0825L17.1598 15.615C16.9658 15.4002 16.7223 15.2359 16.4504 15.1366C16.1786 15.0373 15.8865 15.0058 15.5998 15.045C15.4215 15.025 15.2551 14.9459 15.1271 14.8202C14.9991 14.6946 14.9168 14.5297 14.8935 14.3518C14.8702 14.174 14.9072 13.9934 14.9985 13.839C15.0898 13.6846 15.2302 13.5653 15.3973 13.5C15.9475 13.4202 16.509 13.477 17.0322 13.6653C17.5553 13.8536 18.0241 14.1678 18.3973 14.58L20.6473 17.0475C20.7494 17.1627 20.8163 17.3048 20.8399 17.457C20.8635 17.6091 20.8429 17.7649 20.7804 17.9056C20.718 18.0463 20.6163 18.1661 20.4877 18.2507C20.359 18.3352 20.2087 18.381 20.0548 18.3825L20.0023 18.345Z" fill="#044D3A"/>
<path id="Vector_4" d="M15.9977 10.4025C15.523 10.4025 15.059 10.2617 14.6643 9.99801C14.2696 9.73429 13.962 9.35946 13.7803 8.92092C13.5987 8.48238 13.5512 7.99982 13.6438 7.53426C13.7364 7.06871 13.965 6.64107 14.3006 6.30542C14.6362 5.96978 15.0639 5.7412 15.5294 5.64859C15.995 5.55599 16.4776 5.60352 16.9161 5.78517C17.3546 5.96682 17.7295 6.27443 17.9932 6.66911C18.2569 7.06379 18.3977 7.5278 18.3977 8.00248C18.3977 8.639 18.1448 9.24945 17.6947 9.69954C17.2446 10.1496 16.6342 10.4025 15.9977 10.4025ZM15.9977 7.19998C15.8389 7.19998 15.6838 7.24705 15.5518 7.33523C15.4198 7.42341 15.317 7.54874 15.2562 7.69538C15.1955 7.84201 15.1796 8.00337 15.2106 8.15904C15.2415 8.31471 15.318 8.4577 15.4302 8.56993C15.5424 8.68216 15.6854 8.7586 15.8411 8.78956C15.9968 8.82052 16.1581 8.80463 16.3048 8.74389C16.4514 8.68315 16.5767 8.5803 16.6649 8.44833C16.7531 8.31635 16.8002 8.1612 16.8002 8.00248C16.8002 7.78964 16.7156 7.58552 16.5651 7.43503C16.4146 7.28453 16.2105 7.19998 15.9977 7.19998Z" fill="#044D3A"/>
</g>
<defs>
<clipPath id="clip0_1384_36626">
<rect width="24" height="24" fill="white"/>
</clipPath>
</defs>
</svg>
