<svg width="16" height="16" viewBox="0 0 16 16" fill="none" xmlns="http://www.w3.org/2000/svg">
<g id="contact-book 1" clip-path="url(#clip0_1688_5402)">
<path id="Vector" d="M12.2647 11.58C12.1782 11.5801 12.093 11.5592 12.0164 11.5192C11.9397 11.4791 11.8739 11.4211 11.8247 11.35C11.6633 11.1174 11.4481 10.9272 11.1974 10.7957C10.9466 10.6642 10.6678 10.5954 10.3847 10.595H8.81465C8.53153 10.5954 8.25269 10.6642 8.00194 10.7957C7.75119 10.9272 7.53597 11.1174 7.37465 11.35C7.33736 11.4137 7.28728 11.469 7.22757 11.5125C7.16786 11.5559 7.09981 11.5865 7.02771 11.6023C6.9556 11.6181 6.88099 11.6189 6.80858 11.6045C6.73618 11.5901 6.66753 11.5609 6.60697 11.5186C6.54641 11.4764 6.49524 11.4221 6.45668 11.3592C6.41813 11.2962 6.39302 11.226 6.38294 11.1528C6.37286 11.0797 6.37803 11.0053 6.39811 10.9342C6.4182 10.8632 6.45277 10.7971 6.49965 10.74C6.75926 10.365 7.10597 10.0585 7.51005 9.84687C7.91413 9.63526 8.36351 9.52481 8.81965 9.52502H10.3947C10.8508 9.52481 11.3002 9.63526 11.7042 9.84687C12.1083 10.0585 12.455 10.365 12.7147 10.74C12.7701 10.82 12.8027 10.9135 12.809 11.0106C12.8153 11.1077 12.7949 11.2047 12.7502 11.2911C12.7055 11.3775 12.638 11.45 12.5551 11.5009C12.4722 11.5519 12.3769 11.5792 12.2797 11.58H12.2647Z" fill="#61646B"/>
<path id="Vector_2" d="M9.59961 8.91998C9.1546 8.91998 8.71959 8.78802 8.34958 8.54079C7.97957 8.29356 7.69118 7.94216 7.52088 7.53102C7.35058 7.11989 7.30603 6.66749 7.39284 6.23103C7.47966 5.79457 7.69395 5.39366 8.00862 5.07899C8.32329 4.76433 8.7242 4.55003 9.16066 4.46322C9.59711 4.3764 10.0495 4.42096 10.4606 4.59125C10.8718 4.76155 11.2232 5.04994 11.4704 5.41995C11.7177 5.78996 11.8496 6.22498 11.8496 6.66998C11.8496 7.26672 11.6126 7.83902 11.1906 8.26097C10.7686 8.68293 10.1963 8.91998 9.59961 8.91998ZM9.59961 5.48998C9.36623 5.48998 9.13809 5.55919 8.94404 5.68885C8.74999 5.81851 8.59874 6.0028 8.50943 6.21842C8.42012 6.43403 8.39675 6.67129 8.44228 6.90019C8.48781 7.12909 8.6002 7.33934 8.76522 7.50437C8.93025 7.6694 9.14051 7.78178 9.3694 7.82731C9.5983 7.87284 9.83556 7.84947 10.0512 7.76016C10.2668 7.67085 10.4511 7.51961 10.5807 7.32556C10.7104 7.13151 10.7796 6.90337 10.7796 6.66998C10.7757 6.35917 10.6498 6.06235 10.4291 5.84349C10.2083 5.62464 9.91044 5.50127 9.59961 5.49998V5.48998Z" fill="#61646B"/>
<path id="Vector_3" d="M3.73477 12.8C3.59287 12.8 3.4568 12.7436 3.35646 12.6433C3.25613 12.5429 3.19977 12.4069 3.19977 12.265V3.73498C3.19256 3.66071 3.20097 3.58576 3.22445 3.51494C3.24794 3.44412 3.28597 3.37899 3.33612 3.32374C3.38627 3.26849 3.44742 3.22435 3.51564 3.19413C3.58386 3.16392 3.65765 3.14832 3.73227 3.14832C3.80688 3.14832 3.88067 3.16392 3.94889 3.19413C4.01711 3.22435 4.07826 3.26849 4.12841 3.32374C4.17856 3.37899 4.2166 3.44412 4.24008 3.51494C4.26356 3.58576 4.27197 3.66071 4.26477 3.73498V12.265C4.26477 12.406 4.20909 12.5413 4.10984 12.6415C4.01059 12.7417 3.87579 12.7987 3.73477 12.8Z" fill="#61646B"/>
<path id="Vector_4" d="M12.265 16H3.735C3.24433 16.0007 2.75835 15.9045 2.3049 15.717C1.85145 15.5296 1.43945 15.2545 1.09249 14.9075C0.745534 14.5606 0.470441 14.1486 0.282973 13.6951C0.0955046 13.2417 -0.000654823 12.7557 3.35601e-06 12.265V3.735C3.35601e-06 2.74442 0.393511 1.79441 1.09396 1.09396C1.79441 0.393511 2.74442 3.35601e-06 3.735 3.35601e-06H12.265C12.7557 -0.000654823 13.2417 0.0955046 13.6951 0.282973C14.1486 0.470441 14.5606 0.745534 14.9075 1.09249C15.2545 1.43945 15.5296 1.85145 15.717 2.3049C15.9045 2.75835 16.0007 3.24433 16 3.735V12.265C16 13.2556 15.6065 14.2056 14.906 14.906C14.2056 15.6065 13.2556 16 12.265 16ZM3.735 1.065C3.38419 1.06434 3.0367 1.13296 2.71246 1.2669C2.38822 1.40085 2.09362 1.5975 1.84556 1.84556C1.5975 2.09362 1.40085 2.38822 1.2669 2.71246C1.13296 3.0367 1.06434 3.38419 1.065 3.735V12.265C1.065 12.9718 1.34578 13.6497 1.84556 14.1494C2.34535 14.6492 3.0232 14.93 3.73 14.93H12.265C12.9718 14.93 13.6497 14.6492 14.1494 14.1494C14.6492 13.6497 14.93 12.9718 14.93 12.265V3.735C14.93 3.0282 14.6492 2.35035 14.1494 1.85056C13.6497 1.35078 12.9718 1.07 12.265 1.07L3.735 1.065Z" fill="#61646B"/>
</g>
<defs>
<clipPath id="clip0_1688_5402">
<rect width="16" height="16" fill="white"/>
</clipPath>
</defs>
</svg>
