<svg width="14" height="14" viewBox="0 0 14 14" fill="none" xmlns="http://www.w3.org/2000/svg">
<g id="edit-text 1">
<g id="Layer 92">
<path id="Vector" d="M12.3083 1.69166C12.1455 1.52675 11.9516 1.39582 11.7378 1.30645C11.524 1.21708 11.2946 1.17107 11.0629 1.17107C10.8312 1.17107 10.6018 1.21708 10.388 1.30645C10.1742 1.39582 9.98028 1.52675 9.81749 1.69166L8.69749 2.82916L11.1708 5.30249L12.2908 4.18249C12.4569 4.02087 12.5892 3.82787 12.6801 3.61471C12.7709 3.40155 12.8186 3.17246 12.8202 2.94073C12.8218 2.70901 12.7774 2.47928 12.6895 2.26486C12.6017 2.05044 12.4721 1.8556 12.3083 1.69166Z" fill="#044D3A"/>
<path id="Vector_2" d="M7.86916 3.6575L2.975 8.55167C2.93112 8.59677 2.89381 8.64783 2.86416 8.70333L1.2425 11.9758C1.19545 12.0642 1.17192 12.1631 1.17417 12.2632C1.17643 12.3632 1.20438 12.461 1.25536 12.5472C1.30633 12.6333 1.3786 12.7048 1.46523 12.755C1.55186 12.8051 1.64992 12.8321 1.75 12.8333C1.83888 12.8337 1.92667 12.8137 2.00666 12.775L5.27916 11.1533C5.33467 11.1237 5.38572 11.0864 5.43083 11.0425L10.325 6.14833L7.86916 3.6575Z" fill="#044D3A"/>
<path id="Vector_3" d="M12.25 12.8333H7C6.84529 12.8333 6.69691 12.7719 6.58752 12.6625C6.47812 12.5531 6.41666 12.4047 6.41666 12.25C6.41666 12.0953 6.47812 11.9469 6.58752 11.8375C6.69691 11.7281 6.84529 11.6667 7 11.6667H12.25C12.4047 11.6667 12.5531 11.7281 12.6625 11.8375C12.7719 11.9469 12.8333 12.0953 12.8333 12.25C12.8333 12.4047 12.7719 12.5531 12.6625 12.6625C12.5531 12.7719 12.4047 12.8333 12.25 12.8333Z" fill="#044D3A"/>
</g>
</g>
</svg>
