<svg width="24" height="24" viewBox="0 0 24 24" fill="none" xmlns="http://www.w3.org/2000/svg">
<g clip-path="url(#clip0_3606_11894)">
<path d="M20.1239 23.992C20.0819 23.997 20.0399 24 19.9989 24C19.5019 24 19.0709 23.63 19.0079 23.124C18.5499 19.461 15.7339 17 11.9999 17C8.26593 17 5.44993 19.461 4.99193 23.124C4.92293 23.672 4.41893 24.062 3.87593 23.992C3.32793 23.924 2.93893 23.424 3.00793 22.876C3.58793 18.239 7.28493 15 11.9999 15C16.7149 15 20.4129 18.239 20.9919 22.876C21.0599 23.424 20.6719 23.924 20.1239 23.992ZM4.49993 7C4.49993 6.448 4.94793 6 5.49993 6H5.99993V5.5C5.99993 2.467 8.46693 0 11.4999 0H12.4999C15.5329 0 17.9999 2.467 17.9999 5.5V6H18.4999C19.0519 6 19.4999 6.448 19.4999 7C19.4999 7.552 19.0519 8 18.4999 8H17.9999C17.9999 11.309 15.3089 14 11.9999 14C8.69093 14 5.99993 11.309 5.99993 8H5.49993C4.94793 8 4.49993 7.552 4.49993 7ZM15.9999 8H7.99993C7.99993 10.206 9.79393 12 11.9999 12C14.2059 12 15.9999 10.206 15.9999 8ZM7.99993 6H15.9999V5.5C15.9999 3.74 14.6939 2.279 12.9999 2.036V4C12.9999 4.552 12.5519 5 11.9999 5C11.4479 5 10.9999 4.552 10.9999 4V2.036C9.30593 2.279 7.99993 3.74 7.99993 5.5V6Z" fill="#483C32"/>
</g>
<defs>
<clipPath id="clip0_3606_11894">
<rect width="24" height="24" fill="white"/>
</clipPath>
</defs>
</svg>
