<svg width="20" height="20" viewBox="0 0 20 20" fill="none" xmlns="http://www.w3.org/2000/svg">
<g id="gallery (1) 1">
<g id="01">
<path id="Vector" d="M5.20817 6.66675C5.20817 7.12 5.34257 7.56307 5.59439 7.93993C5.8462 8.31679 6.20411 8.61052 6.62285 8.78397C7.0416 8.95742 7.50238 9.0028 7.94692 8.91438C8.39146 8.82596 8.79979 8.6077 9.12029 8.2872C9.44078 7.9667 9.65904 7.55837 9.74747 7.11383C9.83589 6.66929 9.79051 6.20851 9.61706 5.78976C9.44361 5.37102 9.14988 5.01311 8.77302 4.7613C8.39615 4.50948 7.95308 4.37508 7.49984 4.37508C6.89218 4.37552 6.30955 4.61711 5.87987 5.04678C5.4502 5.47646 5.20861 6.05909 5.20817 6.66675ZM8.5415 6.66675C8.5415 6.87277 8.48041 7.07416 8.36595 7.24547C8.25149 7.41677 8.0888 7.55028 7.89846 7.62912C7.70813 7.70796 7.49868 7.72859 7.29662 7.6884C7.09455 7.64821 6.90895 7.549 6.76327 7.40332C6.61759 7.25764 6.51838 7.07203 6.47818 6.86997C6.43799 6.6679 6.45862 6.45846 6.53746 6.26812C6.6163 6.07778 6.74982 5.91509 6.92112 5.80063C7.09242 5.68617 7.29381 5.62508 7.49984 5.62508C7.77597 5.62552 8.04066 5.73541 8.23592 5.93066C8.43117 6.12592 8.54106 6.39062 8.5415 6.66675ZM18.3332 7.70841C18.1674 7.70841 18.0084 7.77426 17.8912 7.89147C17.774 8.00868 17.7082 8.16765 17.7082 8.33341V10.2226L17.3823 9.94341C16.9371 9.57455 16.3771 9.37269 15.799 9.37269C15.2209 9.37269 14.6609 9.57455 14.2157 9.94341L10.7498 12.9167C10.5314 13.0907 10.2604 13.1854 9.98109 13.1854C9.70182 13.1854 9.43081 13.0907 9.21234 12.9167L8.93567 12.6792C8.52515 12.3395 8.01638 12.1404 7.48427 12.1115C6.95216 12.0825 6.4248 12.2252 5.97984 12.5184L2.54067 14.8267C2.36029 14.0647 2.27657 13.283 2.2915 12.5001V7.50008C2.2915 3.65508 3.65484 2.29175 7.49984 2.29175H10.8332C10.9989 2.29175 11.1579 2.2259 11.2751 2.10869C11.3923 1.99148 11.4582 1.83251 11.4582 1.66675C11.4582 1.50099 11.3923 1.34202 11.2751 1.22481C11.1579 1.1076 10.9989 1.04175 10.8332 1.04175H7.49984C2.97317 1.04175 1.0415 2.97258 1.0415 7.50008V12.5001C1.0415 17.0276 2.97317 18.9584 7.49984 18.9584H12.4998C17.0265 18.9584 18.9582 17.0276 18.9582 12.5001V8.33341C18.9582 8.16765 18.8923 8.00868 18.7751 7.89147C18.6579 7.77426 18.4989 7.70841 18.3332 7.70841ZM17.7082 12.5001C17.7082 16.3451 16.3448 17.7084 12.4998 17.7084H7.49984C5.20234 17.7084 3.7965 17.2159 3.03234 16.0042L6.67567 13.5592C6.89415 13.4195 7.15069 13.3511 7.40975 13.3637C7.66881 13.3762 7.91755 13.469 8.1215 13.6292L8.39817 13.8676C8.84301 14.2372 9.40314 14.4395 9.9815 14.4395C10.5599 14.4395 11.12 14.2372 11.5648 13.8676L15.0332 10.8917C15.2518 10.7186 15.5226 10.6243 15.8015 10.6243C16.0804 10.6243 16.3512 10.7186 16.5698 10.8917L17.7098 11.8701L17.7082 12.5001ZM12.4998 4.16675C12.4998 4.00099 12.5657 3.84202 12.6829 3.72481C12.8001 3.6076 12.9591 3.54175 13.1248 3.54175H14.7915V1.87508C14.7915 1.70932 14.8573 1.55035 14.9746 1.43314C15.0918 1.31593 15.2507 1.25008 15.4165 1.25008C15.5823 1.25008 15.7412 1.31593 15.8584 1.43314C15.9757 1.55035 16.0415 1.70932 16.0415 1.87508V3.54175H17.7082C17.8739 3.54175 18.0329 3.6076 18.1501 3.72481C18.2673 3.84202 18.3332 4.00099 18.3332 4.16675C18.3332 4.33251 18.2673 4.49148 18.1501 4.60869C18.0329 4.7259 17.8739 4.79175 17.7082 4.79175H16.0415V6.45841C16.0415 6.62417 15.9757 6.78314 15.8584 6.90036C15.7412 7.01757 15.5823 7.08341 15.4165 7.08341C15.2507 7.08341 15.0918 7.01757 14.9746 6.90036C14.8573 6.78314 14.7915 6.62417 14.7915 6.45841V4.79175H13.1248C12.9591 4.79175 12.8001 4.7259 12.6829 4.60869C12.5657 4.49148 12.4998 4.33251 12.4998 4.16675Z" fill="#044D3A"/>
</g>
</g>
</svg>
