<svg width="20" height="20" viewBox="0 0 20 20" fill="none" xmlns="http://www.w3.org/2000/svg">
<g id="house-building (2) 1" clip-path="url(#clip0_1624_11809)">
<path id="Vector" d="M15.8333 12.5H15C14.5392 12.5 14.1667 12.1275 14.1667 11.6667C14.1667 11.2058 14.5392 10.8333 15 10.8333H15.8333C16.2942 10.8333 16.6667 11.2058 16.6667 11.6667C16.6667 12.1275 16.2942 12.5 15.8333 12.5ZM16.6667 15C16.6667 14.5392 16.2942 14.1667 15.8333 14.1667H15C14.5392 14.1667 14.1667 14.5392 14.1667 15C14.1667 15.4608 14.5392 15.8333 15 15.8333H15.8333C16.2942 15.8333 16.6667 15.4608 16.6667 15ZM13.3333 5C13.3333 4.53917 12.9608 4.16667 12.5 4.16667H11.6667C11.2058 4.16667 10.8333 4.53917 10.8333 5C10.8333 5.46083 11.2058 5.83333 11.6667 5.83333H12.5C12.9608 5.83333 13.3333 5.46083 13.3333 5ZM16.6667 5C16.6667 4.53917 16.2942 4.16667 15.8333 4.16667H15C14.5392 4.16667 14.1667 4.53917 14.1667 5C14.1667 5.46083 14.5392 5.83333 15 5.83333H15.8333C16.2942 5.83333 16.6667 5.46083 16.6667 5ZM16.6667 8.33333C16.6667 7.8725 16.2942 7.5 15.8333 7.5H15C14.5392 7.5 14.1667 7.8725 14.1667 8.33333C14.1667 8.79417 14.5392 9.16667 15 9.16667H15.8333C16.2942 9.16667 16.6667 8.79417 16.6667 8.33333ZM20 15.8333V4.16667C20 1.86917 18.1308 0 15.8333 0H11.6667C9.36917 0 7.5 1.86917 7.5 4.16667C7.5 4.6275 7.8725 5 8.33333 5C8.79417 5 9.16667 4.6275 9.16667 4.16667C9.16667 2.78833 10.2883 1.66667 11.6667 1.66667H15.8333C17.2117 1.66667 18.3333 2.78833 18.3333 4.16667V15.8333C18.3333 17.2117 17.2117 18.3333 15.8333 18.3333H15C14.5392 18.3333 14.1667 18.7058 14.1667 19.1667C14.1667 19.6275 14.5392 20 15 20H15.8333C18.1308 20 20 18.1308 20 15.8333ZM13.3333 16.25V12.79C13.3333 11.5 12.7508 10.305 11.7342 9.50833L9.23417 7.55083C7.7225 6.36917 5.61083 6.36833 4.09917 7.55083L1.59917 9.5075C0.5825 10.3033 0 11.4992 0 12.7892V16.2492C0 18.3167 1.6825 19.9992 3.75 19.9992H9.58333C11.6508 19.9992 13.3333 18.3175 13.3333 16.25ZM8.2075 8.86417L10.7075 10.8208C11.3167 11.2983 11.6667 12.0167 11.6667 12.79V16.25C11.6667 17.3992 10.7325 18.3333 9.58333 18.3333H3.75C2.60083 18.3333 1.66667 17.3992 1.66667 16.25V12.79C1.66667 12.0158 2.01667 11.2983 2.62583 10.8208L5.12583 8.865C5.57917 8.51 6.1225 8.3325 6.66667 8.3325C7.21083 8.3325 7.75417 8.51 8.2075 8.86417ZM8.33333 15V13.3333C8.33333 12.8733 7.96 12.5 7.5 12.5H5.83333C5.37333 12.5 5 12.8733 5 13.3333V15C5 15.46 5.37333 15.8333 5.83333 15.8333H7.5C7.96 15.8333 8.33333 15.46 8.33333 15Z" fill="#757575"/>
</g>
<defs>
<clipPath id="clip0_1624_11809">
<rect width="20" height="20" fill="white"/>
</clipPath>
</defs>
</svg>
