<svg width="14" height="14" viewBox="0 0 14 14" fill="none" xmlns="http://www.w3.org/2000/svg">
<g id="Image">
<g id="Group 3">
<mask id="mask0_4355_2336" style="mask-type:luminance" maskUnits="userSpaceOnUse" x="0" y="0" width="14" height="14">
<path id="Clip 2" fill-rule="evenodd" clip-rule="evenodd" d="M0.333008 0.333191H13.6394V13.6331H0.333008V0.333191Z" fill="white"/>
</mask>
<g mask="url(#mask0_4355_2336)">
<path id="Fill 1" fill-rule="evenodd" clip-rule="evenodd" d="M4.09948 1.33166C2.41882 1.33166 1.33282 2.48299 1.33282 4.26432V9.69899C1.33282 11.481 2.41882 12.6317 4.09948 12.6317H9.86615C11.5508 12.6317 12.6395 11.481 12.6395 9.69899V4.26432C12.6395 2.48299 11.5508 1.33166 9.86615 1.33166H4.09948ZM9.86634 13.6319H4.09968C1.84634 13.6319 0.333008 12.0512 0.333008 9.69918V4.26452C0.333008 1.91252 1.84634 0.331848 4.09968 0.331848H9.86634C12.123 0.331848 13.6397 1.91252 13.6397 4.26452V9.69918C13.6397 12.0512 12.123 13.6319 9.86634 13.6319Z" fill="#044D3A"/>
</g>
</g>
<path id="Fill 4" fill-rule="evenodd" clip-rule="evenodd" d="M2.52051 10.4531C2.39651 10.4531 2.27318 10.4078 2.17651 10.3158C1.97585 10.1264 1.96785 9.80909 2.15785 9.60976L3.17651 8.53443C3.71585 7.96176 4.62585 7.93376 5.20118 8.47376L5.83985 9.12176C6.01785 9.30176 6.30718 9.30509 6.48585 9.12909C6.55318 9.04976 8.00518 7.28643 8.00518 7.28643C8.28118 6.95176 8.67051 6.74509 9.10318 6.70243C9.53651 6.66443 9.95718 6.79043 10.2925 7.06576C10.3212 7.08909 10.3472 7.11176 11.8112 8.61509C12.0038 8.81243 12.0005 9.12909 11.8025 9.32176C11.6052 9.51576 11.2878 9.50976 11.0952 9.31243C11.0952 9.31243 9.72918 7.91043 9.63185 7.81576C9.52851 7.73109 9.36251 7.68176 9.19918 7.69776C9.03318 7.71443 8.88385 7.79376 8.77785 7.92243C7.22851 9.80176 7.20985 9.81976 7.18451 9.84443C6.61251 10.4058 5.68918 10.3964 5.12718 9.82309C5.12718 9.82309 4.50718 9.19376 4.49651 9.18109C4.34251 9.03843 4.06785 9.04776 3.90318 9.22176L2.88318 10.2971C2.78451 10.4011 2.65251 10.4531 2.52051 10.4531Z" fill="#044D3A"/>
<path id="Fill 6" fill-rule="evenodd" clip-rule="evenodd" d="M4.70465 4.41782C4.33598 4.41782 4.03598 4.71782 4.03598 5.08715C4.03598 5.45649 4.33598 5.75716 4.70532 5.75716C5.07465 5.75716 5.37532 5.45649 5.37532 5.08715C5.37532 4.71849 5.07465 4.41849 4.70465 4.41782ZM4.70547 6.75749C3.7848 6.75749 3.03613 6.00815 3.03613 5.08749C3.03613 4.16682 3.7848 3.41815 4.70547 3.41815C5.6268 3.41882 6.37547 4.16815 6.37547 5.08749C6.37547 6.00815 5.62613 6.75749 4.70547 6.75749Z" fill="#044D3A"/>
</g>
</svg>
