<svg width="16" height="16" viewBox="0 0 16 16" fill="none" xmlns="http://www.w3.org/2000/svg">
<g id="land 1" clip-path="url(#clip0_1384_77645)">
<g id="Group">
<path id="Vector" d="M15.996 9.1485H14.3391V7.07525C15.2885 6.8611 16 6.0115 16 4.99829V4.57113C16 3.39685 15.0447 2.44153 13.8704 2.44153C12.6962 2.44153 11.7409 3.39685 11.7409 4.57113V4.99829C11.7409 6.01147 12.4524 6.8611 13.4018 7.07525V9.1485H4.71197V7.07525C5.66144 6.8611 6.37291 6.0115 6.37291 4.99829V4.57113C6.37291 3.54416 5.64222 2.68469 4.67344 2.48522C4.53528 1.324 3.54516 0.42041 2.34737 0.42041C1.05534 0.42041 0.00421875 1.47154 0.00421875 2.76357V4.78472C0.00421875 5.91629 0.810531 6.863 1.87875 7.08069V9.14847H0V10.0857H6.25797C8.87259 10.0857 11.0277 12.0897 11.2686 14.6424H10.3576C10.1205 12.5903 8.37256 10.9918 6.25794 10.9918H0V11.929H6.25797C7.855 11.929 9.18159 13.1087 9.41244 14.6424H8.49166C8.27175 13.611 7.35397 12.835 6.258 12.835H0V13.7723H6.25797C6.83278 13.7723 7.32437 14.1344 7.51734 14.6424H0V15.5796H15.996V14.6424H12.2096C12.186 14.3458 12.1409 14.0552 12.0754 13.7723H15.996V12.835H11.7741C11.6425 12.5184 11.4845 12.2155 11.3027 11.929H15.996V10.9918H10.5682C10.2389 10.648 9.86903 10.3433 9.46628 10.0857H15.996V9.1485H15.996ZM12.6781 4.99829V4.57113C12.6781 3.91366 13.213 3.37882 13.8704 3.37882C14.5279 3.37882 15.0627 3.91369 15.0627 4.57113V4.99829C15.0627 5.65572 14.5279 6.1906 13.8704 6.1906C13.213 6.1906 12.6781 5.65572 12.6781 4.99829ZM5.43566 4.57113V4.99829C5.43566 5.65572 4.90078 6.1906 4.24334 6.1906C3.58591 6.1906 3.05103 5.65572 3.05103 4.99829V4.57113C3.05103 3.91366 3.58591 3.37882 4.24334 3.37882C4.90078 3.37882 5.43566 3.91366 5.43566 4.57113ZM0.9415 4.78472V2.76357C0.9415 1.98835 1.57219 1.35766 2.34741 1.35766C3.03416 1.35766 3.60709 1.85275 3.729 2.50469C2.80247 2.73541 2.11378 3.57419 2.11378 4.5711V4.99825C2.11378 5.43688 2.24716 5.84488 2.47537 6.18404C2.43291 6.18791 2.39028 6.19057 2.34741 6.19057C1.57219 6.1906 0.9415 5.55991 0.9415 4.78472ZM2.81603 7.08057C2.9895 7.04525 3.15853 6.99035 3.31969 6.91691C3.46313 6.98625 3.61569 7.03941 3.77472 7.07525V9.1485H2.81603V7.08057Z" fill="#61646B"/>
</g>
</g>
<defs>
<clipPath id="clip0_1384_77645">
<rect width="16" height="16" fill="white"/>
</clipPath>
</defs>
</svg>
