<svg width="24" height="24" viewBox="0 0 24 24" fill="none" xmlns="http://www.w3.org/2000/svg">
<g clip-path="url(#clip0_3606_11898)">
<path d="M22.46 9.047L22 8.606V8C22 5.794 20.206 4 18 4H5.99996C3.79396 4 1.99996 5.794 1.99996 8V8.61L1.54196 9.048C0.562959 9.986 0.00195886 11.303 0.00195886 12.658V18.999C-4.11381e-05 20.335 0.520959 21.591 1.46496 22.535C2.40896 23.479 3.66496 24 5.00096 24H19C21.757 24 24 21.757 24 19V12.657C24 11.301 23.438 9.984 22.46 9.047ZM5.99996 6H18C19.103 6 20 6.897 20 8V11.242L14.121 17.121C12.988 18.254 11.012 18.254 9.87896 17.121L3.99996 11.242V8C3.99996 6.897 4.89696 6 5.99996 6ZM22 19C22 20.654 20.654 22 19 22H5.00096C4.19896 22 3.44496 21.688 2.87896 21.121C2.31296 20.555 2.00096 19.801 2.00096 18.999V12.658C2.00096 12.479 2.02496 12.301 2.05596 12.127L8.46396 18.535C9.40696 19.479 10.663 20 11.999 20C13.335 20 14.591 19.479 15.534 18.535L21.944 12.125C21.976 12.3 21.999 12.478 21.999 12.657L22 19ZM4.99996 1C4.99996 0.447 5.44696 0 5.99996 0H18C18.553 0 19 0.447 19 1C19 1.553 18.553 2 18 2H5.99996C5.44696 2 4.99996 1.553 4.99996 1ZM16 8.5C16 7.67 16.67 7 17.5 7C18.33 7 19 7.67 19 8.5C19 9.33 18.33 10 17.5 10C16.67 10 16 9.33 16 8.5ZM12 16C13.93 16 15.5 14.43 15.5 12.5C15.5 10.57 13.93 9 12 9C10.07 9 8.49996 10.57 8.49996 12.5C8.49996 14.43 10.07 16 12 16ZM12 11C12.827 11 13.5 11.673 13.5 12.5C13.5 13.327 12.827 14 12 14C11.173 14 10.5 13.327 10.5 12.5C10.5 11.673 11.173 11 12 11ZM4.99996 8.5C4.99996 7.67 5.66996 7 6.49996 7C7.32996 7 7.99996 7.67 7.99996 8.5C7.99996 9.33 7.32996 10 6.49996 10C5.66996 10 4.99996 9.33 4.99996 8.5Z" fill="#483C32"/>
</g>
<defs>
<clipPath id="clip0_3606_11898">
<rect width="24" height="24" fill="white"/>
</clipPath>
</defs>
</svg>
