<svg width="20" height="20" viewBox="0 0 20 20" fill="none" xmlns="http://www.w3.org/2000/svg">
<g id="id-card-clip-alt 2" clip-path="url(#clip0_1384_29316)">
<path id="Vector" d="M15.8333 3.33333H12.5V2.5C12.5 1.12167 11.3783 0 10 0C8.62167 0 7.5 1.12167 7.5 2.5V3.33333H4.16667C1.86917 3.33333 0 5.2025 0 7.5V15.8333C0 18.1308 1.86917 20 4.16667 20H15.8333C18.1308 20 20 18.1308 20 15.8333V7.5C20 5.2025 18.1308 3.33333 15.8333 3.33333ZM9.16667 2.5C9.16667 2.04 9.54083 1.66667 10 1.66667C10.4592 1.66667 10.8333 2.04 10.8333 2.5V4.1625C10.8333 4.1625 10.8333 4.165 10.8333 4.16667C10.8333 4.16833 10.8333 4.16917 10.8333 4.17083V5H9.16583V2.5H9.16667ZM18.3333 15.8333C18.3333 17.2117 17.2117 18.3333 15.8333 18.3333H4.16667C2.78833 18.3333 1.66667 17.2117 1.66667 15.8333V7.5C1.66667 6.12167 2.78833 5 4.16667 5H7.5C7.5 5.91917 8.2475 6.66667 9.16667 6.66667H10.8333C11.7525 6.66667 12.5 5.91917 12.5 5H15.8333C17.2117 5 18.3333 6.12167 18.3333 7.5V15.8333ZM7.91667 10.4167C7.91667 9.26583 8.84917 8.33333 10 8.33333C11.1508 8.33333 12.0833 9.26583 12.0833 10.4167C12.0833 11.5675 11.1508 12.5 10 12.5C8.84917 12.5 7.91667 11.5675 7.91667 10.4167ZM14.14 16.4592C14.255 16.9042 13.9867 17.3592 13.5408 17.4742C13.0925 17.59 12.6408 17.32 12.5258 16.8742C12.25 15.8058 11.1642 15 9.99917 15C8.83417 15 7.7475 15.8058 7.4725 16.8742C7.37583 17.25 7.0375 17.5 6.66583 17.5C6.5975 17.5 6.5275 17.4917 6.4575 17.4742C6.01167 17.3592 5.74333 16.905 5.85833 16.4592C6.32417 14.6475 8.065 13.3333 9.99833 13.3333C11.9317 13.3333 13.6725 14.6475 14.1383 16.4592H14.14Z" fill="#757575"/>
</g>
<defs>
<clipPath id="clip0_1384_29316">
<rect width="20" height="20" fill="white"/>
</clipPath>
</defs>
</svg>
