<svg width="20" height="20" viewBox="0 0 20 20" fill="none" xmlns="http://www.w3.org/2000/svg">
<path d="M5.83333 0.000490661H3.33333C1.49167 0.000490661 0 1.49216 0 3.33382V5.83382C0 7.67549 1.49167 9.16716 3.33333 9.16716H5.83333C7.675 9.16716 9.16667 7.67549 9.16667 5.83382V3.33382C9.16667 1.49216 7.675 0.000490661 5.83333 0.000490661ZM7.5 5.83382C7.5 6.75049 6.75 7.50049 5.83333 7.50049H3.33333C2.41667 7.50049 1.66667 6.75049 1.66667 5.83382V3.33382C1.66667 2.41716 2.41667 1.66716 3.33333 1.66716H5.83333C6.75 1.66716 7.5 2.41716 7.5 3.33382V5.83382ZM16.6667 10.8338H14.1667C12.325 10.8338 10.8333 12.3255 10.8333 14.1672V16.6672C10.8333 18.5088 12.325 20.0005 14.1667 20.0005H16.6667C18.5083 20.0005 20 18.5088 20 16.6672V14.1672C20 12.3255 18.5083 10.8338 16.6667 10.8338ZM18.3333 16.6672C18.3333 17.5838 17.5833 18.3338 16.6667 18.3338H14.1667C13.25 18.3338 12.5 17.5838 12.5 16.6672V14.1672C12.5 13.2505 13.25 12.5005 14.1667 12.5005H16.6667C17.5833 12.5005 18.3333 13.2505 18.3333 14.1672V16.6672ZM10.8333 4.16716C10.8333 3.28382 11.2 2.45882 11.875 1.85049L13.6 0.225491C13.9333 -0.091176 14.4583 -0.0745093 14.775 0.258824C15.0917 0.592157 15.075 1.12549 14.7417 1.43382L13.0083 3.05882C12.9167 3.14216 12.8417 3.23382 12.775 3.32549H15.8333C17.675 3.32549 19.1667 4.81716 19.1667 6.65882V8.32549C19.1667 8.78382 18.7917 9.15882 18.3333 9.15882C17.875 9.15882 17.5 8.78382 17.5 8.32549V6.65882C17.5 5.74216 16.75 4.99216 15.8333 4.99216H12.775C12.8417 5.08382 12.9167 5.16716 13 5.25049L14.7417 6.88382C15.075 7.20049 15.0917 7.72549 14.775 8.05882C14.6083 8.23382 14.3917 8.31716 14.1667 8.31716C13.9583 8.31716 13.7583 8.24216 13.5917 8.09216L11.8583 6.46716C11.2 5.85882 10.825 5.03382 10.825 4.15882L10.8333 4.16716ZM9.16667 15.8338C9.16667 16.7172 8.8 17.5338 8.125 18.1505L6.4 19.7755C6.24167 19.9255 6.03333 20.0005 5.825 20.0005C5.6 20.0005 5.38333 19.9088 5.21667 19.7422C4.9 19.4088 4.91667 18.8755 5.25 18.5672L6.98333 16.9422C7.075 16.8588 7.15 16.7672 7.21667 16.6755H4.15833C2.31667 16.6755 0.825 15.1838 0.825 13.3422V11.6755C0.825 11.2172 1.2 10.8422 1.65833 10.8422C2.11667 10.8422 2.49167 11.2172 2.49167 11.6755V13.3422C2.49167 14.2588 3.24167 15.0088 4.15833 15.0088H7.21667C7.15 14.9172 7.075 14.8338 6.99167 14.7505L5.25 13.1172C4.91667 12.8005 4.9 12.2755 5.21667 11.9422C5.53333 11.6088 6.05833 11.5922 6.39167 11.9088L8.125 13.5338C8.78333 14.1422 9.15833 14.9672 9.15833 15.8422L9.16667 15.8338Z" fill="#044D3A"/>
</svg>
