<svg width="16" height="16" viewBox="0 0 16 16" fill="none" xmlns="http://www.w3.org/2000/svg">
<g id="send (2) 2" clip-path="url(#clip0_1384_36637)">
<path id="Vector" fill-rule="evenodd" clip-rule="evenodd" d="M0.666892 2.14614C0.666892 1.32906 1.32926 0.666687 2.14634 0.666687C2.37059 0.666687 2.5919 0.717667 2.79355 0.815767L14.359 6.44222C14.9552 6.73222 15.3336 7.33709 15.3336 8.00002C15.3336 8.66296 14.9552 9.26782 14.359 9.55782L2.79355 15.1843C2.5919 15.2824 2.37058 15.3334 2.14634 15.3334C1.32926 15.3334 0.666892 14.671 0.666892 13.8539C0.666892 13.7254 0.658077 13.5951 0.696371 13.4706L2.0297 9.13729C2.09836 8.91416 2.27872 8.74322 2.5052 8.68662L5.25149 8.00002L2.5052 7.31342C2.27872 7.25682 2.09836 7.08589 2.0297 6.86275L0.696371 2.52941C0.658077 2.40495 0.666892 2.27466 0.666892 2.14614ZM2.14634 2.00002C2.06564 2.00002 2.00022 2.06544 2.00022 2.14614V2.23311L3.19346 6.11115L8.16191 7.35329C8.45871 7.42742 8.66691 7.69409 8.66691 8.00002C8.66691 8.30596 8.45871 8.57262 8.16191 8.64676L3.19346 9.88889L2.00022 13.767V13.8539C2.00022 13.9346 2.06564 14 2.14634 14C2.16849 14 2.19035 13.995 2.21026 13.9853L13.7758 8.35882C13.913 8.29202 14.0002 8.15276 14.0002 8.00002C14.0002 7.84729 13.913 7.70802 13.7758 7.64122L2.21026 2.01475C2.19035 2.00505 2.16849 2.00002 2.14634 2.00002Z" fill="white"/>
</g>
<defs>
<clipPath id="clip0_1384_36637">
<rect width="16" height="16" fill="white"/>
</clipPath>
</defs>
</svg>
