<svg width="12" height="12" viewBox="0 0 12 12" fill="none" xmlns="http://www.w3.org/2000/svg">
<g id="star (8) 1" clip-path="url(#clip0_1582_98766)">
<path id="Vector" d="M11.664 4.35227L7.99338 3.81891L6.35177 0.492682C6.2082 0.201729 5.79192 0.201588 5.64823 0.492682L4.00667 3.81891L0.336 4.35227C0.0149769 4.39894 -0.113953 4.79475 0.118594 5.02139L2.7747 7.61049L2.14765 11.2663C2.12238 11.4135 2.18288 11.5622 2.30372 11.65C2.42452 11.7378 2.58464 11.7493 2.71683 11.6798L6 9.95384C9.57436 11.8329 9.32885 11.7249 9.46568 11.7249C9.70746 11.7249 9.89363 11.507 9.85235 11.2663L9.22533 7.61049L11.8815 5.02139C12.1137 4.79492 11.9853 4.39899 11.664 4.35227Z" fill="#F7AC16"/>
<path id="Vector_2" d="M6.00002 0.273926C5.8504 0.273926 5.71418 0.35898 5.6482 0.492598L4.00664 3.81882L0.336 4.35219C0.0149769 4.39886 -0.113953 4.79467 0.118594 5.02131L2.7747 7.6104L2.14765 11.2662C2.12238 11.4134 2.18288 11.5621 2.30372 11.6499C2.42452 11.7377 2.58464 11.7493 2.71683 11.6798L6 9.95375H6.00002V0.273926Z" fill="#F2D422"/>
<path id="Vector_3" d="M0.336 4.35224C0.0149769 4.3989 -0.113953 4.79472 0.118594 5.02136L2.7747 7.61045L2.14765 11.2663C2.12238 11.4135 2.18288 11.5622 2.30372 11.65C2.42452 11.7377 2.58464 11.7493 2.71683 11.6798L6 9.9538C9.57436 11.8329 9.32885 11.7249 9.46568 11.7249C9.54701 11.7249 9.62796 11.6996 9.69628 11.65L4.00664 3.81885L0.336 4.35224Z" fill="#F7AC16"/>
<path id="Vector_4" d="M4.18495 7.1588C1.33978 4.38542 1.46208 4.53406 1.4239 4.39023C1.40836 4.33245 1.40517 4.26523 1.42207 4.19434L0.336 4.35214C0.0149769 4.3988 -0.113953 4.79462 0.118594 5.02126L2.7747 7.61035L2.14765 11.2662C2.12238 11.4134 2.18288 11.5621 2.30372 11.6499C2.42452 11.7376 2.58464 11.7492 2.71683 11.6797L3.68215 11.1722C3.58284 11.0828 3.53498 10.9482 3.55791 10.8146L4.18495 7.1588Z" fill="#F48B19"/>
<path id="Vector_5" d="M0.118613 5.02128L2.77471 7.61038L2.14767 11.2662C2.1224 11.4134 2.18289 11.5621 2.30374 11.6499C2.42454 11.7376 2.58466 11.7492 2.71685 11.6797L6.00002 9.95373C9.57438 11.8328 9.32887 11.7248 9.4657 11.7248C9.70748 11.7248 9.89364 11.5069 9.85237 11.2662L9.22535 7.61038L0.0193086 4.61914C-0.0265586 4.78355 0.0193555 4.92458 0.118613 5.02128Z" fill="#F2D422"/>
<path id="Vector_6" d="M0.118613 5.02128L2.77471 7.61037L2.14767 11.2662C2.1224 11.4134 2.18289 11.5621 2.30374 11.6499C2.42454 11.7376 2.58466 11.7492 2.71685 11.6797L3.68217 11.1722C3.58286 11.0828 3.535 10.9482 3.55793 10.8146L4.18497 7.1588L2.35971 5.37959L0.0193086 4.61914C-0.0265586 4.78355 0.0193555 4.92458 0.118613 5.02128Z" fill="#EFB616"/>
<path id="Vector_7" d="M2.14776 11.2662C2.12249 11.4134 2.18298 11.5621 2.30383 11.6499C2.42462 11.7376 2.58475 11.7492 2.71694 11.6797L6.00011 9.9537C9.57447 11.8328 9.32896 11.7248 9.46579 11.7248C9.70757 11.7248 9.89373 11.5068 9.85246 11.2662L9.22544 7.61035L11.8816 5.02126C11.9885 4.91703 12.0269 4.76113 11.9808 4.61914L2.7748 7.61035L2.14776 11.2662Z" fill="#F7AC16"/>
<path id="Vector_8" d="M2.14776 11.2662C2.12249 11.4134 2.18298 11.5621 2.30383 11.6499C2.42462 11.7376 2.58475 11.7492 2.71694 11.6797L3.68226 11.1722C3.58295 11.0828 3.53509 10.9482 3.55801 10.8146L4.18506 7.1588L4.17993 7.15381L2.7748 7.61037L2.14776 11.2662Z" fill="#F48B19"/>
<path id="Vector_9" d="M2.71684 11.6798L5.99999 9.95378C9.57435 11.8329 9.32884 11.7249 9.46567 11.7249C9.70745 11.7249 9.89362 11.5069 9.85234 11.2663L9.22532 7.61043L11.8814 5.02133C12.1137 4.79486 11.9853 4.39893 11.664 4.35221L7.99335 3.81885L2.30371 11.6499C2.42451 11.7377 2.58463 11.7493 2.71684 11.6798Z" fill="#F2D422"/>
<path id="Vector_10" d="M11.9807 4.61914L5.99999 6.56239L2.30371 11.6499C2.42451 11.7376 2.58463 11.7492 2.71682 11.6797L5.99999 9.95373C9.57435 11.8328 9.32884 11.7248 9.46567 11.7248C9.70745 11.7248 9.89362 11.5069 9.85234 11.2662L9.22532 7.61038L11.8814 5.02128C11.9884 4.91703 12.0268 4.76115 11.9807 4.61914Z" fill="#F7AC16"/>
<path id="Vector_11" d="M9.22534 7.61048L5.99999 6.5625L2.30371 11.65C2.42451 11.7378 2.58463 11.7493 2.71682 11.6798L5.99999 9.95384C9.57435 11.8329 9.32884 11.7249 9.46567 11.7249C9.70745 11.7249 9.89362 11.507 9.85234 11.2663L9.22534 7.61048Z" fill="#F2D422"/>
<path id="Vector_12" d="M2.30371 11.65C2.42451 11.7378 2.58463 11.7493 2.71682 11.6798L5.99999 9.95384C9.57435 11.8329 9.32884 11.7249 9.46567 11.7249C9.547 11.7249 9.62795 11.6996 9.69627 11.65L5.99999 6.5625L2.30371 11.65Z" fill="#F7AC16"/>
<path id="Vector_13" d="M6.00002 6.56255L5.99999 6.5625L2.30371 11.65C2.42451 11.7378 2.58463 11.7493 2.71682 11.6798L5.99999 9.95384H6.00002V6.56255Z" fill="#F2D422"/>
<path id="Vector_14" d="M3.75794 9.64844L2.30371 11.65C2.42451 11.7377 2.58463 11.7493 2.71682 11.6798L3.68214 11.1723C3.58284 11.0829 3.53498 10.9483 3.5579 10.8147L3.75794 9.64844Z" fill="#EFB616"/>
</g>
<defs>
<clipPath id="clip0_1582_98766">
<rect width="12" height="12" fill="white"/>
</clipPath>
</defs>
</svg>
