<svg width="52" height="52" viewBox="0 0 52 52" fill="none" xmlns="http://www.w3.org/2000/svg">
<rect width="52" height="52" rx="26" fill="url(#paint0_linear_1583_104573)"/>
<g clip-path="url(#clip0_1583_104573)">
<path d="M36.6349 29.5347C36.1413 29.1907 35.5581 29.0636 35.0435 28.9515C34.8533 28.9078 34.6651 29.0308 34.6237 29.2211C34.582 29.4113 34.7026 29.5995 34.8932 29.6409C35.3651 29.7439 35.8531 29.8504 36.2316 30.1138C36.5239 30.3175 36.801 30.7083 36.7179 31.0854C36.5987 31.6275 35.8228 31.8685 35.3706 31.9639C33.7793 32.3003 32.1014 32.2852 30.4804 32.2717C29.5426 32.2638 28.5724 32.2555 27.6176 32.3134C26.9117 32.3565 26.1741 32.451 25.5641 32.8466C24.9344 33.2547 24.4277 34.1288 24.7289 34.9453C24.7872 35.1028 24.8672 35.2383 24.9447 35.3696C25.0436 35.5378 25.1291 35.6829 25.1336 35.8167C25.1394 35.9955 24.9868 36.1696 24.833 36.2627C24.6221 36.3902 24.3508 36.4419 24.0675 36.4884C21.2405 36.952 18.0932 37.0306 15.3692 36.7111C15.5028 36.0198 15.7528 35.2661 16.1271 34.4221C16.7177 34.4087 17.3677 34.3316 18.0671 34.1879C20.1106 33.7785 22.1577 32.8609 23.9824 31.5338C24.6494 31.0538 25.3024 30.5491 25.9236 30.0303C25.98 29.9844 26.0012 29.9067 25.98 29.8361C25.9553 29.7691 25.8918 29.7197 25.8177 29.7162C25.2036 29.695 24.3494 29.5714 23.4777 29.1726C24.473 29.1903 26.2412 29.0844 27.8083 28.3467C27.8259 28.3397 27.84 28.3291 27.8541 28.315C28.9341 27.2879 29.94 26.1938 30.8471 25.0644C30.8894 25.015 30.8965 24.9409 30.8683 24.8809C30.84 24.8209 30.78 24.7785 30.713 24.7785C30.1483 24.7714 29.1212 24.6726 28.0765 24.1503C29.0294 24.0832 30.8965 23.8926 32.0542 23.4197C32.0859 23.4091 32.1106 23.3879 32.1318 23.3597C33.3177 21.6656 34.2953 19.9114 35.0436 18.1467C35.0647 18.0973 35.0612 18.0409 35.0365 17.9914C35.0083 17.9456 34.9659 17.9138 34.913 17.9032C34.2989 17.7903 33.6812 17.7726 33.2224 17.7867C33.9988 17.3915 34.7541 17.2608 35.3012 17.2256C35.3683 17.2185 35.4283 17.1761 35.453 17.1091C35.9365 15.8103 36.0918 15.0303 36.0953 14.9985C36.113 14.9138 36.0671 14.8326 35.9894 14.8009C35.8906 14.762 33.533 13.8408 29.8553 14.8891C29.82 14.8997 29.7918 14.9173 29.7706 14.9456C29.0542 15.782 28.5459 16.8938 28.2635 17.6173C28.2318 16.982 28.2918 16.3256 28.4436 15.6656C28.4612 15.602 28.4365 15.535 28.3871 15.4926C28.3377 15.4503 28.2671 15.4397 28.2071 15.4644C26.873 16.0185 25.5424 16.7808 24.2506 17.7303C24.2294 17.7444 24.2153 17.7656 24.2012 17.7867C23.5906 18.8667 23.4036 20.3703 23.3471 21.2773C23.1 20.6208 22.9553 19.9114 22.913 19.1597C22.9094 19.0926 22.8671 19.0326 22.8071 19.0079C22.7436 18.9797 22.673 18.9938 22.62 19.0361C21.8542 19.7032 21.0741 20.4656 20.2977 21.2985C20.2871 21.3091 20.28 21.3197 20.273 21.3338C19.6553 22.4138 19.4718 23.9314 19.4153 24.8385C19.2247 24.3338 19.0941 23.7938 19.0236 23.2291C19.0165 23.1585 18.9671 23.0985 18.9 23.0809C18.8294 23.0632 18.7588 23.0844 18.713 23.1373C17.8412 24.2138 16.973 25.3961 16.133 26.6632C15.3106 27.8914 14.7918 29.2256 14.6259 30.5173C14.4424 31.9467 14.6824 32.935 14.9541 33.5491C19.7012 23.2679 27.9036 20.2291 27.9847 20.2008C28.1683 20.1338 28.3694 20.2291 28.4365 20.4126C28.5036 20.5961 28.4083 20.7973 28.2247 20.8644C28.1436 20.8926 20.1953 23.8503 15.5824 33.8738C15.5188 34.015 15.4588 34.1562 15.4059 34.2903C15.4079 34.2924 15.4097 34.2943 15.4116 34.2964C14.9861 35.2836 14.7238 36.1593 14.6112 36.9675C14.5843 37.1605 14.7187 37.3387 14.9121 37.3656C14.9129 37.3657 14.9137 37.3657 14.9145 37.3658C16.1474 37.5292 17.4737 37.6103 18.8255 37.6103C20.6201 37.6103 22.4596 37.4673 24.1816 37.185C24.5215 37.1295 24.8796 37.0592 25.1984 36.8665C25.6072 36.619 25.8526 36.2079 25.8388 35.7936C25.8288 35.4796 25.682 35.2307 25.5527 35.0112C25.4882 34.9019 25.4276 34.7988 25.3914 34.7006C25.2232 34.2457 25.5424 33.7018 25.948 33.4388C26.4451 33.1169 27.0927 33.0528 27.6607 33.0179C28.591 32.9614 29.5485 32.9697 30.4746 32.9776C32.1338 32.9917 33.8503 33.0066 35.5164 32.6547C36.5997 32.4261 37.2535 31.9357 37.4073 31.237C37.561 30.5394 37.1301 29.8794 36.6349 29.5347Z" fill="white"/>
</g>
<defs>
<linearGradient id="paint0_linear_1583_104573" x1="3.8743e-07" y1="52" x2="54.0625" y2="49.7591" gradientUnits="userSpaceOnUse">
<stop stop-color="#044D3A"/>
<stop offset="1" stop-color="#07B386"/>
</linearGradient>
<clipPath id="clip0_1583_104573">
<rect width="24" height="24" fill="white" transform="translate(14 14)"/>
</clipPath>
</defs>
</svg>
