<svg width="24" height="24" viewBox="0 0 24 24" fill="none" xmlns="http://www.w3.org/2000/svg">
<path d="M11.6557 0.215265C11.605 0.225615 11.487 0.306337 11.4239 0.373608C11.3887 0.410864 11.3328 0.481237 11.2997 0.529879C11.2666 0.579556 11.2086 0.661314 11.1703 0.713058C11.132 0.765839 11.0875 0.830004 11.072 0.856913C11.0265 0.93453 10.9789 1.01111 10.9499 1.05354C10.895 1.13323 10.8474 1.21085 10.8474 1.22017C10.8474 1.22534 10.8329 1.24915 10.8153 1.27295C10.7977 1.29778 10.7739 1.33918 10.7636 1.36506C10.7522 1.39196 10.7346 1.42198 10.7253 1.43233C10.716 1.44267 10.6963 1.47476 10.6818 1.50477C10.6311 1.60205 10.5763 1.70347 10.568 1.71382C10.5628 1.72003 10.5494 1.74901 10.5369 1.78006C10.5256 1.8111 10.5059 1.8494 10.4945 1.86492C10.4831 1.88044 10.4676 1.91356 10.4593 1.93736C10.45 1.9622 10.4304 2.0036 10.4138 2.02947C10.3972 2.05534 10.3786 2.09467 10.3714 2.11744C10.3641 2.14021 10.3455 2.1816 10.33 2.21058C10.3144 2.23852 10.2958 2.28095 10.2886 2.30372C10.2813 2.32649 10.2668 2.3565 10.2575 2.37099C10.2472 2.38548 10.2306 2.42481 10.2213 2.45896C10.211 2.49311 10.1903 2.54382 10.1747 2.5728C10.1592 2.60074 10.1426 2.64318 10.1385 2.66594C10.1354 2.68871 10.1188 2.73114 10.1023 2.75908C10.0868 2.78806 10.0681 2.83877 10.0609 2.87293C10.0536 2.90708 10.0371 2.95675 10.0236 2.9847C10.0091 3.0116 9.99051 3.06956 9.98223 3.11406C9.97292 3.15753 9.95636 3.21134 9.94601 3.23308C9.93463 3.25377 9.916 3.31897 9.90462 3.37796C9.89323 3.43592 9.8746 3.50422 9.86322 3.5301C9.85184 3.55597 9.83321 3.63669 9.82182 3.71017C9.81147 3.78365 9.79078 3.88093 9.77629 3.92543C9.7618 3.96994 9.75041 4.02892 9.75041 4.05583C9.75041 4.11689 9.72247 4.35596 9.71316 4.36941C9.69763 4.39528 9.68418 4.65919 9.68418 4.93241C9.68418 5.23357 9.69246 5.39191 9.71005 5.44986C9.71523 5.46642 9.72868 5.56267 9.73903 5.66202C9.75145 5.76862 9.76801 5.86797 9.78146 5.90523C9.79285 5.93938 9.81147 6.01596 9.82182 6.07702C9.83321 6.13705 9.85184 6.20742 9.86529 6.23226C9.87771 6.2571 9.89427 6.30781 9.90255 6.34299C9.90979 6.37922 9.93049 6.44131 9.94705 6.4796C9.96464 6.51893 9.97809 6.55722 9.97809 6.56447C9.97809 6.57275 9.99672 6.61621 10.0195 6.66071C10.0423 6.70522 10.0609 6.74765 10.0609 6.75489C10.0609 6.76214 10.0899 6.8232 10.124 6.89047C10.1592 6.95774 10.1996 7.03535 10.2141 7.0633C10.2275 7.09124 10.2523 7.13367 10.2689 7.15541C10.2855 7.17817 10.2989 7.20094 10.2989 7.20715C10.2989 7.2175 10.4511 7.44725 10.4924 7.499C10.5059 7.51555 10.5514 7.57661 10.5928 7.63354C10.6829 7.75772 10.7657 7.8488 10.8391 7.90572C10.9333 7.97713 11.1093 7.99782 11.2935 7.9585C11.34 7.94815 11.3587 7.93573 11.4311 7.86639C11.4942 7.80533 11.5243 7.766 11.5543 7.70805C11.5915 7.63354 11.5926 7.62733 11.5926 7.5228C11.5926 7.41724 11.5915 7.4131 11.5501 7.32824C11.5263 7.28063 11.4767 7.20404 11.4384 7.15747C11.4001 7.11194 11.3473 7.04467 11.3214 7.00741C11.2945 6.97015 11.2614 6.92565 11.2469 6.90909C11.2334 6.8915 11.1983 6.83768 11.1703 6.79008C11.1413 6.74144 11.1082 6.68762 11.0968 6.67106C11.0855 6.65347 11.0606 6.61 11.041 6.57275C11.0213 6.53549 10.9985 6.49099 10.9892 6.47443C10.9488 6.39888 10.8899 6.26434 10.8836 6.23122C10.8795 6.21156 10.8629 6.1712 10.8474 6.14326C10.8309 6.11428 10.8133 6.06046 10.8071 6.02217C10.8009 5.98491 10.7843 5.92799 10.7698 5.89695C10.7532 5.86176 10.7388 5.79967 10.7284 5.72722C10.7212 5.66513 10.7087 5.60096 10.7025 5.58337C10.6953 5.56681 10.6818 5.49954 10.6705 5.43434C10.6539 5.33292 10.6508 5.2584 10.6508 4.93551C10.6508 4.53293 10.6622 4.37976 10.7015 4.24419C10.7129 4.20693 10.7263 4.12828 10.7325 4.06825C10.7388 4.00616 10.7553 3.92336 10.7698 3.87679C10.7853 3.83126 10.804 3.75881 10.8112 3.71535C10.8195 3.67188 10.8371 3.60875 10.8516 3.5746C10.8661 3.54045 10.8826 3.48042 10.8888 3.44213C10.895 3.40384 10.9116 3.35209 10.925 3.32932C10.9385 3.30552 10.9571 3.25274 10.9664 3.21031C10.9747 3.16891 10.9933 3.11613 11.0068 3.09233C11.0213 3.06853 11.0378 3.02506 11.0451 2.99712C11.0513 2.96814 11.073 2.91432 11.0917 2.87707C11.1113 2.83981 11.1269 2.80255 11.1269 2.79324C11.1269 2.78496 11.1403 2.75288 11.1569 2.72183C11.1724 2.69078 11.19 2.65456 11.1941 2.64007C11.2117 2.57694 11.4435 2.10709 11.4798 2.06052C11.4942 2.04086 11.5108 2.01291 11.5149 1.99842C11.5191 1.98393 11.5408 1.9415 11.5625 1.90425C11.5843 1.86699 11.6029 1.8318 11.6029 1.82559C11.6029 1.81938 11.6143 1.80075 11.6277 1.78419C11.6412 1.76867 11.665 1.73141 11.6805 1.70347C11.7633 1.55445 11.8265 1.52547 11.873 1.61757C11.8844 1.64034 11.9082 1.67863 11.9248 1.7014C11.9413 1.72417 11.9548 1.74694 11.9548 1.75211C11.9548 1.75832 11.9682 1.78109 11.9838 1.80489C12.0541 1.90735 12.0997 1.98186 12.0997 1.99325C12.0997 1.99946 12.1204 2.03671 12.1462 2.07501C12.1721 2.11433 12.1928 2.15055 12.1928 2.15573C12.1928 2.16194 12.2021 2.17953 12.2135 2.19506C12.2363 2.22714 12.4308 2.60902 12.4308 2.62144C12.4308 2.62662 12.4422 2.64731 12.4567 2.66905C12.4702 2.68975 12.4909 2.73321 12.5023 2.76426C12.5126 2.79531 12.5333 2.84188 12.5488 2.86775C12.5633 2.89362 12.5757 2.92157 12.5757 2.93088C12.5757 2.93916 12.5944 2.98366 12.6171 3.02816C12.6399 3.07266 12.6585 3.11613 12.6585 3.12441C12.6585 3.13269 12.672 3.16891 12.6885 3.2041C12.7061 3.24032 12.7268 3.29827 12.7361 3.3345C12.7455 3.36968 12.762 3.41729 12.7734 3.43902C12.7848 3.46179 12.8024 3.5125 12.8127 3.5539C12.8231 3.5953 12.8407 3.64911 12.8521 3.67498C12.8645 3.70086 12.8821 3.76088 12.8914 3.80952C12.9007 3.85816 12.9204 3.92957 12.9338 3.96994C12.9483 4.00926 12.968 4.10033 12.9783 4.17174C12.9887 4.24315 13.0073 4.32905 13.0187 4.3632C13.0342 4.40874 13.0425 4.47497 13.0508 4.61158C13.057 4.71404 13.0663 4.81443 13.0725 4.83409C13.0859 4.87963 13.0859 5.33188 13.0725 5.38777C13.0673 5.41054 13.057 5.50782 13.0508 5.6051C13.0414 5.75102 13.0342 5.79552 13.0104 5.869C12.9938 5.91764 12.9752 5.98905 12.969 6.02838C12.9628 6.06771 12.9483 6.12152 12.938 6.1474C12.9266 6.17327 12.911 6.22502 12.9017 6.26124C12.8924 6.29849 12.8748 6.34714 12.8634 6.3699C12.8521 6.39267 12.8334 6.43717 12.8231 6.46822C12.8117 6.49927 12.792 6.54377 12.7786 6.56654C12.7651 6.59034 12.7486 6.6276 12.7413 6.65036C12.7341 6.67313 12.7123 6.71453 12.6927 6.74247C12.674 6.76938 12.6585 6.79836 12.6585 6.8056C12.6585 6.81388 12.642 6.84079 12.6223 6.86666C12.6026 6.89254 12.5799 6.92876 12.5706 6.94739C12.5623 6.96601 12.5302 7.01673 12.4991 7.05916C12.4671 7.10159 12.4339 7.14816 12.4236 7.16265C12.3967 7.20094 12.318 7.30547 12.2497 7.39137C12.2166 7.4338 10.6943 8.96547 8.8666 10.7952C7.03894 12.6249 5.51968 14.1504 5.4907 14.1845C5.46173 14.2187 5.4255 14.2653 5.41102 14.288C5.39549 14.3108 5.37479 14.3408 5.36341 14.3553C5.34582 14.3791 5.29511 14.4567 5.21852 14.5768C5.20093 14.6047 5.18644 14.6337 5.18644 14.6399C5.18644 14.6472 5.17195 14.673 5.15332 14.6979C5.13573 14.7227 5.11193 14.7703 5.10158 14.8034C5.09123 14.8376 5.07363 14.8769 5.06328 14.8924C5.05293 14.9069 5.03327 14.9545 5.02085 14.997C5.00843 15.0394 4.98877 15.0922 4.97842 15.1129C4.96704 15.1346 4.95151 15.1832 4.94323 15.2226C4.93495 15.2619 4.9184 15.3188 4.90701 15.3499C4.89252 15.385 4.877 15.4668 4.86562 15.5713C4.85423 15.6634 4.84078 15.7504 4.8356 15.7669C4.82836 15.7845 4.82422 15.9046 4.82422 16.0795C4.82422 16.3113 4.82836 16.3848 4.84388 16.4841C4.85527 16.5514 4.86872 16.6476 4.87493 16.6994C4.8801 16.7501 4.89459 16.8153 4.90701 16.8443C4.91943 16.8722 4.93806 16.9364 4.94841 16.9861C4.95979 17.0357 4.97842 17.0958 4.98981 17.1196C5.00222 17.1434 5.01982 17.1868 5.0281 17.2158C5.03638 17.2448 5.055 17.2872 5.06846 17.311C5.08191 17.3338 5.09951 17.3742 5.10779 17.4C5.11503 17.4259 5.13366 17.4632 5.14815 17.4818C5.1616 17.5014 5.18333 17.5387 5.19472 17.5656C5.2061 17.5925 5.23818 17.6484 5.26613 17.6888C5.29304 17.7302 5.32926 17.785 5.34478 17.8109C5.37169 17.8533 5.43171 17.9309 5.54245 18.0644C5.56625 18.0924 6.66326 19.1956 7.98071 20.5162C10.0868 22.6253 10.5059 23.0393 10.657 23.1521C10.6756 23.1666 10.7191 23.1997 10.7532 23.2266C10.7874 23.2535 10.835 23.2856 10.8598 23.298C10.8847 23.3104 10.9137 23.3291 10.925 23.3394C10.9364 23.3497 10.9633 23.3653 10.984 23.3736C11.0047 23.3829 11.0389 23.4015 11.0596 23.4149C11.0803 23.4294 11.1134 23.446 11.1341 23.4532C11.1548 23.4595 11.1931 23.4781 11.2179 23.4946C11.2428 23.5102 11.2779 23.5267 11.2966 23.5298C11.3142 23.534 11.3494 23.5505 11.3752 23.5671C11.4011 23.5826 11.4477 23.6012 11.4787 23.6085C11.5098 23.6147 11.5563 23.6312 11.5812 23.6457C11.6071 23.6613 11.6629 23.6778 11.7157 23.6871C11.7644 23.6954 11.8399 23.714 11.8823 23.7285C11.96 23.7544 12.0552 23.7679 12.2756 23.7823C12.3408 23.7875 12.4081 23.7958 12.4236 23.803C12.4619 23.8175 12.7299 23.8186 12.7693 23.803C12.7848 23.7968 12.8541 23.7875 12.9224 23.7823C13.1698 23.7648 13.2536 23.7534 13.3416 23.7234C13.3902 23.7068 13.4575 23.6902 13.4916 23.6851C13.5258 23.6809 13.5796 23.6644 13.6127 23.6478C13.6458 23.6312 13.6965 23.6126 13.7266 23.6064C13.7566 23.5992 13.8052 23.5816 13.8332 23.566C13.8621 23.5505 13.9035 23.5319 13.9263 23.5247C13.9491 23.5174 13.9936 23.4967 14.0246 23.4791C14.1022 23.4346 14.1322 23.4181 14.213 23.3756C14.2502 23.3549 14.2844 23.3342 14.2885 23.328C14.2916 23.3218 14.3144 23.3073 14.3372 23.2959C14.3599 23.2846 14.4137 23.2483 14.4562 23.2162C14.4996 23.1842 14.5472 23.1479 14.5628 23.1366C14.6652 23.062 15.0016 22.7298 17.0683 20.661L19.3731 18.3553L19.4041 18.2725C19.459 18.1255 19.4641 18.0913 19.4434 18.0168C19.4341 17.9806 19.4134 17.9185 19.3989 17.8792L19.372 17.8067L17.0321 15.4668L14.6921 13.1269L14.599 13.0948C14.5193 13.0668 14.4903 13.0617 14.4075 13.0617C14.3237 13.0617 14.2958 13.0668 14.2161 13.0948L14.1229 13.1269L13.2277 14.02C12.7351 14.5105 12.318 14.9235 12.3015 14.938C12.2435 14.9856 12.1255 15.0611 12.0841 15.0766C12.0614 15.086 12.0283 15.1035 12.0107 15.117C11.9931 15.1294 11.9589 15.1449 11.933 15.1522C11.9082 15.1584 11.843 15.1781 11.7892 15.1957L11.6909 15.2267L11.4787 15.2226C11.2738 15.2184 11.2645 15.2174 11.2086 15.1905C11.1776 15.175 11.1258 15.1584 11.0958 15.1522C11.0648 15.146 11.0223 15.1294 11.0006 15.116C10.9789 15.1015 10.9364 15.0787 10.9074 15.0642C10.8164 15.0208 10.7615 14.9763 10.5877 14.8055C10.4169 14.6378 10.3962 14.6078 10.4128 14.554C10.4241 14.5147 13.6976 11.2454 13.7928 11.1771C13.8321 11.1491 13.8849 11.1171 13.9108 11.1057C13.9366 11.0943 13.976 11.0746 13.9987 11.0622C14.0215 11.0498 14.0795 11.0291 14.1281 11.0146C14.1767 11.0011 14.2492 10.9815 14.2885 10.9701C14.3506 10.9525 14.3858 10.9494 14.5421 10.9525C14.7077 10.9566 14.7304 10.9587 14.8008 10.9846C14.8432 10.9991 14.9002 11.0167 14.9271 11.0229C14.954 11.0281 14.9985 11.0467 15.0264 11.0632C15.0544 11.0798 15.0885 11.0964 15.102 11.1005C15.1154 11.1046 15.1527 11.1243 15.1837 11.145C15.2148 11.1657 15.2572 11.1926 15.2789 11.2071C15.2996 11.2205 16.5384 12.4521 18.0318 13.9455C20.7422 16.6549 20.7464 16.659 20.8395 16.7097L20.9327 16.7604L21.0672 16.7615C21.1976 16.7615 21.2028 16.7604 21.2535 16.7304C21.2825 16.7139 21.3228 16.6911 21.3446 16.6797C21.3787 16.6632 21.4108 16.629 21.4843 16.5286C21.5091 16.4945 21.5308 16.3434 21.5236 16.2471C21.5164 16.1354 21.5019 16.0929 21.4481 16.0215C21.4015 15.9594 15.9703 10.5313 15.903 10.4785C15.8802 10.4609 15.8502 10.4402 15.8357 10.433C15.8212 10.4257 15.7912 10.404 15.7695 10.3843C15.7467 10.3657 15.7229 10.3502 15.7167 10.3502C15.7105 10.3502 15.6888 10.3388 15.6691 10.3243C15.6132 10.2819 15.4704 10.2084 15.4217 10.1949C15.3979 10.1887 15.3607 10.1722 15.34 10.1587C15.3193 10.1463 15.2655 10.1266 15.2199 10.1173C15.1744 10.107 15.1092 10.0894 15.074 10.0759C14.9685 10.0366 14.7387 10.0159 14.4572 10.0221C14.1664 10.0283 14.0515 10.0407 13.9615 10.0749C13.9242 10.0884 13.8621 10.107 13.8218 10.1153C13.7824 10.1235 13.7266 10.1422 13.6986 10.1567C13.6696 10.1711 13.6251 10.1877 13.6003 10.1949C13.5744 10.2022 13.5279 10.2229 13.4968 10.2426C13.4647 10.2622 13.4357 10.2777 13.4306 10.2777C13.4264 10.2777 13.3985 10.2933 13.3695 10.3119C13.3167 10.346 13.3033 10.3543 13.1801 10.4371C13.1149 10.4806 9.27435 14.3098 9.27435 14.3305C9.27435 14.3367 9.25883 14.3698 9.24124 14.4029C9.20812 14.4609 9.20708 14.4691 9.20708 14.5778C9.20708 14.6906 9.20708 14.6927 9.25055 14.7796C9.29195 14.8655 9.3023 14.8769 9.67486 15.2464C9.88392 15.4544 10.093 15.6541 10.1385 15.6883C10.184 15.7235 10.2358 15.7638 10.2534 15.7783C10.272 15.7928 10.302 15.8104 10.3207 15.8187C10.3403 15.827 10.3734 15.8477 10.3952 15.8642C10.4169 15.8818 10.4479 15.8994 10.4655 15.9025C10.4821 15.9066 10.5225 15.9253 10.5545 15.9449C10.5866 15.9646 10.6187 15.9801 10.6249 15.9801C10.6322 15.9801 10.6673 15.9956 10.7036 16.0153C10.7398 16.0339 10.7988 16.0546 10.834 16.0619C10.8702 16.0691 10.924 16.0857 10.9551 16.1002C11.0306 16.1343 11.1527 16.1467 11.4642 16.153C11.753 16.1581 11.9776 16.1405 12.0697 16.1043C12.1007 16.0929 12.1638 16.0743 12.2114 16.0629C12.258 16.0515 12.3222 16.0288 12.3543 16.0112C12.3863 15.9946 12.4205 15.9801 12.4298 15.9801C12.4391 15.9801 12.4722 15.9636 12.5033 15.9439C12.5343 15.9242 12.5643 15.9077 12.5706 15.9077C12.5768 15.9077 12.614 15.887 12.6523 15.8611C12.6916 15.8352 12.7279 15.8145 12.7341 15.8145C12.7392 15.8145 12.761 15.799 12.7827 15.7804C12.8034 15.7628 12.8458 15.7286 12.8769 15.7059C12.9079 15.6831 13.2515 15.3468 13.6417 14.9587C14.0319 14.5706 14.363 14.2477 14.3796 14.2425C14.3982 14.2353 14.4168 14.2353 14.4365 14.2425C14.4686 14.2549 18.2202 17.9992 18.2429 18.0427C18.2522 18.0603 18.2564 18.0841 18.2522 18.1007C18.245 18.1338 17.4864 18.8944 17.4036 18.9514C17.298 19.0248 17.1977 19.0724 17.1087 19.0911C16.9275 19.1294 16.616 19.1076 16.5281 19.0497C16.5074 19.0352 16.4732 19.0166 16.4515 19.0083C16.4308 18.999 16.3946 18.9772 16.3708 18.9596C16.347 18.941 15.8336 18.4349 15.2303 17.8337C14.6269 17.2324 14.1074 16.7222 14.0764 16.7004C14.0412 16.6756 13.9853 16.6497 13.9263 16.6321C13.8 16.5928 13.7442 16.5876 13.6903 16.6073C13.6665 16.6156 13.622 16.63 13.591 16.6383C13.5486 16.6507 13.5165 16.6704 13.4637 16.717C13.3871 16.7853 13.3643 16.8256 13.3157 16.9716C13.2836 17.0699 13.2846 17.0844 13.3436 17.2448L13.3768 17.3348L14.7718 18.7299L16.1669 20.125V20.1674C16.1669 20.2098 16.1638 20.2129 15.756 20.6196C15.5294 20.8453 15.3183 21.0471 15.2872 21.0688C15.1754 21.1475 15.0709 21.1961 14.9778 21.2147C14.7998 21.2489 14.5027 21.2282 14.4303 21.1764C14.4137 21.165 14.3806 21.1485 14.3547 21.1381C14.2399 21.0926 14.1592 21.016 12.7413 19.5971C11.9703 18.8251 11.31 18.1669 11.2738 18.1358C11.1672 18.0406 10.9789 17.9879 10.8578 18.0179C10.7729 18.0396 10.6953 18.0748 10.656 18.1089C10.5307 18.2197 10.4852 18.3201 10.4852 18.4805C10.4852 18.6109 10.5204 18.704 10.6125 18.8127C10.6498 18.8572 11.4353 19.6479 12.3574 20.5689C13.6376 21.8481 14.035 22.2507 14.035 22.2693C14.035 22.3086 14.0091 22.349 13.9553 22.3935C13.9025 22.437 13.8114 22.4991 13.741 22.5404C13.7183 22.5539 13.6821 22.5756 13.6624 22.5891C13.6427 22.6025 13.6065 22.6201 13.5817 22.6284C13.5568 22.6377 13.5247 22.6543 13.5103 22.6657C13.4958 22.6771 13.4513 22.6957 13.4119 22.7071C13.3726 22.7195 13.326 22.7381 13.3074 22.7485C13.2888 22.7588 13.2391 22.7733 13.1967 22.7795C13.1542 22.7857 13.087 22.8023 13.0466 22.8157C12.9462 22.8509 12.8324 22.8623 12.5913 22.8623C12.3719 22.8623 12.2073 22.8447 12.1359 22.8147C12.1131 22.8054 12.0572 22.7909 12.0117 22.7837C11.9662 22.7754 11.9072 22.7578 11.8803 22.7433C11.8534 22.7288 11.8089 22.7122 11.782 22.7071C11.755 22.7009 11.7157 22.6843 11.6961 22.6708C11.6764 22.6574 11.6402 22.6388 11.6153 22.6305C11.5905 22.6212 11.5553 22.6036 11.5377 22.5912C11.5191 22.5777 11.4839 22.557 11.458 22.5446C11.398 22.5146 11.2997 22.4442 11.1889 22.3521C11.0617 22.2465 6.31346 17.5004 6.24412 17.4093C6.21204 17.3669 6.16857 17.3121 6.14891 17.2862C6.1013 17.2262 6.0537 17.1485 6.01541 17.072C5.99781 17.0378 5.97504 16.9933 5.96366 16.9736C5.92123 16.9012 5.86948 16.7687 5.85396 16.6952C5.84568 16.6549 5.83119 16.6073 5.82188 16.5897C5.78772 16.5235 5.77531 16.422 5.7691 16.1716C5.76185 15.8911 5.77427 15.7483 5.81256 15.6334C5.82602 15.5931 5.84464 15.531 5.85292 15.4937C5.8612 15.4565 5.8819 15.3964 5.8995 15.3592C5.91709 15.3219 5.93158 15.2867 5.93158 15.2805C5.93158 15.2753 5.94607 15.2474 5.96366 15.2195C5.98125 15.1905 6.00195 15.1512 6.01023 15.1294C6.02265 15.0932 6.06198 15.029 6.12614 14.94C6.1427 14.9173 6.16443 14.8821 6.17478 14.8624C6.1841 14.8417 7.66092 13.3556 9.5217 11.4938C11.3525 9.66093 12.8831 8.12201 12.9245 8.07337C12.9659 8.02473 13.0228 7.95539 13.0518 7.91814C13.0797 7.88088 13.1242 7.82499 13.1491 7.79395C13.2546 7.66148 13.444 7.3686 13.4875 7.27235C13.4978 7.24855 13.5154 7.21646 13.5268 7.20197C13.5382 7.18852 13.5589 7.14919 13.5744 7.11608C13.5889 7.08192 13.6075 7.04777 13.6148 7.03846C13.6231 7.03018 13.6365 6.99706 13.6458 6.96498C13.6541 6.9329 13.6707 6.89564 13.681 6.88219C13.6924 6.86873 13.709 6.8294 13.7193 6.79525C13.7286 6.7611 13.7493 6.70315 13.7659 6.66589C13.7814 6.62863 13.798 6.57792 13.8021 6.55308C13.8062 6.52721 13.8228 6.47857 13.8383 6.44442C13.8549 6.40923 13.8725 6.3461 13.8787 6.30263C13.8849 6.25917 13.9025 6.18776 13.9191 6.14222C13.9408 6.0853 13.9522 6.03045 13.9573 5.96215C13.9615 5.90833 13.9739 5.81726 13.9843 5.76034C13.9946 5.70342 14.0039 5.63718 14.0039 5.61338C14.0039 5.58958 14.0091 5.5575 14.0153 5.54094C14.0308 5.50057 14.0308 4.70473 14.0153 4.6654C14.0091 4.64884 14.0039 4.61676 14.0039 4.59399C14.0039 4.57019 13.9946 4.49981 13.9843 4.43668C13.9729 4.37355 13.9594 4.26799 13.9532 4.20279C13.947 4.12621 13.9335 4.05376 13.9159 4.00098C13.9015 3.95545 13.8839 3.87886 13.8787 3.83022C13.8735 3.77951 13.8559 3.7081 13.8383 3.66257C13.8207 3.61806 13.8031 3.54976 13.7969 3.5094C13.7907 3.46904 13.7742 3.41212 13.7597 3.38314C13.7452 3.35416 13.7286 3.29931 13.7224 3.26205C13.7162 3.2248 13.6986 3.16684 13.6821 3.13476C13.6655 3.10164 13.6448 3.04369 13.6355 3.0054C13.6272 2.9671 13.6106 2.92467 13.6003 2.90915C13.5899 2.89466 13.5734 2.85223 13.5641 2.81601C13.5548 2.77875 13.5361 2.73218 13.5227 2.71148C13.5092 2.69078 13.4927 2.65352 13.4865 2.62869C13.4802 2.60385 13.4616 2.55521 13.4461 2.52106C13.4295 2.4869 13.4006 2.42377 13.3809 2.38134C13.3147 2.23852 13.236 2.07604 13.2205 2.05017C13.2122 2.03568 13.1946 1.99842 13.1801 1.96737C13.1667 1.93633 13.1501 1.90218 13.1449 1.89183C13.1387 1.88148 13.1211 1.8494 13.1046 1.81938C13.089 1.78937 13.0632 1.74694 13.0477 1.72521C13.0332 1.70347 13.0207 1.67967 13.0207 1.67242C13.0207 1.66518 13.0042 1.63517 12.9835 1.60516C12.9628 1.57514 12.9421 1.53685 12.9359 1.51822C12.9297 1.50063 12.911 1.46751 12.8945 1.44474C12.8779 1.42198 12.8427 1.36609 12.8158 1.31952C12.7889 1.27398 12.7537 1.21913 12.7382 1.19843C12.7227 1.17877 12.7061 1.14979 12.6999 1.1353C12.6947 1.12082 12.6637 1.07114 12.6306 1.02457C12.5975 0.979033 12.5592 0.923147 12.5447 0.901413C12.4826 0.805166 12.4505 0.758595 12.4205 0.720303C12.4029 0.697535 12.3512 0.627161 12.3046 0.565065C12.1628 0.373608 12.1079 0.317722 12.0076 0.262871L11.9186 0.21423L11.7995 0.21216C11.7343 0.211124 11.6691 0.21216 11.6557 0.215265Z" fill="white"/>
<path d="M5.89831 5.4602C5.89521 5.46331 5.80724 5.47055 5.70271 5.47676C5.54437 5.48504 5.49366 5.49229 5.40362 5.51712C5.3436 5.53368 5.25977 5.55231 5.2163 5.55749C5.17283 5.56266 5.11488 5.57611 5.08694 5.58853C5.05899 5.60095 4.99793 5.62061 4.95033 5.632C4.90272 5.64235 4.84684 5.65994 4.82614 5.67133C4.80544 5.68167 4.75266 5.7003 4.71023 5.71376C4.6678 5.72618 4.61398 5.74687 4.59121 5.76033C4.56844 5.77378 4.53326 5.78724 4.51359 5.79138C4.49393 5.79552 4.45667 5.81207 4.4308 5.82863C4.40493 5.84519 4.36353 5.86485 4.33973 5.87313C4.31593 5.88245 4.28074 5.90004 4.26211 5.91453C4.24452 5.92798 4.2114 5.94454 4.1907 5.94972C4.16897 5.95593 4.13792 5.97042 4.12033 5.98284C4.1017 5.99629 4.06134 6.02009 4.02925 6.03665C3.9506 6.07701 3.85642 6.13393 3.78398 6.18464C3.75086 6.20741 3.70429 6.23742 3.67945 6.25191C3.65461 6.2664 3.62253 6.2902 3.60804 6.30366C3.59355 6.31711 3.56665 6.33781 3.54698 6.34919C3.50973 6.37196 3.41969 6.43716 3.34725 6.49305C3.32344 6.51064 3.28619 6.53962 3.26445 6.55721C3.24272 6.57377 3.2065 6.60378 3.18269 6.62448C3.15993 6.64415 3.09887 6.69589 3.04919 6.73832C2.99848 6.78075 2.87636 6.89459 2.77804 6.99084C2.54001 7.22577 2.50586 7.28372 2.50586 7.46276C2.50586 7.57246 2.52138 7.63042 2.57106 7.70804C2.62487 7.7898 2.66938 7.83533 2.76976 7.90571C2.81012 7.93468 2.86084 7.97194 2.8836 7.99057C2.94052 8.03507 3.06161 8.11476 3.07299 8.11476C3.07817 8.11476 3.0999 8.13028 3.12267 8.14995C3.1444 8.16857 3.17441 8.18824 3.1889 8.19238C3.20339 8.19652 3.23547 8.21618 3.26031 8.23481C3.28515 8.25447 3.31102 8.27 3.31723 8.27C3.32344 8.27 3.34931 8.28449 3.37519 8.30208C3.40106 8.31864 3.44246 8.34451 3.46833 8.359C3.62874 8.45007 3.66703 8.46974 3.72706 8.49871C3.76432 8.51631 3.80571 8.53907 3.8202 8.54942C3.83469 8.55874 3.86263 8.57219 3.88333 8.57944C3.90403 8.58565 3.94129 8.60427 3.96716 8.62083C3.992 8.63636 4.03132 8.65602 4.05409 8.66326C4.07583 8.67051 4.10894 8.68707 4.1255 8.69949C4.14309 8.71191 4.18346 8.73053 4.21761 8.73985C4.25073 8.7502 4.29626 8.76883 4.31696 8.78228C4.33869 8.79677 4.37906 8.81333 4.407 8.81954C4.43391 8.82575 4.47737 8.84437 4.50325 8.86093C4.52912 8.87646 4.57051 8.89302 4.59639 8.89715C4.62226 8.90026 4.66676 8.91785 4.69574 8.93338C4.72575 8.94994 4.77646 8.96856 4.80958 8.97374C4.84373 8.97995 4.89858 8.99858 4.93273 9.01514C4.96689 9.03169 5.02795 9.05032 5.06727 9.05653C5.10764 9.06274 5.16456 9.0793 5.19457 9.09275C5.22562 9.10724 5.29496 9.12587 5.34981 9.13415C5.40569 9.14346 5.48331 9.16106 5.52264 9.17555C5.563 9.189 5.62509 9.20349 5.66235 9.20659C5.69961 9.21073 5.81862 9.2304 5.92625 9.2511L6.12289 9.28939H6.64034C7.19195 9.28939 7.15987 9.29146 7.38031 9.23764C7.41239 9.22936 7.47863 9.21798 7.5283 9.21177C7.57901 9.20556 7.64318 9.19107 7.67319 9.17865C7.7032 9.16727 7.76633 9.14864 7.81394 9.13829C7.86258 9.12691 7.9195 9.10931 7.9402 9.09793C7.96193 9.08758 8.0085 9.07102 8.04472 9.06171C8.08095 9.05239 8.13062 9.03169 8.15649 9.01514C8.18237 8.99961 8.21755 8.98305 8.23515 8.97891C8.25378 8.97581 8.29 8.95821 8.31691 8.94166C8.34381 8.9251 8.38728 8.90233 8.41419 8.89198C8.44006 8.88163 8.48042 8.86093 8.50216 8.84644C8.52389 8.83092 8.54769 8.8185 8.5539 8.8185C8.56011 8.8185 8.58495 8.80298 8.60875 8.78435C8.63152 8.76676 8.66464 8.74295 8.6812 8.7326C8.7495 8.69017 8.83022 8.63429 8.88611 8.59082C8.91923 8.56495 8.96994 8.52562 8.99995 8.50285C9.17589 8.36935 9.47705 8.06508 9.55466 7.944C9.56915 7.92123 9.58882 7.89639 9.59917 7.88811C9.60848 7.87983 9.63435 7.84775 9.65402 7.8167C9.71922 7.71839 9.73991 7.5942 9.71508 7.4431C9.70162 7.35513 9.69438 7.33754 9.64988 7.27234C9.59296 7.18851 9.16864 6.75178 9.00512 6.60999C8.85299 6.47752 8.64497 6.31504 8.56425 6.2664C8.54562 6.25502 8.51871 6.23535 8.5063 6.22397C8.49284 6.21259 8.46386 6.19292 8.44006 6.18154C8.41729 6.17015 8.39142 6.15256 8.38314 6.14221C8.3759 6.1329 8.34899 6.11634 8.32312 6.10495C8.29828 6.09461 8.26516 6.07494 8.2486 6.06045C8.23204 6.047 8.20824 6.03251 8.19582 6.02837C8.18237 6.02423 8.15235 6.00767 8.12855 5.99111C8.10371 5.97456 8.06646 5.95489 8.04472 5.94765C8.02403 5.9404 7.98366 5.91867 7.95469 5.90108C7.92674 5.88348 7.89673 5.86899 7.88845 5.86899C7.87914 5.86899 7.84705 5.85347 7.81497 5.83381C7.78393 5.81518 7.74149 5.79552 7.72183 5.79138C7.70217 5.78724 7.66181 5.77068 7.63386 5.75412C7.60489 5.7386 7.55624 5.71997 7.5252 5.71272C7.49415 5.70651 7.4424 5.68788 7.41032 5.67236C7.37927 5.6558 7.32442 5.63821 7.28924 5.63096C7.25405 5.62475 7.20127 5.6082 7.17126 5.59474C7.14124 5.58129 7.06983 5.56266 7.01291 5.55335C6.95599 5.54403 6.87424 5.52747 6.8318 5.51609C6.78937 5.5047 6.70037 5.49125 6.63517 5.48504C6.56997 5.47987 6.47165 5.47055 6.41784 5.46538C6.31538 5.45399 5.90762 5.45089 5.89831 5.4602ZM6.34643 6.3968C6.40542 6.40301 6.49339 6.41646 6.54203 6.42785C6.59067 6.4382 6.67243 6.45269 6.72314 6.4589C6.77695 6.46614 6.84008 6.48166 6.8732 6.49719C6.90425 6.51064 6.9622 6.52927 7.00153 6.53755C7.04086 6.54583 7.08743 6.56135 7.10502 6.5717C7.12261 6.58309 7.17022 6.60068 7.21058 6.61206C7.24991 6.62345 7.3089 6.64622 7.33995 6.66381C7.37099 6.68037 7.40929 6.69796 7.42584 6.70107C7.4424 6.70521 7.47552 6.72176 7.49829 6.73729C7.52209 6.75385 7.55831 6.77144 7.57901 6.77868C7.59971 6.78593 7.62248 6.79835 7.63076 6.80766C7.638 6.81698 7.66491 6.83353 7.69078 6.84492C7.71666 6.8563 7.75598 6.87804 7.77875 6.89356C7.80152 6.90908 7.83464 6.93082 7.85223 6.94117C7.95469 7.00326 8.13787 7.13366 8.23308 7.21128C8.38314 7.33443 8.56218 7.49899 8.5746 7.52589C8.59012 7.55901 8.56425 7.62421 8.52285 7.65629C8.50216 7.67285 8.44834 7.71528 8.40177 7.75254C8.35623 7.7898 8.28586 7.84361 8.2455 7.87362C8.20514 7.90364 8.1596 7.93675 8.14511 7.94814C8.12959 7.96056 8.09647 7.97815 8.07163 7.98953C8.04679 7.99988 8.01264 8.01955 7.99608 8.03404C7.97849 8.04852 7.95365 8.06405 7.93916 8.06819C7.92467 8.07233 7.87914 8.09406 7.83774 8.11579C7.79531 8.13856 7.75184 8.15616 7.74149 8.15616C7.73011 8.15616 7.68975 8.17271 7.65249 8.19238C7.61523 8.21204 7.57487 8.2286 7.56452 8.2286C7.55314 8.2286 7.49518 8.24516 7.43516 8.26482C7.36685 8.28863 7.29131 8.30518 7.23128 8.31139C7.17953 8.31657 7.11641 8.32795 7.09053 8.33727C7.03361 8.35796 6.79558 8.37866 6.63517 8.37763C6.37334 8.37452 6.23052 8.36107 6.11875 8.32588C6.09287 8.3176 6.04009 8.31139 5.99973 8.31139C5.92522 8.31139 5.79171 8.28449 5.72341 8.25551C5.70271 8.24723 5.6489 8.23584 5.60439 8.22963C5.55472 8.22343 5.49469 8.20687 5.45537 8.18927C5.41811 8.17271 5.36429 8.15616 5.33635 8.15202C5.30737 8.14788 5.24942 8.12925 5.20699 8.10958C5.16456 8.09096 5.11177 8.07233 5.08901 8.06819C5.06727 8.06508 5.03209 8.05059 5.01139 8.03714C4.99069 8.02369 4.94412 8.00402 4.90686 7.99471C4.8696 7.98539 4.82096 7.96677 4.79716 7.95331C4.77439 7.93986 4.73403 7.92227 4.70712 7.91399C4.68125 7.90674 4.64606 7.89018 4.62847 7.87776C4.61088 7.86534 4.57155 7.84672 4.53947 7.83533C4.50738 7.82395 4.46909 7.80635 4.45357 7.79601C4.43805 7.78462 4.407 7.77013 4.38423 7.76289C4.36146 7.75564 4.31696 7.73495 4.28591 7.71632C4.18242 7.65422 4.13689 7.62938 4.081 7.60351C4.05099 7.58902 4.01373 7.56729 3.99924 7.55591C3.98372 7.54452 3.95267 7.52589 3.92887 7.51554C3.8616 7.48553 3.7995 7.42447 3.7995 7.38928C3.7995 7.35617 3.81089 7.34375 3.89265 7.28165C3.92266 7.25888 3.96198 7.22887 3.97958 7.21438C3.99717 7.19989 4.03029 7.17506 4.05306 7.16057C4.07583 7.14504 4.12033 7.114 4.15137 7.09123C4.2766 7.00016 4.36043 6.94427 4.39665 6.92978C4.41838 6.92047 4.44425 6.90598 4.4546 6.89563C4.47737 6.87493 4.5819 6.81698 4.67918 6.77041C4.7154 6.75178 4.75266 6.73108 4.76197 6.72383C4.77025 6.71659 4.80234 6.7021 4.83338 6.69279C4.8634 6.68347 4.90479 6.66381 4.92653 6.65035C4.94722 6.6369 4.98034 6.62345 5 6.61931C5.01967 6.6162 5.06624 6.59964 5.1035 6.58309C5.14075 6.56653 5.20388 6.54583 5.24321 6.53755C5.28357 6.52927 5.34153 6.51064 5.37257 6.49615C5.41087 6.47856 5.46261 6.46718 5.52781 6.45993C5.58163 6.45476 5.64683 6.44234 5.6727 6.43302C5.69857 6.42371 5.76998 6.41129 5.83311 6.40612C5.89521 6.39991 5.94902 6.3937 5.95109 6.39059C5.95937 6.38231 6.2419 6.38645 6.34643 6.3968Z" fill="white"/>
<path d="M17.062 5.46644C17.0113 5.47161 16.9141 5.47989 16.8478 5.4861C16.7805 5.49128 16.6988 5.50576 16.6667 5.51715C16.6336 5.52853 16.5601 5.54406 16.5022 5.55337C16.4421 5.56165 16.3738 5.57924 16.3407 5.59477C16.3086 5.60926 16.2527 5.62685 16.2165 5.63202C16.1803 5.63823 16.1286 5.65686 16.0996 5.67239C16.0716 5.68791 16.022 5.70654 15.9909 5.71275C15.9599 5.71896 15.9143 5.73655 15.8905 5.75104C15.8657 5.76553 15.8243 5.78312 15.7994 5.7914C15.7736 5.79865 15.7301 5.81934 15.7032 5.8359C15.6763 5.85246 15.6432 5.86902 15.6287 5.87212C15.6142 5.87626 15.5769 5.89489 15.5459 5.91559C15.5148 5.93525 15.4838 5.95181 15.4776 5.95181C15.4714 5.95181 15.4414 5.96837 15.4124 5.98804C15.3834 6.0077 15.3565 6.02426 15.3513 6.02426C15.3462 6.02426 15.3234 6.03771 15.3006 6.05427C15.2779 6.07083 15.2406 6.0936 15.2178 6.10498C15.1951 6.11636 15.1713 6.13396 15.163 6.14327C15.1547 6.15259 15.1309 6.16915 15.1081 6.18053C15.0864 6.19191 15.0253 6.23331 14.9736 6.27264C14.8846 6.33887 14.8546 6.36164 14.7304 6.46099C14.4872 6.65349 14.1581 6.98569 13.9811 7.21751C13.9314 7.28271 13.9118 7.32101 13.8838 7.4038C13.8642 7.46175 13.8486 7.52799 13.8486 7.55076C13.8486 7.59422 13.8735 7.68012 13.9107 7.76705C13.9718 7.91194 14.3526 8.32177 14.6207 8.53393C14.7314 8.62086 14.8649 8.71918 14.898 8.73677C14.9156 8.74712 14.955 8.77092 14.986 8.79162C15.016 8.81232 15.045 8.82888 15.0502 8.82888C15.0564 8.82888 15.0843 8.84544 15.1143 8.8651C15.1433 8.88476 15.1713 8.90132 15.1764 8.90132C15.1816 8.90132 15.2044 8.91477 15.2282 8.93133C15.253 8.94789 15.2934 8.96756 15.3182 8.9748C15.3441 8.98204 15.3886 9.00067 15.4165 9.0162C15.4455 9.03172 15.489 9.05035 15.5148 9.05656C15.5397 9.0638 15.5821 9.07933 15.608 9.09278C15.6339 9.1052 15.6825 9.12176 15.7167 9.13004C15.7508 9.13728 15.8119 9.15591 15.8512 9.17143C15.8916 9.18696 15.9743 9.20766 16.0354 9.21697C16.0965 9.22628 16.1617 9.23974 16.1803 9.24802C16.1989 9.25526 16.2414 9.26665 16.2755 9.27286C16.3438 9.28527 16.7516 9.30908 16.8913 9.30804C17.0848 9.30804 17.477 9.2832 17.536 9.26768C17.6178 9.24698 17.8093 9.2118 17.8444 9.2118C17.86 9.2118 17.9107 9.20041 17.9583 9.18592C18.0059 9.17143 18.0897 9.15074 18.1435 9.14039C18.1973 9.129 18.2719 9.1083 18.3091 9.09381C18.3464 9.07933 18.4074 9.0607 18.4468 9.05242C18.4851 9.0431 18.5389 9.02448 18.5658 9.01102C18.5927 8.99757 18.6413 8.98101 18.6734 8.9748C18.7055 8.96963 18.7583 8.94996 18.7914 8.93237C18.8235 8.91581 18.8607 8.90132 18.8731 8.90132C18.8856 8.90132 18.9228 8.88683 18.9559 8.86924C18.9891 8.85164 19.0398 8.82991 19.0687 8.82163C19.0977 8.81335 19.1422 8.79369 19.1681 8.77713C19.194 8.76161 19.2312 8.74505 19.2509 8.74091C19.2706 8.73677 19.3078 8.72021 19.3337 8.70365C19.3596 8.68709 19.3999 8.66743 19.4227 8.66019C19.4455 8.65191 19.4806 8.63328 19.5024 8.61879C19.5241 8.6043 19.5593 8.58671 19.58 8.57946C19.6007 8.57325 19.6297 8.55876 19.6442 8.54945C19.6586 8.5391 19.7 8.51633 19.7373 8.4977C19.8532 8.44182 19.907 8.41077 19.9453 8.38076C19.966 8.36523 19.9877 8.35282 19.9929 8.35282C19.9991 8.35282 20.0291 8.33626 20.0592 8.31556C20.0902 8.29486 20.1357 8.26692 20.1616 8.25346C20.2113 8.22656 20.2879 8.17688 20.4234 8.08477C20.4452 8.07028 20.4804 8.04648 20.5031 8.03199C20.6025 7.96886 20.6874 7.90573 20.7908 7.81569C20.8436 7.77119 20.8654 7.74222 20.9047 7.66563L20.9523 7.57145V7.46279C20.9513 7.35412 20.9513 7.35412 20.9047 7.25995C20.854 7.16163 20.8457 7.15128 20.6066 6.9267C20.5031 6.82839 20.4307 6.76422 20.2496 6.61002C20.1513 6.52619 20.1047 6.491 19.9505 6.38027C19.9122 6.35233 19.8615 6.31403 19.8387 6.2954C19.816 6.27781 19.7932 6.26229 19.788 6.26229C19.7839 6.26229 19.7642 6.24883 19.7456 6.23228C19.7269 6.21675 19.6907 6.19191 19.6649 6.17949C19.64 6.16708 19.6069 6.14845 19.5924 6.13913C19.5779 6.12878 19.5386 6.10291 19.5044 6.08014C19.4703 6.05634 19.4289 6.03357 19.4113 6.02736C19.3947 6.02115 19.3554 5.99942 19.3244 5.97872C19.2944 5.95802 19.2643 5.94146 19.2571 5.94146C19.2509 5.94146 19.2198 5.92491 19.1888 5.90524C19.1577 5.88558 19.1257 5.86902 19.1163 5.86902C19.107 5.86902 19.077 5.85453 19.048 5.83694C19.0201 5.81831 18.9756 5.79865 18.9497 5.7914C18.9239 5.78416 18.8814 5.76656 18.8566 5.75207C18.8317 5.73759 18.781 5.71792 18.7448 5.70861C18.7076 5.69929 18.6568 5.68067 18.631 5.66721C18.6051 5.65479 18.5554 5.63823 18.5213 5.63099C18.4871 5.62374 18.4333 5.60719 18.4012 5.59373C18.3691 5.58028 18.2946 5.56269 18.2356 5.55337C18.1766 5.54406 18.0887 5.52543 18.04 5.51094C17.9831 5.49542 17.8983 5.48196 17.7968 5.47472C17.5961 5.45919 17.1821 5.45505 17.062 5.46644ZM17.5733 6.39683C17.623 6.40304 17.6996 6.41546 17.7451 6.42373C17.8424 6.4434 17.9065 6.45375 17.9986 6.4672C18.0359 6.47341 18.0918 6.48893 18.1228 6.50342C18.1539 6.51791 18.2077 6.53447 18.2418 6.54171C18.276 6.54896 18.3246 6.56552 18.3515 6.57794C18.3774 6.59139 18.424 6.60898 18.455 6.61726C18.4851 6.62554 18.5285 6.64417 18.5513 6.65866C18.573 6.67418 18.6092 6.69178 18.631 6.69695C18.6744 6.70834 18.8121 6.77975 18.8628 6.81597C18.8804 6.82839 18.9094 6.84494 18.928 6.85219C18.9466 6.85943 18.9787 6.8791 18.9994 6.89462C19.0201 6.91118 19.0418 6.92463 19.048 6.92463C19.0584 6.92463 19.1019 6.95154 19.2085 7.02295C19.2385 7.04261 19.314 7.09746 19.4175 7.17301C19.6286 7.32722 19.6545 7.34998 19.6545 7.38621C19.6545 7.43278 19.6079 7.48349 19.5345 7.51867C19.5024 7.5342 19.461 7.55697 19.4434 7.57042C19.4258 7.58387 19.3999 7.59836 19.3854 7.6025C19.3709 7.60664 19.344 7.62113 19.3254 7.63562C19.3068 7.64907 19.2674 7.67184 19.2374 7.68633C19.2085 7.70082 19.1671 7.72152 19.1474 7.73187C19.1277 7.74325 19.0905 7.76188 19.0646 7.77326C19.0387 7.78465 19.0015 7.80328 18.9818 7.81466C18.9239 7.84571 18.7738 7.91401 18.721 7.93264C18.6951 7.94299 18.6672 7.95644 18.661 7.96472C18.6548 7.97197 18.6258 7.98439 18.5958 7.9906C18.5658 7.99784 18.5161 8.01647 18.484 8.03303C18.4519 8.04855 18.4023 8.06821 18.3754 8.07442C18.3474 8.08167 18.3029 8.09823 18.276 8.11168C18.2491 8.12513 18.1932 8.14273 18.1518 8.15101C18.1104 8.16032 18.0514 8.17895 18.0204 8.19344C17.9883 8.20793 17.9293 8.22345 17.8879 8.22966C17.8465 8.23484 17.7792 8.25139 17.7378 8.26588C17.6964 8.27934 17.6178 8.2959 17.564 8.3021C17.5102 8.30831 17.4056 8.32487 17.3311 8.33833C17.2121 8.35903 17.1614 8.36213 16.9016 8.3642C16.6667 8.36523 16.5953 8.36316 16.5498 8.34971C16.4835 8.33212 16.3842 8.31452 16.2952 8.30624C16.26 8.30314 16.1855 8.28451 16.1296 8.26485C16.0737 8.24518 16.0178 8.22863 16.0064 8.22863C15.995 8.22863 15.9464 8.21 15.8978 8.18723C15.8491 8.16446 15.8046 8.14583 15.7984 8.14583C15.7829 8.14583 15.6194 8.062 15.5811 8.0351C15.5645 8.02371 15.5283 8.00198 15.4993 7.98646C15.4207 7.94402 15.2923 7.84985 15.164 7.73911C14.9498 7.5549 14.9487 7.55283 15.0574 7.4514C15.2292 7.28996 15.4383 7.11506 15.5593 7.03123C15.578 7.01881 15.6121 6.99397 15.6359 6.97638C15.6908 6.93498 15.8864 6.81597 15.9547 6.78078C15.9837 6.76629 16.0209 6.74456 16.0375 6.73214C16.0551 6.71972 16.0944 6.70213 16.1254 6.69178C16.1565 6.68143 16.1989 6.6628 16.2186 6.64935C16.2383 6.63693 16.2755 6.62037 16.3014 6.61416C16.3273 6.60795 16.3676 6.59139 16.3904 6.57794C16.4142 6.56345 16.4628 6.54585 16.499 6.53758C16.5353 6.53033 16.5932 6.5117 16.6274 6.49721C16.6646 6.48169 16.7267 6.46617 16.7826 6.45996C16.8344 6.45478 16.8965 6.44236 16.9203 6.43408C16.9451 6.42477 17.0175 6.41235 17.0807 6.40718C17.1438 6.40097 17.1976 6.39372 17.2007 6.39165C17.21 6.38234 17.4853 6.38648 17.5733 6.39683Z" fill="white"/>
</svg>
