<svg width="24" height="24" viewBox="0 0 24 24" fill="none" xmlns="http://www.w3.org/2000/svg">
<g id="area 1" clip-path="url(#clip0_1384_36693)">
<g id="Group">
<path id="Vector" d="M1 13C1.26522 13 1.51957 12.8946 1.70711 12.7071C1.89464 12.5196 2 12.2652 2 12C2 11.7348 2.10536 11.4804 2.29289 11.2929C2.48043 11.1054 2.73478 11 3 11H12C12.2652 11 12.5196 11.1054 12.7071 11.2929C12.8946 11.4804 13 11.7348 13 12V17C13 17.2652 13.1054 17.5196 13.2929 17.7071C13.4804 17.8946 13.7348 18 14 18C14.2652 18 14.5196 17.8946 14.7071 17.7071C14.8946 17.5196 15 17.2652 15 17V12C15 11.2044 14.6839 10.4413 14.1213 9.87868C13.5587 9.31607 12.7956 9 12 9H3C2.20435 9 1.44129 9.31607 0.87868 9.87868C0.31607 10.4413 0 11.2044 0 12C0 12.2652 0.105357 12.5196 0.292893 12.7071C0.48043 12.8946 0.734784 13 1 13Z" fill="#044D3A"/>
<path id="Vector_2" d="M3 24H12C12.7956 24 13.5587 23.6839 14.1213 23.1213C14.6839 22.5587 15 21.7957 15 21V20C15 19.7348 14.8946 19.4804 14.7071 19.2929C14.5196 19.1054 14.2652 19 14 19C13.7348 19 13.4804 19.1054 13.2929 19.2929C13.1054 19.4804 13 19.7348 13 20V21C13 21.2652 12.8946 21.5196 12.7071 21.7071C12.5196 21.8946 12.2652 22 12 22H3C2.73478 22 2.48043 21.8946 2.29289 21.7071C2.10536 21.5196 2 21.2652 2 21V15C2 14.7348 1.89464 14.4804 1.70711 14.2929C1.51957 14.1054 1.26522 14 1 14C0.734784 14 0.48043 14.1054 0.292893 14.2929C0.105357 14.4804 0 14.7348 0 15L0 21C0 21.7957 0.31607 22.5587 0.87868 23.1213C1.44129 23.6839 2.20435 24 3 24Z" fill="#044D3A"/>
<path id="Vector_3" d="M0.0815506 3.38565C0.130021 3.50688 0.202469 3.61709 0.294551 3.70965L2.29455 5.70965C2.48504 5.89145 2.73823 5.99289 3.00155 5.99289C3.26487 5.99289 3.51807 5.89145 3.70855 5.70965C3.89602 5.52212 4.00134 5.26781 4.00134 5.00265C4.00134 4.73749 3.89602 4.48318 3.70855 4.29565L3.41555 4.00165H11.5866L11.2936 4.29465C11.2006 4.38752 11.1268 4.49781 11.0765 4.61921C11.0262 4.74061 11.0003 4.87074 11.0003 5.00215C11.0003 5.13357 11.0262 5.26369 11.0765 5.38509C11.1268 5.50649 11.2006 5.61678 11.2936 5.70965C11.4829 5.89406 11.7367 5.99726 12.0011 5.99726C12.2654 5.99726 12.5192 5.89406 12.7086 5.70965L14.7086 3.70965C14.8919 3.51875 14.9943 3.26433 14.9943 2.99965C14.9943 2.73497 14.8919 2.48055 14.7086 2.28965L12.7146 0.28965C12.527 0.101877 12.2726 -0.00371846 12.0073 -0.003906C11.7419 -0.00409354 11.4873 0.101142 11.2996 0.28865C11.1118 0.476158 11.0062 0.730579 11.006 0.995943C11.0058 1.26131 11.111 1.51588 11.2986 1.70365L11.5876 2.00165H3.41555L3.70855 1.70965C3.89619 1.52214 4.00166 1.26777 4.00175 1.0025C4.00185 0.737233 3.89656 0.482791 3.70905 0.29515C3.52154 0.107509 3.26717 0.00204132 3.0019 0.00194755C2.73663 0.00185379 2.48219 0.107142 2.29455 0.29465L0.294551 2.29465C0.157553 2.43655 0.0645457 2.61507 0.0267506 2.80866C-0.0110445 3.00225 0.00798764 3.20264 0.0815506 3.38565Z" fill="#044D3A"/>
<path id="Vector_4" d="M22.2917 12.7084C22.4795 12.8959 22.7341 13.0011 22.9995 13.0009C23.2648 13.0008 23.5192 12.8952 23.7067 12.7074C23.8943 12.5196 23.9995 12.265 23.9993 11.9997C23.9991 11.7343 23.8935 11.4799 23.7057 11.2924L21.7057 9.29239C21.5145 9.10973 21.2602 9.00781 20.9957 9.00781C20.7313 9.00781 20.477 9.10973 20.2857 9.29239L18.2857 11.2864C18.098 11.4739 17.9924 11.7283 17.9922 11.9937C17.992 12.259 18.0972 12.5136 18.2847 12.7014C18.4723 12.8892 18.7267 12.9948 18.992 12.9949C19.2574 12.9951 19.512 12.8899 19.6997 12.7024L19.9987 12.4144V20.5864L19.7067 20.2934C19.6139 20.2005 19.5037 20.1268 19.3823 20.0765C19.261 20.0261 19.1309 20.0002 18.9996 20.0002C18.8682 20.0001 18.7382 20.026 18.6168 20.0762C18.4954 20.1264 18.3852 20.2 18.2922 20.2929C18.1993 20.3857 18.1256 20.496 18.0753 20.6173C18.025 20.7386 17.9991 20.8687 17.999 21C17.999 21.1314 18.0248 21.2615 18.075 21.3828C18.1253 21.5042 18.1989 21.6145 18.2917 21.7074L20.2917 23.7074C20.4817 23.8906 20.7353 23.993 20.9992 23.993C21.2632 23.993 21.5168 23.8906 21.7067 23.7074L23.7067 21.7074C23.8889 21.5188 23.9897 21.2662 23.9874 21.004C23.9851 20.7418 23.88 20.491 23.6946 20.3056C23.5092 20.1202 23.2583 20.015 22.9961 20.0127C22.7339 20.0104 22.4813 20.1112 22.2927 20.2934L21.9987 20.5864V12.4154L22.2917 12.7084Z" fill="#044D3A"/>
</g>
</g>
<defs>
<clipPath id="clip0_1384_36693">
<rect width="24" height="24" fill="white"/>
</clipPath>
</defs>
</svg>
