<svg width="12" height="12" viewBox="0 0 12 12" fill="none" xmlns="http://www.w3.org/2000/svg">
<g id="portfolio (1) 1" clip-path="url(#clip0_1384_36806)">
<path id="Vector" d="M11.6506 2.1329C11.6499 2.1329 11.6492 2.13281 11.6484 2.13281H8.46094V1.78125C8.46094 1.19971 7.98779 0.726562 7.40625 0.726562H4.59375C4.01221 0.726562 3.53906 1.19971 3.53906 1.78125V2.13281H0.351562C0.155823 2.13281 0 2.29321 0 2.48438V10.2188C0 10.8003 0.473145 11.2734 1.05469 11.2734H10.9453C11.5269 11.2734 12 10.8003 12 10.2188V2.49179C12 2.49133 12 2.49088 12 2.49042C11.9865 2.25952 11.8445 2.13419 11.6506 2.1329ZM4.24219 1.78125C4.24219 1.58743 4.39993 1.42969 4.59375 1.42969H7.40625C7.60007 1.42969 7.75781 1.58743 7.75781 1.78125V2.13281H4.24219V1.78125ZM11.1606 2.83594L10.0689 6.11115C10.021 6.25497 9.88696 6.35156 9.73544 6.35156H7.75781V6C7.75781 5.80582 7.60043 5.64844 7.40625 5.64844H4.59375C4.39957 5.64844 4.24219 5.80582 4.24219 6V6.35156H2.26456C2.11304 6.35156 1.979 6.25497 1.93112 6.11115L0.839355 2.83594H11.1606ZM7.05469 6.35156V7.05469H4.94531V6.35156H7.05469ZM11.2969 10.2188C11.2969 10.4126 11.1391 10.5703 10.9453 10.5703H1.05469C0.86087 10.5703 0.703125 10.4126 0.703125 10.2188V4.65079L1.26407 6.33353C1.40781 6.76492 1.80991 7.05469 2.26456 7.05469H4.24219V7.40625C4.24219 7.60043 4.39957 7.75781 4.59375 7.75781H7.40625C7.60043 7.75781 7.75781 7.60043 7.75781 7.40625V7.05469H9.73544C10.1901 7.05469 10.5922 6.76492 10.7359 6.33353L11.2969 4.65079V10.2188Z" fill="#483C32"/>
</g>
<defs>
<clipPath id="clip0_1384_36806">
<rect width="12" height="12" fill="white"/>
</clipPath>
</defs>
</svg>
