<svg width="24" height="24" viewBox="0 0 24 24" fill="none" xmlns="http://www.w3.org/2000/svg">
<g id="compost 1" clip-path="url(#clip0_2019_6179)">
<g id="Layer 32">
<path id="Vector" d="M14.1182 2.66662C16.2318 3.152 18.1188 4.33866 19.472 6.03336C20.8251 7.72805 21.5647 9.83094 21.5702 11.9996C21.5702 12.1149 21.5243 12.2256 21.4428 12.3072C21.3612 12.3887 21.2505 12.4346 21.1352 12.4346H20.8803L22.4402 13.9945L24.0001 12.4346H23.7452C23.6298 12.4346 23.5192 12.3887 23.4376 12.3072C23.356 12.2256 23.3102 12.1149 23.3102 11.9996C23.3109 9.46513 22.4601 7.00394 20.8943 5.01105C19.3285 3.01815 17.1385 1.60913 14.6758 1.01013L14.9177 1.25199C14.9992 1.33357 15.0451 1.44419 15.0451 1.55954C15.0451 1.67489 14.9992 1.78551 14.9177 1.86708L14.1182 2.66662Z" fill="#044D3A"/>
<path id="Vector_2" d="M1.86721 9.08239L2.66674 9.88193C3.15212 7.76831 4.33879 5.88127 6.03348 4.52812C7.72817 3.17497 9.83106 2.43543 11.9997 2.42992C12.1151 2.42992 12.2257 2.47575 12.3073 2.55733C12.3889 2.63891 12.4347 2.74955 12.4347 2.86492V3.11983L13.9946 1.55992L12.4347 0V0.254911C12.4347 0.37028 12.3889 0.480925 12.3073 0.562503C12.2257 0.644082 12.1151 0.689912 11.9997 0.689912C9.46526 0.689195 7.00407 1.54002 5.01117 3.10583C3.01827 4.67164 1.60925 6.86162 1.01025 9.32426L1.25211 9.08239C1.33369 9.00084 1.44431 8.95503 1.55966 8.95503C1.67501 8.95503 1.78563 9.00084 1.86721 9.08239Z" fill="#044D3A"/>
<path id="Vector_3" d="M9.88193 21.3332C7.76831 20.8479 5.88127 19.6612 4.52812 17.9665C3.17497 16.2718 2.43543 14.1689 2.42992 12.0003C2.42992 11.8849 2.47575 11.7743 2.55733 11.6927C2.63891 11.6111 2.74955 11.5653 2.86492 11.5653H3.11983L1.55992 10.0054L0 11.5653H0.254911C0.37028 11.5653 0.480925 11.6111 0.562503 11.6927C0.644082 11.7743 0.689912 11.8849 0.689912 12.0003C0.689195 14.5347 1.54002 16.9959 3.10583 18.9888C4.67164 20.9817 6.86162 22.3907 9.32426 22.9897L9.08239 22.7479C9.00084 22.6663 8.95503 22.5557 8.95503 22.4403C8.95503 22.325 9.00084 22.2143 9.08239 22.1328L9.88193 21.3332Z" fill="#044D3A"/>
<path id="Vector_4" d="M22.4403 15.0454C22.325 15.0454 22.2143 14.9995 22.1328 14.9179L21.3332 14.1184C20.8479 16.232 19.6612 18.1191 17.9665 19.4722C16.2718 20.8254 14.1689 21.5649 12.0003 21.5704C11.8849 21.5704 11.7743 21.5246 11.6927 21.443C11.6111 21.3614 11.5653 21.2508 11.5653 21.1354V20.8805L10.0054 22.4404L11.5653 24.0003V23.7454C11.5653 23.6301 11.6111 23.5194 11.6927 23.4378C11.7743 23.3563 11.8849 23.3104 12.0003 23.3104C14.5346 23.3105 16.9955 22.4595 18.9882 20.8938C20.981 19.3281 22.3902 17.1384 22.9897 14.6761L22.7479 14.9179C22.6663 14.9995 22.5557 15.0454 22.4403 15.0454Z" fill="#044D3A"/>
<g id="Group 8430">
<path id="Vector_5" d="M11.3376 16.5895V14.6494C11.3362 13.5347 10.934 12.4578 10.2043 11.6151C9.47466 10.7725 8.46627 10.2204 7.36328 10.0597V11.9998C7.36467 13.1145 7.76691 14.1914 8.49657 15.0341C9.22623 15.8767 10.2346 16.4288 11.3376 16.5895Z" fill="#044D3A"/>
<path id="Vector_6" d="M16.6374 11.9998V10.0597C15.5344 10.2204 14.526 10.7725 13.7964 11.6151C13.0667 12.4578 12.6645 13.5347 12.6631 14.6494V16.5895C13.7661 16.4288 14.7745 15.8767 15.5041 15.0341C16.2338 14.1914 16.636 13.1145 16.6374 11.9998Z" fill="#044D3A"/>
<path id="Vector_7" d="M12.0001 19.2859C13.4412 19.2859 14.85 18.8586 16.0482 18.058C17.2464 17.2573 18.1803 16.1194 18.7318 14.788C19.2833 13.4566 19.4276 11.9916 19.1464 10.5782C18.8653 9.16477 18.1713 7.86648 17.1523 6.84748C16.1333 5.82848 14.835 5.13453 13.4216 4.85339C12.0082 4.57224 10.5432 4.71654 9.2118 5.26802C7.88041 5.8195 6.74245 6.7534 5.94183 7.95162C5.1412 9.14984 4.71387 10.5586 4.71387 11.9997C4.71615 13.9314 5.48454 15.7834 6.85048 17.1493C8.21643 18.5153 10.0684 19.2836 12.0001 19.2859ZM6.03864 9.3501C6.03864 9.17442 6.10843 9.00594 6.23265 8.88172C6.35687 8.7575 6.52536 8.68771 6.70103 8.68771C7.79735 8.68916 8.87204 8.99289 9.80693 9.56551C10.7418 10.1381 11.5007 10.9575 12.0001 11.9334C12.4996 10.9575 13.2585 10.1381 14.1933 9.56551C15.1282 8.99289 16.2029 8.68916 17.2992 8.68771C17.4749 8.68771 17.6434 8.7575 17.7676 8.88172C17.8918 9.00594 17.9616 9.17442 17.9616 9.3501V11.9997C17.9616 13.5807 17.3336 15.0971 16.2156 16.2151C15.0976 17.3331 13.5812 17.9611 12.0001 17.9611C10.4191 17.9611 8.90272 17.3331 7.78473 16.2151C6.66673 15.0971 6.03864 13.5807 6.03864 11.9997V9.3501Z" fill="#044D3A"/>
</g>
</g>
</g>
<defs>
<clipPath id="clip0_2019_6179">
<rect width="24" height="24" fill="white"/>
</clipPath>
</defs>
</svg>
