<svg width="24" height="24" viewBox="0 0 24 24" fill="none" xmlns="http://www.w3.org/2000/svg">
<g id="cultivation 1">
<g id="Group">
<path id="Vector" d="M8.36132 4.01406C8.62382 4.50156 8.92382 5.06406 9.74882 5.81406C10.3488 6.37656 11.1363 6.67656 12.1113 6.67656C12.6738 6.67656 13.1988 6.56406 13.5363 6.48906V10.7266C13.3113 10.6891 13.0863 10.6891 12.8613 10.7266C12.1113 10.8391 11.3238 11.4766 11.1738 12.5266C11.1738 12.6391 11.0613 12.7516 10.9488 12.8266C10.8363 12.9016 10.6863 12.9016 10.5738 12.8266C10.0863 12.5641 9.59882 12.4891 9.14882 12.6391C8.43632 12.8266 8.17382 13.0891 8.06132 13.3891H8.28632C9.14882 13.3891 9.93632 13.6891 10.5363 14.2516L10.5738 14.2891C11.0988 14.7766 11.7363 15.0766 12.4113 15.0766H16.9113C17.3988 15.0766 17.8488 15.2641 18.1863 15.6016C18.4488 15.8641 18.6363 16.2391 18.6738 16.6141L20.3988 15.6016L19.8363 14.4766C19.4238 13.5016 18.7863 13.2016 17.7738 13.4266C17.5863 13.4641 17.3613 13.3891 17.2863 13.2016C16.9488 12.3391 16.4613 11.8141 15.2613 12.0391C15.0738 12.0766 14.9238 12.0016 14.8488 11.8516C14.6988 11.5516 14.4738 11.2891 14.2488 11.1016V7.38906C14.6238 7.50156 15.1113 7.57656 15.6738 7.57656C16.6113 7.57656 17.3988 7.27656 18.0363 6.71406C18.8613 5.96406 19.1613 5.40156 19.3863 4.91406C19.6488 4.42656 19.8738 4.01406 20.6238 3.37656C20.7363 3.26406 20.7738 3.15156 20.7738 3.00156C20.7363 2.85156 20.6613 2.73906 20.5113 2.70156C20.4738 2.70156 19.5738 2.40156 18.4863 2.40156C17.5488 2.40156 16.7238 2.58906 16.0488 3.00156C15.1113 3.52656 14.4738 4.42656 14.0988 5.17656C13.7988 4.31406 13.0863 2.88906 11.7738 2.13906C11.0988 1.76406 10.2738 1.53906 9.33632 1.53906C8.21132 1.53906 7.34882 1.80156 7.31132 1.83906C7.16132 1.87656 7.04882 1.98906 7.04882 2.13906C7.01132 2.28906 7.08632 2.43906 7.19882 2.51406C7.87382 3.07656 8.09882 3.52656 8.36132 4.01406Z" fill="#044D3A"/>
<path id="Vector_2" d="M4.2 14.0273H0V22.4648H4.2C4.425 22.4648 4.6125 22.2773 4.6125 22.0523V21.0773V14.4398C4.6125 14.2148 4.425 14.0273 4.2 14.0273Z" fill="#044D3A"/>
<path id="Vector_3" d="M23.8508 15.5648C23.4758 15.1523 22.8008 15.0398 22.2758 15.3398L18.5633 17.5523C18.2633 18.1898 17.6633 18.5648 16.9508 18.5648H11.6633C11.4383 18.5648 11.2508 18.3773 11.2508 18.1523C11.2508 17.9273 11.4383 17.7398 11.6633 17.7398H16.9508C17.3633 17.7398 17.7383 17.4773 17.8883 17.0648C17.9258 16.9523 17.9258 16.8398 17.9258 16.7273C17.9258 16.4648 17.8133 16.2023 17.6258 16.0148C17.4383 15.8273 17.1758 15.7148 16.9133 15.7148H12.4133C11.5508 15.7148 10.6883 15.3773 10.0133 14.7398C9.97578 14.7023 9.93828 14.6648 9.93828 14.6648C9.48828 14.2523 8.88828 14.0273 8.25078 14.0273H7.31328C6.90078 14.0273 6.52578 14.1023 6.22578 14.2523C6.00078 14.3648 5.77578 14.5523 5.51328 14.7398C5.47578 14.7773 5.40078 14.8148 5.36328 14.8898V20.5523C5.70078 20.5898 6.03828 20.6273 6.33828 20.7023L12.0008 22.2773C12.7133 22.4273 13.5008 22.3148 14.1383 21.9023L23.6633 16.2398C23.8133 16.1648 23.8883 16.0148 23.9258 15.8648C24.0008 15.8648 23.9633 15.7148 23.8508 15.5648Z" fill="#044D3A"/>
</g>
</g>
</svg>
