<svg width="24" height="24" viewBox="0 0 24 24" fill="none" xmlns="http://www.w3.org/2000/svg">
<g id="engineering (1) 1" clip-path="url(#clip0_2019_6208)">
<g id="Group">
<g id="Group_2">
<path id="Vector" d="M15.6365 11.4546L14.291 10.9819C14.182 10.6182 14.0365 10.2546 13.8183 9.89096L14.4365 8.61823C14.5092 8.47277 14.4729 8.29096 14.3638 8.21823L12.8001 6.65459C12.691 6.5455 12.5092 6.50914 12.4001 6.58186L11.1274 7.20005C10.7638 7.01823 10.4001 6.87277 10.0365 6.72732L9.56377 5.38186C9.52741 5.23641 9.38195 5.12732 9.2365 5.12732H7.01831C6.87286 5.12732 6.72741 5.23641 6.65468 5.38186L6.18195 6.72732C5.81832 6.83641 5.45468 6.98186 5.09104 7.20005L3.85468 6.5455C3.70922 6.47277 3.56377 6.50914 3.41831 6.61823L1.85468 8.18186C1.74559 8.29096 1.70922 8.47277 1.78195 8.58186L2.40013 9.85459C2.21832 10.2182 2.07286 10.5819 1.96377 10.9455L0.618315 11.4182C0.47286 11.491 0.36377 11.6364 0.36377 11.7819V14C0.36377 14.1455 0.47286 14.291 0.618315 14.3637L1.96377 14.8364C2.07286 15.2 2.21832 15.5637 2.4365 15.9273L1.81832 17.2C1.74559 17.3455 1.78195 17.5273 1.89104 17.6364L3.45468 19.2C3.56377 19.3091 3.74559 19.3455 3.89104 19.2728L5.16377 18.6546C5.52741 18.8364 5.89104 18.9819 6.25468 19.1273L6.72741 20.4728C6.76377 20.6182 6.90922 20.7273 7.05468 20.7273H9.27286C9.41831 20.7273 9.56377 20.6182 9.60013 20.4728L10.0729 19.1273C10.4365 19.0182 10.8001 18.8728 11.1638 18.6546L12.4365 19.2728C12.582 19.3455 12.7274 19.3091 12.8365 19.2L14.4001 17.6364C14.5092 17.5273 14.5456 17.3455 14.4729 17.2L13.8183 15.891C14.0001 15.5273 14.1456 15.1637 14.291 14.8L15.6365 14.3273C15.782 14.291 15.891 14.1455 15.891 13.9637V11.7455C15.891 11.6364 15.782 11.491 15.6365 11.4546ZM8.10922 16C6.40013 16 5.01832 14.6182 5.01832 12.9091C5.01832 11.2 6.40013 9.81823 8.10922 9.81823C9.81831 9.81823 11.2001 11.2 11.2001 12.9091C11.2001 14.5819 9.81831 16 8.10922 16Z" fill="#044D3A"/>
</g>
<g id="Group_3">
<path id="Vector_2" d="M23.3819 4.21823L22.6546 3.96369C22.5819 3.78187 22.5092 3.60005 22.4364 3.4546L22.7637 2.76369C22.8364 2.61823 22.8001 2.47278 22.691 2.32732L21.8183 1.41823C21.7092 1.30914 21.5274 1.27278 21.4183 1.34551L20.7274 1.67278C20.5455 1.60005 20.4001 1.52732 20.2183 1.4546L19.9637 0.727324C19.9274 0.581869 19.7819 0.472778 19.6364 0.472778H18.3274C18.1819 0.472778 18.0364 0.581869 17.9637 0.727324L17.7092 1.4546C17.5274 1.52732 17.3455 1.60005 17.2001 1.67278L16.5092 1.34551C16.3637 1.27278 16.1819 1.30914 16.0728 1.41823L15.1637 2.32732C15.0546 2.43641 15.0183 2.61823 15.091 2.76369L15.4183 3.4546C15.3455 3.63641 15.2728 3.78187 15.2001 3.96369L14.4728 4.21823C14.3274 4.2546 14.2183 4.40005 14.2183 4.54551V5.8546C14.2183 6.00005 14.3274 6.14551 14.4728 6.18187L15.2001 6.43641C15.2728 6.61823 15.3455 6.80005 15.4183 6.98187L15.091 7.63641C15.0183 7.78187 15.0546 7.96369 15.1637 8.07278L16.0728 8.98187C16.1819 9.09096 16.3637 9.12732 16.5092 9.0546L17.2001 8.72732C17.3819 8.80005 17.5637 8.87278 17.7092 8.94551L17.9637 9.67278C18.0001 9.81823 18.1455 9.92732 18.3274 9.92732H19.6364C19.7819 9.92732 19.9274 9.81823 19.9637 9.67278L20.2183 8.94551C20.4001 8.87278 20.5819 8.80005 20.7274 8.72732L21.4183 9.0546C21.5637 9.12732 21.7092 9.09096 21.8546 8.98187L22.7637 8.07278C22.8728 7.96369 22.9092 7.78187 22.8364 7.63641L22.5092 6.94551C22.5819 6.76369 22.6546 6.58187 22.7274 6.40005L23.4546 6.1455C23.6001 6.10914 23.7092 5.96369 23.7092 5.81823V4.50914C23.6364 4.40005 23.5274 4.2546 23.3819 4.21823ZM18.9455 7.01823C17.9274 7.01823 17.1274 6.21823 17.1274 5.20005C17.1274 4.21823 17.9274 3.38187 18.9455 3.38187C19.9274 3.38187 20.7637 4.18187 20.7637 5.20005C20.7637 6.21823 19.9274 7.01823 18.9455 7.01823Z" fill="#044D3A"/>
</g>
<g id="Group_4">
<path id="Vector_3" d="M23.3822 16.0728L22.364 15.7091C22.2913 15.4182 22.1822 15.1637 22.0367 14.9091L22.5095 13.9273C22.5822 13.7819 22.5458 13.6364 22.4367 13.5273L21.2004 12.291C21.0913 12.1819 20.9095 12.1455 20.764 12.2182L19.8186 12.7273C19.564 12.5819 19.2731 12.4728 19.0186 12.4L18.6913 11.3819C18.6549 11.2364 18.5095 11.1273 18.3276 11.1273H16.5822C16.5095 11.1273 16.4731 11.1273 16.4004 11.1637C16.5095 11.3455 16.5822 11.5637 16.5822 11.7819V14C16.5822 14.4728 16.2913 14.8728 15.8549 15.0182L14.8367 15.3819C14.764 15.5637 14.6913 15.7455 14.6186 15.891L15.0913 16.8364C15.3095 17.2728 15.2367 17.7455 14.8731 18.1091L13.3095 19.6728C13.1276 19.8546 12.9095 19.9637 12.6913 20L12.364 20.6546C12.2913 20.8 12.3276 20.9455 12.4367 21.0546L13.6731 22.291C13.7822 22.4 13.964 22.4364 14.1095 22.3637L15.0913 21.891C15.3458 22.0364 15.6367 22.1455 15.8913 22.2182L16.2549 23.2364C16.2913 23.3819 16.4367 23.491 16.6186 23.491H18.364C18.5095 23.491 18.6549 23.3819 18.7276 23.2364L19.0549 22.2182C19.3458 22.1091 19.6004 22 19.8549 21.891L20.8367 22.3637C20.9822 22.4364 21.1276 22.4 21.2731 22.291L22.5095 21.0546C22.6186 20.9455 22.6549 20.7637 22.5822 20.6546L22.1095 19.6728C22.2549 19.4182 22.364 19.1273 22.4367 18.8728L23.4549 18.5091C23.6004 18.4728 23.7095 18.3273 23.7095 18.1455V16.4C23.6367 16.2546 23.5276 16.1455 23.3822 16.0728ZM17.8186 19.7455C16.4731 19.7455 15.3822 18.6546 15.3822 17.3091C15.3822 15.9637 16.4731 14.8728 17.8186 14.8728C19.164 14.8728 20.2549 15.9637 20.2549 17.3091C20.2549 18.6546 19.164 19.7455 17.8186 19.7455Z" fill="#044D3A"/>
</g>
</g>
</g>
<defs>
<clipPath id="clip0_2019_6208">
<rect width="24" height="24" fill="white"/>
</clipPath>
</defs>
</svg>
