<svg width="24" height="24" viewBox="0 0 24 24" fill="none" xmlns="http://www.w3.org/2000/svg">
<g id="family 1" clip-path="url(#clip0_2019_6133)">
<g id="Page-1">
<g id="shelter_filled">
<path id="family,-mother,-father,-child,-roof,-home" d="M12.0002 13.4117C10.4408 13.4117 9.17665 12.1476 9.17665 10.5882C9.17665 9.02883 10.4408 7.76469 12.0002 7.76469C13.5596 7.76469 14.8237 9.02883 14.8237 10.5882C14.8237 12.1476 13.5596 13.4117 12.0002 13.4117ZM0.988992 6.99962C0.63183 7.15588 0.21562 6.99302 0.0593616 6.63586C-0.0968968 6.27869 0.0659667 5.86249 0.423129 5.70623L11.7172 0.765055C11.8976 0.686144 12.1027 0.686144 12.2831 0.765055L23.5772 5.70623C23.9344 5.86249 24.0973 6.27869 23.941 6.63586C23.7847 6.99302 23.3685 7.15588 23.0114 6.99962L12.0002 2.18224L0.988992 6.99962ZM12.0002 14.4706C13.5596 14.4706 14.8237 15.7347 14.8237 17.2941V22.5882C14.8237 22.9781 14.5077 23.2941 14.1178 23.2941H9.88253C9.49268 23.2941 9.17665 22.9781 9.17665 22.5882V17.2941C9.17665 15.7347 10.4408 14.4706 12.0002 14.4706ZM19.4119 16.9412C18.0475 16.9412 16.9414 15.835 16.9414 14.4706C16.9414 13.1061 18.0475 12 19.4119 12C20.7764 12 21.8825 13.1061 21.8825 14.4706C21.8825 15.835 20.7764 16.9412 19.4119 16.9412ZM21.8825 20.4706V22.5882C21.8825 22.9781 21.5665 23.2941 21.1766 23.2941H17.6472C17.2574 23.2941 16.9414 22.9781 16.9414 22.5882V20.4706C16.9414 19.1061 18.0475 18 19.4119 18C20.7764 18 21.8825 19.1061 21.8825 20.4706ZM4.58841 16.5882C3.22395 16.5882 2.11783 15.4821 2.11783 14.1176C2.11783 12.7532 3.22395 11.647 4.58841 11.647C5.95288 11.647 7.059 12.7532 7.059 14.1176C7.059 15.4821 5.95288 16.5882 4.58841 16.5882ZM4.58841 17.647C5.95288 17.647 7.059 18.7532 7.059 20.1176V22.5882C7.059 22.9781 6.74297 23.2941 6.35312 23.2941H2.82371C2.43386 23.2941 2.11783 22.9781 2.11783 22.5882V20.1176C2.11783 18.7532 3.22395 17.647 4.58841 17.647Z" fill="#044D3A"/>
</g>
</g>
</g>
<defs>
<clipPath id="clip0_2019_6133">
<rect width="24" height="24" fill="white"/>
</clipPath>
</defs>
</svg>
