<svg width="24" height="24" viewBox="0 0 24 24" fill="none" xmlns="http://www.w3.org/2000/svg">
<g id="farm 1" clip-path="url(#clip0_2019_6154)">
<g id="Group">
<path id="Vector" d="M8.18051 13.2802C8.42473 13.2802 8.63519 13.2703 8.79832 13.2586L11.2968 15.7566V17.5575H12.703V15.7566L15.2014 13.2586C15.3646 13.2703 15.575 13.2802 15.8193 13.2802C16.9171 13.2802 18.6922 13.0758 19.8613 11.9072C21.62 10.1484 21.1954 7.01766 21.1761 6.88547C21.1321 6.57609 20.8893 6.33328 20.5799 6.28875C20.4477 6.27 17.3169 5.84531 15.5582 7.60406C14.1294 9.03281 14.1421 11.3681 14.2068 12.2639L12.703 13.7681V8.98922C13.3827 8.40141 15.0425 6.75937 15.0425 4.73859C15.0425 2.25141 12.5286 0.337969 12.4218 0.257812C12.1719 0.0703125 11.8279 0.0703125 11.578 0.257812C11.4711 0.337969 8.95723 2.25141 8.95723 4.73859C8.95723 6.75937 10.6171 8.40141 11.2968 8.98922V13.7681L9.79301 12.2639C9.85769 11.3681 9.87035 9.03281 8.4416 7.60406C7.21057 6.37303 5.04059 6.06717 3.41988 6.28875C3.11051 6.33328 2.86769 6.57609 2.82363 6.88547C2.80441 7.01766 2.37973 10.1484 4.13848 11.9072C5.30754 13.0762 7.08269 13.2802 8.18051 13.2802Z" fill="#044D3A"/>
<path id="Vector_2" d="M3.51375 22.1265H0V23.0047C0 23.4897 0.393188 23.8829 0.878203 23.8829H5.87016C5.56687 22.8685 4.62516 22.1265 3.51375 22.1265Z" fill="#044D3A"/>
<path id="Vector_3" d="M3.51375 18.9637H0.878203C0.393188 18.9637 0 19.3569 0 19.8419V20.7202H3.51375C5.40516 20.7202 6.9825 22.0861 7.31391 23.8828H9.09188C8.74453 21.1134 6.37547 18.9637 3.51375 18.9637Z" fill="#044D3A"/>
<path id="Vector_4" d="M23.122 18.9637H7.72705C8.37346 19.4494 8.93361 20.0442 9.38033 20.7202H24.0002V19.8419C24.0002 19.3569 23.607 18.9637 23.122 18.9637Z" fill="#044D3A"/>
<path id="Vector_5" d="M10.5069 23.8829H23.1216C23.6066 23.8829 23.9998 23.4897 23.9998 23.0047V22.1265H10.0972C10.3053 22.6824 10.4454 23.2712 10.5069 23.8829Z" fill="#044D3A"/>
</g>
</g>
<defs>
<clipPath id="clip0_2019_6154">
<rect width="24" height="24" fill="white"/>
</clipPath>
</defs>
</svg>
