<svg width="24" height="24" viewBox="0 0 24 24" fill="none" xmlns="http://www.w3.org/2000/svg">
<g id="file 1" clip-path="url(#clip0_2019_6254)">
<g id="g1455">
<g id="g1457">
<g id="Clip path group">
<mask id="mask0_2019_6254" style="mask-type:luminance" maskUnits="userSpaceOnUse" x="0" y="0" width="24" height="24">
<g id="clipPath1463">
<path id="path1461" d="M0 0.000133514H23.9999V24H0V0.000133514Z" fill="white"/>
</g>
</mask>
<g mask="url(#mask0_2019_6254)">
<g id="g1459">
<g id="g1465">
<path id="path1467" d="M23.0619 16.6093H19.4213C17.868 16.6093 16.6088 17.8685 16.6088 19.4218V23.0624M23.0619 16.6093C23.0619 17.7899 22.5929 18.922 21.7582 19.7567L19.7562 21.7587C18.9215 22.5934 17.7894 23.0624 16.6088 23.0624M23.0619 16.6093V5.632C23.0619 4.38696 22.5673 3.19288 21.6869 2.31248C20.8065 1.43212 19.6124 0.937499 18.3674 0.937499H5.63152C4.38648 0.937499 3.19239 1.43212 2.31199 2.31248C1.43163 3.19288 0.937012 4.38696 0.937012 5.632V18.3679C0.937012 19.6129 1.43163 20.807 2.31199 21.6874C3.19239 22.5678 4.38648 23.0624 5.63152 23.0624H15.6869H16.6088M6.46823 17.5312H11.9995M6.46823 6.46872H17.5307M6.46823 11.9999H17.5307" stroke="#044D3A" stroke-width="1.87499" stroke-miterlimit="10" stroke-linecap="round" stroke-linejoin="round"/>
</g>
</g>
</g>
</g>
</g>
</g>
</g>
<defs>
<clipPath id="clip0_2019_6254">
<rect width="23.9999" height="23.9999" fill="white"/>
</clipPath>
</defs>
</svg>
