<svg width="24" height="24" viewBox="0 0 24 24" fill="none" xmlns="http://www.w3.org/2000/svg">
<g id="forest 1" clip-path="url(#clip0_2019_6144)">
<g id="Group">
<path id="Vector" d="M16.9412 9.71426V12.1849H15.5294V9.71426H13.4118C12.9261 9.71426 12.5855 9.23519 12.7451 8.77648L15.5686 0.658852C15.7884 0.0268833 16.6822 0.0268833 16.902 0.658852L19.7255 8.77648C19.8851 9.23519 19.5445 9.71426 19.0588 9.71426H16.9412ZM7.05881 8.58485C5.44781 8.2578 4.2353 6.83351 4.2353 5.12604C4.2353 3.17679 5.81545 1.59663 7.7647 1.59663C9.71395 1.59663 11.2941 3.17679 11.2941 5.12604C11.2941 6.83351 10.0816 8.25785 8.47059 8.58485V12.1849H7.05881V8.58485ZM5.55253 13.2437H7.63312L5.08266 22.0286C3.71752 21.2356 2.5613 20.2134 1.69823 19.0277L5.52848 13.2823C5.53697 13.2696 5.54498 13.2567 5.55253 13.2437ZM3.85753 13.2437L0.888938 17.6965C0.316172 16.5432 0 15.2787 0 13.9496C0 13.5597 0.316031 13.2437 0.705891 13.2437H3.85753ZM9.10317 13.2437H11.2942V23.8151C9.52261 23.7304 7.85105 23.3293 6.36422 22.678L9.10317 13.2437ZM18.4475 13.2437C18.455 13.2567 18.463 13.2696 18.4715 13.2823L22.3017 19.0277C21.4387 20.2134 20.2825 21.2356 18.9173 22.0286L16.3668 13.2437H18.4475ZM20.1425 13.2437H23.2941C23.684 13.2437 24 13.5597 24 13.9496C24 15.2787 23.6838 16.5432 23.1111 17.6966L20.1425 13.2437ZM14.8968 13.2437L17.6358 22.678C16.149 23.3293 14.4774 23.7304 12.7059 23.8151V13.2437H14.8968Z" fill="#044D3A"/>
</g>
</g>
<defs>
<clipPath id="clip0_2019_6144">
<rect width="24" height="24" fill="white"/>
</clipPath>
</defs>
</svg>
