<svg width="24" height="24" viewBox="0 0 24 24" fill="none" xmlns="http://www.w3.org/2000/svg">
<g id="location (7) 1" clip-path="url(#clip0_1384_36714)">
<g id="Group">
<path id="Vector" d="M21.9529 16.8268C21.6125 16.6398 21.185 16.7642 20.9981 17.1045C20.8111 17.4449 20.9355 17.8724 21.2758 18.0593C22.1134 18.5194 22.5938 19.0295 22.5938 19.4588C22.5938 19.9838 21.8498 20.7976 19.7619 21.507C17.6992 22.2078 14.9426 22.5937 12 22.5937C9.05742 22.5937 6.30084 22.2078 4.23811 21.507C2.15016 20.7976 1.40625 19.9838 1.40625 19.4588C1.40625 19.0295 1.88663 18.5194 2.72419 18.0592C3.06455 17.8723 3.18886 17.4448 3.00187 17.1045C2.81489 16.7641 2.38753 16.6398 2.04708 16.8268C1.11323 17.3398 0 18.2129 0 19.4588C0 20.4138 0.656813 21.7755 3.78572 22.8385C5.99034 23.5875 8.90756 24 12 24C15.0924 24 18.0097 23.5875 20.2143 22.8385C23.3432 21.7755 24 20.4138 24 19.4588C24 18.2129 22.8868 17.3398 21.9529 16.8268Z" fill="#044D3A"/>
<path id="Vector_2" d="M6.69171 20.4905C8.11906 20.8937 10.0043 21.1158 12.0002 21.1158C13.9961 21.1158 15.8814 20.8937 17.3087 20.4905C19.0549 19.9972 19.9404 19.2831 19.9404 18.3682C19.9404 17.4532 19.0549 16.7392 17.3087 16.246C16.9211 16.1365 16.4995 16.0404 16.0512 15.9585C15.8078 16.3791 15.5528 16.8119 15.2861 17.2573C15.7822 17.3317 16.248 17.423 16.671 17.5308C17.9562 17.8581 18.4257 18.2266 18.5222 18.3682C18.4256 18.5099 17.9562 18.8784 16.6711 19.2057C15.4547 19.5155 13.8897 19.6922 12.2415 19.708C12.1617 19.7139 12.0812 19.7173 12.0002 19.7173C11.9192 19.7173 11.8388 19.7139 11.7589 19.708C10.1106 19.6922 8.54567 19.5156 7.32931 19.2057C6.04418 18.8784 5.57473 18.5099 5.47821 18.3682C5.57473 18.2266 6.04423 17.8581 7.32936 17.5308C7.75236 17.4231 8.21815 17.3317 8.71432 17.2573C8.44765 16.812 8.19261 16.379 7.94918 15.9585C7.50096 16.0405 7.07932 16.1365 6.69171 16.246C4.94548 16.7392 4.06006 17.4533 4.06006 18.3682C4.06006 19.2831 4.94548 19.9972 6.69171 20.4905Z" fill="#044D3A"/>
<path id="Vector_3" d="M12.0001 18.311C12.626 18.311 13.1946 17.992 13.5211 17.4578C15.8091 13.7145 18.5364 8.78109 18.5364 6.5362C18.5364 2.93212 15.6042 0 12.0001 0C8.39599 0 5.46387 2.93212 5.46387 6.5362C5.46387 8.78109 8.1912 13.7145 10.4791 17.4578C10.8056 17.992 11.3742 18.311 12.0001 18.311ZM9.37291 6.08742C9.37291 4.63884 10.5515 3.46031 12.0001 3.46031C13.4487 3.46031 14.6273 4.63884 14.6273 6.08742C14.6273 7.53605 13.4487 8.71458 12.0001 8.71458C10.5515 8.71458 9.37291 7.53609 9.37291 6.08742Z" fill="#044D3A"/>
</g>
</g>
<defs>
<clipPath id="clip0_1384_36714">
<rect width="24" height="24" fill="white"/>
</clipPath>
</defs>
</svg>
