<svg width="24" height="24" viewBox="0 0 24 24" fill="none" xmlns="http://www.w3.org/2000/svg">
<g id="road 1" clip-path="url(#clip0_2019_6168)">
<path id="Vector" d="M8.79048 0C8.05604 0 7.40973 0.470109 7.18234 1.16977L0.481181 21.7803C0.313697 22.2955 0.403697 22.8645 0.721884 23.3026C1.04387 23.7458 1.54229 24 2.08942 24H3.45353L8.91207 0H8.79048Z" fill="#044D3A"/>
<path id="Vector_2" d="M12.6892 0V2.2342C12.6892 2.62252 12.3744 2.93733 11.9861 2.93733C11.5978 2.93733 11.283 2.62252 11.283 2.2342V0H10.3545L4.896 24H11.2803V21.7658C11.2803 21.3775 11.5951 21.0627 11.9834 21.0627C12.3718 21.0627 12.6866 21.3775 12.6866 21.7658V24H19.5556L14.0971 0H12.6892ZM11.279 6.65625V4.75017C11.279 4.36186 11.5938 4.04705 11.9821 4.04705C12.3704 4.04705 12.6852 4.36186 12.6852 4.75017V6.65625C12.6852 7.04456 12.3704 7.35938 11.9821 7.35938C11.5938 7.35938 11.279 7.04456 11.279 6.65625ZM12.6879 8.78142V10.7812C12.6879 11.1696 12.3731 11.4844 11.9848 11.4844C11.5964 11.4844 11.2816 11.1696 11.2816 10.7812V8.78142C11.2816 8.39311 11.5964 8.0783 11.9848 8.0783C12.3731 8.0783 12.6879 8.39311 12.6879 8.78142ZM11.2803 12.9064C11.2803 12.5181 11.5951 12.2033 11.9834 12.2033C12.3717 12.2033 12.6865 12.5181 12.6865 12.9064V14.9062C12.6865 15.2946 12.3717 15.6094 11.9834 15.6094C11.5951 15.6094 11.2803 15.2946 11.2803 14.9062V12.9064ZM12.6892 19.0781C12.6892 19.4664 12.3744 19.7812 11.9861 19.7812C11.5978 19.7812 11.283 19.4664 11.283 19.0781V17.0783C11.283 16.69 11.5978 16.3752 11.9861 16.3752C12.3744 16.3752 12.6892 16.69 12.6892 17.0783V19.0781Z" fill="#044D3A"/>
<path id="Vector_3" d="M23.5264 21.8104L17.2466 1.19986C17.0279 0.482203 16.3778 0 15.6289 0H15.5391L20.9976 24H21.9087C22.4495 24 22.9446 23.7504 23.2669 23.3153C23.5902 22.8788 23.6848 22.3303 23.5264 21.8104Z" fill="#044D3A"/>
</g>
<defs>
<clipPath id="clip0_2019_6168">
<rect width="24" height="24" fill="white"/>
</clipPath>
</defs>
</svg>
