<svg width="24" height="24" viewBox="0 0 24 24" fill="none" xmlns="http://www.w3.org/2000/svg">
<g id="sea 1" clip-path="url(#clip0_2019_6196)">
<g id="Group">
<path id="Vector" d="M21.147 6.10691L21.1241 6.1461C20.3079 7.54518 18.2865 7.54555 17.4699 6.14671L17.4531 6.11793C16.639 4.72326 14.6034 4.72724 13.7948 6.1251C12.9862 7.52315 10.9502 7.52685 10.1364 6.1318L10.1219 6.10691C9.30591 4.70737 7.28391 4.70718 6.46758 6.10649L6.44442 6.14615C5.62823 7.54532 3.60666 7.54551 2.79014 6.14652L2.76562 6.10452C2.35945 5.40866 1.64887 5.0608 0.938344 5.0609C0.707859 5.06094 0.477562 5.09797 0.257578 5.17143C0.103922 5.22276 0 5.36643 0 5.52847V8.88097C0.260578 8.8056 0.535031 8.7658 0.817594 8.7658H0.817922C1.86023 8.7658 2.79408 9.30144 3.31622 10.1989L3.34102 10.2416C3.58955 10.6687 4.03556 10.9238 4.53389 10.9237C5.03236 10.9236 5.47823 10.6685 5.72672 10.2411L5.74988 10.2013C6.27178 9.30369 7.20586 8.76772 8.24841 8.76772C9.291 8.76768 10.225 9.30365 10.7471 10.2014L10.7618 10.2266C11.0104 10.6542 11.4561 10.9092 11.9546 10.9092H11.9573C12.4568 10.9082 12.9028 10.6514 13.1502 10.2223C13.6699 9.3208 14.6038 8.78137 15.6485 8.7793H15.6545C16.6967 8.7793 17.6302 9.31471 18.1525 10.2124L18.1691 10.2411C18.4179 10.6687 18.8639 10.9237 19.3622 10.9236C19.8607 10.9236 20.3066 10.6685 20.5551 10.2411L20.5782 10.2013C21.0842 9.33107 22.0087 8.81141 23.0512 8.81141C23.3784 8.81141 23.6982 8.86372 24 8.96141V5.59916C24 5.44433 23.9059 5.30296 23.7608 5.24896C22.8283 4.90236 21.6929 5.17115 21.147 6.10691Z" fill="#044D3A"/>
<path id="Vector_2" d="M21.8838 10.9607L21.8607 11.0006C21.3388 11.8981 20.4049 12.434 19.3624 12.4341H19.3621C18.3198 12.4342 17.3859 11.8985 16.8638 11.0011L16.8471 10.9724C16.5983 10.5447 16.1526 10.2898 15.6543 10.2898H15.6514C15.1519 10.2908 14.706 10.5476 14.4586 10.9767C13.9389 11.8782 13.0049 12.4176 11.9601 12.4196C11.9582 12.4196 11.9563 12.4196 11.9544 12.4196C10.9118 12.4197 9.97823 11.884 9.45605 10.9859L9.44137 10.9607C9.19284 10.5334 8.74683 10.2782 8.24836 10.2782C7.74989 10.2782 7.30397 10.5333 7.05544 10.9607L7.03228 11.0006C6.51042 11.8981 5.57648 12.434 4.53403 12.4341H4.53375C3.49144 12.4342 2.55759 11.8985 2.0355 11.0011L2.01066 10.9584C1.76213 10.5312 1.31611 10.2762 0.817781 10.2762C0.514828 10.2762 0.231609 10.371 0 10.5409V13.8888C0.260531 13.8134 0.534984 13.7736 0.817547 13.7735H0.817922C1.86019 13.7735 2.79413 14.3092 3.31617 15.2066L3.34102 15.2493C3.58955 15.6765 4.03556 15.9315 4.53394 15.9315C5.03236 15.9314 5.47823 15.6762 5.72672 15.2489L5.74988 15.2091C6.27178 14.3115 7.20586 13.7755 8.24841 13.7755C9.291 13.7755 10.225 14.3114 10.7471 15.2092L10.7618 15.2344C11.0104 15.6619 11.4561 15.9169 11.9546 15.9169H11.9573C12.4568 15.916 12.9028 15.6592 13.1502 15.23C13.6699 14.3286 14.6038 13.7892 15.6485 13.7871H15.6545C16.6967 13.7871 17.6302 14.3225 18.1525 15.2202L18.1691 15.2488C18.4179 15.6765 18.8639 15.9315 19.3623 15.9315C19.8607 15.9314 20.3066 15.6762 20.5551 15.2489L20.5782 15.2091C21.0842 14.3389 22.0087 13.8193 23.0512 13.8193C23.3784 13.8193 23.6982 13.8716 24 13.9693V10.6426C23.7373 10.439 23.4037 10.3219 23.0512 10.3219C22.8118 10.3219 22.2191 10.3842 21.8838 10.9607Z" fill="#044D3A"/>
<path id="Vector_3" d="M21.8838 15.9684L21.8607 16.0082C21.3388 16.9057 20.4049 17.4417 19.3625 17.4418H19.3621C18.3198 17.4418 17.3859 16.9061 16.8638 16.0088L16.8471 15.9801C16.5983 15.5524 16.1526 15.2975 15.6543 15.2975H15.6514C15.1519 15.2985 14.706 15.5552 14.4586 15.9844C13.9389 16.8859 13.0049 17.4253 11.9601 17.4272C11.9582 17.4273 11.9563 17.4273 11.9544 17.4273C10.9118 17.4273 9.97823 16.8917 9.45605 15.9936L9.44137 15.9684C9.19284 15.541 8.74683 15.2859 8.24836 15.2859C7.74989 15.2859 7.30397 15.541 7.05544 15.9684L7.03228 16.0082C6.51042 16.9057 5.57648 17.4417 4.53408 17.4418H4.53375C3.49148 17.4418 2.55755 16.9061 2.0355 16.0088L2.01066 15.9661C1.76213 15.5389 1.31611 15.2839 0.817734 15.2839C0.514781 15.284 0.231562 15.3787 0 15.5486V17.9964C0 18.5192 0.42375 18.9429 0.9465 18.9429H23.0535C23.5762 18.9429 24 18.5192 24 17.9964V15.6504C23.7372 15.4467 23.4036 15.3297 23.0511 15.3297C22.8118 15.3296 22.2191 15.3919 21.8838 15.9684Z" fill="#044D3A"/>
</g>
</g>
<defs>
<clipPath id="clip0_2019_6196">
<rect width="24" height="24" fill="white"/>
</clipPath>
</defs>
</svg>
