<svg width="24" height="24" viewBox="0 0 24 24" fill="none" xmlns="http://www.w3.org/2000/svg">
<g id="target (1) 1">
<g id="Group 8431">
<g id="Group">
<g id="Group_2">
<path id="Vector" d="M12.4219 11.5971C12.4186 11.5936 12.4177 11.5891 12.4143 11.5857L9.07043 8.24174V6.14059C9.07043 5.98493 9.00863 5.83618 8.89878 5.72629L5.38314 2.17162C5.21607 2.00459 4.96372 1.95365 4.74454 2.04463C4.5254 2.13502 4.3829 2.34905 4.3829 2.58592V4.34375H2.58601C2.34917 4.34371 2.13515 4.48617 2.04476 4.70535C1.95378 4.92449 2.00413 5.17629 2.17179 5.34395L5.7265 8.89862C5.83638 9.0085 5.98513 9.0703 6.14076 9.0703H8.24191L11.5858 12.4142C11.5892 12.4176 11.5938 12.4185 11.5972 12.4218C11.8253 12.6395 12.1718 12.6424 12.403 12.4218C12.6465 12.1895 12.641 11.8266 12.4219 11.5971Z" fill="#044D3A"/>
</g>
</g>
<g id="Group_3">
<g id="Group_4">
<path id="Vector_2" d="M12 2C10.5007 2 9.08317 2.38145 7.80667 2.97727L9.60411 4.7747C10.3585 4.52384 11.1625 4.38283 12 4.38283C16.2 4.38279 19.6172 7.8 19.6172 12C19.6172 16.2 16.2 19.6172 12 19.6172C7.79996 19.6172 4.38279 16.2 4.38279 12C4.38279 11.1625 4.52384 10.3584 4.77466 9.60407L2.97723 7.80664C2.38149 9.08317 2 10.5007 2 12C2 17.4926 6.50741 22 12 22C17.4926 22 22 17.4926 22 12C22 6.50741 17.4926 2 12 2Z" fill="#044D3A"/>
</g>
</g>
<g id="Group_5">
<g id="Group_6">
<path id="Vector_3" d="M12 6.72656C11.3807 6.72656 10.7947 6.85352 10.2422 7.05051V7.75653L11.5967 9.11111C11.7298 9.09251 11.8619 9.07033 12 9.07033C13.6154 9.07033 14.9297 10.3847 14.9297 12C14.9297 13.6154 13.6154 14.9297 12 14.9297C10.3846 14.9297 9.07029 13.6154 9.07029 12C9.07029 11.8619 9.09248 11.7298 9.11107 11.5968L7.75653 10.2422H7.05051C6.85352 10.7947 6.72656 11.3807 6.72656 12C6.72656 14.9079 9.09208 17.2734 12 17.2734C14.9079 17.2734 17.2735 14.9079 17.2735 12C17.2735 9.09204 14.9079 6.72656 12 6.72656Z" fill="#044D3A"/>
</g>
</g>
</g>
</g>
</svg>
