<svg width="24" height="24" viewBox="0 0 24 24" fill="none" xmlns="http://www.w3.org/2000/svg">
<g id="time 1">
<g id="Layer 2">
<path id="Vector" d="M21.2446 16.8409C21.7969 16.8409 22.2446 16.3932 22.2446 15.8409C22.2446 15.2887 21.7969 14.8409 21.2446 14.8409C20.6923 14.8409 20.2446 15.2887 20.2446 15.8409C20.2446 16.3932 20.6923 16.8409 21.2446 16.8409Z" fill="#044D3A"/>
<path id="Vector_2" d="M19.064 20.062C19.6163 20.062 20.064 19.6143 20.064 19.062C20.064 18.5097 19.6163 18.062 19.064 18.062C18.5117 18.062 18.064 18.5097 18.064 19.062C18.064 19.6143 18.5117 20.062 19.064 20.062Z" fill="#044D3A"/>
<path id="Vector_3" d="M21.9971 13.004C22.5494 13.004 22.9971 12.5563 22.9971 12.004C22.9971 11.4517 22.5494 11.004 21.9971 11.004C21.4448 11.004 20.9971 11.4517 20.9971 12.004C20.9971 12.5563 21.4448 13.004 21.9971 13.004Z" fill="#044D3A"/>
<path id="Vector_4" d="M15.8247 22.2469C16.377 22.2469 16.8247 21.7992 16.8247 21.2469C16.8247 20.6947 16.377 20.2469 15.8247 20.2469C15.2724 20.2469 14.8247 20.6947 14.8247 21.2469C14.8247 21.7992 15.2724 22.2469 15.8247 22.2469Z" fill="#044D3A"/>
<path id="Vector_5" d="M11.9998 21C10.5595 21.0018 9.13988 20.6578 7.86011 19.997C6.58033 19.3363 5.47783 18.378 4.64522 17.2028C3.81261 16.0276 3.27421 14.6697 3.07526 13.2432C2.87631 11.8167 3.02262 10.3633 3.5019 9.00513C3.98117 7.64693 4.77941 6.42359 5.82956 5.43789C6.87971 4.45218 8.15108 3.73291 9.53688 3.34049C10.9227 2.94808 12.3824 2.89399 13.7934 3.18276C15.2045 3.47153 16.5256 4.09473 17.6458 5H15.9998C15.7346 5 15.4803 5.10536 15.2927 5.2929C15.1052 5.48043 14.9998 5.73479 14.9998 6C14.9998 6.26522 15.1052 6.51957 15.2927 6.70711C15.4803 6.89465 15.7346 7 15.9998 7H19.9998C20.265 7 20.5194 6.89465 20.7069 6.70711C20.8945 6.51957 20.9998 6.26522 20.9998 6V2C20.9998 1.73478 20.8945 1.48043 20.7069 1.29289C20.5194 1.10536 20.265 1 19.9998 1C19.7346 1 19.4803 1.10536 19.2927 1.29289C19.1052 1.48043 18.9998 1.73478 18.9998 2V3.531C17.64 2.40675 16.0295 1.62627 14.3045 1.2555C12.5795 0.884729 10.7905 0.934553 9.08883 1.40076C7.38712 1.86697 5.8226 2.73588 4.52742 3.93408C3.23224 5.13228 2.24445 6.62458 1.64747 8.28495C1.0505 9.94531 0.861875 11.725 1.09754 13.4736C1.33321 15.2222 1.98624 16.8884 3.00147 18.3315C4.01671 19.7745 5.36433 20.9521 6.9305 21.7647C8.49668 22.5772 10.2354 23.0009 11.9998 23C12.265 23 12.5194 22.8947 12.7069 22.7071C12.8945 22.5196 12.9998 22.2652 12.9998 22C12.9998 21.7348 12.8945 21.4804 12.7069 21.2929C12.5194 21.1054 12.265 21 11.9998 21Z" fill="#044D3A"/>
<path id="Vector_6" d="M15.707 15.707C15.8945 15.5195 15.9998 15.2652 15.9998 15C15.9998 14.7348 15.8945 14.4805 15.707 14.293L13 11.586V6C13 5.73478 12.8946 5.48043 12.7071 5.29289C12.5196 5.10536 12.2652 5 12 5C11.7348 5 11.4804 5.10536 11.2929 5.29289C11.1054 5.48043 11 5.73478 11 6V12C11.0001 12.2652 11.1055 12.5195 11.293 12.707L14.293 15.707C14.4805 15.8945 14.7348 15.9998 15 15.9998C15.2652 15.9998 15.5195 15.8945 15.707 15.707Z" fill="#044D3A"/>
</g>
</g>
</svg>
